<svg width="214" height="230" viewBox="0 0 214 230" fill="none" xmlns="http://www.w3.org/2000/svg">
<g filter="url(#filter0_d)">
<path d="M102.092 16.2548H89.4839V27.2424H102.092V16.2548Z" fill="#94C8E3"/>
<path d="M104.187 22.4995H87.3494V11.1561C92.7246 9.6147 98.8113 9.6147 104.187 11.1561V22.4995Z" fill="url(#paint0_linear)"/>
<path d="M88.4563 11.868C89.0492 12.0261 89.642 12.1446 90.2744 12.2632C90.8673 12.3818 91.4996 12.4608 92.0925 12.5004C93.3177 12.6189 94.543 12.6585 95.7682 12.6585C96.3611 12.6189 96.9934 12.6189 97.5863 12.5794L98.4954 12.5004C98.8115 12.4608 99.0882 12.4213 99.4044 12.4213C100.63 12.3027 101.815 12.0656 103.041 11.868C102.448 12.0261 101.855 12.2237 101.262 12.3423C100.669 12.4608 100.037 12.6189 99.4439 12.698C98.2187 12.8956 96.9934 12.9746 95.7287 13.0142C94.5034 13.0142 93.2387 12.9746 92.0134 12.777C90.7882 12.6189 89.563 12.3423 88.4563 11.868Z" fill="#94C8E3"/>
<path d="M88.4568 13.8839C88.5358 15.1486 88.5754 16.4134 88.6149 17.6781C88.6149 18.3105 88.6544 18.9429 88.6939 19.5753C88.7335 20.2077 88.773 20.84 88.8915 21.4329C88.6149 20.84 88.4963 20.2077 88.4173 19.5753C88.3382 18.9429 88.2592 18.3105 88.2592 17.6781C88.1801 16.4134 88.2196 15.1486 88.4568 13.8839Z" fill="#94C8E3"/>
<path d="M90.7096 14.3179C90.8677 15.5036 90.9072 16.6893 90.9072 17.875L90.9467 19.6536V20.5231C90.9467 20.7998 90.9467 21.116 91.0257 21.3926C90.7491 20.8393 90.67 20.2464 90.591 19.6536C90.5119 19.0607 90.5119 18.4679 90.4724 17.875C90.5119 16.6893 90.5515 15.5036 90.7096 14.3179Z" fill="#94C8E3"/>
<path d="M93.279 14.7131C93.3976 15.7803 93.3976 16.8474 93.4371 17.875C93.4371 18.3889 93.4766 18.9422 93.5161 19.456C93.5557 19.9698 93.5952 20.4836 93.6742 21.0369C93.4371 20.5627 93.3185 20.0093 93.2 19.4955C93.1209 18.9817 93.0814 18.4284 93.0419 17.9146C93.0023 16.8474 93.0814 15.7803 93.279 14.7131Z" fill="#94C8E3"/>
<path d="M102.844 13.8835C103.041 15.1482 103.12 16.413 103.081 17.6778C103.041 18.3102 103.002 18.9425 102.923 19.5749C102.844 20.2073 102.686 20.8397 102.448 21.4325C102.567 20.8002 102.607 20.1678 102.646 19.5749C102.686 18.9425 102.725 18.3102 102.725 17.6778C102.725 16.413 102.725 15.1482 102.844 13.8835Z" fill="#94C8E3"/>
<path d="M100.551 14.3179C100.709 15.5036 100.749 16.6893 100.749 17.875C100.749 18.4679 100.709 19.0607 100.63 19.6536C100.551 20.2464 100.512 20.8788 100.196 21.3926C100.275 21.116 100.275 20.7998 100.275 20.5231V19.6536L100.314 17.875C100.393 16.6893 100.433 15.5036 100.551 14.3179Z" fill="#94C8E3"/>
<path d="M97.9819 14.7131C98.1795 15.7803 98.2191 16.8474 98.2191 17.875C98.1795 18.3889 98.14 18.9422 98.061 19.456C97.9819 19.9698 97.8238 20.5231 97.5867 20.9974C97.6657 20.4836 97.7052 19.9303 97.7448 19.4165C97.7843 18.9027 97.7843 18.3889 97.8238 17.8355C97.8633 16.8474 97.9029 15.7803 97.9819 14.7131Z" fill="#94C8E3"/>
<path d="M95.6893 14.7131C95.8474 15.7803 95.8869 16.8079 95.8869 17.875C95.8869 18.3889 95.8474 18.9422 95.8079 19.456C95.7684 19.9698 95.7288 20.5231 95.5708 21.0369C95.5708 20.5231 95.5312 19.9698 95.5312 19.456C95.5312 18.9422 95.4917 18.3889 95.4917 17.875C95.4917 16.8474 95.5312 15.7803 95.6893 14.7131Z" fill="#94C8E3"/>
<path d="M96.7565 133.087C124.74 133.087 147.426 110.401 147.426 82.4174C147.426 54.4333 124.74 31.7478 96.7565 31.7478C68.7725 31.7478 46.0869 54.4333 46.0869 82.4174C46.0869 110.401 68.7725 133.087 96.7565 133.087Z" fill="url(#paint1_linear)"/>
<path d="M97.0289 125.176C120.497 125.176 139.521 106.152 139.521 82.6838C139.521 59.2161 120.497 40.1917 97.0289 40.1917C73.5612 40.1917 54.5369 59.2161 54.5369 82.6838C54.5369 106.152 73.5612 125.176 97.0289 125.176Z" fill="url(#paint2_linear)"/>
<path d="M68.799 59.0021C67.679 58.7821 67.329 58.4121 67.329 57.6921C67.329 57.0321 67.859 56.4521 69.019 56.4521C70.129 56.4521 70.549 57.0121 70.709 57.5821C70.789 57.7921 70.969 57.8721 71.149 57.8721C71.209 57.8721 71.269 57.8621 71.319 57.8521C71.519 57.8121 71.689 57.6621 71.689 57.4521C71.689 57.4021 71.679 57.3521 71.659 57.3021C71.439 56.5821 70.819 55.6221 69.019 55.6221C67.139 55.6221 66.359 56.6421 66.359 57.6921C66.359 59.0021 67.039 59.5721 68.539 59.8821L69.339 60.0521C70.519 60.2921 70.969 60.6521 70.969 61.4721C70.969 62.3321 70.259 62.8821 69.119 62.8821C67.659 62.8821 67.329 62.1321 67.149 61.4621C67.089 61.2521 66.899 61.1621 66.709 61.1621C66.649 61.1621 66.599 61.1721 66.539 61.1821C66.329 61.2321 66.159 61.3821 66.159 61.6021C66.159 61.6421 66.169 61.6821 66.179 61.7321C66.419 62.5421 66.889 63.7221 69.169 63.7221C70.959 63.7221 71.949 62.7521 71.949 61.4621C71.949 60.0121 71.099 59.4821 69.539 59.1521L68.799 59.0021ZM76.518 60.0221C75.448 60.0421 74.928 60.1021 74.378 60.2521C73.428 60.5121 72.868 61.1121 72.868 62.0521C72.868 63.0821 73.538 63.7021 74.638 63.7021C75.628 63.7021 76.158 63.3121 76.538 62.8821C76.548 63.0821 76.568 63.2621 76.598 63.3821C76.638 63.5621 76.818 63.6221 77.018 63.6221C77.048 63.6221 77.078 63.6221 77.108 63.6221C77.358 63.6021 77.508 63.4621 77.508 63.3021C77.508 63.2721 77.498 63.2321 77.488 63.2021C77.428 63.0121 77.378 62.6721 77.378 62.3221V59.5921C77.378 58.4121 76.718 57.8821 75.378 57.8821C74.568 57.8821 74.118 58.0521 73.768 58.3221C73.538 58.5021 73.278 58.7921 73.178 59.1021C73.168 59.1421 73.158 59.1821 73.158 59.2221C73.158 59.4021 73.298 59.5421 73.488 59.6021C73.558 59.6321 73.638 59.6421 73.718 59.6421C73.888 59.6421 74.038 59.5721 74.108 59.3821C74.278 58.9221 74.638 58.6421 75.368 58.6421C76.158 58.6421 76.518 58.9321 76.518 59.5921V60.0221ZM76.518 61.4121C76.518 61.7921 76.448 61.9821 76.258 62.2221C75.938 62.6221 75.418 62.9321 74.788 62.9321C74.188 62.9321 73.788 62.5821 73.788 62.0621C73.788 61.5821 73.998 61.2721 74.398 61.0721C74.798 60.8721 75.348 60.7721 76.518 60.7421V61.4121ZM81.3304 61.3421C81.2004 61.6821 81.0104 62.3921 80.9204 62.7621C80.8404 62.4021 80.6404 61.7321 80.5204 61.3921L79.3604 58.2421C79.2904 58.0421 79.1404 57.9621 78.9604 57.9621C78.9004 57.9621 78.8304 57.9721 78.7604 57.9921C78.5704 58.0421 78.4404 58.1921 78.4404 58.3821C78.4404 58.4321 78.4504 58.4821 78.4704 58.5421L80.3104 63.2121C80.4304 63.5221 80.6404 63.6221 80.9104 63.6221C81.1704 63.6221 81.3904 63.5321 81.5104 63.2221L83.3504 58.5421C83.3804 58.4821 83.3904 58.4221 83.3904 58.3721C83.3904 58.1821 83.2604 58.0521 83.0604 57.9921C82.9904 57.9721 82.9304 57.9621 82.8704 57.9621C82.6904 57.9621 82.5504 58.0521 82.4704 58.2521L81.3304 61.3421ZM88.5184 60.9621C88.8284 60.9621 89.0184 60.7721 89.0184 60.4121C89.0184 60.3821 89.0184 60.3621 89.0184 60.3321C88.9184 59.0221 88.0984 57.8821 86.6384 57.8821C85.0084 57.8821 84.1084 59.0921 84.1084 60.8221C84.1084 62.5521 85.0584 63.7121 86.6984 63.7121C87.9984 63.7121 88.5784 63.0521 88.8984 62.3921C88.9384 62.3321 88.9484 62.2721 88.9484 62.2121C88.9484 62.0321 88.8084 61.9121 88.6384 61.8621C88.5684 61.8421 88.4984 61.8221 88.4284 61.8221C88.2884 61.8221 88.1584 61.8921 88.0684 62.0721C87.8284 62.6021 87.4284 62.9621 86.7084 62.9621C85.6284 62.9621 85.0184 62.1921 84.9984 60.9621H88.5184ZM85.0284 60.2321C85.1584 59.2521 85.6784 58.6121 86.6384 58.6121C87.5584 58.6121 87.9884 59.3421 88.1084 60.0521C88.1084 60.0721 88.1084 60.0921 88.1084 60.1021C88.1084 60.1921 88.0684 60.2321 87.9584 60.2321H85.0284ZM95.6407 56.6521V63.2121C95.6407 63.4821 95.8507 63.6221 96.1207 63.6221C96.3907 63.6221 96.6007 63.4821 96.6007 63.2121V56.6521H98.8707C99.1007 56.6521 99.2507 56.4521 99.2507 56.2221C99.2507 55.9821 99.1107 55.7721 98.8707 55.7721H93.3607C93.1207 55.7721 92.9807 55.9821 92.9807 56.2221C92.9807 56.4521 93.1207 56.6521 93.3707 56.6521H95.6407ZM104.809 59.8321C104.809 58.6021 104.169 57.8821 102.979 57.8821C101.929 57.8821 101.379 58.4121 101.049 59.1221C101.069 58.9721 101.109 58.7421 101.109 58.6121V56.1021C101.109 55.8321 100.939 55.7121 100.679 55.7121C100.399 55.7121 100.209 55.8421 100.209 56.1021V63.2221C100.209 63.4921 100.399 63.6221 100.679 63.6221C100.939 63.6221 101.109 63.4921 101.109 63.2221V60.4221C101.109 60.0321 101.219 59.7421 101.469 59.4021C101.799 58.9621 102.239 58.7021 102.799 58.7021C103.549 58.7021 103.899 59.1721 103.899 60.0221V63.2221C103.899 63.4921 104.079 63.6221 104.349 63.6221C104.609 63.6221 104.809 63.4921 104.809 63.2221V59.8321ZM110.354 60.9621C110.664 60.9621 110.854 60.7721 110.854 60.4121C110.854 60.3821 110.854 60.3621 110.854 60.3321C110.754 59.0221 109.934 57.8821 108.474 57.8821C106.844 57.8821 105.944 59.0921 105.944 60.8221C105.944 62.5521 106.894 63.7121 108.534 63.7121C109.834 63.7121 110.414 63.0521 110.734 62.3921C110.774 62.3321 110.784 62.2721 110.784 62.2121C110.784 62.0321 110.644 61.9121 110.474 61.8621C110.404 61.8421 110.334 61.8221 110.264 61.8221C110.124 61.8221 109.994 61.8921 109.904 62.0721C109.664 62.6021 109.264 62.9621 108.544 62.9621C107.464 62.9621 106.854 62.1921 106.834 60.9621H110.354ZM106.864 60.2321C106.994 59.2521 107.514 58.6121 108.474 58.6121C109.394 58.6121 109.824 59.3421 109.944 60.0521C109.944 60.0721 109.944 60.0921 109.944 60.1021C109.944 60.1921 109.904 60.2321 109.794 60.2321H106.864ZM68.629 71.6521V78.2121C68.629 78.4821 68.839 78.6221 69.109 78.6221C69.379 78.6221 69.589 78.4821 69.589 78.2121V71.6521H71.859C72.089 71.6521 72.239 71.4521 72.239 71.2221C72.239 70.9821 72.099 70.7721 71.859 70.7721H66.349C66.109 70.7721 65.969 70.9821 65.969 71.2221C65.969 71.4521 66.109 71.6521 66.359 71.6521H68.629ZM73.1868 78.2221C73.1868 78.4921 73.3568 78.6221 73.6368 78.6221C73.9068 78.6221 74.0968 78.4921 74.0968 78.2221V73.3521C74.0968 73.0921 73.9068 72.9621 73.6368 72.9621C73.3568 72.9621 73.1868 73.0921 73.1868 73.3521V78.2221ZM73.6468 70.7021C73.2668 70.7021 72.9668 70.9921 72.9668 71.3721C72.9668 71.7621 73.2668 72.0521 73.6468 72.0521C74.0168 72.0521 74.3168 71.7621 74.3168 71.3721C74.3168 70.9921 74.0168 70.7021 73.6468 70.7021ZM82.9106 74.8221C82.9106 73.6021 82.4406 72.8921 81.2606 72.8921C80.1506 72.8921 79.7906 73.4621 79.5006 73.9821C79.3706 73.2921 78.8906 72.8921 78.0106 72.8921C77.0306 72.8921 76.6106 73.4521 76.3606 74.0421C76.3906 73.8921 76.4306 73.6921 76.4306 73.5621V73.3521C76.4306 73.0921 76.2506 72.9621 76.0006 72.9621C75.7206 72.9621 75.5306 73.0921 75.5306 73.3521V78.2221C75.5306 78.4921 75.7106 78.6221 75.9906 78.6221C76.2506 78.6221 76.4306 78.4921 76.4306 78.2221V75.3221C76.4306 74.9921 76.5206 74.6321 76.7006 74.3621C76.9406 74.0021 77.2606 73.6921 77.7906 73.6921C78.5006 73.6921 78.7506 74.1721 78.7506 75.0221V78.2221C78.7506 78.4921 78.9206 78.6221 79.2006 78.6221C79.4606 78.6221 79.6506 78.4921 79.6506 78.2221V75.2721C79.6506 74.9721 79.7706 74.5821 79.9206 74.3721C80.1606 74.0121 80.5106 73.6921 81.0406 73.6921C81.7606 73.6921 82.0006 74.1721 82.0006 75.0221V78.2221C82.0006 78.4921 82.1706 78.6221 82.4506 78.6221C82.7106 78.6221 82.9106 78.4921 82.9106 78.2221V74.8221ZM88.4501 75.9621C88.7601 75.9621 88.9501 75.7721 88.9501 75.4121C88.9501 75.3821 88.9501 75.3621 88.9501 75.3321C88.8501 74.0221 88.0301 72.8821 86.5701 72.8821C84.9401 72.8821 84.0401 74.0921 84.0401 75.8221C84.0401 77.5521 84.9901 78.7121 86.6301 78.7121C87.9301 78.7121 88.5101 78.0521 88.8301 77.3921C88.8701 77.3321 88.8801 77.2721 88.8801 77.2121C88.8801 77.0321 88.7401 76.9121 88.5701 76.8621C88.5001 76.8421 88.4301 76.8221 88.3601 76.8221C88.2201 76.8221 88.0901 76.8921 88.0001 77.0721C87.7601 77.6021 87.3601 77.9621 86.6401 77.9621C85.5601 77.9621 84.9501 77.1921 84.9301 75.9621H88.4501ZM84.9601 75.2321C85.0901 74.2521 85.6101 73.6121 86.5701 73.6121C87.4901 73.6121 87.9201 74.3421 88.0401 75.0521C88.0401 75.0721 88.0401 75.0921 88.0401 75.1021C88.0401 75.1921 88.0001 75.2321 87.8901 75.2321H84.9601Z" fill="#016729"/>
<path d="M51.8572 113.128C51.8572 113.128 42.8852 138.937 45.6124 139.688C48.3395 140.438 67.7853 124.076 67.7853 124.076L51.8572 113.128Z" fill="url(#paint3_linear)"/>
<path d="M141.34 113.128C141.34 113.128 150.312 138.937 147.585 139.688C144.858 140.438 125.412 124.076 125.412 124.076L141.34 113.128Z" fill="url(#paint4_linear)"/>
<path d="M96.7562 25.6616C65.4138 25.6616 40 51.0754 40 82.4178C40 113.76 65.4138 139.174 96.7562 139.174C128.099 139.174 153.512 113.76 153.512 82.4178C153.512 51.0754 128.099 25.6616 96.7562 25.6616ZM96.7562 133.087C68.7734 133.087 46.0867 110.401 46.0867 82.4178C46.0867 54.4349 68.7734 31.7482 96.7562 31.7482C124.739 31.7482 147.426 54.4349 147.426 82.4178C147.426 110.401 124.739 133.087 96.7562 133.087Z" fill="url(#paint5_linear)"/>
<path d="M96.7569 34.3962C96.9941 34.7914 97.1126 35.1867 97.2312 35.6214C97.3103 36.0167 97.3498 36.4119 97.3498 36.8467C97.3498 37.2419 97.3103 37.6371 97.2312 38.0719C97.1522 38.4671 96.9941 38.8624 96.7569 39.2971C96.5198 38.9019 96.4012 38.5067 96.2826 38.0719C96.2036 37.6767 96.1641 37.2814 96.1641 36.8467C96.1641 36.4514 96.2036 36.0562 96.2826 35.6214C96.4012 35.1867 96.5198 34.7914 96.7569 34.3962Z" fill="url(#paint6_linear)"/>
<path d="M72.7258 40.7989C73.1211 41.036 73.4373 41.3127 73.7139 41.6289C73.9906 41.9451 74.2277 42.2613 74.4254 42.617C74.623 42.9727 74.7811 43.3284 74.9392 43.7237C75.0577 44.1189 75.1368 44.5141 75.1368 44.9884C74.702 44.7513 74.4254 44.4746 74.1092 44.1584C73.8325 43.8422 73.5954 43.526 73.3977 43.1703C73.2001 42.8146 73.042 42.4589 72.8839 42.0637C72.8444 41.7079 72.7258 41.2732 72.7258 40.7989Z" fill="url(#paint7_linear)"/>
<path d="M55.1772 58.3873C55.6515 58.3873 56.0468 58.4663 56.442 58.5849C56.8372 58.7035 57.193 58.8616 57.5487 59.0987C57.9044 59.2963 58.2206 59.5335 58.5368 59.8101C58.853 60.0868 59.1296 60.403 59.3668 60.8377C58.8925 60.8377 58.4972 60.7587 58.102 60.6401C57.7068 60.5216 57.3511 60.3635 56.9953 60.1263C56.6396 59.9287 56.3234 59.6916 56.0072 59.4149C55.6911 59.1382 55.3749 58.822 55.1772 58.3873Z" fill="url(#paint8_linear)"/>
<path d="M48.7349 82.4178C49.1301 82.1807 49.5253 82.0621 49.9601 81.9435C50.3553 81.8645 50.7506 81.825 51.1853 81.825C51.5806 81.825 51.9758 81.8645 52.4106 81.9435C52.8058 82.0226 53.2011 82.1807 53.6358 82.4178C53.2406 82.655 52.8453 82.7735 52.4106 82.8921C52.0153 82.9711 51.6201 83.0107 51.1853 83.0107C50.7901 83.0107 50.3949 82.9711 49.9601 82.8921C49.5253 82.7735 49.1301 82.655 48.7349 82.4178Z" fill="url(#paint9_linear)"/>
<path d="M55.1772 106.448C55.4144 106.053 55.6911 105.737 56.0072 105.46C56.3234 105.183 56.6396 104.946 56.9953 104.749C57.3511 104.551 57.7068 104.393 58.102 104.235C58.4972 104.116 58.8925 104.037 59.3668 104.037C59.1296 104.472 58.853 104.749 58.5368 105.065C58.2206 105.341 57.9044 105.579 57.5487 105.776C57.193 105.974 56.8372 106.132 56.442 106.29C56.0468 106.369 55.6515 106.448 55.1772 106.448Z" fill="url(#paint10_linear)"/>
<path d="M72.7258 124.036C72.7258 123.562 72.8049 123.167 72.9234 122.771C73.042 122.376 73.2001 122.02 73.4373 121.665C73.6349 121.309 73.872 120.993 74.1487 120.677C74.4254 120.36 74.7415 120.084 75.1763 119.847C75.1763 120.321 75.0973 120.716 74.9787 121.111C74.8601 121.507 74.702 121.862 74.4649 122.218C74.2673 122.574 74.0301 122.89 73.7534 123.206C73.4768 123.522 73.1606 123.799 72.7258 124.036Z" fill="url(#paint11_linear)"/>
<path d="M96.7569 130.479C96.5198 130.083 96.4012 129.688 96.2826 129.253C96.2036 128.858 96.1641 128.463 96.1641 128.028C96.1641 127.633 96.2036 127.238 96.2826 126.803C96.3617 126.408 96.5198 126.012 96.7569 125.578C96.9941 125.973 97.1126 126.368 97.2312 126.803C97.3103 127.198 97.3498 127.593 97.3498 128.028C97.3498 128.423 97.3103 128.819 97.2312 129.253C97.1522 129.649 96.9941 130.044 96.7569 130.479Z" fill="url(#paint12_linear)"/>
<path d="M120.787 124.036C120.392 123.799 120.076 123.522 119.799 123.206C119.523 122.89 119.286 122.574 119.088 122.218C118.89 121.862 118.732 121.507 118.574 121.111C118.456 120.716 118.376 120.321 118.376 119.847C118.811 120.084 119.088 120.36 119.404 120.677C119.681 120.993 119.918 121.309 120.116 121.665C120.313 122.02 120.471 122.376 120.629 122.771C120.708 123.127 120.787 123.562 120.787 124.036Z" fill="url(#paint13_linear)"/>
<path d="M138.375 106.448C137.901 106.448 137.506 106.369 137.11 106.25C136.715 106.132 136.359 105.974 136.004 105.737C135.648 105.539 135.332 105.302 135.016 105.025C134.699 104.748 134.423 104.432 134.186 103.997C134.66 103.997 135.055 104.077 135.45 104.195C135.846 104.314 136.201 104.472 136.557 104.709C136.913 104.907 137.229 105.144 137.545 105.42C137.861 105.697 138.138 106.013 138.375 106.448Z" fill="url(#paint14_linear)"/>
<path d="M144.816 82.4178C144.421 82.655 144.026 82.7735 143.591 82.8921C143.196 82.9711 142.801 83.0107 142.366 83.0107C141.971 83.0107 141.576 82.9711 141.141 82.8921C140.746 82.813 140.35 82.655 139.916 82.4178C140.311 82.1807 140.706 82.0621 141.141 81.9435C141.536 81.8645 141.931 81.825 142.366 81.825C142.761 81.825 143.156 81.8645 143.591 81.9435C143.986 82.0621 144.382 82.1807 144.816 82.4178Z" fill="url(#paint15_linear)"/>
<path d="M138.375 58.3873C138.138 58.7825 137.861 59.0987 137.545 59.3754C137.229 59.652 136.913 59.8892 136.557 60.0868C136.201 60.2844 135.846 60.4425 135.45 60.6006C135.055 60.7192 134.66 60.7982 134.186 60.7982C134.423 60.3635 134.699 60.0868 135.016 59.7706C135.332 59.4939 135.648 59.2568 136.004 59.0592C136.359 58.8616 136.715 58.7035 137.11 58.5454C137.466 58.4663 137.901 58.3873 138.375 58.3873Z" fill="url(#paint16_linear)"/>
<path d="M120.787 40.7989C120.787 41.2732 120.708 41.6684 120.589 42.0637C120.471 42.4589 120.313 42.8146 120.075 43.1703C119.878 43.526 119.641 43.8422 119.364 44.1584C119.087 44.4746 118.771 44.7513 118.336 44.9884C118.336 44.5141 118.415 44.1189 118.534 43.7237C118.653 43.3284 118.811 42.9727 119.048 42.617C119.245 42.2613 119.483 41.9451 119.759 41.6289C120.075 41.3127 120.352 41.036 120.787 40.7989Z" fill="url(#paint17_linear)"/>
<path opacity="0.23" d="M96.7565 34.3564C124.305 34.3564 146.675 56.2921 147.426 83.6821C147.426 83.2474 147.426 82.8521 147.426 82.4174C147.426 54.4345 124.739 31.7478 96.7565 31.7478C68.7736 31.7478 46.0869 54.4345 46.0869 82.4174C46.0869 82.8521 46.0869 83.2474 46.0869 83.6821C46.8379 56.3316 69.2479 34.3564 96.7565 34.3564Z" fill="#94C8E3"/>
<path d="M107.941 28.2695C111.696 28.9019 115.332 30.0876 118.85 31.5895C122.367 33.0914 125.687 35.028 128.81 37.2019C130.351 38.3085 131.814 39.5338 133.236 40.7985C134.62 42.1028 136.003 43.4466 137.228 44.909C139.718 47.7942 141.853 50.9957 143.552 54.3947C142.604 52.7347 141.655 51.1142 140.509 49.5728C139.442 47.9919 138.216 46.5295 136.991 45.1066C135.726 43.6838 134.383 42.34 132.999 41.0752C131.576 39.8104 130.114 38.6247 128.573 37.518C125.49 35.3047 122.209 33.4076 118.731 31.8661C116.992 31.0757 115.253 30.3642 113.435 29.7714C111.656 29.1785 109.799 28.6647 107.941 28.2695Z" fill="#94C8E3"/>
<path d="M95.8867 135.458C92.0924 135.537 88.2586 134.984 84.5434 134.154C80.8281 133.324 77.1919 132.02 73.7534 130.439C72.0143 129.609 70.3543 128.7 68.7338 127.672C67.1134 126.644 65.5324 125.577 64.07 124.352C61.1057 121.941 58.4181 119.174 56.1257 116.171C57.351 117.633 58.6157 119.056 59.9595 120.36C61.3034 121.704 62.7657 122.929 64.2281 124.115C65.73 125.261 67.2715 126.368 68.8919 127.356C70.5124 128.344 72.1724 129.253 73.9115 130.044C77.35 131.664 80.9467 132.929 84.6224 133.838C86.48 134.312 88.3377 134.668 90.1953 134.944C92.0924 135.221 93.9896 135.419 95.8867 135.458Z" fill="#94C8E3"/>
<path opacity="0.23" d="M120.668 37.7162C121.695 38.2696 122.723 38.8624 123.711 39.4948C125.134 38.981 127.466 37.8348 129.916 36.3329C125.331 33.0524 120.272 30.4043 114.818 28.5862C116.913 32.0248 119.166 35.582 120.668 37.7162Z" fill="#4C649E"/>
<path d="M71.1021 96.748C71.4658 98.0817 71.8053 99.2457 72.0721 100.434C72.169 100.895 72.169 101.428 72.1448 101.889C72.1206 102.471 71.7811 102.519 71.4901 102.083C70.8838 101.137 70.4231 98.1787 70.7384 97.0875C70.7626 96.942 70.8838 96.9178 71.1021 96.748Z" fill="#8AC249"/>
<path d="M115.501 118.451C115.235 118.911 114.968 119.396 114.677 119.881C114.313 120.512 113.925 121.167 113.561 121.821C113.392 120.924 113.222 119.978 113.076 119.008C113.076 118.936 113.052 118.863 113.052 118.79C113.052 118.717 113.052 118.693 113.052 118.645C113.052 118.572 113.052 118.475 113.052 118.402C113.076 118.257 113.101 118.135 113.149 118.014C113.246 117.796 113.416 117.651 113.634 117.578C113.755 117.893 113.925 118.184 113.998 118.523L114.071 118.863L114.119 119.154C114.216 119.033 114.289 118.887 114.41 118.742C114.41 118.742 114.507 118.596 114.556 118.523C114.628 118.451 114.677 118.378 114.725 118.305C114.847 118.184 114.944 118.111 115.041 118.063C115.21 118.014 115.38 118.135 115.501 118.451Z" fill="#8AC249"/>
<path d="M122.606 107.151C121.709 107.199 121.636 106.957 122.218 105.963C122.873 104.823 123.552 103.707 124.255 102.592C124.643 101.986 124.667 101.986 125.298 102.131C124.425 103.78 123.552 105.405 122.606 107.151Z" fill="#8AC249"/>
<path d="M112.979 80.3311C111.573 79.5551 110.409 78.4154 109.245 77.3727C109.051 77.2029 109.075 76.8392 109.002 76.5724C109.317 76.6937 109.681 76.7422 109.948 76.9362C110.748 77.4939 111.548 78.1001 112.3 78.7549C112.955 79.3368 113.294 79.8946 112.979 80.3311Z" fill="#8AC249"/>
<path d="M125.953 90.7341C125.444 90.3703 124.935 90.0308 124.426 89.6671C123.941 89.3034 123.529 88.9154 123.65 88.5516C123.795 88.1879 124.28 88.4547 124.765 88.8426C125.565 89.4489 126.366 90.0308 127.166 90.6371C127.675 91.0251 128.233 91.51 127.966 91.8495C127.724 92.189 127.117 91.7768 126.608 91.3888C126.366 91.1948 126.123 91.0008 125.881 90.8068L125.953 90.7341Z" fill="#8AC249"/>
<path d="M107.693 82.8289C107.887 83.8959 108.057 84.8901 108.202 85.8358C107.548 85.957 106.941 86.054 106.335 86.151C105.268 86.3208 105.196 86.248 105.317 85.4963C105.705 85.4236 106.117 85.3266 106.505 85.2538L106.796 85.1811L106.941 85.1568C106.966 85.1568 107.014 85.1326 107.014 85.1326H107.038L107.16 85.0841C107.135 85.0356 107.135 84.9871 107.111 84.9143C107.063 84.6718 107.038 84.4536 106.99 84.2111C106.893 83.5079 106.99 82.7804 107.693 82.8289Z" fill="#8AC249"/>
<path d="M87.2761 88.5517C88.731 88.3577 89.9435 88.2122 91.1802 88.0182C92.2229 87.8485 92.6351 88.0425 92.6594 88.5759C91.2287 88.9639 89.8222 89.2064 88.3915 89.2549C87.4216 89.3034 87.2518 89.0124 87.2761 88.5517Z" fill="#8AC249"/>
<path d="M118.193 84.3808C117.829 84.0898 117.174 83.5806 116.568 83.0229C116.326 82.8046 116.253 82.4651 116.083 82.1741C116.374 82.2469 116.738 82.2469 116.98 82.4166C117.975 83.1683 118.945 83.9686 119.915 84.7688C120.157 84.9628 120.448 85.2295 120.545 85.4235C120.691 85.6903 120.666 85.9327 120.691 86.1995C120.4 86.0782 120.084 86.0055 119.842 85.8115C119.357 85.472 118.896 85.0355 118.193 84.3808Z" fill="#8AC249"/>
<path d="M120.23 110.691C119.551 111.831 118.896 112.873 118.266 113.94C117.926 114.474 117.562 114.838 117.247 114.716C116.859 114.571 117.15 114.037 117.465 113.528C117.95 112.728 118.435 111.928 118.92 111.152C119.429 110.351 119.866 110.109 120.23 110.691Z" fill="#8AC249"/>
<path d="M112.301 113.892C111.986 112.316 111.695 110.861 111.355 109.139C111.525 109.018 111.792 108.581 111.962 108.751C112.18 108.921 112.398 109.6 112.495 110.085C112.689 111.127 112.786 112.194 112.907 113.237C112.98 114.013 112.738 114.11 112.301 113.892Z" fill="#8AC249"/>
<path d="M106.383 74.7054C106.359 74.6811 106.311 74.6569 106.286 74.6326C106.359 75.0448 106.432 75.4328 106.48 75.7966C106.602 76.4755 106.699 77.1545 106.82 77.8092C106.917 78.367 106.844 78.8762 106.529 78.7792C106.383 78.7307 106.141 78.2457 106.044 77.9062C105.923 77.397 105.801 76.8878 105.704 76.3543L105.632 75.9663L105.535 75.4571C105.462 74.9963 105.365 74.5356 105.292 74.0749C105.147 73.2019 105.05 72.6927 105.122 72.6199C105.559 73.1049 105.801 73.5899 106.383 74.7054Z" fill="#8AC249"/>
<path d="M72.6045 109.381C72.5075 108.824 72.4105 108.266 72.3135 107.708C72.2165 107.029 72.3863 106.617 72.6773 106.641C72.7985 106.666 73.0653 107.199 73.138 107.538C73.332 108.387 73.4532 109.26 73.5745 110.133C73.623 110.497 73.6472 110.909 73.5987 111.176C73.5502 111.443 73.3805 111.637 73.2108 111.661C73.138 111.685 72.9198 111.273 72.8713 111.006C72.75 110.521 72.6773 109.939 72.6045 109.381Z" fill="#8AC249"/>
<path d="M92.4653 111.807C93.9203 111.249 95.351 111.176 96.7574 111.031C97.0484 111.007 97.2909 111.249 97.5576 111.37C97.2667 111.54 96.9757 111.758 96.6604 111.831C95.739 112.025 94.7932 112.171 93.8718 112.316C93.0716 112.462 92.5866 112.316 92.4653 111.807Z" fill="#8AC249"/>
<path d="M129.881 94.6865C129.178 95.9232 128.547 97.0872 127.869 98.2026C127.432 98.9059 126.947 99.2938 126.414 99.0513C126.632 98.6149 126.85 98.1299 127.117 97.7176C127.65 96.8689 128.208 96.0687 128.741 95.22C129.202 94.4683 129.566 94.2015 129.881 94.6865Z" fill="#8AC249"/>
<path d="M78.7406 113.867C78.8133 114.231 78.8376 114.474 78.8861 114.765C77.7464 114.959 76.7279 115.153 75.6852 115.298C75.5397 115.322 75.3699 115.347 75.2244 115.347C75.1517 115.347 75.079 115.347 75.0062 115.347C74.982 115.347 74.9335 115.347 74.9092 115.322C74.8607 115.322 74.8365 115.322 74.8122 115.298C74.6425 115.25 74.5212 115.177 74.4727 115.104C74.4242 115.007 74.4485 114.91 74.497 114.813C74.5212 114.765 74.6182 114.692 74.7152 114.643C74.7395 114.619 74.7637 114.619 74.7637 114.595L74.788 114.571C74.788 114.571 74.8365 114.546 74.8607 114.546C74.9577 114.522 75.0547 114.498 75.1275 114.474C76.2429 114.28 77.4311 114.086 78.7406 113.867Z" fill="#8AC249"/>
<path d="M101.704 87.1452C100.321 87.4362 99.109 87.703 97.8966 87.9212C97.0964 88.0667 96.3931 87.994 96.5629 87.315C97.8966 87.0725 99.2545 86.8058 100.637 86.5875C101.364 86.4663 101.364 86.5148 101.704 87.1452Z" fill="#8AC249"/>
<path d="M86.0628 113.552C85.505 113.649 84.923 113.819 84.3896 113.819C84.0258 113.819 83.7591 113.601 83.4438 113.48C83.7348 113.31 84.0016 113.067 84.3168 112.995C85.1655 112.801 86.0385 112.655 86.9115 112.534C87.445 112.461 88.0997 112.437 88.1239 112.825C88.1239 113.189 87.6147 113.358 86.9842 113.431C86.6932 113.455 86.378 113.504 86.0628 113.552Z" fill="#8AC249"/>
<path d="M74.6901 91.4375C73.8657 91.8012 73.114 91.9952 72.3865 92.1164C72.0227 92.1892 71.6833 92.2134 71.3438 92.2619C71.2468 92.2619 71.174 92.2862 71.077 92.2862H70.9558H70.9073C70.8345 92.2862 70.7618 92.2862 70.6648 92.2862C70.6405 92.2862 70.6405 92.2862 70.6163 92.2862C70.6163 92.4074 70.5435 92.5044 70.4223 92.5772C70.3011 92.6499 70.1313 92.6742 69.8888 92.4317C69.8403 92.1892 69.7918 91.9224 69.7676 91.68C70.4466 91.5587 71.1498 91.4375 71.8288 91.3162C72.4107 91.2192 72.9927 91.1222 73.5747 91.0495C73.8899 91.0252 74.2052 91.2677 74.6901 91.4375Z" fill="#8AC249"/>
<path d="M105.68 109.988C103.716 110.691 102.164 110.788 100.661 111.006C100.418 111.03 100.176 110.836 99.7637 110.691C101.267 109.988 102.843 109.939 104.323 109.721C104.613 109.648 104.977 109.842 105.68 109.988Z" fill="#8AC249"/>
<path d="M83.2985 90.1035C81.8678 90.3459 80.5341 90.6127 79.1762 90.8067C78.4972 90.9037 78.4244 90.6369 78.5457 90.2489C79.8066 89.9822 81.1403 89.6427 82.474 89.4487C83.25 89.3032 83.4683 89.6185 83.2985 90.1035Z" fill="#8AC249"/>
<path d="M109.318 108.848C109.924 108.775 110.554 108.678 111.136 108.678C111.427 108.678 111.84 108.824 111.815 108.945C111.767 109.139 111.427 109.454 111.185 109.503C110.094 109.673 109.003 109.77 107.911 109.867C107.742 109.891 107.451 109.697 107.475 109.576C107.499 109.454 107.79 109.26 108.033 109.188C108.421 109.066 108.881 109.018 109.318 108.945V108.848Z" fill="#8AC249"/>
<path d="M126.826 93.2558C126.098 92.8436 125.468 92.2858 124.837 91.7281C123.916 90.9036 122.994 90.0549 122.121 89.2062C120.812 87.9452 119.478 86.6843 118.072 85.4961L116.132 83.8714L114.24 82.2709L111.524 79.9915C110.53 79.1428 109.536 78.3668 108.493 77.4696C108.13 77.1544 107.766 76.8391 107.426 76.5482C107.669 78.2456 107.96 80.1128 108.275 81.9557L108.736 84.5989L109.003 86.1266C109.027 86.2236 109.051 86.3448 109.075 86.466L109.003 86.4903C108.954 86.5145 108.906 86.5145 108.833 86.5388L108.784 86.563H108.76H108.712L108.299 86.66C107.742 86.7813 107.184 86.8783 106.626 86.951C104.298 87.2663 101.995 87.6785 99.6909 88.0422C94.6713 88.8667 89.6517 89.5942 84.6322 90.3217C82.2072 90.6854 79.8066 91.0734 77.4059 91.5099L75.0538 91.9221L71.0769 92.6496L72.3136 99.7303C72.4591 100.603 72.7016 101.476 72.8471 102.349C73.1866 104.362 73.6958 106.326 74.108 108.314C74.2535 109.018 74.4233 109.745 74.593 110.448L74.7143 111.006L74.9083 111.879L75.272 113.577L75.4175 113.552C76.3632 113.358 77.3089 113.14 78.2546 112.946C79.8551 112.607 81.4798 112.291 83.056 111.928C85.5294 111.346 88.027 110.958 90.5489 110.57L97.4842 109.527L99.5454 109.236C100.273 109.139 101.025 109.042 101.752 108.921L108.372 107.805L112.979 107.005L113.076 107.514L113.537 110.206C113.78 111.612 113.998 113.019 114.24 114.498C114.337 115.177 114.459 115.856 114.556 116.511C115.55 114.91 116.592 113.237 117.587 111.54L118.629 109.769L119.43 108.411L121.006 105.696L123.528 101.452C124.279 100.215 124.983 98.9543 125.395 97.6449C125.468 97.4266 125.613 97.2084 125.71 96.9902C125.856 96.7234 125.977 96.4567 126.122 96.2142C126.438 95.608 126.632 95.0745 126.632 94.5895L126.874 94.2015L126.656 94.0075C126.923 94.0803 127.117 94.0075 127.165 93.8135C127.238 93.668 127.092 93.4255 126.826 93.2558Z" fill="#33513A"/>
<path d="M76.2419 102.883C75.8782 100.821 77.2846 98.8816 79.3458 98.5421C80.2915 98.3723 81.2372 98.5663 82.1102 99.1483L81.3827 100.167C80.825 99.7788 80.1945 99.6575 79.564 99.7788C78.1818 100.021 77.2604 101.282 77.4786 102.689C77.7211 104.071 78.982 104.968 80.3885 104.726C80.922 104.629 81.3827 104.386 81.7707 103.998L81.5282 102.616L80.0733 102.858L79.855 101.646L82.4497 101.209L83.0316 104.556C82.3769 105.308 81.601 105.817 80.6067 105.987C78.5456 106.326 76.6056 104.968 76.2419 102.883Z" fill="url(#paint18_linear)"/>
<path d="M83.5654 101.646C83.2017 99.5608 84.6324 97.6451 86.6451 97.3057C88.7305 96.9419 90.6462 98.3726 90.9856 100.385C91.3494 102.471 89.9187 104.386 87.906 104.726C85.8206 105.065 83.9049 103.659 83.5654 101.646Z" fill="url(#paint19_linear)"/>
<path fill-rule="evenodd" clip-rule="evenodd" d="M88.9494 98.8335C85.797 100.604 86.7427 102.059 87.2519 102.592C87.3489 102.228 87.5672 101.743 87.9794 101.283C87.9794 101.283 87.7127 102.107 87.6642 102.786C91.447 102.35 88.9494 98.8335 88.9494 98.8335Z" fill="url(#paint20_linear)"/>
<path fill-rule="evenodd" clip-rule="evenodd" d="M85.6755 101.986C85.6755 101.986 86.112 102.398 86.4757 102.616C87.2274 100.022 84.269 100.701 84.269 100.701C84.5843 103.198 85.7482 102.98 86.2332 102.786C86.0877 102.641 85.8452 102.398 85.6755 101.986Z" fill="url(#paint21_linear)"/>
<path d="M91.98 99.8276C91.6405 97.8149 92.9742 95.9477 94.9869 95.6082C95.9084 95.4385 96.8298 95.6325 97.6543 96.1902L96.9511 97.1844C96.4176 96.8207 95.7871 96.6994 95.1809 96.7964C93.8229 97.0389 92.9257 98.2514 93.1682 99.6093C93.3864 100.943 94.6474 101.816 96.0053 101.598C96.5146 101.501 96.9753 101.283 97.3391 100.895L97.1208 99.5608L95.6901 99.8033L95.4961 98.6151L98.018 98.1786L98.5758 101.428C97.9453 102.155 97.1693 102.64 96.2236 102.81C94.2109 103.15 92.3195 101.816 91.98 99.8276Z" fill="url(#paint22_linear)"/>
<path d="M103.595 101.428L101.703 99.0763L100.661 99.246L101.097 101.841L99.909 102.035L98.6965 95.0267L101.315 94.5902C102.528 94.3719 103.668 95.0994 103.91 96.4089C104.08 97.4031 103.643 98.276 102.892 98.7125L104.953 101.186L103.595 101.428ZM100.467 98.082L101.8 97.8638C102.455 97.7426 102.843 97.3061 102.746 96.6513C102.625 95.9966 102.116 95.7056 101.461 95.8269L100.127 96.0451L100.467 98.082Z" fill="url(#paint23_linear)"/>
<path d="M104.614 94.0322L108.978 93.2805L109.172 94.4687L105.971 95.0264L106.262 96.7481L109.1 96.2631L109.294 97.4513L106.456 97.9363L106.747 99.658L109.948 99.1002L110.142 100.288L105.777 101.04L104.614 94.0322Z" fill="url(#paint24_linear)"/>
<path d="M110.069 93.1109L114.434 92.3591L114.628 93.5473L111.452 94.0808L111.743 95.8025L114.58 95.3175L114.774 96.5057L111.937 96.9907L112.228 98.7124L115.428 98.1547L115.622 99.3429L111.258 100.095L110.069 93.1109Z" fill="url(#paint25_linear)"/>
<path d="M117.175 94.6867L117.902 99.0031L116.714 99.1971L115.477 91.9951L120.473 95.7779L119.721 91.4373L120.909 91.2433L122.146 98.4696L117.175 94.6867Z" fill="url(#paint26_linear)"/>
</g>
<defs>
<filter id="filter0_d" x="0" y="6.10352e-05" width="213.512" height="229.713" filterUnits="userSpaceOnUse" color-interpolation-filters="sRGB">
<feFlood flood-opacity="0" result="BackgroundImageFix"/>
<feColorMatrix in="SourceAlpha" type="matrix" values="0 0 0 0 0 0 0 0 0 0 0 0 0 0 0 0 0 0 127 0" result="hardAlpha"/>
<feOffset dx="10" dy="40"/>
<feGaussianBlur stdDeviation="25"/>
<feColorMatrix type="matrix" values="0 0 0 0 0.422014 0 0 0 0 0.596542 0 0 0 0 0.858333 0 0 0 0.3 0"/>
<feBlend mode="multiply" in2="BackgroundImageFix" result="effect1_dropShadow"/>
<feBlend mode="normal" in="SourceGraphic" in2="effect1_dropShadow" result="shape"/>
</filter>
<linearGradient id="paint0_linear" x1="86.9444" y1="10.0001" x2="102.977" y2="22.3929" gradientUnits="userSpaceOnUse">
<stop stop-color="#02C34D"/>
<stop offset="1" stop-color="#91FF8C"/>
</linearGradient>
<linearGradient id="paint1_linear" x1="96.7565" y1="31.7478" x2="96.7565" y2="133.087" gradientUnits="userSpaceOnUse">
<stop offset="0.119792" stop-color="#E3FFED"/>
<stop offset="1" stop-color="white"/>
</linearGradient>
<linearGradient id="paint2_linear" x1="97.0289" y1="40.1917" x2="97.0289" y2="125.176" gradientUnits="userSpaceOnUse">
<stop offset="0.119792" stop-color="#E3FFED"/>
<stop offset="1" stop-color="white"/>
</linearGradient>
<linearGradient id="paint3_linear" x1="44.5508" y1="113.128" x2="72.3875" y2="126.76" gradientUnits="userSpaceOnUse">
<stop stop-color="#02C34D"/>
<stop offset="1" stop-color="#91FF8C"/>
</linearGradient>
<linearGradient id="paint4_linear" x1="124.866" y1="113.128" x2="152.703" y2="126.76" gradientUnits="userSpaceOnUse">
<stop stop-color="#02C34D"/>
<stop offset="1" stop-color="#91FF8C"/>
</linearGradient>
<linearGradient id="paint5_linear" x1="37.27" y1="25.6616" x2="167.166" y2="100.201" gradientUnits="userSpaceOnUse">
<stop stop-color="#02C34D"/>
<stop offset="1" stop-color="#91FF8C"/>
</linearGradient>
<linearGradient id="paint6_linear" x1="96.1355" y1="34.3962" x2="97.9051" y2="34.6418" gradientUnits="userSpaceOnUse">
<stop stop-color="#02C34D"/>
<stop offset="1" stop-color="#91FF8C"/>
</linearGradient>
<linearGradient id="paint7_linear" x1="72.6678" y1="40.7989" x2="75.9747" y2="41.8909" gradientUnits="userSpaceOnUse">
<stop stop-color="#02C34D"/>
<stop offset="1" stop-color="#91FF8C"/>
</linearGradient>
<linearGradient id="paint8_linear" x1="55.0765" y1="58.3873" x2="58.3238" y2="61.5731" gradientUnits="userSpaceOnUse">
<stop stop-color="#02C34D"/>
<stop offset="1" stop-color="#91FF8C"/>
</linearGradient>
<linearGradient id="paint9_linear" x1="48.617" y1="81.825" x2="49.7422" y2="84.4937" gradientUnits="userSpaceOnUse">
<stop stop-color="#02C34D"/>
<stop offset="1" stop-color="#91FF8C"/>
</linearGradient>
<linearGradient id="paint10_linear" x1="55.0765" y1="104.037" x2="58.272" y2="107.224" gradientUnits="userSpaceOnUse">
<stop stop-color="#02C34D"/>
<stop offset="1" stop-color="#91FF8C"/>
</linearGradient>
<linearGradient id="paint11_linear" x1="72.6669" y1="119.847" x2="76.017" y2="120.971" gradientUnits="userSpaceOnUse">
<stop stop-color="#02C34D"/>
<stop offset="1" stop-color="#91FF8C"/>
</linearGradient>
<linearGradient id="paint12_linear" x1="96.1355" y1="125.578" x2="97.9051" y2="125.823" gradientUnits="userSpaceOnUse">
<stop stop-color="#02C34D"/>
<stop offset="1" stop-color="#91FF8C"/>
</linearGradient>
<linearGradient id="paint13_linear" x1="118.318" y1="119.847" x2="121.625" y2="120.939" gradientUnits="userSpaceOnUse">
<stop stop-color="#02C34D"/>
<stop offset="1" stop-color="#91FF8C"/>
</linearGradient>
<linearGradient id="paint14_linear" x1="134.085" y1="103.997" x2="137.332" y2="107.183" gradientUnits="userSpaceOnUse">
<stop stop-color="#02C34D"/>
<stop offset="1" stop-color="#91FF8C"/>
</linearGradient>
<linearGradient id="paint15_linear" x1="139.798" y1="81.825" x2="140.923" y2="84.4937" gradientUnits="userSpaceOnUse">
<stop stop-color="#02C34D"/>
<stop offset="1" stop-color="#91FF8C"/>
</linearGradient>
<linearGradient id="paint16_linear" x1="134.085" y1="58.3873" x2="137.28" y2="61.5737" gradientUnits="userSpaceOnUse">
<stop stop-color="#02C34D"/>
<stop offset="1" stop-color="#91FF8C"/>
</linearGradient>
<linearGradient id="paint17_linear" x1="118.277" y1="40.7989" x2="121.628" y2="41.9233" gradientUnits="userSpaceOnUse">
<stop stop-color="#02C34D"/>
<stop offset="1" stop-color="#91FF8C"/>
</linearGradient>
<linearGradient id="paint18_linear" x1="79.6081" y1="98.483" x2="79.6081" y2="106.038" gradientUnits="userSpaceOnUse">
<stop offset="0.119792" stop-color="#E3FFED"/>
<stop offset="1" stop-color="white"/>
</linearGradient>
<linearGradient id="paint19_linear" x1="87.2755" y1="97.249" x2="87.2755" y2="104.776" gradientUnits="userSpaceOnUse">
<stop offset="0.119792" stop-color="#E3FFED"/>
<stop offset="1" stop-color="white"/>
</linearGradient>
<linearGradient id="paint20_linear" x1="86.6391" y1="98.8335" x2="90.5145" y2="100.547" gradientUnits="userSpaceOnUse">
<stop stop-color="#02C34D"/>
<stop offset="1" stop-color="#91FF8C"/>
</linearGradient>
<linearGradient id="paint21_linear" x1="84.213" y1="100.621" x2="86.8463" y2="102.168" gradientUnits="userSpaceOnUse">
<stop stop-color="#02C34D"/>
<stop offset="1" stop-color="#91FF8C"/>
</linearGradient>
<linearGradient id="paint22_linear" x1="91.7673" y1="95.5488" x2="99.7176" y2="99.6958" gradientUnits="userSpaceOnUse">
<stop stop-color="#02C34D"/>
<stop offset="1" stop-color="#91FF8C"/>
</linearGradient>
<linearGradient id="paint23_linear" x1="98.5461" y1="94.5518" x2="106.282" y2="98.2634" gradientUnits="userSpaceOnUse">
<stop stop-color="#02C34D"/>
<stop offset="1" stop-color="#91FF8C"/>
</linearGradient>
<linearGradient id="paint24_linear" x1="104.481" y1="93.2805" x2="111.686" y2="96.2265" gradientUnits="userSpaceOnUse">
<stop stop-color="#02C34D"/>
<stop offset="1" stop-color="#91FF8C"/>
</linearGradient>
<linearGradient id="paint25_linear" x1="109.936" y1="92.3591" x2="117.157" y2="95.334" gradientUnits="userSpaceOnUse">
<stop stop-color="#02C34D"/>
<stop offset="1" stop-color="#91FF8C"/>
</linearGradient>
<linearGradient id="paint26_linear" x1="115.317" y1="91.2433" x2="123.554" y2="95.2064" gradientUnits="userSpaceOnUse">
<stop stop-color="#02C34D"/>
<stop offset="1" stop-color="#91FF8C"/>
</linearGradient>
</defs>
</svg>
