<svg width="77" height="77" viewBox="0 0 77 77" fill="none" xmlns="http://www.w3.org/2000/svg">
<g filter="url(#filter0_d)">
<circle cx="38.0957" cy="34.0957" r="34.0957" fill="url(#paint0_linear)"/>
</g>
<path d="M43.3094 35.9405H25.6822C23.3046 35.9405 21.4189 34.0548 21.4189 31.6771V29.7914L16.1717 26.7579C15.9258 26.6759 15.8438 26.43 15.8438 26.184C15.8438 25.938 15.9258 25.7741 16.1717 25.6921L21.4189 22.6586V20.7728C21.4189 18.3952 23.3046 16.5095 25.6822 16.5095H43.3094C45.6871 16.5095 47.5728 18.3952 47.5728 20.7728V31.6771C47.5728 33.9728 45.6051 35.9405 43.3094 35.9405ZM17.6475 26.184L22.3208 28.8076C22.4847 28.8896 22.6487 29.1355 22.6487 29.2995V31.5951C22.6487 33.2349 24.0425 34.6287 25.6822 34.6287H43.3094C44.9492 34.6287 46.343 33.2349 46.343 31.5951V20.7728C46.343 19.1331 44.9492 17.7393 43.3094 17.7393H25.6822C24.0425 17.7393 22.6487 19.1331 22.6487 20.7728V23.0685C22.6487 23.3144 22.5667 23.4784 22.3208 23.5604L17.6475 26.184Z" fill="white"/>
<path d="M31.6673 29.6275V26.512C31.6673 25.7741 31.4213 25.3641 31.0114 25.3641C30.6835 25.3641 30.4375 25.5281 30.2735 25.7741C30.1096 26.02 30.0276 26.512 30.0276 27.0859V29.6275H28.0599V21.7567H30.0276V22.9045C30.0276 23.3965 30.0276 23.9704 29.9456 24.6263H30.0276C30.1915 24.2983 30.4375 24.1343 30.6835 23.9704C30.9294 23.8884 31.2574 23.8064 31.5853 23.8064C32.2412 23.8064 32.7331 23.9704 33.0611 24.3803C33.389 24.7082 33.553 25.2822 33.553 25.9381V29.6275H31.6673Z" fill="white"/>
<path d="M34.9468 22.4126C34.9468 22.0847 35.0288 21.9207 35.1928 21.7567C35.3567 21.5927 35.6027 21.5107 36.0126 21.5107C36.4226 21.5107 36.6685 21.5927 36.8325 21.7567C36.9965 21.9207 37.0785 22.0847 37.0785 22.4126C37.0785 22.9865 36.7505 23.3145 36.0126 23.3145C35.3567 23.3145 34.9468 23.0685 34.9468 22.4126ZM36.9965 29.6275H35.0288V23.8884H36.9965V29.6275Z" fill="white"/>
<path d="M40.03 27.0039H38.3902L38.1443 22.2487H40.3579L40.03 27.0039ZM38.1443 28.7256C38.1443 28.3977 38.2262 28.1517 38.3902 27.9878C38.5542 27.8238 38.8002 27.7418 39.2101 27.7418C39.538 27.7418 39.784 27.8238 40.03 27.9878C40.1939 28.1517 40.2759 28.3977 40.2759 28.7256C40.2759 29.0536 40.1939 29.2995 40.03 29.4635C39.866 29.6275 39.62 29.7095 39.2921 29.7095C38.9641 29.7095 38.7182 29.6275 38.4722 29.4635C38.2262 29.2995 38.1443 29.0536 38.1443 28.7256Z" fill="white"/>
<path d="M53.8858 47.4187V45.205L59.4609 42.0075L53.8858 38.81V36.5144C53.8858 34.4647 52.246 32.825 50.1964 32.825H32.6511C30.6015 32.9069 28.9617 34.5467 28.9617 36.5144V47.4187C28.9617 49.4683 30.6015 51.1081 32.6511 51.1081H50.2784C52.246 51.1081 53.8858 49.4683 53.8858 47.4187Z" fill="white"/>
<path d="M50.1963 51.6819H32.6511C30.2735 51.6819 28.3878 49.7962 28.3878 47.4186V36.5143C28.3878 34.1367 30.2735 32.251 32.6511 32.251H50.2783C52.656 32.251 54.5417 34.1367 54.5417 36.5143V38.4L59.7888 41.4335C59.9528 41.5155 60.1168 41.7615 60.1168 41.9254C60.1168 42.1714 60.0348 42.3354 59.7888 42.4174L54.5417 45.4509V47.3366C54.4597 49.7962 52.574 51.6819 50.1963 51.6819ZM32.6511 33.4808C31.0114 33.4808 29.6176 34.8746 29.6176 36.5143V47.4186C29.6176 49.0583 31.0114 50.4521 32.6511 50.4521H50.2783C51.9181 50.4521 53.3119 49.0583 53.3119 47.4186V45.2049C53.3119 44.959 53.3938 44.795 53.6398 44.713L58.3131 42.0894L53.5578 39.3019C53.3938 39.2199 53.2299 38.9739 53.2299 38.8099V36.5143C53.2299 34.8746 51.8361 33.4808 50.1963 33.4808H32.6511Z" fill="white"/>
<path d="M47.4908 43.8112C48.5775 43.8112 49.4585 42.9303 49.4585 41.8435C49.4585 40.7568 48.5775 39.8759 47.4908 39.8759C46.4041 39.8759 45.5231 40.7568 45.5231 41.8435C45.5231 42.9303 46.4041 43.8112 47.4908 43.8112Z" fill="white"/>
<path d="M47.4908 44.3852C46.097 44.3852 44.9492 43.2374 44.9492 41.8436C44.9492 40.4498 46.097 39.302 47.4908 39.302C48.8846 39.302 50.0324 40.4498 50.0324 41.8436C50.0324 43.2374 48.8846 44.3852 47.4908 44.3852ZM47.4908 40.4498C46.7529 40.4498 46.179 41.0237 46.179 41.7616C46.179 42.4995 46.7529 43.0734 47.4908 43.0734C48.2287 43.0734 48.8026 42.4995 48.8026 41.7616C48.8026 41.1057 48.2287 40.4498 47.4908 40.4498Z" fill="#6F2CFF"/>
<path d="M41.5058 43.8112C42.5925 43.8112 43.4735 42.9303 43.4735 41.8435C43.4735 40.7568 42.5925 39.8759 41.5058 39.8759C40.419 39.8759 39.5381 40.7568 39.5381 41.8435C39.5381 42.9303 40.419 43.8112 41.5058 43.8112Z" fill="white"/>
<path d="M41.5057 44.3852C40.112 44.3852 38.9641 43.2374 38.9641 41.8436C38.9641 40.4498 40.112 39.302 41.5057 39.302C42.8995 39.302 44.0473 40.4498 44.0473 41.8436C44.0473 43.2374 42.8995 44.3852 41.5057 44.3852ZM41.5057 40.4498C40.7679 40.4498 40.1939 41.0237 40.1939 41.7616C40.1939 42.4995 40.7679 43.0734 41.5057 43.0734C42.2436 43.0734 42.8175 42.4995 42.8175 41.7616C42.8175 41.1057 42.2436 40.4498 41.5057 40.4498Z" fill="#6F2CFF"/>
<path d="M35.4387 43.8112C36.5254 43.8112 37.4064 42.9303 37.4064 41.8435C37.4064 40.7568 36.5254 39.8759 35.4387 39.8759C34.352 39.8759 33.471 40.7568 33.471 41.8435C33.471 42.9303 34.352 43.8112 35.4387 43.8112Z" fill="white"/>
<path d="M35.4387 44.3852C34.0449 44.3852 32.8971 43.2374 32.8971 41.8436C32.8971 40.4498 34.0449 39.302 35.4387 39.302C36.8325 39.302 37.9803 40.4498 37.9803 41.8436C38.0623 43.2374 36.9144 44.3852 35.4387 44.3852ZM35.4387 40.4498C34.7008 40.4498 34.1269 41.0237 34.1269 41.7616C34.1269 42.4995 34.7008 43.0734 35.4387 43.0734C36.1766 43.0734 36.7505 42.4995 36.7505 41.7616C36.8325 41.1057 36.1766 40.4498 35.4387 40.4498Z" fill="#6F2CFF"/>
<defs>
<filter id="filter0_d" x="0" y="0" width="76.1915" height="76.1915" filterUnits="userSpaceOnUse" color-interpolation-filters="sRGB">
<feFlood flood-opacity="0" result="BackgroundImageFix"/>
<feColorMatrix in="SourceAlpha" type="matrix" values="0 0 0 0 0 0 0 0 0 0 0 0 0 0 0 0 0 0 127 0"/>
<feOffset dy="4"/>
<feGaussianBlur stdDeviation="2"/>
<feColorMatrix type="matrix" values="0 0 0 0 0 0 0 0 0 0 0 0 0 0 0 0 0 0 0.25 0"/>
<feBlend mode="normal" in2="BackgroundImageFix" result="effect1_dropShadow"/>
<feBlend mode="normal" in="SourceGraphic" in2="effect1_dropShadow" result="shape"/>
</filter>
<linearGradient id="paint0_linear" x1="4" y1="0" x2="80.9798" y2="12.0505" gradientUnits="userSpaceOnUse">
<stop stop-color="#BFA0FF"/>
<stop offset="1" stop-color="#5302FF"/>
</linearGradient>
</defs>
</svg>
