<svg width="77" height="80" viewBox="0 0 77 80" fill="none" xmlns="http://www.w3.org/2000/svg">
<g filter="url(#filter0_d)">
<circle cx="32" cy="32" r="32" fill="url(#paint0_linear)"/>
</g>
<path d="M22.0183 46.5961C21.782 46.8016 21.4919 46.9354 21.1821 46.9818C20.8724 47.0282 20.5558 46.9853 20.2696 46.8581C19.9834 46.7309 19.7394 46.5247 19.5663 46.2637C19.3932 46.0026 19.2981 45.6976 19.2923 45.3845V41.6922C18.4191 41.6922 17.5817 41.3453 16.9643 40.7279C16.3469 40.1105 16 39.2731 16 38.3999V26.8769C16 26.0037 16.3469 25.1663 16.9643 24.5489C17.5817 23.9314 18.4191 23.5846 19.2923 23.5846H37.3999C38.2731 23.5846 39.1105 23.9314 39.7279 24.5489C40.3453 25.1663 40.6922 26.0037 40.6922 26.8769V38.3999C40.6922 39.2731 40.3453 40.1105 39.7279 40.7279C39.1105 41.3453 38.2731 41.6922 37.3999 41.6922H29.1741L22.0183 46.5961ZM23.4077 41.5045C23.5577 41.5037 23.705 41.4646 23.8357 41.3909L27.7123 38.6946C27.9882 38.5027 28.3162 38.3999 28.6523 38.3999H35.7537C36.1903 38.3999 36.609 38.2265 36.9177 37.9177C37.2265 37.609 37.3999 37.1903 37.3999 36.7537V28.523C37.3999 28.0864 37.2265 27.6677 36.9177 27.359C36.609 27.0503 36.1903 26.8769 35.7537 26.8769H20.9384C20.5019 26.8769 20.0831 27.0503 19.7744 27.359C19.4657 27.6677 19.2923 28.0864 19.2923 28.523V36.7537C19.2923 37.6427 19.9985 38.3703 20.9384 38.3999C21.6134 38.4262 22.1023 38.5365 22.3278 38.7719C22.5385 38.9925 22.55 39.3645 22.5846 40.0724C22.5895 40.1761 22.5895 40.3637 22.5846 40.6814C22.5846 40.8997 22.6713 41.1091 22.8257 41.2635C22.98 41.4178 23.1894 41.5045 23.4077 41.5045ZM42.3383 33.4878C42.3331 33.6908 42.3331 33.8939 42.3383 34.0969V33.4878C42.3713 32.78 42.3844 32.4079 42.5951 32.1873C42.8207 31.9519 43.3096 31.8416 43.9845 31.8153C44.9244 31.7857 45.6306 31.0581 45.6306 30.1692V21.9384C45.6306 21.5019 45.4572 21.0831 45.1485 20.7744C44.8398 20.4657 44.4211 20.2923 43.9845 20.2923H29.1692C28.7326 20.2923 28.3139 20.4657 28.0052 20.7744C27.6965 21.0831 27.523 21.5019 27.523 21.9384H24.2307V20.2923C24.2307 19.4191 24.5776 18.5817 25.195 17.9643C25.8124 17.3469 26.6498 17 27.523 17H45.6306C46.5038 17 47.3412 17.3469 47.9586 17.9643C48.576 18.5817 48.9229 19.4191 48.9229 20.2923V31.8153C48.9229 32.6885 48.576 33.5259 47.9586 34.1433C47.3412 34.7607 46.5038 35.1076 45.6306 35.1076V38.7999C45.6248 39.1131 45.5297 39.4181 45.3566 39.6791C45.1835 39.9401 44.9395 40.1463 44.6533 40.2735C44.3671 40.4007 44.0505 40.4437 43.7408 40.3972C43.431 40.3508 43.141 40.217 42.9046 40.0115L42.3383 39.623V33.4894V33.4878Z" fill="white"/>
<defs>
<filter id="filter0_d" x="0" y="0" width="77" height="80" filterUnits="userSpaceOnUse" color-interpolation-filters="sRGB">
<feFlood flood-opacity="0" result="BackgroundImageFix"/>
<feColorMatrix in="SourceAlpha" type="matrix" values="0 0 0 0 0 0 0 0 0 0 0 0 0 0 0 0 0 0 127 0"/>
<feOffset dx="7" dy="10"/>
<feGaussianBlur stdDeviation="3"/>
<feColorMatrix type="matrix" values="0 0 0 0 0 0 0 0 0 0.678431 0 0 0 0 0.933333 0 0 0 0.24 0"/>
<feBlend mode="normal" in2="BackgroundImageFix" result="effect1_dropShadow"/>
<feBlend mode="normal" in="SourceGraphic" in2="effect1_dropShadow" result="shape"/>
</filter>
<linearGradient id="paint0_linear" x1="-1.53924" y1="1.10392e-06" x2="71.6981" y2="42.0265" gradientUnits="userSpaceOnUse">
<stop stop-color="#02C34D"/>
<stop offset="1" stop-color="#91FF8C"/>
</linearGradient>
</defs>
</svg>
