<svg width="99" height="99" viewBox="0 0 99 99" fill="none" xmlns="http://www.w3.org/2000/svg">
<g filter="url(#filter0_d)">
<circle cx="49.3273" cy="45.3273" r="45.3273" fill="url(#paint0_linear)"/>
</g>
<path d="M66.3237 31.1873C66.0942 31.1873 65.8647 31.0728 65.75 30.9584C61.849 27.1811 56.686 25.1208 51.2935 25.1208C50.1462 25.1208 48.9989 25.2352 47.8515 25.4641C47.3926 25.5786 46.9337 25.2352 46.8189 24.7774C46.7042 24.3195 47.0484 23.8617 47.5073 23.7472C48.7694 23.5183 50.0315 23.4038 51.2935 23.4038C57.145 23.4038 62.7669 25.6931 66.8973 29.6993C67.2415 30.0427 67.2415 30.615 66.8973 30.9584C66.7826 31.0728 66.5531 31.1873 66.3237 31.1873Z" fill="white"/>
<path d="M51.523 26.6087L48.081 24.4339L50.3757 21L47.9663 21.4579L45.7863 24.8917L49.1136 27.181L51.523 26.6087Z" fill="white"/>
<path d="M34.6571 60.4897C34.4277 60.4897 34.1982 60.3752 33.9687 60.1463C30.6415 56.1401 28.8057 50.9893 28.8057 45.724C28.8057 45.2661 29.1499 44.9227 29.6089 44.9227C30.0678 44.9227 30.412 45.2661 30.412 45.724C30.412 50.5314 32.133 55.3388 35.2308 59.0017C35.575 59.345 35.4603 59.9174 35.1161 60.1463C35.0013 60.3752 34.8866 60.4897 34.6571 60.4897Z" fill="white"/>
<path d="M34.5424 55.2245L34.313 59.2307L30.1826 59.1162L31.9036 60.8332L35.9192 61.0621L36.1487 56.9414L34.5424 55.2245Z" fill="white"/>
<path d="M66.5531 61.9769C66.3237 61.9769 66.0942 61.8624 65.9795 61.748C65.6353 61.4046 65.6353 60.8323 65.9795 60.4889C69.4215 57.055 71.6014 52.4765 71.9456 47.669C71.9456 47.2112 72.4046 46.8678 72.8635 46.8678C73.3224 46.8678 73.6666 47.3256 73.6666 47.7835C73.2077 53.0488 70.913 57.8562 67.1268 61.6335C67.0121 61.8624 66.7826 61.9769 66.5531 61.9769Z" fill="white"/>
<path d="M69.7657 50.9893L72.7488 48.2422L75.5024 51.3327L75.6171 48.8145L72.8635 45.8385L69.8804 48.5856L69.7657 50.9893Z" fill="white"/>
<path d="M61.5048 73.882H40.9675C40.5086 73.882 40.1644 73.5386 40.1644 73.0807V59.0018C40.1644 58.544 40.5086 58.2006 40.9675 58.2006H61.3901C61.849 58.2006 62.1932 58.544 62.1932 59.0018V73.0807C62.308 73.5386 61.9638 73.882 61.5048 73.882ZM41.8854 72.2795H60.7017V59.803H41.8854V72.2795Z" fill="white"/>
<path d="M40.9675 59.0018L51.2935 68.1589L61.5048 59.0018H40.9675Z" fill="#74F380"/>
<path d="M51.2935 68.96C51.0641 68.96 50.8346 68.8456 50.7199 68.7311L40.5085 59.5741C40.2791 59.3452 40.1643 59.0018 40.2791 58.6584C40.3938 58.315 40.738 58.0861 41.0822 58.0861H61.5048C61.849 58.0861 62.1932 58.315 62.308 58.6584C62.4227 59.0018 62.308 59.3452 62.0785 59.5741L51.8672 68.7311C51.6377 68.96 51.4083 68.96 51.2935 68.96ZM43.2622 59.803L51.2935 67.0142L59.3249 59.803H43.2622Z" fill="white"/>
<path d="M40.9675 73.0806L48.5399 65.755L40.9675 73.0806Z" fill="#74F380"/>
<path d="M40.9675 73.8825C40.738 73.8825 40.5086 73.768 40.3938 73.6535C40.0496 73.3101 40.0496 72.7378 40.3938 72.3944L47.9663 65.0688C48.3105 64.7254 48.8841 64.7254 49.2283 65.0688C49.5725 65.4122 49.5725 65.9845 49.2283 66.3279L41.6559 73.6535C41.4264 73.8825 41.197 73.8825 40.9675 73.8825Z" fill="white"/>
<path d="M61.5049 73.0806L53.9324 65.755L61.5049 73.0806Z" fill="#74F380"/>
<path d="M61.5048 73.8818C61.2754 73.8818 61.0459 73.7674 60.9312 73.6529L53.3587 66.3273C53.0145 65.9839 53.0145 65.4116 53.3587 65.0682C53.7029 64.7248 54.2766 64.7248 54.6208 65.0682L62.1932 72.3938C62.5374 72.7372 62.5374 73.3095 62.1932 73.6529C61.9638 73.8818 61.7343 73.8818 61.5048 73.8818Z" fill="white"/>
<path d="M77.2234 26.2653L74.5845 23.6327L69.9952 28.2112L72.634 30.8438C72.634 30.8438 75.0434 33.362 71.8309 36.567C68.8478 39.543 66.5532 37.7116 66.209 37.3682L63.5701 34.7356L59.0955 39.1996L61.6196 41.8323C61.6196 41.8323 68.5036 45.8385 74.6992 39.543C81.4685 32.6753 77.2234 26.2653 77.2234 26.2653Z" fill="white"/>
<path d="M66.7826 43.8926C66.4384 43.8926 66.0942 43.8926 65.75 43.8926C63.1112 43.6637 61.2754 42.6335 61.1607 42.519C61.0459 42.519 61.046 42.4046 60.9312 42.4046L58.4071 39.7719C58.0629 39.4285 58.0629 38.8562 58.4071 38.6273L62.8817 34.1632C62.9964 34.0488 63.2259 33.9343 63.4554 33.9343C63.6848 33.9343 63.9143 34.0488 64.029 34.1632L66.5532 36.6814C67.0121 37.1393 68.7331 38.1694 71.0278 35.8802C73.5519 33.362 71.9457 31.5306 71.8309 31.4161L69.192 28.7835C69.0773 28.669 68.9626 28.4401 68.9626 28.2112C68.9626 27.9822 69.0773 27.7533 69.192 27.6389L73.7814 23.0603C73.8961 22.9459 74.1256 22.8314 74.3551 22.8314C74.5845 22.8314 74.814 22.9459 74.9287 23.0603L77.5676 25.693C77.6823 25.8075 78.8297 27.6389 79.0591 30.2715C79.2886 32.6752 78.7149 36.338 75.0435 40.1153C72.2899 43.2058 69.0773 43.8926 66.7826 43.8926ZM62.1933 41.1455C62.5375 41.3744 64.029 42.0612 65.9795 42.1756C68.9626 42.4046 71.7162 41.3744 74.1256 38.9707C76.7645 36.338 77.9118 33.4765 77.6823 30.5004C77.5676 28.5546 76.7645 27.181 76.535 26.8376L74.5845 24.8918L71.2573 28.2112L73.2077 30.157C73.3225 30.2715 74.0109 30.9583 74.2403 32.2174C74.4698 33.362 74.3551 35.0789 72.4046 37.0248C69.7657 39.6575 67.0121 39.1996 65.6353 37.9405L63.6848 35.9946L60.3576 39.3141L62.1933 41.1455Z" fill="white"/>
<path d="M61.9638 41.8323L64.4879 39.3141L61.9638 41.8323Z" fill="white"/>
<path d="M61.9638 42.748C61.7344 42.748 61.5049 42.6335 61.3902 42.5191C61.046 42.1757 61.046 41.6034 61.3902 41.26L63.9143 38.7418C64.2585 38.3984 64.8322 38.3984 65.1764 38.7418C65.5206 39.0852 65.5206 39.6575 65.1764 40.0009L62.6522 42.5191C62.308 42.6335 62.0786 42.748 61.9638 42.748Z" fill="white"/>
<path d="M72.7488 30.9583L75.3877 28.3257L72.7488 30.9583Z" fill="white"/>
<path d="M72.7488 31.7597C72.5193 31.7597 72.2899 31.6452 72.1751 31.5307C71.8309 31.1874 71.8309 30.615 72.1751 30.2717L74.814 27.639C75.1582 27.2956 75.7319 27.2956 76.0761 27.639C76.4203 27.9824 76.4203 28.5547 76.0761 28.8981L73.4372 31.5307C73.2077 31.7597 72.9783 31.7597 72.7488 31.7597Z" fill="white"/>
<path d="M30.6415 40.9166C31.9088 40.9166 32.9362 39.8917 32.9362 38.6274C32.9362 37.3631 31.9088 36.3381 30.6415 36.3381C29.3742 36.3381 28.3468 37.3631 28.3468 38.6274C28.3468 39.8917 29.3742 40.9166 30.6415 40.9166Z" fill="white"/>
<path d="M26.97 35.1934C26.7406 35.1934 26.5111 35.0789 26.2816 34.85C25.9374 34.5066 26.0522 33.9343 26.3964 33.5909C27.5437 32.5608 29.0352 32.1029 30.6415 32.1029C32.133 32.1029 33.6246 32.6752 34.7719 33.5909C35.1161 33.9343 35.2309 34.3922 34.8867 34.7356C34.5424 35.0789 34.0835 35.1934 33.7393 34.85C32.8214 34.1632 31.7888 33.7054 30.6415 33.7054C29.4942 33.7054 28.3468 34.1632 27.5437 34.85C27.429 35.0789 27.1995 35.1934 26.97 35.1934Z" fill="white"/>
<path d="M23.9869 31.6452C23.7575 31.6452 23.528 31.5307 23.2985 31.3018C23.0691 30.9584 23.0691 30.3861 23.4133 30.1572C25.4785 28.4402 28.0026 27.5245 30.6415 27.5245C33.2804 27.5245 35.8045 28.4402 37.8697 30.1572C38.2139 30.5006 38.3287 30.9584 37.9845 31.3018C37.6403 31.6452 37.1813 31.7597 36.8371 31.4163C35.1161 30.0427 32.9362 29.2415 30.7562 29.2415C28.4616 29.2415 26.2816 30.0427 24.5606 31.5307C24.3311 31.5307 24.2164 31.6452 23.9869 31.6452Z" fill="white"/>
<path d="M20.5449 27.6389C20.3154 27.6389 20.086 27.5244 19.8565 27.2955C19.5123 26.9521 19.627 26.3798 19.9712 26.0364C22.9543 23.5182 26.7405 22.1447 30.6415 22.1447C34.5424 22.1447 38.2139 23.5182 41.197 25.9219C41.5412 26.2653 41.6559 26.7232 41.3117 27.0666C40.9675 27.4099 40.5086 27.5244 40.1644 27.181C37.5255 25.0062 34.1982 23.7471 30.7562 23.7471C27.3142 23.7471 23.8722 25.0062 21.2333 27.181C21.0038 27.5244 20.7744 27.6389 20.5449 27.6389Z" fill="white"/>
<defs>
<filter id="filter0_d" x="0" y="0" width="98.6546" height="98.6546" filterUnits="userSpaceOnUse" color-interpolation-filters="sRGB">
<feFlood flood-opacity="0" result="BackgroundImageFix"/>
<feColorMatrix in="SourceAlpha" type="matrix" values="0 0 0 0 0 0 0 0 0 0 0 0 0 0 0 0 0 0 127 0"/>
<feOffset dy="4"/>
<feGaussianBlur stdDeviation="2"/>
<feColorMatrix type="matrix" values="0 0 0 0 0 0 0 0 0 0 0 0 0 0 0 0 0 0 0.25 0"/>
<feBlend mode="normal" in2="BackgroundImageFix" result="effect1_dropShadow"/>
<feBlend mode="normal" in="SourceGraphic" in2="effect1_dropShadow" result="shape"/>
</filter>
<linearGradient id="paint0_linear" x1="1.8197" y1="1.56368e-06" x2="105.559" y2="59.5296" gradientUnits="userSpaceOnUse">
<stop stop-color="#02C34D"/>
<stop offset="1" stop-color="#91FF8C"/>
</linearGradient>
</defs>
</svg>
