<svg width="77" height="80" viewBox="0 0 77 80" fill="none" xmlns="http://www.w3.org/2000/svg">
<g filter="url(#filter0_d)">
<circle cx="32" cy="32" r="32" fill="url(#paint0_linear)"/>
</g>
<mask id="path-2-inside-1" fill="white">
<path d="M46.3198 22.3628H34.3986C34.1122 21.0382 32.895 20 31.4988 20C30.0668 20 28.8854 21.0024 28.599 22.3628H17.6444C17.2864 22.3628 17 22.6492 17 23.0072C17 23.3652 17.2864 23.6516 17.6444 23.6516H28.5632C28.8496 24.9761 30.0668 26.0143 31.463 26.0143C32.895 26.0143 34.0764 25.0119 34.3628 23.6516H46.3198C46.6778 23.6516 46.9642 23.3652 46.9642 23.0072C46.9642 22.6492 46.6778 22.3628 46.3198 22.3628ZM31.4988 24.7613C30.568 24.7613 29.7804 24.0095 29.7804 23.043C29.7804 22.0764 30.5322 21.3246 31.4988 21.3246C32.4296 21.3246 33.2172 22.0764 33.2172 23.043C33.2172 23.9737 32.4654 24.7613 31.4988 24.7613Z"/>
</mask>
<path d="M46.3198 22.3628H34.3986C34.1122 21.0382 32.895 20 31.4988 20C30.0668 20 28.8854 21.0024 28.599 22.3628H17.6444C17.2864 22.3628 17 22.6492 17 23.0072C17 23.3652 17.2864 23.6516 17.6444 23.6516H28.5632C28.8496 24.9761 30.0668 26.0143 31.463 26.0143C32.895 26.0143 34.0764 25.0119 34.3628 23.6516H46.3198C46.6778 23.6516 46.9642 23.3652 46.9642 23.0072C46.9642 22.6492 46.6778 22.3628 46.3198 22.3628ZM31.4988 24.7613C30.568 24.7613 29.7804 24.0095 29.7804 23.043C29.7804 22.0764 30.5322 21.3246 31.4988 21.3246C32.4296 21.3246 33.2172 22.0764 33.2172 23.043C33.2172 23.9737 32.4654 24.7613 31.4988 24.7613Z" fill="white"/>
<path d="M34.3986 22.3628L32.4437 22.7854L32.7848 24.3628H34.3986V22.3628ZM28.599 22.3628V24.3628H30.2218L30.5561 22.7748L28.599 22.3628ZM28.5632 23.6516L30.5181 23.2289L30.177 21.6516H28.5632V23.6516ZM34.3628 23.6516V21.6516H32.74L32.4057 23.2395L34.3628 23.6516ZM46.3198 20.3628H34.3986V24.3628H46.3198V20.3628ZM36.3534 21.9401C35.8764 19.7339 33.8759 18 31.4988 18V22C31.9141 22 32.348 22.3424 32.4437 22.7854L36.3534 21.9401ZM31.4988 18C29.0941 18 27.1176 19.6915 26.6419 21.9507L30.5561 22.7748C30.6533 22.3133 31.0396 22 31.4988 22V18ZM28.599 20.3628H17.6444V24.3628H28.599V20.3628ZM17.6444 20.3628C16.1818 20.3628 15 21.5446 15 23.0072H19C19 23.7537 18.391 24.3628 17.6444 24.3628V20.3628ZM15 23.0072C15 24.4697 16.1818 25.6516 17.6444 25.6516V21.6516C18.391 21.6516 19 22.2606 19 23.0072H15ZM17.6444 25.6516H28.5632V21.6516H17.6444V25.6516ZM26.6084 24.0742C27.0854 26.2804 29.086 28.0143 31.463 28.0143V24.0143C31.0477 24.0143 30.6139 23.6719 30.5181 23.2289L26.6084 24.0742ZM31.463 28.0143C33.8677 28.0143 35.8442 26.3228 36.3199 24.0636L32.4057 23.2395C32.3085 23.7011 31.9223 24.0143 31.463 24.0143V28.0143ZM34.3628 25.6516H46.3198V21.6516H34.3628V25.6516ZM46.3198 25.6516C47.7824 25.6516 48.9642 24.4697 48.9642 23.0072H44.9642C44.9642 22.2606 45.5732 21.6516 46.3198 21.6516V25.6516ZM48.9642 23.0072C48.9642 21.5446 47.7824 20.3628 46.3198 20.3628V24.3628C45.5732 24.3628 44.9642 23.7537 44.9642 23.0072H48.9642ZM31.4988 22.7613C31.6454 22.7613 31.7804 22.8779 31.7804 23.043H27.7804C27.7804 25.1411 29.4907 26.7613 31.4988 26.7613V22.7613ZM31.7804 23.043C31.7804 23.0911 31.7569 23.1699 31.6914 23.2355C31.6258 23.3011 31.547 23.3246 31.4988 23.3246V19.3246C29.4276 19.3246 27.7804 20.9718 27.7804 23.043H31.7804ZM31.4988 23.3246C31.3523 23.3246 31.2172 23.208 31.2172 23.043H35.2172C35.2172 20.9448 33.5069 19.3246 31.4988 19.3246V23.3246ZM31.2172 23.043C31.2172 22.8964 31.3338 22.7613 31.4988 22.7613V26.7613C33.597 26.7613 35.2172 25.0511 35.2172 23.043H31.2172Z" fill="white" mask="url(#path-2-inside-1)"/>
<mask id="path-4-inside-2" fill="white">
<path d="M46.3556 31.2053H28.2768C27.9905 29.8807 26.7733 28.8425 25.3771 28.8425C23.9451 28.8425 22.7637 29.8449 22.4773 31.2053H17.6444C17.2864 31.2053 17 31.4917 17 31.8497C17 32.2077 17.2864 32.4941 17.6444 32.4941H22.4773C22.7637 33.8187 23.9809 34.8568 25.3771 34.8568C26.8091 34.8568 27.9905 33.8545 28.2768 32.4941H46.3556C46.7136 32.4941 47 32.2077 47 31.8497C47 31.4917 46.7136 31.2053 46.3556 31.2053ZM25.3771 33.5681C24.4463 33.5681 23.6587 32.8163 23.6587 31.8497C23.6587 30.9189 24.4463 30.1313 25.3771 30.1313C26.3079 30.1313 27.0955 30.8831 27.0955 31.8497C27.0955 32.7805 26.3437 33.5681 25.3771 33.5681Z"/>
</mask>
<path d="M46.3556 31.2053H28.2768C27.9905 29.8807 26.7733 28.8425 25.3771 28.8425C23.9451 28.8425 22.7637 29.8449 22.4773 31.2053H17.6444C17.2864 31.2053 17 31.4917 17 31.8497C17 32.2077 17.2864 32.4941 17.6444 32.4941H22.4773C22.7637 33.8187 23.9809 34.8568 25.3771 34.8568C26.8091 34.8568 27.9905 33.8545 28.2768 32.4941H46.3556C46.7136 32.4941 47 32.2077 47 31.8497C47 31.4917 46.7136 31.2053 46.3556 31.2053ZM25.3771 33.5681C24.4463 33.5681 23.6587 32.8163 23.6587 31.8497C23.6587 30.9189 24.4463 30.1313 25.3771 30.1313C26.3079 30.1313 27.0955 30.8831 27.0955 31.8497C27.0955 32.7805 26.3437 33.5681 25.3771 33.5681Z" fill="white"/>
<path d="M28.2768 31.2053L26.322 31.628L26.6631 33.2053H28.2768V31.2053ZM22.4773 31.2053V33.2053H24.1001L24.4344 31.6173L22.4773 31.2053ZM22.4773 32.4941L24.4322 32.0714L24.0911 30.4941H22.4773V32.4941ZM28.2768 32.4941V30.4941H26.6541L26.3197 32.0821L28.2768 32.4941ZM46.3556 29.2053H28.2768V33.2053H46.3556V29.2053ZM30.2317 30.7826C29.7547 28.5765 27.7541 26.8425 25.3771 26.8425V30.8425C25.7924 30.8425 26.2262 31.185 26.322 31.628L30.2317 30.7826ZM25.3771 26.8425C22.9724 26.8425 20.9959 28.534 20.5202 30.7933L24.4344 31.6173C24.5316 31.1558 24.9178 30.8425 25.3771 30.8425V26.8425ZM22.4773 29.2053H17.6444V33.2053H22.4773V29.2053ZM17.6444 29.2053C16.1818 29.2053 15 30.3871 15 31.8497H19C19 32.5963 18.391 33.2053 17.6444 33.2053V29.2053ZM15 31.8497C15 33.3123 16.1818 34.4941 17.6444 34.4941V30.4941C18.391 30.4941 19 31.1031 19 31.8497H15ZM17.6444 34.4941H22.4773V30.4941H17.6444V34.4941ZM20.5225 32.9167C20.9995 35.1229 23 36.8568 25.3771 36.8568V32.8568C24.9618 32.8568 24.5279 32.5144 24.4322 32.0714L20.5225 32.9167ZM25.3771 36.8568C27.7818 36.8568 29.7583 35.1653 30.2339 32.9061L26.3197 32.0821C26.2226 32.5436 25.8363 32.8568 25.3771 32.8568V36.8568ZM28.2768 34.4941H46.3556V30.4941H28.2768V34.4941ZM46.3556 34.4941C47.8182 34.4941 49 33.3123 49 31.8497H45C45 31.1031 45.609 30.4941 46.3556 30.4941V34.4941ZM49 31.8497C49 30.3871 47.8182 29.2053 46.3556 29.2053V33.2053C45.609 33.2053 45 32.5963 45 31.8497H49ZM25.3771 31.5681C25.5236 31.5681 25.6587 31.6847 25.6587 31.8497H21.6587C21.6587 33.9479 23.369 35.5681 25.3771 35.5681V31.5681ZM25.6587 31.8497C25.6587 31.9568 25.6141 32.0246 25.5831 32.0557C25.552 32.0867 25.4842 32.1313 25.3771 32.1313V28.1313C23.3417 28.1313 21.6587 29.8143 21.6587 31.8497H25.6587ZM25.3771 32.1313C25.2305 32.1313 25.0955 32.0147 25.0955 31.8497H29.0955C29.0955 29.7515 27.3852 28.1313 25.3771 28.1313V32.1313ZM25.0955 31.8497C25.0955 31.7031 25.2121 31.5681 25.3771 31.5681V35.5681C27.4753 35.5681 29.0955 33.8578 29.0955 31.8497H25.0955Z" fill="white" mask="url(#path-4-inside-2)"/>
<mask id="path-6-inside-3" fill="white">
<path d="M46.3198 40.0119H40.6993C40.4129 38.6874 39.1957 37.6492 37.7995 37.6492C36.3675 37.6492 35.1862 38.6516 34.8998 40.0119H17.6444C17.2864 40.0119 17 40.2983 17 40.6563C17 41.0143 17.2864 41.3007 17.6444 41.3007H34.864C35.1504 42.6253 36.3675 43.6635 37.7637 43.6635C39.1957 43.6635 40.3771 42.6611 40.6635 41.3007H46.3198C46.6778 41.3007 46.9642 41.0143 46.9642 40.6563C46.9642 40.2983 46.6778 40.0119 46.3198 40.0119ZM37.7637 42.4105C36.8329 42.4105 36.0453 41.6587 36.0453 40.6921C36.0453 39.7255 36.8329 38.9738 37.7637 38.9738C38.6945 38.9738 39.4821 39.7255 39.4821 40.6921C39.4821 41.6587 38.7303 42.4105 37.7637 42.4105Z"/>
</mask>
<path d="M46.3198 40.0119H40.6993C40.4129 38.6874 39.1957 37.6492 37.7995 37.6492C36.3675 37.6492 35.1862 38.6516 34.8998 40.0119H17.6444C17.2864 40.0119 17 40.2983 17 40.6563C17 41.0143 17.2864 41.3007 17.6444 41.3007H34.864C35.1504 42.6253 36.3675 43.6635 37.7637 43.6635C39.1957 43.6635 40.3771 42.6611 40.6635 41.3007H46.3198C46.6778 41.3007 46.9642 41.0143 46.9642 40.6563C46.9642 40.2983 46.6778 40.0119 46.3198 40.0119ZM37.7637 42.4105C36.8329 42.4105 36.0453 41.6587 36.0453 40.6921C36.0453 39.7255 36.8329 38.9738 37.7637 38.9738C38.6945 38.9738 39.4821 39.7255 39.4821 40.6921C39.4821 41.6587 38.7303 42.4105 37.7637 42.4105Z" fill="white"/>
<path d="M40.6993 40.0119L38.7445 40.4346L39.0855 42.0119H40.6993V40.0119ZM34.8998 40.0119V42.0119H36.5225L36.8569 40.424L34.8998 40.0119ZM34.864 41.3007L36.8188 40.8781L36.4777 39.3007H34.864V41.3007ZM40.6635 41.3007V39.3007H39.0407L38.7064 40.8887L40.6635 41.3007ZM46.3198 38.0119H40.6993V42.0119H46.3198V38.0119ZM42.6541 39.5893C42.1771 37.3831 40.1766 35.6492 37.7995 35.6492V39.6492C38.2148 39.6492 38.6487 39.9916 38.7445 40.4346L42.6541 39.5893ZM37.7995 35.6492C35.3948 35.6492 33.4183 37.3407 32.9427 39.5999L36.8569 40.424C36.954 39.9624 37.3403 39.6492 37.7995 39.6492V35.6492ZM34.8998 38.0119H17.6444V42.0119H34.8998V38.0119ZM17.6444 38.0119C16.1818 38.0119 15 39.1938 15 40.6563H19C19 41.4029 18.391 42.0119 17.6444 42.0119V38.0119ZM15 40.6563C15 42.1189 16.1818 43.3007 17.6444 43.3007V39.3007C18.391 39.3007 19 39.9097 19 40.6563H15ZM17.6444 43.3007H34.864V39.3007H17.6444V43.3007ZM32.9091 41.7234C33.3861 43.9295 35.3867 45.6635 37.7637 45.6635V41.6635C37.3484 41.6635 36.9146 41.3211 36.8188 40.8781L32.9091 41.7234ZM37.7637 45.6635C40.1684 45.6635 42.145 43.972 42.6206 41.7127L38.7064 40.8887C38.6092 41.3502 38.223 41.6635 37.7637 41.6635V45.6635ZM40.6635 43.3007H46.3198V39.3007H40.6635V43.3007ZM46.3198 43.3007C47.7824 43.3007 48.9642 42.1189 48.9642 40.6563H44.9642C44.9642 39.9098 45.5732 39.3007 46.3198 39.3007V43.3007ZM48.9642 40.6563C48.9642 39.1938 47.7824 38.0119 46.3198 38.0119V42.0119C45.5732 42.0119 44.9642 41.4029 44.9642 40.6563H48.9642ZM37.7637 40.4105C37.9103 40.4105 38.0453 40.5271 38.0453 40.6921H34.0453C34.0453 42.7903 35.7556 44.4105 37.7637 44.4105V40.4105ZM38.0453 40.6921C38.0453 40.8571 37.9103 40.9738 37.7637 40.9738V36.9738C35.7556 36.9738 34.0453 38.5939 34.0453 40.6921H38.0453ZM37.7637 40.9738C37.6172 40.9738 37.4821 40.8571 37.4821 40.6921H41.4821C41.4821 38.5939 39.7719 36.9738 37.7637 36.9738V40.9738ZM37.4821 40.6921C37.4821 40.644 37.5056 40.5651 37.5712 40.4996C37.6367 40.434 37.7155 40.4105 37.7637 40.4105V44.4105C39.8349 44.4105 41.4821 42.7633 41.4821 40.6921H37.4821Z" fill="white" mask="url(#path-6-inside-3)"/>
<defs>
<filter id="filter0_d" x="0" y="0" width="77" height="80" filterUnits="userSpaceOnUse" color-interpolation-filters="sRGB">
<feFlood flood-opacity="0" result="BackgroundImageFix"/>
<feColorMatrix in="SourceAlpha" type="matrix" values="0 0 0 0 0 0 0 0 0 0 0 0 0 0 0 0 0 0 127 0"/>
<feOffset dx="7" dy="10"/>
<feGaussianBlur stdDeviation="3"/>
<feColorMatrix type="matrix" values="0 0 0 0 0 0 0 0 0 0.678431 0 0 0 0 0.933333 0 0 0 0.24 0"/>
<feBlend mode="normal" in2="BackgroundImageFix" result="effect1_dropShadow"/>
<feBlend mode="normal" in="SourceGraphic" in2="effect1_dropShadow" result="shape"/>
</filter>
<linearGradient id="paint0_linear" x1="64" y1="64" x2="-13.7825" y2="20.6685" gradientUnits="userSpaceOnUse">
<stop stop-color="#86E6FF"/>
<stop offset="1" stop-color="#1A68FF"/>
</linearGradient>
</defs>
</svg>
