<svg width="225" height="215" viewBox="0 0 225 215" fill="none" xmlns="http://www.w3.org/2000/svg">
<g filter="url(#filter0_d)">
<circle cx="109.754" cy="70.328" r="54.672" fill="url(#paint0_linear)"/>
<path d="M97.0449 114.294L96.123 114.92V116.673V119.177C97.003 119.01 97.7992 118.76 98.5115 118.509C99.182 118.259 99.9362 117.883 100.774 117.424C101.78 116.84 102.492 116.256 102.869 115.63C103.121 115.254 103.247 114.879 103.288 114.545C103.288 114.503 103.288 114.461 103.288 114.42V110.08L100.69 111.832L97.0449 114.294Z" fill="url(#paint1_linear)"/>
<path d="M96.1652 119.302L95.9976 119.219V114.795L103.247 109.955C103.331 109.871 103.456 109.955 103.456 110.08V114.378C103.456 114.42 103.456 114.462 103.456 114.503C103.414 114.879 103.289 115.296 103.037 115.672C102.618 116.298 101.906 116.924 100.858 117.508C100.02 117.967 99.266 118.343 98.5536 118.635C97.8832 118.927 97.087 119.135 96.1652 119.302ZM96.2909 115.004V118.968C97.087 118.802 97.8413 118.593 98.4698 118.343C99.1403 118.092 99.8945 117.717 100.733 117.258C101.696 116.715 102.409 116.131 102.786 115.505C102.995 115.171 103.163 114.795 103.163 114.462C103.163 114.42 103.163 114.378 103.163 114.336V110.33L96.2909 115.004Z" fill="url(#paint2_linear)"/>
<path d="M94.7399 114.754C96.0389 114.461 96.8769 114.295 97.2121 114.253C97.5474 114.211 97.8407 114.211 98.0502 114.211C98.134 114.211 98.2178 114.253 98.2597 114.253L99.2235 111.457C99.2235 110.622 99.2235 109.245 99.2235 109.245L94.7399 109.078L93.1476 109.537C91.7229 109.829 91.0943 108.41 90.0048 108.911L88.8735 108.869L86.3174 108.16V112.5C86.3593 113.168 86.8621 113.752 87.784 114.295C88.4125 114.628 89.0411 114.879 89.6696 115.046C90.2982 115.171 91.0105 115.254 91.7648 115.213C92.5609 115.171 93.5666 115.004 94.7399 114.754Z" fill="url(#paint3_linear)"/>
<path d="M91.3879 115.38C90.8012 115.38 90.2146 115.338 89.6698 115.213C88.9994 115.046 88.3708 114.795 87.7423 114.461C86.8204 113.919 86.3176 113.335 86.1919 112.625V112.5V107.91L88.9156 108.703L89.9632 108.744C90.5498 108.494 91.0107 108.744 91.5136 109.036C91.9745 109.287 92.4354 109.537 93.1059 109.412L94.7401 108.953L99.3913 109.12V109.287C99.3913 109.287 99.3913 110.664 99.3913 111.499V111.54L98.4275 114.378L98.3018 114.42H98.2599C98.1761 114.42 98.1342 114.378 98.0504 114.378C97.8409 114.378 97.5476 114.378 97.2543 114.42C96.919 114.461 96.081 114.628 94.782 114.921C93.6087 115.171 92.603 115.338 91.8488 115.38C91.6812 115.38 91.5555 115.38 91.3879 115.38ZM86.5271 112.417V112.5C86.569 113.126 87.03 113.669 87.9099 114.169C88.4966 114.503 89.1251 114.754 89.7536 114.921C90.3822 115.046 91.0945 115.129 91.8069 115.087C92.5611 115.046 93.5249 114.921 94.6982 114.67C95.9972 114.378 96.8352 114.211 97.1705 114.169C97.5057 114.128 97.799 114.128 98.0504 114.128C98.0923 114.128 98.1342 114.128 98.1761 114.128L99.0561 111.499C99.0561 110.831 99.0561 109.829 99.0561 109.454L94.782 109.287L93.1897 109.704C92.3935 109.871 91.8488 109.579 91.3879 109.287C90.9269 109.036 90.5498 108.828 90.0889 109.036H90.047L88.8737 108.995L86.4852 108.327V112.417H86.5271Z" fill="url(#paint4_linear)"/>
<path d="M93.1484 113.168V117.424L96.1654 119.177V114.92L93.1484 113.168Z" fill="url(#paint5_linear)"/>
<path d="M103.331 109.537C103.121 108.953 102.576 108.411 101.78 107.91C100.942 107.409 100.02 107.117 99.0146 107.033C98.0089 106.95 96.7518 107.075 95.1595 107.451C93.5253 107.785 92.4777 107.993 92.0587 108.035C91.6397 108.077 91.3464 108.035 91.0949 107.91C90.8854 107.785 90.8854 107.659 90.8854 107.576C90.8854 107.493 91.0111 107.284 91.5559 106.992C92.3939 106.533 93.651 106.074 95.3271 105.74L95.4528 105.698V105.531L93.7767 103.319L93.6929 103.361C91.7235 103.778 90.0893 104.404 88.7903 105.156C87.2818 106.032 86.4437 106.908 86.2342 107.785C86.0247 108.703 86.5275 109.537 87.7427 110.247C88.3713 110.622 89.0417 110.873 89.6702 110.998C90.3407 111.165 91.053 111.207 91.8073 111.165C92.5615 111.123 93.5672 110.998 94.7405 110.706C96.0395 110.414 96.8775 110.247 97.2128 110.205C97.548 110.163 97.7994 110.163 98.0089 110.163C98.2184 110.163 98.386 110.247 98.5537 110.33C98.847 110.497 98.847 110.622 98.8051 110.748C98.7632 110.873 98.5956 111.123 98.0508 111.415C97.4642 111.749 96.7518 112.041 95.8719 112.333C95.0338 112.625 94.112 112.834 93.1482 113.043L92.9806 113.084V117.55L96.1233 119.344L96.2909 119.302V115.046C97.129 114.879 97.9251 114.67 98.5537 114.42C99.266 114.128 100.02 113.752 100.858 113.293C101.864 112.709 102.618 112.083 103.037 111.457C103.456 110.789 103.582 110.122 103.331 109.537ZM93.2739 117.341V113.46L95.9557 115.004V118.885L93.2739 117.341ZM102.786 111.248C102.409 111.833 101.696 112.417 100.733 113.001C99.8946 113.46 99.1403 113.836 98.4699 114.086C97.7994 114.336 97.0452 114.545 96.1652 114.712L93.5672 113.21C94.4053 113.043 95.2014 112.834 95.9557 112.584C96.8356 112.292 97.5899 111.958 98.1765 111.624C98.7213 111.29 99.0146 111.04 99.0984 110.748C99.1403 110.539 99.1403 110.247 98.7213 109.996C98.5118 109.871 98.3022 109.829 98.0508 109.788C97.7994 109.788 97.5061 109.788 97.1709 109.829C96.8356 109.871 95.9976 110.038 94.6986 110.33C93.5253 110.581 92.5615 110.748 91.8073 110.748C91.053 110.789 90.3826 110.706 89.754 110.581C89.1255 110.455 88.497 110.205 87.9103 109.829C86.8208 109.203 86.3599 108.494 86.5275 107.743C86.737 106.992 87.5332 106.157 88.9579 105.364C90.215 104.655 91.8073 104.071 93.651 103.653L95.0338 105.489C93.4415 105.865 92.2263 106.282 91.3883 106.741C90.8854 107.033 90.634 107.284 90.5921 107.534C90.5502 107.743 90.5921 107.993 90.9273 108.202C91.2207 108.369 91.5978 108.411 92.0587 108.369C92.5196 108.327 93.5253 108.16 95.2014 107.785C96.7518 107.451 98.0089 107.326 98.9727 107.409C99.9365 107.493 100.816 107.743 101.654 108.244C102.409 108.661 102.87 109.162 103.079 109.704C103.247 110.163 103.163 110.706 102.786 111.248Z" fill="url(#paint6_linear)"/>
<path d="M96.2065 115.046L96.1646 119.219L100.732 117.508L102.618 116.006L103.288 114.67L103.414 110.622L102.785 111.624L101.78 112.542L99.9358 113.669L96.2065 115.046Z" fill="url(#paint7_linear)"/>
<path d="M91.2622 110.956V115.213L93.1059 115.046L93.1478 113.168L96.2906 112.333L98.4695 111.29L98.9723 110.747L98.7628 110.205L97.841 109.954L95.6201 110.247L93.1059 110.789L91.2622 110.956Z" fill="url(#paint8_linear)"/>
<path d="M95.4529 105.489L93.8187 105.907L91.2207 106.95L90.7598 107.492L91.0112 107.993L92.4359 108.202L95.4529 107.534V105.489Z" fill="url(#paint9_linear)"/>
<path d="M101.738 108.035C102.534 108.494 102.995 108.995 103.205 109.579C103.414 110.163 103.33 110.747 102.911 111.373C102.492 111.999 101.822 112.584 100.816 113.168C99.978 113.627 99.2238 114.003 98.5533 114.253C97.8829 114.503 97.0867 114.712 96.1648 114.921L93.1478 113.21C94.1116 113.043 95.0335 112.792 95.9134 112.5C96.7934 112.208 97.5057 111.874 98.0924 111.54C98.5952 111.248 98.8885 110.998 98.9304 110.747C98.9723 110.497 98.8885 110.33 98.5952 110.163C98.4276 110.08 98.2181 109.996 98.0086 109.996C97.7991 109.996 97.5057 109.996 97.1705 110.038C96.8353 110.08 95.9972 110.247 94.6982 110.539C93.525 110.789 92.5612 110.956 91.8069 110.956C91.0527 110.998 90.3403 110.914 89.7118 110.789C89.0833 110.664 88.4128 110.414 87.8262 110.038C86.6948 109.37 86.192 108.619 86.4015 107.785C86.611 106.95 87.4071 106.074 88.8737 105.239C90.1727 104.488 91.8069 103.862 93.7345 103.445L95.3268 105.531C93.6088 105.907 92.3517 106.324 91.5136 106.825C91.0946 107.075 90.8432 107.326 90.8013 107.492C90.7594 107.701 90.8432 107.868 91.0946 107.993C91.346 108.118 91.6812 108.202 92.1422 108.16C92.6031 108.118 93.6507 107.951 95.2849 107.576C96.8353 107.242 98.1343 107.117 99.098 107.2C99.978 107.284 100.858 107.576 101.738 108.035Z" fill="url(#paint10_linear)"/>
<path d="M113.812 105.06V112.093L119.31 115.211V108.25L113.812 105.06Z" fill="url(#paint11_linear)"/>
<path d="M140.87 104.19L134.721 105.567L127.052 104.407L126.039 104.335V104.987V111.368L127.558 112.238C130.018 113.688 132.55 114.414 135.155 114.486C137.759 114.559 140.146 113.906 142.462 112.601C144.27 111.513 145.283 110.426 145.355 109.193V102.159L140.87 104.19Z" fill="url(#paint12_linear)"/>
<path d="M135.444 114.703C135.3 114.703 135.227 114.703 135.083 114.703C132.478 114.631 129.874 113.906 127.414 112.456L125.75 111.513V104.045L127.052 104.117L134.721 105.277L140.798 103.9L145.573 101.652V109.338C145.428 110.57 144.415 111.731 142.607 112.818C140.364 114.123 137.976 114.703 135.444 114.703ZM126.329 111.151L127.703 111.948C130.091 113.326 132.623 114.051 135.155 114.123C137.687 114.196 140.074 113.543 142.317 112.311C144.053 111.296 144.994 110.208 145.066 109.12V109.048V102.522L141.015 104.48L134.793 105.857L127.125 104.697L126.401 104.625V111.151H126.329Z" fill="url(#paint13_linear)"/>
<path d="M136.746 99.6215L135.227 98.6789L130.018 101.724L131.393 102.522C132.261 103.029 133.201 103.247 134.214 103.319H134.286C135.227 103.319 136.167 103.102 136.963 102.594C137.687 102.159 138.048 101.724 138.048 101.217C138.121 100.637 137.614 100.129 136.746 99.6215Z" fill="url(#paint14_linear)"/>
<path d="M145.573 101.652C145.428 100.129 143.981 98.679 141.305 97.1563L134.142 92.9507L113.813 104.697L113.524 104.915V105.205V112.238L119.022 115.429L119.312 115.574L119.529 115.429L126.257 111.513V104.77L127.414 105.422C129.946 106.873 132.478 107.598 135.083 107.67C137.687 107.743 140.219 107.09 142.534 105.785C144.705 104.552 145.718 103.102 145.573 101.652ZM114.103 111.876V105.495L119.022 108.395V114.776L114.103 111.876ZM119.529 114.776V108.395L125.75 104.77V111.151L119.529 114.776ZM142.317 105.35C140.075 106.655 137.687 107.235 135.155 107.163C132.623 107.09 130.163 106.365 127.704 104.987L126.329 104.19L126.04 104.045L119.312 107.888L114.392 104.987L134.142 93.6033L141.015 97.5913C143.475 99.0415 144.85 100.419 144.994 101.724C145.139 102.957 144.271 104.19 142.317 105.35Z" fill="url(#paint15_linear)"/>
<path d="M126.039 104.335V111.368L119.311 115.211V108.25L126.039 104.335Z" fill="url(#paint16_linear)"/>
<path d="M142.461 105.567C140.218 106.872 137.758 107.525 135.154 107.452C132.55 107.38 130.017 106.655 127.558 105.205L126.038 104.335L119.31 108.25L113.812 105.06L134.141 93.2406L141.159 97.3011C143.763 98.8238 145.065 100.201 145.282 101.652C145.427 103.029 144.487 104.335 142.461 105.567ZM130.524 101.724L131.537 102.304C132.332 102.812 133.273 103.029 134.213 103.029C135.154 103.029 136.022 102.812 136.89 102.377C138.265 101.579 138.192 100.709 136.673 99.8389L135.226 99.0413L130.524 101.724Z" fill="url(#paint17_linear)"/>
<path opacity="0.5" d="M133.738 48.5992L127.933 51.3554C126.197 52.1638 124.751 51.721 124.297 50.1762L115.631 19.6871C114.659 16.2148 109.292 18.8636 107.827 23.5615L98.7619 52.8594C98.1154 55.0263 96.3801 57.0613 94.5935 57.913L92.9056 58.7251C91.2688 59.4941 89.8621 59.1487 89.3468 57.7877L87.4793 52.9249C86.328 49.9105 81.4615 52.2679 79.8763 56.6734C79.1457 58.6922 77.52 60.5471 75.8321 61.3592L74.3451 62.0455C72.5586 62.8971 71.0714 62.3568 70.6694 60.7688L69.1086 54.4202C68.2423 50.8147 62.8351 53.3659 61.3229 58.0601L52.3814 85.1505C51.6911 87.2668 49.9558 89.3018 48.1728 90.1066L39.9999 93.8107L133.738 48.5992Z" fill="url(#paint18_linear)"/>
<path opacity="0.5" d="M138.429 52.7239L132.701 55.4861C130.989 56.2963 129.562 55.8551 129.117 54.3109L120.603 23.8337C119.648 20.3627 114.352 23.017 112.903 27.7161L103.931 57.0213C103.291 59.1887 101.578 61.2254 99.8148 62.079L98.1493 62.8928C96.5343 63.6635 95.1474 63.3197 94.6407 61.9594L92.8042 57.0989C91.6721 54.086 86.8702 56.4485 85.3021 60.8553C84.5795 62.8747 82.9742 64.7312 81.3087 65.5451L79.8415 66.2329C78.0787 67.0864 76.6127 66.5477 76.2179 64.9602L74.6855 58.6138C73.835 55.0095 68.4997 57.5664 67.0034 62.2618L58.1562 89.3595C57.4731 91.4764 55.7596 93.5131 54.0004 94.3197L45.9363 98.0323L138.429 52.7239Z" fill="url(#paint19_linear)"/>
<path opacity="0.4" d="M76.3599 52.455C75.5025 52.3883 74.8616 51.639 74.9284 50.7815C74.9951 49.924 75.7442 49.2829 76.6015 49.3497C77.4588 49.4164 78.0997 50.1656 78.033 51.0231C77.9663 51.8806 77.2172 52.5217 76.3599 52.455Z" fill="#42E8E0"/>
<path opacity="0.4" d="M76.4298 51.5607C76.0661 51.5324 75.7942 51.2146 75.8225 50.8508C75.8509 50.487 76.1687 50.215 76.5324 50.2433C76.8961 50.2716 77.168 50.5895 77.1397 50.9533C77.1113 51.3171 76.7936 51.589 76.4298 51.5607Z" fill="#42E8E0"/>
<path opacity="0.4" d="M102.137 27.1005C101.28 27.0338 100.639 26.2846 100.706 25.4271C100.772 24.5696 101.522 23.9285 102.379 23.9952C103.236 24.0619 103.877 24.8112 103.81 25.6687C103.744 26.5262 102.995 27.1673 102.137 27.1005Z" fill="#42E8E0"/>
<path opacity="0.4" d="M102.207 26.2068C101.843 26.1785 101.571 25.8606 101.599 25.4968C101.628 25.133 101.946 24.8611 102.309 24.8894C102.673 24.9177 102.945 25.2355 102.917 25.5993C102.888 25.9631 102.57 26.2351 102.207 26.2068Z" fill="#42E8E0"/>
<path opacity="0.4" d="M55.332 56.3089C54.4747 56.2421 53.8338 55.4929 53.9005 54.6354C53.9672 53.7779 54.7163 53.1368 55.5737 53.2035C56.431 53.2703 57.0719 54.0195 57.0052 54.877C56.9384 55.7345 56.1893 56.3756 55.332 56.3089Z" fill="#42E8E0"/>
<path opacity="0.4" d="M55.402 55.4152C55.0383 55.3868 54.7664 55.069 54.7947 54.7052C54.823 54.3414 55.1408 54.0694 55.5045 54.0977C55.8682 54.126 56.1401 54.4439 56.1118 54.8077C56.0835 55.1715 55.7657 55.4435 55.402 55.4152Z" fill="#42E8E0"/>
<path d="M156.193 30.7326L153.133 10.0511L146.286 10.739C145.707 10.6304 144.612 11.2323 144.349 11.8387L135.357 32.7871C135.077 33.4388 135.507 34.181 136.154 34.1764L138.72 34.0678V82.9022C138.72 83.7711 139.353 84.3956 140.127 84.296L146.282 85.6627C147.02 85.5677 153.912 81.8568 153.912 81.0151V32.0721L155.469 32.063C156.061 32.063 156.446 31.348 156.193 30.7326Z" fill="#048034"/>
<path opacity="0.3" d="M145.512 33.8547L138.72 34.0765V82.9109C138.72 83.7797 139.353 84.4043 140.127 84.3047L146.282 85.6714C146.585 85.6307 147.934 84.979 149.418 84.1644L145.512 33.8547Z" fill="url(#paint20_linear)"/>
<path d="M162.822 32.4201L153.921 10.5802C153.622 9.8425 152.717 9.79725 152.418 10.5077L143.055 32.4834C142.779 33.1306 143.204 33.8728 143.842 33.8682L145.512 33.8592V84.3725C145.512 85.2369 146.137 85.8614 146.906 85.7618L159.252 84.1643C159.976 84.0693 160.559 83.3181 160.559 82.4809V33.7596L162.103 33.7506C162.686 33.746 163.071 33.031 162.822 32.4201Z" fill="url(#paint21_linear)"/>
<path d="M126.551 88.3547L120.12 86.8613C119.31 86.9654 118.654 86.3454 118.654 85.481V45.589C118.654 44.7246 119.31 44.0005 120.12 43.9779L133.909 43.5706C134.665 43.548 141.078 43.91 141.078 43.91L135.276 83.4129C135.28 84.2501 126.551 88.3547 126.551 88.3547Z" fill="#048034"/>
<path d="M140.748 86.5536L127.094 88.3185C126.293 88.4226 125.642 87.8071 125.642 86.9473V45.8877C125.642 45.0278 126.293 44.3083 127.094 44.2857L140.748 43.8784C141.499 43.8557 142.105 44.5119 142.105 45.3401V84.8792C142.101 85.7073 141.499 86.4585 140.748 86.5536Z" fill="url(#paint22_linear)"/>
<path d="M105.009 91.1516L98.2303 89.6582C97.3388 89.7714 96.6147 89.1288 96.6147 88.2191L96.8184 60.2698C96.8184 59.3602 97.5425 58.5818 98.434 58.5275L113.581 57.6224C114.413 57.5726 121.378 58.532 121.378 58.532L114.88 85.9473C114.88 86.8208 105.847 91.043 105.009 91.1516Z" fill="#048034"/>
<path d="M120.409 89.1832L105.407 91.1246C104.525 91.2378 103.81 90.5997 103.81 89.6946V60.8537C103.81 59.9486 104.529 59.1748 105.407 59.1205L120.409 58.2154C121.233 58.1656 121.898 58.8309 121.898 59.6997V87.4228C121.898 88.2872 121.233 89.0791 120.409 89.1832Z" fill="url(#paint23_linear)"/>
<path d="M80.4179 94.0027L74.0732 92.7401C73.0867 92.8668 72.2856 92.1925 72.2856 91.2376V76.7154C72.2856 75.7605 73.0867 74.9142 74.0732 74.8237L90.7994 73.3167C91.7135 73.2353 98.0537 73.9775 98.0537 73.9775L92.4511 88.735C92.4511 89.6492 81.3456 93.8805 80.4179 94.0027Z" fill="#048034"/>
<path d="M98.0524 92.075L81.4892 94.2155C80.5117 94.3422 79.7197 93.6725 79.7197 92.7221V77.3627C79.7197 76.4123 80.5117 75.5706 81.4892 75.4801L98.0524 73.9731C98.9575 73.8916 99.6906 74.5614 99.6906 75.4755V90.2105C99.6906 91.1246 98.9575 91.9573 98.0524 92.075Z" fill="url(#paint24_linear)"/>
<path d="M65.8461 81.9966L47.2826 83.9154C46.4906 83.9968 45.8073 84.4946 45.486 85.1463C45.3638 85.3952 45.2959 85.6667 45.2959 85.9428V93.9257C45.2959 94.9349 46.1467 95.7585 47.2826 96.1613L53.8445 97.4646C54.8763 97.3334 67.6834 92.7762 67.6834 91.8123L70.7607 88.1105L73.8743 82.8383C73.8697 82.8338 66.8598 81.8925 65.8461 81.9966Z" fill="#048034"/>
<path d="M73.349 95.2699L54.971 97.6457C53.8849 97.786 53.0024 97.0891 53.0024 96.0844V86.8253C53.0024 85.8252 53.8849 84.9201 54.971 84.807L73.349 82.8882C74.3536 82.7841 75.1637 83.4765 75.1637 84.4359V93.2967C75.1637 94.2561 74.3536 95.1386 73.349 95.2699Z" fill="url(#paint25_linear)"/>
<path fill-rule="evenodd" clip-rule="evenodd" d="M89.786 79.3598C89.7861 79.3596 89.7863 79.3594 89.7864 79.3593C89.7867 79.3586 89.7875 79.3583 89.7881 79.3586L97.1766 82.8621C97.4059 82.9708 97.4847 83.2575 97.3535 83.5061C97.2193 83.7606 96.9169 83.878 96.6822 83.7667L90.7948 80.975C90.1732 80.6803 89.4022 80.7715 88.7806 81.2133L82.8909 85.3991C82.6562 85.5659 82.3538 85.5201 82.2196 85.2973C82.0885 85.0797 82.1673 84.7744 82.3966 84.6114L89.786 79.3598Z" fill="url(#paint26_linear)"/>
<path fill-rule="evenodd" clip-rule="evenodd" d="M90.7378 81.8607C90.1163 81.5662 89.3454 81.6574 88.7239 82.0991L83.7714 85.6186L89.7308 84.9133L95.6903 84.2079L90.7378 81.8607ZM83.7681 85.6193L95.6911 84.2082V91.019L93.7566 91.2479V86.4912L91.0945 86.8062V91.563L83.7681 92.4302V85.6193ZM89.1178 87.0403L86.1506 87.3915V89.8104L89.1178 89.4592V87.0403Z" fill="url(#paint27_linear)"/>
<path fill-rule="evenodd" clip-rule="evenodd" d="M109.597 67.9784L116.475 67.2556C117.573 67.1401 118.464 67.942 118.464 69.0465V88.5167L107.608 89.6577V70.1875C107.608 69.0829 108.499 68.0939 109.597 67.9784ZM108.776 71.0628L117.29 70.1679V71.1693L108.776 72.0641V71.0628ZM117.29 72.6058L108.776 73.5006V74.502L117.29 73.6072V72.6058ZM108.776 78.3827L117.29 77.4879V78.4893L108.776 79.3841V78.3827ZM117.29 75.0499L108.776 75.9447V76.9461L117.29 76.0512V75.0499ZM108.776 80.8201L117.29 79.9253V80.9267L108.776 81.8215V80.8201ZM117.29 82.3634L108.776 83.2582V84.2596L117.29 83.3648V82.3634ZM112.032 86.2185L114.042 86.0072V88.9577L112.032 89.169V86.2185Z" fill="url(#paint28_linear)"/>
<path fill-rule="evenodd" clip-rule="evenodd" d="M141.79 75.1349C141.79 74.4125 141.403 73.7921 140.778 73.5118L136.053 71.393V86.208L141.79 85.529V75.1349ZM137.895 75.8998L136.541 76.06V77.4228L137.895 77.2626V75.8998ZM136.541 78.4348L137.895 78.2746V79.6374L136.541 79.7976V78.4348ZM137.895 80.6497L136.541 80.8099V82.1726L137.895 82.0124V80.6497ZM136.541 83.1845L137.895 83.0243V84.387L136.541 84.5472V83.1845ZM140.397 75.6035L139.044 75.7636V77.1264L140.397 76.9662V75.6035ZM139.044 78.1387L140.397 77.9785V79.3412L139.044 79.5014V78.1387ZM140.397 80.3531L139.044 80.5133V81.8761L140.397 81.7159V80.3531ZM139.044 82.8881L140.397 82.7279V84.0907L139.044 84.2509V82.8881Z" fill="url(#paint29_linear)"/>
<path fill-rule="evenodd" clip-rule="evenodd" d="M136.087 65.4353C136.087 64.056 134.733 63.251 133.441 63.862L128.243 66.3205C127.448 66.6964 126.916 67.5155 126.916 68.364V87.2891L136.087 86.2036V65.4353ZM134.619 67.7149L128.269 68.4665V69.4234L134.619 68.6719V67.7149ZM128.269 70.7311L134.619 69.9795V70.9365L128.269 71.688V70.7311ZM134.619 72.2441L128.269 72.9956V73.9526L134.619 73.2011V72.2441ZM128.269 75.2602L134.619 74.5087V75.4657L128.269 76.2172V75.2602ZM134.619 76.7731L128.269 77.5246V78.4816L134.619 77.7301V76.7731ZM128.269 79.7894L134.619 79.0379V79.9949L128.269 80.7464V79.7894ZM134.619 81.3023L128.269 82.0538V83.0108L134.619 82.2593V81.3023ZM128.269 84.3186L134.619 83.5671V84.5241L128.269 85.2756V84.3186Z" fill="url(#paint30_linear)"/>
</g>
<defs>
<filter id="filter0_d" x="0" y="0" width="224.425" height="215" filterUnits="userSpaceOnUse" color-interpolation-filters="sRGB">
<feFlood flood-opacity="0" result="BackgroundImageFix"/>
<feColorMatrix in="SourceAlpha" type="matrix" values="0 0 0 0 0 0 0 0 0 0 0 0 0 0 0 0 0 0 127 0" result="hardAlpha"/>
<feOffset dx="10" dy="40"/>
<feGaussianBlur stdDeviation="25"/>
<feColorMatrix type="matrix" values="0 0 0 0 0.422014 0 0 0 0 0.596542 0 0 0 0 0.858333 0 0 0 0.3 0"/>
<feBlend mode="multiply" in2="BackgroundImageFix" result="effect1_dropShadow"/>
<feBlend mode="normal" in="SourceGraphic" in2="effect1_dropShadow" result="shape"/>
</filter>
<linearGradient id="paint0_linear" x1="52.3133" y1="15.656" x2="184.199" y2="89.8531" gradientUnits="userSpaceOnUse">
<stop stop-color="#FE8E27"/>
<stop offset="1" stop-color="#FFCC4A"/>
</linearGradient>
<linearGradient id="paint1_linear" x1="96.123" y1="110.08" x2="104.967" y2="117.046" gradientUnits="userSpaceOnUse">
<stop stop-color="#86E6FF"/>
<stop offset="1" stop-color="#1A68FF"/>
</linearGradient>
<linearGradient id="paint2_linear" x1="95.9976" y1="109.921" x2="105.138" y2="117.188" gradientUnits="userSpaceOnUse">
<stop stop-color="#86E6FF"/>
<stop offset="1" stop-color="#1A68FF"/>
</linearGradient>
<linearGradient id="paint3_linear" x1="86.3174" y1="108.16" x2="92.2669" y2="119.031" gradientUnits="userSpaceOnUse">
<stop stop-color="#86E6FF"/>
<stop offset="1" stop-color="#1A68FF"/>
</linearGradient>
<linearGradient id="paint4_linear" x1="86.1919" y1="107.91" x2="92.5957" y2="119.225" gradientUnits="userSpaceOnUse">
<stop stop-color="#86E6FF"/>
<stop offset="1" stop-color="#1A68FF"/>
</linearGradient>
<linearGradient id="paint5_linear" x1="93.1484" y1="113.168" x2="97.9677" y2="115.587" gradientUnits="userSpaceOnUse">
<stop stop-color="#86E6FF"/>
<stop offset="1" stop-color="#1A68FF"/>
</linearGradient>
<linearGradient id="paint6_linear" x1="86.188" y1="103.319" x2="102.168" y2="120.543" gradientUnits="userSpaceOnUse">
<stop stop-color="#86E6FF"/>
<stop offset="1" stop-color="#1A68FF"/>
</linearGradient>
<linearGradient id="paint7_linear" x1="96.1646" y1="110.622" x2="104.638" y2="117.767" gradientUnits="userSpaceOnUse">
<stop stop-color="#86E6FF"/>
<stop offset="1" stop-color="#1A68FF"/>
</linearGradient>
<linearGradient id="paint8_linear" x1="91.2622" y1="109.954" x2="96.1574" y2="117.132" gradientUnits="userSpaceOnUse">
<stop stop-color="#86E6FF"/>
<stop offset="1" stop-color="#1A68FF"/>
</linearGradient>
<linearGradient id="paint9_linear" x1="90.7598" y1="105.489" x2="93.1102" y2="109.556" gradientUnits="userSpaceOnUse">
<stop stop-color="#86E6FF"/>
<stop offset="1" stop-color="#1A68FF"/>
</linearGradient>
<linearGradient id="paint10_linear" x1="86.355" y1="103.445" x2="97.008" y2="119.188" gradientUnits="userSpaceOnUse">
<stop stop-color="#86E6FF"/>
<stop offset="1" stop-color="#1A68FF"/>
</linearGradient>
<linearGradient id="paint11_linear" x1="113.812" y1="105.06" x2="122.402" y2="110.433" gradientUnits="userSpaceOnUse">
<stop stop-color="#91FF8C"/>
<stop offset="1" stop-color="#02C44D"/>
</linearGradient>
<linearGradient id="paint12_linear" x1="126.039" y1="102.159" x2="135.867" y2="119.938" gradientUnits="userSpaceOnUse">
<stop stop-color="#91FF8C"/>
<stop offset="1" stop-color="#02C44D"/>
</linearGradient>
<linearGradient id="paint13_linear" x1="125.75" y1="101.652" x2="136.32" y2="120.192" gradientUnits="userSpaceOnUse">
<stop stop-color="#91FF8C"/>
<stop offset="1" stop-color="#02C44D"/>
</linearGradient>
<linearGradient id="paint14_linear" x1="130.018" y1="98.6789" x2="133.512" y2="105.667" gradientUnits="userSpaceOnUse">
<stop stop-color="#91FF8C"/>
<stop offset="1" stop-color="#02C44D"/>
</linearGradient>
<linearGradient id="paint15_linear" x1="113.524" y1="92.9507" x2="132.468" y2="123.958" gradientUnits="userSpaceOnUse">
<stop stop-color="#91FF8C"/>
<stop offset="1" stop-color="#02C44D"/>
</linearGradient>
<linearGradient id="paint16_linear" x1="119.311" y1="104.335" x2="128.994" y2="111.252" gradientUnits="userSpaceOnUse">
<stop stop-color="#91FF8C"/>
<stop offset="1" stop-color="#02C44D"/>
</linearGradient>
<linearGradient id="paint17_linear" x1="113.812" y1="93.2406" x2="123.776" y2="117.378" gradientUnits="userSpaceOnUse">
<stop stop-color="#91FF8C"/>
<stop offset="1" stop-color="#02C44D"/>
</linearGradient>
<linearGradient id="paint18_linear" x1="52.4677" y1="408.445" x2="216.932" y2="14.4431" gradientUnits="userSpaceOnUse">
<stop stop-color="#ABC4FF"/>
<stop offset="1" stop-color="white"/>
</linearGradient>
<linearGradient id="paint19_linear" x1="57.894" y1="412.627" x2="223.773" y2="19.8585" gradientUnits="userSpaceOnUse">
<stop stop-color="#ABC4FF"/>
<stop offset="1" stop-color="white"/>
</linearGradient>
<linearGradient id="paint20_linear" x1="144.419" y1="76.7556" x2="142.013" y2="57.6076" gradientUnits="userSpaceOnUse">
<stop stop-color="#311944"/>
<stop offset="1" stop-color="#893976"/>
</linearGradient>
<linearGradient id="paint21_linear" x1="142.49" y1="10" x2="172.131" y2="14.4739" gradientUnits="userSpaceOnUse">
<stop stop-color="#02C34D"/>
<stop offset="1" stop-color="#91FF8C"/>
</linearGradient>
<linearGradient id="paint22_linear" x1="125.246" y1="43.8778" x2="149.207" y2="48.9704" gradientUnits="userSpaceOnUse">
<stop stop-color="#02C34D"/>
<stop offset="1" stop-color="#91FF8C"/>
</linearGradient>
<linearGradient id="paint23_linear" x1="103.375" y1="58.2128" x2="128.402" y2="66.1029" gradientUnits="userSpaceOnUse">
<stop stop-color="#02C34D"/>
<stop offset="1" stop-color="#91FF8C"/>
</linearGradient>
<linearGradient id="paint24_linear" x1="79.2394" y1="73.9664" x2="102.257" y2="86.9833" gradientUnits="userSpaceOnUse">
<stop stop-color="#02C34D"/>
<stop offset="1" stop-color="#91FF8C"/>
</linearGradient>
<linearGradient id="paint25_linear" x1="52.4694" y1="82.8778" x2="71.8464" y2="99.5434" gradientUnits="userSpaceOnUse">
<stop stop-color="#02C34D"/>
<stop offset="1" stop-color="#91FF8C"/>
</linearGradient>
<linearGradient id="paint26_linear" x1="91.1665" y1="104.868" x2="84.4037" y2="77.2312" gradientUnits="userSpaceOnUse">
<stop stop-color="#ABC4FF"/>
<stop offset="1" stop-color="white"/>
</linearGradient>
<linearGradient id="paint27_linear" x1="90.8077" y1="130.187" x2="70.8564" y2="83.1945" gradientUnits="userSpaceOnUse">
<stop stop-color="#ABC4FF"/>
<stop offset="1" stop-color="white"/>
</linearGradient>
<linearGradient id="paint28_linear" x1="114.018" y1="171.667" x2="55.6734" y2="101.007" gradientUnits="userSpaceOnUse">
<stop stop-color="#ABC4FF"/>
<stop offset="1" stop-color="white"/>
</linearGradient>
<linearGradient id="paint29_linear" x1="139.44" y1="142.861" x2="98.508" y2="104.214" gradientUnits="userSpaceOnUse">
<stop stop-color="#ABC4FF"/>
<stop offset="1" stop-color="white"/>
</linearGradient>
<linearGradient id="paint30_linear" x1="132.331" y1="174.337" x2="69.3322" y2="112.752" gradientUnits="userSpaceOnUse">
<stop stop-color="#ABC4FF"/>
<stop offset="1" stop-color="white"/>
</linearGradient>
</defs>
</svg>
