<svg width="97" height="97" viewBox="0 0 97 97" fill="none" xmlns="http://www.w3.org/2000/svg">
<g filter="url(#filter0_d)">
<circle cx="48.1239" cy="44.1239" r="44.1239" fill="url(#paint0_linear)"/>
</g>
<path d="M42.2603 61.553L37.854 60.123L42.2603 61.553Z" fill="white"/>
<path d="M41.8239 61.7489C41.7321 61.7489 41.6404 61.7489 41.6404 61.7489L37.9713 60.7929C37.6044 60.7193 37.421 60.3516 37.5127 60.131C37.6044 59.9104 38.0631 59.6898 38.3382 59.7633L42.0073 60.7193C42.3742 60.7929 42.5577 61.1606 42.4659 61.3812C42.3742 61.6018 42.099 61.7489 41.8239 61.7489Z" fill="white"/>
<path d="M35.4306 61.3331C34.4392 61.0031 33.8884 59.9032 34.2189 58.8032C34.5493 57.8132 35.6509 57.2633 36.7525 57.5932C37.7439 57.9232 38.2947 59.0232 37.9642 60.1231C37.6337 61.1131 36.5322 61.6631 35.4306 61.3331Z" fill="white"/>
<path d="M55.6993 61.553L60.1056 60.123L55.6993 61.553Z" fill="white"/>
<path d="M56.1547 61.7489C55.8795 61.7489 55.6044 61.6021 55.5126 61.382C55.4209 61.0885 55.6044 60.7949 55.9713 60.7216L59.6403 59.7676C60.0072 59.6942 60.3742 59.841 60.4659 60.1345C60.5576 60.428 60.3742 60.7216 60.0072 60.7949L56.3382 61.7489C56.3382 61.7489 56.2464 61.7489 56.1547 61.7489Z" fill="white"/>
<path d="M62.5292 61.3331C63.5206 61.0031 64.0713 59.9032 63.7409 58.8032C63.4104 57.8132 62.3088 57.2633 61.2073 57.5932C60.2159 57.9232 59.6651 59.0232 59.9956 60.1231C60.4362 61.1131 61.5377 61.6631 62.5292 61.3331Z" fill="white"/>
<path d="M49.09 53.3032C42.8111 53.3032 37.7439 48.2434 37.7439 41.9737C37.7439 35.704 42.8111 30.6442 49.09 30.6442C55.369 30.6442 60.5464 35.594 60.5464 41.8637C60.5464 48.1334 55.369 53.3032 49.09 53.3032ZM49.09 32.1841C43.6924 32.1841 39.2861 36.5839 39.2861 41.9737C39.2861 47.3635 43.6924 51.7633 49.09 51.7633C54.4877 51.7633 58.894 47.3635 58.894 41.9737C58.894 36.4739 54.4877 32.1841 49.09 32.1841Z" fill="white"/>
<path fill-rule="evenodd" clip-rule="evenodd" d="M46.1127 42.8622C45.1642 42.0416 44.5736 40.8246 44.5736 39.4439C44.5736 36.914 46.5564 34.9341 49.09 34.9341C51.6236 34.9341 53.6065 36.914 53.6065 39.4439C53.6065 40.7701 53.0616 41.9452 52.1781 42.7631C52.9316 43.4865 53.3861 44.5073 53.3861 45.6037V48.0236C53.2759 48.4636 52.9454 48.7936 52.5048 48.7936H45.7853C45.3446 48.7936 45.0142 48.4636 45.0142 48.0236V45.6037C45.0142 44.5807 45.4236 43.5949 46.1127 42.8622Z" fill="white"/>
<path d="M48.9826 59.7489C48.7007 59.7489 48.4893 59.4632 48.4893 59.0822V52.4156C48.4893 52.0346 48.7007 51.7489 48.9826 51.7489C49.2644 51.7489 49.4758 52.0346 49.4758 52.4156V59.0822C49.5463 59.4632 49.3349 59.7489 48.9826 59.7489Z" fill="white"/>
<path d="M32.3463 33.8342L39.0659 37.6841L32.3463 33.8342Z" fill="white"/>
<path d="M39.121 38.7489C39.0683 38.7489 38.9631 38.7489 38.9104 38.6889L35.6999 36.5889C35.4894 36.4689 35.4367 36.1689 35.542 35.9889C35.6473 35.7489 35.9104 35.6889 36.0683 35.8089L39.2789 37.9089C39.4894 38.0289 39.542 38.3289 39.4367 38.5089C39.3841 38.6289 39.2789 38.7489 39.121 38.7489Z" fill="white"/>
<path d="M65.944 33.8342L59.2244 37.6841L65.944 33.8342Z" fill="white"/>
<path d="M58.9498 38.7489C58.7525 38.7489 58.6209 38.6889 58.5551 38.5089C58.4235 38.2689 58.4893 38.0289 58.7525 37.9089L62.7656 35.8089C63.0288 35.6889 63.292 35.7489 63.4235 35.9889C63.5551 36.2289 63.4893 36.4689 63.2262 36.5889L59.1472 38.6889C59.0814 38.6889 59.0156 38.7489 58.9498 38.7489Z" fill="white"/>
<path d="M69.469 40.3239C64.9526 40.3239 61.2073 36.5841 61.2073 32.0742C61.2073 27.5644 64.9526 23.8246 69.469 23.8246C73.9855 23.8246 77.7308 27.5644 77.7308 32.0742C77.7308 36.5841 73.9855 40.3239 69.469 40.3239ZM69.469 25.4745C65.8339 25.4745 62.8596 28.4444 62.8596 32.0742C62.8596 35.7041 65.8339 38.674 69.469 38.674C73.1042 38.674 76.0784 35.7041 76.0784 32.0742C76.0784 28.4444 73.1042 25.4745 69.469 25.4745Z" fill="white"/>
<path fill-rule="evenodd" clip-rule="evenodd" d="M66.847 33.113C66.1513 32.4368 65.7236 31.4875 65.7236 30.4243C65.7236 28.3344 67.376 26.6844 69.469 26.6844C71.5619 26.6844 73.2143 28.3344 73.2143 30.4243C73.2143 31.4231 72.7938 32.366 72.1083 33.0551C72.6624 33.6404 72.994 34.4191 72.994 35.264V36.1439C72.8838 36.5839 72.5533 37.0239 72.1127 37.0239H66.8252C66.3845 37.0239 66.0541 36.6939 66.0541 36.2539V35.264C66.0541 34.4255 66.348 33.6848 66.847 33.113Z" fill="white"/>
<path d="M29.2618 40.3239C24.7453 40.3239 21 36.5841 21 32.0742C21 27.5644 24.7453 23.8246 29.2618 23.8246C33.7782 23.8246 37.5235 27.5644 37.5235 32.0742C37.5235 36.5841 33.7782 40.3239 29.2618 40.3239ZM29.2618 25.4745C25.6266 25.4745 22.6524 28.4444 22.6524 32.0742C22.6524 35.7041 25.6266 38.674 29.2618 38.674C32.8969 38.674 35.8712 35.7041 35.8712 32.0742C35.8712 28.4444 32.8969 25.4745 29.2618 25.4745Z" fill="white"/>
<path fill-rule="evenodd" clip-rule="evenodd" d="M26.6398 33.113C25.9441 32.4368 25.5164 31.4875 25.5164 30.4243C25.5164 28.3344 27.1688 26.6844 29.2617 26.6844C31.3547 26.6844 33.0071 28.3344 33.0071 30.4243C33.0071 31.4129 32.5677 32.3466 31.8808 33.0338C32.4471 33.6214 32.7868 34.4088 32.7868 35.264V36.1439C32.6766 36.5839 32.3462 37.0239 31.9055 37.0239H26.618C26.1774 37.0239 25.8469 36.6939 25.8469 36.2539V35.264C25.8469 34.4255 26.1409 33.6848 26.6398 33.113Z" fill="white"/>
<path d="M49.09 72.4427C44.5736 72.4427 40.8282 68.7028 40.8282 64.193C40.8282 59.6832 44.5736 55.9434 49.09 55.9434C53.6064 55.9434 57.3518 59.6832 57.3518 64.193C57.3518 68.7028 53.7166 72.4427 49.09 72.4427ZM49.09 57.5933C45.4548 57.5933 42.4806 60.5632 42.4806 64.193C42.4806 67.8229 45.4548 70.7927 49.09 70.7927C52.7252 70.7927 55.6994 67.8229 55.6994 64.193C55.6994 60.5632 52.7252 57.5933 49.09 57.5933Z" fill="white"/>
<path fill-rule="evenodd" clip-rule="evenodd" d="M46.5213 65.2823C45.7942 64.6034 45.3447 63.633 45.3447 62.5429C45.3447 60.453 46.997 58.8031 49.09 58.8031C51.183 58.8031 52.8353 60.453 52.8353 62.5429C52.8353 63.6148 52.4007 64.571 51.6949 65.2481C52.2696 65.8373 52.615 66.6306 52.615 67.4928V68.2628C52.615 68.8128 52.1744 69.1428 51.7337 69.1428H46.4462C46.0056 69.1428 45.6751 68.8128 45.6751 68.3728V67.4928C45.6751 66.6249 45.99 65.8618 46.5213 65.2823Z" fill="white"/>
<path d="M29.2619 44.8337C28.8213 44.8337 28.4908 44.5037 28.4908 44.0637V39.4439C28.4908 39.0039 28.8213 38.674 29.2619 38.674C29.7025 38.674 30.033 39.0039 30.033 39.4439V44.0637C30.033 44.5037 29.7025 44.8337 29.2619 44.8337Z" fill="white"/>
<path d="M31.2446 45.9337C31.2446 47.0336 30.3634 47.9136 29.2618 47.9136C28.1602 47.9136 27.279 47.0336 27.279 45.9337C27.279 44.8337 28.1602 43.9537 29.2618 43.9537C30.3634 43.9537 31.2446 44.8337 31.2446 45.9337Z" fill="white"/>
<path d="M34.5494 26.3543L38.4049 23.9344L34.5494 26.3543Z" fill="white"/>
<path d="M34.5494 27.2344C34.3291 27.2344 33.9986 27.1244 33.8884 26.9044C33.6681 26.5745 33.7783 26.0245 34.1087 25.8045L37.9642 23.3846C38.2947 23.1646 38.8455 23.2746 39.0658 23.6046C39.2861 23.9346 39.176 24.4845 38.8455 24.7045L34.99 27.1244C34.7697 27.2344 34.6595 27.2344 34.5494 27.2344Z" fill="white"/>
<path d="M38.9556 21.2946C39.8369 20.7447 41.0486 20.9646 41.7095 21.9546C42.2603 22.8346 42.04 24.0445 41.0486 24.7045C40.1673 25.2545 38.9556 25.0345 38.2947 24.0445C37.7439 23.0546 38.0743 21.8446 38.9556 21.2946Z" fill="white"/>
<path d="M69.469 44.8337C69.0284 44.8337 68.6979 44.5037 68.6979 44.0637V39.4439C68.6979 39.0039 69.0284 38.674 69.469 38.674C69.9097 38.674 70.2401 39.0039 70.2401 39.4439V44.0637C70.3503 44.5037 69.9097 44.8337 69.469 44.8337Z" fill="white"/>
<path d="M67.4862 45.9337C67.4862 47.0336 68.3675 47.9136 69.469 47.9136C70.5706 47.9136 71.4518 47.0336 71.4518 45.9337C71.4518 44.8337 70.5706 43.9537 69.469 43.9537C68.3675 43.9537 67.4862 44.8337 67.4862 45.9337Z" fill="white"/>
<path d="M64.1814 26.3543L60.3259 23.9344L64.1814 26.3543Z" fill="white"/>
<path d="M64.1815 27.2344C64.0713 27.2344 63.851 27.2344 63.7409 27.1244L59.8854 24.7045C59.5549 24.4845 59.3346 23.9345 59.6651 23.6045C59.8854 23.2746 60.4362 23.0546 60.7666 23.3845L64.6221 25.8044C64.9526 26.0244 65.1729 26.5744 64.8424 26.9044C64.7323 27.1244 64.512 27.2344 64.1815 27.2344Z" fill="white"/>
<path d="M59.7752 21.2946C58.8939 20.7447 57.6822 20.9646 57.0213 21.9546C56.4705 22.8346 56.6908 24.0445 57.6822 24.7045C58.5635 25.2545 59.7752 25.0345 60.4361 24.0445C60.9869 23.0546 60.6564 21.8446 59.7752 21.2946Z" fill="white"/>
<defs>
<filter id="filter0_d" x="0" y="0" width="96.2478" height="96.2478" filterUnits="userSpaceOnUse" color-interpolation-filters="sRGB">
<feFlood flood-opacity="0" result="BackgroundImageFix"/>
<feColorMatrix in="SourceAlpha" type="matrix" values="0 0 0 0 0 0 0 0 0 0 0 0 0 0 0 0 0 0 127 0"/>
<feOffset dy="4"/>
<feGaussianBlur stdDeviation="2"/>
<feColorMatrix type="matrix" values="0 0 0 0 0 0 0 0 0 0 0 0 0 0 0 0 0 0 0.25 0"/>
<feBlend mode="normal" in2="BackgroundImageFix" result="effect1_dropShadow"/>
<feBlend mode="normal" in="SourceGraphic" in2="effect1_dropShadow" result="shape"/>
</filter>
<linearGradient id="paint0_linear" x1="1.76588" y1="5.29327e-08" x2="108.206" y2="59.882" gradientUnits="userSpaceOnUse">
<stop stop-color="#FE8E27"/>
<stop offset="1" stop-color="#FFCC4A"/>
</linearGradient>
</defs>
</svg>
