<svg width="77" height="80" viewBox="0 0 77 80" fill="none" xmlns="http://www.w3.org/2000/svg">
<g filter="url(#filter0_d)">
<circle cx="32" cy="32" r="32" fill="url(#paint0_linear)"/>
</g>
<path d="M38.5157 47.3599C35.9652 47.3333 33.4505 46.757 31.1429 45.6703C25.2103 43.057 20.5225 38.2447 18.0654 32.2457C17.0274 29.8513 16.5454 27.2529 16.6554 24.6455C16.7998 21.6749 17.8074 19.1927 19.6475 17.2543C19.787 17.1191 19.9416 17.0006 20.1083 16.901L20.2066 16.8334L20.4739 16.6399H21.4907L21.6597 16.7044C23.1957 17.2727 24.3047 18.3018 25.3829 19.2941C26.2422 20.0749 27.0546 20.9058 27.816 21.7824C28.6969 22.797 29.1727 24.1008 29.1523 25.4442C29.1437 25.9179 29.0661 26.3877 28.9219 26.8389C28.7447 27.4489 28.3944 27.9944 27.9135 28.4093C27.4326 28.8243 26.8417 29.0908 26.2124 29.1767C26.2584 31.1705 27.2599 33.3024 28.9925 35.0289C30.7251 36.7553 32.8356 37.7384 34.8109 37.7783C34.8109 37.7783 34.8109 37.7783 34.8109 37.7568C35.1181 35.7723 37.1825 34.5312 38.8536 34.6418C39.6399 34.6926 40.4006 34.9409 41.0655 35.3637C41.6619 35.727 42.2244 36.1434 42.7459 36.6079C44.0117 37.7604 45.1639 39.0319 46.1865 40.4049C46.4695 40.8106 46.7221 41.2368 46.9422 41.6798C47.0313 41.8487 47.1204 42.0208 47.2156 42.1866L47.3539 42.417V43.4554L47.2218 43.6735C46.8525 44.2638 46.3574 44.7652 45.7718 45.1419L45.6858 45.2033C44.199 46.2872 42.4611 46.9753 40.6354 47.2032C39.9332 47.3035 39.225 47.3558 38.5157 47.3599ZM21.1159 18.6643C19.6106 20.2403 18.815 22.2309 18.6921 24.7346C18.5966 27.0378 19.0241 29.3326 19.9424 31.4469C22.199 36.9751 26.5112 41.4129 31.9724 43.8271C34.8447 45.1358 37.588 45.5873 40.362 45.2095C41.8514 45.0265 43.2699 44.4684 44.4846 43.5875L44.5706 43.523C44.8365 43.3448 45.0826 43.1388 45.3048 42.9086L45.1543 42.6259C44.9743 42.2697 44.769 41.9268 44.5399 41.5999C43.5969 40.3306 42.5342 39.1548 41.3665 38.0886C40.9363 37.7086 40.4726 37.3683 39.9811 37.0718C39.6002 36.8313 39.1649 36.6908 38.7154 36.6632C38.0426 36.6171 36.9552 37.1486 36.82 38.0579C36.8008 38.2107 36.7906 38.3646 36.7893 38.5187C36.7893 38.6139 36.7893 38.7091 36.7893 38.8044L36.7401 39.6492L35.9015 39.7505C33.0936 40.0915 29.9848 38.8627 27.5794 36.4666C25.174 34.0704 23.9176 30.937 24.2555 28.0892L24.363 27.1953H25.6594C25.9611 27.2112 26.2592 27.1236 26.5044 26.9471C26.7497 26.7706 26.9273 26.5157 27.008 26.2245C27.0912 25.9642 27.1358 25.693 27.1401 25.4197C27.155 24.5626 26.8468 23.7313 26.2769 23.0911C25.5662 22.2781 24.8081 21.5077 24.0067 20.784C23.0851 19.9239 22.1973 19.0975 21.1159 18.6643Z" fill="white"/>
<defs>
<filter id="filter0_d" x="0" y="0" width="77" height="80" filterUnits="userSpaceOnUse" color-interpolation-filters="sRGB">
<feFlood flood-opacity="0" result="BackgroundImageFix"/>
<feColorMatrix in="SourceAlpha" type="matrix" values="0 0 0 0 0 0 0 0 0 0 0 0 0 0 0 0 0 0 127 0"/>
<feOffset dx="7" dy="10"/>
<feGaussianBlur stdDeviation="3"/>
<feColorMatrix type="matrix" values="0 0 0 0 0 0 0 0 0 0.678431 0 0 0 0 0.933333 0 0 0 0.24 0"/>
<feBlend mode="normal" in2="BackgroundImageFix" result="effect1_dropShadow"/>
<feBlend mode="normal" in="SourceGraphic" in2="effect1_dropShadow" result="shape"/>
</filter>
<linearGradient id="paint0_linear" x1="-1.62025" y1="3.83884e-08" x2="75.5734" y2="43.4282" gradientUnits="userSpaceOnUse">
<stop stop-color="#FE8E27"/>
<stop offset="1" stop-color="#FFCC4A"/>
</linearGradient>
</defs>
</svg>
