<svg width="107" height="107" viewBox="0 0 107 107" fill="none" xmlns="http://www.w3.org/2000/svg">
<g filter="url(#filter0_d)">
<circle cx="53.2278" cy="49.169" r="48.9374" fill="url(#paint0_linear)"/>
</g>
<path d="M67.4676 35.693C66.6237 33.3277 65.3717 31.1544 63.7968 29.2584C65.4283 31.178 66.6562 33.3522 67.4676 35.693Z" fill="white" stroke="white" stroke-width="2"/>
<mask id="path-3-inside-1" fill="white">
<path d="M47.4523 21.5304V63.9614V21.5304Z"/>
</mask>
<path d="M47.4523 21.5304V63.9614V21.5304Z" fill="white"/>
<path d="M46.4523 21.5304V63.9614H48.4523V21.5304H46.4523ZM48.4523 63.9614V21.5304H46.4523V63.9614H48.4523Z" fill="white" mask="url(#path-3-inside-1)"/>
<mask id="path-5-inside-2" fill="white">
<path d="M26.1719 42.8109H68.6028H26.1719Z"/>
</mask>
<path d="M26.1719 42.8109H68.6028H26.1719Z" fill="white"/>
<path d="M26.1719 43.8109H68.6028V41.8109H26.1719V43.8109ZM68.6028 41.8109H26.1719V43.8109H68.6028V41.8109Z" fill="white" mask="url(#path-5-inside-2)"/>
<mask id="path-7-inside-3" fill="white">
<path d="M43.3 64.3506C38.7585 59.0305 36.0335 53.4509 34.9955 47.7416C34.2169 43.2 34.4764 38.5287 35.9038 33.8574C38.3692 26.0719 43.1702 21.1411 43.3 20.8816L44.7273 22.3089L44.0786 21.6601L44.7273 22.3089C44.7273 22.3089 40.056 27.11 37.7204 34.5062C36.4228 38.7882 36.1633 43.2 36.9418 47.482C37.9799 52.8021 40.5751 58.1222 44.8571 63.1828L43.3 64.3506Z"/>
</mask>
<path d="M43.3 64.3506C38.7585 59.0305 36.0335 53.4509 34.9955 47.7416C34.2169 43.2 34.4764 38.5287 35.9038 33.8574C38.3692 26.0719 43.1702 21.1411 43.3 20.8816L44.7273 22.3089L44.0786 21.6601L44.7273 22.3089C44.7273 22.3089 40.056 27.11 37.7204 34.5062C36.4228 38.7882 36.1633 43.2 36.9418 47.482C37.9799 52.8021 40.5751 58.1222 44.8571 63.1828L43.3 64.3506Z" fill="white"/>
<path d="M43.3 64.3506L41.7789 65.6492L42.9979 67.0772L44.5 65.9506L43.3 64.3506ZM34.9955 47.7416L33.0242 48.0795L33.0259 48.0894L33.0277 48.0993L34.9955 47.7416ZM35.9038 33.8574L33.9971 33.2536L33.994 33.2633L33.9911 33.273L35.9038 33.8574ZM43.3 20.8816L44.7142 19.4674L42.7521 17.5053L41.5111 19.9872L43.3 20.8816ZM44.7273 22.3089L46.1608 23.7036L47.5365 22.2897L46.1416 20.8947L44.7273 22.3089ZM37.7204 34.5062L35.8132 33.904L35.8097 33.9151L35.8063 33.9262L37.7204 34.5062ZM36.9418 47.482L34.9741 47.8398L34.9764 47.8525L34.9789 47.8651L36.9418 47.482ZM44.8571 63.1828L46.0571 64.7828L47.754 63.5101L46.3839 61.8909L44.8571 63.1828ZM44.8211 63.0521C40.4754 57.9614 37.9295 52.6982 36.9632 47.3838L33.0277 48.0993C34.1376 54.2037 37.0415 60.0997 41.7789 65.6492L44.8211 63.0521ZM36.9667 47.4036C36.2407 43.1685 36.4808 38.8131 37.8165 34.4419L33.9911 33.273C32.472 38.2443 32.1932 43.2316 33.0242 48.0795L36.9667 47.4036ZM37.8105 34.4612C38.9688 30.8032 40.6821 27.7999 42.1307 25.6732C42.8531 24.6127 43.5058 23.7758 43.9851 23.1891C44.2253 22.8951 44.422 22.6638 44.5705 22.489C44.6409 22.4061 44.7127 22.3215 44.7687 22.2533C44.7963 22.2196 44.8335 22.1736 44.8707 22.1244C44.8793 22.1131 44.993 21.9677 45.0889 21.776L41.5111 19.9872C41.5664 19.8766 41.6191 19.7986 41.634 19.7765C41.6556 19.7445 41.6723 19.7223 41.678 19.7147C41.6893 19.6998 41.6918 19.6972 41.6766 19.7158C41.6468 19.7522 41.5997 19.8077 41.5216 19.8997C41.3731 20.0746 41.1542 20.3319 40.8875 20.6583C40.3531 21.3124 39.6271 22.2435 38.8248 23.4213C37.2241 25.7713 35.3041 29.1261 33.9971 33.2536L37.8105 34.4612ZM41.8858 22.2958L43.3131 23.7231L46.1416 20.8947L44.7142 19.4674L41.8858 22.2958ZM46.1416 20.8947L45.4928 20.2459L42.6643 23.0744L43.3131 23.7231L46.1416 20.8947ZM42.6643 23.0744L43.3131 23.7231L46.1416 20.8947L45.4928 20.2459L42.6643 23.0744ZM44.7273 22.3089C43.2939 20.9142 43.2935 20.9146 43.2931 20.915C43.293 20.9152 43.2926 20.9156 43.2923 20.9159C43.2916 20.9165 43.291 20.9172 43.2902 20.918C43.2887 20.9196 43.2869 20.9215 43.2848 20.9236C43.2806 20.9279 43.2753 20.9334 43.269 20.9401C43.2562 20.9534 43.239 20.9715 43.2177 20.9942C43.175 21.0395 43.1156 21.1034 43.0412 21.1854C42.8925 21.3492 42.6837 21.5853 42.4286 21.8894C41.9188 22.4972 41.2222 23.3794 40.4513 24.5015C38.914 26.7391 37.0565 29.9669 35.8132 33.904L39.6276 35.1085C40.7199 31.6493 42.3659 28.7785 43.7482 26.7665C44.4371 25.7638 45.0542 24.9834 45.4933 24.4599C45.7127 24.1984 45.887 24.0016 46.0029 23.874C46.0608 23.8102 46.104 23.7637 46.1309 23.7352C46.1444 23.7209 46.1537 23.711 46.1588 23.7058C46.1613 23.7031 46.1628 23.7016 46.1631 23.7013C46.1633 23.7011 46.1632 23.7012 46.1628 23.7016C46.1626 23.7018 46.1623 23.7021 46.162 23.7024C46.1618 23.7026 46.1615 23.7029 46.1615 23.703C46.1611 23.7033 46.1608 23.7036 44.7273 22.3089ZM35.8063 33.9262C34.4186 38.5057 34.1376 43.2388 34.9741 47.8398L38.9096 47.1243C38.189 43.1612 38.427 39.0708 39.6344 35.0862L35.8063 33.9262ZM34.9789 47.8651C36.0906 53.5628 38.8574 59.1884 43.3303 64.4747L46.3839 61.8909C42.2928 57.056 39.8692 52.0415 38.9048 47.099L34.9789 47.8651ZM43.6571 61.5828L42.1 62.7506L44.5 65.9506L46.0571 64.7828L43.6571 61.5828Z" fill="white" mask="url(#path-7-inside-3)"/>
<mask id="path-9-inside-4" fill="white">
<path d="M51.7343 64.3506L50.3069 63.053C54.589 57.9925 57.1841 52.6724 58.2222 47.3523C59.0008 43.0703 58.7412 38.7882 57.4437 34.3765C55.108 27.11 50.4367 22.3089 50.3069 22.3089L51.7343 20.8816C51.9938 21.1411 56.7949 25.9422 59.1305 33.8574C60.5579 38.5287 60.9471 43.2 60.0388 47.7416C59.1305 53.4509 56.2758 59.0305 51.7343 64.3506Z"/>
</mask>
<path d="M51.7343 64.3506L50.3069 63.053C54.589 57.9925 57.1841 52.6724 58.2222 47.3523C59.0008 43.0703 58.7412 38.7882 57.4437 34.3765C55.108 27.11 50.4367 22.3089 50.3069 22.3089L51.7343 20.8816C51.9938 21.1411 56.7949 25.9422 59.1305 33.8574C60.5579 38.5287 60.9471 43.2 60.0388 47.7416C59.1305 53.4509 56.2758 59.0305 51.7343 64.3506Z" fill="white"/>
<path d="M51.7343 64.3506L50.3889 65.8305L51.9157 67.2185L53.2554 65.6492L51.7343 64.3506ZM50.3069 63.053L48.7802 61.7612L47.5334 63.2346L48.9616 64.5329L50.3069 63.053ZM58.2222 47.3523L60.1852 47.7353L60.1876 47.7227L60.1899 47.7101L58.2222 47.3523ZM57.4437 34.3765L59.3624 33.8121L59.3553 33.7882L59.3477 33.7644L57.4437 34.3765ZM50.3069 22.3089L48.8927 20.8947L45.4785 24.3089H50.3069V22.3089ZM51.7343 20.8816L53.1485 19.4674L51.7343 18.0532L50.3201 19.4674L51.7343 20.8816ZM59.1305 33.8574L57.2123 34.4235L57.215 34.4327L57.2178 34.4419L59.1305 33.8574ZM60.0388 47.7416L58.0777 47.3493L58.0699 47.3882L58.0637 47.4273L60.0388 47.7416ZM53.0796 62.8708L51.6523 61.5732L48.9616 64.5329L50.3889 65.8305L53.0796 62.8708ZM51.8337 64.3449C56.3067 59.0587 59.0734 53.433 60.1852 47.7353L56.2592 46.9693C55.2948 51.9118 52.8712 56.9263 48.7802 61.7612L51.8337 64.3449ZM60.1899 47.7101C61.0277 43.1025 60.7425 38.5046 59.3624 33.8121L55.5249 34.9408C56.7399 39.0719 56.9738 43.038 56.2545 46.9945L60.1899 47.7101ZM59.3477 33.7644C58.103 29.8921 56.2439 26.6957 54.6866 24.4708C53.9059 23.3556 53.1923 22.472 52.6542 21.8564C52.3862 21.5498 52.1543 21.3012 51.973 21.1189C51.8851 21.0306 51.7929 20.9415 51.7052 20.8642C51.6655 20.8292 51.5969 20.7701 51.5134 20.709C51.4751 20.681 51.3936 20.6228 51.2849 20.5626C51.2307 20.5326 51.1355 20.4829 51.0111 20.4364C50.9117 20.3993 50.6523 20.3089 50.3069 20.3089V24.3089C49.9636 24.3089 49.7068 24.2192 49.6105 24.1832C49.4892 24.1379 49.3977 24.0899 49.3477 24.0622C49.2475 24.0068 49.1766 23.9556 49.151 23.9369C49.118 23.9127 49.0943 23.8935 49.0831 23.8843C49.0707 23.8741 49.0629 23.8672 49.0604 23.8651C49.0565 23.8616 49.0803 23.8828 49.1371 23.9399C49.2452 24.0485 49.4178 24.2318 49.6425 24.4889C50.0898 25.0005 50.7143 25.7714 51.4096 26.7647C52.8043 28.757 54.4486 31.5944 55.5396 34.9885L59.3477 33.7644ZM51.7212 23.7231L53.1485 22.2958L50.3201 19.4674L48.8927 20.8947L51.7212 23.7231ZM50.3201 22.2958C50.4864 22.4621 55.0154 26.9785 57.2123 34.4235L61.0487 33.2914C58.5743 24.9059 53.5012 19.8201 53.1485 19.4674L50.3201 22.2958ZM57.2178 34.4419C58.5654 38.852 58.9106 43.1847 58.0777 47.3493L62 48.1338C62.9837 43.2153 62.5504 38.2054 61.0432 33.273L57.2178 34.4419ZM58.0637 47.4273C57.227 52.6862 54.5801 57.9366 50.2132 63.0521L53.2554 65.6492C57.9716 60.1245 61.034 54.2157 62.014 48.0558L58.0637 47.4273Z" fill="white" mask="url(#path-9-inside-4)"/>
<path d="M41.5215 31.8337C37.2583 31.0918 34.0191 29.7397 32.4965 29.0223L32.5401 28.9459C33.0184 29.1719 33.6805 29.4679 34.4973 29.7915C36.2611 30.4904 38.7567 31.3225 41.6888 31.8561C41.7554 31.8689 41.822 31.8815 41.8885 31.8939C41.7666 31.8742 41.6443 31.8541 41.5215 31.8337ZM49.1866 32.4619C49.7366 32.4427 50.2859 32.409 50.8349 32.361C50.2908 32.4265 49.7537 32.452 49.1866 32.4619Z" fill="white" stroke="white" stroke-width="2"/>
<mask id="path-12-inside-5" fill="white">
<path d="M62.7638 57.9925C62.7638 57.9925 58.7412 55.7867 53.0319 54.7486C49.6582 54.0998 46.4142 53.97 43.1702 54.3593C39.2775 54.7486 35.5145 56.0462 32.011 57.9925L31.1027 56.3057C34.736 54.2296 38.7585 52.932 43.0405 52.4129C46.4142 52.0237 49.9177 52.1534 53.4212 52.8022C59.5198 53.97 63.5423 56.1759 63.6721 56.3057L62.7638 57.9925L63.2828 57.0842L62.7638 57.9925Z"/>
</mask>
<path d="M62.7638 57.9925C62.7638 57.9925 58.7412 55.7867 53.0319 54.7486C49.6582 54.0998 46.4142 53.97 43.1702 54.3593C39.2775 54.7486 35.5145 56.0462 32.011 57.9925L31.1027 56.3057C34.736 54.2296 38.7585 52.932 43.0405 52.4129C46.4142 52.0237 49.9177 52.1534 53.4212 52.8022C59.5198 53.97 63.5423 56.1759 63.6721 56.3057L62.7638 57.9925L63.2828 57.0842L62.7638 57.9925Z" fill="white"/>
<path d="M62.7638 57.9925L61.8021 59.7462L63.5252 60.6911L64.5002 58.9848L62.7638 57.9925ZM53.0319 54.7486L52.6542 56.7126L52.6641 56.7145L52.6741 56.7163L53.0319 54.7486ZM43.1702 54.3593L43.3693 56.3494L43.3889 56.3474L43.4085 56.3451L43.1702 54.3593ZM32.011 57.9925L30.2501 58.9407L31.2108 60.725L32.9823 59.7409L32.011 57.9925ZM31.1027 56.3057L30.1104 54.5692L28.4172 55.5368L29.3418 57.2539L31.1027 56.3057ZM43.0405 52.4129L42.8112 50.4261L42.7998 50.4275L43.0405 52.4129ZM53.4212 52.8022L53.7973 50.8379L53.7853 50.8356L53.4212 52.8022ZM63.6721 56.3057L65.433 57.2539L66.1385 55.9437L65.0863 54.8915L63.6721 56.3057ZM62.7638 57.9925C63.7254 56.2389 63.7251 56.2387 63.7247 56.2385C63.7245 56.2384 63.7241 56.2382 63.7239 56.2381C63.7233 56.2377 63.7226 56.2374 63.7219 56.237C63.7205 56.2362 63.7189 56.2353 63.717 56.2343C63.7132 56.2322 63.7084 56.2296 63.7026 56.2265C63.691 56.2203 63.6756 56.212 63.6563 56.2017C63.6177 56.1812 63.5637 56.1528 63.495 56.1174C63.3574 56.0466 63.1606 55.9477 62.9089 55.8274C62.4059 55.5868 61.6825 55.2598 60.7756 54.9005C58.9654 54.1832 56.4035 53.3288 53.3896 52.7808L52.6741 56.7163C55.3696 57.2064 57.6736 57.974 59.3021 58.6192C60.1144 58.9411 60.7535 59.2304 61.1831 59.4359C61.3978 59.5386 61.5598 59.6201 61.6646 59.674C61.7169 59.701 61.755 59.721 61.7781 59.7333C61.7896 59.7395 61.7975 59.7437 61.8015 59.7459C61.8035 59.7469 61.8046 59.7475 61.8047 59.7476C61.8047 59.7476 61.8045 59.7475 61.8041 59.7473C61.8039 59.7472 61.8036 59.747 61.8033 59.7468C61.8031 59.7467 61.8028 59.7466 61.8027 59.7465C61.8024 59.7463 61.8021 59.7462 62.7638 57.9925ZM53.4096 52.7846C49.8444 52.099 46.3925 51.9583 42.932 52.3736L43.4085 56.3451C46.4359 55.9818 49.4719 56.1006 52.6542 56.7126L53.4096 52.7846ZM42.9712 52.3692C38.7662 52.7897 34.7425 54.1871 31.0397 56.2442L32.9823 59.7409C36.2865 57.9052 39.7888 56.7074 43.3693 56.3494L42.9712 52.3692ZM33.772 57.0443L32.8637 55.3575L29.3418 57.2539L30.2501 58.9407L33.772 57.0443ZM32.095 58.0422C35.484 56.1056 39.2488 54.8872 43.2811 54.3984L42.7998 50.4275C38.2681 50.9768 33.9879 52.3535 30.1104 54.5692L32.095 58.0422ZM43.2697 54.3998C46.4371 54.0343 49.7405 54.1546 53.057 54.7688L53.7853 50.8356C50.0949 50.1522 46.3913 50.013 42.8112 50.4261L43.2697 54.3998ZM53.045 54.7665C55.9485 55.3225 58.3555 56.1255 60.0422 56.8002C60.8849 57.1373 61.5419 57.44 61.9847 57.6596C62.2071 57.7698 62.369 57.8559 62.4693 57.9119C62.4938 57.9256 62.5131 57.9366 62.5274 57.945C62.5345 57.9492 62.54 57.9524 62.544 57.9548C62.5459 57.9559 62.5474 57.9568 62.5485 57.9575C62.5495 57.9581 62.55 57.9584 62.5499 57.9584C62.5499 57.9584 62.5492 57.9579 62.5479 57.9571C62.5467 57.9563 62.5446 57.955 62.5418 57.9532C62.5367 57.9499 62.5262 57.943 62.5118 57.9331C62.4989 57.9242 62.4732 57.9061 62.4404 57.8808C62.4171 57.8628 62.3435 57.8056 62.2578 57.7199L65.0863 54.8915C64.9409 54.7461 64.7974 54.6504 64.7853 54.642C64.7362 54.6081 64.6902 54.5789 64.6552 54.5572C64.5831 54.5126 64.5024 54.4659 64.4197 54.4197C64.2513 54.3256 64.0301 54.209 63.7617 54.0759C63.2233 53.809 62.4691 53.4628 61.5277 53.0863C59.6461 52.3336 56.9924 51.4497 53.7973 50.8379L53.045 54.7665ZM61.9111 55.3575L61.0028 57.0443L64.5247 58.9407L65.433 57.2539L61.9111 55.3575ZM64.5002 58.9848L65.0193 58.0765L61.5463 56.092L61.0273 57.0003L64.5002 58.9848ZM61.5463 56.092L61.0273 57.0003L64.5002 58.9848L65.0193 58.0765L61.5463 56.092Z" fill="white" mask="url(#path-12-inside-5)"/>
<path d="M77.9456 60.1985C79.0205 60.1985 79.8919 58.6299 79.8919 56.695C79.8919 54.7601 79.0205 53.1915 77.9456 53.1915C76.8706 53.1915 75.9992 54.7601 75.9992 56.695C75.9992 58.6299 76.8706 60.1985 77.9456 60.1985Z" fill="white"/>
<path d="M77.9455 61.1068C76.2587 61.1068 74.9611 59.1604 74.9611 56.695C74.9611 54.2296 76.2587 52.2832 77.9455 52.2832C79.6324 52.2832 80.93 54.2296 80.93 56.695C80.93 59.1604 79.6324 61.1068 77.9455 61.1068ZM77.9455 54.2296C77.5563 54.2296 76.9075 55.1379 76.9075 56.695C76.9075 58.2521 77.5563 59.1604 77.9455 59.1604C78.3348 59.1604 78.9836 58.2521 78.9836 56.695C78.9836 55.1379 78.3348 54.2296 77.9455 54.2296Z" fill="white"/>
<path fill-rule="evenodd" clip-rule="evenodd" d="M76.9074 71.7471C77.0371 71.8768 77.2966 72.0066 77.5561 72.0066C77.6859 72.0066 77.8157 72.0066 78.0752 72.1363C78.3347 72.0066 78.5942 71.6173 78.5942 71.228V43.9788C78.5942 43.5895 78.4645 43.2002 78.0752 43.0705C77.6859 42.9407 77.2966 42.9407 77.0371 43.2002L73.4039 46.3144C68.4731 50.5964 65.3589 52.5428 59.5197 52.5428C59.1305 52.5428 58.7412 52.8023 58.6114 53.0619L57.0543 55.7868H56.7948C56.5353 55.7868 56.146 56.0463 56.0163 56.3058C55.8865 56.5653 55.8865 56.9546 56.0163 57.2141L56.146 57.4736L56.0163 57.7332C55.8865 57.9927 55.8865 58.3819 56.0163 58.6415C56.146 59.0307 56.4055 59.1605 56.7948 59.1605H57.0543L58.6114 61.8854C58.8709 62.2747 59.1305 62.4045 59.5197 62.4045C65.2291 62.4045 68.4731 64.3508 73.4039 68.6329L76.9074 71.7471Z" fill="white"/>
<path d="M60.2983 51.375H44.8571V63.3128H60.2983V51.375Z" fill="#74D1FF"/>
<path d="M60.2983 64.3508H44.8571C44.338 64.3508 43.9488 63.9615 43.9488 63.4425V51.5047C43.9488 50.9857 44.338 50.5964 44.8571 50.5964H60.2983C60.8173 50.5964 61.2066 50.9857 61.2066 51.5047V63.4425C61.3364 63.9615 60.8173 64.3508 60.2983 64.3508ZM45.7654 62.4044H59.2602V52.4131H45.7654V62.4044Z" fill="white"/>
<path d="M58.7412 77.716H48.6201C48.1011 77.716 47.7118 77.3267 47.7118 76.8077V63.3129C47.7118 62.7938 48.1011 62.4045 48.6201 62.4045H55.108C55.4973 62.4045 55.8866 62.6641 56.0163 63.0533L59.7793 76.4184C59.9091 76.678 59.7793 77.0672 59.6496 77.197C59.39 77.4565 59.1305 77.716 58.7412 77.716ZM49.6582 75.7696H57.5734L54.4592 64.3509H49.7879V75.7696H49.6582Z" fill="white"/>
<defs>
<filter id="filter0_d" x="0.290405" y="0.231567" width="105.875" height="105.875" filterUnits="userSpaceOnUse" color-interpolation-filters="sRGB">
<feFlood flood-opacity="0" result="BackgroundImageFix"/>
<feColorMatrix in="SourceAlpha" type="matrix" values="0 0 0 0 0 0 0 0 0 0 0 0 0 0 0 0 0 0 127 0"/>
<feOffset dy="4"/>
<feGaussianBlur stdDeviation="2"/>
<feColorMatrix type="matrix" values="0 0 0 0 0 0 0 0 0 0 0 0 0 0 0 0 0 0 0.25 0"/>
<feBlend mode="normal" in2="BackgroundImageFix" result="effect1_dropShadow"/>
<feBlend mode="normal" in="SourceGraphic" in2="effect1_dropShadow" result="shape"/>
</filter>
<linearGradient id="paint0_linear" x1="102.165" y1="98.1064" x2="-16.7871" y2="31.8398" gradientUnits="userSpaceOnUse">
<stop stop-color="#86E6FF"/>
<stop offset="1" stop-color="#1A68FF"/>
</linearGradient>
</defs>
</svg>
