<svg width="79" height="156" viewBox="0 0 79 156" fill="none" xmlns="http://www.w3.org/2000/svg">
<g opacity="0.2">
<path opacity="0.090909" d="M5.51508 118.265L15.7236 111.954C15.8529 111.954 19.4711 109.636 19.6003 109.636C21.9263 108.348 24.64 107.704 27.4829 107.833C28.5166 107.833 29.4212 107.962 30.3258 108.091C31.618 108.348 32.9102 108.863 33.944 109.378L53.5858 120.712L58.367 123.417L73.2275 131.918C75.4243 133.205 77.1042 135.395 77.1042 137.713C77.1042 138.872 75.4243 141.191 73.0983 143.38C70.2554 146.085 66.508 149.176 64.8281 150.206L59.9177 153.169C58.8839 153.813 57.4624 154.328 56.2994 154.714C54.878 155.101 53.4565 155.358 51.9059 155.358C49.4506 155.358 47.1246 154.843 45.3155 153.813C45.3155 153.813 44.2818 153.169 44.1525 153.169L25.2861 142.35L21.6679 140.289L5.38586 130.887C3.3183 129.728 1.63841 127.538 1.37997 125.478C1.37997 125.349 1.37997 125.22 1.37997 125.091C0.9923 122.387 2.54297 119.94 5.51508 118.265Z" fill="black"/>
<path opacity="0.1818" d="M5.64478 118.523L15.5949 112.341C15.7241 112.212 19.2131 110.151 19.3423 110.151C21.5391 108.992 24.382 108.348 27.0957 108.477C28.0002 108.477 28.9048 108.606 29.8093 108.863C30.9723 109.121 32.3938 109.636 33.2983 110.151L52.294 121.099L56.946 123.803L71.2897 132.046C73.228 133.205 75.2956 135.524 75.2956 137.456C75.2956 138.486 74.1326 140.675 72.1943 142.865C69.739 145.441 66.5085 148.532 64.5701 149.691L59.6597 152.653C58.7551 153.168 57.2045 153.941 56.1707 154.199C54.7492 154.585 53.3278 154.843 51.9064 154.843C49.4511 154.972 47.1251 154.456 45.316 153.426C45.1868 153.426 44.2822 152.911 44.153 152.782L25.545 142.092L21.9268 140.031L5.90323 130.887C4.09411 129.857 2.02656 127.538 1.76811 125.735C1.76811 125.606 1.76811 125.478 1.63889 125.349C1.25122 122.773 2.80189 120.197 5.64478 118.523Z" fill="black"/>
<path opacity="0.2727" d="M5.90373 118.781L15.4662 112.727C15.7246 112.598 18.826 110.666 19.2136 110.666C21.4104 109.636 24.1241 108.992 26.7085 109.121C27.6131 109.121 28.5176 109.379 29.293 109.507C30.3267 109.765 31.8774 110.409 32.6527 110.795L51.1315 121.485L55.6543 124.061L69.6103 132.175C71.4194 133.205 73.6162 135.524 73.6162 137.327C73.6162 138.228 73.0993 140.418 71.2902 142.479C69.2226 144.797 66.509 148.017 64.4414 149.176L59.6602 152.138C58.8849 152.653 57.0757 153.426 56.1712 153.684C54.879 154.07 53.4575 154.328 51.9069 154.457C49.4516 154.585 47.2548 154.07 45.4457 153.169C45.3165 153.169 44.412 152.653 44.412 152.525L25.9332 141.964L22.4442 139.903L6.42061 130.758C4.74073 129.857 2.54395 127.41 2.15628 125.735C2.15628 125.607 2.02706 125.478 2.02706 125.349C1.63939 123.031 2.93161 120.584 5.90373 118.781Z" fill="black"/>
<path opacity="0.3636" d="M6.03288 119.167L15.3369 113.242C15.7245 113.114 18.5674 111.31 18.9551 111.31C21.1519 110.28 23.7363 109.765 26.3208 110.023C27.2253 110.023 28.1299 110.28 28.9052 110.409C29.8098 110.667 31.4897 111.31 32.1358 111.826L50.0977 122.129L54.4912 124.705L68.0596 132.562C69.6102 133.463 72.1947 135.781 72.1947 137.327C72.1947 138.1 72.5824 140.676 70.7732 142.092C69.6102 144.539 66.8966 147.502 64.6998 148.79L59.9186 151.752C59.2725 152.138 57.3341 153.169 56.5588 153.426C55.2666 153.813 53.8451 154.199 52.4237 154.199C50.0977 154.328 47.7717 153.941 45.9626 153.04C45.8333 153.04 44.9288 152.525 44.9288 152.396L26.5792 141.964L23.0902 139.903L7.19588 130.758C5.77443 129.857 2.93154 127.539 2.80232 125.993C2.80232 125.864 2.6731 125.735 2.6731 125.607C1.89776 123.417 3.06076 120.841 6.03288 119.167Z" fill="black"/>
<path opacity="0.4545" d="M6.1626 119.424L15.2082 113.758C15.5958 113.5 18.1803 111.954 18.6972 111.954C20.8939 111.053 23.3492 110.666 25.8044 110.795C26.7089 110.924 27.4843 111.053 28.2596 111.31C29.0349 111.439 30.8441 112.341 31.3609 112.727L48.806 122.773L53.0703 125.22L66.251 132.819C67.5432 133.592 70.3861 136.039 70.3861 137.327C70.3861 137.971 71.4198 140.547 69.8692 141.835C69.3523 144.153 66.8971 147.115 64.5711 148.403L59.9191 151.237C59.273 151.623 57.3346 152.653 56.5593 152.911C55.2671 153.297 53.8456 153.684 52.4242 153.813C50.0982 153.941 47.7722 153.684 45.9631 152.782C45.8338 152.782 45.0585 152.267 44.9293 152.267L26.8382 141.835L23.3492 139.903L7.71327 130.887C6.67949 130.114 3.44894 127.539 3.31971 126.251C3.31971 126.122 3.19049 125.993 3.19049 125.864C2.15671 123.675 3.19049 121.228 6.1626 119.424Z" fill="black"/>
<path opacity="0.5455" d="M6.42091 119.811L15.208 114.272C15.7249 114.015 18.0509 112.598 18.697 112.469C20.7646 111.568 23.349 111.31 25.5458 111.568C26.4504 111.697 27.2257 111.954 27.8718 112.083C28.5179 112.212 30.327 113.113 30.8439 113.5L47.772 123.288L51.9072 125.606L64.7002 132.948C65.8632 133.592 68.9645 136.039 68.9645 137.198C68.9645 137.713 70.6444 140.289 69.3522 141.448C69.3522 143.638 67.2846 146.6 64.8294 148.017L60.1774 150.85C59.6605 151.108 57.4637 152.396 56.9468 152.524C55.6546 152.911 54.3624 153.426 52.9409 153.555C50.6149 153.812 48.4182 153.426 46.609 152.653C46.3506 152.524 45.7045 152.138 45.5753 152.138L27.7426 141.834L24.3828 139.903L8.87613 131.016C7.58391 130.114 3.96568 127.538 3.83646 126.508C3.70724 126.379 3.70724 126.25 3.57802 126.25C2.41502 124.061 3.44879 121.485 6.42091 119.811Z" fill="black"/>
<path opacity="0.6364" d="M6.55179 120.068L14.9512 114.659C15.4681 114.273 17.6649 113.242 18.311 112.985C20.3786 112.212 22.8338 111.954 25.0306 112.212C25.8059 112.341 26.5812 112.598 27.3566 112.727C27.8735 112.856 29.8118 113.886 30.1995 114.144L46.6107 123.675L50.6166 125.993L63.0219 133.077C63.9265 133.592 67.2863 136.039 67.2863 136.94C67.2863 137.327 69.6123 140.032 68.5785 140.933C69.0954 142.994 67.4155 145.956 64.831 147.373L60.3083 150.206C59.9206 150.464 57.5946 151.752 57.0777 152.009C55.7855 152.396 54.4932 152.911 53.0718 153.04C50.7458 153.297 48.549 153.04 46.7399 152.267C46.4815 152.138 45.8354 151.881 45.7061 151.752L28.0027 141.577L24.6429 139.645L9.26545 130.887C8.49012 130.243 4.48423 127.538 4.35501 126.637C4.22579 126.508 4.22579 126.379 4.09656 126.379C2.67512 124.319 3.57967 121.743 6.55179 120.068Z" fill="black"/>
<path opacity="0.7273" d="M6.80802 120.326L14.949 115.046C15.5951 114.659 17.4042 113.758 18.1796 113.5C20.2471 112.856 22.5731 112.599 24.6407 112.856C25.416 112.985 26.1914 113.243 26.8375 113.5C27.2251 113.629 29.2927 114.659 29.5511 114.917L45.4455 124.061L49.3221 126.251L61.2106 133.077C61.8567 133.463 65.6042 135.91 65.6042 136.683C65.6042 137.07 68.5763 139.646 67.8009 140.289C68.9639 142.221 67.5425 145.184 64.6996 146.729L60.1768 149.563C59.9184 149.691 57.3339 151.237 57.0755 151.366C55.7833 151.752 54.491 152.267 53.1988 152.525C51.002 152.783 48.676 152.525 46.9961 151.881C46.7377 151.752 46.2208 151.495 45.9624 151.366L28.5174 141.32L25.1576 139.388L10.0386 130.63C9.39246 130.244 5.12813 127.41 4.99891 126.766C4.86969 126.637 4.86969 126.637 4.74046 126.508C2.93135 124.705 3.70668 122.129 6.80802 120.326Z" fill="black"/>
<path opacity="0.8182" d="M6.93759 120.713L14.8201 115.69C15.5955 115.303 17.1461 114.53 18.0507 114.273C20.1183 113.629 22.315 113.5 24.3826 113.886C25.1579 114.015 25.804 114.273 26.4501 114.53C26.7086 114.659 28.9054 115.818 29.0346 115.947L44.412 124.705L48.1595 126.895L59.6603 133.592C60.0479 133.85 64.0538 136.425 64.0538 136.812C64.0538 137.069 67.672 139.774 67.1552 140.16C68.835 141.964 67.8013 144.797 64.8292 146.471L60.4356 149.305C60.1772 149.434 57.5927 151.108 57.3343 151.108C56.1713 151.623 54.879 152.138 53.4576 152.267C51.2608 152.525 49.064 152.396 47.2549 151.623C46.9965 151.494 46.4796 151.237 46.2212 151.108L28.9054 141.191L25.5456 139.259L10.5558 130.63C10.1681 130.372 5.38692 127.41 5.38692 127.023C5.2577 126.895 5.12847 126.895 5.12847 126.766C3.19014 124.963 3.83625 122.387 6.93759 120.713Z" fill="black"/>
<path opacity="0.9091" d="M7.06592 120.97L14.69 116.076C15.4654 115.56 16.7576 115.045 17.7914 114.788C19.8589 114.272 22.0557 114.144 23.8648 114.53C24.6402 114.659 25.2863 115.045 25.9324 115.174C26.0616 115.174 28.3876 116.462 28.3876 116.591L43.1189 125.091L46.7372 127.152L57.8503 133.592C58.1087 133.72 62.3731 136.296 62.3731 136.554C62.3731 136.683 66.6374 139.387 66.379 139.645C68.5757 141.319 67.9296 144.153 64.8283 145.956L60.4347 148.789C60.3055 148.789 57.4626 150.593 57.4626 150.721C56.2996 151.236 55.0074 151.752 53.7152 152.009C51.5184 152.396 49.3216 152.267 47.5125 151.494C47.1248 151.365 46.7372 151.108 46.4787 150.979L29.4214 141.191L26.1908 139.259L11.3303 130.758C11.0718 130.629 6.03215 127.538 6.03215 127.281C5.90292 127.152 5.7737 127.152 5.64448 127.023C3.4477 125.349 4.09381 122.773 7.06592 120.97Z" fill="black"/>
<path opacity="0.2" d="M46.7375 150.722L26.5788 139.13L6.54938 127.539C3.70649 125.993 4.09416 123.16 7.32472 121.228L14.5612 116.462C17.7917 114.659 22.7022 114.402 25.4158 116.076L45.5745 127.668L65.7332 139.259C68.5761 140.805 68.1884 143.638 64.9579 145.57L57.7214 150.335C54.3616 152.139 49.5804 152.267 46.7375 150.722Z" fill="black"/>
</g>
<path d="M52.1644 149.949L14.5607 128.311C10.2963 125.864 6.93656 119.296 6.93656 113.758V8.01745C6.80734 5.18397 4.48134 4.54 5.90278 3.50965C5.90278 3.50965 11.7178 0.547376 11.847 0.547376C13.3977 -0.0965958 15.0776 -0.354185 17.0159 0.804965L54.6196 22.4424C58.8839 24.8895 62.2437 31.458 62.2437 36.9962V142.736C62.2437 145.699 61.2099 147.888 59.7885 148.79C59.6593 148.79 53.1981 152.138 53.0689 152.138C51.7767 152.654 53.9735 150.979 52.1644 149.949Z" fill="url(#paint0_linear)"/>
<path opacity="0.6" d="M49.1926 145.312L11.589 123.675C7.32462 121.228 3.96484 114.659 3.96484 109.121V9.30542C3.96484 3.63847 7.45384 1.06258 11.589 3.50967L49.1926 25.1471C53.457 27.5942 56.8168 34.1627 56.8168 39.7009V139.388C56.8168 145.183 53.457 147.759 49.1926 145.312Z" fill="url(#paint1_radial)"/>
<path d="M48.5481 151.623L10.9444 129.986C6.68009 127.539 3.32031 120.97 3.32031 115.432V9.69183C3.32031 4.02488 6.68009 1.44899 10.9444 3.89608L48.5481 25.5335C52.8124 27.9806 56.1722 34.5491 56.1722 40.0873V145.827C56.1722 151.494 52.8124 154.07 48.5481 151.623Z" fill="white"/>
<path d="M4.35254 116.076V10.2071C4.35254 5.31293 7.32465 2.99463 11.0721 5.18414L48.4173 26.6928C52.1648 28.8823 55.1369 34.5493 55.1369 39.4434V145.312C55.1369 150.207 52.1648 152.525 48.4173 150.335L11.0721 128.827C7.32465 126.766 4.35254 120.97 4.35254 116.076Z" fill="url(#paint2_linear)"/>
<path d="M5.77344 110.667V11.3663C5.77344 7.24489 8.35788 5.31298 11.4592 7.1161L48.0291 28.1096C51.1305 29.9127 53.7149 34.6781 53.7149 38.7995V138.1C53.7149 142.221 51.1305 144.153 48.0291 142.35L11.4592 121.357C8.35788 119.554 5.77344 114.788 5.77344 110.667Z" fill="url(#paint3_linear)"/>
<path d="M11.8479 8.14616C9.00503 6.47183 6.5498 7.88857 6.5498 11.2372V111.697C6.5498 115.046 8.87581 119.167 11.8479 120.841L47.5133 141.448C50.4854 143.123 52.8114 141.835 52.8114 138.486V38.0265C52.8114 34.6778 50.4854 30.5564 47.5133 28.8821L11.8479 8.14616Z" fill="#BCBEC0"/>
<path opacity="0.5" d="M57.7227 67.5205V56.8306C57.7227 55.4138 58.498 53.8683 59.5318 53.3531C60.5655 52.7091 61.3409 53.3531 61.3409 54.7699V65.4598C61.3409 66.8765 60.5655 68.4221 59.5318 68.9372C58.498 69.4524 57.7227 68.8084 57.7227 67.5205Z" fill="url(#paint4_linear)"/>
<path d="M58.7558 68.6797C58.2389 68.6797 57.9805 68.0357 57.9805 67.5205V56.8306C57.9805 55.6714 58.7558 54.1259 59.6604 53.6107C59.7896 53.4819 60.048 53.4819 60.1772 53.4819C60.6941 53.4819 60.9526 54.1259 60.9526 54.6411V65.331C60.9526 66.4902 60.1772 68.0357 59.2727 68.5509C59.1435 68.6797 58.885 68.6797 58.7558 68.6797Z" fill="url(#paint5_linear)"/>
<path d="M58.6263 67.7781V57.0882C58.6263 55.929 59.4016 54.3835 60.3062 53.8683C60.4354 53.7395 60.6938 53.7395 60.823 53.7395C60.6938 53.6107 60.5646 53.4819 60.3062 53.4819C60.1769 53.4819 59.9185 53.4819 59.7893 53.6107C58.8847 54.1259 58.1094 55.5426 58.1094 56.8306V67.5205C58.1094 68.0357 58.2386 68.6797 58.8847 68.6797C58.6263 68.4221 58.6263 68.0357 58.6263 67.7781Z" fill="url(#paint6_radial)"/>
<path d="M52.4234 138.357C52.4234 139.388 52.165 140.289 51.7773 140.804C51.3896 141.32 50.7435 141.577 49.9682 141.577C49.3221 141.577 48.5468 141.32 47.7714 140.933L12.1061 120.326C9.26318 118.652 7.06641 114.788 7.06641 111.568V11.1085C7.06641 9.04776 7.97096 7.88861 9.52163 7.88861C10.1677 7.88861 10.9431 8.1462 11.7184 8.53258L47.3838 29.1397C50.2266 30.814 52.4234 34.6778 52.4234 37.8977V138.357Z" fill="url(#paint7_linear)"/>
<defs>
<linearGradient id="paint0_linear" x1="62.2437" y1="152.235" x2="-24.4649" y2="134.212" gradientUnits="userSpaceOnUse">
<stop stop-color="#86E6FF"/>
<stop offset="1" stop-color="#1A68FF"/>
</linearGradient>
<radialGradient id="paint1_radial" cx="0" cy="0" r="1" gradientUnits="userSpaceOnUse" gradientTransform="translate(55.318 33.8536) scale(54.2542 54.0746)">
<stop stop-color="#AF8AFC"/>
<stop offset="1" stop-color="#10054D"/>
</radialGradient>
<linearGradient id="paint2_linear" x1="34.3369" y1="716.525" x2="-371.398" y2="331.297" gradientUnits="userSpaceOnUse">
<stop stop-color="#ABC4FF"/>
<stop offset="1" stop-color="white"/>
</linearGradient>
<linearGradient id="paint3_linear" x1="56.5557" y1="183.277" x2="13.938" y2="9.69086" gradientUnits="userSpaceOnUse">
<stop offset="0.0959596" stop-color="#45108A"/>
<stop offset="1" stop-color="#7C1DC9"/>
</linearGradient>
<linearGradient id="paint4_linear" x1="61.0497" y1="65.2128" x2="52.2025" y2="41.2271" gradientUnits="userSpaceOnUse">
<stop offset="0.0959596" stop-color="#45108A"/>
<stop offset="1" stop-color="#7C1DC9"/>
</linearGradient>
<linearGradient id="paint5_linear" x1="62.4242" y1="61.2043" x2="53.0864" y2="60.8014" gradientUnits="userSpaceOnUse">
<stop stop-color="#9F79C8"/>
<stop offset="0.1409" stop-color="#A27DCA"/>
<stop offset="0.2725" stop-color="#AC88CF"/>
<stop offset="0.4" stop-color="#BC9BD7"/>
<stop offset="0.5202" stop-color="#D1B4E3"/>
<stop offset="0.6493" stop-color="#DBC4E9"/>
<stop offset="0.8997" stop-color="#F4EDF8"/>
<stop offset="1" stop-color="white"/>
</linearGradient>
<radialGradient id="paint6_radial" cx="0" cy="0" r="1" gradientUnits="userSpaceOnUse" gradientTransform="translate(58.3036 57.2582) scale(5.48407 5.4659)">
<stop stop-color="#711F56"/>
<stop offset="0.1614" stop-color="#6C1E52"/>
<stop offset="0.3626" stop-color="#5C1946"/>
<stop offset="0.5849" stop-color="#431233"/>
<stop offset="0.8208" stop-color="#200918"/>
<stop offset="1"/>
</radialGradient>
<linearGradient id="paint7_linear" x1="7.06641" y1="7.88861" x2="88.4165" y2="35.4886" gradientUnits="userSpaceOnUse">
<stop stop-color="#FFB200"/>
<stop offset="1" stop-color="#FF5800"/>
</linearGradient>
</defs>
</svg>
