<svg width="92" height="155" viewBox="0 0 92 155" fill="none" xmlns="http://www.w3.org/2000/svg">
<g opacity="0.2">
<path opacity="0.090909" d="M14.3419 117.746L18.7321 115.325C18.9273 115.228 27.1712 110.723 27.3175 110.82L30.1468 109.415C31.4151 108.689 33.3175 108.446 34.9272 108.446C36.3419 108.446 37.8541 108.882 38.8785 109.464L58.7809 120.701L63.0248 123.123L87.1711 136.783C87.9516 137.218 88.6833 137.897 89.0248 138.575C89.3174 139.108 89.5126 139.689 89.5126 140.319C89.5613 141.917 88.5857 143.419 86.8296 144.436L82.4394 146.858C82.2443 146.955 74.0004 151.459 73.854 151.362L71.0248 152.767C69.7565 153.494 67.854 153.736 66.2443 153.736C64.8297 153.736 63.3175 153.3 62.2931 152.719L42.3907 141.433L38.1468 139.011L14.0004 125.351C13.2199 124.915 12.4882 124.237 12.1468 123.559C11.8541 123.026 11.659 122.445 11.659 121.815C11.6102 120.265 12.5858 118.764 14.3419 117.746Z" fill="black"/>
<path opacity="0.1818" d="M14.7806 118.086L19.0732 115.712C19.4147 115.518 27.1708 111.45 27.4635 111.643L30.244 110.529C31.4147 109.851 33.4147 109.803 34.8781 109.803C36.1464 109.803 37.7561 110.336 38.683 110.868L58 121.815L62.0976 124.14L85.5122 137.412C86.1951 137.8 87.0244 138.526 87.3659 139.156C87.6585 139.689 87.8537 140.222 87.9024 140.803C88 142.305 87.0732 143.806 85.3171 144.775L81.0244 147.148C80.6829 147.342 72.9268 151.411 72.6342 151.217L69.8537 152.331C68.6829 153.009 66.6829 153.058 65.2195 153.058C63.9512 153.058 62.3415 152.525 61.4147 151.992L42.0976 141.045L38 138.72L14.5854 125.448C13.9025 125.061 13.0732 124.334 12.7318 123.704C12.4391 123.172 12.244 122.639 12.1952 122.057C12.1464 120.556 13.0732 119.103 14.7806 118.086Z" fill="black"/>
<path opacity="0.2727" d="M15.2194 118.473L19.3658 116.196C19.9023 115.906 27.1218 112.273 27.5609 112.564L30.2438 111.692C31.2682 111.11 33.4145 111.256 34.6828 111.256C35.8048 111.256 37.5121 111.885 38.3413 112.37L57.073 122.978L61.073 125.254L83.7559 138.139C84.3901 138.478 85.2681 139.253 85.5608 139.786C85.8535 140.27 86.0974 140.803 86.1462 141.336C86.2925 142.789 85.4145 144.242 83.7072 145.211L79.5608 147.487C79.0242 147.778 71.8047 151.411 71.3657 151.12L68.6828 151.992C67.6584 152.573 65.5121 152.428 64.2438 152.428C63.1218 152.428 61.4145 151.798 60.5852 151.314L41.8535 140.706L37.8535 138.429L15.1706 125.545C14.5365 125.206 13.6584 124.431 13.3658 123.898C13.0731 123.414 12.8292 122.881 12.7804 122.348C12.6341 120.846 13.5121 119.442 15.2194 118.473Z" fill="black"/>
<path opacity="0.3636" d="M15.6588 118.812L19.7075 116.632C20.4393 116.245 27.1222 113.048 27.7075 113.387L30.2929 112.757C31.1709 112.225 33.4149 112.612 34.5856 112.612C35.5612 112.612 37.4148 113.339 38.0978 113.775L56.2441 124.043L60.0977 126.223L82.0977 138.72C82.6343 139.011 83.6099 139.834 83.9026 140.27C84.1953 140.754 84.4392 141.239 84.5368 141.772C84.7319 143.176 83.9026 144.581 82.1953 145.501L78.1465 147.681C77.4148 148.068 70.7319 151.265 70.1465 150.926L67.5612 151.556C66.6831 152.089 64.4392 151.701 63.2685 151.701C62.2929 151.701 60.4392 150.975 59.7563 150.539L41.61 140.27L37.7563 138.09L15.7563 125.593C15.2197 125.303 14.2441 124.479 13.9515 124.043C13.6588 123.559 13.4149 123.075 13.3173 122.542C13.171 121.137 14.0002 119.781 15.6588 118.812Z" fill="black"/>
<path opacity="0.4545" d="M16.0976 119.151L20.0488 117.068C20.9268 116.536 27.122 113.823 27.9025 114.259L30.3903 113.871C31.1707 113.435 33.5122 113.968 34.4878 113.968C35.3171 113.968 37.2683 114.792 37.8537 115.179L55.4146 125.157L59.1707 127.289L80.439 139.398C80.9268 139.689 81.9512 140.464 82.1951 140.851C82.4878 141.287 82.7804 141.723 82.878 142.256C83.1219 143.564 82.3414 144.92 80.6829 145.889L76.7317 147.972C75.8536 148.504 69.6585 151.217 68.878 150.781L66.3902 151.169C65.6097 151.604 63.2683 151.072 62.2927 151.072C61.4634 151.072 59.5122 150.248 58.9268 149.861L41.3659 139.883L37.6098 137.751L16.3415 125.642C15.8537 125.351 14.8293 124.576 14.5854 124.189C14.2927 123.753 14 123.317 13.9025 122.784C13.7073 121.428 14.4878 120.071 16.0976 119.151Z" fill="black"/>
<path opacity="0.5455" d="M16.5367 119.49L20.3416 117.504C21.4148 116.875 27.0245 114.598 28.0001 115.131L30.4392 115.034C31.0733 114.646 33.5611 115.421 34.3904 115.421C35.1221 115.421 37.1221 116.39 37.6099 116.681L54.5855 126.32L58.1952 128.354L78.7806 140.076C79.1708 140.318 80.2928 141.142 80.5367 141.433C80.8781 141.868 81.1708 142.256 81.2684 142.74C81.5611 144 80.8294 145.308 79.2196 146.228L75.4147 148.214C74.3416 148.844 68.7318 151.12 67.7562 150.587L65.3172 150.684C64.683 151.072 62.1952 150.297 61.366 150.297C60.6343 150.297 58.6343 149.328 58.1465 149.037L41.1709 139.398L37.5611 137.364L16.9758 125.642C16.5855 125.4 15.4636 124.576 15.2197 124.286C14.8782 123.85 14.5855 123.462 14.488 122.978C14.1953 121.767 14.927 120.411 16.5367 119.49Z" fill="black"/>
<path opacity="0.6364" d="M16.9758 119.829L20.6831 117.892C21.9514 117.165 27.0246 115.325 28.1465 115.906L30.488 116.051C31.0246 115.76 33.6099 116.729 34.2441 116.729C34.8294 116.729 36.927 117.795 37.3172 117.989L53.7075 127.337L57.2197 129.323L77.0733 140.657C77.366 140.851 78.5855 141.675 78.7806 141.917C79.1221 142.353 79.4148 142.692 79.5611 143.128C79.9026 144.339 79.2197 145.598 77.6099 146.518L73.9026 148.456C72.6343 149.183 67.5611 151.023 66.4392 150.442L64.0977 150.297C63.5611 150.587 60.9758 149.618 60.3416 149.618C59.7562 149.618 57.6587 148.553 57.2684 148.359L40.8782 139.011L37.366 137.025L17.5612 125.739C17.2685 125.545 16.049 124.721 15.8538 124.431C15.5124 123.995 15.2197 123.656 15.0734 123.22C14.7319 122.057 15.4148 120.75 16.9758 119.829Z" fill="black"/>
<path opacity="0.7273" d="M17.4141 120.168L20.9751 118.328C22.3897 117.504 26.9751 116.051 28.2434 116.778L30.4873 117.165C30.8775 116.923 33.6092 118.085 34.097 118.085C34.5361 118.085 36.7312 119.248 37.0726 119.393L52.8775 128.403L56.2434 130.34L75.4141 141.287C75.658 141.432 77.0238 142.256 77.1214 142.498C77.5116 142.837 77.8043 143.225 77.9507 143.661C78.3409 144.775 77.7068 146.034 76.1458 146.954L72.5848 148.795C71.1702 149.618 66.5848 151.072 65.3165 150.345L63.0726 149.957C62.6824 150.2 59.9507 149.037 59.4629 149.037C59.0238 149.037 56.8287 147.875 56.4873 147.729L40.6824 138.72L37.3165 136.782L18.1458 125.835C17.9019 125.69 16.5361 124.867 16.4385 124.624C16.0483 124.285 15.7556 123.898 15.6093 123.462C15.219 122.348 15.8532 121.089 17.4141 120.168Z" fill="black"/>
<path opacity="0.8182" d="M17.8541 120.556L21.3175 118.812C22.9272 117.892 26.976 116.875 28.3907 117.698L30.537 118.328C30.7809 118.182 33.6589 119.539 33.9516 119.539C34.2443 119.539 36.5858 120.798 36.7809 120.895L52.0004 129.565L55.2199 131.406L73.6589 141.965C73.8052 142.062 75.2687 142.934 75.3174 143.08C75.7565 143.37 76.0004 143.758 76.1955 144.145C76.6345 145.211 76.0491 146.422 74.4882 147.294L71.0248 149.037C69.415 149.958 65.3662 150.975 63.9516 150.151L61.8053 149.522C61.5614 149.667 58.6833 148.311 58.3906 148.311C58.0979 148.311 55.7565 147.051 55.5614 146.955L40.3419 138.284L37.1224 136.444L18.6833 125.884C18.537 125.787 17.0736 124.915 17.0248 124.77C16.5858 124.479 16.3419 124.092 16.1468 123.704C15.7565 122.639 16.3419 121.428 17.8541 120.556Z" fill="black"/>
<path opacity="0.9091" d="M18.2927 120.895L21.6098 119.248C23.4147 118.231 26.9269 117.65 28.4878 118.57L30.5854 119.442C30.7317 119.345 33.6586 120.943 33.8537 120.943C34 120.943 36.439 122.3 36.5366 122.348L51.1707 130.728L54.2927 132.52L72.0488 142.692C72.1463 142.74 73.6585 143.661 73.7073 143.709C74.1463 144 74.439 144.339 74.6341 144.678C75.1219 145.695 74.5853 146.858 73.0732 147.729L69.7561 149.376C67.9512 150.394 64.439 150.975 62.878 150.055L60.7805 149.183C60.6341 149.28 57.7073 147.681 57.5122 147.681C57.3658 147.681 54.9268 146.325 54.8293 146.276L40.1951 137.897L37.0732 136.104L19.3171 125.932C19.2195 125.884 17.7073 124.964 17.6586 124.915C17.2195 124.625 16.9269 124.286 16.7317 123.947C16.2927 122.929 16.8293 121.718 18.2927 120.895Z" fill="black"/>
<path opacity="0.2" d="M61.5611 149.861L39.9026 137.461L18.2441 125.061C16.5367 124.092 16.7319 122.348 18.7319 121.234L21.9514 119.684C23.9026 118.57 26.927 118.425 28.6343 119.393L50.2928 131.793L71.9513 144.193C73.6586 145.162 73.4635 146.906 71.4635 148.02L68.244 149.57C66.244 150.733 63.2684 150.878 61.5611 149.861Z" fill="black"/>
</g>
<path d="M63.8037 146.809L24.9745 124.528C20.5843 122.009 17.0233 115.276 17.0233 109.464V6.77536C17.0233 3.82066 14.5843 3.19096 16.0477 2.12533C16.0965 2.07689 19.5111 0.526884 19.6087 0.526884C21.2184 -0.102807 22.9257 -0.344996 24.9745 0.817511L63.8037 23.0989C68.194 25.6177 71.755 32.3505 71.755 38.1631V140.851C71.755 143.951 70.7306 146.131 69.1696 147.148C69.072 147.197 64.9745 149.134 64.8769 149.183C63.4135 149.618 65.7062 147.923 63.8037 146.809Z" fill="url(#paint0_linear)"/>
<path d="M63.4633 23.1959L24.5853 0.962888C22.5366 -0.19962 61.2682 23.9224 61.2682 23.9224C65.6585 26.4412 69.2194 33.174 69.2194 38.9866C69.2194 38.9866 71.3658 144.048 71.3658 140.997V38.26C71.3658 32.4475 67.8048 25.7146 63.4633 23.1959Z" fill="url(#paint1_linear)"/>
<path opacity="0.6" d="M60.7795 148.165L21.9502 125.884C17.56 123.365 13.999 116.632 13.999 110.82V8.13157C13.999 2.36747 17.56 -0.34505 21.9502 2.17372L60.7795 24.4551C65.1697 26.9739 68.7307 33.7067 68.7307 39.5193V142.207C68.7307 148.02 65.1697 150.684 60.7795 148.165Z" fill="url(#paint2_linear)"/>
<path d="M60.0969 148.553L21.2676 126.271C16.8774 123.753 13.3164 117.02 13.3164 111.207V8.5191C13.3164 2.70656 16.8774 0.0424832 21.2676 2.56125L60.0969 24.8426C64.4871 27.3614 68.0481 34.0943 68.0481 39.9068V142.595C67.9993 148.408 64.4871 151.072 60.0969 148.553Z" fill="#D4ECFF"/>
<path d="M14.3896 111.885V9.05193C14.3896 3.96596 17.5116 1.64094 21.3653 3.86908L59.9994 26.0052C63.853 28.1849 66.975 34.0943 66.975 39.1802V142.014C66.975 147.1 63.853 149.425 59.9994 147.245L21.3653 125.109C17.5116 122.881 14.3896 116.971 14.3896 111.885Z" fill="url(#paint3_linear)"/>
<path d="M15.9502 112.515V10.2144C15.9502 5.9519 18.5356 4.01439 21.7551 5.85503L59.5599 27.5552C62.7794 29.3958 65.3648 34.3365 65.3648 38.599V140.9C65.3648 145.162 62.7794 147.1 59.5599 145.259L21.7551 123.559C18.5356 121.718 15.9502 116.778 15.9502 112.515Z" fill="url(#paint4_linear)"/>
<path d="M22.1949 6.96916C19.1705 5.2254 16.7314 6.6301 16.7314 10.0692V113.532C16.7314 116.971 19.1705 121.186 22.1949 122.929L59.1216 144.097C62.146 145.84 64.585 144.436 64.585 140.997V37.5334C64.585 34.0943 62.146 29.8802 59.1216 28.1365L22.1949 6.96916Z" fill="url(#paint5_linear)"/>
<path d="M69.0732 63.6413V56.7147C69.0732 55.8429 69.6098 54.7772 70.2928 54.4382C70.9757 54.0507 71.5123 54.4382 71.5123 55.3585V62.2851C71.5123 63.157 70.9757 64.2226 70.2928 64.5617C69.6098 64.9492 69.0732 64.5132 69.0732 63.6413Z" fill="url(#paint6_linear)"/>
<path d="M69.8052 64.4163C69.4637 64.4163 69.3174 63.9804 69.3174 63.6413V56.7147C69.3174 55.9397 69.8052 54.9709 70.3905 54.6319C70.5369 54.5834 70.6344 54.535 70.732 54.535C71.0735 54.535 71.2198 54.9709 71.2198 55.31V62.2366C71.2198 63.0116 70.732 63.9804 70.1466 64.3194C70.0003 64.4163 69.9027 64.4163 69.8052 64.4163Z" fill="url(#paint7_linear)"/>
<path d="M69.7076 63.835V56.9084C69.7076 56.1334 70.1954 55.1647 70.7808 54.8256C70.8784 54.7772 70.9759 54.7287 71.0735 54.7287C70.9759 54.6318 70.8784 54.535 70.732 54.535C70.6344 54.535 70.4881 54.5834 70.3905 54.6319C69.8052 54.9709 69.3174 55.9397 69.3174 56.7147V63.6413C69.3174 64.0288 69.4637 64.4163 69.8052 64.4163H69.854C69.7076 64.271 69.7076 64.0288 69.7076 63.835Z" fill="url(#paint8_linear)"/>
<path d="M40.8775 88.4416C32.9263 83.8884 26.4873 87.5697 26.4873 96.5791C26.4873 105.589 32.9263 116.681 40.8775 121.234C48.8287 125.787 55.2678 122.106 55.2678 113.096C55.2678 104.087 48.78 92.9947 40.8775 88.4416Z" fill="#B086CC"/>
<path d="M43.8044 120.12C35.8532 115.567 29.4141 104.523 29.4141 95.4651C29.4141 91.2025 30.8288 88.151 33.1702 86.601C29.1702 87.2306 26.4873 90.815 26.4873 96.6276C26.4873 105.685 32.9263 116.729 40.8775 121.282C45.0727 123.704 48.8775 123.801 51.5117 122.009C49.2678 122.3 46.6336 121.767 43.8044 120.12Z" fill="#B086CC"/>
<path d="M55.1716 113.193C55.1716 104.135 48.7326 93.0916 40.7814 88.5384C37.5619 86.6978 34.5863 86.2134 32.196 86.8915C31.318 87.1337 12.7814 96.0463 12.0985 96.4338C9.5619 97.9354 7.95215 101.084 7.95215 105.54C7.95215 114.598 14.3912 125.642 22.3424 130.195C25.9034 132.229 29.1229 132.617 31.6594 131.6C32.2448 131.357 50.4399 122.639 51.1716 122.203C53.6594 120.75 55.1716 117.601 55.1716 113.193Z" fill="url(#paint9_linear)"/>
<path opacity="0.7273" d="M38.8293 121.04C38.8293 111.982 32.3903 100.938 24.4391 96.3849C21.2196 94.5442 18.244 94.0599 15.8537 94.6896C14.9757 94.9318 11.9025 96.288 11.2196 96.7239C8.683 98.2255 7.07324 101.374 7.07324 105.83C7.07324 114.888 13.5123 125.932 21.4635 130.485C25.0244 132.519 28.244 132.907 30.7805 131.89C31.3659 131.648 34.0976 130.485 34.8293 130.049C37.2683 128.548 38.8293 125.448 38.8293 121.04Z" fill="url(#paint10_linear)"/>
<path opacity="0.7521" d="M10.8296 97.5488C8.68323 99.341 7.12225 102.247 7.17103 106.51C7.36616 115.374 13.7076 126.03 21.4637 130.486C25.2198 132.618 28.6344 132.957 31.0735 131.649C31.7076 131.31 34.1954 129.954 34.8783 129.372C37.0247 127.58 38.4881 124.674 38.3905 120.46C38.1954 111.596 31.8539 100.939 24.0978 96.4831C20.6832 94.5456 17.5613 94.1097 15.171 95.03C14.293 95.4175 11.5125 96.9675 10.8296 97.5488Z" fill="url(#paint11_linear)"/>
<path opacity="0.7769" d="M10.4388 98.3715C8.63387 100.357 7.12168 103.07 7.3168 107.236C7.70705 115.906 13.9022 126.175 21.4631 130.534C25.4143 132.811 29.0241 133.053 31.4143 131.406C32.0973 130.922 34.2924 129.469 34.9753 128.742C36.7802 126.805 38.1948 124.044 37.9997 119.975C37.6095 111.304 31.3656 101.036 23.8534 96.6762C20.2924 94.6418 16.9753 94.2543 14.5851 95.4652C13.6583 95.9012 11.1217 97.5965 10.4388 98.3715Z" fill="url(#paint12_linear)"/>
<path opacity="0.8017" d="M10.0481 99.2434C8.19448 100.987 7.12131 103.99 7.414 107.962C7.95058 116.439 14.0969 126.32 21.4628 130.534C25.5603 132.908 29.3652 133.053 31.7554 131.116C32.4871 130.534 34.4384 128.936 35.1213 128.015C36.6335 125.981 37.9506 123.269 37.7066 119.394C37.1701 110.917 31.0237 100.987 23.6579 96.7731C19.9018 94.5934 16.4384 94.3512 14.0481 95.8043C12.975 96.3856 10.5847 98.0809 10.0481 99.2434Z" fill="url(#paint13_linear)"/>
<path opacity="0.8264" d="M9.70773 100.067C8.09797 101.907 7.21992 104.862 7.56139 108.64C8.29309 116.923 14.2931 126.417 21.4638 130.534C25.7565 133.004 29.7077 133.004 32.098 130.825C32.8784 130.098 34.537 128.451 35.2199 127.289C36.4394 125.206 37.6589 122.542 37.3175 118.812C36.5858 110.529 30.537 100.987 23.3663 96.8698C19.415 94.5932 15.8053 94.4479 13.415 96.1432C12.3419 96.8698 10.1468 98.662 9.70773 100.067Z" fill="url(#paint14_linear)"/>
<path opacity="0.8512" d="M9.31683 100.89C7.9022 102.828 7.21927 105.734 7.65829 109.318C8.58512 117.407 14.4876 126.514 21.4632 130.534C25.951 133.101 30.0485 133.004 32.39 130.534C33.1705 129.711 34.6339 127.967 35.268 126.611C36.2924 124.479 37.268 121.815 36.8778 118.279C35.951 110.142 30.0485 101.035 23.0729 97.0151C18.9266 94.6417 15.1705 94.5932 12.7802 96.4823C11.7071 97.3542 9.70707 99.2433 9.31683 100.89Z" fill="url(#paint15_linear)"/>
<path opacity="0.876" d="M8.92687 101.714C7.75614 103.748 7.26833 106.557 7.75614 109.996C8.92687 117.892 14.683 126.611 21.4147 130.534C26.0976 133.247 30.3415 133.004 32.6829 130.243C33.5122 129.275 34.7805 127.434 35.3171 125.884C36.0976 123.704 36.9268 121.04 36.439 117.65C35.2683 109.706 29.5122 100.987 22.7317 97.112C18.4391 94.6416 14.5366 94.6416 12.0976 96.8213C11.0244 97.8385 9.26833 99.8245 8.92687 101.714Z" fill="url(#paint16_linear)"/>
<path opacity="0.9008" d="M8.58478 102.537C7.99942 104.765 7.36527 107.429 7.90186 110.675C9.26771 118.425 14.8775 126.708 21.4628 130.486C26.3409 133.295 30.7311 132.908 33.0726 129.904C33.9506 128.79 34.975 126.901 35.5116 125.158C36.1457 122.978 36.7311 120.314 36.1457 117.068C34.7799 109.318 29.1701 100.987 22.5848 97.2089C18.097 94.6417 14.0482 94.787 11.6092 97.1605C10.3897 98.323 9.12137 100.503 8.58478 102.537Z" fill="url(#paint17_linear)"/>
<path opacity="0.9256" d="M8.1958 103.36C7.75677 105.589 7.36653 108.301 8.00068 111.353C9.56165 118.909 15.0738 126.853 21.4641 130.486C26.5372 133.392 31.0738 132.908 33.3665 129.614C34.2446 128.354 35.1714 126.417 35.5616 124.431C36.0007 122.203 36.3421 119.539 35.708 116.487C34.147 108.979 28.6836 100.987 22.2446 97.3542C17.5616 94.6901 13.3665 94.9323 10.9275 97.5479C9.75677 98.8073 8.63482 101.035 8.1958 103.36Z" fill="url(#paint18_linear)"/>
<path opacity="0.9504" d="M7.80494 104.184C7.51226 106.461 7.41469 109.125 8.1464 112.031C9.95128 119.393 15.2683 126.95 21.4635 130.486C26.7318 133.489 31.3659 132.859 33.7074 129.323C34.6342 127.967 35.3659 125.933 35.6586 123.753C35.9513 121.476 36.0488 118.812 35.3171 115.954C33.5122 108.592 28.1952 100.987 21.9513 97.4511C17.0732 94.6417 12.7805 95.0292 10.2927 97.8871C9.12201 99.3402 8.1464 101.617 7.80494 104.184Z" fill="url(#paint19_linear)"/>
<path opacity="0.9752" d="M7.41402 105.007C7.26768 107.381 7.4628 109.996 8.24329 112.757C10.2921 119.926 15.4628 127.095 21.4628 130.534C26.9262 133.683 31.7067 132.859 34.0481 129.081C34.975 127.579 35.6091 125.497 35.7555 123.075C35.9018 120.75 35.7067 118.134 34.9262 115.422C32.8774 108.253 27.7067 101.035 21.7067 97.5964C16.6823 94.6901 12.1945 95.1745 9.7067 98.2261C8.43841 99.8245 7.60914 102.198 7.41402 105.007Z" fill="url(#paint20_linear)"/>
<path d="M21.4635 97.6927C13.5123 93.1395 7.07324 96.8208 7.07324 105.83C7.07324 114.84 13.5123 125.932 21.4635 130.485C29.4147 135.038 35.8537 131.357 35.8537 122.348C35.8537 113.338 29.4147 102.246 21.4635 97.6927Z" fill="url(#paint21_linear)"/>
<path d="M21.2182 118.279C23.1694 119.393 24.7792 118.473 24.7792 116.245V109.997C24.7792 107.768 23.1694 105.007 21.2182 103.893C19.267 102.779 17.6572 103.7 17.6572 105.928V112.176C17.6572 114.404 19.267 117.165 21.2182 118.279Z" fill="white"/>
<path d="M26.4384 114.986C26.097 114.792 25.8531 114.937 25.8531 115.325V116.875C25.8531 119.781 23.7555 120.944 21.2189 119.49C18.6824 118.037 16.5848 114.453 16.5848 111.595V110.045C16.5848 109.658 16.3409 109.222 15.9994 109.028C15.658 108.834 15.4141 108.979 15.4141 109.367V110.917C15.4141 114.211 17.5604 118.183 20.3409 120.265V123.269C19.658 123.172 19.1702 123.608 19.1702 124.431L23.3165 126.804C23.3165 125.981 22.8287 125.012 22.1458 124.286V121.283C24.9262 122.397 27.0726 120.895 27.0726 117.553V116.003C27.0726 115.615 26.7799 115.179 26.4384 114.986Z" fill="white"/>
<path d="M54.9743 31.9147L59.6572 34.6272C59.8523 34.7241 59.9987 34.6272 59.9987 34.4334C59.9987 34.2397 59.8523 33.9975 59.6572 33.9006L54.9743 31.1881C54.7792 31.0912 54.6328 31.1881 54.6328 31.3818C54.6328 31.5272 54.7792 31.8178 54.9743 31.9147ZM59.6572 35.4991L54.9743 32.7865C54.7792 32.6897 54.6328 32.7865 54.6328 32.9803C54.6328 33.174 54.7792 33.4162 54.9743 33.5131L59.6572 36.2256C59.8523 36.3225 59.9987 36.2256 59.9987 36.0319C59.9987 35.8866 59.8523 35.5959 59.6572 35.4991ZM59.6572 37.1944L54.9743 34.4819C54.7792 34.385 54.6328 34.4819 54.6328 34.6756C54.6328 34.8694 54.7792 35.1116 54.9743 35.2084L59.6572 37.9209C59.8523 38.0178 59.9987 37.9209 59.9987 37.7272C59.9987 37.5334 59.8523 37.2913 59.6572 37.1944Z" fill="white"/>
<path d="M26.145 15.7848C26.145 16.2692 25.8035 16.4629 25.3645 16.2207C24.9254 15.9786 24.584 15.3489 24.584 14.8645C24.584 14.3801 24.9254 14.1864 25.3645 14.4285C25.8035 14.6707 26.145 15.3004 26.145 15.7848Z" fill="white"/>
<path d="M23.8041 14.4285C23.8041 14.9129 23.4627 15.1067 23.0237 14.8645C22.5846 14.6223 22.2432 13.9926 22.2432 13.5082C22.2432 13.0238 22.5846 12.8301 23.0237 13.0723C23.4627 13.3145 23.8041 13.9442 23.8041 14.4285Z" fill="white"/>
<path d="M21.4135 13.0723C21.4135 13.5567 21.072 13.7504 20.633 13.5082C20.194 13.266 19.8525 12.6363 19.8525 12.152C19.8525 11.6676 20.194 11.4738 20.633 11.716C21.072 11.9582 21.4135 12.5395 21.4135 13.0723Z" fill="white"/>
<path opacity="0.5" d="M39.9504 21.3552C36.7309 19.5146 34.1455 20.9677 34.1455 24.649C34.1455 28.1365 36.5357 32.3506 39.5114 34.2881V37.5334L41.9992 35.3053C44.1455 35.5959 45.7065 34.0943 45.7065 31.285C45.7553 27.6521 43.1699 23.1958 39.9504 21.3552ZM38.4382 24.4068C38.4382 23.438 39.1211 23.0505 39.9504 23.5349C40.7796 24.0193 41.4626 25.1818 41.4626 26.1505V28.8146C41.4626 29.7834 40.7796 30.1709 39.9504 29.6865C39.1211 29.2021 38.4382 28.0396 38.4382 27.0709V24.4068ZM42.4382 29.3474C42.4382 30.7521 41.5114 31.3818 40.3406 30.9459V32.2053C40.6333 32.4959 40.8284 32.9318 40.8284 33.2709L39.0723 32.2537C39.0723 31.9146 39.2675 31.7209 39.5601 31.7693V30.5099C38.3894 29.6381 37.4626 27.9427 37.4626 26.538V25.8599C37.4626 25.7146 37.5601 25.6177 37.7065 25.7146C37.8528 25.8115 37.9504 26.0052 37.9504 26.1505V26.8287C37.9504 28.0881 38.8284 29.5896 39.9016 30.2193C40.9748 30.849 41.8528 30.3646 41.8528 29.1053V28.4271C41.8528 28.2818 41.9504 28.1849 42.0967 28.2818C42.2431 28.3787 42.3406 28.5724 42.3406 28.7177V29.3474H42.4382Z" fill="url(#paint22_linear)"/>
<path d="M34.488 25.3271C34.488 21.6943 37.0734 20.2411 40.2929 22.0333C42.1465 23.099 43.8051 25.0365 44.8782 27.2162C43.8538 24.7943 42.049 22.5661 40.0002 21.3552C36.7807 19.5146 34.1953 20.9677 34.1953 24.649C34.1953 26.1505 34.6343 27.8459 35.4148 29.3959C34.8295 28.0396 34.488 26.6349 34.488 25.3271Z" fill="url(#paint23_radial)"/>
<g opacity="0.3">
<path opacity="0.090909" d="M1.26855 24.3582V28.7176C1.26855 28.766 1.26855 31.527 1.31734 31.5754C1.80514 34.9661 3.80514 39.0833 6.78074 40.827L47.171 64.1741L50.049 70.4225L52.7319 67.9038L55.4636 69.1147C55.6587 69.2116 55.9027 69.3569 56.049 69.4053C58.9758 70.6647 62.0978 69.1147 62.0978 65.8209V61.3647C62.0978 61.3162 62.0978 58.6522 62.0978 58.6037C61.6587 55.2131 58.488 51.2412 55.5124 49.5458L6.78074 21.2582C3.70758 19.5144 1.26855 20.9191 1.26855 24.3582Z" fill="url(#paint24_linear)"/>
<path opacity="0.1818" d="M1.12207 24.4552V28.7177C1.12207 28.863 1.17085 31.3818 1.17085 31.5271C1.65866 34.8209 3.65865 38.8412 6.58548 40.5365L46.6342 63.6414L49.8049 69.5992L52.5366 67.5164L55.2196 68.7758C55.3659 68.8727 55.6586 69.018 55.8049 69.0664C58.7318 70.3258 61.8049 68.8242 61.8049 65.5789V61.2195C61.8049 61.1226 61.7562 58.6523 61.7562 58.5554C61.2683 55.2132 58.244 51.3866 55.3171 49.6913L6.63426 21.3551C3.60987 19.6114 1.12207 21.0161 1.12207 24.4552Z" fill="url(#paint25_linear)"/>
<path opacity="0.2727" d="M1.02539 24.5521V28.7178C1.02539 28.9115 1.07417 31.2365 1.12295 31.4787C1.65954 34.7241 3.65953 38.5991 6.4888 40.1975L46.1473 63.1086L49.5619 68.7759L52.3424 67.129L55.0253 68.3884C55.1717 68.4852 55.4644 68.6306 55.6107 68.679C58.5375 69.9868 61.5131 68.4852 61.5131 65.2399V60.9774C61.5131 60.7836 61.4644 58.5555 61.4644 58.3617C60.9766 55.1164 58.0497 51.3867 55.2205 49.7398L6.4888 21.4521C3.46441 19.7568 1.02539 21.113 1.02539 24.5521Z" fill="url(#paint26_linear)"/>
<path opacity="0.3636" d="M0.926758 24.649V28.7177C0.926758 28.9599 0.975538 31.0912 1.02432 31.3818C1.5609 34.5303 3.5609 38.26 6.34139 39.8584L45.6584 62.5758L49.3657 67.9039L52.1462 66.693L54.7804 67.9524C54.9267 68.0493 55.2194 68.1946 55.3657 68.243C58.2926 69.5508 61.1706 68.1461 61.1706 64.8524V60.7351C61.1706 60.493 61.1218 58.4586 61.073 58.2164C60.5365 55.0195 57.756 51.3866 54.9755 49.7882L6.34139 21.5974C3.36578 19.8536 0.926758 21.2583 0.926758 24.649Z" fill="url(#paint27_linear)"/>
<path opacity="0.4545" d="M0.829102 24.7457V28.6692C0.829102 29.0083 0.926662 30.9458 0.975443 31.2848C1.56081 34.3849 3.51203 37.9693 6.24373 39.5193L45.1705 61.9944L49.1217 67.032L51.951 66.257L54.5364 67.5648C54.6339 67.6132 55.0242 67.807 55.1217 67.8554C58.0486 69.2117 60.829 67.807 60.829 64.5132V60.4929C60.829 60.2022 60.7803 58.3616 60.7315 58.0225C60.1949 54.9225 57.512 51.3865 54.7803 49.8365L6.19495 21.6942C3.21934 19.9988 0.829102 21.3551 0.829102 24.7457Z" fill="url(#paint28_linear)"/>
<path opacity="0.5455" d="M0.731445 24.8425V28.6691C0.731445 29.0566 0.829006 30.8004 0.877787 31.1879C1.46315 34.2395 3.46315 37.6786 6.04851 39.1801L44.6338 61.4615L48.8777 66.2084L51.7558 65.8694L54.2924 67.1772C54.3899 67.2256 54.7802 67.4194 54.8777 67.4678C57.8046 68.8241 60.4875 67.4678 60.4875 64.2225V60.3475C60.4875 60.0084 60.3899 58.3131 60.3412 57.974C59.7558 54.9224 57.2192 51.5318 54.5851 49.9818L6.04851 21.791C3.12169 20.0956 0.731445 21.4519 0.731445 24.8425Z" fill="url(#paint29_linear)"/>
<path opacity="0.6364" d="M0.584961 24.9395V28.6692C0.584961 29.1051 0.682522 30.6552 0.780083 31.1395C1.41423 34.0942 3.36545 37.4365 5.90203 38.8896L44.1459 60.9772L48.6337 65.3851L51.5605 65.4335L54.0971 66.7413C54.1947 66.7898 54.5849 67.032 54.6337 67.032C57.5605 68.4367 60.1947 67.0804 60.1947 63.8351V60.0569C60.1947 59.621 60.0971 58.1678 60.0483 57.7319C59.463 54.7288 57.0239 51.435 54.4386 49.9818L5.90203 21.8879C2.9752 20.241 0.584961 21.5489 0.584961 24.9395Z" fill="url(#paint30_linear)"/>
<path opacity="0.7273" d="M0.487305 25.0363V28.6692C0.487305 29.202 0.584866 30.5098 0.731207 31.0426C1.36535 33.9489 3.31657 37.0974 5.80437 38.502L43.7068 60.3475L48.4873 64.4647L51.4629 64.9491L53.9507 66.2569C53.9995 66.3054 54.4385 66.5475 54.4873 66.5475C57.4141 67.9522 59.9507 66.6929 59.9507 63.3991V59.7178C59.9507 59.2334 59.8531 57.974 59.7555 57.4897C59.1214 54.5834 56.8287 51.3865 54.3409 49.9334L5.80437 22.0332C2.87755 20.3379 0.487305 21.6941 0.487305 25.0363Z" fill="url(#paint31_linear)"/>
<path opacity="0.8182" d="M0.390625 25.0848V28.6208C0.390625 29.2021 0.488186 30.3161 0.634527 30.9458C1.31745 33.7552 3.21989 36.8068 5.65891 38.1631L43.1711 59.8148L48.1955 63.6413L51.2198 64.5617L53.6589 65.9179C53.7076 65.9179 54.1467 66.2085 54.1954 66.2085C57.1711 67.6132 59.5613 66.4023 59.5613 63.157V59.621C59.5613 59.0882 59.4637 58.0226 59.3662 57.4413C58.732 54.5835 56.5369 51.5319 54.0979 50.1272L5.65891 22.1301C2.73209 20.4832 0.390625 21.7911 0.390625 25.0848Z" fill="url(#paint32_linear)"/>
<path opacity="0.9091" d="M0.292969 25.1816V28.6207C0.292969 29.2504 0.39053 30.1707 0.585651 30.8489C1.26858 33.6098 3.21979 36.5161 5.56126 37.8239L42.7319 59.2819L48.049 62.8178L51.1222 64.1741L53.5124 65.5304L54.049 65.821C57.0246 67.2741 59.3173 66.0632 59.3173 62.8178V59.3787C59.3173 58.7975 59.2197 57.9256 59.0734 57.2959C58.3905 54.4865 56.3417 51.5803 53.9515 50.224L5.51248 22.2269C2.63443 20.58 0.292969 21.8879 0.292969 25.1816Z" fill="url(#paint33_linear)"/>
<path opacity="0.3" d="M5.36599 22.3239C2.48795 20.677 0.146484 21.9848 0.146484 25.2786V28.6208C0.146484 31.9145 2.48795 35.8865 5.36599 37.5333L53.7562 65.4335C56.6342 67.0804 58.9757 65.7726 58.9757 62.4788V59.1366C58.9757 55.8428 56.6342 51.8709 53.7562 50.224L5.36599 22.3239Z" fill="url(#paint34_linear)"/>
</g>
<path opacity="0.8" d="M53.7073 49.8851L5.21951 21.9365C2.34146 20.2411 0 21.5974 0 24.8912V31.1396C0 34.4334 2.34146 38.4053 5.21951 40.0522L44.9268 62.9633L50.5365 71.6821V66.1602L53.756 68.0008C56.6341 69.6477 58.9756 68.3399 58.9756 65.0461V58.7976C58.9268 55.5523 56.5853 51.532 53.7073 49.8851Z" fill="url(#paint35_linear)"/>
<path d="M53.7073 49.8851L5.21951 21.9365C2.34146 20.2411 0 21.5974 0 24.8912V25.3755C0 22.0818 2.34146 20.7739 5.21951 22.4208L53.7073 50.4179C56.5853 52.0648 58.9268 56.0851 58.9268 59.3305V58.8461C58.9268 55.5523 56.5853 51.532 53.7073 49.8851Z" fill="url(#paint36_radial)"/>
<g opacity="0.3">
<path opacity="0.090909" d="M19.2197 60.7834V65.1428C19.2197 65.1912 19.2197 67.9522 19.2685 68.0006C19.7563 71.3913 21.7563 75.5085 24.7319 77.2523L26.2441 77.9304L26.2929 83.4039L34.0002 82.8711L73.4636 105.54C73.6587 105.637 73.9026 105.782 74.0489 105.831C76.9758 107.09 80.0977 105.54 80.0977 102.246V97.7899C80.0977 97.7415 80.0977 95.0774 80.0977 95.0289C79.6587 91.6383 76.488 87.6664 73.5124 85.9711L24.7319 57.635C21.7075 55.8912 19.2197 57.2959 19.2197 60.7834Z" fill="url(#paint37_linear)"/>
<path opacity="0.1818" d="M19.1211 60.8803V65.1428C19.1211 65.2881 19.1699 67.8069 19.1699 67.9522C19.6577 71.246 21.6577 75.2663 24.5845 76.9616L26.0967 77.6398L26.5845 82.8226L34.1455 82.7257L73.2186 105.201C73.3649 105.298 73.6576 105.443 73.804 105.492C76.7308 106.751 79.804 105.249 79.804 102.004V97.6446C79.804 97.5477 79.7552 95.0774 79.7552 94.9805C79.2674 91.6383 76.243 87.8117 73.3162 86.1164L24.5845 57.8287C21.5601 56.0365 19.1211 57.3928 19.1211 60.8803Z" fill="url(#paint38_linear)"/>
<path opacity="0.2727" d="M19.0244 60.9288V65.0944C19.0244 65.2882 19.0732 67.6132 19.122 67.8554C19.6586 71.1007 21.6586 74.9757 24.4878 76.5742L25.9512 77.2523L26.8781 82.1445L34.2439 82.4351L72.9756 104.717C73.1219 104.813 73.4146 104.959 73.561 105.007C76.4878 106.315 79.4634 104.813 79.4634 101.568V97.354C79.4634 97.1602 79.4146 94.9321 79.4146 94.7384C78.9268 91.493 76 87.7633 73.1707 86.1164L24.4878 57.8772C21.4634 56.1334 19.0244 57.5381 19.0244 60.9288Z" fill="url(#paint39_linear)"/>
<path opacity="0.3636" d="M18.8779 61.0257V65.0945C18.8779 65.3367 18.9267 67.4679 18.9755 67.7586C19.5121 70.907 21.5121 74.6367 24.2926 76.2352L25.756 76.9133L27.1218 81.5149L34.3413 82.2415L72.7315 104.329C72.8779 104.426 73.1706 104.571 73.3169 104.62C76.2437 105.928 79.1218 104.523 79.1218 101.229V97.1119C79.1218 96.8697 79.073 94.8353 79.0242 94.5931C78.4876 91.3962 75.7072 87.7634 72.9267 86.1649L24.2926 57.9741C21.317 56.2788 18.8779 57.6351 18.8779 61.0257Z" fill="url(#paint40_linear)"/>
<path opacity="0.4545" d="M18.7803 61.1225V65.046C18.7803 65.385 18.8778 67.3225 18.9266 67.6616C19.512 70.7616 21.4632 74.346 24.1949 75.896L25.6095 76.5742L27.4632 80.9336L34.5364 82.0476L72.5363 103.942C72.6339 103.99 72.9753 104.184 73.1217 104.232C76.0485 105.588 78.829 104.184 78.829 100.89V96.8696C78.829 96.579 78.7802 94.7383 78.7314 94.3993C78.1949 91.2993 75.5119 87.7633 72.7802 86.2133L24.1949 58.0709C21.2193 56.3756 18.7803 57.7319 18.7803 61.1225Z" fill="url(#paint41_linear)"/>
<path opacity="0.5455" d="M18.6826 61.2193V65.0459C18.6826 65.4334 18.7802 67.1772 18.829 67.5647C19.4143 70.5678 21.4143 74.0553 23.9997 75.5569L25.4143 76.235L27.707 80.3038L34.6338 81.8538L72.2923 103.554C72.3899 103.602 72.7801 103.796 72.8777 103.845C75.8045 105.201 78.4874 103.845 78.4874 100.599V96.7242C78.4874 96.3852 78.3899 94.6899 78.3411 94.3508C77.7557 91.2992 75.2192 87.9086 72.585 86.3586L23.9997 58.2162C21.0729 56.5209 18.6826 57.8771 18.6826 61.2193Z" fill="url(#paint42_linear)"/>
<path opacity="0.6364" d="M18.5859 61.3163V65.046C18.5859 65.482 18.6835 67.032 18.7811 67.5163C19.4152 70.471 21.3664 73.8133 23.903 75.2664L25.2689 75.993L28.0006 79.7711L34.781 81.7086L72.0981 103.215C72.1469 103.263 72.5859 103.506 72.6347 103.506C75.5615 104.91 78.1956 103.603 78.1956 100.309V96.5306C78.1956 96.0947 78.0981 94.6415 78.0493 94.2056C77.4639 91.2024 75.0249 87.9087 72.4395 86.4555L23.903 58.3616C20.9762 56.6178 18.5859 57.9741 18.5859 61.3163Z" fill="url(#paint43_linear)"/>
<path opacity="0.7273" d="M18.4385 61.4132V65.046C18.4385 65.5788 18.536 66.8866 18.6824 67.4195C19.3165 70.3257 21.2677 73.4742 23.7555 74.8789L25.1214 75.6054L28.2921 79.093L34.9263 81.418L71.8531 102.682C71.9018 102.731 72.3409 102.973 72.3896 102.973C75.3165 104.378 77.8531 103.118 77.8531 99.8244V96.1431C77.8531 95.6587 77.7555 94.3993 77.6579 93.9149C77.0238 91.0087 74.7311 87.8118 72.2433 86.3586L23.7555 58.3131C20.8287 56.7631 18.4385 58.071 18.4385 61.4132Z" fill="url(#paint44_linear)"/>
<path opacity="0.8182" d="M18.3418 61.5101V65.0461C18.3418 65.6273 18.4394 66.7414 18.5857 67.3711C19.2686 70.1805 21.2198 73.2321 23.6101 74.5883L24.9272 75.3149L28.5857 78.5118L35.0735 81.2727L71.6588 102.343C71.7076 102.343 72.1466 102.634 72.1954 102.634C75.171 104.039 77.5613 102.828 77.5613 99.5822V96.0463C77.5613 95.5135 77.4637 94.4478 77.3661 93.8666C76.732 91.0087 74.5369 87.9572 72.0979 86.5525L23.6589 58.5554C20.732 56.8601 18.3418 58.2163 18.3418 61.5101Z" fill="url(#paint45_linear)"/>
<path opacity="0.9091" d="M18.2441 61.6069V65.046C18.2441 65.6757 18.3417 66.596 18.5368 67.2741C19.2197 70.0351 21.171 72.9413 23.5124 74.2492L24.8295 74.9757L28.9271 77.882L35.2197 81.0304L71.4636 101.907L72.0002 102.198C74.9758 103.651 77.2685 102.44 77.2685 99.1946V95.7555C77.2685 95.1743 77.1709 94.3024 77.0246 93.6727C76.3417 90.8633 74.2929 87.9571 71.9026 86.6008L23.4636 58.6522C20.5856 57.0053 18.2441 58.3131 18.2441 61.6069Z" fill="url(#paint46_linear)"/>
<path opacity="0.3" d="M23.3172 58.7491C20.4391 57.1022 18.0977 58.41 18.0977 61.7038V65.046C18.0977 68.3398 20.4391 72.3117 23.3172 73.9586L71.7074 101.859C74.5854 103.506 76.9269 102.198 76.9269 98.904V95.5618C76.9269 92.2681 74.5854 88.2962 71.7074 86.6493L23.3172 58.7491Z" fill="url(#paint47_linear)"/>
</g>
<path opacity="0.8" d="M71.7073 86.3102L23.2195 58.3131C20.3415 56.6662 18 57.9741 18 61.2678V67.5163C18 70.8101 20.3415 74.782 23.2195 76.4289L25.9024 77.6882V84.2274L31.5122 80.9336L71.756 104.426C74.6341 106.073 76.9755 104.765 76.9755 101.471V95.2227C76.9268 91.9774 74.5853 87.9571 71.7073 86.3102Z" fill="url(#paint48_linear)"/>
<path d="M71.7073 86.3102L23.2195 58.3131C20.3415 56.6662 18 57.9741 18 61.2678V61.7522C18 58.4584 20.3415 57.1506 23.2195 58.7975L71.7073 86.7946C74.5853 88.4414 76.9268 92.4618 76.9268 95.7071V95.2227C76.9268 91.9774 74.5853 87.9571 71.7073 86.3102Z" fill="url(#paint49_radial)"/>
<path d="M27.8045 69.793L24.5362 65.2883C24.2435 64.9008 23.8533 64.9008 23.8533 65.2883V70.568C23.8533 71.004 24.2435 71.4399 24.5362 71.3915L27.8045 70.6165C28.0484 70.568 28.0484 70.1321 27.8045 69.793ZM25.463 63.3023C22.7801 61.7523 20.585 63.0117 20.585 66.0633C20.585 69.1149 22.7801 72.893 25.463 74.3946C28.1459 75.9446 30.341 74.6852 30.341 71.6336C30.341 68.5821 28.1459 64.8039 25.463 63.3023ZM25.463 73.7165C23.1215 72.3602 21.1703 69.0664 21.1703 66.4024C21.1703 63.7383 23.0728 62.6242 25.463 63.9805C27.8045 65.3367 29.7557 68.6305 29.7557 71.2946C29.7069 73.9587 27.8045 75.0727 25.463 73.7165Z" fill="white"/>
<path d="M8.53722 27.3129C5.8543 25.7629 3.65918 27.0223 3.65918 30.0738C3.65918 33.1254 5.8543 36.9036 8.53722 38.4051C11.2201 39.9552 13.4153 38.6958 13.4153 35.6442C13.4153 32.5926 11.2201 28.8145 8.53722 27.3129ZM8.53722 37.727C6.19576 36.3708 4.29333 33.077 4.29333 30.4129C4.29333 27.7488 6.19576 26.6348 8.53722 27.991C10.8787 29.3473 12.8299 32.6411 12.8299 35.3051C12.8299 37.9692 10.8787 39.0833 8.53722 37.727ZM7.31771 28.9598C6.97625 28.766 6.73235 28.9113 6.73235 29.2988V34.3364C6.73235 34.7239 6.97625 35.1598 7.31771 35.3536C7.65918 35.5473 7.90308 35.402 7.90308 35.0145V29.977C7.90308 29.6379 7.65918 29.1535 7.31771 28.9598ZM9.75673 30.3645C9.41527 30.1707 9.17137 30.316 9.17137 30.7035V35.7411C9.17137 36.1286 9.41527 36.5645 9.75673 36.7583C10.0982 36.952 10.3421 36.8067 10.3421 36.4192V31.3817C10.3421 30.9942 10.0494 30.5582 9.75673 30.3645Z" fill="white"/>
<path d="M15.6092 36.9522C15.5117 36.9037 15.4629 36.9522 15.4629 37.049V37.9209C15.4629 38.0178 15.5117 38.1147 15.6092 38.1631C15.7068 38.2115 15.7556 38.1631 15.7556 38.0662V37.1944C15.7556 37.1459 15.7068 37.0006 15.6092 36.9522Z" fill="white"/>
<path d="M16.1952 37.2912C16.0976 37.2427 16.0488 37.2912 16.0488 37.388V38.2599C16.0488 38.3568 16.0976 38.4537 16.1952 38.5021C16.2927 38.5505 16.3415 38.5021 16.3415 38.4052V37.5333C16.3415 37.4849 16.2927 37.3396 16.1952 37.2912Z" fill="white"/>
<path d="M16.7801 37.8724C16.6826 37.824 16.6338 37.8724 16.6338 37.9693V38.3568C16.6338 38.4536 16.6826 38.5505 16.7801 38.599C16.8777 38.6474 16.9265 38.599 16.9265 38.5021V38.1146C16.9265 38.0177 16.8289 37.9208 16.7801 37.8724Z" fill="white"/>
<path d="M17.3651 38.2116C17.2675 38.1631 17.2188 38.2116 17.2188 38.3084V38.7444C17.2188 38.8413 17.2675 38.9381 17.3651 38.9866C17.4627 39.035 17.5114 38.9866 17.5114 38.8897V38.4538C17.5114 38.3569 17.4139 38.26 17.3651 38.2116Z" fill="white"/>
<path d="M17.952 38.2116C17.8544 38.1631 17.8057 38.2116 17.8057 38.3084V39.3741C17.8057 39.471 17.8544 39.5678 17.952 39.6163C18.0496 39.6647 18.0983 39.6163 18.0983 39.5194V38.4538C18.0983 38.3569 18.0008 38.26 17.952 38.2116Z" fill="white"/>
<path d="M18.537 38.8411C18.4394 38.7927 18.3906 38.8411 18.3906 38.938V39.374C18.3906 39.4708 18.4394 39.5677 18.537 39.6162C18.6345 39.6646 18.6833 39.6162 18.6833 39.5193V39.0833C18.6833 39.0349 18.5857 38.8896 18.537 38.8411Z" fill="white"/>
<path d="M19.1219 38.9381C19.0244 38.8897 18.9756 38.9381 18.9756 39.035V40.0522C18.9756 40.1491 19.0244 40.246 19.1219 40.2944C19.2195 40.3428 19.2683 40.2944 19.2683 40.1975V39.1803C19.2683 39.0834 19.1707 38.9866 19.1219 38.9381Z" fill="white"/>
<path d="M19.6581 38.4052C19.5605 38.3567 19.5117 38.4052 19.5117 38.502V41.1661C19.5117 41.263 19.5605 41.3599 19.6581 41.4083C19.7556 41.4568 19.8044 41.4083 19.8044 41.3114V38.6474C19.8044 38.5505 19.7556 38.4536 19.6581 38.4052Z" fill="white"/>
<path d="M20.243 37.8724C20.1455 37.824 20.0967 37.8724 20.0967 37.9693V42.3771C20.0967 42.474 20.1455 42.5709 20.243 42.6193C20.3406 42.6677 20.3894 42.1349 20.3894 42.0381V38.1146C20.3894 38.0177 20.3406 37.9208 20.243 37.8724Z" fill="white"/>
<path d="M20.828 38.8411C20.7304 38.7927 20.6816 38.8411 20.6816 38.938V42.1349C20.6816 42.2318 20.7304 42.3287 20.828 42.3771C20.9255 42.4255 20.9743 42.3771 20.9743 42.2802V39.0833C20.9743 38.9865 20.9255 38.8896 20.828 38.8411Z" fill="white"/>
<path d="M21.4149 38.8897C21.3173 38.8412 21.2686 38.8897 21.2686 38.9865V42.7163C21.2686 42.8131 21.3173 42.91 21.4149 42.9584C21.5125 43.0069 21.5612 42.9584 21.5612 42.8616V39.1319C21.5612 39.035 21.5125 38.9381 21.4149 38.8897Z" fill="white"/>
<path d="M21.9999 38.5506C21.9023 38.5022 21.8535 38.5506 21.8535 38.6475V43.7335C21.8535 43.8303 21.9023 43.9272 21.9999 43.9757C22.0974 44.0241 22.1462 43.9757 22.1462 43.8788V38.7928C22.1462 38.6959 22.0974 38.5991 21.9999 38.5506Z" fill="white"/>
<path d="M22.5858 37.7756C22.4882 37.7272 22.4395 37.7756 22.4395 37.8725V45.1381C22.4395 45.235 22.4882 45.3319 22.5858 45.3803C22.6834 45.4288 22.7321 45.3803 22.7321 45.2835V38.0178C22.7321 37.9693 22.6834 37.824 22.5858 37.7756Z" fill="white"/>
<path d="M23.1708 39.0834C23.0732 39.035 23.0244 39.0834 23.0244 39.1803V44.5569C23.0244 44.6537 23.0732 44.7506 23.1708 44.799C23.2683 44.8475 23.3171 44.799 23.3171 44.7022V39.3256C23.3171 39.2287 23.2683 39.1318 23.1708 39.0834Z" fill="white"/>
<path d="M23.7557 39.9552C23.6582 39.9068 23.6094 39.9552 23.6094 40.0521V44.3146C23.6094 44.4115 23.6582 44.5084 23.7557 44.5568C23.8533 44.6052 23.9021 44.5568 23.9021 44.4599V40.1974C23.9021 40.1005 23.8533 40.0037 23.7557 39.9552Z" fill="white"/>
<path d="M24.3407 39.4709C24.2431 39.4225 24.1943 39.4709 24.1943 39.5678V45.4288C24.1943 45.5256 24.2431 45.6225 24.3407 45.6709C24.4382 45.7194 24.487 45.6709 24.487 45.5741V39.7131C24.487 39.6162 24.4382 39.5193 24.3407 39.4709Z" fill="white"/>
<path d="M24.9266 40.6334C24.8291 40.5849 24.7803 40.6334 24.7803 40.7303V44.9444C24.7803 45.0412 24.8291 45.1381 24.9266 45.1865C25.0242 45.235 25.073 45.1865 25.073 45.0897V40.8756C25.073 40.7787 25.0242 40.6818 24.9266 40.6334Z" fill="white"/>
<path d="M25.5126 41.4084C25.415 41.36 25.3662 41.4084 25.3662 41.5053V44.8475C25.3662 44.9444 25.415 45.0412 25.5126 45.0897C25.6101 45.1381 25.6589 45.0897 25.6589 44.9928V41.6506C25.6589 41.5537 25.5613 41.4568 25.5126 41.4084Z" fill="white"/>
<path d="M26.0975 42.0864C26 42.038 25.9512 42.0864 25.9512 42.1833V44.8474C25.9512 44.9443 26 45.0412 26.0975 45.0896C26.1951 45.138 26.2439 45.0896 26.2439 44.9927V42.3286C26.2439 42.2318 26.1463 42.1349 26.0975 42.0864Z" fill="white"/>
<path d="M26.6835 42.6677C26.5859 42.6193 26.5371 42.6677 26.5371 42.7646V44.8959C26.5371 44.9928 26.5859 45.0896 26.6835 45.1381C26.781 45.1865 26.8298 45.1381 26.8298 45.0412V42.9099C26.8298 42.8131 26.7322 42.7162 26.6835 42.6677Z" fill="white"/>
<path d="M27.2684 42.6677C27.1709 42.6193 27.1221 42.6677 27.1221 42.7646V45.574C27.1221 45.6709 27.1709 45.7678 27.2684 45.8162C27.366 45.8646 27.4147 45.8162 27.4147 45.7193V42.9099C27.4147 42.8615 27.3172 42.7162 27.2684 42.6677Z" fill="white"/>
<path d="M27.8534 43.6365C27.7558 43.5881 27.707 43.6365 27.707 43.7334V45.3318C27.707 45.4287 27.7558 45.5256 27.8534 45.574C27.9509 45.6224 27.9997 45.574 27.9997 45.4771V43.8787C27.9997 43.7818 27.9022 43.6849 27.8534 43.6365Z" fill="white"/>
<path d="M28.3895 44.5084C28.2919 44.46 28.2432 44.5084 28.2432 44.6053V45.0897C28.2432 45.1866 28.2919 45.2835 28.3895 45.3319C28.4871 45.3803 28.5358 45.3319 28.5358 45.235V44.7506C28.5358 44.6538 28.4871 44.5569 28.3895 44.5084Z" fill="white"/>
<path d="M28.9764 44.4115C28.8789 44.3631 28.8301 44.4115 28.8301 44.5084V45.8647C28.8301 45.9615 28.8789 46.0584 28.9764 46.1068C29.074 46.1553 29.1228 46.1068 29.1228 46.01V44.6537C29.1228 44.5568 29.074 44.46 28.9764 44.4115Z" fill="white"/>
<path d="M29.5614 45.235C29.4638 45.1866 29.415 45.235 29.415 45.3319V45.7194C29.415 45.8163 29.4638 45.9131 29.5614 45.9616C29.6589 46.01 29.7077 45.9616 29.7077 45.8647V45.4772C29.7077 45.3803 29.6589 45.2834 29.5614 45.235Z" fill="white"/>
<path d="M30.1463 45.5255C30.0488 45.4771 30 45.5255 30 45.6224V46.1068C30 46.2037 30.0488 46.3005 30.1463 46.349C30.2439 46.3974 30.2927 46.349 30.2927 46.2521V45.7677C30.2927 45.6708 30.2439 45.574 30.1463 45.5255Z" fill="white"/>
<path d="M30.7313 45.1865C30.6337 45.138 30.585 45.1865 30.585 45.2834V47.124C30.585 47.2209 30.6337 47.3178 30.7313 47.3662C30.8289 47.4146 30.8776 47.3662 30.8776 47.2693V45.4287C30.8776 45.3318 30.8289 45.2349 30.7313 45.1865Z" fill="white"/>
<path d="M31.3172 45.0897C31.2197 45.0413 31.1709 45.0897 31.1709 45.1866V47.8991C31.1709 47.996 31.2197 48.0929 31.3172 48.1413C31.4148 48.1898 31.4636 48.1413 31.4636 48.0445V45.3319C31.4636 45.2351 31.4148 45.1382 31.3172 45.0897Z" fill="white"/>
<path d="M31.9022 44.5084C31.8046 44.46 31.7559 44.5084 31.7559 44.6053V49.11C31.7559 49.2069 31.8046 49.3038 31.9022 49.3522C31.9998 49.4007 32.0485 49.3522 32.0485 49.2553V44.7506C32.0485 44.6538 31.9998 44.5569 31.9022 44.5084Z" fill="white"/>
<path d="M32.4872 44.5084C32.3896 44.46 32.3408 44.5084 32.3408 44.6053V49.7397C32.3408 49.8366 32.3896 49.9335 32.4872 49.9819C32.5847 50.0304 32.6335 49.9819 32.6335 49.885V44.7506C32.6335 44.6538 32.5847 44.5569 32.4872 44.5084Z" fill="white"/>
<path d="M33.0741 43.9757C32.9765 43.9272 32.9277 43.9757 32.9277 44.0725V50.9991C32.9277 51.096 32.9765 51.1929 33.0741 51.2413C33.1716 51.2898 33.2204 51.2413 33.2204 51.1445V44.2179C33.2204 44.121 33.1716 44.0241 33.0741 43.9757Z" fill="white"/>
<path d="M33.659 43.588C33.5615 43.5396 33.5127 43.588 33.5127 43.6849V52.0162C33.5127 52.1131 33.5615 52.21 33.659 52.2584C33.7566 52.3068 33.8054 52.2584 33.8054 52.1615V43.8302C33.8054 43.7333 33.7566 43.6365 33.659 43.588Z" fill="white"/>
<path opacity="0.5" d="M34.244 44.3147C34.1464 44.2663 34.0977 44.3147 34.0977 44.4116V51.9679C34.0977 52.0648 34.1464 52.1616 34.244 52.2101C34.3416 52.2585 34.3903 52.2101 34.3903 52.1132V44.5569C34.3903 44.46 34.2928 44.3632 34.244 44.3147Z" fill="white"/>
<path opacity="0.5" d="M34.829 45.1382C34.7314 45.0898 34.6826 45.1382 34.6826 45.2351V51.8226C34.6826 51.9195 34.7314 52.0164 34.829 52.0648C34.9265 52.1133 34.9753 52.0648 34.9753 51.9679V45.3804C34.9753 45.2835 34.8777 45.1866 34.829 45.1382Z" fill="white"/>
<path opacity="0.5" d="M35.4149 45.0412C35.3173 44.9928 35.2686 45.0412 35.2686 45.1381V52.5491C35.2686 52.646 35.3173 52.7428 35.4149 52.7913C35.5125 52.8397 35.5612 52.7913 35.5612 52.6944V45.2834C35.5612 45.235 35.4637 45.0897 35.4149 45.0412Z" fill="white"/>
<path opacity="0.5" d="M35.9999 44.6537C35.9023 44.6053 35.8535 44.6537 35.8535 44.7506V53.6632C35.8535 53.76 35.9023 53.8569 35.9999 53.9053C36.0974 53.9538 36.1462 53.9053 36.1462 53.8085V44.8959C36.1462 44.799 36.0486 44.7021 35.9999 44.6537Z" fill="white"/>
<path opacity="0.5" d="M36.5848 46.785C36.4873 46.7366 36.4385 46.785 36.4385 46.8819V52.1616C36.4385 52.2585 36.4873 52.3554 36.5848 52.4038C36.6824 52.4522 36.7312 52.4038 36.7312 52.3069V47.0272C36.6824 46.9303 36.6336 46.8334 36.5848 46.785Z" fill="white"/>
<path opacity="0.5" d="M37.1219 47.124C37.0244 47.0756 36.9756 47.124 36.9756 47.2209V52.4522C36.9756 52.5491 37.0244 52.646 37.1219 52.6944C37.2195 52.7428 37.2683 52.6944 37.2683 52.5975V47.3662C37.2683 47.2694 37.2195 47.1725 37.1219 47.124Z" fill="white"/>
<path opacity="0.5" d="M37.7069 48.0928C37.6093 48.0444 37.5605 48.0928 37.5605 48.1897V52.21C37.5605 52.3069 37.6093 52.4038 37.7069 52.4522C37.8045 52.5006 37.8532 52.4522 37.8532 52.3553V48.335C37.8532 48.2381 37.8045 48.1412 37.7069 48.0928Z" fill="white"/>
<path opacity="0.5" d="M38.2928 49.4491C38.1953 49.4006 38.1465 49.4491 38.1465 49.5459V51.9678C38.1465 52.0647 38.1953 52.1616 38.2928 52.21C38.3904 52.2584 38.4392 52.21 38.4392 52.1131V49.6912C38.4392 49.6428 38.3904 49.4975 38.2928 49.4491Z" fill="white"/>
<path opacity="0.5" d="M38.8778 49.4491C38.7802 49.4006 38.7314 49.4491 38.7314 49.5459V52.1131C38.7314 52.21 38.7802 52.3069 38.8778 52.3553C38.9753 52.4038 39.0241 52.3553 39.0241 52.2585V49.6912C39.0241 49.6428 38.9753 49.4975 38.8778 49.4491Z" fill="white"/>
<path opacity="0.5" d="M39.4627 50.1756C39.3652 50.1271 39.3164 50.1756 39.3164 50.2724V52.1131C39.3164 52.21 39.3652 52.3068 39.4627 52.3553C39.5603 52.4037 39.6091 52.3553 39.6091 52.2584V50.4177C39.6091 50.3209 39.5603 50.224 39.4627 50.1756Z" fill="white"/>
<path opacity="0.5" d="M40.0477 49.788C39.9501 49.7396 39.9014 49.788 39.9014 49.8849V53.1787C39.9014 53.2756 39.9501 53.3725 40.0477 53.4209C40.1453 53.4693 40.194 53.4209 40.194 53.324V50.0302C40.194 49.9334 40.1453 49.8365 40.0477 49.788Z" fill="white"/>
<path opacity="0.5" d="M40.6346 49.885C40.5371 49.8366 40.4883 49.885 40.4883 49.9819V53.7116C40.4883 53.8085 40.5371 53.9054 40.6346 53.9538C40.7322 54.0022 40.781 53.9538 40.781 53.8569V50.1272C40.781 50.0303 40.7322 49.9335 40.6346 49.885Z" fill="white"/>
<path opacity="0.5" d="M41.2196 49.6428C41.122 49.5943 41.0732 49.6428 41.0732 49.7397V54.6803C41.0732 54.7772 41.122 54.8741 41.2196 54.9225C41.3171 54.9709 41.3659 54.9225 41.3659 54.8256V49.885C41.3659 49.7881 41.3171 49.6912 41.2196 49.6428Z" fill="white"/>
<path opacity="0.5" d="M41.8055 50.5148C41.708 50.4664 41.6592 50.5148 41.6592 50.6117V54.3898C41.6592 54.4867 41.708 54.5836 41.8055 54.632C41.9031 54.6804 41.9519 54.632 41.9519 54.5351V50.757C41.9519 50.7085 41.9031 50.5632 41.8055 50.5148Z" fill="white"/>
<path opacity="0.5" d="M42.3905 51.1444C42.2929 51.0959 42.2441 51.1444 42.2441 51.2412V54.4866C42.2441 54.5834 42.2929 54.6803 42.3905 54.7288C42.488 54.7772 42.5368 54.7288 42.5368 54.6319V51.3866C42.5368 51.2897 42.4393 51.1928 42.3905 51.1444Z" fill="white"/>
<path opacity="0.5" d="M42.9754 52.3553C42.8779 52.3069 42.8291 52.3553 42.8291 52.4522V53.9538C42.8291 54.0506 42.8779 54.1475 42.9754 54.1959C43.073 54.2444 43.1218 54.1959 43.1218 54.0991V52.5975C43.1218 52.5006 43.0242 52.4037 42.9754 52.3553Z" fill="white"/>
<path opacity="0.5" d="M43.5604 52.5976C43.4628 52.5491 43.4141 52.5976 43.4141 52.6944V54.3413C43.4141 54.4382 43.4628 54.5351 43.5604 54.5835C43.658 54.6319 43.7067 54.5835 43.7067 54.4866V52.8397C43.7067 52.7429 43.6092 52.646 43.5604 52.5976Z" fill="white"/>
<path opacity="0.5" d="M44.1463 53.7116C44.0488 53.6632 44 53.7116 44 53.8085V53.9538C44 54.0507 44.0488 54.1476 44.1463 54.196C44.2439 54.2444 44.2927 54.196 44.2927 54.0991V53.9538C44.2927 53.8569 44.1951 53.7601 44.1463 53.7116Z" fill="white"/>
<path opacity="0.5" d="M44.7313 53.6148C44.6337 53.5664 44.585 53.6148 44.585 53.7117V54.632C44.585 54.7289 44.6337 54.8258 44.7313 54.8742C44.8289 54.9226 44.8776 54.8742 44.8776 54.7773V53.857C44.8776 53.8086 44.7801 53.6633 44.7313 53.6148Z" fill="white"/>
<path opacity="0.5" d="M45.3172 53.9054C45.2197 53.8569 45.1709 53.9054 45.1709 54.0022V55.0194C45.1709 55.1163 45.2197 55.2132 45.3172 55.2616C45.4148 55.3101 45.4636 55.2616 45.4636 55.1647V54.1475C45.4148 54.0991 45.366 53.9538 45.3172 53.9054Z" fill="white"/>
<path opacity="0.5" d="M45.8534 53.7116C45.7558 53.6632 45.707 53.7116 45.707 53.8085V55.9398C45.707 56.0366 45.7558 56.1335 45.8534 56.182C45.9509 56.2304 45.9997 56.182 45.9997 56.0851V53.9538C45.9997 53.8569 45.9509 53.7601 45.8534 53.7116Z" fill="white"/>
<path opacity="0.5" d="M46.4383 54.8256C46.3408 54.7772 46.292 54.8256 46.292 54.9225V55.4069C46.292 55.5038 46.3408 55.6007 46.4383 55.6491C46.5359 55.6975 46.5847 55.6491 46.5847 55.5522V55.0678C46.5847 55.0194 46.5359 54.8741 46.4383 54.8256Z" fill="white"/>
<path opacity="0.5" d="M47.0243 54.4381C46.9267 54.3897 46.8779 54.4381 46.8779 54.535V56.4725C46.8779 56.5694 46.9267 56.6663 47.0243 56.7147C47.1218 56.7632 47.1706 56.7147 47.1706 56.6178V54.6803C47.1706 54.6319 47.1218 54.4866 47.0243 54.4381Z" fill="white"/>
<path opacity="0.5" d="M47.6092 54.9226C47.5117 54.8741 47.4629 54.9226 47.4629 55.0194V56.7148C47.4629 56.8116 47.5117 56.9085 47.6092 56.9569C47.7068 57.0054 47.7556 56.9569 47.7556 56.8601V55.1648C47.7556 55.0679 47.7068 54.971 47.6092 54.9226Z" fill="white"/>
<path opacity="0.5" d="M48.1952 54.3413C48.0976 54.2929 48.0488 54.3413 48.0488 54.4382V57.9257C48.0488 58.0226 48.0976 58.1195 48.1952 58.1679C48.2927 58.2164 48.3415 58.1679 48.3415 58.071V54.5835C48.3415 54.5351 48.2927 54.3898 48.1952 54.3413Z" fill="white"/>
<path opacity="0.5" d="M48.7811 54.8741C48.6835 54.8257 48.6348 54.8741 48.6348 54.971V58.1194C48.6348 58.2163 48.6835 58.3132 48.7811 58.3616C48.8787 58.4101 48.9274 58.3616 48.9274 58.2647V55.1163C48.9274 55.0194 48.8787 54.9225 48.7811 54.8741Z" fill="white"/>
<path opacity="0.5" d="M49.3661 54.4866C49.2685 54.4382 49.2197 54.4866 49.2197 54.5835V59.1366C49.2197 59.2335 49.2685 59.3304 49.3661 59.3788C49.4636 59.4273 49.5124 59.3788 49.5124 59.2819V54.7288C49.5124 54.6319 49.4636 54.535 49.3661 54.4866Z" fill="white"/>
<path opacity="0.5" d="M49.951 53.7116C49.8535 53.6632 49.8047 53.7116 49.8047 53.8085V60.5898C49.8047 60.6867 49.8535 60.7836 49.951 60.832C50.0486 60.8804 50.0974 60.832 50.0974 60.7351V53.9538C50.0974 53.8569 50.0486 53.7601 49.951 53.7116Z" fill="white"/>
<path opacity="0.5" d="M50.536 54.9226C50.4384 54.8741 50.3896 54.9226 50.3896 55.0194V60.0085C50.3896 60.1054 50.4384 60.2023 50.536 60.2507C50.6335 60.2992 50.6823 60.2507 50.6823 60.1538V55.1648C50.6823 55.1163 50.6335 54.971 50.536 54.9226Z" fill="white"/>
<path opacity="0.5" d="M51.1219 54.7288C51.0244 54.6804 50.9756 54.7288 50.9756 54.8257V60.8804C50.9756 60.9773 51.0244 61.0742 51.1219 61.1226C51.2195 61.1711 51.2683 61.1226 51.2683 61.0258V54.971C51.2683 54.9226 51.1707 54.7773 51.1219 54.7288Z" fill="white"/>
<path opacity="0.5" d="M51.7069 55.5523C51.6093 55.5039 51.5605 55.5523 51.5605 55.6492V60.7836C51.5605 60.8805 51.6093 60.9774 51.7069 61.0258C51.8044 61.0742 51.8532 61.0258 51.8532 60.9289V55.7945C51.8532 55.6976 51.7557 55.6008 51.7069 55.5523Z" fill="white"/>
<path opacity="0.5" d="M52.2918 56.9084C52.1943 56.86 52.1455 56.9084 52.1455 57.0053V60.0084C52.1455 60.1053 52.1943 60.2022 52.2918 60.2506C52.3894 60.2991 52.4382 60.2506 52.4382 60.1537V57.1506C52.4382 57.1022 52.3406 56.9568 52.2918 56.9084Z" fill="white"/>
<path opacity="0.5" d="M52.8788 56.6663C52.7812 56.6179 52.7324 56.6663 52.7324 56.7632V60.9773C52.7324 61.0742 52.7812 61.1711 52.8788 61.2195C52.9763 61.2679 53.0251 61.2195 53.0251 61.1226V56.9085C53.0251 56.8117 52.9275 56.7148 52.8788 56.6663Z" fill="white"/>
<path opacity="0.5" d="M53.4637 57.6834C53.3662 57.635 53.3174 57.6834 53.3174 57.7803V60.5897C53.3174 60.6866 53.3662 60.7834 53.4637 60.8319C53.5613 60.8803 53.6101 60.8319 53.6101 60.735V57.9256C53.6101 57.8287 53.5125 57.7319 53.4637 57.6834Z" fill="white"/>
<path opacity="0.5" d="M54.0487 58.5069C53.9511 58.4585 53.9023 58.5069 53.9023 58.6038V60.396C53.9023 60.4929 53.9511 60.5898 54.0487 60.6382C54.1462 60.6866 54.195 60.6382 54.195 60.5413V58.7491C54.1462 58.7007 54.0975 58.5554 54.0487 58.5069Z" fill="white"/>
<path opacity="0.5" d="M54.5848 59.1851C54.4873 59.1367 54.4385 59.1851 54.4385 59.282V60.493C54.4385 60.5898 54.4873 60.6867 54.5848 60.7351C54.6824 60.7836 54.7312 60.7351 54.7312 60.6383V59.4273C54.7312 59.3305 54.6824 59.2336 54.5848 59.1851Z" fill="white"/>
<path opacity="0.5" d="M55.1698 60.1538C55.0722 60.1054 55.0234 60.1538 55.0234 60.2507V60.1054C55.0234 60.2023 55.0722 60.2992 55.1698 60.3476C55.2673 60.396 55.3161 60.3476 55.3161 60.2507V60.396C55.3161 60.2992 55.2673 60.2023 55.1698 60.1538Z" fill="white"/>
<path opacity="0.5" d="M55.7567 60.1054C55.6591 60.057 55.6104 60.1054 55.6104 60.2023V60.832C55.6104 60.9289 55.6591 61.0257 55.7567 61.0742C55.8543 61.1226 55.903 61.0742 55.903 60.9773V60.3476C55.903 60.2507 55.8543 60.1539 55.7567 60.1054Z" fill="white"/>
<path opacity="0.5" d="M56.3417 60.4929C56.2441 60.4445 56.1953 60.4929 56.1953 60.5898V61.1226C56.1953 61.2195 56.2441 61.3164 56.3417 61.3648C56.4392 61.4133 56.488 61.3648 56.488 61.2679V60.7351C56.488 60.6383 56.4392 60.5414 56.3417 60.4929Z" fill="white"/>
<path d="M27.609 95.562C27.3651 95.4167 27.2188 95.5136 27.2188 95.8042V98.2261C27.2188 98.4683 27.4139 98.8073 27.609 98.9042C27.8529 99.0495 27.9992 98.9526 27.9992 98.662V96.2401C27.9992 95.9979 27.8529 95.7073 27.609 95.562Z" fill="url(#paint50_linear)"/>
<path d="M29.2193 95.5135C28.9754 95.3682 28.8291 95.4651 28.8291 95.7557V100.115C28.8291 100.357 29.0242 100.696 29.2193 100.793C29.4632 100.939 29.6096 100.842 29.6096 100.551V96.1917C29.6584 95.9495 29.4632 95.6589 29.2193 95.5135Z" fill="url(#paint51_linear)"/>
<path d="M30.8776 97.4026C30.6336 97.2573 30.4873 97.3541 30.4873 97.6448V100.164C30.4873 100.406 30.6824 100.745 30.8776 100.842C31.1215 100.987 31.2678 100.89 31.2678 100.599V98.0807C31.2678 97.8385 31.0727 97.4995 30.8776 97.4026Z" fill="url(#paint52_linear)"/>
<path d="M32.4869 96.676C32.243 96.5307 32.0967 96.6276 32.0967 96.9182V102.731C32.0967 102.973 32.2918 103.312 32.4869 103.409C32.7308 103.554 32.8772 103.457 32.8772 103.167V97.3541C32.8772 97.112 32.682 96.7729 32.4869 96.676Z" fill="url(#paint53_linear)"/>
<path d="M34.0973 98.5168C33.8534 98.3715 33.707 98.4684 33.707 98.759V102.683C33.707 102.925 33.9022 103.264 34.0973 103.361C34.3412 103.506 34.4875 103.409 34.4875 103.118V99.195C34.4875 98.9528 34.3412 98.6621 34.0973 98.5168Z" fill="url(#paint54_linear)"/>
<path d="M35.7057 100.164C35.4618 100.018 35.3154 100.115 35.3154 100.406V102.973C35.3154 103.215 35.5105 103.554 35.7057 103.651C35.9496 103.796 36.0959 103.7 36.0959 103.409V100.842C36.1447 100.6 35.9496 100.26 35.7057 100.164Z" fill="url(#paint55_linear)"/>
<path d="M37.3658 98.6135C37.1219 98.4682 36.9756 98.5651 36.9756 98.8557V106.315C36.9756 106.557 37.1707 106.896 37.3658 106.993C37.6097 107.139 37.7561 107.042 37.7561 106.751V99.2916C37.7561 99.0495 37.561 98.7588 37.3658 98.6135Z" fill="url(#paint56_linear)"/>
<path d="M38.9742 97.0636C38.7303 96.9183 38.584 97.0151 38.584 97.3058V109.803C38.584 110.045 38.7791 110.384 38.9742 110.481C39.2181 110.626 39.3645 110.529 39.3645 110.239V97.7417C39.3645 97.4511 39.1694 97.1605 38.9742 97.0636Z" fill="url(#paint57_linear)"/>
<path d="M40.5846 98.4683C40.3407 98.3229 40.1943 98.4198 40.1943 98.7104V110.239C40.1943 110.481 40.3895 110.82 40.5846 110.917C40.8285 111.062 40.9748 110.965 40.9748 110.675V99.1464C40.9748 98.8558 40.8285 98.5651 40.5846 98.4683Z" fill="url(#paint58_linear)"/>
<path d="M42.1949 97.1118C41.951 96.9665 41.8047 97.0634 41.8047 97.354V113.387C41.8047 113.629 41.9998 113.968 42.1949 114.065C42.4388 114.21 42.5852 114.113 42.5852 113.823V97.8384C42.634 97.5477 42.4388 97.2571 42.1949 97.1118Z" fill="url(#paint59_linear)"/>
<path d="M43.8531 96.5792C43.6092 96.4339 43.4629 96.5308 43.4629 96.8214V115.857C43.4629 116.1 43.658 116.439 43.8531 116.536C44.097 116.681 44.2434 116.584 44.2434 116.293V97.2573C44.2434 97.0152 44.0483 96.6761 43.8531 96.5792Z" fill="url(#paint60_linear)"/>
<path d="M45.4625 99.5824C45.2186 99.4371 45.0723 99.5339 45.0723 99.8246V114.647C45.0723 114.889 45.2674 115.228 45.4625 115.325C45.7064 115.47 45.8528 115.373 45.8528 115.083V100.261C45.8528 100.018 45.6576 99.7277 45.4625 99.5824Z" fill="url(#paint61_linear)"/>
<path d="M47.0729 103.845C46.829 103.7 46.6826 103.796 46.6826 104.087V112.225C46.6826 112.467 46.8777 112.806 47.0729 112.903C47.3168 113.048 47.4631 112.951 47.4631 112.661V104.523C47.4631 104.281 47.3168 103.99 47.0729 103.845Z" fill="url(#paint62_linear)"/>
<path d="M48.6813 102.537C48.4374 102.392 48.291 102.489 48.291 102.779V115.47C48.291 115.712 48.4861 116.051 48.6813 116.148C48.9252 116.293 49.0715 116.197 49.0715 115.906V103.215C49.1203 102.973 48.9252 102.634 48.6813 102.537Z" fill="url(#paint63_linear)"/>
<path d="M50.3414 105.395C50.0975 105.25 49.9512 105.346 49.9512 105.637V114.017C49.9512 114.259 50.1463 114.598 50.3414 114.695C50.5853 114.84 50.7317 114.743 50.7317 114.453V106.073C50.7317 105.831 50.5365 105.492 50.3414 105.395Z" fill="url(#paint64_linear)"/>
<path d="M51.9498 108.689C51.7059 108.543 51.5596 108.64 51.5596 108.931V112.467C51.5596 112.709 51.7547 113.048 51.9498 113.145C52.1937 113.29 52.3401 113.193 52.3401 112.903V109.367C52.3401 109.125 52.1937 108.834 51.9498 108.689Z" fill="url(#paint65_linear)"/>
<path d="M53.5602 110.868C53.3163 110.723 53.1699 110.82 53.1699 111.111V112.225C53.1699 112.467 53.365 112.806 53.5602 112.903C53.8041 113.048 53.9504 112.951 53.9504 112.661V111.547C53.9504 111.304 53.8041 110.965 53.5602 110.868Z" fill="url(#paint66_linear)"/>
<path opacity="0.5" d="M32.3895 72.6023C32.2919 72.5538 32.2432 72.6023 32.2432 72.6991V73.3288C32.2432 73.4257 32.2919 73.5226 32.3895 73.571C32.4871 73.6194 32.5358 73.571 32.5358 73.4741V72.8444C32.5358 72.7476 32.4871 72.6507 32.3895 72.6023ZM32.9749 72.9413C32.8773 72.8929 32.8285 72.9413 32.8285 73.0382V73.6679C32.8285 73.7648 32.8773 73.8616 32.9749 73.9101C33.0724 73.9585 33.1212 73.9101 33.1212 73.8132V73.1835C33.1212 73.0866 33.0724 72.9898 32.9749 72.9413ZM33.5602 73.2804C33.4627 73.2319 33.4139 73.2804 33.4139 73.3773V74.007C33.4139 74.1038 33.4627 74.2007 33.5602 74.2491C33.6578 74.2976 33.7066 74.2491 33.7066 74.1523V73.5226C33.7066 73.4257 33.6578 73.3288 33.5602 73.2804ZM34.1456 73.1351C34.048 73.0866 33.9993 73.1351 33.9993 73.2319V74.8304C33.9993 74.9273 34.048 75.0241 34.1456 75.0726C34.2432 75.121 34.2919 75.0726 34.2919 74.9757V73.3773C34.2919 73.2804 34.2432 73.1835 34.1456 73.1351ZM34.731 73.9585C34.6334 73.9101 34.5846 73.9585 34.5846 74.0554V74.6851C34.5846 74.782 34.6334 74.8788 34.731 74.9273C34.8285 74.9757 34.8773 74.9273 34.8773 74.8304V74.2007C34.8773 74.1038 34.8285 74.007 34.731 73.9585ZM35.3163 74.2976C35.2188 74.2491 35.17 74.2976 35.17 74.3945V75.0241C35.17 75.121 35.2188 75.2179 35.3163 75.2663C35.4139 75.3148 35.4627 75.2663 35.4627 75.1695V74.5398C35.4627 74.4429 35.4139 74.346 35.3163 74.2976ZM35.9017 74.6366C35.8041 74.5882 35.7554 74.6366 35.7554 74.7335V75.3632C35.7554 75.4601 35.8041 75.557 35.9017 75.6054C35.9993 75.6538 36.048 75.6054 36.048 75.5085V74.8788C36.048 74.782 35.9993 74.6851 35.9017 74.6366ZM36.4871 74.8788C36.3895 74.8304 36.3407 74.8788 36.3407 74.9757V75.7507C36.3407 75.8476 36.3895 75.9445 36.4871 75.9929C36.5846 76.0413 36.6334 75.9929 36.6334 75.896V75.121C36.6334 75.0241 36.5846 74.9273 36.4871 74.8788ZM37.0724 74.9273C36.9749 74.8788 36.9261 74.9273 36.9261 75.0241V76.332C36.9261 76.4288 36.9749 76.5257 37.0724 76.5742C37.17 76.6226 37.2188 76.5742 37.2188 76.4773V75.1695C37.2188 75.0726 37.17 74.9757 37.0724 74.9273ZM37.6578 74.7335C37.5602 74.6851 37.5115 74.7335 37.5115 74.8304V77.2038C37.5115 77.3007 37.5602 77.3976 37.6578 77.446C37.7554 77.4945 37.8041 77.446 37.8041 77.3492V74.9757C37.8041 74.9273 37.7554 74.782 37.6578 74.7335ZM38.2432 74.346C38.1456 74.2976 38.0968 74.346 38.0968 74.4429V78.2695C38.0968 78.3664 38.1456 78.4632 38.2432 78.5117C38.3407 78.5601 38.3895 78.5117 38.3895 78.4148V74.5882C38.3895 74.4913 38.3407 74.3945 38.2432 74.346ZM38.8285 74.8788C38.731 74.8304 38.6822 74.8788 38.6822 74.9757V78.4148C38.6822 78.5117 38.731 78.6085 38.8285 78.657C38.9261 78.7054 38.9749 78.657 38.9749 78.5601V75.121C38.9749 75.0726 38.9261 74.9273 38.8285 74.8788ZM39.4139 74.6851C39.3163 74.6366 39.2676 74.6851 39.2676 74.782V79.3351C39.2676 79.432 39.3163 79.5289 39.4139 79.5773C39.5115 79.6257 39.5602 79.5773 39.5602 79.4804V74.9273C39.5602 74.8304 39.5115 74.7335 39.4139 74.6851ZM39.9993 73.7163C39.9017 73.6679 39.8529 73.7163 39.8529 73.8132V80.982C39.8529 81.0789 39.9017 81.1757 39.9993 81.2242C40.0968 81.2726 40.1456 81.2242 40.1456 81.1273V73.9585C40.1456 73.8616 40.0968 73.7163 39.9993 73.7163ZM40.5846 73.3773C40.4871 73.3288 40.4383 73.3773 40.4383 73.4741V81.9508C40.4383 82.0476 40.4871 82.1445 40.5846 82.1929C40.6822 82.2414 40.731 82.1929 40.731 82.0961V73.6195C40.731 73.5226 40.6822 73.4257 40.5846 73.3773ZM41.17 74.2007C41.0724 74.1523 41.0236 74.2007 41.0236 74.2976V81.8539C41.0236 81.9508 41.0724 82.0476 41.17 82.0961C41.2676 82.1445 41.3163 82.0961 41.3163 81.9992V74.4429C41.3163 74.346 41.2676 74.2491 41.17 74.2007ZM41.7554 73.6679C41.6578 73.6195 41.609 73.6679 41.609 73.7648V83.0648C41.609 83.1617 41.6578 83.2586 41.7554 83.307C41.8529 83.3554 41.9017 83.307 41.9017 83.2101V73.9101C41.9017 73.8132 41.8529 73.7163 41.7554 73.6679ZM42.3407 75.2663C42.2432 75.2179 42.1944 75.2663 42.1944 75.3632V82.0961C42.1944 82.1929 42.2432 82.2898 42.3407 82.3383C42.4383 82.3867 42.4871 82.3383 42.4871 82.2414V75.5085C42.4871 75.4116 42.4383 75.3148 42.3407 75.2663ZM42.9261 76.2835C42.8285 76.2351 42.7797 76.2835 42.7797 76.3804V81.757C42.7797 81.8539 42.8285 81.9508 42.9261 81.9992C43.0236 82.0476 43.0724 81.9992 43.0724 81.9023V76.5257C43.0724 76.4288 43.0236 76.332 42.9261 76.2835ZM43.5602 77.3492C43.4627 77.3007 43.4139 77.3492 43.4139 77.446V81.3695C43.4139 81.4664 43.4627 81.5633 43.5602 81.6117C43.6578 81.6601 43.7066 81.6117 43.7066 81.5148V77.5913C43.6578 77.4945 43.609 77.3976 43.5602 77.3492ZM44.1456 78.1242C44.048 78.0757 43.9993 78.1242 43.9993 78.221V81.2242C43.9993 81.3211 44.048 81.4179 44.1456 81.4664C44.2432 81.5148 44.2919 81.4664 44.2919 81.3695V78.3664C44.2432 78.3179 44.1944 78.1726 44.1456 78.1242ZM44.731 78.8023C44.6334 78.7539 44.5846 78.8023 44.5846 78.8992V81.2726C44.5846 81.3695 44.6334 81.4664 44.731 81.5148C44.8285 81.5633 44.8773 81.5148 44.8773 81.4179V79.0445C44.8773 78.9476 44.7797 78.8507 44.731 78.8023ZM45.3163 79.3351C45.2188 79.2867 45.17 79.3351 45.17 79.432V81.3695C45.17 81.4664 45.2188 81.5633 45.3163 81.6117C45.4139 81.6601 45.4627 81.6117 45.4627 81.5148V79.5773C45.4627 79.4804 45.3651 79.3836 45.3163 79.3351ZM45.9017 79.3351C45.8041 79.2867 45.7554 79.3351 45.7554 79.432V82.0476C45.7554 82.1445 45.8041 82.2414 45.9017 82.2898C45.9993 82.3383 46.048 82.2898 46.048 82.1929V79.5773C46.048 79.4804 45.9505 79.3836 45.9017 79.3351ZM46.4871 80.2554C46.3895 80.207 46.3407 80.2554 46.3407 80.3523V81.8054C46.3407 81.9023 46.3895 81.9992 46.4871 82.0476C46.5846 82.0961 46.6334 82.0476 46.6334 81.9508V80.4976C46.6334 80.4007 46.5358 80.3039 46.4871 80.2554ZM47.0724 80.6429C46.9749 80.5945 46.9261 80.6429 46.9261 80.7398V82.0961C46.9261 82.1929 46.9749 82.2898 47.0724 82.3383C47.17 82.3867 47.2188 82.3383 47.2188 82.2414V80.8851C47.2188 80.7882 47.1212 80.6914 47.0724 80.6429ZM47.6578 81.4664C47.5602 81.4179 47.5114 81.4664 47.5114 81.5632V81.9023C47.5114 81.9992 47.5602 82.0961 47.6578 82.1445C47.7553 82.1929 47.8041 82.1445 47.8041 82.0476V81.7086C47.8041 81.6117 47.7066 81.5148 47.6578 81.4664ZM48.2432 81.7086C48.1456 81.6601 48.0968 81.7086 48.0968 81.8054V82.3383C48.0968 82.4351 48.1456 82.532 48.2432 82.5804C48.3407 82.6289 48.3895 82.5804 48.3895 82.4836V81.9508C48.3895 81.9023 48.2919 81.757 48.2432 81.7086ZM48.8285 81.3695C48.731 81.3211 48.6822 81.3695 48.6822 81.4664V83.307C48.6822 83.4039 48.731 83.5008 48.8285 83.5492C48.9261 83.5976 48.9749 83.5492 48.9749 83.4523V81.6117C48.9749 81.5633 48.8773 81.4179 48.8285 81.3695ZM49.4139 81.3695C49.3163 81.3211 49.2675 81.3695 49.2675 81.4664V84.0336C49.2675 84.1305 49.3163 84.2273 49.4139 84.2758C49.5114 84.3242 49.5602 84.2758 49.5602 84.1789V81.6117C49.5602 81.5148 49.4627 81.4179 49.4139 81.3695ZM49.9993 81.0789C49.9017 81.0304 49.8529 81.0789 49.8529 81.1758V85.0023C49.8529 85.0992 49.9017 85.1961 49.9993 85.2445C50.0968 85.293 50.1456 85.2445 50.1456 85.1477V81.3211C50.1456 81.2242 50.048 81.1273 49.9993 81.0789ZM50.5846 80.4492C50.4871 80.4007 50.4383 80.4492 50.4383 80.5461V86.2617C50.4383 86.3586 50.4871 86.4555 50.5846 86.5039C50.6822 86.5523 50.731 86.5039 50.731 86.407V80.6914C50.731 80.6429 50.6334 80.4976 50.5846 80.4492ZM51.17 79.7226C51.0724 79.6742 51.0236 79.7226 51.0236 79.8195V87.7149C51.0236 87.8117 51.0724 87.9086 51.17 87.957C51.2675 88.0055 51.3163 87.957 51.3163 87.8602V79.9648C51.3163 79.8679 51.2188 79.7711 51.17 79.7226ZM51.7553 80.2554C51.6578 80.207 51.609 80.2554 51.609 80.3523V87.8602C51.609 87.957 51.6578 88.0539 51.7553 88.1024C51.8529 88.1508 51.9017 88.1024 51.9017 88.0055V80.4976C51.9017 80.4007 51.8041 80.3039 51.7553 80.2554ZM52.3407 79.1414C52.2432 79.0929 52.1944 79.1414 52.1944 79.2382V89.6039C52.1944 89.7008 52.2432 89.7977 52.3407 89.8461C52.4383 89.8946 52.4871 89.8461 52.4871 89.7492V79.3835C52.4871 79.2867 52.3895 79.1898 52.3407 79.1414ZM52.9261 80.207C52.8285 80.1586 52.7797 80.207 52.7797 80.3039V89.2164C52.7797 89.3133 52.8285 89.4102 52.9261 89.4586C53.0236 89.507 53.0724 89.4586 53.0724 89.3617V80.4492C53.0724 80.3523 52.9749 80.2554 52.9261 80.207ZM53.5114 79.4804C53.4139 79.432 53.3651 79.4804 53.3651 79.5773V90.6211C53.3651 90.718 53.4139 90.8149 53.5114 90.8633C53.609 90.9118 53.6578 90.8633 53.6578 90.7664V79.7226C53.6578 79.6257 53.5602 79.5289 53.5114 79.4804ZM54.0968 78.8507C53.9993 78.8023 53.9505 78.8507 53.9505 78.9476V91.9289C53.9505 92.0258 53.9993 92.1227 54.0968 92.1711C54.1944 92.2196 54.2432 92.1711 54.2432 92.0743V79.0929C54.2432 78.996 54.1456 78.8992 54.0968 78.8507ZM54.6822 80.3039C54.5846 80.2554 54.5358 80.3039 54.5358 80.4007V91.1539C54.5358 91.2508 54.5846 91.3477 54.6822 91.3961C54.7797 91.4446 54.8285 91.3961 54.8285 91.2992V80.5461C54.8285 80.4492 54.731 80.3523 54.6822 80.3039ZM55.2675 81.9508C55.17 81.9023 55.1212 81.9508 55.1212 82.0476V90.1852C55.1212 90.2821 55.17 90.3789 55.2675 90.4274C55.3651 90.4758 55.4139 90.4274 55.4139 90.3305V82.1929C55.4139 82.0961 55.3163 81.9992 55.2675 81.9508ZM55.8529 82.0476C55.7553 81.9992 55.7066 82.0476 55.7066 82.1445V90.7664C55.7066 90.8633 55.7553 90.9602 55.8529 91.0086C55.9505 91.0571 55.9993 91.0086 55.9993 90.9117V82.2898C55.9993 82.1929 55.9017 82.0961 55.8529 82.0476ZM56.4383 83.7429C56.3407 83.6945 56.2919 83.743 56.2919 83.8398V89.7977C56.2919 89.8946 56.3407 89.9914 56.4383 90.0399C56.5358 90.0883 56.5846 90.0399 56.5846 89.943V83.9851C56.5846 83.8883 56.4871 83.7429 56.4383 83.7429ZM57.0236 85.3414C56.9261 85.293 56.8773 85.3414 56.8773 85.4383V88.8289C56.8773 88.9258 56.9261 89.0227 57.0236 89.0711C57.1212 89.1195 57.17 89.0711 57.17 88.9742V85.5836C57.17 85.4867 57.0724 85.3898 57.0236 85.3414ZM57.609 86.407C57.5114 86.3586 57.4627 86.407 57.4627 86.5039V88.393C57.4627 88.4899 57.5114 88.5867 57.609 88.6352C57.7066 88.6836 57.7553 88.6352 57.7553 88.5383V86.6492C57.7553 86.5523 57.6578 86.4555 57.609 86.407ZM58.1944 87.1336C58.0968 87.0852 58.048 87.1336 58.048 87.2305V88.3445C58.048 88.4414 58.0968 88.5383 58.1944 88.5867C58.2919 88.6352 58.3407 88.5867 58.3407 88.4899V87.3758C58.3407 87.3273 58.2432 87.182 58.1944 87.1336ZM58.7797 87.7149C58.6822 87.6664 58.6334 87.7149 58.6334 87.8117V88.4899C58.6334 88.5867 58.6822 88.6836 58.7797 88.732C58.8773 88.7805 58.9261 88.732 58.9261 88.6352V87.957C58.9261 87.8602 58.8285 87.7633 58.7797 87.7149ZM59.3651 88.1508C59.2675 88.1024 59.2188 88.1508 59.2188 88.2477V88.732C59.2188 88.8289 59.2675 88.9258 59.3651 88.9742C59.4627 89.0227 59.5114 88.9742 59.5114 88.8774V88.393C59.5114 88.2961 59.4139 88.1992 59.3651 88.1508ZM59.9505 88.4899C59.8529 88.4414 59.8041 88.4899 59.8041 88.5867V89.0227C59.8041 89.1196 59.8529 89.2164 59.9505 89.2649C60.048 89.3133 60.0968 89.2649 60.0968 89.168V88.732C60.0968 88.6352 59.9992 88.5383 59.9505 88.4899ZM60.5358 88.8289C60.4383 88.7805 60.3895 88.8289 60.3895 88.9258V89.4102C60.3895 89.5071 60.4383 89.6039 60.5358 89.6524C60.6334 89.7008 60.6822 89.6524 60.6822 89.5555V89.0711C60.6822 88.9742 60.5846 88.8289 60.5358 88.8289ZM61.1212 89.0227C61.0236 88.9742 60.9749 89.0227 60.9749 89.1195V89.7977C60.9749 89.8946 61.0236 89.9914 61.1212 90.0399C61.2188 90.0883 61.2675 90.0399 61.2675 89.943V89.2649C61.2675 89.2164 61.2188 89.0711 61.1212 89.0227ZM61.7066 89.2164C61.609 89.168 61.5602 89.2164 61.5602 89.3133V90.3305C61.5602 90.4274 61.609 90.5242 61.7066 90.5727C61.8041 90.6211 61.8529 90.5727 61.8529 90.4758V89.4586C61.8529 89.3617 61.8041 89.2649 61.7066 89.2164ZM62.2919 89.2649C62.1944 89.2164 62.1456 89.2649 62.1456 89.3617V90.9602C62.1456 91.0571 62.1944 91.1539 62.2919 91.2024C62.3895 91.2508 62.4383 91.2024 62.4383 91.1055V89.5071C62.4383 89.4102 62.3895 89.3133 62.2919 89.2649ZM62.8773 88.732C62.7797 88.6836 62.731 88.732 62.731 88.8289V92.1227C62.731 92.2196 62.7797 92.3164 62.8773 92.3649C62.9749 92.4133 63.0236 92.3649 63.0236 92.268V88.9742C63.0236 88.8774 62.9749 88.7805 62.8773 88.732ZM63.4627 89.6524C63.3651 89.6039 63.3163 89.6524 63.3163 89.7492V91.8321C63.3163 91.9289 63.3651 92.0258 63.4627 92.0743C63.5602 92.1227 63.609 92.0743 63.609 91.9774V89.8946C63.609 89.8461 63.5602 89.7008 63.4627 89.6524ZM64.048 89.7008C63.9505 89.6524 63.9017 89.7008 63.9017 89.7977V92.5102C63.9017 92.6071 63.9505 92.7039 64.048 92.7524C64.1456 92.8008 64.1944 92.7524 64.1944 92.6555V89.943C64.1944 89.8461 64.1456 89.7492 64.048 89.7008ZM64.6334 89.3133C64.5358 89.2649 64.487 89.3133 64.487 89.4102V93.6243C64.487 93.7211 64.5358 93.818 64.6334 93.8665C64.7309 93.9149 64.7797 93.8665 64.7797 93.7696V89.5555C64.7797 89.4586 64.7309 89.3617 64.6334 89.3133ZM65.2188 90.4274C65.1212 90.3789 65.0724 90.4274 65.0724 90.5242V93.1399C65.0724 93.2368 65.1212 93.3336 65.2188 93.3821C65.3163 93.4305 65.3651 93.3821 65.3651 93.2852V90.6696C65.3651 90.5727 65.3163 90.4758 65.2188 90.4274ZM65.8041 89.6524C65.7066 89.6039 65.6578 89.6524 65.6578 89.7492V94.5446C65.6578 94.6415 65.7066 94.7383 65.8041 94.7868C65.9017 94.8352 65.9505 94.7868 65.9505 94.6899V89.8946C65.9505 89.8461 65.9017 89.7008 65.8041 89.6524ZM66.3895 89.943C66.2919 89.8946 66.2431 89.943 66.2431 90.0399V94.9321C66.2431 95.029 66.2919 95.1258 66.3895 95.1743C66.487 95.2227 66.5358 95.1743 66.5358 95.0774V90.1367C66.5358 90.0883 66.487 89.9914 66.3895 89.943ZM67.5602 90.5727C67.4627 90.5242 67.4139 90.5727 67.4139 90.6696V95.6587C67.4139 95.7555 67.4627 95.8524 67.5602 95.9008C67.6578 95.9493 67.7066 95.9008 67.7066 95.804V90.8149C67.7066 90.718 67.6578 90.6211 67.5602 90.5727ZM66.9749 89.2649C66.8773 89.2164 66.8285 89.2649 66.8285 89.3617V96.2883C66.8285 96.3852 66.8773 96.4821 66.9749 96.5305C67.0724 96.579 67.1212 96.5305 67.1212 96.4337V89.5071C67.1212 89.4102 67.0724 89.3133 66.9749 89.2649ZM68.1456 92.0258C68.048 91.9774 67.9992 92.0258 67.9992 92.1227V94.9321C67.9992 95.029 68.048 95.1258 68.1456 95.1743C68.2431 95.2227 68.2919 95.1743 68.2919 95.0774V92.268C68.2919 92.1711 68.2431 92.0743 68.1456 92.0258ZM68.7309 91.5899C68.6334 91.5414 68.5846 91.5899 68.5846 91.6868V95.9493C68.5846 96.0462 68.6334 96.143 68.7309 96.1915C68.8285 96.2399 68.8773 96.1915 68.8773 96.0946V91.8321C68.8773 91.7836 68.8285 91.6383 68.7309 91.5899ZM69.3163 92.2196C69.2188 92.1711 69.17 92.2196 69.17 92.3164V95.9977C69.17 96.0946 69.2188 96.1915 69.3163 96.2399C69.4139 96.2883 69.4627 96.2399 69.4627 96.143V92.4618C69.4627 92.4133 69.4139 92.268 69.3163 92.2196ZM69.9017 92.8493C69.8041 92.8008 69.7553 92.8493 69.7553 92.9461V96.0462C69.7553 96.143 69.8041 96.2399 69.9017 96.2883C69.9992 96.3368 70.048 96.2883 70.048 96.1915V93.0914C70.048 92.9946 69.9992 92.8977 69.9017 92.8493ZM70.487 93.9149C70.3895 93.8665 70.3407 93.9149 70.3407 94.0118V95.6587C70.3407 95.7555 70.3895 95.8524 70.487 95.9008C70.5846 95.9493 70.6334 95.9008 70.6334 95.804V94.1571C70.6334 94.0602 70.5846 93.9633 70.487 93.9149ZM71.0724 94.4477C70.9748 94.3993 70.9261 94.4477 70.9261 94.5446V95.804C70.9261 95.9008 70.9748 95.9977 71.0724 96.0462C71.17 96.0946 71.2188 96.0462 71.2188 95.9493V94.6899C71.2188 94.593 71.17 94.4961 71.0724 94.4477ZM71.6578 94.4477C71.5602 94.3993 71.5114 94.4477 71.5114 94.5446V96.4821C71.5114 96.579 71.5602 96.6758 71.6578 96.7243C71.7553 96.7727 71.8041 96.7243 71.8041 96.6274V94.6899C71.8041 94.593 71.7553 94.4961 71.6578 94.4477ZM72.2431 95.368C72.1456 95.3196 72.0968 95.368 72.0968 95.4649V96.2399C72.0968 96.3368 72.1456 96.4337 72.2431 96.4821C72.3407 96.5305 72.3895 96.4821 72.3895 96.3852V95.6102C72.3895 95.5133 72.3407 95.4165 72.2431 95.368ZM72.8285 95.7555C72.7309 95.7071 72.6822 95.7555 72.6822 95.8524V96.4821C72.6822 96.579 72.7309 96.6758 72.8285 96.7243C72.9261 96.7727 72.9748 96.7243 72.9748 96.6274V95.9977C72.9748 95.9493 72.9261 95.804 72.8285 95.7555ZM73.4139 95.6587C73.3163 95.6102 73.2675 95.6587 73.2675 95.7555V97.3055C73.2675 97.4024 73.3163 97.4993 73.4139 97.5477C73.5114 97.5962 73.5602 97.5477 73.5602 97.4508V95.9008C73.5602 95.804 73.5114 95.7071 73.4139 95.6587Z" fill="white"/>
<defs>
<linearGradient id="paint0_linear" x1="48.7472" y1="724.034" x2="-364.084" y2="297.567" gradientUnits="userSpaceOnUse">
<stop stop-color="#ABC4FF"/>
<stop offset="1" stop-color="white"/>
</linearGradient>
<linearGradient id="paint1_linear" x1="71.3658" y1="141.062" x2="-0.755945" y2="127.627" gradientUnits="userSpaceOnUse">
<stop stop-color="#86E6FF"/>
<stop offset="1" stop-color="#1A68FF"/>
</linearGradient>
<linearGradient id="paint2_linear" x1="46.314" y1="718.624" x2="-362.897" y2="302.946" gradientUnits="userSpaceOnUse">
<stop stop-color="#ABC4FF"/>
<stop offset="1" stop-color="white"/>
</linearGradient>
<linearGradient id="paint3_linear" x1="14.3896" y1="3.02295" x2="75.0114" y2="6.46354" gradientUnits="userSpaceOnUse">
<stop stop-color="#BFA0FF"/>
<stop offset="1" stop-color="#5302FF"/>
</linearGradient>
<linearGradient id="paint4_linear" x1="15.9502" y1="5.15985" x2="72.9282" y2="8.29028" gradientUnits="userSpaceOnUse">
<stop stop-color="#BFA0FF"/>
<stop offset="1" stop-color="#5302FF"/>
</linearGradient>
<linearGradient id="paint5_linear" x1="58.3647" y1="-93.2528" x2="-31.0387" y2="-59.1535" gradientUnits="userSpaceOnUse">
<stop offset="0.324107" stop-color="#C47CFF"/>
<stop offset="0.770418" stop-color="#4C9BE8"/>
<stop offset="1" stop-color="#2AF6FF"/>
</linearGradient>
<linearGradient id="paint6_linear" x1="72.4912" y1="53.1421" x2="76.8684" y2="60.777" gradientUnits="userSpaceOnUse">
<stop stop-color="#311B61"/>
<stop offset="0.2031" stop-color="#290F52"/>
<stop offset="0.4949" stop-color="#200041"/>
<stop offset="1" stop-color="#0F001F"/>
</linearGradient>
<linearGradient id="paint7_linear" x1="69.3174" y1="54.535" x2="71.5156" y2="54.6012" gradientUnits="userSpaceOnUse">
<stop stop-color="#BFA0FF"/>
<stop offset="1" stop-color="#5302FF"/>
</linearGradient>
<linearGradient id="paint8_linear" x1="69.3174" y1="54.535" x2="71.3468" y2="54.5914" gradientUnits="userSpaceOnUse">
<stop stop-color="#FF80DB"/>
<stop offset="1" stop-color="#CF0095"/>
</linearGradient>
<linearGradient id="paint9_linear" x1="7.95215" y1="86.5995" x2="53.4639" y2="133.788" gradientUnits="userSpaceOnUse">
<stop stop-color="#FFB200"/>
<stop offset="1" stop-color="#FF5800"/>
</linearGradient>
<linearGradient id="paint10_linear" x1="7.07324" y1="94.4279" x2="44.4719" y2="125.679" gradientUnits="userSpaceOnUse">
<stop stop-color="#FFB200"/>
<stop offset="1" stop-color="#FF5800"/>
</linearGradient>
<linearGradient id="paint11_linear" x1="7.16992" y1="94.5671" x2="44.3315" y2="125.223" gradientUnits="userSpaceOnUse">
<stop stop-color="#FFB200"/>
<stop offset="1" stop-color="#FF5800"/>
</linearGradient>
<linearGradient id="paint12_linear" x1="7.2998" y1="94.7798" x2="44.2159" y2="124.866" gradientUnits="userSpaceOnUse">
<stop stop-color="#FFB200"/>
<stop offset="1" stop-color="#FF5800"/>
</linearGradient>
<linearGradient id="paint13_linear" x1="7.36621" y1="94.8884" x2="44.0974" y2="124.584" gradientUnits="userSpaceOnUse">
<stop stop-color="#FFB200"/>
<stop offset="1" stop-color="#FF5800"/>
</linearGradient>
<linearGradient id="paint14_linear" x1="7.48828" y1="94.999" x2="43.9869" y2="124.146" gradientUnits="userSpaceOnUse">
<stop stop-color="#FFB200"/>
<stop offset="1" stop-color="#FF5800"/>
</linearGradient>
<linearGradient id="paint15_linear" x1="7.52637" y1="95.1428" x2="43.7911" y2="123.78" gradientUnits="userSpaceOnUse">
<stop stop-color="#FFB200"/>
<stop offset="1" stop-color="#FF5800"/>
</linearGradient>
<linearGradient id="paint16_linear" x1="7.56836" y1="95.2212" x2="43.6674" y2="123.36" gradientUnits="userSpaceOnUse">
<stop stop-color="#FFB200"/>
<stop offset="1" stop-color="#FF5800"/>
</linearGradient>
<linearGradient id="paint17_linear" x1="7.69922" y1="95.3318" x2="43.5751" y2="123.104" gradientUnits="userSpaceOnUse">
<stop stop-color="#FFB200"/>
<stop offset="1" stop-color="#FF5800"/>
</linearGradient>
<linearGradient id="paint18_linear" x1="7.66797" y1="95.4678" x2="43.3597" y2="122.901" gradientUnits="userSpaceOnUse">
<stop stop-color="#FFB200"/>
<stop offset="1" stop-color="#FF5800"/>
</linearGradient>
<linearGradient id="paint19_linear" x1="7.58594" y1="95.5327" x2="43.1995" y2="122.86" gradientUnits="userSpaceOnUse">
<stop stop-color="#FFB200"/>
<stop offset="1" stop-color="#FF5800"/>
</linearGradient>
<linearGradient id="paint20_linear" x1="7.36914" y1="95.6576" x2="42.9896" y2="123.165" gradientUnits="userSpaceOnUse">
<stop stop-color="#FFB200"/>
<stop offset="1" stop-color="#FF5800"/>
</linearGradient>
<linearGradient id="paint21_linear" x1="6.34462" y1="95.738" x2="44.5997" y2="112.615" gradientUnits="userSpaceOnUse">
<stop stop-color="#FE8E27"/>
<stop offset="1" stop-color="#FFCC4A"/>
</linearGradient>
<linearGradient id="paint22_linear" x1="40.9718" y1="102.904" x2="1.89562" y2="29.8535" gradientUnits="userSpaceOnUse">
<stop stop-color="#ABC4FF"/>
<stop offset="1" stop-color="white"/>
</linearGradient>
<radialGradient id="paint23_radial" cx="0" cy="0" r="1" gradientUnits="userSpaceOnUse" gradientTransform="translate(37.9856 22.4333) scale(4.90278 4.86834)">
<stop stop-color="white"/>
<stop offset="1"/>
</radialGradient>
<linearGradient id="paint24_linear" x1="2.4165" y1="-9.95289" x2="38.5813" y2="59.4945" gradientUnits="userSpaceOnUse">
<stop offset="0.010101" stop-color="#9F19AB"/>
<stop offset="0.4293" stop-color="#5F27BD"/>
<stop offset="0.904" stop-color="#3D065F"/>
</linearGradient>
<linearGradient id="paint25_linear" x1="2.43002" y1="-9.68962" x2="38.3393" y2="59.267" gradientUnits="userSpaceOnUse">
<stop offset="0.010101" stop-color="#9F19AB"/>
<stop offset="0.4293" stop-color="#5F27BD"/>
<stop offset="0.904" stop-color="#3D065F"/>
</linearGradient>
<linearGradient id="paint26_linear" x1="2.44393" y1="-9.42605" x2="38.0977" y2="59.0398" gradientUnits="userSpaceOnUse">
<stop offset="0.010101" stop-color="#9F19AB"/>
<stop offset="0.4293" stop-color="#5F27BD"/>
<stop offset="0.904" stop-color="#3D065F"/>
</linearGradient>
<linearGradient id="paint27_linear" x1="2.45524" y1="-9.16233" x2="37.8535" y2="58.8129" gradientUnits="userSpaceOnUse">
<stop offset="0.010101" stop-color="#9F19AB"/>
<stop offset="0.4293" stop-color="#5F27BD"/>
<stop offset="0.904" stop-color="#3D065F"/>
</linearGradient>
<linearGradient id="paint28_linear" x1="2.46686" y1="-8.89836" x2="37.6096" y2="58.5863" gradientUnits="userSpaceOnUse">
<stop offset="0.010101" stop-color="#9F19AB"/>
<stop offset="0.4293" stop-color="#5F27BD"/>
<stop offset="0.904" stop-color="#3D065F"/>
</linearGradient>
<linearGradient id="paint29_linear" x1="2.47764" y1="-8.63401" x2="37.365" y2="58.3603" gradientUnits="userSpaceOnUse">
<stop offset="0.010101" stop-color="#9F19AB"/>
<stop offset="0.4293" stop-color="#5F27BD"/>
<stop offset="0.904" stop-color="#3D065F"/>
</linearGradient>
<linearGradient id="paint30_linear" x1="2.48754" y1="-8.36905" x2="37.1195" y2="58.1348" gradientUnits="userSpaceOnUse">
<stop offset="0.010101" stop-color="#9F19AB"/>
<stop offset="0.4293" stop-color="#5F27BD"/>
<stop offset="0.904" stop-color="#3D065F"/>
</linearGradient>
<linearGradient id="paint31_linear" x1="2.49652" y1="-8.10375" x2="36.8732" y2="57.9099" gradientUnits="userSpaceOnUse">
<stop offset="0.010101" stop-color="#9F19AB"/>
<stop offset="0.4293" stop-color="#5F27BD"/>
<stop offset="0.904" stop-color="#3D065F"/>
</linearGradient>
<linearGradient id="paint32_linear" x1="2.5054" y1="-7.83781" x2="36.6269" y2="57.6856" gradientUnits="userSpaceOnUse">
<stop offset="0.010101" stop-color="#9F19AB"/>
<stop offset="0.4293" stop-color="#5F27BD"/>
<stop offset="0.904" stop-color="#3D065F"/>
</linearGradient>
<linearGradient id="paint33_linear" x1="2.51214" y1="-7.57148" x2="36.3784" y2="57.4619" gradientUnits="userSpaceOnUse">
<stop offset="0.010101" stop-color="#9F19AB"/>
<stop offset="0.4293" stop-color="#5F27BD"/>
<stop offset="0.904" stop-color="#3D065F"/>
</linearGradient>
<linearGradient id="paint34_linear" x1="2.50955" y1="-7.31947" x2="36.1431" y2="57.267" gradientUnits="userSpaceOnUse">
<stop offset="0.010101" stop-color="#9F19AB"/>
<stop offset="0.4293" stop-color="#5F27BD"/>
<stop offset="0.904" stop-color="#3D065F"/>
</linearGradient>
<linearGradient id="paint35_linear" x1="0" y1="21.2042" x2="49.8731" y2="79.473" gradientUnits="userSpaceOnUse">
<stop stop-color="#FFB200"/>
<stop offset="1" stop-color="#FF5800"/>
</linearGradient>
<radialGradient id="paint36_radial" cx="0" cy="0" r="1" gradientUnits="userSpaceOnUse" gradientTransform="translate(29.4699 40.2717) scale(24.8714 24.6968)">
<stop stop-color="white"/>
<stop offset="1"/>
</radialGradient>
<linearGradient id="paint37_linear" x1="20.3478" y1="26.4689" x2="56.5126" y2="95.9163" gradientUnits="userSpaceOnUse">
<stop offset="0.010101" stop-color="#9F19AB"/>
<stop offset="0.4293" stop-color="#5F27BD"/>
<stop offset="0.904" stop-color="#3D065F"/>
</linearGradient>
<linearGradient id="paint38_linear" x1="20.4005" y1="26.7112" x2="56.3098" y2="95.6678" gradientUnits="userSpaceOnUse">
<stop offset="0.010101" stop-color="#9F19AB"/>
<stop offset="0.4293" stop-color="#5F27BD"/>
<stop offset="0.904" stop-color="#3D065F"/>
</linearGradient>
<linearGradient id="paint39_linear" x1="20.4145" y1="26.9747" x2="56.0682" y2="95.4406" gradientUnits="userSpaceOnUse">
<stop offset="0.010101" stop-color="#9F19AB"/>
<stop offset="0.4293" stop-color="#5F27BD"/>
<stop offset="0.904" stop-color="#3D065F"/>
</linearGradient>
<linearGradient id="paint40_linear" x1="20.4267" y1="27.2385" x2="55.8249" y2="95.2138" gradientUnits="userSpaceOnUse">
<stop offset="0.010101" stop-color="#9F19AB"/>
<stop offset="0.4293" stop-color="#5F27BD"/>
<stop offset="0.904" stop-color="#3D065F"/>
</linearGradient>
<linearGradient id="paint41_linear" x1="20.4383" y1="27.5026" x2="55.5811" y2="94.9872" gradientUnits="userSpaceOnUse">
<stop offset="0.010101" stop-color="#9F19AB"/>
<stop offset="0.4293" stop-color="#5F27BD"/>
<stop offset="0.904" stop-color="#3D065F"/>
</linearGradient>
<linearGradient id="paint42_linear" x1="20.4491" y1="27.7669" x2="55.3365" y2="94.7612" gradientUnits="userSpaceOnUse">
<stop offset="0.010101" stop-color="#9F19AB"/>
<stop offset="0.4293" stop-color="#5F27BD"/>
<stop offset="0.904" stop-color="#3D065F"/>
</linearGradient>
<linearGradient id="paint43_linear" x1="20.46" y1="28.0319" x2="55.0921" y2="94.5358" gradientUnits="userSpaceOnUse">
<stop offset="0.010101" stop-color="#9F19AB"/>
<stop offset="0.4293" stop-color="#5F27BD"/>
<stop offset="0.904" stop-color="#3D065F"/>
</linearGradient>
<linearGradient id="paint44_linear" x1="20.4679" y1="28.2972" x2="54.8447" y2="94.3109" gradientUnits="userSpaceOnUse">
<stop offset="0.010101" stop-color="#9F19AB"/>
<stop offset="0.4293" stop-color="#5F27BD"/>
<stop offset="0.904" stop-color="#3D065F"/>
</linearGradient>
<linearGradient id="paint45_linear" x1="20.4768" y1="28.5631" x2="54.5983" y2="94.0866" gradientUnits="userSpaceOnUse">
<stop offset="0.010101" stop-color="#9F19AB"/>
<stop offset="0.4293" stop-color="#5F27BD"/>
<stop offset="0.904" stop-color="#3D065F"/>
</linearGradient>
<linearGradient id="paint46_linear" x1="20.4836" y1="28.8294" x2="54.3499" y2="93.8628" gradientUnits="userSpaceOnUse">
<stop offset="0.010101" stop-color="#9F19AB"/>
<stop offset="0.4293" stop-color="#5F27BD"/>
<stop offset="0.904" stop-color="#3D065F"/>
</linearGradient>
<linearGradient id="paint47_linear" x1="20.481" y1="29.0814" x2="54.1145" y2="93.6679" gradientUnits="userSpaceOnUse">
<stop offset="0.010101" stop-color="#9F19AB"/>
<stop offset="0.4293" stop-color="#5F27BD"/>
<stop offset="0.904" stop-color="#3D065F"/>
</linearGradient>
<linearGradient id="paint48_linear" x1="18" y1="57.6021" x2="64.4504" y2="115.232" gradientUnits="userSpaceOnUse">
<stop stop-color="#FFB200"/>
<stop offset="1" stop-color="#FF5800"/>
</linearGradient>
<radialGradient id="paint49_radial" cx="0" cy="0" r="1" gradientUnits="userSpaceOnUse" gradientTransform="translate(47.4414 76.6725) scale(24.8714 24.6967)">
<stop stop-color="white"/>
<stop offset="1"/>
</radialGradient>
<linearGradient id="paint50_linear" x1="27.9992" y1="98.971" x2="26.883" y2="98.8673" gradientUnits="userSpaceOnUse">
<stop stop-color="white"/>
<stop offset="1" stop-color="#E0F5FD"/>
</linearGradient>
<linearGradient id="paint51_linear" x1="29.6171" y1="100.86" x2="28.4845" y2="100.792" gradientUnits="userSpaceOnUse">
<stop stop-color="white"/>
<stop offset="1" stop-color="#E0F5FD"/>
</linearGradient>
<linearGradient id="paint52_linear" x1="31.2678" y1="100.908" x2="30.151" y2="100.808" gradientUnits="userSpaceOnUse">
<stop stop-color="white"/>
<stop offset="1" stop-color="#E0F5FD"/>
</linearGradient>
<linearGradient id="paint53_linear" x1="32.8772" y1="103.476" x2="31.7538" y2="103.423" gradientUnits="userSpaceOnUse">
<stop stop-color="white"/>
<stop offset="1" stop-color="#E0F5FD"/>
</linearGradient>
<linearGradient id="paint54_linear" x1="34.4875" y1="103.427" x2="33.3663" y2="103.355" gradientUnits="userSpaceOnUse">
<stop stop-color="white"/>
<stop offset="1" stop-color="#E0F5FD"/>
</linearGradient>
<linearGradient id="paint55_linear" x1="36.1034" y1="103.718" x2="34.9758" y2="103.616" gradientUnits="userSpaceOnUse">
<stop stop-color="white"/>
<stop offset="1" stop-color="#E0F5FD"/>
</linearGradient>
<linearGradient id="paint56_linear" x1="37.7561" y1="107.06" x2="36.6318" y2="107.017" gradientUnits="userSpaceOnUse">
<stop stop-color="white"/>
<stop offset="1" stop-color="#E0F5FD"/>
</linearGradient>
<linearGradient id="paint57_linear" x1="39.3645" y1="110.548" x2="38.2392" y2="110.521" gradientUnits="userSpaceOnUse">
<stop stop-color="white"/>
<stop offset="1" stop-color="#E0F5FD"/>
</linearGradient>
<linearGradient id="paint58_linear" x1="40.9748" y1="110.984" x2="39.8497" y2="110.955" gradientUnits="userSpaceOnUse">
<stop stop-color="white"/>
<stop offset="1" stop-color="#E0F5FD"/>
</linearGradient>
<linearGradient id="paint59_linear" x1="42.5927" y1="114.132" x2="41.4564" y2="114.11" gradientUnits="userSpaceOnUse">
<stop stop-color="white"/>
<stop offset="1" stop-color="#E0F5FD"/>
</linearGradient>
<linearGradient id="paint60_linear" x1="44.2434" y1="116.602" x2="43.1178" y2="116.584" gradientUnits="userSpaceOnUse">
<stop stop-color="white"/>
<stop offset="1" stop-color="#E0F5FD"/>
</linearGradient>
<linearGradient id="paint61_linear" x1="45.8528" y1="115.391" x2="44.7273" y2="115.369" gradientUnits="userSpaceOnUse">
<stop stop-color="white"/>
<stop offset="1" stop-color="#E0F5FD"/>
</linearGradient>
<linearGradient id="paint62_linear" x1="47.4631" y1="112.969" x2="46.3386" y2="112.93" gradientUnits="userSpaceOnUse">
<stop stop-color="white"/>
<stop offset="1" stop-color="#E0F5FD"/>
</linearGradient>
<linearGradient id="paint63_linear" x1="49.079" y1="116.215" x2="47.9429" y2="116.188" gradientUnits="userSpaceOnUse">
<stop stop-color="white"/>
<stop offset="1" stop-color="#E0F5FD"/>
</linearGradient>
<linearGradient id="paint64_linear" x1="50.7317" y1="114.762" x2="49.6071" y2="114.723" gradientUnits="userSpaceOnUse">
<stop stop-color="white"/>
<stop offset="1" stop-color="#E0F5FD"/>
</linearGradient>
<linearGradient id="paint65_linear" x1="52.3401" y1="113.212" x2="51.2197" y2="113.133" gradientUnits="userSpaceOnUse">
<stop stop-color="white"/>
<stop offset="1" stop-color="#E0F5FD"/>
</linearGradient>
<linearGradient id="paint66_linear" x1="53.9504" y1="112.97" x2="52.8489" y2="112.806" gradientUnits="userSpaceOnUse">
<stop stop-color="white"/>
<stop offset="1" stop-color="#E0F5FD"/>
</linearGradient>
</defs>
</svg>
