<svg width="30" height="30" viewBox="0 0 30 30" fill="none" xmlns="http://www.w3.org/2000/svg">
<path fill-rule="evenodd" clip-rule="evenodd" d="M29.9611 6.95841C29.9611 -0.23859 18.3867 0.000932879 14.3318 0.000932879C10.2731 0.000932879 0 0.0876894 0 7.28658H7.3724L7.37995 5.48167C7.37995 4.6556 8.28335 3.54474 10.3089 3.54474H19.7635C21.7362 3.54474 22.6623 4.6556 22.6623 5.48167C22.6623 5.77212 22.6774 7.23 22.6774 7.28658H29.9573L29.9611 6.95841Z" fill="url(#paint0_linear)"/>
<path fill-rule="evenodd" clip-rule="evenodd" d="M9.33431 17.4428C9.32885 17.7566 9.19906 18.0554 8.97345 18.2736C8.74784 18.4918 8.44485 18.6115 8.13103 18.6065H6.81649C6.66094 18.6092 6.50638 18.5813 6.36163 18.5243C6.21687 18.4673 6.08477 18.3824 5.97285 18.2743C5.86094 18.1662 5.77141 18.0372 5.70938 17.8945C5.64735 17.7519 5.61403 17.5984 5.61133 17.4428V16.1679C5.61133 15.5247 6.15073 15.0042 6.81649 15.0042H8.13103C8.79491 15.0042 9.33431 15.5247 9.33431 16.1679V17.4428Z" fill="url(#paint1_linear)"/>
<path fill-rule="evenodd" clip-rule="evenodd" d="M24.3988 17.4557C24.3991 17.614 24.3681 17.7707 24.3076 17.917C24.2471 18.0632 24.1583 18.196 24.0463 18.3078C23.9343 18.4196 23.8013 18.5082 23.655 18.5685C23.5087 18.6287 23.3519 18.6595 23.1937 18.659H21.881C21.7229 18.6593 21.5663 18.6283 21.4202 18.5679C21.2741 18.5076 21.1414 18.4189 21.0296 18.3071C20.9178 18.1954 20.8292 18.0626 20.7688 17.9165C20.7084 17.7704 20.6775 17.6138 20.6777 17.4557V16.1412C20.6777 15.4754 21.2152 14.9379 21.881 14.9379H23.1937C23.8613 14.9379 24.3988 15.4754 24.3988 16.1412V17.4557Z" fill="url(#paint2_linear)"/>
<path fill-rule="evenodd" clip-rule="evenodd" d="M16.8754 17.4635C16.8756 17.6216 16.8447 17.7782 16.7843 17.9243C16.7239 18.0704 16.6353 18.2031 16.5235 18.3149C16.4117 18.4267 16.279 18.5153 16.1329 18.5757C15.9868 18.6361 15.8302 18.667 15.6721 18.6668H14.3557C14.1978 18.6668 14.0414 18.6356 13.8955 18.5751C13.7496 18.5146 13.6171 18.426 13.5055 18.3142C13.3939 18.2025 13.3055 18.0698 13.2452 17.9238C13.1849 17.7779 13.1541 17.6214 13.1543 17.4635V16.149C13.1543 15.4832 13.6918 14.9457 14.3557 14.9457H15.6721C16.3379 14.9457 16.8754 15.4832 16.8754 16.149V17.4635Z" fill="url(#paint3_linear)"/>
<path fill-rule="evenodd" clip-rule="evenodd" d="M9.2876 23.0968C9.28884 23.2536 9.25919 23.4091 9.20034 23.5544C9.14149 23.6997 9.05459 23.832 8.94461 23.9437C8.83462 24.0555 8.70371 24.1445 8.55934 24.2056C8.41496 24.2667 8.25996 24.2988 8.10318 24.3001H6.80938C6.65244 24.2991 6.49724 24.2672 6.35265 24.2061C6.20806 24.1451 6.07692 24.0562 5.96674 23.9444C5.85656 23.8326 5.76949 23.7003 5.71052 23.5548C5.65155 23.4094 5.62184 23.2537 5.62308 23.0968V21.7822C5.62308 21.1146 6.15305 20.5771 6.80938 20.5771H8.10318C8.75763 20.5771 9.2876 21.1146 9.2876 21.7822V23.0968Z" fill="url(#paint4_linear)"/>
<path fill-rule="evenodd" clip-rule="evenodd" d="M24.3387 23.1157C24.3404 23.27 24.3117 23.4231 24.2541 23.5662C24.1964 23.7094 24.1111 23.8397 24.003 23.9498C23.8949 24.0598 23.7661 24.1474 23.624 24.2076C23.4819 24.2677 23.3293 24.2991 23.175 24.3001H21.9001C21.7458 24.2991 21.5932 24.2677 21.4511 24.2076C21.309 24.1474 21.1802 24.0598 21.0721 23.9498C20.964 23.8397 20.8786 23.7094 20.821 23.5662C20.7634 23.4231 20.7347 23.27 20.7364 23.1157V21.8219C20.7364 21.1637 21.2551 20.6356 21.9001 20.6356H23.175C23.82 20.6356 24.3387 21.1637 24.3387 21.8219V23.1157Z" fill="url(#paint5_linear)"/>
<path fill-rule="evenodd" clip-rule="evenodd" d="M16.8696 23.1157C16.8689 23.2725 16.8372 23.4276 16.7763 23.572C16.7155 23.7165 16.6267 23.8475 16.515 23.9576C16.4034 24.0676 16.2711 24.1546 16.1258 24.2133C15.9805 24.2721 15.825 24.3016 15.6682 24.3001H14.3537C14.1968 24.3016 14.0412 24.2721 13.8958 24.2134C13.7504 24.1546 13.618 24.0677 13.5062 23.9577C13.3944 23.8477 13.3054 23.7167 13.2444 23.5722C13.1833 23.4277 13.1514 23.2726 13.1504 23.1157V21.8219C13.1504 21.1637 13.6879 20.6356 14.3537 20.6356H15.6682C16.334 20.6356 16.8696 21.1637 16.8696 21.8219V23.1157Z" fill="url(#paint6_linear)"/>
<path fill-rule="evenodd" clip-rule="evenodd" d="M9.34603 28.7759C9.34357 28.9315 9.31049 29.085 9.24869 29.2278C9.18689 29.3706 9.09756 29.4997 8.98583 29.608C8.87409 29.7162 8.74212 29.8014 8.59747 29.8586C8.45281 29.9158 8.2983 29.944 8.14275 29.9415H6.82821C6.6725 29.9442 6.51779 29.9163 6.37291 29.8591C6.22804 29.802 6.09585 29.7169 5.98391 29.6087C5.87197 29.5004 5.78248 29.3711 5.72056 29.2282C5.65864 29.0853 5.6255 28.9317 5.62305 28.7759V27.501C5.62305 26.8579 6.16244 26.3373 6.82821 26.3373H8.14275C8.80663 26.3373 9.34603 26.8579 9.34603 27.501V28.7759Z" fill="url(#paint7_linear)"/>
<path fill-rule="evenodd" clip-rule="evenodd" d="M24.3988 28.7948C24.3991 28.9531 24.3681 29.11 24.3076 29.2563C24.2471 29.4026 24.1584 29.5356 24.0464 29.6475C23.9344 29.7595 23.8015 29.8482 23.6552 29.9087C23.5088 29.9692 23.352 30.0002 23.1937 30H21.881C21.7228 30.0002 21.566 29.9692 21.4198 29.9087C21.2736 29.8482 21.1408 29.7594 21.0289 29.6474C20.9171 29.5354 20.8286 29.4025 20.7683 29.2561C20.708 29.1098 20.6772 28.953 20.6777 28.7948V27.4802C20.6777 26.8145 21.2153 26.277 21.881 26.277H23.1937C23.8613 26.277 24.3988 26.8145 24.3988 27.4802V28.7948Z" fill="url(#paint8_linear)"/>
<path fill-rule="evenodd" clip-rule="evenodd" d="M16.8679 28.7948C16.8699 28.9517 16.8409 29.1075 16.7824 29.2531C16.724 29.3987 16.6373 29.5314 16.5274 29.6434C16.4175 29.7554 16.2865 29.8446 16.142 29.9058C15.9975 29.967 15.8423 29.999 15.6854 30H14.3916C14.2347 29.999 14.0795 29.967 13.935 29.9058C13.7905 29.8446 13.6595 29.7554 13.5496 29.6434C13.4397 29.5314 13.353 29.3987 13.2946 29.2531C13.2361 29.1075 13.2071 28.9517 13.2091 28.7948V27.4802C13.2091 26.8145 13.7353 26.277 14.3916 26.277H15.6854C16.3417 26.277 16.8679 26.8145 16.8679 27.4802V28.7948Z" fill="url(#paint9_linear)"/>
<path fill-rule="evenodd" clip-rule="evenodd" d="M1.79924 11.0961H5.6599C5.6599 11.0961 6.99331 11.5261 7.33279 9.26105H0.0546875C0.369651 11.3602 1.79924 11.0961 1.79924 11.0961Z" fill="url(#paint10_linear)"/>
<path fill-rule="evenodd" clip-rule="evenodd" d="M22.7773 9.26105C23.1715 11.247 24.5936 11.0961 24.5936 11.0961H28.16C28.16 11.0961 29.5896 11.1169 29.9385 9.26105H22.7773Z" fill="url(#paint11_linear)"/>
<defs>
<linearGradient id="paint0_linear" x1="29.9611" y1="7.28658" x2="22.3232" y2="-10.209" gradientUnits="userSpaceOnUse">
<stop stop-color="#86E6FF"/>
<stop offset="1" stop-color="#1A68FF"/>
</linearGradient>
<linearGradient id="paint1_linear" x1="9.33431" y1="18.6067" x2="4.88133" y2="16.043" gradientUnits="userSpaceOnUse">
<stop stop-color="#86E6FF"/>
<stop offset="1" stop-color="#1A68FF"/>
</linearGradient>
<linearGradient id="paint2_linear" x1="24.3988" y1="18.659" x2="19.8764" y2="16.1396" gradientUnits="userSpaceOnUse">
<stop stop-color="#86E6FF"/>
<stop offset="1" stop-color="#1A68FF"/>
</linearGradient>
<linearGradient id="paint3_linear" x1="16.8754" y1="18.6668" x2="12.353" y2="16.1474" gradientUnits="userSpaceOnUse">
<stop stop-color="#86E6FF"/>
<stop offset="1" stop-color="#1A68FF"/>
</linearGradient>
<linearGradient id="paint4_linear" x1="9.28763" y1="24.3001" x2="4.8008" y2="21.8397" gradientUnits="userSpaceOnUse">
<stop stop-color="#86E6FF"/>
<stop offset="1" stop-color="#1A68FF"/>
</linearGradient>
<linearGradient id="paint5_linear" x1="24.3388" y1="24.3001" x2="19.9254" y2="21.8832" gradientUnits="userSpaceOnUse">
<stop stop-color="#86E6FF"/>
<stop offset="1" stop-color="#1A68FF"/>
</linearGradient>
<linearGradient id="paint6_linear" x1="16.8696" y1="24.3002" x2="12.3814" y2="21.7626" gradientUnits="userSpaceOnUse">
<stop stop-color="#86E6FF"/>
<stop offset="1" stop-color="#1A68FF"/>
</linearGradient>
<linearGradient id="paint7_linear" x1="9.34603" y1="29.9417" x2="4.89189" y2="27.3787" gradientUnits="userSpaceOnUse">
<stop stop-color="#86E6FF"/>
<stop offset="1" stop-color="#1A68FF"/>
</linearGradient>
<linearGradient id="paint8_linear" x1="24.3988" y1="30" x2="19.8753" y2="27.4812" gradientUnits="userSpaceOnUse">
<stop stop-color="#86E6FF"/>
<stop offset="1" stop-color="#1A68FF"/>
</linearGradient>
<linearGradient id="paint9_linear" x1="16.868" y1="30" x2="12.3849" y2="27.5453" gradientUnits="userSpaceOnUse">
<stop stop-color="#86E6FF"/>
<stop offset="1" stop-color="#1A68FF"/>
</linearGradient>
<linearGradient id="paint10_linear" x1="7.33279" y1="11.1287" x2="5.30395" y2="6.72424" gradientUnits="userSpaceOnUse">
<stop stop-color="#86E6FF"/>
<stop offset="1" stop-color="#1A68FF"/>
</linearGradient>
<linearGradient id="paint11_linear" x1="29.9385" y1="11.0988" x2="27.9421" y2="6.76496" gradientUnits="userSpaceOnUse">
<stop stop-color="#86E6FF"/>
<stop offset="1" stop-color="#1A68FF"/>
</linearGradient>
</defs>
</svg>
