<svg width="34" height="30" viewBox="0 0 34 30" fill="none" xmlns="http://www.w3.org/2000/svg">
<path d="M26.1876 0H15.8794C15.227 0 14.6004 0.259737 14.1388 0.721356L0.721049 14.1366C-0.24035 15.098 -0.24035 16.6564 0.721049 17.6191L11.0293 27.9273C11.9907 28.8887 13.5491 28.8887 14.5105 27.9273L27.9283 14.5121C28.3899 14.0492 28.6496 13.4226 28.6496 12.769V2.46197C28.6496 1.10173 27.5479 0 26.1876 0ZM21.8792 8.61689C20.8599 8.61689 20.0327 7.78967 20.0327 6.77041C20.0327 5.75116 20.8599 4.92394 21.8792 4.92394C22.8985 4.92394 23.7257 5.75116 23.7257 6.77041C23.7257 7.78967 22.8985 8.61689 21.8792 8.61689Z" fill="url(#paint0_linear)"/>
<path d="M31.1116 2.46191L31.1103 13.9211C31.1103 14.4886 30.8851 15.034 30.4825 15.4353L16.8481 29.0696L17.0574 29.2789C18.0188 30.2403 19.5772 30.2403 20.5386 29.2789L32.8509 16.9691C33.3138 16.5074 33.5735 15.8809 33.5735 15.2284V4.92388C33.5735 3.56364 32.4718 2.46191 31.1116 2.46191Z" fill="url(#paint1_linear)"/>
<defs>
<linearGradient id="paint0_linear" x1="-0.725307" y1="1.71838e-08" x2="33.8297" y2="19.4411" gradientUnits="userSpaceOnUse">
<stop stop-color="#FE8E27"/>
<stop offset="1" stop-color="#FFCC4A"/>
</linearGradient>
<linearGradient id="paint1_linear" x1="16.4247" y1="2.46191" x2="40.2064" y2="10.5879" gradientUnits="userSpaceOnUse">
<stop stop-color="#FE8E27"/>
<stop offset="1" stop-color="#FFCC4A"/>
</linearGradient>
</defs>
</svg>
