<svg width="33" height="30" viewBox="0 0 33 30" fill="none" xmlns="http://www.w3.org/2000/svg">
<path d="M8.99603 12.0909H7.95803C6.54152 12.0397 5.1296 12.2802 3.8099 12.7974C2.4902 13.3146 1.29087 14.0975 0.286346 15.0975L0 15.4316V25.3106H4.86788V19.7029L5.52409 18.9632L5.82237 18.6172C7.3757 17.0214 9.30956 15.8472 11.4419 15.2049C10.3743 14.3926 9.53232 13.3206 8.99603 12.0909Z" fill="url(#paint0_linear)"/>
<path d="M32.0703 15.0623C31.0658 14.0622 29.8665 13.2793 28.5467 12.7621C27.227 12.2449 25.8151 12.0044 24.3986 12.0556C23.9642 12.0569 23.5301 12.0808 23.0981 12.1272C22.5518 13.2808 21.7328 14.2841 20.7119 15.0503C22.9883 15.6801 25.0505 16.9174 26.6775 18.6297L26.9757 18.9637L27.62 19.7035V25.323H32.3209V15.3963L32.0703 15.0623Z" fill="url(#paint1_linear)"/>
<path d="M7.92231 9.76463H8.29217C8.12032 8.28905 8.37924 6.79526 9.03766 5.46359C9.69609 4.13191 10.7259 3.01928 12.0027 2.25998C11.5399 1.55289 10.9013 0.978117 10.1496 0.591955C9.39788 0.205793 8.55876 0.0214799 7.71439 0.0570623C6.87003 0.0926446 6.04938 0.346903 5.33281 0.794941C4.61624 1.24298 4.02831 1.86943 3.62659 2.61296C3.22487 3.35649 3.02314 4.19161 3.04115 5.03653C3.05916 5.88145 3.29629 6.70721 3.72932 7.43295C4.16235 8.15868 4.77644 8.75952 5.51145 9.17662C6.24646 9.59372 7.0772 9.81278 7.92231 9.81236V9.76463Z" fill="url(#paint2_linear)"/>
<path d="M23.8265 8.8698C23.841 9.14402 23.841 9.41882 23.8265 9.69305C24.0555 9.72934 24.2867 9.74928 24.5185 9.7527H24.7452C25.5866 9.70784 26.4021 9.44587 27.1122 8.99231C27.8223 8.53875 28.4028 7.90905 28.7973 7.16451C29.1918 6.41998 29.3868 5.58598 29.3633 4.74371C29.3398 3.90145 29.0986 3.07962 28.6632 2.35824C28.2278 1.63686 27.613 1.04051 26.8788 0.627248C26.1445 0.213986 25.3157 -0.00210419 24.4731 1.54446e-05C23.6305 0.00213507 22.8028 0.222392 22.0706 0.639344C21.3384 1.05629 20.7267 1.65573 20.2949 2.37929C21.3748 3.08434 22.2627 4.04643 22.8791 5.17924C23.4955 6.31206 23.821 7.58016 23.8265 8.8698Z" fill="url(#paint3_linear)"/>
<path d="M15.9992 14.215C18.9447 14.215 21.3324 11.8272 21.3324 8.88178C21.3324 5.93634 18.9447 3.54858 15.9992 3.54858C13.0538 3.54858 10.666 5.93634 10.666 8.88178C10.666 11.8272 13.0538 14.215 15.9992 14.215Z" fill="url(#paint4_linear)"/>
<path d="M16.2862 17.0544C14.728 16.9915 13.1732 17.2444 11.7154 17.7981C10.2576 18.3517 8.92679 19.1945 7.80316 20.2758L7.50488 20.6099V28.1622C7.50954 28.4082 7.56261 28.6509 7.66108 28.8764C7.75954 29.1019 7.90146 29.3058 8.07874 29.4764C8.25601 29.647 8.46516 29.781 8.69425 29.8708C8.92333 29.9606 9.16785 30.0044 9.41386 29.9996H23.1227C23.3687 30.0044 23.6132 29.9606 23.8423 29.8708C24.0714 29.781 24.2805 29.647 24.4578 29.4764C24.6351 29.3058 24.777 29.1019 24.8754 28.8764C24.9739 28.6509 25.027 28.4082 25.0316 28.1622V20.6337L24.7453 20.2758C23.6289 19.1912 22.3028 18.346 20.8482 17.792C19.3936 17.2381 17.8412 16.9871 16.2862 17.0544Z" fill="url(#paint5_linear)"/>
<defs>
<linearGradient id="paint0_linear" x1="-0.289669" y1="12.0842" x2="14.3996" y2="19.2332" gradientUnits="userSpaceOnUse">
<stop stop-color="#FE8E27"/>
<stop offset="1" stop-color="#FFCC4A"/>
</linearGradient>
<linearGradient id="paint1_linear" x1="20.418" y1="12.0489" x2="35.2592" y2="19.351" gradientUnits="userSpaceOnUse">
<stop stop-color="#FE8E27"/>
<stop offset="1" stop-color="#FFCC4A"/>
</linearGradient>
<linearGradient id="paint2_linear" x1="2.81314" y1="0.0527344" x2="14.0465" y2="5.85647" gradientUnits="userSpaceOnUse">
<stop stop-color="#FE8E27"/>
<stop offset="1" stop-color="#FFCC4A"/>
</linearGradient>
<linearGradient id="paint3_linear" x1="20.0653" y1="5.84985e-09" x2="31.3725" y2="5.9162" gradientUnits="userSpaceOnUse">
<stop stop-color="#FE8E27"/>
<stop offset="1" stop-color="#FFCC4A"/>
</linearGradient>
<linearGradient id="paint4_linear" x1="10.396" y1="3.54858" x2="23.2613" y2="10.7864" gradientUnits="userSpaceOnUse">
<stop stop-color="#FE8E27"/>
<stop offset="1" stop-color="#FFCC4A"/>
</linearGradient>
<linearGradient id="paint5_linear" x1="7.06117" y1="17.0437" x2="24.6846" y2="30.456" gradientUnits="userSpaceOnUse">
<stop stop-color="#FE8E27"/>
<stop offset="1" stop-color="#FFCC4A"/>
</linearGradient>
</defs>
</svg>
