<svg width="32" height="30" viewBox="0 0 32 30" fill="none" xmlns="http://www.w3.org/2000/svg">
<path d="M31.2353 16.5L29.4706 18.2647L25.8529 14.6471L27.6176 12.8824C27.7991 12.7045 28.043 12.6049 28.2971 12.6049C28.5511 12.6049 28.795 12.7045 28.9765 12.8824L31.2353 15.1412C31.6059 15.5118 31.6059 16.1294 31.2353 16.5ZM14.1176 26.3647L24.8118 15.6706L28.4294 19.2882L17.7529 30H14.1176V26.3647ZM14.1176 17.6471C6.31765 17.6471 0 20.8059 0 24.7059V28.2353H10.5882V24.9L17.6471 17.8412C16.4824 17.7 15.3 17.6471 14.1176 17.6471ZM14.1176 0C12.2455 0 10.4501 0.743695 9.12631 2.06748C7.80252 3.39127 7.05882 5.18671 7.05882 7.05882C7.05882 8.93094 7.80252 10.7264 9.12631 12.0502C10.4501 13.374 12.2455 14.1176 14.1176 14.1176C15.9898 14.1176 17.7852 13.374 19.109 12.0502C20.4328 10.7264 21.1765 8.93094 21.1765 7.05882C21.1765 5.18671 20.4328 3.39127 19.109 2.06748C17.7852 0.743695 15.9898 0 14.1176 0Z" fill="url(#paint0_linear)"/>
<defs>
<linearGradient id="paint0_linear" x1="-0.757914" y1="5.17462e-07" x2="34.4029" y2="21.1944" gradientUnits="userSpaceOnUse">
<stop stop-color="#02C34D"/>
<stop offset="1" stop-color="#91FF8C"/>
</linearGradient>
</defs>
</svg>
