<svg width="230" height="332" viewBox="0 0 230 332" fill="none" xmlns="http://www.w3.org/2000/svg">
<path fill-rule="evenodd" clip-rule="evenodd" d="M185.599 12.0859C185.599 12.0859 205.846 47.9874 218.633 58.6512L217.745 60.2508C217.745 60.2508 200.695 45.8547 184.355 12.9746L185.599 12.0859Z" fill="url(#paint0_linear)"/>
<path fill-rule="evenodd" clip-rule="evenodd" d="M96.085 288.99C96.085 288.99 100.703 302.497 108.517 304.097C116.332 305.696 125.035 286.324 125.035 286.324L96.085 288.99Z" fill="url(#paint1_linear)"/>
<path fill-rule="evenodd" clip-rule="evenodd" d="M155.76 281.703C155.76 281.703 159.489 296.632 168.192 297.343C176.895 298.054 183.111 279.925 183.111 279.925L155.76 281.703Z" fill="url(#paint2_linear)"/>
<path fill-rule="evenodd" clip-rule="evenodd" d="M160.378 291.833C160.378 291.833 166.062 285.079 181.513 284.369L183.289 279.925L155.938 281.703C155.76 281.703 157.714 287.745 160.378 291.833Z" fill="url(#paint3_linear)"/>
<path fill-rule="evenodd" clip-rule="evenodd" d="M97.1506 291.478C97.1506 291.478 111.537 290.412 120.417 295.033L125.035 286.146L96.085 288.812L97.1506 291.478Z" fill="url(#paint4_linear)"/>
<path fill-rule="evenodd" clip-rule="evenodd" d="M195.189 79.268C195.366 80.8676 196.965 263.752 195.189 268.551C192.702 276.015 188.262 280.103 182.046 280.814C181.335 280.814 99.1036 290.411 95.1963 290.411C89.5129 290.589 82.231 286.146 80.455 278.859C78.3237 269.262 53.2812 94.3751 53.814 88.8655C54.5245 81.7563 58.6094 78.0239 65.5361 75.8912C66.0689 75.7134 67.3121 75.358 76.5476 74.2916C99.4588 71.8034 179.914 64.3387 183.644 65.2273C189.683 66.6492 194.478 73.0475 195.189 79.268Z" fill="url(#paint5_linear)"/>
<path fill-rule="evenodd" clip-rule="evenodd" d="M181.869 278.326C181.159 278.326 100.525 286.146 96.7957 286.146C91.2899 286.324 84.3633 282.058 82.5872 274.949C80.456 265.529 54.8807 95.4415 55.4135 90.2873C56.1239 83.5335 58.0776 81.0453 64.8266 79.0903C65.3594 78.9125 69.622 77.8462 78.5023 76.7798C100.525 74.2916 178.317 67.1824 181.869 68.071C187.375 69.3151 191.815 74.2916 192.525 80.6898C192.703 82.1117 194.302 261.619 192.881 266.418C191.105 273.883 187.908 277.615 181.869 278.326Z" fill="url(#paint6_linear)"/>
<path fill-rule="evenodd" clip-rule="evenodd" d="M191.636 79.6231C191.814 81.5782 192.169 111.259 192.347 146.45C192.524 181.996 192.524 223.229 192.347 247.223C192.347 259.131 192.169 266.773 191.814 267.484C190.748 270.861 188.262 276.548 181.69 277.259C178.316 277.615 100.347 284.902 96.9723 284.902C93.2426 284.902 88.092 282.236 86.316 277.259C86.1384 276.904 86.1384 276.548 85.9608 276.193C83.6519 266.418 72.1075 194.97 63.9376 143.606C59.3198 114.458 55.9453 91.5311 56.1229 90.2869C56.6557 85.666 59.3198 81.045 65.7136 79.0899C72.1075 77.3126 179.737 68.0707 182.934 68.7816C187.196 69.848 191.104 74.6467 191.636 79.6231Z" fill="url(#paint7_linear)"/>
<path fill-rule="evenodd" clip-rule="evenodd" d="M179.915 270.861C175.297 271.394 100.703 278.326 97.8608 278.326C95.5519 278.326 91.467 276.193 90.579 272.638C87.5597 259.842 62.6948 105.572 62.162 96.8633C61.8068 93.4864 63.5828 86.9104 68.5558 85.4886C68.911 85.4886 70.3319 85.1331 78.1465 84.2445C106.031 81.2231 175.297 75.358 180.803 75.5357C183.112 76.2466 185.953 79.4457 186.309 82.8226C187.019 90.9982 188.44 256.11 187.73 264.107C186.309 268.373 183.112 270.506 179.915 270.861Z" fill="url(#paint8_linear)"/>
<path opacity="0.5" fill-rule="evenodd" clip-rule="evenodd" d="M191.637 79.6231C191.814 81.5782 192.169 111.259 192.347 146.45L64.1153 143.606C59.4975 114.458 56.123 91.5311 56.3006 90.2869C56.8335 85.666 59.4975 81.045 65.8914 79.0899C72.2852 77.3126 179.915 68.0707 183.111 68.7816C187.196 69.848 191.104 74.6467 191.637 79.6231Z" fill="url(#paint9_linear)"/>
<path fill-rule="evenodd" clip-rule="evenodd" d="M67.1357 160.668L85.074 146.628L98.2168 136.141L117.221 108.06L118.819 107.882L99.4601 135.608L96.2632 139.341L93.0662 140.94L67.491 162.979L67.1357 160.668Z" fill="url(#paint10_radial)"/>
<path fill-rule="evenodd" clip-rule="evenodd" d="M59.1436 112.148L85.7845 101.307L104.256 98.2852H117.931L117.398 99.707L104.256 98.8183L85.7845 101.84L59.3212 113.392L59.1436 112.148Z" fill="url(#paint11_radial)"/>
<path fill-rule="evenodd" clip-rule="evenodd" d="M126.456 91.5313L124.503 84.7776L113.313 74.2915L114.912 74.1138L123.615 83.3557L125.391 84.0667V85.4885L126.634 89.3986L128.765 90.8204L126.456 91.5313Z" fill="url(#paint12_radial)"/>
<path fill-rule="evenodd" clip-rule="evenodd" d="M123.437 110.193L124.148 130.81L121.484 165.467L83.4759 230.872L78.5029 234.071L79.0357 236.914L88.0937 225.184L122.194 165.289L124.858 130.632L125.036 110.015L124.148 110.548L123.437 110.193Z" fill="url(#paint13_radial)"/>
<path fill-rule="evenodd" clip-rule="evenodd" d="M131.429 107.882L141.019 115.169L160.556 134.72L192.348 154.448L192.525 153.381L177.429 143.606L174.232 142.717L161.267 133.831L133.382 106.638L132.85 107.705L131.429 107.882Z" fill="url(#paint14_radial)"/>
<path fill-rule="evenodd" clip-rule="evenodd" d="M137.468 99.8846H143.329L154.873 97.9296L181.514 98.8182L191.993 96.8632L191.815 93.8418L187.375 96.6855L180.804 98.1073L155.228 97.0409L144.217 98.6405L138.533 99.3514L137.468 99.8846Z" fill="url(#paint15_radial)"/>
<path fill-rule="evenodd" clip-rule="evenodd" d="M117.398 109.837L121.306 116.947L123.792 123.878L125.035 121.39L121.128 115.702L117.931 109.126L117.398 109.837Z" fill="url(#paint16_radial)"/>
<path fill-rule="evenodd" clip-rule="evenodd" d="M102.303 131.52L104.612 131.698L117.399 144.139L122.727 149.649L123.083 147.338L118.287 144.139L104.967 131.343L102.836 130.099L102.303 131.52Z" fill="url(#paint17_radial)"/>
<path fill-rule="evenodd" clip-rule="evenodd" d="M96.2637 139.341L108.518 148.05L110.65 149.827L122.549 157.292L122.727 153.915H120.951L110.827 149.294L101.237 142.184L98.2173 137.03L96.2637 139.341Z" fill="url(#paint18_radial)"/>
<path fill-rule="evenodd" clip-rule="evenodd" d="M104.967 98.1076L119.353 88.6879L123.26 83.5337L123.793 83.8892L120.241 87.7992L119.175 89.0433L109.052 95.9748L107.276 98.2853L104.967 98.1076Z" fill="url(#paint19_radial)"/>
<path fill-rule="evenodd" clip-rule="evenodd" d="M108.873 99.1738L113.136 101.307L117.931 103.262L117.753 102.195L113.313 101.307L109.939 99.1738H108.873Z" fill="url(#paint20_radial)"/>
<path fill-rule="evenodd" clip-rule="evenodd" d="M123.26 153.026L125.391 153.381L138.178 147.516L160.557 134.72L162.866 136.142L159.136 137.03L138.178 147.872L122.904 155.87L123.26 153.026Z" fill="url(#paint21_radial)"/>
<path fill-rule="evenodd" clip-rule="evenodd" d="M151.144 97.9297L158.959 101.307L162.688 100.773L169.26 97.5742L169.97 98.1074L165.885 100.418L162.333 101.307L158.781 101.662L151.677 99.707L147.77 99.1738L151.144 97.9297Z" fill="url(#paint22_radial)"/>
<path fill-rule="evenodd" clip-rule="evenodd" d="M57.5444 119.791C57.5444 119.791 54.8803 120.857 56.1235 134.009C57.3668 147.161 62.695 157.647 62.695 157.647L57.5444 119.791Z" fill="#0D0F2D"/>
<path fill-rule="evenodd" clip-rule="evenodd" d="M63.05 160.668C63.05 160.668 61.2739 162.623 61.8067 167.6C62.3396 172.576 63.7604 176.486 65.3589 176.842L63.05 160.668Z" fill="#0D0F2D"/>
<path fill-rule="evenodd" clip-rule="evenodd" d="M149.366 67.5379L146.88 45.4993C146.88 45.4993 153.629 41.5893 160.023 43.8998L159.49 66.827L149.366 67.5379Z" fill="url(#paint23_linear)"/>
<path d="M185.954 11.9084C184.888 12.2638 183.822 13.5079 182.757 13.8634C180.625 11.5529 178.317 9.42013 175.83 7.64283C173.876 6.22099 171.745 4.97688 169.614 4.26596C167.66 3.37731 165.351 3.02184 163.398 3.55504C161.622 4.08823 160.201 5.86553 159.135 7.82056C158.069 9.77559 157.359 12.0861 156.826 14.5743C155.583 19.373 155.05 24.1717 154.695 29.1482C154.34 34.1246 154.34 39.1011 154.517 43.8998L150.965 44.0775C150.788 38.9233 150.965 33.9469 151.32 28.7927C151.676 23.6385 152.386 18.6621 153.629 13.6857C154.34 11.1974 155.05 8.70921 156.293 6.22099C157.004 4.97688 157.714 3.9105 158.78 2.84411C159.845 1.77773 161.089 0.889082 162.687 0.533622C165.706 -0.355029 168.548 0.178161 171.035 1.24454C173.521 2.31092 175.83 3.55504 177.961 5.15461C180.803 7.28737 183.467 9.06467 185.954 11.9084Z" fill="url(#paint24_linear)"/>
<path opacity="0.5" fill-rule="evenodd" clip-rule="evenodd" d="M192.347 247.223C192.347 259.131 192.17 266.773 191.814 267.484C190.749 270.861 188.262 276.548 181.691 277.259C178.316 277.615 100.347 284.901 96.9728 284.901C93.243 284.901 88.0925 282.236 86.3164 277.259L192.347 247.223Z" fill="url(#paint25_linear)"/>
<path fill-rule="evenodd" clip-rule="evenodd" d="M77.2594 139.518C77.2594 139.518 80.8115 130.454 90.2246 126.011C90.2246 126.011 92.8887 127.61 92.8887 131.698C92.8887 131.698 84.7189 132.231 79.9235 141.118C79.9235 141.118 76.549 141.296 77.2594 139.518Z" fill="#625375"/>
<path fill-rule="evenodd" clip-rule="evenodd" d="M174.054 128.855C174.054 128.855 168.548 120.679 158.425 118.546C158.425 118.546 156.116 120.679 157.181 124.589C157.181 124.589 165.351 123.345 171.923 130.988C171.745 130.988 175.12 130.277 174.054 128.855Z" fill="#625375"/>
<path opacity="0.5" fill-rule="evenodd" clip-rule="evenodd" d="M123.082 172.932C124.503 185.017 115.622 196.037 103.545 197.459C91.4678 198.88 80.4562 189.994 79.0354 177.908C78.6802 175.42 78.8578 172.932 79.3906 170.621C81.3443 161.557 88.9813 154.448 98.5721 153.382C107.808 152.315 116.333 157.114 120.418 164.934C121.838 167.422 122.727 170.088 123.082 172.932Z" fill="url(#paint26_linear)"/>
<path fill-rule="evenodd" clip-rule="evenodd" d="M122.904 171.688C124.325 183.773 115.445 194.793 103.367 196.214C91.2901 197.636 80.2785 188.75 78.8577 176.664C78.5024 174.176 78.68 171.688 79.2129 169.377C81.1665 160.313 88.8036 153.204 98.3943 152.137C107.63 151.071 116.155 155.87 120.24 163.69C121.838 166 122.549 168.666 122.904 171.688Z" fill="url(#paint27_linear)"/>
<path fill-rule="evenodd" clip-rule="evenodd" d="M122.549 171.687C123.792 183.062 115.622 193.193 104.256 194.437C92.8889 195.681 82.7653 187.505 81.5221 176.131C81.5221 175.597 81.5221 175.242 81.3445 174.709C80.8117 163.867 88.8039 154.448 99.6379 153.203C108.696 152.137 116.866 157.114 120.595 164.934C121.661 167.066 122.372 169.377 122.549 171.687Z" fill="url(#paint28_linear)"/>
<path fill-rule="evenodd" clip-rule="evenodd" d="M115.977 174.709C116.687 181.64 111.892 188.039 105.143 188.75C98.3938 189.46 92.3552 184.484 91.4672 177.375C90.7568 170.443 95.5521 164.045 102.301 163.334C109.228 162.623 115.266 167.777 115.977 174.709Z" fill="url(#paint29_linear)"/>
<path fill-rule="evenodd" clip-rule="evenodd" d="M112.78 176.131C113.313 180.574 110.116 184.662 105.854 185.195C101.591 185.728 97.6837 182.352 97.1509 177.908C96.6181 173.465 99.815 169.377 104.078 168.844C108.34 168.311 112.247 171.688 112.78 176.131Z" fill="url(#paint30_radial)"/>
<path fill-rule="evenodd" clip-rule="evenodd" d="M118.642 175.42C118.82 177.019 117.754 178.619 115.978 178.797C114.379 178.974 112.959 177.73 112.781 176.131C112.603 174.531 113.669 172.931 115.445 172.754C117.044 172.576 118.464 173.82 118.642 175.42Z" fill="white"/>
<path fill-rule="evenodd" clip-rule="evenodd" d="M97.1511 184.306C97.3287 185.551 96.4407 186.795 95.0199 186.972C93.7766 187.15 92.5334 186.084 92.5334 184.84C92.3558 183.596 93.2438 182.351 94.487 182.174C95.9079 181.996 96.9735 183.062 97.1511 184.306Z" fill="white"/>
<path opacity="0.5" fill-rule="evenodd" clip-rule="evenodd" d="M120.418 163.512V164.401C120.418 164.401 115.622 155.87 101.769 156.581C88.4485 157.114 79.9234 168.488 79.3906 169.199C81.3443 160.135 88.9814 153.026 98.5721 151.96C107.808 151.071 116.333 155.87 120.418 163.512Z" fill="url(#paint31_linear)"/>
<path fill-rule="evenodd" clip-rule="evenodd" d="M98.0391 196.037C98.0391 196.037 100.17 197.992 103.545 197.458C106.919 196.925 108.163 194.97 108.163 194.97C108.163 194.97 104.255 196.57 98.0391 196.037Z" fill="#847696"/>
<path opacity="0.5" fill-rule="evenodd" clip-rule="evenodd" d="M142.263 170.799C143.684 182.884 154.518 191.771 166.773 190.349C178.85 188.927 187.731 178.086 186.31 165.822C185.954 163.334 185.422 161.024 184.356 158.891C180.449 150.538 171.568 145.206 161.8 146.272C152.564 147.338 145.283 153.914 142.974 162.268C142.086 165.111 141.908 167.955 142.263 170.799Z" fill="url(#paint32_linear)"/>
<path opacity="0.3" fill-rule="evenodd" clip-rule="evenodd" d="M144.927 179.33C146.525 194.259 157.714 205.279 169.969 203.857C182.046 202.435 190.571 189.283 188.973 174.354C188.618 171.332 187.907 168.488 186.842 165.822C182.757 155.514 173.699 148.76 163.93 149.827C154.695 150.893 147.591 158.713 145.459 169.022C144.749 172.398 144.571 175.775 144.927 179.33Z" fill="url(#paint33_linear)"/>
<path fill-rule="evenodd" clip-rule="evenodd" d="M141.908 174.887C143.506 189.816 155.228 200.658 167.838 199.413C180.448 197.992 189.506 184.84 187.73 169.91C187.375 166.889 186.665 164.045 185.599 161.379C181.336 151.071 171.923 144.495 161.8 145.561C152.209 146.628 144.75 154.448 142.441 164.756C141.73 167.777 141.375 171.154 141.908 174.887Z" fill="url(#paint34_radial)"/>
<path fill-rule="evenodd" clip-rule="evenodd" d="M142.086 169.555C143.506 181.64 154.34 190.527 166.595 189.105C178.673 187.683 187.553 176.842 186.132 164.578C185.777 162.09 185.244 159.78 184.178 157.647C180.271 149.293 171.391 143.962 161.622 145.028C152.387 146.094 145.105 152.67 142.796 161.024C142.086 163.69 141.73 166.533 142.086 169.555Z" fill="url(#paint35_linear)"/>
<path fill-rule="evenodd" clip-rule="evenodd" d="M183.468 164.934C184.711 176.308 176.542 186.439 165.175 187.683C153.808 188.927 143.684 180.752 142.441 169.377C142.264 167.066 142.264 164.578 142.796 162.445C142.796 162.268 142.796 162.268 142.796 162.09C142.796 161.912 142.796 161.912 142.796 161.734C144.928 153.737 151.677 147.516 160.557 146.45C171.391 145.205 181.337 152.848 183.113 163.512C183.113 163.689 183.113 163.867 183.113 164.045C183.468 164.4 183.468 164.756 183.468 164.934Z" fill="url(#paint36_linear)"/>
<path fill-rule="evenodd" clip-rule="evenodd" d="M149.545 170.976C150.256 177.908 156.472 183.062 163.221 182.351C169.97 181.64 174.765 175.242 174.055 168.31C173.344 161.379 167.128 156.225 160.379 156.936C153.63 157.824 148.657 164.045 149.545 170.976Z" fill="url(#paint37_linear)"/>
<path fill-rule="evenodd" clip-rule="evenodd" d="M152.919 170.977C153.452 175.42 157.359 178.797 161.622 178.264C165.885 177.73 169.081 173.82 168.549 169.199C168.016 164.756 164.108 161.379 159.846 161.912C155.406 162.446 152.386 166.533 152.919 170.977Z" fill="url(#paint38_radial)"/>
<path fill-rule="evenodd" clip-rule="evenodd" d="M169.082 165.645C169.26 167.244 170.681 168.488 172.279 168.311C173.878 168.133 175.121 166.711 174.943 164.934C174.766 163.334 173.345 162.09 171.746 162.268C170.148 162.446 168.905 164.045 169.082 165.645Z" fill="white"/>
<path fill-rule="evenodd" clip-rule="evenodd" d="M152.031 178.264C152.209 179.508 153.275 180.574 154.518 180.396C155.761 180.219 156.649 179.152 156.649 177.73C156.471 176.486 155.406 175.42 154.163 175.598C152.742 175.775 151.854 177.019 152.031 178.264Z" fill="white"/>
<path opacity="0.5" fill-rule="evenodd" clip-rule="evenodd" d="M142.796 161.024L142.974 161.912C142.974 161.912 145.815 152.493 159.491 150.182C172.634 147.872 183.468 157.114 184.178 157.647C180.271 149.293 171.39 143.962 161.622 145.028C152.387 146.094 145.105 152.67 142.796 161.024Z" fill="url(#paint39_linear)"/>
<path fill-rule="evenodd" clip-rule="evenodd" d="M162.155 189.105C162.155 189.105 164.109 189.994 167.128 189.816C170.148 189.816 171.746 187.683 171.746 187.683C171.746 187.683 165.175 189.46 162.155 189.105Z" fill="#4C3C60"/>
<path d="M152.564 36.4347C152.209 33.2356 152.209 30.0364 152.386 26.8373C152.564 23.6382 152.919 20.439 153.629 17.4176C154.34 14.3962 155.228 11.197 156.826 8.35336C157.537 6.93152 158.425 5.68741 159.668 4.4433C160.734 3.37692 161.977 2.31053 163.398 1.77734C160.556 3.37692 158.602 5.86514 157.359 8.70882C155.938 11.5525 155.05 14.5739 154.517 17.5953C153.807 20.6167 153.452 23.8159 153.097 27.015C152.919 30.0364 152.741 33.2356 152.564 36.4347Z" fill="url(#paint40_linear)"/>
<path fill-rule="evenodd" clip-rule="evenodd" d="M156.294 43.3662L155.938 67.0043L157.537 66.8266L159.313 43.5439L156.294 43.3662Z" fill="url(#paint41_linear)"/>
<path fill-rule="evenodd" clip-rule="evenodd" d="M64.6484 147.872C64.6484 147.872 79.0345 224.296 80.4554 245.445L64.6484 147.872Z" fill="url(#paint42_linear)"/>
<path fill-rule="evenodd" clip-rule="evenodd" d="M58.0775 104.328C58.0775 104.328 57.1895 93.1309 57.1895 90.6427C57.3671 84.4222 62.5177 81.4008 66.0698 80.1566C69.6219 78.9125 91.6451 76.2466 91.6451 76.2466C91.6451 76.2466 68.9115 78.3793 65.8922 79.268C62.5177 80.3344 56.3015 83.0003 56.3015 90.465C56.1238 94.9083 58.0775 104.328 58.0775 104.328Z" fill="url(#paint43_linear)"/>
<path fill-rule="evenodd" clip-rule="evenodd" d="M57.0117 86.1995C57.0117 86.1995 61.6295 83.0004 64.4712 79.6235C64.4712 79.6235 59.3206 80.8676 57.0117 86.1995Z" fill="#CDC6E0"/>
<path fill-rule="evenodd" clip-rule="evenodd" d="M81.5215 251.844C81.5215 251.844 85.6064 274.415 87.5601 277.792C89.5138 281.169 93.4211 283.835 96.7956 283.835C100.17 284.013 125.923 282.591 125.923 282.591C125.923 282.591 99.2821 285.079 96.0852 285.079C92.8883 285.079 88.4481 282.413 86.4945 277.615C84.3632 272.46 81.5215 251.844 81.5215 251.844Z" fill="url(#paint44_linear)"/>
<path fill-rule="evenodd" clip-rule="evenodd" d="M83.1201 276.015C83.1201 276.015 83.6529 286.324 95.1973 288.101C95.1973 288.101 176.896 280.281 184.356 278.681C191.815 277.082 193.058 266.596 193.058 266.596C193.058 266.596 191.282 276.193 184 277.97C177.251 279.57 100.703 287.035 94.8421 286.324C88.9811 285.257 84.541 280.814 83.1201 276.015Z" fill="url(#paint45_linear)"/>
<path fill-rule="evenodd" clip-rule="evenodd" d="M120.773 165.112C116.333 165.822 98.3948 169.199 81.5222 175.775C81.5222 175.42 81.5222 175.064 81.5222 174.887C80.9894 164.045 88.9817 154.625 99.8157 153.381C108.696 152.493 117.043 157.291 120.773 165.112Z" fill="url(#paint46_radial)"/>
<path opacity="0.5" fill-rule="evenodd" clip-rule="evenodd" d="M120.417 163.512V164.401C120.417 164.401 115.621 155.87 101.768 156.58C88.4476 157.114 79.9225 168.488 79.3896 169.199C81.3433 160.135 88.9804 153.026 98.5711 151.959C107.807 150.893 116.332 155.87 120.417 163.512Z" fill="url(#paint47_linear)"/>
<path opacity="0.5" fill-rule="evenodd" clip-rule="evenodd" d="M121.838 167.777C121.838 167.777 91.4674 172.576 82.2319 179.863C81.8767 178.441 81.6991 177.197 81.5215 176.131C81.5215 176.131 106.564 167.066 121.483 165.289L121.838 167.777Z" fill="url(#paint48_linear)"/>
<path fill-rule="evenodd" clip-rule="evenodd" d="M120.773 165.111L121.128 165.645C121.128 165.645 105.676 168.666 81.6996 176.308V175.597C81.522 175.597 98.9274 168.133 120.773 165.111Z" fill="url(#paint49_linear)"/>
<path fill-rule="evenodd" clip-rule="evenodd" d="M107.984 167.6C107.984 167.6 97.3278 167.955 91.4668 172.043L107.984 167.6Z" fill="#B48EC1"/>
<path fill-rule="evenodd" clip-rule="evenodd" d="M107.274 162.623C107.452 163.512 106.741 164.223 105.853 164.4C104.965 164.578 104.255 163.867 104.077 162.979C103.9 162.09 104.61 161.379 105.498 161.201C106.386 161.024 107.097 161.734 107.274 162.623Z" fill="white"/>
<path fill-rule="evenodd" clip-rule="evenodd" d="M183.289 163.69C164.463 160.846 145.814 161.912 142.973 161.912C142.973 161.912 142.973 161.912 142.973 161.735C145.104 153.737 151.853 147.516 160.733 146.45C171.567 145.383 181.513 153.026 183.289 163.69Z" fill="url(#paint50_radial)"/>
<path opacity="0.5" fill-rule="evenodd" clip-rule="evenodd" d="M142.796 161.024L142.974 161.912C142.974 161.912 145.815 152.493 159.491 150.182C172.634 147.872 183.468 157.114 184.178 157.647C180.093 149.293 171.213 143.962 161.622 145.028C152.387 146.094 145.105 152.67 142.796 161.024Z" fill="url(#paint51_linear)"/>
<path opacity="0.5" fill-rule="evenodd" clip-rule="evenodd" d="M142.796 164.756C142.796 164.756 172.989 162.801 183.645 167.955C183.645 166.356 183.645 165.467 183.468 164.045C183.468 164.045 157.715 160.668 142.618 162.268L142.796 164.756Z" fill="url(#paint52_linear)"/>
<path fill-rule="evenodd" clip-rule="evenodd" d="M183.29 164.223C159.136 162.268 143.506 162.446 142.796 162.623L142.974 162.268V162.09C162.155 160.49 179.205 162.979 183.29 163.69C183.29 163.867 183.29 164.045 183.29 164.223Z" fill="#19105B"/>
<path fill-rule="evenodd" clip-rule="evenodd" d="M180.803 264.107C180.803 264.107 174.409 260.553 181.158 234.249C189.15 202.968 199.096 175.42 199.096 175.42L180.803 264.107Z" fill="url(#paint53_linear)"/>
<path fill-rule="evenodd" clip-rule="evenodd" d="M156.648 161.557C156.648 161.557 166.95 159.78 173.699 162.446L156.648 161.557Z" fill="#5C5095"/>
<path fill-rule="evenodd" clip-rule="evenodd" d="M155.405 157.291C155.583 158.18 156.293 158.713 157.181 158.713C158.069 158.536 158.602 157.825 158.602 156.936C158.425 156.047 157.714 155.514 156.826 155.514C155.938 155.692 155.228 156.403 155.405 157.291Z" fill="#7784FF"/>
<path fill-rule="evenodd" clip-rule="evenodd" d="M146.702 179.863L180.803 177.375C180.803 177.375 176.718 186.617 164.818 187.683C152.386 188.927 146.702 179.863 146.702 179.863Z" fill="url(#paint54_radial)"/>
<path fill-rule="evenodd" clip-rule="evenodd" d="M146.703 179.863L146.17 179.152L181.158 176.842L180.803 177.375C180.803 177.553 153.629 179.685 146.703 179.863Z" fill="#19105B"/>
<path fill-rule="evenodd" clip-rule="evenodd" d="M157.182 179.33C157.182 179.33 157.714 179.863 159.313 179.863C160.911 179.863 161.622 178.975 161.622 178.975L157.182 179.33Z" fill="#7784FF"/>
<path opacity="0.5" fill-rule="evenodd" clip-rule="evenodd" d="M125.567 203.857C125.567 203.857 140.309 202.257 142.44 202.079C142.44 202.079 134.981 199.769 125.567 203.857Z" fill="url(#paint55_linear)"/>
<path fill-rule="evenodd" clip-rule="evenodd" d="M125.567 203.857C125.567 203.857 135.336 194.792 139.065 195.859C142.795 196.925 142.44 202.079 142.44 202.079C142.44 202.079 136.757 200.124 125.567 203.857Z" fill="url(#paint56_linear)"/>
<path fill-rule="evenodd" clip-rule="evenodd" d="M151.142 124.411L136.578 115.703L127.876 116.769L124.146 132.054L123.258 124.411L113.667 119.08L105.32 126.722L100.347 133.12L109.227 119.08L112.957 108.949L103.011 99.8847L90.9336 100.418L102.656 97.3965L109.405 92.42L117.397 86.0218L122.547 80.1567L119.883 76.9575L124.324 79.9789L126.277 80.6899L129.119 87.2659L134.269 87.0881L140.663 89.5764L137.999 89.9318L138.354 93.8419L142.439 97.041L153.984 97.9297L149.544 100.24L144.215 106.638L140.841 108.949L151.142 124.411Z" fill="url(#paint57_radial)"/>
<path fill-rule="evenodd" clip-rule="evenodd" d="M132.316 202.08C132.316 202.08 133.737 202.968 136.046 202.613C138.355 202.257 139.243 201.546 139.243 201.546C139.243 201.546 135.513 201.546 132.316 202.08Z" fill="#847696"/>
<path fill-rule="evenodd" clip-rule="evenodd" d="M195.9 175.064C195.9 175.064 227.514 197.458 229.823 218.253C231.599 234.604 207.622 243.135 207.622 243.135L206.557 233.538C206.557 233.538 218.989 226.784 219.7 219.142C220.765 208.655 207.8 193.726 195.9 185.195V175.064Z" fill="url(#paint58_linear)"/>
<path fill-rule="evenodd" clip-rule="evenodd" d="M206.734 233.538L196.077 230.694C196.077 230.694 199.807 243.846 199.096 253.088L207.799 243.135C207.622 243.135 207.977 236.026 206.734 233.538Z" fill="url(#paint59_linear)"/>
<path fill-rule="evenodd" clip-rule="evenodd" d="M187.019 227.495C187.019 227.495 174.409 222.341 156.116 221.452L154.34 227.317L165.707 234.426L187.019 227.495Z" fill="url(#paint60_linear)"/>
<path fill-rule="evenodd" clip-rule="evenodd" d="M196.078 230.694C196.078 230.694 190.572 228.206 186.309 226.961L163.043 235.315L166.417 265.707C166.417 265.707 187.02 262.685 198.919 254.154C198.919 254.154 200.163 241.18 196.078 230.694Z" fill="url(#paint61_linear)"/>
<path fill-rule="evenodd" clip-rule="evenodd" d="M163.043 235.315L138 240.114L136.935 241.713C136.935 241.713 136.757 245.446 137.467 248.289L133.383 249.889C133.383 249.889 132.672 254.332 134.448 260.019L140.487 261.974L141.02 266.418C141.02 266.418 152.564 267.662 166.417 265.707L163.043 235.315Z" fill="url(#paint62_linear)"/>
<path fill-rule="evenodd" clip-rule="evenodd" d="M163.042 235.315L160.2 235.848L137.999 240.114L136.934 241.535L161.266 238.87L162.154 244.557L165.351 265.885L166.416 265.707L163.042 235.315Z" fill="url(#paint63_linear)"/>
<path fill-rule="evenodd" clip-rule="evenodd" d="M133.382 249.711C133.382 249.711 147.058 249.356 159.135 246.868C159.135 246.868 143.15 247.934 137.467 248.112L133.382 249.711Z" fill="url(#paint64_linear)"/>
<path fill-rule="evenodd" clip-rule="evenodd" d="M140.486 261.975C140.486 261.975 148.301 262.863 153.984 262.508C153.984 262.508 145.637 264.641 140.664 263.93L140.486 261.975Z" fill="url(#paint65_linear)"/>
<path fill-rule="evenodd" clip-rule="evenodd" d="M196.788 232.649L207.267 234.959C207.267 234.959 207.8 236.559 207.8 238.514L198.387 237.981L196.788 232.649Z" fill="#FFFFB3"/>
<path opacity="0.93" fill-rule="evenodd" clip-rule="evenodd" d="M184.71 228.206L198.208 237.981L196.787 232.649L188.617 226.961L184.71 228.206Z" fill="url(#paint66_linear)"/>
<path fill-rule="evenodd" clip-rule="evenodd" d="M219.344 221.452C219.344 221.452 221.12 229.45 217.035 238.514L218.989 237.27C218.989 237.27 221.653 229.805 219.877 219.142L219.344 221.452Z" fill="url(#paint67_linear)"/>
<path fill-rule="evenodd" clip-rule="evenodd" d="M214.371 203.679C214.371 203.679 223.251 204.39 229.645 216.12L228.58 212.388C228.58 212.388 224.495 203.857 212.95 201.546L214.371 203.679Z" fill="url(#paint68_linear)"/>
<path fill-rule="evenodd" clip-rule="evenodd" d="M199.63 187.861C199.63 187.861 207.978 186.084 215.615 192.482L209.931 186.617C209.931 186.617 206.202 184.484 197.499 186.084L199.63 187.861Z" fill="url(#paint69_linear)"/>
<path fill-rule="evenodd" clip-rule="evenodd" d="M218.811 241.536L210.996 244.379L209.575 247.223L207.799 247.401L207.089 253.088C207.089 253.088 195.899 262.33 180.98 263.93L196.077 174.887L199.452 173.82L200.872 176.664L203.359 176.309L205.49 179.152L208.154 182.707C207.977 182.885 218.633 217.897 218.811 241.536Z" fill="url(#paint70_linear)"/>
<path fill-rule="evenodd" clip-rule="evenodd" d="M67.3129 190.171C67.3129 190.171 45.1121 215.587 35.3438 272.638L46.5329 275.126C46.5329 275.126 51.1507 231.938 69.2665 203.857L67.3129 190.171Z" fill="url(#paint71_linear)"/>
<path fill-rule="evenodd" clip-rule="evenodd" d="M30.1934 275.304L36.232 268.195C36.232 268.195 42.2706 267.839 47.2436 270.683L50.6181 281.347C50.6181 281.347 37.2976 276.548 30.1934 275.304Z" fill="url(#paint72_linear)"/>
<path fill-rule="evenodd" clip-rule="evenodd" d="M30.1929 275.304C30.1929 275.304 19.3589 285.968 11.8994 297.165L36.7643 306.052L39.606 311.383C39.606 311.383 48.6639 301.786 53.2817 292.544L50.44 281.347C50.6176 281.347 43.5133 275.837 30.1929 275.304Z" fill="url(#paint73_linear)"/>
<path fill-rule="evenodd" clip-rule="evenodd" d="M53.2818 292.544L46.7103 291.122L33.9227 306.229L18.8262 328.09L21.6679 330.578L39.7837 311.206C39.6061 311.383 50.6177 300.186 53.2818 292.544Z" fill="url(#paint74_linear)"/>
<path fill-rule="evenodd" clip-rule="evenodd" d="M38.7188 303.563C38.7188 303.563 43.8693 296.454 47.2439 293.433L52.572 294.321C52.572 294.321 54.5257 309.606 50.4408 324.002L43.1589 324.891L38.7188 303.563Z" fill="url(#paint75_linear)"/>
<path d="M111.004 118.901L117.575 111.259L119.884 114.458L118.641 110.726L119.707 108.771L119.884 110.548L121.127 113.036L120.95 110.904L122.193 110.37L123.436 113.036L124.857 120.679L125.035 111.792L128.054 109.304H131.429L139.421 112.503L135.869 109.126L135.514 107.171L138.533 104.505L143.328 101.128L145.282 99.5289L140.842 100.951L137.467 104.683L134.981 105.572L135.869 103.083L137.29 100.418L142.618 99.8843L146.703 99.3511L141.197 99.1734L136.224 98.2848L134.981 97.0406L132.672 91.8865L126.633 89.3982L125.39 84.0663L123.614 83.3554L121.483 81.0449L123.259 83.5331L122.548 84.4218L120.239 87.7987L123.081 84.2441L123.436 84.0663L124.502 84.7773L125.568 87.4432L125.923 89.576L119.351 88.8651L121.838 89.7537H125.035L125.39 90.4646L123.259 92.2419L119.707 93.1306L115.977 91.7087L118.108 93.1306H118.819L117.753 96.3297L115.977 97.9293L112.425 98.2848L115.977 99.3511L117.043 99.5289L117.753 101.839L117.575 102.55H115.799L117.931 103.261L116.154 107.704L116.687 108.771L111.004 118.901Z" fill="url(#paint76_linear)"/>
<path fill-rule="evenodd" clip-rule="evenodd" d="M18.6486 328.268L14.0309 327.912L10.6564 332C10.6564 332 3.55212 330.934 0.888031 324.891L2.13127 318.848L0 316.182C0 316.182 4.26255 307.296 11.8996 297.165L34.8108 305.341L18.6486 328.268Z" fill="url(#paint77_linear)"/>
<path fill-rule="evenodd" clip-rule="evenodd" d="M21.4895 330.934L15.4509 329.157L10.6556 332L8.34668 331.467C8.34668 331.467 17.5822 312.983 25.2193 304.63C25.2193 304.63 18.115 316.716 14.9181 326.491L18.4702 328.268L21.4895 330.934Z" fill="url(#paint78_linear)"/>
<path fill-rule="evenodd" clip-rule="evenodd" d="M2.13107 318.848C2.13107 318.848 6.39362 308.718 11.5442 302.853C11.5442 302.853 4.61755 309.429 1.06543 317.604L2.13107 318.848Z" fill="url(#paint79_linear)"/>
<path fill-rule="evenodd" clip-rule="evenodd" d="M44.0467 269.261L42.4482 277.437C42.4482 277.437 46.8884 279.036 48.1316 279.925L45.8228 270.15L44.0467 269.261Z" fill="#FFFFB3"/>
<path opacity="0.93" fill-rule="evenodd" clip-rule="evenodd" d="M44.9347 292.189L42.4482 277.437L48.1316 279.925L49.1973 291.833L46.7108 291.3L44.9347 292.189Z" fill="url(#paint80_linear)"/>
<path fill-rule="evenodd" clip-rule="evenodd" d="M37.2971 262.152C37.2971 262.152 39.0731 252.733 52.9264 242.602L52.3936 244.202C52.3936 244.202 42.0924 253.266 36.2314 266.951L37.2971 262.152Z" fill="url(#paint81_linear)"/>
<path fill-rule="evenodd" clip-rule="evenodd" d="M44.7559 234.604C44.7559 234.604 50.6169 226.784 58.6091 225.007L58.9644 223.94C58.9644 223.94 52.7481 224.118 45.8215 231.405L44.7559 234.604Z" fill="url(#paint82_linear)"/>
<path fill-rule="evenodd" clip-rule="evenodd" d="M56.1241 207.589C56.1241 207.589 61.4523 204.212 68.2013 205.279L67.3133 206.523C67.3133 206.523 60.7419 205.279 54.8809 209.722L56.1241 207.589Z" fill="url(#paint83_linear)"/>
<path d="M128.764 90.8203L119.529 94.0195L117.397 99.7068L117.93 103.261L117.22 108.06L120.594 107.705L120.949 110.015L122.37 109.837L124.146 110.548L128.409 108.238L132.849 107.705L136.224 100.418L138.532 99.3514L134.98 98.6404L128.764 90.8203Z" fill="#2B2445"/>
<path d="M80.8114 151.426L80.6338 150.005L92.8886 140.229L98.2168 136.142V137.03L101.591 142.362L96.2631 139.341L93.0662 140.94L80.8114 151.426Z" fill="url(#paint84_radial)"/>
<path d="M88.0934 225.184L87.5605 223.94L101.414 199.947L103.368 198.347L88.0934 225.184Z" fill="url(#paint85_radial)"/>
<path d="M127.521 152.315L126.811 154.092L138.888 147.516V147.161L138.177 147.516L127.521 152.315Z" fill="url(#paint86_radial)"/>
<path opacity="0.3" fill-rule="evenodd" clip-rule="evenodd" d="M207.8 243.135L209.398 247.401L207.622 247.578L206.912 253.266C206.912 253.266 195.723 262.508 180.804 264.107L195.9 175.064L199.275 173.998L183.823 258.42C183.823 258.42 198.032 257.709 205.313 252.377L200.873 176.842L203.36 176.486L207.8 243.135Z" fill="url(#paint87_linear)"/>
<path opacity="0.3" fill-rule="evenodd" clip-rule="evenodd" d="M218.811 241.536L210.818 244.557L205.312 179.33L212.062 239.936L218.811 241.536Z" fill="url(#paint88_linear)"/>
<path opacity="0.3" fill-rule="evenodd" clip-rule="evenodd" d="M172.278 264.64C172.278 264.64 183.645 247.934 187.197 227.495L181.336 262.152C181.159 261.974 176.008 264.285 172.278 264.64Z" fill="url(#paint89_linear)"/>
<path d="M147.413 121.568L160.556 134.72L157.359 136.497L153.452 140.052L159.135 137.03L162.865 136.142L175.83 144.317L174.232 142.718L161.266 133.831L147.413 121.568Z" fill="url(#paint90_radial)"/>
<path fill-rule="evenodd" clip-rule="evenodd" d="M183.468 13.5078C183.468 13.5078 191.282 24.3493 191.993 39.6341L194.124 39.4564C194.124 39.4564 193.591 25.5934 184.889 12.4414L183.468 13.5078Z" fill="url(#paint91_linear)"/>
<defs>
<linearGradient id="paint0_linear" x1="184.355" y1="12.0859" x2="223.513" y2="16.4484" gradientUnits="userSpaceOnUse">
<stop stop-color="#BFA0FF"/>
<stop offset="1" stop-color="#5302FF"/>
</linearGradient>
<linearGradient id="paint1_linear" x1="110.608" y1="304.135" x2="110.472" y2="286.401" gradientUnits="userSpaceOnUse">
<stop offset="0.00558659" stop-color="#241142"/>
<stop offset="0.9946" stop-color="#2D2645"/>
</linearGradient>
<linearGradient id="paint2_linear" x1="168.756" y1="297.277" x2="169.552" y2="279.263" gradientUnits="userSpaceOnUse">
<stop offset="0.00558659" stop-color="#241142"/>
<stop offset="0.9946" stop-color="#2D2645"/>
</linearGradient>
<linearGradient id="paint3_linear" x1="155.234" y1="279.925" x2="171.5" y2="300.953" gradientUnits="userSpaceOnUse">
<stop stop-color="#FE8E27"/>
<stop offset="1" stop-color="#FFCC4A"/>
</linearGradient>
<linearGradient id="paint4_linear" x1="95.3521" y1="286.146" x2="105.898" y2="305.474" gradientUnits="userSpaceOnUse">
<stop stop-color="#FE8E27"/>
<stop offset="1" stop-color="#FFCC4A"/>
</linearGradient>
<linearGradient id="paint5_linear" x1="53.8057" y1="65.1543" x2="216.69" y2="81.2518" gradientUnits="userSpaceOnUse">
<stop stop-color="#BFA0FF"/>
<stop offset="1" stop-color="#5302FF"/>
</linearGradient>
<linearGradient id="paint6_linear" x1="55.4053" y1="67.9946" x2="213.524" y2="83.6588" gradientUnits="userSpaceOnUse">
<stop stop-color="#FF80DB"/>
<stop offset="1" stop-color="#CF0095"/>
</linearGradient>
<linearGradient id="paint7_linear" x1="145.647" y1="281.3" x2="122.48" y2="72.6866" gradientUnits="userSpaceOnUse">
<stop offset="0.00558659" stop-color="#241142"/>
<stop offset="0.9946" stop-color="#2D2645"/>
</linearGradient>
<linearGradient id="paint8_linear" x1="187.923" y1="278.326" x2="8.95055" y2="216.474" gradientUnits="userSpaceOnUse">
<stop stop-color="#86E6FF"/>
<stop offset="1" stop-color="#1A68FF"/>
</linearGradient>
<linearGradient id="paint9_linear" x1="59.4773" y1="120.476" x2="194.486" y2="105.504" gradientUnits="userSpaceOnUse">
<stop stop-color="#484848"/>
<stop offset="1" stop-color="#3D2632"/>
</linearGradient>
<radialGradient id="paint10_radial" cx="0" cy="0" r="1" gradientUnits="userSpaceOnUse" gradientTransform="translate(127.421 99.9886) rotate(-6.33698) scale(38.588 38.6143)">
<stop stop-color="#866C61"/>
<stop offset="0.5944" stop-color="#5B4E70"/>
<stop offset="0.9811" stop-color="#5B4E70"/>
</radialGradient>
<radialGradient id="paint11_radial" cx="0" cy="0" r="1" gradientUnits="userSpaceOnUse" gradientTransform="translate(127.421 99.9905) rotate(-6.33698) scale(38.5882 38.6144)">
<stop stop-color="#866C61"/>
<stop offset="0.5944" stop-color="#5B4E70"/>
<stop offset="0.9811" stop-color="#5B4E70"/>
</radialGradient>
<radialGradient id="paint12_radial" cx="0" cy="0" r="1" gradientUnits="userSpaceOnUse" gradientTransform="translate(127.421 99.9889) rotate(-6.33698) scale(38.5862 38.6125)">
<stop stop-color="#866C61"/>
<stop offset="0.5944" stop-color="#5B4E70"/>
<stop offset="0.9811" stop-color="#5B4E70"/>
</radialGradient>
<radialGradient id="paint13_radial" cx="0" cy="0" r="1" gradientUnits="userSpaceOnUse" gradientTransform="translate(127.422 99.9885) rotate(-6.33699) scale(38.5873 38.6136)">
<stop stop-color="#866C61"/>
<stop offset="0.5944" stop-color="#5B4E70"/>
<stop offset="0.9811" stop-color="#5B4E70"/>
</radialGradient>
<radialGradient id="paint14_radial" cx="0" cy="0" r="1" gradientUnits="userSpaceOnUse" gradientTransform="translate(127.421 99.9888) rotate(-6.33699) scale(38.5864 38.6127)">
<stop stop-color="#866C61"/>
<stop offset="0.5944" stop-color="#5B4E70"/>
<stop offset="0.9811" stop-color="#5B4E70"/>
</radialGradient>
<radialGradient id="paint15_radial" cx="0" cy="0" r="1" gradientUnits="userSpaceOnUse" gradientTransform="translate(127.421 99.9877) rotate(-6.33699) scale(38.5864 38.6127)">
<stop stop-color="#866C61"/>
<stop offset="0.5944" stop-color="#5B4E70"/>
<stop offset="0.9811" stop-color="#5B4E70"/>
</radialGradient>
<radialGradient id="paint16_radial" cx="0" cy="0" r="1" gradientUnits="userSpaceOnUse" gradientTransform="translate(127.422 99.9889) rotate(-6.33699) scale(38.5862 38.6125)">
<stop stop-color="#866C61"/>
<stop offset="0.5944" stop-color="#5B4E70"/>
<stop offset="0.9811" stop-color="#5B4E70"/>
</radialGradient>
<radialGradient id="paint17_radial" cx="0" cy="0" r="1" gradientUnits="userSpaceOnUse" gradientTransform="translate(127.238 98.3232) rotate(-6.33699) scale(39.8643 39.8915)">
<stop stop-color="#866C61"/>
<stop offset="0.5944" stop-color="#5B4E70"/>
<stop offset="0.9811" stop-color="#5B4E70"/>
</radialGradient>
<radialGradient id="paint18_radial" cx="0" cy="0" r="1" gradientUnits="userSpaceOnUse" gradientTransform="translate(126.929 95.5291) rotate(-6.33699) scale(43.5535 43.5833)">
<stop stop-color="#866C61"/>
<stop offset="0.5944" stop-color="#5B4E70"/>
<stop offset="0.9811" stop-color="#5B4E70"/>
</radialGradient>
<radialGradient id="paint19_radial" cx="0" cy="0" r="1" gradientUnits="userSpaceOnUse" gradientTransform="translate(127.421 99.99) rotate(-6.33699) scale(38.588 38.6143)">
<stop stop-color="#866C61"/>
<stop offset="0.5944" stop-color="#5B4E70"/>
<stop offset="0.9811" stop-color="#5B4E70"/>
</radialGradient>
<radialGradient id="paint20_radial" cx="0" cy="0" r="1" gradientUnits="userSpaceOnUse" gradientTransform="translate(127.421 99.9892) rotate(-6.33697) scale(38.5877 38.6139)">
<stop stop-color="#866C61"/>
<stop offset="0.5944" stop-color="#5B4E70"/>
<stop offset="0.9811" stop-color="#5B4E70"/>
</radialGradient>
<radialGradient id="paint21_radial" cx="0" cy="0" r="1" gradientUnits="userSpaceOnUse" gradientTransform="translate(127.422 99.9844) rotate(-6.33698) scale(38.5889 38.6151)">
<stop stop-color="#866C61"/>
<stop offset="0.5944" stop-color="#5B4E70"/>
<stop offset="0.9811" stop-color="#5B4E70"/>
</radialGradient>
<radialGradient id="paint22_radial" cx="0" cy="0" r="1" gradientUnits="userSpaceOnUse" gradientTransform="translate(127.421 99.988) rotate(-6.33698) scale(38.5866 38.6128)">
<stop stop-color="#866C61"/>
<stop offset="0.5944" stop-color="#5B4E70"/>
<stop offset="0.9811" stop-color="#5B4E70"/>
</radialGradient>
<linearGradient id="paint23_linear" x1="148.027" y1="55.9955" x2="161.199" y2="54.5348" gradientUnits="userSpaceOnUse">
<stop offset="0.00558659" stop-color="#241142"/>
<stop offset="0.9946" stop-color="#2D2645"/>
</linearGradient>
<linearGradient id="paint24_linear" x1="148.518" y1="23.1917" x2="187.29" y2="18.8919" gradientUnits="userSpaceOnUse">
<stop offset="0.00558659" stop-color="#241142"/>
<stop offset="0.9946" stop-color="#2D2645"/>
</linearGradient>
<linearGradient id="paint25_linear" x1="85.8867" y1="273.518" x2="193.892" y2="261.541" gradientUnits="userSpaceOnUse">
<stop stop-color="#540068"/>
<stop offset="1" stop-color="#81899A"/>
</linearGradient>
<linearGradient id="paint26_linear" x1="103.54" y1="197.482" x2="98.6483" y2="153.433" gradientUnits="userSpaceOnUse">
<stop stop-color="#3D2632"/>
<stop offset="1"/>
</linearGradient>
<linearGradient id="paint27_linear" x1="103.386" y1="196.098" x2="98.4945" y2="152.049" gradientUnits="userSpaceOnUse">
<stop offset="0.00558659" stop-color="#241142"/>
<stop offset="1" stop-color="#161030"/>
</linearGradient>
<linearGradient id="paint28_linear" x1="104.353" y1="194.477" x2="99.7937" y2="153.424" gradientUnits="userSpaceOnUse">
<stop stop-color="#FFD5CD"/>
<stop offset="1" stop-color="#92D0FF"/>
</linearGradient>
<linearGradient id="paint29_linear" x1="90.8046" y1="163.269" x2="119.503" y2="179.157" gradientUnits="userSpaceOnUse">
<stop stop-color="#02C34D"/>
<stop offset="1" stop-color="#91FF8C"/>
</linearGradient>
<radialGradient id="paint30_radial" cx="0" cy="0" r="1" gradientUnits="userSpaceOnUse" gradientTransform="translate(105.928 183.692) rotate(-6.33603) scale(11.826 12.2891)">
<stop offset="0.00558659" stop-color="#31600A"/>
<stop offset="0.3406" stop-color="#2E5D0C"/>
<stop offset="0.6007" stop-color="#265314"/>
<stop offset="0.8349" stop-color="#184322"/>
<stop offset="1" stop-color="#0A322F"/>
</radialGradient>
<linearGradient id="paint31_linear" x1="78.5113" y1="161.807" x2="119.728" y2="157.236" gradientUnits="userSpaceOnUse">
<stop stop-color="#89114B"/>
<stop offset="1" stop-color="#AE8EFF"/>
</linearGradient>
<linearGradient id="paint32_linear" x1="166.696" y1="190.466" x2="161.804" y2="146.417" gradientUnits="userSpaceOnUse">
<stop stop-color="#3D2632"/>
<stop offset="1"/>
</linearGradient>
<linearGradient id="paint33_linear" x1="188.916" y1="174.509" x2="144.896" y2="179.391" gradientUnits="userSpaceOnUse">
<stop stop-color="#540068"/>
<stop offset="1" stop-color="#81899A"/>
</linearGradient>
<radialGradient id="paint34_radial" cx="0" cy="0" r="1" gradientUnits="userSpaceOnUse" gradientTransform="translate(166.121 182.634) rotate(173.658) scale(20.4229 16.6829)">
<stop stop-color="#423C5A"/>
<stop offset="0.9944" stop-color="#281445"/>
</radialGradient>
<linearGradient id="paint35_linear" x1="166.542" y1="189.081" x2="161.65" y2="145.032" gradientUnits="userSpaceOnUse">
<stop offset="0.00558659" stop-color="#241142"/>
<stop offset="1" stop-color="#161030"/>
</linearGradient>
<linearGradient id="paint36_linear" x1="165.249" y1="187.712" x2="160.69" y2="146.659" gradientUnits="userSpaceOnUse">
<stop stop-color="#FFD5CD"/>
<stop offset="1" stop-color="#92D0FF"/>
</linearGradient>
<linearGradient id="paint37_linear" x1="148.849" y1="156.87" x2="177.567" y2="172.792" gradientUnits="userSpaceOnUse">
<stop stop-color="#02C34D"/>
<stop offset="1" stop-color="#91FF8C"/>
</linearGradient>
<radialGradient id="paint38_radial" cx="0" cy="0" r="1" gradientUnits="userSpaceOnUse" gradientTransform="translate(161.266 176.828) rotate(173.664) scale(11.826 12.2891)">
<stop offset="0.00558659" stop-color="#31600A"/>
<stop offset="0.3406" stop-color="#2E5D0C"/>
<stop offset="0.6007" stop-color="#265314"/>
<stop offset="0.8349" stop-color="#184322"/>
<stop offset="1" stop-color="#0A322F"/>
</radialGradient>
<linearGradient id="paint39_linear" x1="183.298" y1="150.167" x2="142.082" y2="154.738" gradientUnits="userSpaceOnUse">
<stop stop-color="#89114B"/>
<stop offset="1" stop-color="#AE8EFF"/>
</linearGradient>
<linearGradient id="paint40_linear" x1="158.84" y1="169.903" x2="63.6879" y2="86.0453" gradientUnits="userSpaceOnUse">
<stop stop-color="#ABC4FF"/>
<stop offset="1" stop-color="white"/>
</linearGradient>
<linearGradient id="paint41_linear" x1="157.931" y1="158.036" x2="113.49" y2="140.623" gradientUnits="userSpaceOnUse">
<stop stop-color="#ABC4FF"/>
<stop offset="1" stop-color="white"/>
</linearGradient>
<linearGradient id="paint42_linear" x1="78.063" y1="245.766" x2="67.1577" y2="147.569" gradientUnits="userSpaceOnUse">
<stop offset="0.00558659" stop-color="#352251"/>
<stop offset="1" stop-color="#85819D"/>
</linearGradient>
<linearGradient id="paint43_linear" x1="75.9077" y1="102.367" x2="73.2156" y2="78.126" gradientUnits="userSpaceOnUse">
<stop offset="0.00558659" stop-color="#352251"/>
<stop offset="1" stop-color="#85819D"/>
</linearGradient>
<linearGradient id="paint44_linear" x1="83.4793" y1="269.387" x2="123.908" y2="264.904" gradientUnits="userSpaceOnUse">
<stop stop-color="#85819D"/>
<stop offset="0.9944" stop-color="#352251"/>
</linearGradient>
<linearGradient id="paint45_linear" x1="83.8028" y1="282.943" x2="193.541" y2="270.773" gradientUnits="userSpaceOnUse">
<stop offset="0.00558659" stop-color="#EA1938"/>
<stop offset="1" stop-color="#FF226F"/>
</linearGradient>
<radialGradient id="paint46_radial" cx="0" cy="0" r="1" gradientUnits="userSpaceOnUse" gradientTransform="translate(94.9685 162.538) rotate(-6.33698) scale(21.1371 21.1515)">
<stop stop-color="#B8A6A6"/>
<stop offset="0.9829" stop-color="#7858A9"/>
</radialGradient>
<linearGradient id="paint47_linear" x1="78.5005" y1="161.76" x2="119.717" y2="157.189" gradientUnits="userSpaceOnUse">
<stop stop-color="#89114B"/>
<stop offset="1" stop-color="#AE8EFF"/>
</linearGradient>
<linearGradient id="paint48_linear" x1="102.374" y1="177.781" x2="101.252" y2="167.673" gradientUnits="userSpaceOnUse">
<stop stop-color="#89114B"/>
<stop offset="1" stop-color="#AE8EFF"/>
</linearGradient>
<linearGradient id="paint49_linear" x1="121.35" y1="168.406" x2="81.1904" y2="172.86" gradientUnits="userSpaceOnUse">
<stop offset="0.00558659" stop-color="#7D4890"/>
<stop offset="1" stop-color="#423C5A"/>
</linearGradient>
<radialGradient id="paint50_radial" cx="0" cy="0" r="1" gradientUnits="userSpaceOnUse" gradientTransform="translate(157.075 155.291) rotate(-6.33699) scale(20.8535 20.8677)">
<stop stop-color="#57489B"/>
<stop offset="0.9829" stop-color="#30276D"/>
</radialGradient>
<linearGradient id="paint51_linear" x1="183.262" y1="150.123" x2="142.046" y2="154.694" gradientUnits="userSpaceOnUse">
<stop stop-color="#89114B"/>
<stop offset="1" stop-color="#AE8EFF"/>
</linearGradient>
<linearGradient id="paint52_linear" x1="163.693" y1="170.029" x2="162.58" y2="160.008" gradientUnits="userSpaceOnUse">
<stop stop-color="#89114B"/>
<stop offset="1" stop-color="#AE8EFF"/>
</linearGradient>
<linearGradient id="paint53_linear" x1="172.189" y1="260.315" x2="207.725" y2="179.293" gradientUnits="userSpaceOnUse">
<stop stop-color="#7851A7"/>
<stop offset="1" stop-color="#7966A0"/>
</linearGradient>
<radialGradient id="paint54_radial" cx="0" cy="0" r="1" gradientUnits="userSpaceOnUse" gradientTransform="translate(159.719 182.615) rotate(-6.33698) scale(16.8877 16.8992)">
<stop stop-color="#57489B"/>
<stop offset="0.9829" stop-color="#30276D"/>
</radialGradient>
<linearGradient id="paint55_linear" x1="133.971" y1="203.002" x2="133.82" y2="201.641" gradientUnits="userSpaceOnUse">
<stop stop-color="#3D2632"/>
<stop offset="1"/>
</linearGradient>
<linearGradient id="paint56_linear" x1="134.016" y1="202.997" x2="133.278" y2="196.355" gradientUnits="userSpaceOnUse">
<stop offset="0.00558659" stop-color="#241142"/>
<stop offset="1" stop-color="#161030"/>
</linearGradient>
<radialGradient id="paint57_radial" cx="0" cy="0" r="1" gradientUnits="userSpaceOnUse" gradientTransform="translate(123.063 104.326) rotate(-6.33699) scale(29.5895 29.6097)">
<stop stop-color="#683B55"/>
<stop offset="0.1886" stop-color="#4F2D40"/>
<stop offset="0.5498" stop-color="#24151E"/>
<stop offset="0.8325" stop-color="#0A0608"/>
<stop offset="1"/>
</radialGradient>
<linearGradient id="paint58_linear" x1="195.9" y1="175.064" x2="235.003" y2="178.123" gradientUnits="userSpaceOnUse">
<stop stop-color="#BFA0FF"/>
<stop offset="1" stop-color="#5302FF"/>
</linearGradient>
<linearGradient id="paint59_linear" x1="203.84" y1="252.626" x2="201.339" y2="230.104" gradientUnits="userSpaceOnUse">
<stop offset="0.0171145" stop-color="#7858A9"/>
<stop offset="1" stop-color="#B8A6A6"/>
</linearGradient>
<linearGradient id="paint60_linear" x1="177.386" y1="235.382" x2="162.013" y2="216.635" gradientUnits="userSpaceOnUse">
<stop offset="0.00558659" stop-color="#463360"/>
<stop offset="1" stop-color="#423C5A"/>
</linearGradient>
<linearGradient id="paint61_linear" x1="162.176" y1="226.961" x2="204.851" y2="249.75" gradientUnits="userSpaceOnUse">
<stop stop-color="#02C34D"/>
<stop offset="1" stop-color="#91FF8C"/>
</linearGradient>
<linearGradient id="paint62_linear" x1="164.723" y1="267.093" x2="140.757" y2="237.867" gradientUnits="userSpaceOnUse">
<stop offset="0.00558659" stop-color="#352251"/>
<stop offset="1" stop-color="#423C5A"/>
</linearGradient>
<linearGradient id="paint63_linear" x1="164.734" y1="250.474" x2="138.321" y2="253.403" gradientUnits="userSpaceOnUse">
<stop offset="0.00558659" stop-color="#241142"/>
<stop offset="0.9946" stop-color="#2D2645"/>
</linearGradient>
<linearGradient id="paint64_linear" x1="159.054" y1="246.598" x2="133.309" y2="249.453" gradientUnits="userSpaceOnUse">
<stop offset="0.00558659" stop-color="#241142"/>
<stop offset="0.9946" stop-color="#2D2645"/>
</linearGradient>
<linearGradient id="paint65_linear" x1="154.033" y1="261.752" x2="140.653" y2="263.236" gradientUnits="userSpaceOnUse">
<stop offset="0.00558659" stop-color="#241142"/>
<stop offset="0.9946" stop-color="#2D2645"/>
</linearGradient>
<linearGradient id="paint66_linear" x1="185.311" y1="233.396" x2="197.463" y2="232.048" gradientUnits="userSpaceOnUse">
<stop/>
<stop offset="0.1093" stop-color="#090808"/>
<stop offset="0.2882" stop-color="#221D1F"/>
<stop offset="0.5145" stop-color="#4A4044"/>
<stop offset="0.7764" stop-color="#816F77"/>
<stop offset="1" stop-color="#B59DA7"/>
</linearGradient>
<linearGradient id="paint67_linear" x1="219.509" y1="238.226" x2="217.418" y2="219.401" gradientUnits="userSpaceOnUse">
<stop stop-color="#B8A6A6"/>
<stop offset="0.9829" stop-color="#7858A9"/>
</linearGradient>
<linearGradient id="paint68_linear" x1="222.199" y1="216.992" x2="220.407" y2="200.854" gradientUnits="userSpaceOnUse">
<stop stop-color="#B8A6A6"/>
<stop offset="0.9829" stop-color="#7858A9"/>
</linearGradient>
<linearGradient id="paint69_linear" x1="206.955" y1="193.517" x2="206.03" y2="185.181" gradientUnits="userSpaceOnUse">
<stop stop-color="#B8A6A6"/>
<stop offset="0.9829" stop-color="#7858A9"/>
</linearGradient>
<linearGradient id="paint70_linear" x1="203.316" y1="610.946" x2="-43.5721" y2="326.459" gradientUnits="userSpaceOnUse">
<stop stop-color="#ABC4FF"/>
<stop offset="1" stop-color="white"/>
</linearGradient>
<linearGradient id="paint71_linear" x1="35.3437" y1="190.171" x2="74.4241" y2="192.614" gradientUnits="userSpaceOnUse">
<stop stop-color="#BFA0FF"/>
<stop offset="1" stop-color="#5302FF"/>
</linearGradient>
<linearGradient id="paint72_linear" x1="40.7896" y1="282.433" x2="39.1731" y2="267.877" gradientUnits="userSpaceOnUse">
<stop offset="0.0171145" stop-color="#7858A9"/>
<stop offset="1" stop-color="#B8A6A6"/>
</linearGradient>
<linearGradient id="paint73_linear" x1="10.9041" y1="275.304" x2="54.8258" y2="304.213" gradientUnits="userSpaceOnUse">
<stop stop-color="#02C34D"/>
<stop offset="1" stop-color="#91FF8C"/>
</linearGradient>
<linearGradient id="paint74_linear" x1="55.1139" y1="308.73" x2="17.0166" y2="312.955" gradientUnits="userSpaceOnUse">
<stop offset="0.00558659" stop-color="#241142"/>
<stop offset="0.9946" stop-color="#2D2645"/>
</linearGradient>
<linearGradient id="paint75_linear" x1="39.9081" y1="323.057" x2="54.1021" y2="294.815" gradientUnits="userSpaceOnUse">
<stop offset="0.00558659" stop-color="#352251"/>
<stop offset="1" stop-color="#423C5A"/>
</linearGradient>
<linearGradient id="paint76_linear" x1="110.1" y1="81.0449" x2="155.205" y2="103.901" gradientUnits="userSpaceOnUse">
<stop stop-color="#FE8E27"/>
<stop offset="1" stop-color="#FFCC4A"/>
</linearGradient>
<linearGradient id="paint77_linear" x1="7.23875" y1="330.973" x2="23.0452" y2="299.523" gradientUnits="userSpaceOnUse">
<stop offset="0.00558659" stop-color="#352251"/>
<stop offset="1" stop-color="#423C5A"/>
</linearGradient>
<linearGradient id="paint78_linear" x1="26.7942" y1="317.351" x2="7.16347" y2="319.528" gradientUnits="userSpaceOnUse">
<stop offset="0.00558659" stop-color="#241142"/>
<stop offset="0.9946" stop-color="#2D2645"/>
</linearGradient>
<linearGradient id="paint79_linear" x1="12.5194" y1="310.287" x2="0.528567" y2="311.617" gradientUnits="userSpaceOnUse">
<stop offset="0.00558659" stop-color="#241142"/>
<stop offset="0.9946" stop-color="#2D2645"/>
</linearGradient>
<linearGradient id="paint80_linear" x1="46.8046" y1="292.058" x2="45.1491" y2="277.15" gradientUnits="userSpaceOnUse">
<stop/>
<stop offset="0.1093" stop-color="#090808"/>
<stop offset="0.2882" stop-color="#221D1F"/>
<stop offset="0.5145" stop-color="#4A4044"/>
<stop offset="0.7764" stop-color="#816F77"/>
<stop offset="1" stop-color="#B59DA7"/>
</linearGradient>
<linearGradient id="paint81_linear" x1="45.892" y1="265.92" x2="43.4179" y2="243.641" gradientUnits="userSpaceOnUse">
<stop stop-color="#B8A6A6"/>
<stop offset="0.9829" stop-color="#7858A9"/>
</linearGradient>
<linearGradient id="paint82_linear" x1="52.4254" y1="233.778" x2="51.4278" y2="224.795" gradientUnits="userSpaceOnUse">
<stop stop-color="#B8A6A6"/>
<stop offset="0.9829" stop-color="#7858A9"/>
</linearGradient>
<linearGradient id="paint83_linear" x1="61.7999" y1="209.029" x2="61.4033" y2="205.459" gradientUnits="userSpaceOnUse">
<stop stop-color="#B8A6A6"/>
<stop offset="0.9829" stop-color="#7858A9"/>
</linearGradient>
<radialGradient id="paint84_radial" cx="0" cy="0" r="1" gradientUnits="userSpaceOnUse" gradientTransform="translate(90.8358 143.636) rotate(-6.33698) scale(8.95944 8.96553)">
<stop stop-color="#683B55"/>
<stop offset="1"/>
</radialGradient>
<radialGradient id="paint85_radial" cx="0" cy="0" r="1" gradientUnits="userSpaceOnUse" gradientTransform="translate(95.5478 211.866) rotate(-6.33698) scale(11.0099 11.0174)">
<stop stop-color="#683B55"/>
<stop offset="1"/>
</radialGradient>
<radialGradient id="paint86_radial" cx="0" cy="0" r="1" gradientUnits="userSpaceOnUse" gradientTransform="translate(132.86 150.611) rotate(-6.33697) scale(4.9368 4.94015)">
<stop stop-color="#683B55"/>
<stop offset="1"/>
</radialGradient>
<linearGradient id="paint87_linear" x1="196.72" y1="262.333" x2="187.068" y2="175.426" gradientUnits="userSpaceOnUse">
<stop stop-color="#540068"/>
<stop offset="1" stop-color="#81899A"/>
</linearGradient>
<linearGradient id="paint88_linear" x1="214.901" y1="244.065" x2="207.691" y2="179.142" gradientUnits="userSpaceOnUse">
<stop stop-color="#540068"/>
<stop offset="1" stop-color="#81899A"/>
</linearGradient>
<linearGradient id="paint89_linear" x1="181.604" y1="263.55" x2="177.707" y2="228.462" gradientUnits="userSpaceOnUse">
<stop stop-color="#540068"/>
<stop offset="1" stop-color="#81899A"/>
</linearGradient>
<radialGradient id="paint90_radial" cx="0" cy="0" r="1" gradientUnits="userSpaceOnUse" gradientTransform="translate(161.655 132.947) rotate(-6.33699) scale(12.8842 12.893)">
<stop stop-color="#683B55"/>
<stop offset="1"/>
</radialGradient>
<linearGradient id="paint91_linear" x1="183.468" y1="12.4414" x2="195.746" y2="13.1946" gradientUnits="userSpaceOnUse">
<stop stop-color="#FF80DB"/>
<stop offset="1" stop-color="#CF0095"/>
</linearGradient>
</defs>
</svg>
