<svg width="568" height="449" viewBox="0 0 568 449" fill="none" xmlns="http://www.w3.org/2000/svg">
<g opacity="0.4">
<path opacity="0.4" d="M524.326 162.662L481.465 137.877L524.326 113.091L567.188 137.877L524.326 162.662ZM484.614 137.877L524.463 160.882L564.312 137.877L524.326 115.008L484.614 137.877Z" fill="white"/>
<path opacity="0.4" d="M441.752 162.662L398.891 137.877L441.752 113.091L442.163 113.365L484.614 137.877L441.752 162.662ZM401.903 137.877L441.752 160.882L481.601 137.877L441.752 115.008L401.903 137.877Z" fill="white"/>
<path opacity="0.4" d="M483.108 186.49L440.246 161.841L483.108 137.055L525.969 161.841L483.108 186.49ZM443.259 161.841L483.108 184.846L522.957 161.841L483.108 138.835L443.259 161.841Z" fill="white"/>
<path opacity="0.4" d="M524.326 210.317L523.916 210.043L481.465 185.531L524.326 160.745L524.737 161.019L567.188 185.531L524.326 210.317ZM484.614 185.668L524.463 208.674L564.312 185.668L524.463 162.662L484.614 185.668Z" fill="white"/>
<path opacity="0.4" d="M359.041 162.662L358.631 162.388L316.18 137.877L359.041 113.091L359.452 113.365L401.903 137.877L359.041 162.662ZM319.329 137.877L359.178 160.882L399.027 137.877L359.041 115.008L319.329 137.877Z" fill="white"/>
<path opacity="0.4" d="M400.398 186.49L399.987 186.216L357.536 161.704L400.398 136.918L443.259 161.704L400.398 186.49ZM360.549 161.841L400.398 184.846L440.247 161.841L400.398 138.835L360.549 161.841Z" fill="white"/>
<path opacity="0.4" d="M441.752 210.317L441.341 210.043L398.891 185.531L441.752 160.745L484.614 185.531L441.752 210.317ZM401.903 185.668L441.752 208.674L481.601 185.668L441.752 162.662L401.903 185.668Z" fill="white"/>
<path opacity="0.4" d="M483.108 234.281L440.246 209.495L483.108 184.709L483.519 184.983L525.969 209.495L483.108 234.281ZM443.259 209.495L483.108 232.501L522.957 209.495L483.108 186.49L443.259 209.495Z" fill="white"/>
<path opacity="0.4" d="M524.326 258.108L523.916 257.834L481.465 233.322L524.326 208.537L524.737 208.81L567.188 233.322L524.326 258.108ZM484.614 233.322L524.463 256.328L564.312 233.322L524.463 210.317L484.614 233.322Z" fill="white"/>
<path opacity="0.4" d="M276.468 162.662L233.606 137.877L276.468 113.091L276.879 113.365L319.33 137.877L276.468 162.662ZM236.619 137.877L276.468 160.882L316.317 137.877L276.468 115.008L236.619 137.877Z" fill="white"/>
<path opacity="0.4" d="M317.686 186.49L317.275 186.216L274.824 161.704L317.686 136.918L318.097 137.192L360.548 161.704L317.686 186.49ZM277.974 161.841L317.823 184.846L357.672 161.841L317.823 138.835L277.974 161.841Z" fill="white"/>
<path opacity="0.4" d="M359.041 210.317L358.631 210.043L316.18 185.531L359.041 160.745L359.452 161.019L401.903 185.531L359.041 210.317ZM319.329 185.668L359.178 208.674L399.027 185.668L359.178 162.662L319.329 185.668Z" fill="white"/>
<path opacity="0.4" d="M400.398 234.281L399.987 234.007L357.536 209.495L400.398 184.709L400.809 184.983L443.259 209.495L400.398 234.281ZM360.549 209.495L400.398 232.501L440.247 209.495L400.398 186.49L360.549 209.495Z" fill="white"/>
<path opacity="0.4" d="M441.752 258.108L398.891 233.322L441.752 208.537L484.614 233.322L441.752 258.108ZM401.903 233.322L441.752 256.328L481.601 233.322L441.752 210.317L401.903 233.322Z" fill="white"/>
<path opacity="0.4" d="M483.108 281.935L440.246 257.287L483.108 232.501L483.519 232.775L525.969 257.287L483.108 281.935ZM443.259 257.287L483.108 280.292L522.957 257.287L483.108 234.281L443.259 257.287Z" fill="white"/>
<path opacity="0.4" d="M524.326 305.763L523.916 305.489L481.465 280.977L524.326 256.191L524.737 256.465L567.188 280.977L524.326 305.763ZM484.614 281.114L524.463 304.119L564.312 281.114L524.463 258.108L484.614 281.114Z" fill="white"/>
<path opacity="0.4" d="M193.758 162.662L193.347 162.388L150.896 137.877L193.758 113.228L194.169 113.502L236.62 138.013L193.758 162.662ZM153.909 137.877L193.758 160.882L233.607 137.877L193.758 115.008L153.909 137.877Z" fill="white"/>
<path opacity="0.4" d="M235.114 186.49L234.703 186.216L192.252 161.704L235.114 136.918L277.975 161.704L235.114 186.49ZM195.265 161.841L235.114 184.846L274.963 161.841L235.114 138.835L195.265 161.841Z" fill="white"/>
<path opacity="0.4" d="M276.468 210.317L276.057 210.043L233.606 185.531L276.468 160.745L276.879 161.019L319.33 185.531L276.468 210.317ZM236.619 185.668L276.468 208.674L316.317 185.668L276.468 162.662L236.619 185.668Z" fill="white"/>
<path opacity="0.4" d="M317.687 234.281L274.962 209.495L317.824 184.709L318.234 184.983L360.685 209.495L317.687 234.281ZM277.975 209.495L317.824 232.501L357.673 209.495L317.824 186.49L277.975 209.495Z" fill="white"/>
<path opacity="0.4" d="M359.041 258.108L358.631 257.834L316.18 233.322L359.041 208.537L359.452 208.81L401.903 233.322L359.041 258.108ZM319.329 233.322L359.178 256.328L399.027 233.322L359.178 210.317L319.329 233.322Z" fill="white"/>
<path opacity="0.4" d="M400.398 281.935L357.536 257.15L400.398 232.364L443.259 257.15L400.398 281.935ZM360.549 257.287L400.398 280.292L440.247 257.287L400.398 234.281L360.549 257.287Z" fill="white"/>
<path opacity="0.4" d="M441.752 305.763L441.341 305.489L398.891 280.977L441.752 256.191L484.614 280.977L441.752 305.763ZM401.903 281.114L441.752 304.119L481.601 281.114L441.752 258.108L401.903 281.114Z" fill="white"/>
<path opacity="0.4" d="M483.108 329.727L482.697 329.453L440.246 304.941L483.108 280.155L483.519 280.429L525.969 304.941L483.108 329.727ZM443.259 304.941L483.108 327.947L522.957 304.941L483.108 281.935L443.259 304.941Z" fill="white"/>
<path opacity="0.4" d="M524.326 353.554L481.465 328.768L524.326 303.983L524.737 304.256L567.188 328.768L524.326 353.554ZM484.614 328.768L524.463 351.774L564.312 328.768L524.463 305.763L484.614 328.768Z" fill="white"/>
<path opacity="0.4" d="M111.184 162.662L110.773 162.388L68.3223 137.877L111.184 113.091L111.595 113.365L154.046 137.877L111.184 162.662ZM71.3349 137.877L111.184 160.882L151.033 137.877L111.184 115.008L71.3349 137.877Z" fill="white"/>
<path opacity="0.4" d="M152.403 186.49L109.541 161.704L152.403 136.918L152.813 137.192L195.264 161.704L152.403 186.49ZM112.691 161.841L152.54 184.846L192.389 161.841L152.54 138.835L112.691 161.841Z" fill="white"/>
<path opacity="0.4" d="M193.758 210.317L193.347 210.043L150.896 185.531L193.758 160.745L194.169 161.019L236.62 185.531L193.758 210.317ZM153.909 185.668L193.758 208.674L233.607 185.668L193.758 162.662L153.909 185.668Z" fill="white"/>
<path opacity="0.4" d="M235.114 234.281L234.703 234.007L192.252 209.495L235.114 184.709L235.524 184.983L277.975 209.495L235.114 234.281ZM195.265 209.495L235.114 232.501L274.963 209.495L235.114 186.49L195.265 209.495Z" fill="white"/>
<path opacity="0.4" d="M276.468 258.108L276.057 257.834L233.606 233.322L276.468 208.537L319.33 233.322L276.468 258.108ZM236.619 233.322L276.468 256.328L316.317 233.322L276.468 210.317L236.619 233.322Z" fill="white"/>
<path opacity="0.4" d="M317.686 281.935L317.275 281.662L274.824 257.15L317.686 232.364L318.097 232.638L360.548 257.15L317.686 281.935ZM277.974 257.15L317.823 280.155L357.672 257.15L317.823 234.144L277.974 257.15Z" fill="white"/>
<path opacity="0.4" d="M359.041 305.763L316.18 280.977L359.041 256.191L401.903 280.977L359.041 305.763ZM319.329 281.114L359.178 304.119L399.027 281.114L359.178 258.108L319.329 281.114Z" fill="white"/>
<path opacity="0.4" d="M400.398 329.727L357.536 304.941L400.398 280.155L400.809 280.429L443.259 304.941L400.398 329.727ZM360.549 304.941L400.398 327.947L440.247 304.941L400.398 281.935L360.549 304.941Z" fill="white"/>
<path opacity="0.4" d="M441.752 353.554L441.341 353.28L398.891 328.768L441.752 303.983L442.163 304.256L484.614 328.768L441.752 353.554ZM401.903 328.768L441.752 351.774L481.601 328.768L441.752 305.763L401.903 328.768Z" fill="white"/>
<path opacity="0.4" d="M483.108 377.381L482.697 377.107L440.246 352.596L483.108 327.81L525.969 352.596L483.108 377.381ZM443.259 352.596L483.108 375.601L522.957 352.596L483.108 329.59L443.259 352.596Z" fill="white"/>
<path opacity="0.4" d="M524.326 401.209L481.602 376.56L524.463 351.774L524.874 352.048L567.325 376.56L524.326 401.209ZM484.614 376.56L524.463 399.565L564.312 376.56L524.463 353.554L484.614 376.56Z" fill="white"/>
<path opacity="0.4" d="M111.184 210.317L110.773 210.043L68.3223 185.531L111.184 160.745L154.046 185.531L111.184 210.317ZM71.3349 185.668L111.184 208.674L151.033 185.668L111.184 162.662L71.3349 185.668Z" fill="white"/>
<path opacity="0.4" d="M152.402 234.281L109.678 209.495L152.539 184.709L152.95 184.983L195.401 209.495L152.402 234.281ZM112.69 209.495L152.539 232.501L192.388 209.495L152.539 186.49L112.69 209.495Z" fill="white"/>
<path opacity="0.4" d="M193.758 258.108L193.347 257.834L150.896 233.322L193.758 208.537L194.169 208.81L236.62 233.322L193.758 258.108ZM153.909 233.322L193.758 256.328L233.607 233.322L193.758 210.317L153.909 233.322Z" fill="white"/>
<path opacity="0.4" d="M235.114 281.935L234.703 281.662L192.252 257.15L235.114 232.364L235.524 232.638L277.975 257.15L235.114 281.935ZM195.265 257.15L235.114 280.155L274.963 257.15L235.114 234.144L195.265 257.15Z" fill="white"/>
<path opacity="0.4" d="M276.468 305.763L276.057 305.489L233.606 280.977L276.468 256.191L276.879 256.465L319.33 280.977L276.468 305.763ZM236.619 281.114L276.468 304.119L316.317 281.114L276.468 258.108L236.619 281.114Z" fill="white"/>
<path opacity="0.4" d="M317.824 329.727L317.413 329.453L274.962 304.941L317.824 280.155L360.685 304.941L317.824 329.727ZM277.975 304.941L317.824 327.947L357.673 304.941L317.824 281.935L277.975 304.941Z" fill="white"/>
<path opacity="0.4" d="M359.041 353.554L316.18 328.768L359.041 303.983L401.903 328.768L359.041 353.554ZM319.329 328.768L359.178 351.774L399.027 328.768L359.178 305.763L319.329 328.768Z" fill="white"/>
<path opacity="0.4" d="M400.398 377.381L399.987 377.107L357.536 352.596L400.398 327.81L400.809 328.084L443.259 352.596L400.398 377.381ZM360.549 352.596L400.398 375.601L440.247 352.596L400.398 329.59L360.549 352.596Z" fill="white"/>
<path opacity="0.4" d="M441.752 401.209L441.341 400.935L398.891 376.423L441.752 351.637L442.163 351.911L484.614 376.423L441.752 401.209ZM401.903 376.56L441.752 399.565L481.601 376.56L441.752 353.554L401.903 376.56Z" fill="white"/>
<path opacity="0.4" d="M483.108 425.036L482.697 424.762L440.246 400.25L483.108 375.464L525.969 400.25L483.108 425.036ZM443.259 400.387L483.108 423.393L522.957 400.387L483.108 377.381L443.259 400.387Z" fill="white"/>
<path opacity="0.4" d="M524.326 449L523.916 448.726L481.465 424.214L524.326 399.428L524.737 399.702L567.188 424.214L524.326 449ZM484.614 424.214L524.463 447.22L564.312 424.214L524.326 401.209L484.614 424.214Z" fill="white"/>
<path opacity="0.4" d="M111.184 258.108L110.773 257.834L68.3223 233.322L111.184 208.537L154.046 233.322L111.184 258.108ZM71.3349 233.322L111.184 256.328L151.033 233.322L111.184 210.317L71.3349 233.322Z" fill="white"/>
<path opacity="0.4" d="M152.403 281.935L151.992 281.662L109.541 257.15L152.403 232.364L152.813 232.638L195.264 257.15L152.403 281.935ZM112.691 257.15L152.54 280.155L192.389 257.15L152.54 234.144L112.691 257.15Z" fill="white"/>
<path opacity="0.4" d="M193.758 305.763L150.896 280.977L193.758 256.191L194.169 256.465L236.62 280.977L193.758 305.763ZM153.909 281.114L193.758 304.119L233.607 281.114L193.758 258.108L153.909 281.114Z" fill="white"/>
<path opacity="0.4" d="M235.114 329.727L234.703 329.453L192.252 304.941L235.114 280.155L235.524 280.429L277.975 304.941L235.114 329.727ZM195.265 304.941L235.114 327.947L274.963 304.941L235.114 281.935L195.265 304.941Z" fill="white"/>
<path opacity="0.4" d="M276.468 353.554L276.057 353.28L233.606 328.768L276.468 303.983L276.879 304.256L319.33 328.768L276.468 353.554ZM236.619 328.768L276.468 351.774L316.317 328.768L276.468 305.763L236.619 328.768Z" fill="white"/>
<path opacity="0.4" d="M317.824 377.381L274.962 352.596L317.824 327.81L360.685 352.596L317.824 377.381ZM277.975 352.596L317.824 375.601L357.673 352.596L317.824 329.59L277.975 352.596Z" fill="white"/>
<path opacity="0.4" d="M359.041 401.209L358.631 400.935L316.18 376.423L359.041 351.637L359.452 351.911L401.903 376.423L359.041 401.209ZM319.329 376.56L359.178 399.565L399.027 376.56L359.178 353.554L319.329 376.56Z" fill="white"/>
<path opacity="0.4" d="M400.398 425.036L357.536 400.25L400.398 375.464L400.809 375.738L443.259 400.25L400.398 425.036ZM360.549 400.387L400.398 423.393L440.247 400.387L400.398 377.381L360.549 400.387Z" fill="white"/>
<path opacity="0.4" d="M441.752 449L441.341 448.726L398.891 424.214L441.752 399.428L442.163 399.702L484.614 424.214L441.752 449ZM401.903 424.214L441.752 447.22L481.601 424.214L441.752 401.209L401.903 424.214Z" fill="white"/>
<path opacity="0.4" d="M111.184 305.763L110.773 305.489L68.3223 280.977L111.184 256.191L111.595 256.465L154.046 280.977L111.184 305.763ZM71.3349 281.114L111.184 304.119L151.033 281.114L111.184 258.108L71.3349 281.114Z" fill="white"/>
<path opacity="0.4" d="M152.403 329.727L151.992 329.453L109.541 304.941L152.403 280.155L195.264 304.941L152.403 329.727ZM112.691 304.941L152.54 327.947L192.389 304.941L152.54 281.935L112.691 304.941Z" fill="white"/>
<path opacity="0.4" d="M193.758 353.554L150.896 328.768L193.758 303.983L194.169 304.256L236.62 328.768L193.758 353.554ZM153.909 328.768L193.758 351.774L233.607 328.768L193.758 305.763L153.909 328.768Z" fill="white"/>
<path opacity="0.4" d="M235.114 377.381L234.703 377.107L192.252 352.596L235.114 327.81L235.524 328.084L277.975 352.596L235.114 377.381ZM195.265 352.596L235.114 375.601L274.963 352.596L235.114 329.59L195.265 352.596Z" fill="white"/>
<path opacity="0.4" d="M276.468 401.209L276.057 400.935L233.606 376.423L276.468 351.637L319.33 376.423L276.468 401.209ZM236.619 376.56L276.468 399.565L316.317 376.56L276.468 353.554L236.619 376.56Z" fill="white"/>
<path opacity="0.4" d="M317.824 425.036L274.962 400.25L317.824 375.464L318.234 375.738L360.685 400.25L317.824 425.036ZM277.975 400.387L317.824 423.393L357.673 400.387L317.824 377.381L277.975 400.387Z" fill="white"/>
<path opacity="0.4" d="M359.041 449L358.631 448.726L316.18 424.214L359.041 399.428L401.903 424.214L359.041 449ZM319.329 424.214L359.178 447.22L399.027 424.214L359.041 401.209L319.329 424.214Z" fill="white"/>
<path opacity="0.4" d="M111.184 353.554L110.773 353.28L68.3223 328.768L111.184 303.983L111.595 304.256L154.046 328.768L111.184 353.554ZM71.3349 328.768L111.184 351.774L151.033 328.768L111.184 305.763L71.3349 328.768Z" fill="white"/>
<path opacity="0.4" d="M152.403 377.381L151.992 377.107L109.541 352.596L152.403 327.81L195.264 352.596L152.403 377.381ZM112.691 352.596L152.54 375.601L192.389 352.596L152.54 329.59L112.691 352.596Z" fill="white"/>
<path opacity="0.4" d="M193.758 401.209L193.347 400.935L150.896 376.423L193.758 351.637L194.169 351.911L236.62 376.423L193.758 401.209ZM153.909 376.56L193.758 399.565L233.607 376.56L193.758 353.554L153.909 376.56Z" fill="white"/>
<path opacity="0.4" d="M235.114 425.036L192.252 400.25L235.114 375.464L235.524 375.738L277.975 400.25L235.114 425.036ZM195.265 400.387L235.114 423.393L274.963 400.387L235.114 377.381L195.265 400.387Z" fill="white"/>
<path opacity="0.4" d="M276.468 449L233.606 424.214L276.468 399.428L319.33 424.214L276.468 449ZM236.619 424.214L276.468 447.22L316.317 424.214L276.468 401.209L236.619 424.214Z" fill="white"/>
<path opacity="0.4" d="M111.184 401.209L110.773 400.935L68.3223 376.423L111.184 351.637L111.595 351.911L154.046 376.423L111.184 401.209ZM71.3349 376.56L111.184 399.565L151.033 376.56L111.184 353.554L71.3349 376.56Z" fill="white"/>
<path opacity="0.4" d="M152.403 425.036L151.992 424.762L109.541 400.25L152.403 375.464L152.813 375.738L195.264 400.25L152.403 425.036ZM112.691 400.387L152.54 423.393L192.389 400.387L152.54 377.381L112.691 400.387Z" fill="white"/>
<path opacity="0.4" d="M193.758 449L193.347 448.726L150.896 424.214L193.758 399.428L236.62 424.214L193.758 449ZM154.046 424.214L193.895 447.22L233.744 424.214L193.758 401.209L154.046 424.214Z" fill="white"/>
<path opacity="0.4" d="M111.184 449L110.773 448.726L68.3223 424.214L111.184 399.428L111.595 399.702L154.046 424.214L111.184 449ZM71.3349 424.214L111.184 447.22L151.033 424.214L111.184 401.209L71.3349 424.214Z" fill="white"/>
</g>
<path d="M165.411 163.621L134.463 145.682L165.411 127.88L196.359 145.682L165.411 163.621Z" fill="#7DC3EA"/>
<path d="M165.411 152.529C165 152.529 164.589 152.392 164.179 152.255L133.23 134.453C132.546 134.042 131.998 133.221 131.998 132.399C131.998 131.577 132.409 130.756 133.23 130.345L164.179 112.543C164.863 112.132 165.822 112.132 166.506 112.543L197.454 130.345C198.139 130.756 198.687 131.577 198.687 132.399C198.687 133.221 198.276 134.042 197.454 134.453L166.506 152.255C166.233 152.392 165.822 152.529 165.411 152.529ZM139.119 132.262L165.411 147.462L191.703 132.262L165.411 117.062L139.119 132.262Z" fill="white"/>
<path d="M196.359 118.294L165.411 136.233V100.492L196.359 82.6904V118.294Z" fill="url(#paint0_linear)"/>
<path d="M165.411 100.492L134.463 82.6904L165.411 64.7515L196.359 82.6904L165.411 100.492Z" fill="url(#paint1_linear)"/>
<path d="M165.411 136.233L134.463 118.294V82.6904L165.411 100.492V136.233Z" fill="url(#paint2_linear)"/>
<path d="M154.182 116.925L145.555 111.995V101.999L154.182 106.928V116.925Z" fill="white"/>
<path d="M96.1209 432.294L65.1729 414.492L96.1209 396.553L127.069 414.492L96.1209 432.294Z" fill="url(#paint3_linear)"/>
<path d="M96.1209 421.202C95.7101 421.202 95.2993 421.065 94.8885 420.928L63.9405 403.126C63.2558 402.715 62.708 401.893 62.708 401.072C62.708 400.25 63.1188 399.428 63.9405 399.018L94.8885 381.216C95.5732 380.805 96.5317 380.805 97.2164 381.216L128.164 399.018C128.849 399.428 129.397 400.25 129.397 401.072C129.397 401.893 128.986 402.715 128.164 403.126L97.2164 420.928C96.9426 421.065 96.5317 421.202 96.1209 421.202ZM69.9657 401.072L96.2579 416.272L122.55 401.072L96.2579 385.871L69.9657 401.072Z" fill="white"/>
<path d="M127.069 387.104L96.1211 404.906V369.165L127.069 351.363V387.104Z" fill="url(#paint4_radial)"/>
<path d="M96.1209 369.165L65.1729 351.363L96.1209 333.424L127.069 351.363L96.1209 369.165Z" fill="url(#paint5_linear)"/>
<path d="M96.1209 404.906L65.1729 387.104V351.363L96.1209 369.165V404.906Z" fill="url(#paint6_linear)"/>
<path d="M85.0295 385.598L76.4023 380.668V370.671L85.0295 375.601V385.598Z" fill="white"/>
<path d="M487.626 373.41L444.901 348.761C442.3 347.255 442.574 344.653 445.586 342.873L486.805 319.046C489.817 317.265 494.336 317.129 497.075 318.635L539.8 343.284C542.402 344.79 542.128 347.392 539.115 349.172L497.897 372.999C494.884 374.643 490.365 374.916 487.626 373.41Z" fill="url(#paint7_linear)"/>
<path d="M492.146 363.277C490.092 363.277 488.038 362.866 486.531 361.907L443.807 337.258C441.889 336.163 440.794 334.52 440.794 332.603C440.794 330.548 442.163 328.494 444.491 327.125L485.71 303.298C489.544 301.107 495.021 300.97 498.308 302.887L541.033 327.536C542.95 328.631 544.045 330.275 544.045 332.192C544.045 334.246 542.676 336.3 540.348 337.669L499.13 361.496C497.076 362.729 494.611 363.277 492.146 363.277ZM492.83 306.584C491.187 306.584 489.544 306.995 488.175 307.68L446.956 331.37C445.861 331.918 445.724 332.466 445.724 332.603C445.724 332.603 445.861 332.876 446.271 333.013L488.996 357.662C490.913 358.758 494.474 358.484 496.802 357.251L538.02 333.424C539.116 332.876 539.253 332.329 539.253 332.192C539.253 332.192 539.116 331.918 538.705 331.781L495.98 307.132C495.158 306.721 493.926 306.584 492.83 306.584Z" fill="white"/>
<path d="M541.581 317.265V302.476H508.579L497.213 295.903C494.611 294.397 489.955 294.534 486.943 296.314L476.262 302.476H443.259V317.676C443.123 318.635 443.807 319.73 445.04 320.415L487.764 345.064C490.366 346.57 495.022 346.433 498.035 344.653L539.253 320.826C540.896 319.73 541.718 318.498 541.581 317.265Z" fill="url(#paint8_linear)"/>
<path d="M492.42 294.945C490.503 294.945 488.449 295.492 486.943 296.314L476.262 302.476H443.259V317.676C443.123 318.635 443.807 319.73 445.04 320.415L487.764 345.064C488.997 345.749 490.777 346.159 492.557 346.022V294.945H492.42Z" fill="url(#paint9_linear)"/>
<path d="M446.957 302.476H443.259V317.676C443.123 318.635 443.807 319.73 445.04 320.415L446.957 321.511V302.476Z" fill="#D4ECFF"/>
<path d="M488.312 345.338C490.503 346.296 493.789 346.296 496.528 345.201V327.947H488.312V345.338Z" fill="#5793CE"/>
<path d="M487.626 329.864L444.901 305.215C442.3 303.709 442.574 301.107 445.586 299.327L486.805 275.499C489.817 273.719 494.336 273.582 497.075 275.089L539.8 299.737C542.402 301.244 542.128 303.846 539.115 305.626L497.897 329.453C494.884 331.233 490.365 331.37 487.626 329.864Z" fill="url(#paint10_linear)"/>
<path d="M539.116 302.75L497.897 326.577C494.884 328.357 490.366 328.494 487.627 326.988L444.902 302.339C444.354 302.065 443.943 301.655 443.533 301.244C442.574 302.75 442.985 304.256 444.902 305.352L487.627 330.001C490.229 331.507 494.884 331.37 497.897 329.59L539.116 305.763C541.443 304.393 542.128 302.476 541.17 300.97C540.759 301.518 540.074 302.202 539.116 302.75Z" fill="white"/>
<path d="M525.97 321.1C525.97 322.195 525.149 323.565 524.19 324.112C523.232 324.66 522.41 324.249 522.41 323.154C522.41 322.058 523.232 320.689 524.19 320.141C525.149 319.593 525.97 320.004 525.97 321.1Z" fill="#D4ECFF"/>
<path d="M531.448 317.95C531.448 319.046 530.626 320.415 529.668 320.963C528.709 321.511 527.888 321.1 527.888 320.004C527.888 318.909 528.709 317.539 529.668 316.992C530.626 316.307 531.448 316.855 531.448 317.95Z" fill="#D4ECFF"/>
<path d="M537.062 314.664C537.062 315.759 536.241 317.129 535.282 317.676C534.324 318.224 533.502 317.813 533.502 316.718C533.502 315.622 534.324 314.253 535.282 313.705C536.241 313.157 537.062 313.568 537.062 314.664Z" fill="#D4ECFF"/>
<path d="M490.227 314.664L470.234 303.161C469.002 302.476 469.139 301.244 470.645 300.422L489.953 289.33C491.323 288.508 493.514 288.372 494.746 289.193L514.739 300.696C515.972 301.381 515.835 302.613 514.328 303.435L495.02 314.527C493.651 315.211 491.46 315.348 490.227 314.664Z" fill="#5793CE"/>
<path d="M492.146 304.941L489.407 303.298C489.27 303.161 489.27 303.024 489.407 302.887L492.009 301.381C492.146 301.244 492.557 301.244 492.694 301.381L495.433 303.024C495.57 303.161 495.57 303.298 495.433 303.435L492.831 304.941C492.557 305.078 492.283 305.078 492.146 304.941Z" fill="#D4ECFF"/>
<path d="M470.235 303.024C470.372 303.024 470.509 302.887 470.646 302.887L489.955 291.795C491.324 290.973 493.515 290.836 494.747 291.658L514.603 303.161C515.699 302.339 515.836 301.244 514.603 300.559L494.61 289.056C493.378 288.372 491.187 288.372 489.818 289.193L470.509 300.285C469.14 301.107 469.003 302.339 470.235 303.024Z" fill="#396CAA"/>
<path d="M544.594 222.778L411.216 145.545C403.959 141.3 391.36 141.848 382.87 146.641L103.105 307.817C94.7522 312.61 93.7937 320.004 101.051 324.112L234.429 401.346C241.687 405.591 254.285 405.043 262.775 400.25L542.677 239.211C550.893 234.281 551.852 227.023 544.594 222.778Z" fill="#A2DEFF"/>
<path d="M246.753 387.652C241.686 387.652 236.893 386.556 233.196 384.502L99.8182 307.269C95.847 304.941 93.793 301.791 93.793 298.094C93.793 293.849 96.8056 289.741 101.872 286.865L381.774 125.826C390.949 120.485 404.369 120.075 412.448 124.73L545.826 201.964C549.797 204.292 551.851 207.441 551.851 211.138C551.851 215.384 548.838 219.492 543.772 222.367L263.87 383.407C258.94 386.282 252.641 387.652 246.753 387.652ZM398.891 126.237C393.688 126.237 388.21 127.469 384.102 129.934L104.2 290.973C100.64 293.027 98.4489 295.766 98.4489 298.231C98.4489 300.696 100.503 302.339 102.146 303.298L235.524 380.531C241.96 384.228 253.874 383.817 261.542 379.435L541.444 218.396C545.004 216.342 547.195 213.603 547.195 211.138C547.195 208.674 545.141 207.03 543.498 206.072L410.12 128.702C407.107 127.058 403.136 126.237 398.891 126.237Z" fill="white"/>
<path d="M230.458 353.828L91.7392 273.445C87.2203 270.843 85.0293 267.283 85.1662 263.586V243.456L92.8347 252.494C93.3825 252.22 93.7933 251.809 94.3411 251.535L378.351 88.168C389.58 81.7319 406.697 81.0472 416.42 86.6616L553.221 165.949C555.96 162.936 561.848 156.5 561.848 156.5V176.219C561.985 180.601 558.835 185.394 552.536 189.091L268.526 352.322C257.297 358.895 240.18 359.579 230.458 353.828Z" fill="url(#paint11_radial)"/>
<path d="M155.415 304.53L163.358 309.186C164.453 309.734 165.275 309.186 165.275 307.68C165.275 306.31 164.453 304.667 163.358 303.983L155.415 299.327C154.32 298.779 153.498 299.327 153.498 300.833C153.498 302.339 154.32 303.983 155.415 304.53Z" fill="#173D7A"/>
<path d="M378.35 88.168C389.579 81.7319 406.697 81.0472 416.419 86.6616L553.22 165.949C555.959 162.936 561.848 156.5 561.848 156.5V176.219C561.985 180.601 558.835 185.394 552.536 189.091L268.526 352.322C262.638 355.745 255.243 357.525 247.985 357.662L248.259 162.936L378.35 88.168Z" fill="#396CAA"/>
<path d="M555.275 146.777L416.557 66.3948C406.834 60.7803 389.717 61.465 378.488 67.9011L94.4783 231.268C83.2494 237.704 82.0169 247.564 91.7396 253.178L230.595 333.561C240.317 339.176 257.435 338.491 268.664 332.055L552.536 168.688C563.765 162.251 564.998 152.392 555.275 146.777Z" fill="#D4ECFF"/>
<path d="M230.457 335.752L91.602 255.369C86.5353 252.494 84.4812 248.386 85.1659 244.277C85.4398 247.564 87.4939 250.714 91.739 253.178L230.594 333.561C240.317 339.176 257.434 338.491 268.663 332.055L552.536 168.688C558.013 165.538 561.026 161.567 561.711 157.733C561.985 162.252 558.835 167.044 552.399 170.742L268.526 334.246C257.297 340.682 240.18 341.367 230.457 335.752Z" fill="white"/>
<path d="M544.593 149.927L411.215 72.6939C403.958 68.4489 391.359 68.9966 382.869 73.7895L103.105 234.829C94.7513 239.622 93.7927 247.016 101.05 251.124L234.428 328.358C241.686 332.603 254.284 332.055 262.774 327.262L542.676 166.223C550.892 161.43 551.851 154.035 544.593 149.927Z" fill="url(#paint12_radial)"/>
<path d="M267.979 288.372L173.902 234.007L179.928 230.584L274.004 284.811L267.979 288.372Z" fill="#D4ECFF"/>
<path d="M202.522 272.487L154.867 244.962L160.892 241.539L208.547 269.063L202.522 272.487Z" fill="#D4ECFF"/>
<path d="M225.664 285.907L210.19 276.869L216.216 273.445L231.69 282.346L225.664 285.907Z" fill="url(#paint13_linear)"/>
<path d="M248.944 299.327L233.47 290.426L239.495 286.865L254.969 295.903L248.944 299.327Z" fill="white"/>
<path d="M203.07 261.806L164.316 239.485L170.342 236.061L209.095 258.382L203.07 261.806Z" fill="white"/>
<path d="M250.175 289.056L211.559 266.735L217.584 263.312L256.2 285.633L250.175 289.056Z" fill="#D4ECFF"/>
<path d="M221.556 241.402C219.639 242.497 216.49 242.497 214.573 241.402C212.655 240.306 212.655 238.526 214.573 237.294C216.49 236.198 219.639 236.198 221.556 237.294C223.474 238.389 223.474 240.169 221.556 241.402Z" fill="url(#paint14_linear)"/>
<path d="M232.101 247.427C230.184 248.523 227.035 248.523 225.118 247.427C223.2 246.332 223.2 244.551 225.118 243.319C227.035 242.223 230.184 242.223 232.101 243.319C234.019 244.414 234.019 246.332 232.101 247.427Z" fill="white"/>
<path d="M242.508 253.452C240.591 254.548 237.441 254.548 235.524 253.452C233.607 252.357 233.607 250.577 235.524 249.344C237.441 248.249 240.591 248.249 242.508 249.344C244.425 250.577 244.425 252.357 242.508 253.452Z" fill="#D4ECFF"/>
<path d="M253.053 259.478C251.135 260.573 247.986 260.573 246.069 259.478C244.152 258.382 244.152 256.602 246.069 255.369C247.986 254.274 251.135 254.274 253.053 255.369C254.97 256.602 254.97 258.382 253.053 259.478Z" fill="url(#paint15_linear)"/>
<path d="M263.459 265.503C261.542 266.598 258.392 266.598 256.475 265.503C254.558 264.407 254.558 262.627 256.475 261.395C258.392 260.299 261.542 260.299 263.459 261.395C265.376 262.627 265.376 264.407 263.459 265.503Z" fill="white"/>
<path d="M473.933 150.475L458.186 141.3L464.211 137.74L480.096 146.914L473.933 150.475Z" fill="url(#paint16_linear)"/>
<path d="M495.98 163.21L480.232 154.035L486.395 150.475L502.142 159.65L495.98 163.21Z" fill="white"/>
<path d="M403.137 109.256L387.389 100.082L393.551 96.5212L409.299 105.696L403.137 109.256Z" fill="white"/>
<path d="M470.373 159.787L448.326 146.914L454.488 143.491L476.535 156.226L470.373 159.787Z" fill="white"/>
<path d="M486.258 168.825L476.535 163.347L482.697 159.787L492.42 165.264L486.258 168.825Z" fill="#D4ECFF"/>
<path d="M376.98 243.593L247.3 168.825L285.095 147.051L414.775 221.683L376.98 243.593Z" fill="#082C60"/>
<path d="M377.528 245.51C377.117 245.51 376.844 245.373 376.57 245.236L246.889 170.468C246.205 170.057 245.931 169.509 245.931 168.688C245.931 168.003 246.341 167.318 246.889 166.907L284.684 145.134C285.369 144.723 286.054 144.723 286.738 145.134L416.419 219.902C417.103 220.313 417.377 220.861 417.377 221.683C417.377 222.367 416.966 223.052 416.419 223.463L378.624 245.236C378.213 245.51 377.939 245.51 377.528 245.51ZM251.956 168.825L377.528 241.265L411.352 221.82L285.643 149.242L251.956 168.825Z" fill="white"/>
<path d="M308.375 184.162C307.553 184.162 306.731 183.477 306.731 182.518V131.851C306.731 131.03 307.416 130.208 308.375 130.208C309.333 130.208 310.018 130.893 310.018 131.851V182.518C310.018 183.477 309.333 184.162 308.375 184.162Z" fill="#396CAA"/>
<path d="M300.432 126.237V160.471C300.432 161.704 301.253 162.799 302.76 163.758C305.909 165.538 310.839 165.538 313.989 163.758C315.495 162.799 316.316 161.704 316.316 160.471V126.237H300.432Z" fill="url(#paint17_radial)"/>
<path d="M300.432 131.851V143.354C305.088 145.545 311.661 145.545 316.316 143.354V131.851C311.661 129.66 305.088 129.66 300.432 131.851Z" fill="#396CAA"/>
<path d="M321.247 78.5823H295.64V132.262C295.64 134.179 296.872 136.096 299.337 137.466C304.404 140.341 312.483 140.341 317.55 137.466C320.015 135.959 321.247 134.179 321.247 132.262V78.5823Z" fill="url(#paint18_radial)"/>
<path d="M306.184 155.131C306.184 156.637 305.088 157.322 303.719 156.5C302.349 155.678 301.254 153.761 301.254 152.255C301.254 150.749 302.349 150.064 303.719 150.886C305.088 151.707 306.184 153.624 306.184 155.131Z" fill="#D4ECFF"/>
<path d="M358.219 212.919C357.398 212.919 356.576 212.234 356.576 211.275V160.608C356.576 159.787 357.261 158.965 358.219 158.965C359.041 158.965 359.863 159.65 359.863 160.608V211.275C359.726 212.234 359.041 212.919 358.219 212.919Z" fill="#396CAA"/>
<path d="M350.277 154.994V189.228C350.277 190.461 351.099 191.556 352.605 192.515C355.755 194.295 360.685 194.295 363.834 192.515C365.341 191.556 366.162 190.461 366.162 189.228V154.994H350.277Z" fill="url(#paint19_radial)"/>
<path d="M350.277 160.608V172.111C354.933 174.302 361.506 174.302 366.162 172.111V160.608C361.369 158.417 354.933 158.417 350.277 160.608Z" fill="#396CAA"/>
<path d="M370.955 107.339H345.348V161.019C345.348 162.936 346.58 164.853 349.045 166.223C354.112 169.098 362.191 169.098 367.258 166.223C369.723 164.716 370.955 162.936 370.955 161.019V107.339Z" fill="url(#paint20_radial)"/>
<path d="M355.893 184.025C355.893 185.531 354.797 186.216 353.428 185.394C352.058 184.572 350.963 182.655 350.963 181.149C350.963 179.643 352.058 178.958 353.428 179.78C354.797 180.464 355.893 182.381 355.893 184.025Z" fill="#D4ECFF"/>
<path d="M259.213 39.6919L293.31 20.1097L292.078 39.6919L272.496 45.7171L259.213 39.6919Z" fill="#5793CE"/>
<path d="M441.752 152.529C441.752 138.835 432.029 121.992 420.116 115.145C417.514 113.638 415.049 112.817 412.721 112.406C409.298 94.4671 396.836 75.2958 381.773 66.6687C377.254 64.0668 373.009 62.6975 369.038 62.4236C366.984 40.5135 351.784 15.7277 333.297 5.0465C323.711 -0.567964 314.947 -1.25265 308.374 2.1708L308.1 2.30774C307.964 2.44468 307.827 2.44467 307.553 2.58161L287.423 14.4952L294.133 19.8358C288.107 22.4376 284.41 29.1476 284.41 39.1441C284.41 57.4938 297.282 79.8147 313.167 88.8526L411.078 158.828L414.091 179.232L435.316 166.77L435.453 166.633C439.424 164.169 441.752 159.376 441.752 152.529Z" fill="url(#paint21_radial)"/>
<path d="M285.506 30.9278L331.654 3.951C322.753 -0.7049 314.674 -1.11571 308.511 2.03386L308.238 2.1708C308.101 2.30774 307.964 2.30774 307.69 2.44468L287.56 14.3583L294.27 19.6989C290.162 21.4791 287.012 25.3134 285.506 30.9278Z" fill="#5793CE"/>
<path d="M370.681 110.078L404.368 90.359C398.617 80.3625 390.674 71.5984 381.91 66.5317C380.678 65.847 379.582 65.2993 378.487 64.7515L335.625 89.8112L370.681 110.078Z" fill="#5793CE"/>
<path d="M297.146 16.5493L312.209 25.1764L339.733 9.0177C337.679 7.51138 335.625 6.00506 333.571 4.77262C330.285 2.85549 326.998 1.48611 323.985 0.801414L297.146 16.5493Z" fill="#D4ECFF"/>
<path d="M400.533 84.6076L373.693 100.492L383.005 110.9L407.38 96.5212C405.6 92.2761 403.272 88.3049 400.533 84.6076Z" fill="#D4ECFF"/>
<path d="M399.027 127.606C396.425 126.1 393.961 125.278 391.633 124.867C388.209 106.792 375.611 87.6202 360.685 78.9931C356.166 76.3913 351.921 75.0219 347.949 74.748C345.895 52.8379 330.695 28.0521 312.209 17.3709C292.353 5.86813 276.194 15.1799 276.194 38.1855C276.194 39.0072 276.194 39.6919 276.194 40.5135C261.678 33.8035 250.312 41.3351 250.312 58.5893C250.312 76.939 263.185 99.2599 279.07 108.298L398.89 177.452C410.804 184.299 420.527 178.821 420.527 164.99C420.527 151.16 410.941 134.453 399.027 127.606Z" fill="url(#paint22_linear)"/>
<path d="M276.331 40.3766C276.331 39.5549 276.331 38.8702 276.331 38.0486C276.331 38.0486 276.331 38.0486 276.331 37.9117C268.251 34.7621 261.404 36.1315 257.022 41.1982C261.678 37.3639 268.525 36.8162 276.331 40.3766Z" fill="white"/>
<path d="M400.808 125.963C398.206 124.457 395.741 123.635 393.413 123.224C389.99 105.148 377.391 85.977 362.465 77.3499C357.946 74.748 353.701 73.3787 349.73 73.1048C347.676 51.1947 332.476 26.4089 313.989 15.7277C301.665 8.6069 290.71 9.56547 284.273 16.6863C290.846 11.0718 300.98 10.7979 312.346 17.3709C330.832 28.0521 346.033 52.9749 348.087 74.748C351.921 75.0219 356.303 76.3913 360.822 78.9931C375.611 87.6202 388.21 106.792 391.633 124.867C393.961 125.278 396.426 126.1 399.028 127.606C410.941 134.453 420.664 151.16 420.664 164.99C420.664 169.92 419.431 173.891 417.24 176.493C420.527 174.028 422.444 169.509 422.444 163.347C422.444 149.516 412.721 132.81 400.808 125.963Z" fill="white"/>
<path d="M273.866 45.8541L282.904 50.0991L282.493 40.2396C282.493 39.5549 282.493 38.8702 282.493 38.1855C282.493 29.2846 285.232 22.8485 290.025 20.1097C294.818 17.3709 301.801 18.1926 309.47 22.5746C325.903 32.1603 340.281 55.3028 342.198 75.2958L342.609 80.3625L347.676 80.7733C350.825 81.0472 354.249 82.1427 357.809 84.3337C370.955 91.8653 382.732 109.53 385.881 126.1L386.703 130.208L390.948 130.893C392.591 131.167 394.372 131.851 396.289 132.947C406.285 138.698 414.912 153.487 414.912 165.127C414.912 169.509 413.68 172.659 411.626 173.891C409.572 175.124 406.148 174.576 402.451 172.385L282.63 103.231C268.662 95.1518 256.886 74.748 256.886 58.7263C256.886 52.4271 258.803 47.6343 261.952 45.5802C263.322 44.7586 264.965 44.3478 266.745 44.3478C268.662 44.0739 271.127 44.6216 273.866 45.8541Z" fill="url(#paint23_linear)"/>
<path d="M333.572 121.033L336.859 119.39L333.709 117.062L333.572 121.033Z" fill="#5793CE"/>
<path d="M324.123 78.3084L327.273 76.8021V78.3084H324.123Z" fill="#5793CE"/>
<path d="M342.61 111.037L345.897 109.393L339.734 103.505L342.61 111.037Z" fill="#5793CE"/>
<path d="M335.899 119.39L320.973 110.626C320.151 110.215 319.604 109.119 319.604 108.161V90.7698L337.269 101.177V118.568C337.269 119.39 336.584 119.801 335.899 119.39Z" fill="#5793CE"/>
<path d="M327.135 76.8021L310.977 87.2094C310.292 87.6202 310.84 89.2635 311.935 89.9481L328.505 99.6708L345.074 109.393C346.17 109.941 346.718 108.983 346.033 107.75L330.011 78.3084C329.053 77.076 327.82 76.3913 327.135 76.8021Z" fill="#5793CE"/>
<path fill-rule="evenodd" clip-rule="evenodd" d="M307.827 88.8527L323.986 78.4454C324.671 77.8976 325.903 78.7192 326.588 79.9517L342.884 109.393C343.568 110.626 343.02 111.584 341.925 111.037L333.983 106.376V120.075C333.983 121.033 333.435 121.444 332.613 120.896L317.687 112.132C316.866 111.721 316.318 110.626 316.318 109.667V96.011L308.786 91.5914C307.69 90.9067 307.143 89.2635 307.827 88.8527Z" fill="url(#paint24_linear)"/>
<path d="M321.932 254.548L228.54 200.731L231.005 199.225L324.397 253.178L321.932 254.548Z" fill="#79B1E0"/>
<path d="M258.665 219.629L227.307 201.416L232.373 198.403L263.869 216.616L258.665 219.629Z" fill="#D4ECFF"/>
<path d="M257.434 220.587L256.201 219.902L264.281 215.11L265.65 215.931L257.434 220.587Z" fill="white"/>
<path d="M413.406 342.325C412.584 342.736 411.763 343.421 411.078 343.968C410.804 333.424 403.136 329.316 393.824 334.657C386.155 339.039 379.719 348.487 377.528 357.662C375.611 357.388 373.42 357.936 371.092 359.306C364.245 363.277 358.768 372.862 358.768 380.668C358.768 388.473 364.245 391.76 371.092 387.789L413.543 363.277C418.61 360.401 422.581 353.28 422.581 347.529C422.581 341.777 418.473 339.313 413.406 342.325Z" fill="white"/>
<path d="M72.0196 209.632C70.6502 210.454 69.2808 211.549 68.0484 213.056C67.9114 205.387 62.297 202.237 55.587 206.209C53.396 207.441 51.3419 209.358 49.5617 211.412C46.5491 206.072 40.2499 204.839 32.9922 209.084C22.7218 214.973 14.5056 229.351 14.5056 241.128C14.5056 242.086 14.6425 243.045 14.6425 243.867C13.1362 243.456 11.356 243.73 9.43885 244.962C4.64601 247.701 0.674805 254.548 0.674805 260.162C0.674805 265.777 4.64601 268.105 9.57578 265.229L72.1565 229.077C76.8124 226.339 80.6467 219.766 80.6467 214.288C80.6467 208.81 76.8124 206.893 72.0196 209.632Z" fill="white"/>
<path d="M547.195 280.155C547.195 282.757 545.415 285.77 543.224 287.139C541.033 288.372 539.253 287.413 539.253 284.811C539.253 282.209 541.033 279.197 543.224 277.827C545.415 276.595 547.195 277.553 547.195 280.155Z" fill="white"/>
<path d="M558.151 273.719C558.151 276.321 556.37 279.334 554.179 280.703C551.988 281.935 550.208 280.977 550.208 278.375C550.208 275.773 551.988 272.761 554.179 271.391C556.37 270.159 558.151 271.254 558.151 273.719Z" fill="white"/>
<path d="M547.195 267.42C547.195 270.022 545.415 273.034 543.224 274.404C541.033 275.636 539.253 274.678 539.253 272.076C539.253 269.474 541.033 266.461 543.224 265.092C545.415 263.86 547.195 264.818 547.195 267.42Z" fill="white"/>
<path d="M558.151 260.984C558.151 263.586 556.37 266.598 554.179 267.968C551.988 269.2 550.208 268.242 550.208 265.64C550.208 263.038 551.988 260.025 554.179 258.656C556.37 257.424 558.151 258.519 558.151 260.984Z" fill="white"/>
<path d="M393.55 29.0107L385.471 33.6666V24.3548L393.55 19.8358V29.0107Z" fill="white"/>
<path d="M404.642 22.5746L396.562 27.0935V17.9187L404.642 13.2628V22.5746Z" fill="white"/>
<path d="M393.55 40.9243L385.607 45.5802V36.4053L393.55 31.7495V40.9243Z" fill="white"/>
<path d="M404.642 34.6251L396.562 39.281V29.9692L404.642 25.4503V34.6251Z" fill="white"/>
<defs>
<linearGradient id="paint0_linear" x1="196.359" y1="136.233" x2="151.704" y2="121.854" gradientUnits="userSpaceOnUse">
<stop stop-color="#86E6FF"/>
<stop offset="1" stop-color="#1A68FF"/>
</linearGradient>
<linearGradient id="paint1_linear" x1="134.43" y1="82.6425" x2="216.015" y2="82.6425" gradientUnits="userSpaceOnUse">
<stop stop-color="#D4ECFF"/>
<stop offset="0.2385" stop-color="#D0EAFE"/>
<stop offset="0.4599" stop-color="#C5E2F9"/>
<stop offset="0.6745" stop-color="#B2D6F2"/>
<stop offset="0.8837" stop-color="#98C4E7"/>
<stop offset="1" stop-color="#86B8E0"/>
</linearGradient>
<linearGradient id="paint2_linear" x1="165.411" y1="136.233" x2="120.755" y2="121.854" gradientUnits="userSpaceOnUse">
<stop stop-color="#86E6FF"/>
<stop offset="1" stop-color="#1A68FF"/>
</linearGradient>
<linearGradient id="paint3_linear" x1="101.718" y1="569.934" x2="61.8634" y2="380.496" gradientUnits="userSpaceOnUse">
<stop stop-color="#ABC4FF"/>
<stop offset="1" stop-color="white"/>
</linearGradient>
<radialGradient id="paint4_radial" cx="0" cy="0" r="1" gradientUnits="userSpaceOnUse" gradientTransform="translate(93.2057 368.078) scale(46.1053)">
<stop stop-color="#274F89"/>
<stop offset="1" stop-color="#173D7A"/>
</radialGradient>
<linearGradient id="paint5_linear" x1="65.1983" y1="351.348" x2="146.783" y2="351.348" gradientUnits="userSpaceOnUse">
<stop stop-color="#D4ECFF"/>
<stop offset="0.2385" stop-color="#D0EAFE"/>
<stop offset="0.4599" stop-color="#C5E2F9"/>
<stop offset="0.6745" stop-color="#B2D6F2"/>
<stop offset="0.8837" stop-color="#98C4E7"/>
<stop offset="1" stop-color="#86B8E0"/>
</linearGradient>
<linearGradient id="paint6_linear" x1="96.1209" y1="404.906" x2="51.4653" y2="390.527" gradientUnits="userSpaceOnUse">
<stop stop-color="#86E6FF"/>
<stop offset="1" stop-color="#1A68FF"/>
</linearGradient>
<linearGradient id="paint7_linear" x1="501.253" y1="593.142" x2="437.967" y2="292.059" gradientUnits="userSpaceOnUse">
<stop stop-color="#ABC4FF"/>
<stop offset="1" stop-color="white"/>
</linearGradient>
<linearGradient id="paint8_linear" x1="541.596" y1="346.099" x2="468.533" y2="267.96" gradientUnits="userSpaceOnUse">
<stop stop-color="#86E6FF"/>
<stop offset="1" stop-color="#1A68FF"/>
</linearGradient>
<linearGradient id="paint9_linear" x1="492.557" y1="346.049" x2="431.629" y2="313.295" gradientUnits="userSpaceOnUse">
<stop stop-color="#86E6FF"/>
<stop offset="1" stop-color="#1A68FF"/>
</linearGradient>
<linearGradient id="paint10_linear" x1="456.148" y1="280.864" x2="540.643" y2="331.239" gradientUnits="userSpaceOnUse">
<stop stop-color="#D4ECFF"/>
<stop offset="0.2009" stop-color="#D0EAFE"/>
<stop offset="0.3874" stop-color="#C5E2F9"/>
<stop offset="0.5682" stop-color="#B2D6F2"/>
<stop offset="0.7444" stop-color="#98C4E7"/>
<stop offset="0.8423" stop-color="#86B8E0"/>
</linearGradient>
<radialGradient id="paint11_radial" cx="0" cy="0" r="1" gradientUnits="userSpaceOnUse" gradientTransform="translate(268.733 348.283) scale(194.565)">
<stop stop-color="#396CAA"/>
<stop offset="0.3588" stop-color="#5184BD"/>
<stop offset="0.7338" stop-color="#6396CC"/>
<stop offset="1" stop-color="#699DD1"/>
</radialGradient>
<radialGradient id="paint12_radial" cx="0" cy="0" r="1" gradientUnits="userSpaceOnUse" gradientTransform="translate(547.711 155.426) scale(323.458)">
<stop stop-color="#3A9FFF"/>
<stop offset="0.645833" stop-color="#0778E4"/>
<stop offset="1" stop-color="#0E336B"/>
</radialGradient>
<linearGradient id="paint13_linear" x1="210.19" y1="273.445" x2="221.003" y2="292.101" gradientUnits="userSpaceOnUse">
<stop stop-color="#FFB200"/>
<stop offset="1" stop-color="#FF5800"/>
</linearGradient>
<linearGradient id="paint14_linear" x1="213.135" y1="236.472" x2="218.141" y2="245.054" gradientUnits="userSpaceOnUse">
<stop stop-color="#FFB200"/>
<stop offset="1" stop-color="#FF5800"/>
</linearGradient>
<linearGradient id="paint15_linear" x1="244.631" y1="254.548" x2="249.637" y2="263.13" gradientUnits="userSpaceOnUse">
<stop stop-color="#FFB200"/>
<stop offset="1" stop-color="#FF5800"/>
</linearGradient>
<linearGradient id="paint16_linear" x1="458.186" y1="137.74" x2="469.252" y2="156.778" gradientUnits="userSpaceOnUse">
<stop stop-color="#FFB200"/>
<stop offset="1" stop-color="#FF5800"/>
</linearGradient>
<radialGradient id="paint17_radial" cx="0" cy="0" r="1" gradientUnits="userSpaceOnUse" gradientTransform="translate(299.479 158.702) scale(14.8034)">
<stop stop-color="#699DD1"/>
<stop offset="0.2662" stop-color="#6396CC"/>
<stop offset="0.6412" stop-color="#5184BD"/>
<stop offset="1" stop-color="#396CAA"/>
</radialGradient>
<radialGradient id="paint18_radial" cx="0" cy="0" r="1" gradientUnits="userSpaceOnUse" gradientTransform="translate(291.2 142.812) scale(23.4074)">
<stop stop-color="#699DD1"/>
<stop offset="0.2662" stop-color="#6396CC"/>
<stop offset="0.6412" stop-color="#5184BD"/>
<stop offset="1" stop-color="#396CAA"/>
</radialGradient>
<radialGradient id="paint19_radial" cx="0" cy="0" r="1" gradientUnits="userSpaceOnUse" gradientTransform="translate(349.255 187.474) scale(14.8035)">
<stop stop-color="#699DD1"/>
<stop offset="0.2662" stop-color="#6396CC"/>
<stop offset="0.6412" stop-color="#5184BD"/>
<stop offset="1" stop-color="#396CAA"/>
</radialGradient>
<radialGradient id="paint20_radial" cx="0" cy="0" r="1" gradientUnits="userSpaceOnUse" gradientTransform="translate(340.976 171.584) scale(23.4075)">
<stop stop-color="#699DD1"/>
<stop offset="0.2662" stop-color="#6396CC"/>
<stop offset="0.6412" stop-color="#5184BD"/>
<stop offset="1" stop-color="#396CAA"/>
</radialGradient>
<radialGradient id="paint21_radial" cx="0" cy="0" r="1" gradientUnits="userSpaceOnUse" gradientTransform="translate(363.111 89.5043) scale(84.2441)">
<stop stop-color="#699DD1"/>
<stop offset="0.2662" stop-color="#6396CC"/>
<stop offset="0.6412" stop-color="#5184BD"/>
<stop offset="1" stop-color="#396CAA"/>
</radialGradient>
<linearGradient id="paint22_linear" x1="250.47" y1="96.4049" x2="420.626" y2="96.4049" gradientUnits="userSpaceOnUse">
<stop stop-color="#D4ECFF"/>
<stop offset="0.2385" stop-color="#D0EAFE"/>
<stop offset="0.4599" stop-color="#C5E2F9"/>
<stop offset="0.6745" stop-color="#B2D6F2"/>
<stop offset="0.8837" stop-color="#98C4E7"/>
<stop offset="1" stop-color="#86B8E0"/>
</linearGradient>
<linearGradient id="paint23_linear" x1="414.912" y1="174.537" x2="224.032" y2="66.824" gradientUnits="userSpaceOnUse">
<stop stop-color="#86E6FF"/>
<stop offset="1" stop-color="#1A68FF"/>
</linearGradient>
<linearGradient id="paint24_linear" x1="306.668" y1="78.2724" x2="350.846" y2="99.3606" gradientUnits="userSpaceOnUse">
<stop stop-color="#02C34D"/>
<stop offset="1" stop-color="#91FF8C"/>
</linearGradient>
</defs>
</svg>
