<svg width="23" height="20" viewBox="0 0 23 20" fill="none" xmlns="http://www.w3.org/2000/svg">
<path d="M17.7778 16.1111V17.5C17.7778 18.163 17.5144 18.7989 17.0455 19.2678C16.5767 19.7366 15.9408 20 15.2778 20H6.94444C6.2814 20 5.64552 19.7366 5.17668 19.2678C4.70784 18.7989 4.44444 18.163 4.44444 17.5V16.11L2.5 16.1111C1.83696 16.1111 1.20107 15.8477 0.732233 15.3789C0.263392 14.91 0 14.2742 0 13.6111V6.94889C0 5.99116 0.380455 5.07266 1.05767 4.39545C1.73488 3.71823 2.65338 3.33778 3.61111 3.33778L4.44333 3.33667L4.44444 2.5C4.44444 1.83696 4.70784 1.20107 5.17668 0.732233C5.64552 0.263392 6.2814 0 6.94444 0H15.28C15.943 0 16.5789 0.263392 17.0478 0.732233C17.5166 1.20107 17.78 1.83696 17.78 2.5V3.33667H18.6133C19.5711 3.33725 20.4895 3.71783 21.1669 4.39485C21.8444 5.07188 22.2255 5.99003 22.2267 6.94778L22.23 13.6111C22.2301 13.9393 22.1657 14.2642 22.0402 14.5675C21.9148 14.8707 21.7308 15.1463 21.4989 15.3784C21.2669 15.6106 20.9915 15.7948 20.6884 15.9205C20.3853 16.0462 20.0604 16.111 19.7322 16.1111H17.7778ZM15.2778 11.6667H6.94444C6.72343 11.6667 6.51147 11.7545 6.35519 11.9107C6.19891 12.067 6.11111 12.279 6.11111 12.5V17.5C6.11111 17.96 6.48444 18.3333 6.94444 18.3333H15.2778C15.4988 18.3333 15.7108 18.2455 15.867 18.0893C16.0233 17.933 16.1111 17.721 16.1111 17.5V12.5C16.1111 12.279 16.0233 12.067 15.867 11.9107C15.7108 11.7545 15.4988 11.6667 15.2778 11.6667ZM15.28 1.66667H6.94444C6.72343 1.66667 6.51147 1.75446 6.35519 1.91074C6.19891 2.06702 6.11111 2.27899 6.11111 2.5L6.11 3.33667H16.1133V2.5C16.1133 2.27899 16.0255 2.06702 15.8693 1.91074C15.713 1.75446 15.501 1.66667 15.28 1.66667Z" fill="url(#paint0_linear)"/>
<defs>
<linearGradient id="paint0_linear" x1="-0.562785" y1="1.19964e-08" x2="24.8136" y2="15.8683" gradientUnits="userSpaceOnUse">
<stop stop-color="#FE8E27"/>
<stop offset="1" stop-color="#FFCC4A"/>
</linearGradient>
</defs>
</svg>
