<svg width="375" height="4685" viewBox="0 0 375 4685" fill="none" xmlns="http://www.w3.org/2000/svg">
<path d="M-116.664 1643.16C-116.664 1643.16 47.4765 1515.51 272.648 1520.5C497.819 1525.5 486.145 1713.24 486.145 1713.24L433.706 1908.94C433.706 1908.94 373.215 1912.71 230.557 1811.93C87.899 1711.14 15.363 1703.35 -124.816 1721.1L-116.664 1643.16Z" fill="url(#paint0_linear)"/>
<path d="M492.207 2259.61C492.207 2259.61 328.067 2387.27 102.895 2382.27C-122.276 2377.27 -110.602 2189.54 -110.602 2189.54L-58.1629 1993.83C-58.1629 1993.83 2.32808 1990.06 144.986 2090.85C287.644 2191.63 360.18 2199.43 500.359 2181.68L492.207 2259.61Z" fill="url(#paint1_linear)"/>
<path d="M492.207 3488.61C492.207 3488.61 328.067 3616.27 102.895 3611.27C-122.276 3606.27 -110.602 3418.54 -110.602 3418.54L-58.1629 3222.83C-58.1629 3222.83 2.32808 3219.06 144.986 3319.85C287.644 3420.63 360.18 3428.43 500.359 3410.68L492.207 3488.61Z" fill="url(#paint2_linear)"/>
<path d="M-32.6639 4463.61C-32.6639 4463.61 131.477 4591.27 356.648 4586.27C581.82 4581.27 570.145 4393.54 570.145 4393.54L517.706 4197.83C517.706 4197.83 457.215 4194.06 314.557 4294.85C171.899 4395.63 99.3632 4403.43 -40.8161 4385.68L-32.6639 4463.61Z" fill="url(#paint3_linear)"/>
<path fill-rule="evenodd" clip-rule="evenodd" d="M-11.5505 479C-11.5505 549.997 1.12903 581.211 60.3484 602.708C119.568 624.205 254.432 610.685 383.245 561.742L385.406 626.909H-14L-11.5505 479ZM387.244 906.235C381.492 854.466 373.372 781.392 318.045 704.594C260.264 624.387 86.349 632.484 -11 704.594V627H388V913C387.75 910.788 387.499 908.532 387.244 906.235Z" fill="url(#paint4_linear)"/>
<path fill-rule="evenodd" clip-rule="evenodd" d="M-11.5505 2532C-11.5505 2603 1.12903 2634.21 60.3484 2655.71C119.568 2677.2 254.432 2663.68 383.245 2614.74L385.406 2679.91H-14L-11.5505 2532ZM387.244 2959.23C381.492 2907.47 373.372 2834.39 318.045 2757.59C260.264 2677.39 86.349 2685.48 -11 2757.59V2680H388V2966C387.75 2963.79 387.499 2961.53 387.244 2959.23Z" fill="url(#paint5_linear)"/>
<defs>
<linearGradient id="paint0_linear" x1="590.143" y1="447.816" x2="273.689" y2="1882.37" gradientUnits="userSpaceOnUse">
<stop stop-color="#B5CBFF"/>
<stop offset="1" stop-color="white"/>
</linearGradient>
<linearGradient id="paint1_linear" x1="-214.6" y1="3454.96" x2="101.854" y2="2020.4" gradientUnits="userSpaceOnUse">
<stop stop-color="#B5CBFF"/>
<stop offset="1" stop-color="white"/>
</linearGradient>
<linearGradient id="paint2_linear" x1="-214.6" y1="4683.96" x2="101.854" y2="3249.4" gradientUnits="userSpaceOnUse">
<stop stop-color="#B5CBFF"/>
<stop offset="1" stop-color="white"/>
</linearGradient>
<linearGradient id="paint3_linear" x1="674.144" y1="5658.96" x2="357.689" y2="4224.4" gradientUnits="userSpaceOnUse">
<stop stop-color="#B5CBFF"/>
<stop offset="1" stop-color="white"/>
</linearGradient>
<linearGradient id="paint4_linear" x1="180.909" y1="444.801" x2="155.824" y2="726.925" gradientUnits="userSpaceOnUse">
<stop stop-color="#ABC4FF"/>
<stop offset="1" stop-color="white"/>
</linearGradient>
<linearGradient id="paint5_linear" x1="180.909" y1="2497.8" x2="155.824" y2="2779.92" gradientUnits="userSpaceOnUse">
<stop stop-color="#ABC4FF"/>
<stop offset="1" stop-color="white"/>
</linearGradient>
</defs>
</svg>
