<svg width="606" height="502" viewBox="0 0 606 502" fill="none" xmlns="http://www.w3.org/2000/svg">
<g opacity="0.4">
<path opacity="0.4" d="M555.914 164.39L505.827 135.333L555.914 106.276L606 135.333L555.914 164.39ZM509.347 135.493L555.914 162.464L602.48 135.493L555.914 108.523L509.347 135.493Z" fill="white"/>
<path opacity="0.4" d="M459.261 164.39L458.781 164.069L409.174 135.333L459.261 106.436L459.741 106.757L509.347 135.493L459.261 164.39ZM412.855 135.493L459.421 162.464L505.987 135.493L459.261 108.523L412.855 135.493Z" fill="white"/>
<path opacity="0.4" d="M507.587 192.484L457.5 163.427L507.587 134.37L557.674 163.427L507.587 192.484ZM461.021 163.427L507.587 190.397L554.153 163.427L507.587 136.457L461.021 163.427Z" fill="white"/>
<path opacity="0.4" d="M555.914 220.418L555.433 220.097L505.827 191.36L555.914 162.303L556.394 162.624L606 191.36L555.914 220.418ZM509.347 191.36L555.914 218.331L602.48 191.36L555.914 164.39L509.347 191.36Z" fill="white"/>
<path opacity="0.4" d="M362.768 164.39L362.288 164.069L312.681 135.333L362.768 106.276L363.248 106.597L412.855 135.333L362.768 164.39ZM316.202 135.493L362.768 162.464L409.334 135.493L362.768 108.523L316.202 135.493Z" fill="white"/>
<path opacity="0.4" d="M411.094 192.484L410.614 192.163L361.008 163.427L411.094 134.37L411.575 134.691L461.181 163.427L411.094 192.484ZM364.528 163.427L411.094 190.397L457.661 163.427L411.094 136.457L364.528 163.427Z" fill="white"/>
<path opacity="0.4" d="M459.261 220.418L458.781 220.097L409.174 191.36L459.261 162.303L509.347 191.36L459.261 220.418ZM412.855 191.36L459.261 218.331L505.827 191.36L459.261 164.39L412.855 191.36Z" fill="white"/>
<path opacity="0.4" d="M507.587 248.351L457.5 219.294L507.587 190.237L508.067 190.558L557.674 219.294L507.587 248.351ZM461.181 219.294L507.747 246.264L554.313 219.294L507.747 192.324L461.181 219.294Z" fill="white"/>
<path opacity="0.4" d="M555.914 276.285L505.827 247.227L555.914 218.17L556.394 218.491L606 247.227L555.914 276.285ZM509.347 247.388L555.914 274.358L602.48 247.388L555.914 220.418L509.347 247.388Z" fill="white"/>
<path opacity="0.4" d="M266.115 164.39L265.635 164.069L216.029 135.333L266.115 106.276L316.202 135.333L266.115 164.39ZM219.709 135.493L266.275 162.464L312.841 135.493L266.275 108.523L219.709 135.493Z" fill="white"/>
<path opacity="0.4" d="M314.442 192.484L264.355 163.427L314.442 134.37L314.922 134.691L364.528 163.427L314.442 192.484ZM267.875 163.427L314.442 190.397L361.008 163.427L314.442 136.457L267.875 163.427Z" fill="white"/>
<path opacity="0.4" d="M362.768 220.418L362.288 220.097L312.681 191.36L362.768 162.303L363.248 162.624L412.855 191.36L362.768 220.418ZM316.202 191.36L362.768 218.331L409.334 191.36L362.768 164.39L316.202 191.36Z" fill="white"/>
<path opacity="0.4" d="M411.094 248.351L410.614 248.03L361.008 219.294L411.094 190.237L411.575 190.558L461.181 219.294L411.094 248.351ZM364.528 219.294L411.094 246.264L457.661 219.294L411.094 192.324L364.528 219.294Z" fill="white"/>
<path opacity="0.4" d="M459.261 276.285L409.174 247.227L459.261 218.331L509.347 247.388L459.261 276.285ZM412.855 247.388L459.421 274.358L505.987 247.388L459.261 220.418L412.855 247.388Z" fill="white"/>
<path opacity="0.4" d="M507.587 304.218L507.107 303.897L457.5 275.161L507.587 246.104L557.674 275.161L507.587 304.218ZM461.181 275.321L507.747 302.292L554.313 275.321L507.747 248.351L461.181 275.321Z" fill="white"/>
<path opacity="0.4" d="M555.914 332.312L505.827 303.255L555.914 274.198L556.394 274.519L606 303.255L555.914 332.312ZM509.347 303.255L555.914 330.225L602.48 303.255L555.914 276.285L509.347 303.255Z" fill="white"/>
<path opacity="0.4" d="M169.622 164.39L169.142 164.069L119.536 135.333L169.622 106.436L170.103 106.757L219.709 135.493L169.622 164.39ZM123.056 135.493L169.622 162.464L216.029 135.493L169.622 108.523L123.056 135.493Z" fill="white"/>
<path opacity="0.4" d="M217.949 192.484L217.469 192.163L167.862 163.427L217.949 134.37L218.429 134.691L268.035 163.427L217.949 192.484ZM171.383 163.427L217.949 190.397L264.515 163.427L217.949 136.457L171.383 163.427Z" fill="white"/>
<path opacity="0.4" d="M266.115 220.418L265.635 220.097L216.029 191.36L266.115 162.303L316.202 191.36L266.115 220.418ZM219.709 191.36L266.275 218.331L312.841 191.36L266.275 164.39L219.709 191.36Z" fill="white"/>
<path opacity="0.4" d="M314.442 248.351L313.962 248.03L264.355 219.294L314.442 190.237L314.922 190.558L364.528 219.294L314.442 248.351ZM267.875 219.294L314.442 246.264L361.008 219.294L314.442 192.324L267.875 219.294Z" fill="white"/>
<path opacity="0.4" d="M362.768 276.285L312.681 247.227L362.768 218.17L363.248 218.491L412.855 247.227L362.768 276.285ZM316.202 247.388L362.768 274.358L409.334 247.388L362.768 220.418L316.202 247.388Z" fill="white"/>
<path opacity="0.4" d="M411.094 304.218L361.008 275.161L411.094 246.104L461.181 275.161L411.094 304.218ZM364.528 275.321L411.094 302.292L457.661 275.321L411.094 248.351L364.528 275.321Z" fill="white"/>
<path opacity="0.4" d="M459.261 332.312L458.781 331.991L409.174 303.255L459.261 274.198L459.741 274.519L509.347 303.255L459.261 332.312ZM412.855 303.255L459.421 330.225L505.987 303.255L459.261 276.285L412.855 303.255Z" fill="white"/>
<path opacity="0.4" d="M507.587 360.246L507.107 359.925L457.5 331.188L507.587 302.131L557.674 331.188L507.587 360.246ZM461.181 331.188L507.747 358.159L554.313 331.188L507.747 304.218L461.181 331.188Z" fill="white"/>
<path opacity="0.4" d="M555.914 388.179L555.433 387.858L505.827 359.122L555.914 330.065L556.394 330.386L606 359.122L555.914 388.179ZM509.347 359.282L555.914 386.253L602.48 359.282L555.914 332.312L509.347 359.282Z" fill="white"/>
<path opacity="0.4" d="M72.9697 164.39L72.4896 164.069L22.8831 135.333L72.9697 106.276L123.056 135.333L72.9697 164.39ZM26.5635 135.493L73.1297 162.464L119.696 135.493L72.9697 108.523L26.5635 135.493Z" fill="white"/>
<path opacity="0.4" d="M121.296 192.484L120.816 192.163L71.2095 163.427L121.296 134.37L121.776 134.691L171.383 163.427L121.296 192.484ZM74.7299 163.427L121.296 190.397L167.862 163.427L121.296 136.457L74.7299 163.427Z" fill="white"/>
<path opacity="0.4" d="M169.622 220.418L119.536 191.36L169.622 162.303L170.103 162.624L219.709 191.36L169.622 220.418ZM123.056 191.36L169.622 218.331L216.189 191.36L169.622 164.39L123.056 191.36Z" fill="white"/>
<path opacity="0.4" d="M217.949 248.351L217.469 248.03L167.862 219.294L217.949 190.237L218.429 190.558L268.035 219.294L217.949 248.351ZM171.383 219.294L217.949 246.264L264.515 219.294L217.949 192.324L171.383 219.294Z" fill="white"/>
<path opacity="0.4" d="M266.115 276.285L265.635 275.964L216.029 247.227L266.115 218.17L266.595 218.491L316.202 247.227L266.115 276.285ZM219.709 247.388L266.275 274.358L312.841 247.388L266.275 220.418L219.709 247.388Z" fill="white"/>
<path opacity="0.4" d="M314.442 304.218L313.962 303.897L264.355 275.161L314.442 246.104L364.528 275.161L314.442 304.218ZM267.875 275.321L314.442 302.292L361.008 275.321L314.442 248.351L267.875 275.321Z" fill="white"/>
<path opacity="0.4" d="M362.768 332.312L362.288 331.991L312.681 303.255L362.768 274.198L412.855 303.255L362.768 332.312ZM316.202 303.255L362.768 330.225L409.334 303.255L362.768 276.285L316.202 303.255Z" fill="white"/>
<path opacity="0.4" d="M411.094 360.246L361.008 331.188L411.094 302.131L411.575 302.452L461.181 331.188L411.094 360.246ZM364.528 331.188L411.094 358.159L457.661 331.188L411.094 304.218L364.528 331.188Z" fill="white"/>
<path opacity="0.4" d="M459.261 388.179L458.781 387.858L409.174 359.122L459.261 330.065L459.741 330.386L509.347 359.122L459.261 388.179ZM412.855 359.282L459.421 386.253L505.987 359.282L459.261 332.312L412.855 359.282Z" fill="white"/>
<path opacity="0.4" d="M507.587 416.113L507.107 415.791L457.5 387.055L507.587 357.998L508.067 358.319L557.674 387.055L507.587 416.113ZM461.181 387.216L507.747 414.186L554.313 387.216L507.747 360.246L461.181 387.216Z" fill="white"/>
<path opacity="0.4" d="M555.914 444.207L555.433 443.886L505.827 415.149L555.914 386.092L606 415.149L555.914 444.207ZM509.347 415.149L555.914 442.12L602.48 415.149L555.914 388.179L509.347 415.149Z" fill="white"/>
<path opacity="0.4" d="M72.9697 220.418L72.4896 220.097L22.8831 191.36L72.9697 162.303L73.4497 162.624L123.056 191.36L72.9697 220.418ZM26.5635 191.36L72.9697 218.331L119.536 191.36L72.9697 164.39L26.5635 191.36Z" fill="white"/>
<path opacity="0.4" d="M121.296 248.351L120.816 248.03L71.2095 219.294L121.296 190.237L171.383 219.294L121.296 248.351ZM74.7299 219.294L121.296 246.264L167.862 219.294L121.296 192.324L74.7299 219.294Z" fill="white"/>
<path opacity="0.4" d="M169.622 276.285L119.536 247.227L169.622 218.331L170.103 218.652L219.709 247.388L169.622 276.285ZM123.056 247.388L169.622 274.358L216.189 247.388L169.622 220.418L123.056 247.388Z" fill="white"/>
<path opacity="0.4" d="M217.949 304.218L217.469 303.897L167.862 275.161L217.949 246.104L218.429 246.425L268.035 275.161L217.949 304.218ZM171.383 275.321L217.949 302.292L264.515 275.321L217.949 248.351L171.383 275.321Z" fill="white"/>
<path opacity="0.4" d="M266.115 332.312L265.635 331.991L216.029 303.255L266.115 274.198L266.595 274.519L316.202 303.255L266.115 332.312ZM219.709 303.255L266.275 330.225L312.841 303.255L266.275 276.285L219.709 303.255Z" fill="white"/>
<path opacity="0.4" d="M314.442 360.246L313.962 359.925L264.355 331.188L314.442 302.131L314.922 302.452L364.528 331.188L314.442 360.246ZM267.875 331.188L314.442 358.159L361.008 331.188L314.442 304.218L267.875 331.188Z" fill="white"/>
<path opacity="0.4" d="M362.768 388.179L312.681 359.122L362.768 330.065L412.855 359.122L362.768 388.179ZM316.202 359.282L362.768 386.253L409.334 359.282L362.768 332.312L316.202 359.282Z" fill="white"/>
<path opacity="0.4" d="M411.094 416.113L361.008 387.055L411.094 357.998L411.575 358.319L461.181 387.055L411.094 416.113ZM364.528 387.216L411.094 414.186L457.661 387.216L411.094 360.246L364.528 387.216Z" fill="white"/>
<path opacity="0.4" d="M459.261 444.207L458.781 443.886L409.174 415.149L459.261 386.092L459.741 386.413L509.347 415.149L459.261 444.207ZM412.855 415.149L459.421 442.12L505.987 415.149L459.261 388.179L412.855 415.149Z" fill="white"/>
<path opacity="0.4" d="M507.587 472.14L507.107 471.819L457.5 443.083L507.587 414.026L508.067 414.347L557.674 443.083L507.587 472.14ZM461.181 443.083L507.747 470.053L554.313 443.083L507.747 416.113L461.181 443.083Z" fill="white"/>
<path opacity="0.4" d="M555.914 500.073L555.433 499.752L505.827 471.016L555.914 441.959L556.394 442.28L606 471.016L555.914 500.073ZM509.347 471.016L555.914 497.987L602.48 471.016L555.914 444.046L509.347 471.016Z" fill="white"/>
<path opacity="0.4" d="M72.9697 276.285L72.4896 275.964L22.8831 247.227L72.9697 218.331L73.4497 218.652L123.056 247.388L72.9697 276.285ZM26.5635 247.388L73.1297 274.358L119.696 247.388L73.1297 220.418L26.5635 247.388Z" fill="white"/>
<path opacity="0.4" d="M121.296 304.218L120.816 303.897L71.2095 275.161L121.296 246.104L171.383 275.161L121.296 304.218ZM74.7299 275.321L121.296 302.292L167.862 275.321L121.296 248.351L74.7299 275.321Z" fill="white"/>
<path opacity="0.4" d="M169.622 332.312L169.142 331.991L119.536 303.255L169.622 274.198L170.103 274.519L219.709 303.255L169.622 332.312ZM123.056 303.255L169.622 330.225L216.189 303.255L169.622 276.285L123.056 303.255Z" fill="white"/>
<path opacity="0.4" d="M217.949 360.246L167.862 331.188L217.949 302.131L218.429 302.452L268.035 331.188L217.949 360.246ZM171.383 331.188L217.949 358.159L264.515 331.188L217.949 304.218L171.383 331.188Z" fill="white"/>
<path opacity="0.4" d="M266.115 388.179L265.635 387.858L216.029 359.122L266.115 330.065L266.595 330.386L316.202 359.122L266.115 388.179ZM219.709 359.282L266.275 386.253L312.841 359.282L266.115 332.312L219.709 359.282Z" fill="white"/>
<path opacity="0.4" d="M314.442 416.113L264.355 387.055L314.442 357.998L364.528 387.055L314.442 416.113ZM267.875 387.216L314.442 414.186L361.008 387.216L314.442 360.246L267.875 387.216Z" fill="white"/>
<path opacity="0.4" d="M362.768 444.207L362.288 443.886L312.681 415.149L362.768 386.092L412.855 415.149L362.768 444.207ZM316.202 415.149L362.768 442.12L409.334 415.149L362.768 388.179L316.202 415.149Z" fill="white"/>
<path opacity="0.4" d="M411.094 472.14L410.614 471.819L361.008 443.083L411.094 414.026L411.575 414.347L461.181 443.083L411.094 472.14ZM364.528 443.083L411.094 470.053L457.661 443.083L411.094 416.113L364.528 443.083Z" fill="white"/>
<path opacity="0.4" d="M459.261 500.073L409.174 471.016L459.261 441.959L459.741 442.28L509.347 471.016L459.261 500.073ZM412.855 471.016L459.421 497.987L505.987 471.016L459.261 444.207L412.855 471.016Z" fill="white"/>
<path opacity="0.4" d="M72.9697 332.312L72.4896 331.991L22.8831 303.255L72.9697 274.198L73.4497 274.519L123.056 303.255L72.9697 332.312ZM26.5635 303.255L73.1297 330.225L119.696 303.255L73.1297 276.285L26.5635 303.255Z" fill="white"/>
<path opacity="0.4" d="M121.296 360.246L120.816 359.925L71.2095 331.188L121.296 302.131L121.776 302.452L171.383 331.188L121.296 360.246ZM74.7299 331.188L121.296 358.159L167.862 331.188L121.296 304.218L74.7299 331.188Z" fill="white"/>
<path opacity="0.4" d="M169.622 388.179L169.142 387.858L119.536 359.122L169.622 330.065L219.709 359.122L169.622 388.179ZM123.056 359.282L169.622 386.253L216.189 359.282L169.622 332.312L123.056 359.282Z" fill="white"/>
<path opacity="0.4" d="M217.949 416.113L167.862 387.055L217.949 357.998L218.429 358.319L268.035 387.055L217.949 416.113ZM171.383 387.216L217.949 414.186L264.515 387.216L217.949 360.246L171.383 387.216Z" fill="white"/>
<path opacity="0.4" d="M266.115 444.207L265.635 443.886L216.029 415.149L266.115 386.092L316.202 415.149L266.115 444.207ZM219.709 415.149L266.275 442.12L312.841 415.149L266.275 388.179L219.709 415.149Z" fill="white"/>
<path opacity="0.4" d="M314.442 472.14L264.355 443.083L314.442 414.026L314.922 414.347L364.528 443.083L314.442 472.14ZM267.875 443.083L314.442 470.053L361.008 443.083L314.442 416.113L267.875 443.083Z" fill="white"/>
<path opacity="0.4" d="M362.768 500.073L362.288 499.752L312.681 471.016L362.768 441.959L363.248 442.28L412.855 471.016L362.768 500.073ZM316.202 471.016L362.768 497.987L409.334 471.016L362.768 444.046L316.202 471.016Z" fill="white"/>
<path opacity="0.4" d="M72.9697 388.179L72.4896 387.858L22.8831 359.122L72.9697 330.065L73.4497 330.386L123.056 359.122L72.9697 388.179ZM26.5635 359.282L73.1297 386.253L119.696 359.282L72.9697 332.312L26.5635 359.282Z" fill="white"/>
<path opacity="0.4" d="M121.296 416.113L120.816 415.791L71.2095 387.055L121.296 357.998L121.776 358.319L171.383 387.055L121.296 416.113ZM74.7299 387.216L121.296 414.186L167.862 387.216L121.296 360.246L74.7299 387.216Z" fill="white"/>
<path opacity="0.4" d="M169.622 444.207L169.142 443.886L119.536 415.149L169.622 386.092L219.709 415.149L169.622 444.207ZM123.056 415.149L169.622 442.12L216.189 415.149L169.622 388.179L123.056 415.149Z" fill="white"/>
<path opacity="0.4" d="M217.949 472.14L217.469 471.819L167.862 443.083L217.949 414.026L218.429 414.347L268.035 443.083L217.949 472.14ZM171.383 443.083L217.949 470.053L264.515 443.083L217.949 416.113L171.383 443.083Z" fill="white"/>
<path opacity="0.4" d="M266.115 500.073L216.029 471.016L266.115 441.959L316.202 471.016L266.115 500.073ZM219.709 471.016L266.275 497.987L312.841 471.016L266.275 444.046L219.709 471.016Z" fill="white"/>
<path opacity="0.4" d="M72.9697 444.207L22.8831 415.149L72.9697 386.092L73.4497 386.413L123.056 415.149L72.9697 444.207ZM26.5635 415.149L73.1297 442.12L119.696 415.149L73.1297 388.179L26.5635 415.149Z" fill="white"/>
<path opacity="0.4" d="M121.296 472.14L120.816 471.819L71.2095 443.083L121.296 414.186L121.776 414.507L171.383 443.243L121.296 472.14ZM74.7299 443.083L121.296 470.053L167.862 443.083L121.296 416.113L74.7299 443.083Z" fill="white"/>
<path opacity="0.4" d="M169.622 500.073L169.142 499.752L119.536 471.016L169.622 441.959L170.103 442.28L219.709 471.016L169.622 500.073ZM123.056 471.016L169.622 497.987L216.189 471.016L169.622 444.207L123.056 471.016Z" fill="white"/>
<path opacity="0.4" d="M72.9697 500.073L22.8831 471.016L72.9697 441.959L73.4497 442.28L123.056 471.016L72.9697 500.073ZM26.5635 471.016L73.1297 497.987L119.696 471.016L73.1297 444.046L26.5635 471.016Z" fill="white"/>
</g>
<path d="M407.574 433.932C407.574 436.982 405.493 440.835 402.773 442.28C400.053 443.885 397.972 442.601 397.972 439.551C397.972 436.501 400.053 432.648 402.773 431.203C405.493 429.598 407.574 430.721 407.574 433.932Z" fill="white"/>
<path d="M423.256 424.782C423.256 427.832 421.176 431.685 418.455 433.129C415.735 434.735 413.655 433.451 413.655 430.4C413.655 427.35 415.735 423.497 418.455 422.052C421.176 420.447 423.256 421.731 423.256 424.782Z" fill="white"/>
<path d="M438.938 415.791C438.938 418.842 436.858 422.695 434.137 424.139C431.417 425.745 429.337 424.46 429.337 421.41C429.337 418.36 431.417 414.507 434.137 413.062C436.698 411.457 438.938 412.741 438.938 415.791Z" fill="white"/>
<path d="M454.46 406.801C454.46 409.852 452.38 413.704 449.659 415.149C446.939 416.755 444.859 415.47 444.859 412.42C444.859 409.37 446.939 405.517 449.659 404.072C452.38 402.467 454.46 403.751 454.46 406.801Z" fill="white"/>
<path d="M8.48112 316.419L0 321.235V311.442L8.48112 306.626V316.419Z" fill="white"/>
<path d="M22.0829 308.392L13.6018 313.369V303.576L22.0829 298.599V308.392Z" fill="white"/>
<path d="M35.8446 300.526L27.3635 305.342V295.71L35.8446 290.733V300.526Z" fill="white"/>
<path d="M49.4465 292.659L40.9653 297.476V287.683L49.4465 282.867V292.659Z" fill="white"/>
<path d="M152.98 429.116L143.219 434.735V423.497L152.98 418.039V429.116Z" fill="white"/>
<path d="M166.262 421.25L156.661 426.869V415.791L166.262 410.173V421.25Z" fill="white"/>
<path d="M152.98 443.564L143.379 449.183V438.106L152.98 432.487V443.564Z" fill="white"/>
<path d="M166.262 435.859L156.661 441.477V430.4L166.262 424.782V435.859Z" fill="white"/>
<path opacity="0.5" d="M256.514 443.564C255.074 444.367 253.793 445.651 252.513 446.936C252.353 439.069 246.753 435.859 239.712 439.872C237.471 441.156 235.391 443.083 233.631 445.33C230.59 439.872 224.19 438.588 216.669 442.922C206.267 449.023 197.786 463.632 197.786 475.832C197.786 476.796 197.786 477.759 197.946 478.722C196.506 478.401 194.586 478.722 192.665 479.846C187.705 482.735 183.544 489.799 183.544 495.578C183.544 501.358 187.545 503.766 192.665 500.876L256.514 463.792C261.314 461.063 265.155 454.16 265.155 448.702C265.155 443.083 261.314 440.835 256.514 443.564Z" fill="white"/>
<path d="M563.275 270.826L527.11 249.956L563.275 228.926L599.439 249.956L563.275 270.826Z" fill="#7DC3EA"/>
<path d="M563.274 257.823C562.794 257.823 562.314 257.662 561.834 257.502L525.669 236.632C524.869 236.15 524.229 235.187 524.229 234.224C524.229 233.261 524.709 232.297 525.669 231.816L561.834 210.946C562.634 210.464 563.754 210.464 564.555 210.946L600.719 231.816C601.52 232.297 602.16 233.261 602.16 234.224C602.16 235.187 601.68 236.15 600.719 236.632L564.555 257.502C564.235 257.662 563.755 257.823 563.274 257.823ZM532.55 234.224L563.274 252.043L593.999 234.224L563.274 216.404L532.55 234.224Z" fill="white"/>
<path d="M599.439 217.849L563.274 238.719V196.819L599.439 175.949V217.849Z" fill="url(#paint0_radial)"/>
<path d="M563.275 196.819L527.11 175.949L563.275 154.918L599.439 175.949L563.275 196.819Z" fill="url(#paint1_linear)"/>
<path d="M563.275 238.719L527.11 217.849V175.949L563.275 196.819V238.719Z" fill="url(#paint2_radial)"/>
<path d="M550.313 216.083L540.231 210.304V198.585L550.313 204.364V216.083Z" fill="white"/>
<path d="M60.0078 430.24L10.2413 401.343C7.20087 399.577 7.52092 396.527 11.0414 394.44L59.2077 366.507C62.7282 364.42 68.0089 364.259 71.2093 366.025L121.136 394.922C124.176 396.688 123.856 399.738 120.336 401.825L72.0094 429.758C68.489 431.845 63.2083 432.006 60.0078 430.24Z" fill="url(#paint3_linear)"/>
<path d="M65.2887 418.521C62.8884 418.521 60.488 418.039 58.7278 416.915L8.80123 388.019C6.56093 386.734 5.28076 384.808 5.28076 382.56C5.28076 380.152 6.88097 377.744 9.60133 376.139L57.7677 348.366C62.2483 345.797 68.6491 345.637 72.4896 347.884L122.416 376.781C124.657 378.065 125.937 379.992 125.937 382.239C125.937 384.647 124.336 387.055 121.616 388.661L73.4498 416.594C71.0494 417.878 68.1691 418.521 65.2887 418.521ZM61.4482 411.939C63.6885 413.223 67.849 412.902 70.5694 411.457L118.736 383.684C120.016 383.042 120.176 382.4 120.176 382.239C120.176 382.239 120.016 381.918 119.536 381.758L69.6093 352.861C67.369 351.577 63.2084 351.898 60.488 353.343L12.4817 381.115C11.2015 381.758 11.0415 382.4 11.0415 382.56C11.0415 382.56 11.2015 382.881 11.6816 383.042L61.4482 411.939Z" fill="white"/>
<path d="M123.056 364.42V347.081H84.4911L71.2094 339.376C68.169 337.61 62.7283 337.77 59.2078 339.857L46.7262 347.081H8.16106V364.901C8.00104 366.025 8.80115 367.309 10.2413 368.112L60.1679 397.009C63.2083 398.775 68.649 398.614 72.1695 396.527L120.336 368.594C122.256 367.47 123.216 365.864 123.056 364.42Z" fill="url(#paint4_linear)"/>
<path d="M65.6086 338.252C63.3683 338.252 60.968 338.894 59.2078 339.857L46.7262 347.081H8.16106V364.901C8.00104 366.025 8.80115 367.309 10.2413 368.112L60.1679 397.009C61.6081 397.811 63.6884 398.293 65.7687 398.132V338.252H65.6086Z" fill="url(#paint5_radial)"/>
<path d="M12.4816 347.082H8.16106V364.901C8.00104 366.025 8.80115 367.309 10.2413 368.112L12.4816 369.396V347.082Z" fill="#D4ECFF"/>
<path d="M60.8081 397.33C63.3684 398.453 67.2089 398.453 70.4094 397.169V376.941H60.8081V397.33Z" fill="url(#paint6_linear)"/>
<path d="M60.0079 379.35L10.0814 350.453C7.04096 348.687 7.361 345.637 10.8815 343.55L59.2078 315.616C62.7283 313.529 68.009 313.369 71.2094 315.135L121.136 344.031C124.176 345.797 123.856 348.847 120.336 350.934L72.0095 378.868C68.4891 380.794 63.2084 381.115 60.0079 379.35Z" fill="url(#paint7_linear)"/>
<path d="M120.176 347.563L72.0097 375.336C68.4892 377.423 63.2085 377.584 60.0081 375.818L10.0815 346.921C9.44142 346.6 8.96136 346.118 8.48129 345.637C7.36115 347.403 7.84121 349.169 10.0815 350.453L60.0081 379.35C63.0485 381.115 68.4892 380.955 72.0097 378.868L120.176 350.934C122.896 349.329 123.696 347.082 122.576 345.316C122.096 346.118 121.296 346.921 120.176 347.563Z" fill="white"/>
<path d="M104.814 369.075C104.814 370.359 103.854 371.965 102.734 372.607C101.613 373.249 100.653 372.767 100.653 371.483C100.653 370.199 101.613 368.594 102.734 367.951C103.854 367.149 104.814 367.791 104.814 369.075Z" fill="#D4ECFF"/>
<path d="M111.215 365.222C111.215 366.507 110.255 368.112 109.134 368.754C108.014 369.396 107.054 368.915 107.054 367.63C107.054 366.346 108.014 364.741 109.134 364.098C110.255 363.456 111.215 363.938 111.215 365.222Z" fill="#D4ECFF"/>
<path d="M117.776 361.53C117.776 362.814 116.815 364.42 115.695 365.062C114.575 365.704 113.615 365.222 113.615 363.938C113.615 362.654 114.575 361.048 115.695 360.406C116.815 359.764 117.776 360.246 117.776 361.53Z" fill="#D4ECFF"/>
<path d="M63.0483 361.369L39.6853 347.884C38.2451 347.082 38.4051 345.637 40.1653 344.673L62.7283 331.67C64.3285 330.707 66.8889 330.546 68.329 331.509L91.6921 344.995C93.1323 345.797 92.9723 347.242 91.2121 348.205L68.6491 361.209C66.8889 362.172 64.4885 362.172 63.0483 361.369Z" fill="url(#paint8_linear)"/>
<path d="M65.2887 350.132L62.0883 348.205C61.9283 348.045 61.9283 347.884 62.0883 347.724L65.1287 345.958C65.2887 345.797 65.7688 345.797 65.9288 345.958L69.1292 347.884C69.2892 348.045 69.2892 348.205 69.1292 348.366L66.0888 350.132C65.7688 350.132 65.4487 350.132 65.2887 350.132Z" fill="#D4ECFF"/>
<path d="M39.6852 347.884C39.8452 347.884 40.0053 347.724 40.1653 347.724L62.7283 334.72C64.3285 333.757 66.8888 333.596 68.329 334.56L91.5321 348.045C92.8123 347.082 92.9723 345.797 91.5321 344.995L68.169 331.509C66.7288 330.707 64.1685 330.707 62.5682 331.67L40.0053 344.673C38.4051 345.637 38.245 347.082 39.6852 347.884Z" fill="url(#paint9_linear)"/>
<path d="M144.979 192.003C144.019 192.484 143.059 193.287 142.259 193.929C141.939 181.568 132.977 176.751 122.096 183.012C113.135 188.15 105.614 199.227 103.054 209.983C100.813 209.662 98.2529 210.304 95.5325 211.909C87.5315 216.565 81.1306 227.802 81.1306 236.953C81.1306 246.104 87.5315 249.957 95.5325 245.301L145.139 216.565C151.06 213.193 155.7 204.846 155.7 198.103C155.54 191.36 150.9 188.631 144.979 192.003Z" fill="white"/>
<path d="M560.074 17.6591C558.474 18.6223 556.874 19.9066 555.433 21.6725C555.273 12.6824 548.712 8.99008 540.871 13.6457C538.311 15.0905 535.911 17.338 533.83 19.7461C530.31 13.4851 522.949 12.0403 514.468 17.0169C502.626 23.92 492.865 40.7764 492.865 54.5827C492.865 55.7064 493.025 56.8302 493.025 57.7934C491.265 57.3118 489.185 57.6329 486.944 59.0777C481.184 62.449 476.543 70.4758 476.543 77.0579C476.543 83.6399 481.184 86.369 486.944 82.9977L560.074 40.7764C565.515 37.5657 569.995 29.8599 569.995 23.4384C569.995 17.0169 565.515 14.4483 560.074 17.6591Z" fill="white"/>
<path d="M509.667 328.299C509.347 328.299 508.867 328.138 508.547 327.978C507.427 327.335 506.947 325.891 507.587 324.767C509.987 320.111 513.668 316.098 517.508 313.85C519.909 312.405 522.309 311.763 524.549 311.924C524.709 311.924 524.709 311.924 524.869 311.924C527.91 311.924 531.75 309.516 534.951 305.663C536.871 303.255 538.951 301.489 541.191 300.205C543.592 298.76 545.992 298.118 548.232 298.278C551.273 298.439 555.273 296.031 558.634 292.017C560.554 289.77 562.794 287.843 564.875 286.559C567.275 285.114 569.675 284.472 571.915 284.633C574.956 284.793 578.956 282.385 582.317 278.372C584.237 275.963 586.317 274.198 588.558 272.913C592.078 270.826 595.599 270.345 598.479 271.629C599.759 272.111 600.239 273.555 599.759 274.84C599.279 276.124 597.839 276.606 596.559 276.124C595.119 275.482 593.038 275.803 590.958 277.087C589.198 278.05 587.438 279.656 585.997 281.422C581.517 286.719 576.236 289.77 571.595 289.449C570.315 289.449 568.875 289.77 567.275 290.733C565.515 291.696 563.754 293.302 562.314 295.067C557.834 300.365 552.713 303.415 547.912 303.094C546.632 302.934 545.192 303.415 543.592 304.379C541.832 305.342 540.071 306.947 538.631 308.713C534.15 314.011 528.87 317.061 524.229 316.74C522.949 316.579 521.509 317.061 519.909 318.024C516.868 319.79 513.988 323.001 511.908 327.014C511.427 327.817 510.627 328.299 509.667 328.299Z" fill="white"/>
<path d="M311.241 450.146L112.495 335.041C106.894 331.83 107.534 326.051 114.095 322.359L249.473 244.017C256.034 240.324 265.795 239.843 271.396 243.053L470.142 358.159C475.743 361.369 475.103 367.149 468.542 370.841L333.164 449.183C326.763 453.036 316.842 453.357 311.241 450.146Z" fill="url(#paint10_linear)"/>
<path d="M320.842 432.648C316.842 432.648 313.001 431.845 310.121 430.079L111.215 314.974C108.014 313.048 106.254 310.479 106.254 307.429C106.254 304.058 108.654 300.686 112.815 298.278L248.193 219.936C255.394 215.762 266.115 215.28 272.516 218.973L471.262 334.078C474.463 336.004 476.223 338.573 476.223 341.623C476.223 344.995 473.822 348.366 469.662 350.774L334.444 429.277C330.444 431.524 325.483 432.648 320.842 432.648ZM312.361 426.066C317.322 428.956 326.283 428.474 332.044 425.103L467.422 346.76C469.982 345.155 471.582 343.229 471.582 341.623C471.582 340.018 470.142 338.894 469.022 338.091L270.276 222.986C265.315 220.097 256.354 220.578 250.593 223.949L115.215 302.292C112.655 303.897 111.055 305.823 111.055 307.429C111.055 309.034 112.495 310.158 113.615 310.961L312.361 426.066Z" fill="white"/>
<path d="M519.428 116.389L320.682 1.2843C318.442 -2.07499e-06 316.042 -0.321077 313.961 0.48161H313.641C313.641 0.48161 313.641 0.48161 313.481 0.48161L306.28 3.21074L312.681 6.42149C312.681 6.58203 312.681 6.58202 312.521 6.74256L277.316 166.959C275.716 174.343 278.917 183.012 284.517 186.223L478.623 298.599L477.983 306.787L485.824 303.736C488.384 302.452 490.625 299.723 491.425 295.71L526.629 135.493C528.39 128.269 525.029 119.6 519.428 116.389Z" fill="url(#paint11_linear)"/>
<path d="M519.428 116.39L320.682 1.2843C318.442 -2.07871e-06 316.042 -0.321077 313.961 0.48161H313.641C313.641 0.48161 313.641 0.48161 313.481 0.48161L306.28 3.21074L312.681 6.42149C312.681 6.58203 312.681 6.58203 312.521 6.74256L288.358 116.55L385.651 192.645L525.509 124.256C524.389 120.885 522.309 117.995 519.428 116.39Z" fill="url(#paint12_linear)"/>
<path d="M511.908 139.186L527.11 132.764C527.43 126.824 525.029 120.885 521.029 117.513L497.026 127.627L511.908 139.186Z" fill="#274F89"/>
<path d="M471.262 306.305L272.356 191.039C266.755 187.829 263.555 179.16 265.155 171.775L300.359 11.5587C301.96 4.17398 307.88 0.802693 313.481 4.01344L512.227 119.119C517.828 122.329 521.029 130.998 519.428 138.383L484.224 298.599C482.624 306.145 476.863 309.516 471.262 306.305Z" fill="url(#paint13_radial)"/>
<path d="M514.148 118.476L315.241 3.37127C312.521 1.7659 309.801 1.7659 307.4 3.0502C309.321 2.56859 311.241 2.88966 313.321 4.01342L512.067 119.119C517.668 122.329 520.869 130.998 519.268 138.383L484.064 298.599C483.264 302.452 481.183 305.181 478.783 306.466C482.143 305.663 484.864 302.613 485.984 297.957L521.189 137.741C522.949 130.356 519.748 121.687 514.148 118.476Z" fill="white"/>
<path d="M466.941 295.228L280.037 187.026C274.916 183.976 271.876 176.109 273.476 169.367L305.8 21.6725C307.24 14.93 312.681 11.8797 317.802 14.7694L504.706 122.972C509.827 126.022 512.867 133.888 511.267 140.631L478.943 288.325C477.343 295.228 472.062 298.278 466.941 295.228Z" fill="white"/>
<path d="M466.941 295.228L280.037 187.026C274.916 183.976 271.876 176.109 273.476 169.367L305.8 21.6725C307.24 14.93 312.681 11.8797 317.802 14.7694L504.706 122.972C509.827 126.022 512.867 133.888 511.267 140.631L478.943 288.325C477.343 295.228 472.062 298.278 466.941 295.228Z" fill="url(#paint14_radial)"/>
<path d="M468.542 294.586L281.637 186.384C276.516 183.334 273.476 175.467 275.076 168.725L307.4 21.0304C308.2 17.6591 309.961 15.0905 312.041 13.9667C309.001 14.7694 306.6 17.4986 305.64 21.8331L273.316 169.527C271.876 176.27 274.756 184.136 279.877 187.186L466.781 295.389C469.342 296.833 471.902 296.833 474.142 295.71C472.382 296.031 470.462 295.71 468.542 294.586Z" fill="url(#paint15_linear)"/>
<path d="M473.982 311.282L446.779 307.75L271.396 206.13C265.795 202.919 255.874 203.24 249.473 207.093L125.136 279.014L108.654 276.766V286.077C108.494 288.164 109.774 290.251 112.495 291.857L311.241 406.962C316.842 410.173 326.763 409.852 333.164 405.999L468.542 327.657C472.222 325.57 473.982 322.84 473.982 320.272V311.282Z" fill="url(#paint16_linear)"/>
<path d="M342.125 247.067L329.643 239.843H192.665L125.136 279.014L108.654 276.766V286.077C108.494 288.164 109.774 290.251 112.495 291.857L311.241 406.962C314.281 408.728 318.282 409.37 322.602 409.049L342.125 247.067Z" fill="url(#paint17_linear)"/>
<path d="M116.015 277.729L108.654 276.766V286.077C108.494 288.164 109.774 290.251 112.495 291.857L116.015 293.944V277.729Z" fill="url(#paint18_linear)"/>
<path d="M313.321 407.925C318.602 410.012 326.283 409.531 332.044 406.801V385.932H313.321V407.925Z" fill="#274F89"/>
<path d="M311.241 397.651L112.495 282.546C106.894 279.335 107.534 273.555 114.095 269.863L249.473 191.521C256.034 187.829 265.795 187.347 271.396 190.558L470.142 305.663C475.743 308.874 475.103 314.653 468.542 318.345L333.164 396.688C326.763 400.54 316.842 401.022 311.241 397.651Z" fill="url(#paint19_radial)"/>
<path d="M468.542 314.974L333.164 393.316C326.603 397.009 316.842 397.49 311.241 394.279L112.495 279.174C110.574 278.05 109.454 276.766 108.974 275.321C108.174 278.05 109.294 280.619 112.495 282.546L311.241 397.651C316.842 400.861 326.763 400.54 333.164 396.688L468.542 318.345C472.862 315.777 474.622 312.405 473.662 309.516C473.022 311.442 471.262 313.369 468.542 314.974Z" fill="white"/>
<path d="M196.986 244.498L188.025 239.361C187.225 238.879 187.385 238.237 188.185 237.756L198.746 231.655C199.546 231.174 200.827 231.174 201.627 231.495L210.588 236.632C211.388 237.114 211.228 237.756 210.428 238.237L199.866 244.338C198.906 244.819 197.786 244.819 196.986 244.498Z" fill="url(#paint20_linear)"/>
<path d="M210.908 252.525L201.947 247.388C201.147 246.906 201.307 246.264 202.107 245.783L212.668 239.682C213.468 239.2 214.748 239.2 215.548 239.522L224.51 244.659C225.31 245.14 225.15 245.783 224.35 246.264L213.788 252.365C212.828 252.846 211.548 252.846 210.908 252.525Z" fill="url(#paint21_linear)"/>
<path d="M224.83 260.552L215.869 255.415C215.068 254.933 215.228 254.291 216.029 253.809L226.59 247.709C227.39 247.227 228.67 247.227 229.47 247.548L238.432 252.686C239.232 253.167 239.072 253.809 238.272 254.291L227.71 260.391C226.75 260.873 225.47 260.873 224.83 260.552Z" fill="url(#paint22_linear)"/>
<path d="M244.032 253.809L235.071 248.672C234.271 248.191 234.431 247.548 235.231 247.067L244.192 241.93C244.992 241.448 246.272 241.448 247.073 241.769L256.034 246.906C256.834 247.388 256.674 248.03 255.874 248.512L246.913 253.649C245.952 254.291 244.672 254.291 244.032 253.809Z" fill="url(#paint23_linear)"/>
<path d="M257.954 261.997L248.993 256.86C248.193 256.378 248.353 255.736 249.153 255.254L258.114 250.117C258.914 249.635 260.194 249.635 260.994 249.956L269.956 255.094C270.756 255.575 270.596 256.217 269.796 256.699L260.834 261.836C259.874 262.318 258.594 262.318 257.954 261.997Z" fill="url(#paint24_linear)"/>
<path d="M271.716 270.024L262.755 264.886C261.954 264.405 262.114 263.763 262.915 263.281L271.876 258.144C272.676 257.662 273.956 257.662 274.756 257.983L283.717 263.121C284.517 263.602 284.357 264.244 283.557 264.726L274.596 269.863C273.796 270.345 272.516 270.345 271.716 270.024Z" fill="url(#paint25_linear)"/>
<path d="M285.638 278.051L276.677 272.913C275.877 272.432 276.037 271.79 276.837 271.308L285.798 266.171C286.598 265.689 287.878 265.689 288.678 266.01L297.639 271.147C298.44 271.629 298.28 272.271 297.479 272.753L288.518 277.89C287.718 278.372 286.438 278.372 285.638 278.051Z" fill="url(#paint26_linear)"/>
<path d="M299.559 286.077L290.598 280.94C289.798 280.459 289.958 279.816 290.758 279.335L299.72 274.198C300.52 273.716 301.8 273.716 302.6 274.037L311.561 279.174C312.361 279.656 312.201 280.298 311.401 280.78L302.44 285.917C301.48 286.398 300.36 286.559 299.559 286.077Z" fill="url(#paint27_linear)"/>
<path d="M313.481 294.104L304.52 288.967C303.72 288.485 303.88 287.843 304.68 287.362L313.641 282.224C314.441 281.743 315.722 281.743 316.522 282.064L325.483 287.201C326.283 287.683 326.123 288.325 325.323 288.806L316.362 293.944C315.402 294.425 314.121 294.586 313.481 294.104Z" fill="url(#paint28_linear)"/>
<path d="M327.403 302.131L318.442 296.994C317.642 296.512 317.802 295.87 318.602 295.389L327.563 290.251C328.363 289.77 329.644 289.77 330.444 290.091L339.405 295.228C340.205 295.71 340.045 296.352 339.245 296.833L330.284 301.971C329.323 302.452 328.043 302.613 327.403 302.131Z" fill="url(#paint29_linear)"/>
<path d="M341.165 310.158L332.204 305.021C331.404 304.539 331.564 303.897 332.364 303.415L341.325 298.278C342.125 297.797 343.405 297.797 344.206 298.118L353.167 303.255C353.967 303.736 353.807 304.379 353.007 304.86L344.046 309.997C343.245 310.64 341.965 310.64 341.165 310.158Z" fill="url(#paint30_linear)"/>
<path d="M355.087 318.185L346.126 313.048C345.326 312.566 345.486 311.924 346.286 311.442L355.247 306.305C356.047 305.823 357.327 305.823 358.127 306.145L367.088 311.282C367.888 311.763 367.728 312.405 366.928 312.887L357.967 318.024C357.167 318.666 355.887 318.666 355.087 318.185Z" fill="url(#paint31_linear)"/>
<path d="M369.009 326.372L360.048 321.074C359.247 320.593 359.407 319.951 360.208 319.469L369.169 314.332C369.969 313.85 371.249 313.85 372.049 314.171L381.01 319.309C381.81 319.79 381.65 320.432 380.85 320.914L371.889 326.051C371.089 326.693 369.809 326.693 369.009 326.372Z" fill="url(#paint32_linear)"/>
<path d="M264.515 250.117L255.554 244.98C254.754 244.498 254.914 243.856 255.714 243.375L264.675 238.237C265.475 237.756 266.755 237.756 267.555 238.077L276.516 243.214C277.316 243.696 277.156 244.338 276.356 244.819L267.395 249.957C266.435 250.438 265.155 250.438 264.515 250.117Z" fill="url(#paint33_linear)"/>
<path d="M250.433 241.93L241.472 236.792C240.672 236.311 240.832 235.669 241.632 235.187L250.593 230.05C251.393 229.568 252.673 229.568 253.473 229.889L262.435 235.027C263.235 235.508 263.075 236.15 262.275 236.632L253.313 241.769C252.353 242.251 251.073 242.251 250.433 241.93Z" fill="url(#paint34_linear)"/>
<path d="M236.191 233.742L216.829 222.505C216.028 222.023 216.188 221.381 216.989 220.899L225.95 215.762C226.75 215.28 228.03 215.28 228.83 215.602L248.193 226.839C248.993 227.321 248.833 227.963 248.033 228.445L239.071 233.582C238.271 234.063 236.991 234.224 236.191 233.742Z" fill="url(#paint35_linear)"/>
<path d="M246.112 223.789L230.43 214.638C229.63 214.157 229.79 213.515 230.59 213.033L239.552 207.896C240.352 207.414 241.632 207.414 242.432 207.735L258.114 216.886C258.914 217.367 258.754 218.01 257.954 218.491L248.993 223.628C248.033 224.11 246.913 224.271 246.112 223.789Z" fill="url(#paint36_linear)"/>
<path d="M278.437 258.144L269.475 253.007C268.675 252.525 268.835 251.883 269.636 251.401L278.597 246.264C279.397 245.783 280.677 245.783 281.477 246.104L290.438 251.241C291.238 251.722 291.078 252.365 290.278 252.846L281.317 257.983C280.357 258.465 279.077 258.465 278.437 258.144Z" fill="url(#paint37_linear)"/>
<path d="M292.199 266.171L283.237 261.034C282.437 260.552 282.597 259.91 283.397 259.428L292.359 254.291C293.159 253.809 294.439 253.809 295.239 254.13L304.2 259.268C305 259.749 304.84 260.391 304.04 260.873L295.079 266.01C294.279 266.492 292.999 266.652 292.199 266.171Z" fill="url(#paint38_linear)"/>
<path d="M306.12 274.198L297.159 269.06C296.359 268.579 296.519 267.937 297.319 267.455L306.28 262.318C307.08 261.836 308.361 261.836 309.161 262.157L318.122 267.295C318.922 267.776 318.762 268.418 317.962 268.9L309.001 274.037C308.201 274.519 306.92 274.679 306.12 274.198Z" fill="url(#paint39_linear)"/>
<path d="M320.042 282.225L311.081 277.087C310.281 276.606 310.441 275.964 311.241 275.482L320.202 270.345C321.002 269.863 322.282 269.863 323.083 270.184L332.044 275.321C332.844 275.803 332.684 276.445 331.884 276.927L322.923 282.064C321.962 282.706 320.682 282.706 320.042 282.225Z" fill="url(#paint40_linear)"/>
<path d="M333.964 290.251L325.003 285.114C324.203 284.633 324.363 283.99 325.163 283.509L334.124 278.372C334.924 277.89 336.205 277.89 337.005 278.211L345.966 283.348C346.766 283.83 346.606 284.472 345.806 284.954L336.845 290.091C335.885 290.733 334.604 290.733 333.964 290.251Z" fill="url(#paint41_linear)"/>
<path d="M347.886 298.278L338.925 293.141C338.125 292.659 338.285 292.017 339.085 291.536L348.046 286.398C348.846 285.917 350.126 285.917 350.926 286.238L359.887 291.375C360.688 291.857 360.528 292.499 359.727 292.981L350.766 298.118C349.806 298.76 348.526 298.76 347.886 298.278Z" fill="url(#paint42_linear)"/>
<path d="M361.648 306.466L352.686 301.328C351.886 300.847 352.046 300.205 352.846 299.723L361.808 294.586C362.608 294.104 363.888 294.104 364.688 294.425L373.649 299.563C374.449 300.044 374.289 300.686 373.489 301.168L364.528 306.305C363.728 306.787 362.448 306.787 361.648 306.466Z" fill="url(#paint43_linear)"/>
<path d="M375.569 314.492L366.608 309.355C365.808 308.874 365.968 308.231 366.768 307.75L375.73 302.613C376.53 302.131 377.81 302.131 378.61 302.452L387.571 307.589C388.371 308.071 388.211 308.713 387.411 309.195L378.45 314.332C377.65 314.814 376.37 314.814 375.569 314.492Z" fill="url(#paint44_linear)"/>
<path d="M389.491 322.519L380.53 317.382C379.73 316.901 379.89 316.258 380.69 315.777L389.651 310.64C390.451 310.158 391.732 310.158 392.532 310.479L401.493 315.616C402.293 316.098 402.133 316.74 401.333 317.222L392.372 322.359C391.412 322.84 390.291 322.84 389.491 322.519Z" fill="url(#paint45_linear)"/>
<path d="M414.135 336.807L394.452 325.409C393.652 324.927 393.812 324.285 394.612 323.804L403.573 318.666C404.373 318.185 405.654 318.185 406.454 318.506L426.136 329.904C426.936 330.386 426.776 331.028 425.976 331.509L417.015 336.647C416.215 337.128 414.935 337.289 414.135 336.807Z" fill="url(#paint46_linear)"/>
<path d="M441.178 321.074L424.536 311.442C423.736 310.961 423.896 310.318 424.696 309.837L433.657 304.7C434.457 304.218 435.738 304.218 436.538 304.539L453.18 314.171C453.98 314.653 453.82 315.295 453.02 315.777L444.059 320.914C443.259 321.556 441.978 321.556 441.178 321.074Z" fill="url(#paint47_linear)"/>
<path d="M302.76 256.539L293.799 251.401C292.999 250.92 293.159 250.278 293.959 249.796L302.92 244.659C303.72 244.177 305 244.177 305.8 244.498L314.762 249.635C315.562 250.117 315.402 250.759 314.601 251.241L305.64 256.378C304.68 256.86 303.4 257.02 302.76 256.539Z" fill="url(#paint48_linear)"/>
<path d="M288.518 248.351L279.557 243.214C278.757 242.732 278.917 242.09 279.717 241.609L288.678 236.471C289.478 235.99 290.758 235.99 291.558 236.311L300.52 241.448C301.32 241.93 301.16 242.572 300.36 243.053L291.398 248.191C290.438 248.672 289.158 248.672 288.518 248.351Z" fill="url(#paint49_linear)"/>
<path d="M274.276 240.003L265.315 234.866C264.515 234.384 264.675 233.742 265.475 233.261L274.436 228.123C275.236 227.642 276.517 227.642 277.317 227.963L286.278 233.1C287.078 233.582 286.918 234.224 286.118 234.705L277.157 239.843C276.197 240.485 274.916 240.485 274.276 240.003Z" fill="url(#paint50_linear)"/>
<path d="M260.034 231.816L251.073 226.679C250.273 226.197 250.433 225.555 251.233 225.073L260.194 219.936C260.994 219.454 262.275 219.454 263.075 219.775L272.036 224.913C272.836 225.394 272.676 226.036 271.876 226.518L262.915 231.655C261.955 232.137 260.674 232.297 260.034 231.816Z" fill="url(#paint51_linear)"/>
<path d="M316.522 264.565L307.56 259.428C306.76 258.947 306.92 258.304 307.72 257.823L316.682 252.686C317.482 252.204 318.762 252.204 319.562 252.525L328.523 257.662C329.323 258.144 329.163 258.786 328.363 259.268L319.402 264.405C318.602 264.886 317.322 265.047 316.522 264.565Z" fill="url(#paint52_linear)"/>
<path d="M330.443 272.592L321.482 267.455C320.682 266.973 320.842 266.331 321.642 265.85L330.604 260.713C331.404 260.231 332.684 260.231 333.484 260.552L342.445 265.689C343.245 266.171 343.085 266.813 342.285 267.295L333.324 272.432C332.524 273.074 331.244 273.074 330.443 272.592Z" fill="url(#paint53_linear)"/>
<path d="M344.365 280.619L335.404 275.482C334.604 275 334.764 274.358 335.564 273.877L344.525 268.739C345.326 268.258 346.606 268.258 347.406 268.579L356.367 273.716C357.167 274.198 357.007 274.84 356.207 275.321L347.246 280.459C346.286 281.101 345.166 281.101 344.365 280.619Z" fill="url(#paint54_linear)"/>
<path d="M358.287 288.806L349.326 283.669C348.526 283.188 348.686 282.546 349.486 282.064L358.447 276.927C359.247 276.445 360.528 276.445 361.328 276.766L370.289 281.903C371.089 282.385 370.929 283.027 370.129 283.509L361.168 288.646C360.208 289.128 358.927 289.128 358.287 288.806Z" fill="url(#paint55_linear)"/>
<path d="M372.209 296.833L363.248 291.696C362.448 291.215 362.608 290.572 363.408 290.091L372.369 284.954C373.169 284.472 374.449 284.472 375.25 284.793L384.211 289.93C385.011 290.412 384.851 291.054 384.051 291.536L375.09 296.673C374.129 297.154 372.849 297.154 372.209 296.833Z" fill="url(#paint56_linear)"/>
<path d="M385.971 304.86L377.01 299.723C376.21 299.241 376.37 298.599 377.17 298.118L386.131 292.98C386.931 292.499 388.211 292.499 389.011 292.82L397.972 297.957C398.773 298.439 398.613 299.081 397.812 299.563L388.851 304.7C388.051 305.181 386.771 305.181 385.971 304.86Z" fill="url(#paint57_linear)"/>
<path d="M399.893 312.887L390.932 307.75C390.131 307.268 390.291 306.626 391.092 306.145L400.053 301.007C400.853 300.526 402.133 300.526 402.933 300.847L411.894 305.984C412.694 306.466 412.534 307.108 411.734 307.589L402.773 312.727C401.973 313.208 400.693 313.369 399.893 312.887Z" fill="url(#paint58_linear)"/>
<path d="M413.815 320.914L404.853 315.777C404.053 315.295 404.213 314.653 405.013 314.171L413.975 309.034C414.775 308.553 416.055 308.553 416.855 308.874L425.816 314.011C426.616 314.492 426.456 315.135 425.656 315.616L416.695 320.753C415.735 321.235 414.615 321.396 413.815 320.914Z" fill="url(#paint59_linear)"/>
<path d="M427.736 328.941L418.775 323.804C417.975 323.322 418.135 322.68 418.935 322.198L427.896 317.061C428.697 316.579 429.977 316.579 430.777 316.901L439.738 322.038C440.538 322.519 440.378 323.162 439.578 323.643L430.617 328.78C429.657 329.262 428.377 329.422 427.736 328.941Z" fill="url(#paint60_linear)"/>
<path d="M295.399 236.632L286.438 231.495C285.638 231.013 285.798 230.371 286.598 229.889L295.559 224.752C296.359 224.271 297.639 224.271 298.439 224.592L307.401 229.729C308.201 230.21 308.041 230.853 307.241 231.334L298.279 236.471C297.319 236.953 296.039 237.113 295.399 236.632Z" fill="url(#paint61_linear)"/>
<path d="M281.477 228.605L272.516 223.468C271.716 222.986 271.876 222.344 272.676 221.862L281.637 216.725C282.437 216.244 283.718 216.244 284.518 216.565L293.479 221.702C294.279 222.184 294.119 222.826 293.319 223.307L284.358 228.445C283.557 228.926 282.277 229.087 281.477 228.605Z" fill="url(#paint62_linear)"/>
<path d="M267.715 220.578L258.754 215.441C257.954 214.959 258.114 214.317 258.914 213.836L267.875 208.698C268.675 208.217 269.956 208.217 270.756 208.538L279.717 213.675C280.517 214.157 280.357 214.799 279.557 215.28L270.596 220.418C269.636 221.06 268.515 221.06 267.715 220.578Z" fill="url(#paint63_linear)"/>
<path d="M253.954 212.551L244.992 207.414C244.192 206.933 244.352 206.29 245.152 205.809L254.114 200.672C254.914 200.19 256.194 200.19 256.994 200.511L265.955 205.648C266.755 206.13 266.595 206.772 265.795 207.254L256.834 212.391C255.874 213.033 254.594 213.033 253.954 212.551Z" fill="url(#paint64_linear)"/>
<path d="M268.195 204.364L259.234 199.227C258.434 198.745 258.594 198.103 259.394 197.621L262.275 195.855C263.075 195.374 264.355 195.374 265.155 195.695L274.116 200.832C274.916 201.314 274.756 201.956 273.956 202.437L271.076 204.203C270.116 204.685 268.836 204.846 268.195 204.364Z" fill="url(#paint65_linear)"/>
<path d="M286.118 214.799L277.157 209.662C276.357 209.18 276.517 208.538 277.317 208.056L280.197 206.29C280.997 205.809 282.277 205.809 283.077 206.13L292.039 211.267C292.839 211.749 292.679 212.391 291.879 212.872L288.998 214.638C288.198 215.28 286.918 215.28 286.118 214.799Z" fill="url(#paint66_linear)"/>
<path d="M299.88 222.826L290.918 217.689C290.118 217.207 290.278 216.565 291.078 216.083L293.959 214.317C294.759 213.836 296.039 213.836 296.839 214.157L305.8 219.294C306.6 219.775 306.44 220.418 305.64 220.899L302.76 222.665C301.96 223.147 300.68 223.307 299.88 222.826Z" fill="url(#paint67_linear)"/>
<path d="M313.641 230.853L304.68 225.715C303.88 225.234 304.04 224.592 304.84 224.11L307.72 222.344C308.521 221.862 309.801 221.862 310.601 222.184L319.562 227.321C320.362 227.802 320.202 228.445 319.402 228.926L316.522 230.692C315.722 231.174 314.441 231.174 313.641 230.853Z" fill="url(#paint68_linear)"/>
<path d="M327.403 238.719L318.442 233.582C317.642 233.1 317.802 232.458 318.602 231.976L321.482 230.21C322.283 229.729 323.563 229.729 324.363 230.05L333.324 235.187C334.124 235.669 333.964 236.311 333.164 236.792L330.284 238.558C329.484 239.201 328.203 239.201 327.403 238.719Z" fill="url(#paint69_linear)"/>
<path d="M404.373 283.348L395.412 278.211C394.612 277.729 394.772 277.087 395.572 276.606L398.453 274.84C399.253 274.358 400.533 274.358 401.333 274.679L410.294 279.816C411.094 280.298 410.934 280.94 410.134 281.422L407.254 283.188C406.294 283.669 405.013 283.669 404.373 283.348Z" fill="url(#paint70_linear)"/>
<path d="M418.135 291.215L409.174 286.077C408.374 285.596 408.534 284.954 409.334 284.472L412.214 282.706C413.014 282.224 414.295 282.224 415.095 282.546L424.056 287.683C424.856 288.164 424.696 288.806 423.896 289.288L421.016 291.054C420.055 291.536 418.775 291.696 418.135 291.215Z" fill="url(#paint71_linear)"/>
<path d="M431.897 299.241L422.936 294.104C422.136 293.623 422.296 292.98 423.096 292.499L425.976 290.733C426.776 290.251 428.056 290.251 428.857 290.572L437.818 295.71C438.618 296.191 438.458 296.833 437.658 297.315L434.777 299.081C433.817 299.562 432.537 299.562 431.897 299.241Z" fill="url(#paint72_linear)"/>
<path d="M445.659 307.268L436.697 302.131C435.897 301.649 436.057 301.007 436.857 300.526L439.738 298.76C440.538 298.278 441.818 298.278 442.618 298.599L451.58 303.736C452.38 304.218 452.22 304.86 451.419 305.342L448.539 307.108C447.579 307.589 446.299 307.589 445.659 307.268Z" fill="url(#paint73_linear)"/>
<path d="M309.321 244.659L300.36 239.522C299.559 239.04 299.719 238.398 300.52 237.916L309.481 232.779C310.281 232.297 311.561 232.297 312.361 232.618L321.322 237.756C322.122 238.237 321.962 238.879 321.162 239.361L312.201 244.498C311.241 244.98 309.961 245.14 309.321 244.659Z" fill="url(#paint74_linear)"/>
<path d="M323.083 252.686L314.121 247.548C313.321 247.067 313.481 246.425 314.282 245.943L323.243 240.806C324.043 240.324 325.323 240.324 326.123 240.645L335.084 245.783C335.884 246.264 335.724 246.906 334.924 247.388L325.963 252.525C325.163 253.167 323.883 253.167 323.083 252.686Z" fill="url(#paint75_linear)"/>
<path d="M337.005 260.712L328.043 255.575C327.243 255.094 327.403 254.452 328.203 253.97L337.165 248.833C337.965 248.351 339.245 248.351 340.045 248.672L349.006 253.809C349.806 254.291 349.646 254.933 348.846 255.415L339.885 260.552C339.085 261.194 337.805 261.194 337.005 260.712Z" fill="url(#paint76_linear)"/>
<path d="M350.926 268.9L341.965 263.763C341.165 263.281 341.325 262.639 342.125 262.157L351.086 257.02C351.886 256.539 353.167 256.538 353.967 256.86L362.928 261.997C363.728 262.478 363.568 263.121 362.768 263.602L353.807 268.739C352.846 269.221 351.726 269.221 350.926 268.9Z" fill="url(#paint77_linear)"/>
<path d="M364.848 276.927L355.887 271.79C355.087 271.308 355.247 270.666 356.047 270.184L365.008 265.047C365.808 264.565 367.088 264.565 367.888 264.886L376.85 270.024C377.65 270.505 377.49 271.147 376.69 271.629L367.728 276.766C366.768 277.248 365.488 277.248 364.848 276.927Z" fill="url(#paint78_linear)"/>
<path d="M378.77 284.954L369.809 279.816C369.009 279.335 369.169 278.693 369.969 278.211L378.93 273.074C379.73 272.592 381.01 272.592 381.811 272.913L390.772 278.05C391.572 278.532 391.412 279.174 390.612 279.656L381.651 284.793C380.69 285.275 379.41 285.275 378.77 284.954Z" fill="url(#paint79_linear)"/>
<path d="M392.692 292.98L383.731 287.843C382.931 287.362 383.091 286.72 383.891 286.238L392.852 281.101C393.652 280.619 394.932 280.619 395.732 280.94L404.693 286.077C405.493 286.559 405.333 287.201 404.533 287.683L395.572 292.82C394.612 293.302 393.332 293.462 392.692 292.98Z" fill="url(#paint80_linear)"/>
<path d="M406.453 301.007L397.492 295.87C396.692 295.389 396.852 294.746 397.652 294.265L406.614 289.128C407.414 288.646 408.694 288.646 409.494 288.967L418.455 294.104C419.255 294.586 419.095 295.228 418.295 295.71L409.334 300.847C408.534 301.328 407.254 301.489 406.453 301.007Z" fill="url(#paint81_linear)"/>
<path d="M420.375 309.034L411.414 303.897C410.614 303.415 410.774 302.773 411.574 302.292L420.535 297.154C421.335 296.673 422.616 296.673 423.416 296.994L432.377 302.131C433.177 302.613 433.017 303.255 432.217 303.736L423.256 308.874C422.456 309.355 421.176 309.516 420.375 309.034Z" fill="url(#paint82_linear)"/>
<path d="M229.79 245.622L203.227 230.21C202.427 229.729 202.587 229.087 203.387 228.605L212.348 223.468C213.148 222.986 214.428 222.986 215.228 223.307L241.792 238.719C242.592 239.201 242.432 239.843 241.632 240.324L232.671 245.461C231.87 246.104 230.59 246.104 229.79 245.622Z" fill="url(#paint83_linear)"/>
<path d="M400.533 344.513L373.969 329.101C373.169 328.62 373.329 327.978 374.129 327.496L383.091 322.359C383.891 321.877 385.171 321.877 385.971 322.198L412.534 337.61C413.335 338.091 413.175 338.734 412.374 339.215L403.413 344.352C402.453 344.834 401.173 344.995 400.533 344.513Z" fill="url(#paint84_linear)"/>
<path d="M345.006 330.065L336.044 324.927C335.244 324.446 335.404 323.804 336.204 323.322L346.766 317.222C347.566 316.74 348.846 316.74 349.646 317.061L358.607 322.198C359.407 322.68 359.247 323.322 358.447 323.804L347.886 329.904C346.926 330.546 345.646 330.546 345.006 330.065Z" fill="url(#paint85_linear)"/>
<path d="M244.032 271.629L229.63 263.281C228.83 262.799 228.99 262.157 229.79 261.676L240.352 255.575C241.152 255.094 242.432 255.094 243.232 255.415L257.634 263.763C258.434 264.244 258.274 264.886 257.474 265.368L246.913 271.468C246.112 272.111 244.832 272.111 244.032 271.629Z" fill="url(#paint86_linear)"/>
<path d="M331.564 322.359L317.162 314.011C316.362 313.529 316.522 312.887 317.322 312.406L327.883 306.305C328.683 305.823 329.963 305.823 330.764 306.145L345.165 314.492C345.966 314.974 345.806 315.616 345.005 316.098L334.444 322.198C333.484 322.68 332.364 322.84 331.564 322.359Z" fill="url(#paint87_linear)"/>
<path d="M264.035 283.348L249.633 275C248.833 274.519 248.993 273.877 249.793 273.395L260.354 267.295C261.154 266.813 262.435 266.813 263.235 267.134L277.637 275.482C278.437 275.964 278.277 276.606 277.477 277.087L266.915 283.188C266.115 283.669 264.835 283.669 264.035 283.348Z" fill="url(#paint88_linear)"/>
<path d="M263.395 267.134L325.963 303.415C326.763 303.897 326.763 304.539 325.963 305.021L315.081 311.282C314.281 311.763 313.001 311.763 312.201 311.282L249.633 275L263.395 267.134Z" fill="url(#paint89_linear)"/>
<path d="M383.731 344.673L393.812 350.453C394.452 350.774 394.292 351.416 393.652 351.737L389.331 354.306C388.691 354.627 387.571 354.787 387.091 354.466L377.01 348.687C376.37 348.366 376.53 347.724 377.17 347.403L381.49 344.834C382.13 344.352 383.251 344.352 383.731 344.673Z" fill="url(#paint90_linear)"/>
<path d="M369.809 336.647L379.89 342.426C380.53 342.747 380.37 343.389 379.73 343.71L375.41 346.279C374.769 346.6 373.649 346.76 373.169 346.439L363.088 340.66C362.448 340.339 362.608 339.697 363.248 339.376L367.568 336.807C368.209 336.326 369.169 336.326 369.809 336.647Z" fill="url(#paint91_linear)"/>
<path d="M355.887 328.62L365.968 334.399C366.608 334.72 366.448 335.362 365.808 335.683L361.488 338.252C360.848 338.573 359.727 338.734 359.247 338.413L349.166 332.633C348.526 332.312 348.686 331.67 349.326 331.349L353.647 328.78C354.287 328.299 355.247 328.299 355.887 328.62Z" fill="url(#paint92_linear)"/>
<path d="M377.49 332.152L387.571 337.931C388.211 338.252 388.051 338.894 387.411 339.215L383.091 341.784C382.451 342.105 381.33 342.265 380.85 341.944L370.769 336.165C370.129 335.844 370.289 335.202 370.929 334.881L375.25 332.312C375.89 331.83 376.85 331.83 377.49 332.152Z" fill="url(#paint93_linear)"/>
<path d="M349.486 89.2587L326.923 76.0947L327.883 71.2785L350.446 84.2821L349.486 89.2587Z" fill="#D4ECFF"/>
<path d="M347.086 100.657L324.523 87.4928L325.483 82.6767L348.046 95.6802L347.086 100.657Z" fill="white"/>
<path d="M457.98 257.823L435.417 244.819L436.377 240.003L458.94 253.007L457.98 257.823Z" fill="#D4ECFF"/>
<path d="M342.125 123.293L319.562 110.129L320.522 105.312L343.085 118.316L342.125 123.293Z" fill="#D4ECFF"/>
<path d="M438.458 187.026L354.927 138.704L355.887 133.246L439.578 181.568L438.458 187.026Z" fill="#D4ECFF"/>
<path d="M408.534 196.176L350.126 162.464L351.246 157.005L409.654 190.879L408.534 196.176Z" fill="#D4ECFF"/>
<path d="M402.933 179.802L352.526 150.584L353.647 145.126L404.053 174.343L402.933 179.802Z" fill="white"/>
<path d="M392.212 133.085C391.412 134.851 389.331 135.493 387.731 134.53C385.971 133.567 385.331 131.319 386.131 129.554C386.931 127.788 389.011 127.146 390.611 128.109C392.372 129.072 393.012 131.319 392.212 133.085Z" fill="#FFB200"/>
<path d="M403.093 139.346C402.293 141.112 400.213 141.754 398.612 140.791C396.852 139.828 396.212 137.58 397.012 135.814C397.812 134.049 399.893 133.406 401.493 134.37C403.253 135.333 403.893 137.58 403.093 139.346Z" fill="white"/>
<path d="M413.975 145.607C413.175 147.373 411.094 148.015 409.494 147.052C407.734 146.089 407.094 143.841 407.894 142.075C408.694 140.31 410.774 139.667 412.374 140.631C414.135 141.594 414.775 143.841 413.975 145.607Z" fill="#D4ECFF"/>
<path d="M424.856 151.868C424.056 153.634 421.976 154.276 420.375 153.313C418.615 152.35 417.975 150.102 418.775 148.336C419.575 146.571 421.655 145.928 423.256 146.892C425.016 147.855 425.656 150.102 424.856 151.868Z" fill="#FFB200"/>
<path d="M436.057 198.906L410.934 184.297L411.894 178.839L437.178 193.447L436.057 198.906Z" fill="#FFB200"/>
<path d="M263.555 346.921L197.626 308.713C196.026 307.75 196.186 306.145 198.106 305.021L232.831 284.954C234.751 283.83 237.471 283.83 239.072 284.633L305 322.84C306.601 323.804 306.441 325.409 304.52 326.533L269.796 346.6C268.036 347.724 265.155 347.884 263.555 346.921Z" fill="white"/>
<path opacity="0.5" d="M315.081 382.881L136.818 279.816L188.825 249.635L367.088 352.861L315.081 382.881Z" fill="url(#paint94_linear)"/>
<path d="M315.081 359.282C314.601 359.282 314.121 359.122 313.641 358.961L135.378 255.575C134.578 255.094 133.938 254.13 133.938 253.167C133.938 252.204 134.418 251.241 135.378 250.759L187.385 220.578C188.185 220.097 189.305 220.097 190.105 220.578L368.529 323.804C369.329 324.285 369.969 325.248 369.969 326.212C369.969 327.175 369.489 328.138 368.529 328.62L316.522 358.801C316.042 359.122 315.561 359.282 315.081 359.282ZM142.259 253.167L315.081 353.182L361.648 326.212L188.825 226.358L142.259 253.167Z" fill="white"/>
<path d="M220.029 274.358C218.748 274.358 217.788 273.395 217.788 272.111V202.277C217.788 200.993 218.748 200.029 220.029 200.029C221.309 200.029 222.269 200.993 222.269 202.277V272.111C222.269 273.395 221.149 274.358 220.029 274.358Z" fill="url(#paint95_linear)"/>
<path d="M209.147 194.411V241.609C209.147 243.214 210.268 244.819 212.348 246.104C216.668 248.512 223.549 248.512 227.71 246.104C229.79 244.819 230.91 243.214 230.91 241.609V194.411H209.147Z" fill="url(#paint96_radial)"/>
<path d="M209.147 202.116V218.01C215.548 220.899 224.51 220.899 230.91 218.01V202.116C224.51 199.227 215.548 199.227 209.147 202.116Z" fill="url(#paint97_linear)"/>
<path d="M237.631 128.59H202.266V202.598C202.266 205.167 204.027 207.896 207.387 209.822C214.268 213.836 225.469 213.836 232.35 209.822C235.871 207.896 237.471 205.167 237.471 202.598V128.59H237.631Z" fill="url(#paint98_radial)"/>
<path d="M216.988 234.384C216.988 236.632 215.548 237.435 213.628 236.311C211.708 235.187 210.267 232.618 210.267 230.371C210.267 228.123 211.708 227.321 213.628 228.444C215.388 229.568 216.988 232.297 216.988 234.384Z" fill="#D4ECFF"/>
<path d="M288.518 314.171C287.238 314.171 286.278 313.208 286.278 311.924V242.09C286.278 240.806 287.238 239.843 288.518 239.843C289.798 239.843 290.758 240.806 290.758 242.09V311.924C290.758 313.208 289.638 314.171 288.518 314.171Z" fill="url(#paint99_linear)"/>
<path d="M277.636 234.224V281.422C277.636 283.027 278.757 284.633 280.837 285.917C285.157 288.325 292.038 288.325 296.199 285.917C298.279 284.633 299.399 283.027 299.399 281.422V234.224H277.636Z" fill="url(#paint100_radial)"/>
<path d="M277.636 241.93V257.823C284.037 260.713 292.999 260.713 299.399 257.823V241.93C292.999 239.04 284.037 239.04 277.636 241.93Z" fill="url(#paint101_linear)"/>
<path d="M306.12 168.404H270.756V242.411C270.756 244.98 272.516 247.709 275.876 249.635C282.757 253.649 293.959 253.649 300.84 249.635C304.36 247.709 305.96 244.98 305.96 242.411V168.404H306.12Z" fill="url(#paint102_radial)"/>
<path d="M285.477 274.198C285.477 276.445 284.037 277.248 282.117 276.124C280.197 275 278.757 272.432 278.757 270.184C278.757 267.937 280.197 267.134 282.117 268.258C283.877 269.382 285.477 271.95 285.477 274.198Z" fill="#D4ECFF"/>
<path d="M152.34 75.1315L199.226 48.0007C199.226 48.0007 197.466 74.9709 197.466 75.1315C197.466 75.292 170.422 83.4794 170.422 83.4794L152.34 75.1315Z" fill="url(#paint103_linear)"/>
<path d="M403.413 230.853C403.413 211.909 390.131 188.792 373.649 179.32C370.129 177.233 366.608 176.109 363.568 175.628C358.767 150.744 341.485 124.256 321.002 112.216C314.761 108.684 308.841 106.757 303.56 106.276C300.679 75.9341 279.877 41.7397 254.433 26.9703C241.152 19.2645 229.15 18.3012 220.189 23.1174L219.709 23.4384C219.549 23.599 219.229 23.7595 219.069 23.7595L191.385 40.1343L200.506 47.3585C192.185 51.0508 187.064 60.2015 187.064 74.0077C187.064 99.3726 204.827 130.035 226.59 142.718L361.327 239.361L365.488 267.455L394.612 250.278L394.772 250.117C400.213 246.906 403.413 240.164 403.413 230.853Z" fill="url(#paint104_radial)"/>
<path d="M188.505 62.7701L252.033 25.5254C239.711 19.1039 228.51 18.6223 220.189 22.9568L219.709 23.2779C219.549 23.4384 219.229 23.599 219.069 23.599L191.385 39.9738L200.506 47.198C194.745 49.9271 190.585 55.2248 188.505 62.7701Z" fill="url(#paint105_linear)"/>
<path d="M305.64 172.256L351.886 144.965C343.885 131.159 333.004 119.119 320.842 112.055C319.242 111.092 317.642 110.289 316.042 109.647L257.154 144.162L305.64 172.256Z" fill="url(#paint106_linear)"/>
<path d="M204.507 43.024L225.15 54.9037L262.915 32.5891C260.194 30.5021 257.314 28.4151 254.433 26.8097C249.793 24.0806 245.472 22.3147 241.152 21.1909L204.507 43.024Z" fill="#D4ECFF"/>
<path d="M346.926 136.938L309.961 158.771L322.762 173.22L356.367 153.313C353.646 147.534 350.446 142.075 346.926 136.938Z" fill="#D4ECFF"/>
<path d="M344.685 196.337C341.165 194.25 337.644 193.126 334.604 192.645C329.803 167.761 312.521 141.273 292.038 129.232C285.797 125.701 279.877 123.774 274.596 123.293C271.716 93.1116 250.913 58.7566 225.469 43.9872C198.106 28.094 176.023 40.937 176.023 72.7234C176.023 73.8471 176.023 74.8104 176.183 75.9341C156.18 66.623 140.498 77.0579 140.498 100.817C140.498 126.182 158.261 156.845 180.023 169.527L345.005 265.047C361.327 274.519 374.769 266.813 374.769 247.869C374.769 228.926 361.167 205.969 344.685 196.337Z" fill="url(#paint107_linear)"/>
<path d="M175.863 76.0947C175.863 74.9709 175.703 73.8471 175.703 72.8839V72.7234C164.822 68.3889 155.22 70.1548 149.3 77.0579C155.86 71.7602 165.142 71.118 175.863 76.0947Z" fill="white"/>
<path d="M347.246 194.09C343.725 192.003 340.205 190.879 337.164 190.397C332.364 165.514 315.081 139.025 294.599 126.985C288.358 123.453 282.437 121.527 277.156 121.045C274.276 90.8641 253.473 56.5091 228.03 41.7397C211.068 31.9469 196.026 33.0707 187.064 43.1845C196.186 35.4787 210.107 35.1577 225.63 44.1478C251.073 58.9172 272.036 93.2722 274.756 123.453C280.037 123.935 285.958 125.861 292.198 129.393C312.841 141.273 330.123 167.761 334.764 192.805C337.964 193.287 341.325 194.571 344.845 196.498C361.167 205.969 374.609 229.087 374.609 248.03C374.609 254.933 372.849 260.231 369.809 263.923C374.289 260.552 377.01 254.291 377.01 245.783C376.85 226.679 363.568 203.561 347.246 194.09Z" fill="white"/>
<path d="M172.503 83.6399L184.824 89.4193L184.184 75.7736C184.184 74.8104 184.184 73.8471 184.184 72.8839C184.184 60.6831 187.865 51.8535 194.585 48.0006C201.306 44.1478 210.748 45.432 221.309 51.5325C244.032 64.6965 263.875 96.6434 266.435 124.416L267.075 131.319L274.116 131.801C278.437 132.122 283.077 133.728 288.038 136.617C306.12 147.052 322.282 171.293 326.603 194.25L327.723 200.029L333.484 200.993C335.724 201.314 338.284 202.277 340.845 203.722C354.767 211.749 366.448 232.137 366.448 248.191C366.448 254.13 364.848 258.626 361.968 260.231C359.087 261.836 354.447 261.194 349.326 258.144L184.024 162.464C164.822 151.387 148.659 123.132 148.659 100.978C148.659 92.3089 151.22 85.5664 155.7 82.6767C157.461 81.5529 159.701 80.9108 162.261 80.9108C165.302 80.9108 168.662 81.874 172.503 83.6399Z" fill="url(#paint108_radial)"/>
<path d="M254.753 187.347L259.074 185.099L254.753 181.889V187.347Z" fill="url(#paint109_linear)"/>
<path d="M241.632 128.269L245.952 126.182V128.43L241.632 128.269Z" fill="url(#paint110_linear)"/>
<path d="M267.075 173.541L271.556 171.293L263.074 163.106L267.075 173.541Z" fill="url(#paint111_linear)"/>
<path d="M257.794 184.939L237.151 172.738C236.031 172.096 235.231 170.491 235.231 169.206V145.286L259.554 159.735V183.655C259.714 184.939 258.914 185.581 257.794 184.939Z" fill="url(#paint112_linear)"/>
<path d="M245.792 126.182L223.549 140.47C222.589 141.112 223.389 143.36 224.829 144.162L247.552 157.648L270.275 171.133C271.716 171.935 272.516 170.651 271.556 168.885L249.473 128.269C248.513 126.503 246.752 125.54 245.792 126.182Z" fill="url(#paint113_linear)"/>
<path fill-rule="evenodd" clip-rule="evenodd" d="M219.229 142.718L241.472 128.43C242.432 127.788 244.032 128.751 245.152 130.517L267.235 171.133C268.195 172.899 267.395 174.183 265.955 173.38L255.233 167.018V185.902C255.233 187.186 254.433 187.829 253.473 187.186L232.83 174.986C231.71 174.343 230.91 172.738 230.91 171.454V152.583L220.509 146.41C219.069 145.607 218.269 143.36 219.229 142.718Z" fill="url(#paint114_linear)"/>
<defs>
<radialGradient id="paint0_radial" cx="0" cy="0" r="1" gradientUnits="userSpaceOnUse" gradientTransform="translate(559.863 195.537) scale(53.8769 54.0508)">
<stop stop-color="#0778E4"/>
<stop offset="1" stop-color="#173D7A"/>
</radialGradient>
<linearGradient id="paint1_linear" x1="527.135" y1="175.925" x2="622.472" y2="175.925" gradientUnits="userSpaceOnUse">
<stop stop-color="#D4ECFF"/>
<stop offset="0.2385" stop-color="#D0EAFE"/>
<stop offset="0.4599" stop-color="#C5E2F9"/>
<stop offset="0.6745" stop-color="#B2D6F2"/>
<stop offset="0.8837" stop-color="#98C4E7"/>
<stop offset="1" stop-color="#86B8E0"/>
</linearGradient>
<radialGradient id="paint2_radial" cx="0" cy="0" r="1" gradientUnits="userSpaceOnUse" gradientTransform="translate(482.404 139.605) scale(97.3878 97.702)">
<stop stop-color="#699DD1"/>
<stop offset="0.2662" stop-color="#6396CC"/>
<stop offset="0.6412" stop-color="#5184BD"/>
<stop offset="1" stop-color="#396CAA"/>
</radialGradient>
<linearGradient id="paint3_linear" x1="76.0921" y1="688.1" x2="1.56537" y2="334.966" gradientUnits="userSpaceOnUse">
<stop stop-color="#ABC4FF"/>
<stop offset="1" stop-color="white"/>
</linearGradient>
<linearGradient id="paint4_linear" x1="123.073" y1="398.223" x2="37.4011" y2="306.893" gradientUnits="userSpaceOnUse">
<stop stop-color="#86E6FF"/>
<stop offset="1" stop-color="#1A68FF"/>
</linearGradient>
<radialGradient id="paint5_radial" cx="0" cy="0" r="1" gradientUnits="userSpaceOnUse" gradientTransform="translate(11.3216 342.103) scale(63.0347 63.238)">
<stop stop-color="#699DD1"/>
<stop offset="0.2662" stop-color="#6396CC"/>
<stop offset="0.6412" stop-color="#5184BD"/>
<stop offset="1" stop-color="#396CAA"/>
</radialGradient>
<linearGradient id="paint6_linear" x1="70.4094" y1="398.153" x2="56.0332" y2="394.528" gradientUnits="userSpaceOnUse">
<stop stop-color="#86E6FF"/>
<stop offset="1" stop-color="#1A68FF"/>
</linearGradient>
<linearGradient id="paint7_linear" x1="23.2191" y1="321.828" x2="122.123" y2="380.603" gradientUnits="userSpaceOnUse">
<stop stop-color="#D4ECFF"/>
<stop offset="0.2009" stop-color="#D0EAFE"/>
<stop offset="0.3874" stop-color="#C5E2F9"/>
<stop offset="0.5682" stop-color="#B2D6F2"/>
<stop offset="0.7444" stop-color="#98C4E7"/>
<stop offset="0.8423" stop-color="#86B8E0"/>
</linearGradient>
<linearGradient id="paint8_linear" x1="92.6643" y1="361.953" x2="48.251" y2="319.018" gradientUnits="userSpaceOnUse">
<stop stop-color="#86E6FF"/>
<stop offset="1" stop-color="#1A68FF"/>
</linearGradient>
<linearGradient id="paint9_linear" x1="92.5531" y1="348.045" x2="71.4884" y2="311.127" gradientUnits="userSpaceOnUse">
<stop stop-color="#86E6FF"/>
<stop offset="1" stop-color="#1A68FF"/>
</linearGradient>
<linearGradient id="paint10_linear" x1="324.346" y1="1266.52" x2="88.0716" y2="146.171" gradientUnits="userSpaceOnUse">
<stop stop-color="#ABC4FF"/>
<stop offset="1" stop-color="white"/>
</linearGradient>
<linearGradient id="paint11_linear" x1="527.099" y1="306.787" x2="196.844" y2="156.723" gradientUnits="userSpaceOnUse">
<stop stop-color="#86E6FF"/>
<stop offset="1" stop-color="#1A68FF"/>
</linearGradient>
<linearGradient id="paint12_linear" x1="525.509" y1="192.645" x2="268.682" y2="16.4751" gradientUnits="userSpaceOnUse">
<stop stop-color="#86E6FF"/>
<stop offset="1" stop-color="#1A68FF"/>
</linearGradient>
<radialGradient id="paint13_radial" cx="0" cy="0" r="1" gradientUnits="userSpaceOnUse" gradientTransform="translate(511.489 290.454) scale(322.749 323.79)">
<stop stop-color="#86B8E0"/>
<stop offset="0.1163" stop-color="#98C4E7"/>
<stop offset="0.3255" stop-color="#B2D6F2"/>
<stop offset="0.5401" stop-color="#C5E2F9"/>
<stop offset="0.7615" stop-color="#D0EAFE"/>
<stop offset="1" stop-color="#D4ECFF"/>
</radialGradient>
<radialGradient id="paint14_radial" cx="0" cy="0" r="1" gradientUnits="userSpaceOnUse" gradientTransform="translate(485.932 217.279) scale(222.092 222.809)">
<stop stop-color="#0778E4"/>
<stop offset="1" stop-color="#274F89"/>
</radialGradient>
<linearGradient id="paint15_linear" x1="474.142" y1="296.516" x2="197.296" y2="186.694" gradientUnits="userSpaceOnUse">
<stop stop-color="#86E6FF"/>
<stop offset="1" stop-color="#1A68FF"/>
</linearGradient>
<linearGradient id="paint16_linear" x1="473.982" y1="409.151" x2="180.677" y2="118.252" gradientUnits="userSpaceOnUse">
<stop stop-color="#86E6FF"/>
<stop offset="1" stop-color="#1A68FF"/>
</linearGradient>
<linearGradient id="paint17_linear" x1="342.125" y1="409.128" x2="108.323" y2="229.486" gradientUnits="userSpaceOnUse">
<stop stop-color="#86E6FF"/>
<stop offset="1" stop-color="#1A68FF"/>
</linearGradient>
<linearGradient id="paint18_linear" x1="116.015" y1="293.944" x2="104.907" y2="291.287" gradientUnits="userSpaceOnUse">
<stop stop-color="#86E6FF"/>
<stop offset="1" stop-color="#1A68FF"/>
</linearGradient>
<radialGradient id="paint19_radial" cx="0" cy="0" r="1" gradientUnits="userSpaceOnUse" gradientTransform="translate(520.278 315.377) scale(438.005 439.418)">
<stop stop-color="#86B8E0"/>
<stop offset="0.1163" stop-color="#98C4E7"/>
<stop offset="0.3255" stop-color="#B2D6F2"/>
<stop offset="0.5401" stop-color="#C5E2F9"/>
<stop offset="0.7615" stop-color="#D0EAFE"/>
<stop offset="1" stop-color="#D4ECFF"/>
</radialGradient>
<linearGradient id="paint20_linear" x1="211.114" y1="244.722" x2="191.892" y2="225.923" gradientUnits="userSpaceOnUse">
<stop stop-color="#86E6FF"/>
<stop offset="1" stop-color="#1A68FF"/>
</linearGradient>
<linearGradient id="paint21_linear" x1="225.036" y1="252.749" x2="205.814" y2="233.95" gradientUnits="userSpaceOnUse">
<stop stop-color="#86E6FF"/>
<stop offset="1" stop-color="#1A68FF"/>
</linearGradient>
<linearGradient id="paint22_linear" x1="238.958" y1="260.776" x2="219.736" y2="241.977" gradientUnits="userSpaceOnUse">
<stop stop-color="#86E6FF"/>
<stop offset="1" stop-color="#1A68FF"/>
</linearGradient>
<linearGradient id="paint23_linear" x1="256.56" y1="254.153" x2="238.546" y2="236.63" gradientUnits="userSpaceOnUse">
<stop stop-color="#86E6FF"/>
<stop offset="1" stop-color="#1A68FF"/>
</linearGradient>
<linearGradient id="paint24_linear" x1="270.482" y1="262.221" x2="252.635" y2="244.694" gradientUnits="userSpaceOnUse">
<stop stop-color="#86E6FF"/>
<stop offset="1" stop-color="#1A68FF"/>
</linearGradient>
<linearGradient id="paint25_linear" x1="284.243" y1="270.247" x2="266.397" y2="252.721" gradientUnits="userSpaceOnUse">
<stop stop-color="#86E6FF"/>
<stop offset="1" stop-color="#1A68FF"/>
</linearGradient>
<linearGradient id="paint26_linear" x1="298.165" y1="278.274" x2="280.319" y2="260.748" gradientUnits="userSpaceOnUse">
<stop stop-color="#86E6FF"/>
<stop offset="1" stop-color="#1A68FF"/>
</linearGradient>
<linearGradient id="paint27_linear" x1="312.087" y1="286.368" x2="294.147" y2="268.843" gradientUnits="userSpaceOnUse">
<stop stop-color="#86E6FF"/>
<stop offset="1" stop-color="#1A68FF"/>
</linearGradient>
<linearGradient id="paint28_linear" x1="326.009" y1="294.395" x2="308.069" y2="276.87" gradientUnits="userSpaceOnUse">
<stop stop-color="#86E6FF"/>
<stop offset="1" stop-color="#1A68FF"/>
</linearGradient>
<linearGradient id="paint29_linear" x1="339.931" y1="302.422" x2="321.991" y2="284.897" gradientUnits="userSpaceOnUse">
<stop stop-color="#86E6FF"/>
<stop offset="1" stop-color="#1A68FF"/>
</linearGradient>
<linearGradient id="paint30_linear" x1="353.693" y1="310.501" x2="335.679" y2="292.978" gradientUnits="userSpaceOnUse">
<stop stop-color="#86E6FF"/>
<stop offset="1" stop-color="#1A68FF"/>
</linearGradient>
<linearGradient id="paint31_linear" x1="367.614" y1="318.528" x2="349.601" y2="301.005" gradientUnits="userSpaceOnUse">
<stop stop-color="#86E6FF"/>
<stop offset="1" stop-color="#1A68FF"/>
</linearGradient>
<linearGradient id="paint32_linear" x1="381.536" y1="326.583" x2="363.484" y2="309.061" gradientUnits="userSpaceOnUse">
<stop stop-color="#86E6FF"/>
<stop offset="1" stop-color="#1A68FF"/>
</linearGradient>
<linearGradient id="paint33_linear" x1="277.042" y1="250.341" x2="259.196" y2="232.814" gradientUnits="userSpaceOnUse">
<stop stop-color="#86E6FF"/>
<stop offset="1" stop-color="#1A68FF"/>
</linearGradient>
<linearGradient id="paint34_linear" x1="262.961" y1="242.153" x2="245.114" y2="224.627" gradientUnits="userSpaceOnUse">
<stop stop-color="#86E6FF"/>
<stop offset="1" stop-color="#1A68FF"/>
</linearGradient>
<linearGradient id="paint35_linear" x1="248.719" y1="234.033" x2="222.068" y2="208.235" gradientUnits="userSpaceOnUse">
<stop stop-color="#86E6FF"/>
<stop offset="1" stop-color="#1A68FF"/>
</linearGradient>
<linearGradient id="paint36_linear" x1="258.64" y1="224.08" x2="234.972" y2="201.212" gradientUnits="userSpaceOnUse">
<stop stop-color="#86E6FF"/>
<stop offset="1" stop-color="#1A68FF"/>
</linearGradient>
<linearGradient id="paint37_linear" x1="290.964" y1="258.368" x2="273.118" y2="240.841" gradientUnits="userSpaceOnUse">
<stop stop-color="#86E6FF"/>
<stop offset="1" stop-color="#1A68FF"/>
</linearGradient>
<linearGradient id="paint38_linear" x1="304.726" y1="266.462" x2="286.786" y2="248.937" gradientUnits="userSpaceOnUse">
<stop stop-color="#86E6FF"/>
<stop offset="1" stop-color="#1A68FF"/>
</linearGradient>
<linearGradient id="paint39_linear" x1="318.648" y1="274.488" x2="300.708" y2="256.964" gradientUnits="userSpaceOnUse">
<stop stop-color="#86E6FF"/>
<stop offset="1" stop-color="#1A68FF"/>
</linearGradient>
<linearGradient id="paint40_linear" x1="332.57" y1="282.568" x2="314.556" y2="265.045" gradientUnits="userSpaceOnUse">
<stop stop-color="#86E6FF"/>
<stop offset="1" stop-color="#1A68FF"/>
</linearGradient>
<linearGradient id="paint41_linear" x1="346.492" y1="290.595" x2="328.478" y2="273.072" gradientUnits="userSpaceOnUse">
<stop stop-color="#86E6FF"/>
<stop offset="1" stop-color="#1A68FF"/>
</linearGradient>
<linearGradient id="paint42_linear" x1="360.413" y1="298.622" x2="342.4" y2="281.099" gradientUnits="userSpaceOnUse">
<stop stop-color="#86E6FF"/>
<stop offset="1" stop-color="#1A68FF"/>
</linearGradient>
<linearGradient id="paint43_linear" x1="374.175" y1="306.689" x2="356.329" y2="289.163" gradientUnits="userSpaceOnUse">
<stop stop-color="#86E6FF"/>
<stop offset="1" stop-color="#1A68FF"/>
</linearGradient>
<linearGradient id="paint44_linear" x1="388.097" y1="314.716" x2="370.251" y2="297.189" gradientUnits="userSpaceOnUse">
<stop stop-color="#86E6FF"/>
<stop offset="1" stop-color="#1A68FF"/>
</linearGradient>
<linearGradient id="paint45_linear" x1="402.019" y1="322.743" x2="384.172" y2="305.216" gradientUnits="userSpaceOnUse">
<stop stop-color="#86E6FF"/>
<stop offset="1" stop-color="#1A68FF"/>
</linearGradient>
<linearGradient id="paint46_linear" x1="426.662" y1="337.098" x2="399.781" y2="311.044" gradientUnits="userSpaceOnUse">
<stop stop-color="#86E6FF"/>
<stop offset="1" stop-color="#1A68FF"/>
</linearGradient>
<linearGradient id="paint47_linear" x1="453.706" y1="321.418" x2="429.274" y2="297.785" gradientUnits="userSpaceOnUse">
<stop stop-color="#86E6FF"/>
<stop offset="1" stop-color="#1A68FF"/>
</linearGradient>
<linearGradient id="paint48_linear" x1="315.288" y1="256.829" x2="297.347" y2="239.305" gradientUnits="userSpaceOnUse">
<stop stop-color="#86E6FF"/>
<stop offset="1" stop-color="#1A68FF"/>
</linearGradient>
<linearGradient id="paint49_linear" x1="301.046" y1="248.575" x2="283.199" y2="231.048" gradientUnits="userSpaceOnUse">
<stop stop-color="#86E6FF"/>
<stop offset="1" stop-color="#1A68FF"/>
</linearGradient>
<linearGradient id="paint50_linear" x1="286.804" y1="240.346" x2="268.791" y2="222.824" gradientUnits="userSpaceOnUse">
<stop stop-color="#86E6FF"/>
<stop offset="1" stop-color="#1A68FF"/>
</linearGradient>
<linearGradient id="paint51_linear" x1="272.562" y1="232.107" x2="254.622" y2="214.582" gradientUnits="userSpaceOnUse">
<stop stop-color="#86E6FF"/>
<stop offset="1" stop-color="#1A68FF"/>
</linearGradient>
<linearGradient id="paint52_linear" x1="329.049" y1="264.856" x2="311.109" y2="247.331" gradientUnits="userSpaceOnUse">
<stop stop-color="#86E6FF"/>
<stop offset="1" stop-color="#1A68FF"/>
</linearGradient>
<linearGradient id="paint53_linear" x1="342.971" y1="272.936" x2="324.958" y2="255.413" gradientUnits="userSpaceOnUse">
<stop stop-color="#86E6FF"/>
<stop offset="1" stop-color="#1A68FF"/>
</linearGradient>
<linearGradient id="paint54_linear" x1="356.893" y1="280.962" x2="338.88" y2="263.439" gradientUnits="userSpaceOnUse">
<stop stop-color="#86E6FF"/>
<stop offset="1" stop-color="#1A68FF"/>
</linearGradient>
<linearGradient id="paint55_linear" x1="370.815" y1="289.03" x2="352.968" y2="271.504" gradientUnits="userSpaceOnUse">
<stop stop-color="#86E6FF"/>
<stop offset="1" stop-color="#1A68FF"/>
</linearGradient>
<linearGradient id="paint56_linear" x1="384.737" y1="297.057" x2="366.89" y2="279.53" gradientUnits="userSpaceOnUse">
<stop stop-color="#86E6FF"/>
<stop offset="1" stop-color="#1A68FF"/>
</linearGradient>
<linearGradient id="paint57_linear" x1="398.498" y1="305.084" x2="380.652" y2="287.557" gradientUnits="userSpaceOnUse">
<stop stop-color="#86E6FF"/>
<stop offset="1" stop-color="#1A68FF"/>
</linearGradient>
<linearGradient id="paint58_linear" x1="412.42" y1="313.178" x2="394.48" y2="295.653" gradientUnits="userSpaceOnUse">
<stop stop-color="#86E6FF"/>
<stop offset="1" stop-color="#1A68FF"/>
</linearGradient>
<linearGradient id="paint59_linear" x1="426.342" y1="321.205" x2="408.402" y2="303.68" gradientUnits="userSpaceOnUse">
<stop stop-color="#86E6FF"/>
<stop offset="1" stop-color="#1A68FF"/>
</linearGradient>
<linearGradient id="paint60_linear" x1="440.264" y1="329.232" x2="422.324" y2="311.707" gradientUnits="userSpaceOnUse">
<stop stop-color="#86E6FF"/>
<stop offset="1" stop-color="#1A68FF"/>
</linearGradient>
<linearGradient id="paint61_linear" x1="307.927" y1="236.923" x2="289.986" y2="219.398" gradientUnits="userSpaceOnUse">
<stop stop-color="#86E6FF"/>
<stop offset="1" stop-color="#1A68FF"/>
</linearGradient>
<linearGradient id="paint62_linear" x1="294.005" y1="228.896" x2="276.065" y2="211.371" gradientUnits="userSpaceOnUse">
<stop stop-color="#86E6FF"/>
<stop offset="1" stop-color="#1A68FF"/>
</linearGradient>
<linearGradient id="paint63_linear" x1="280.243" y1="220.921" x2="262.23" y2="203.399" gradientUnits="userSpaceOnUse">
<stop stop-color="#86E6FF"/>
<stop offset="1" stop-color="#1A68FF"/>
</linearGradient>
<linearGradient id="paint64_linear" x1="266.481" y1="212.895" x2="248.468" y2="195.372" gradientUnits="userSpaceOnUse">
<stop stop-color="#86E6FF"/>
<stop offset="1" stop-color="#1A68FF"/>
</linearGradient>
<linearGradient id="paint65_linear" x1="274.642" y1="204.655" x2="261.523" y2="191.974" gradientUnits="userSpaceOnUse">
<stop stop-color="#86E6FF"/>
<stop offset="1" stop-color="#1A68FF"/>
</linearGradient>
<linearGradient id="paint66_linear" x1="292.565" y1="215.142" x2="279.374" y2="202.464" gradientUnits="userSpaceOnUse">
<stop stop-color="#86E6FF"/>
<stop offset="1" stop-color="#1A68FF"/>
</linearGradient>
<linearGradient id="paint67_linear" x1="306.326" y1="223.116" x2="293.207" y2="210.436" gradientUnits="userSpaceOnUse">
<stop stop-color="#86E6FF"/>
<stop offset="1" stop-color="#1A68FF"/>
</linearGradient>
<linearGradient id="paint68_linear" x1="320.088" y1="231.076" x2="307.062" y2="218.393" gradientUnits="userSpaceOnUse">
<stop stop-color="#86E6FF"/>
<stop offset="1" stop-color="#1A68FF"/>
</linearGradient>
<linearGradient id="paint69_linear" x1="333.85" y1="239.062" x2="320.659" y2="226.384" gradientUnits="userSpaceOnUse">
<stop stop-color="#86E6FF"/>
<stop offset="1" stop-color="#1A68FF"/>
</linearGradient>
<linearGradient id="paint70_linear" x1="410.82" y1="283.572" x2="397.794" y2="270.889" gradientUnits="userSpaceOnUse">
<stop stop-color="#86E6FF"/>
<stop offset="1" stop-color="#1A68FF"/>
</linearGradient>
<linearGradient id="paint71_linear" x1="424.582" y1="291.505" x2="411.463" y2="278.825" gradientUnits="userSpaceOnUse">
<stop stop-color="#86E6FF"/>
<stop offset="1" stop-color="#1A68FF"/>
</linearGradient>
<linearGradient id="paint72_linear" x1="438.344" y1="299.465" x2="425.318" y2="286.782" gradientUnits="userSpaceOnUse">
<stop stop-color="#86E6FF"/>
<stop offset="1" stop-color="#1A68FF"/>
</linearGradient>
<linearGradient id="paint73_linear" x1="452.106" y1="307.492" x2="439.08" y2="294.809" gradientUnits="userSpaceOnUse">
<stop stop-color="#86E6FF"/>
<stop offset="1" stop-color="#1A68FF"/>
</linearGradient>
<linearGradient id="paint74_linear" x1="321.848" y1="244.95" x2="303.908" y2="227.425" gradientUnits="userSpaceOnUse">
<stop stop-color="#86E6FF"/>
<stop offset="1" stop-color="#1A68FF"/>
</linearGradient>
<linearGradient id="paint75_linear" x1="335.61" y1="253.029" x2="317.597" y2="235.506" gradientUnits="userSpaceOnUse">
<stop stop-color="#86E6FF"/>
<stop offset="1" stop-color="#1A68FF"/>
</linearGradient>
<linearGradient id="paint76_linear" x1="349.532" y1="261.056" x2="331.519" y2="243.533" gradientUnits="userSpaceOnUse">
<stop stop-color="#86E6FF"/>
<stop offset="1" stop-color="#1A68FF"/>
</linearGradient>
<linearGradient id="paint77_linear" x1="363.454" y1="269.124" x2="345.607" y2="251.597" gradientUnits="userSpaceOnUse">
<stop stop-color="#86E6FF"/>
<stop offset="1" stop-color="#1A68FF"/>
</linearGradient>
<linearGradient id="paint78_linear" x1="377.376" y1="277.15" x2="359.529" y2="259.624" gradientUnits="userSpaceOnUse">
<stop stop-color="#86E6FF"/>
<stop offset="1" stop-color="#1A68FF"/>
</linearGradient>
<linearGradient id="paint79_linear" x1="391.298" y1="285.177" x2="373.451" y2="267.651" gradientUnits="userSpaceOnUse">
<stop stop-color="#86E6FF"/>
<stop offset="1" stop-color="#1A68FF"/>
</linearGradient>
<linearGradient id="paint80_linear" x1="405.219" y1="293.271" x2="387.279" y2="275.746" gradientUnits="userSpaceOnUse">
<stop stop-color="#86E6FF"/>
<stop offset="1" stop-color="#1A68FF"/>
</linearGradient>
<linearGradient id="paint81_linear" x1="418.981" y1="301.298" x2="401.041" y2="283.773" gradientUnits="userSpaceOnUse">
<stop stop-color="#86E6FF"/>
<stop offset="1" stop-color="#1A68FF"/>
</linearGradient>
<linearGradient id="paint82_linear" x1="432.903" y1="309.325" x2="414.963" y2="291.8" gradientUnits="userSpaceOnUse">
<stop stop-color="#86E6FF"/>
<stop offset="1" stop-color="#1A68FF"/>
</linearGradient>
<linearGradient id="paint83_linear" x1="242.318" y1="245.965" x2="209.633" y2="214.44" gradientUnits="userSpaceOnUse">
<stop stop-color="#86E6FF"/>
<stop offset="1" stop-color="#1A68FF"/>
</linearGradient>
<linearGradient id="paint84_linear" x1="413.06" y1="344.804" x2="380.448" y2="313.276" gradientUnits="userSpaceOnUse">
<stop stop-color="#86E6FF"/>
<stop offset="1" stop-color="#1A68FF"/>
</linearGradient>
<linearGradient id="paint85_linear" x1="359.133" y1="330.408" x2="339.746" y2="311.613" gradientUnits="userSpaceOnUse">
<stop stop-color="#86E6FF"/>
<stop offset="1" stop-color="#1A68FF"/>
</linearGradient>
<linearGradient id="paint86_linear" x1="258.16" y1="271.972" x2="234.189" y2="248.851" gradientUnits="userSpaceOnUse">
<stop stop-color="#86E6FF"/>
<stop offset="1" stop-color="#1A68FF"/>
</linearGradient>
<linearGradient id="paint87_linear" x1="345.692" y1="322.65" x2="321.793" y2="299.526" gradientUnits="userSpaceOnUse">
<stop stop-color="#86E6FF"/>
<stop offset="1" stop-color="#1A68FF"/>
</linearGradient>
<linearGradient id="paint88_linear" x1="278.163" y1="283.572" x2="254.357" y2="260.446" gradientUnits="userSpaceOnUse">
<stop stop-color="#86E6FF"/>
<stop offset="1" stop-color="#1A68FF"/>
</linearGradient>
<linearGradient id="paint89_linear" x1="326.563" y1="311.643" x2="262.99" y2="250.43" gradientUnits="userSpaceOnUse">
<stop stop-color="#86E6FF"/>
<stop offset="1" stop-color="#1A68FF"/>
</linearGradient>
<linearGradient id="paint90_linear" x1="394.22" y1="354.641" x2="379.663" y2="340.623" gradientUnits="userSpaceOnUse">
<stop stop-color="#86E6FF"/>
<stop offset="1" stop-color="#1A68FF"/>
</linearGradient>
<linearGradient id="paint91_linear" x1="380.298" y1="346.614" x2="365.741" y2="332.596" gradientUnits="userSpaceOnUse">
<stop stop-color="#86E6FF"/>
<stop offset="1" stop-color="#1A68FF"/>
</linearGradient>
<linearGradient id="paint92_linear" x1="366.376" y1="338.588" x2="351.819" y2="324.57" gradientUnits="userSpaceOnUse">
<stop stop-color="#86E6FF"/>
<stop offset="1" stop-color="#1A68FF"/>
</linearGradient>
<linearGradient id="paint93_linear" x1="387.979" y1="342.119" x2="373.422" y2="328.101" gradientUnits="userSpaceOnUse">
<stop stop-color="#86E6FF"/>
<stop offset="1" stop-color="#1A68FF"/>
</linearGradient>
<linearGradient id="paint94_linear" x1="367.088" y1="382.881" x2="176.772" y2="199.657" gradientUnits="userSpaceOnUse">
<stop stop-color="#86E6FF"/>
<stop offset="1" stop-color="#1A68FF"/>
</linearGradient>
<linearGradient id="paint95_linear" x1="222.269" y1="274.358" x2="215.141" y2="274.119" gradientUnits="userSpaceOnUse">
<stop stop-color="#86E6FF"/>
<stop offset="1" stop-color="#1A68FF"/>
</linearGradient>
<radialGradient id="paint96_radial" cx="0" cy="0" r="1" gradientUnits="userSpaceOnUse" gradientTransform="translate(207.733 239.299) scale(20.3723 20.438)">
<stop stop-color="#699DD1"/>
<stop offset="0.2662" stop-color="#6396CC"/>
<stop offset="0.6412" stop-color="#5184BD"/>
<stop offset="1" stop-color="#396CAA"/>
</radialGradient>
<linearGradient id="paint97_linear" x1="230.91" y1="220.177" x2="205.412" y2="204.894" gradientUnits="userSpaceOnUse">
<stop stop-color="#86E6FF"/>
<stop offset="1" stop-color="#1A68FF"/>
</linearGradient>
<radialGradient id="paint98_radial" cx="0" cy="0" r="1" gradientUnits="userSpaceOnUse" gradientTransform="translate(196.339 217.361) scale(32.2128 32.3166)">
<stop stop-color="#699DD1"/>
<stop offset="0.2662" stop-color="#6396CC"/>
<stop offset="0.6412" stop-color="#5184BD"/>
<stop offset="1" stop-color="#396CAA"/>
</radialGradient>
<linearGradient id="paint99_linear" x1="290.758" y1="314.171" x2="283.631" y2="313.932" gradientUnits="userSpaceOnUse">
<stop stop-color="#86E6FF"/>
<stop offset="1" stop-color="#1A68FF"/>
</linearGradient>
<radialGradient id="paint100_radial" cx="0" cy="0" r="1" gradientUnits="userSpaceOnUse" gradientTransform="translate(276.233 279.021) scale(20.3721 20.4378)">
<stop stop-color="#699DD1"/>
<stop offset="0.2662" stop-color="#6396CC"/>
<stop offset="0.6412" stop-color="#5184BD"/>
<stop offset="1" stop-color="#396CAA"/>
</radialGradient>
<linearGradient id="paint101_linear" x1="299.399" y1="259.99" x2="273.901" y2="244.707" gradientUnits="userSpaceOnUse">
<stop stop-color="#86E6FF"/>
<stop offset="1" stop-color="#1A68FF"/>
</linearGradient>
<radialGradient id="paint102_radial" cx="0" cy="0" r="1" gradientUnits="userSpaceOnUse" gradientTransform="translate(264.839 257.083) scale(32.2129 32.3168)">
<stop stop-color="#699DD1"/>
<stop offset="0.2662" stop-color="#6396CC"/>
<stop offset="0.6412" stop-color="#5184BD"/>
<stop offset="1" stop-color="#396CAA"/>
</radialGradient>
<linearGradient id="paint103_linear" x1="199.226" y1="83.4794" x2="150.803" y2="47.8304" gradientUnits="userSpaceOnUse">
<stop stop-color="#86E6FF"/>
<stop offset="1" stop-color="#1A68FF"/>
</linearGradient>
<radialGradient id="paint104_radial" cx="0" cy="0" r="1" gradientUnits="userSpaceOnUse" gradientTransform="translate(295.302 143.764) scale(115.935 116.309)">
<stop stop-color="#699DD1"/>
<stop offset="0.2662" stop-color="#6396CC"/>
<stop offset="0.6412" stop-color="#5184BD"/>
<stop offset="1" stop-color="#396CAA"/>
</radialGradient>
<linearGradient id="paint105_linear" x1="252.033" y1="62.7701" x2="192.125" y2="13.0513" gradientUnits="userSpaceOnUse">
<stop stop-color="#86E6FF"/>
<stop offset="1" stop-color="#1A68FF"/>
</linearGradient>
<linearGradient id="paint106_linear" x1="351.886" y1="172.256" x2="263.687" y2="97.9126" gradientUnits="userSpaceOnUse">
<stop stop-color="#86E6FF"/>
<stop offset="1" stop-color="#1A68FF"/>
</linearGradient>
<linearGradient id="paint107_linear" x1="140.288" y1="153.291" x2="374.452" y2="153.291" gradientUnits="userSpaceOnUse">
<stop stop-color="#D4ECFF"/>
<stop offset="0.2385" stop-color="#D0EAFE"/>
<stop offset="0.4599" stop-color="#C5E2F9"/>
<stop offset="0.6745" stop-color="#B2D6F2"/>
<stop offset="0.8837" stop-color="#98C4E7"/>
<stop offset="1" stop-color="#86B8E0"/>
</linearGradient>
<radialGradient id="paint108_radial" cx="0" cy="0" r="1" gradientUnits="userSpaceOnUse" gradientTransform="translate(366.634 241.044) scale(234.434 235.191)">
<stop stop-color="#0778E4"/>
<stop offset="1" stop-color="#274F89"/>
</radialGradient>
<linearGradient id="paint109_linear" x1="259.074" y1="187.347" x2="253.314" y2="184.807" gradientUnits="userSpaceOnUse">
<stop stop-color="#86E6FF"/>
<stop offset="1" stop-color="#1A68FF"/>
</linearGradient>
<linearGradient id="paint110_linear" x1="245.952" y1="128.43" x2="242.747" y2="124.998" gradientUnits="userSpaceOnUse">
<stop stop-color="#86E6FF"/>
<stop offset="1" stop-color="#1A68FF"/>
</linearGradient>
<linearGradient id="paint111_linear" x1="271.556" y1="173.541" x2="260.347" y2="168.466" gradientUnits="userSpaceOnUse">
<stop stop-color="#86E6FF"/>
<stop offset="1" stop-color="#1A68FF"/>
</linearGradient>
<linearGradient id="paint112_linear" x1="259.574" y1="185.191" x2="224.82" y2="173.38" gradientUnits="userSpaceOnUse">
<stop stop-color="#86E6FF"/>
<stop offset="1" stop-color="#1A68FF"/>
</linearGradient>
<linearGradient id="paint113_linear" x1="271.975" y1="171.377" x2="214.75" y2="137.075" gradientUnits="userSpaceOnUse">
<stop stop-color="#86E6FF"/>
<stop offset="1" stop-color="#1A68FF"/>
</linearGradient>
<linearGradient id="paint114_linear" x1="217.635" y1="128.23" x2="278.332" y2="156.964" gradientUnits="userSpaceOnUse">
<stop stop-color="#02C34D"/>
<stop offset="1" stop-color="#91FF8C"/>
</linearGradient>
</defs>
</svg>
