<svg width="430" height="320" viewBox="0 0 430 320" fill="none" xmlns="http://www.w3.org/2000/svg">
<path d="M244.809 89.8127V81.1212H225.158L218.356 77.2163C216.845 76.3345 214.074 76.4605 212.31 77.4682L206.012 81.1212H186.361V90.0647C186.361 90.6945 186.613 91.1983 187.369 91.7022L212.814 106.314C214.326 107.196 217.097 107.07 218.86 106.062L243.423 91.9541C244.431 91.3243 244.935 90.5685 244.809 89.8127Z" fill="#173D7A"/>
<path d="M215.71 76.5864C214.576 76.5864 213.443 76.8384 212.435 77.4682L206.137 81.1212H186.486V90.0647C186.486 90.6945 186.738 91.1984 187.494 91.7022L212.813 106.314C213.569 106.692 214.576 106.944 215.584 106.944V76.5864H215.71Z" fill="url(#paint0_linear)"/>
<path d="M188.754 81.1212H186.486V90.0647C186.486 90.6945 186.738 91.1984 187.494 91.7022L188.628 92.332V81.1212H188.754Z" fill="#5793CE"/>
<path d="M213.193 106.44C214.579 107.07 216.468 106.944 217.98 106.44V96.2369H213.193V106.44Z" fill="#5793CE"/>
<path d="M212.813 97.3706L187.494 82.7587C185.982 81.877 186.108 80.2394 187.872 79.2317L212.309 65.1236C214.072 64.1159 216.844 63.99 218.355 64.8717L243.674 79.4836C245.186 80.3654 245.06 82.0029 243.296 83.0106L218.859 97.1187C217.095 98.1264 214.45 98.2524 212.813 97.3706Z" fill="url(#paint1_linear)"/>
<path d="M243.421 81.2471L218.984 95.3552C217.221 96.3629 214.45 96.4889 212.938 95.6071L187.619 80.9952C187.241 80.7433 186.989 80.6173 186.863 80.3654C186.359 81.2471 186.611 82.1289 187.619 82.7587L212.812 97.3706C214.324 98.2524 217.095 98.1264 218.858 97.1187L243.295 83.0106C244.681 82.2549 245.059 81.1212 244.555 80.2394C244.303 80.4913 243.925 80.8692 243.421 81.2471Z" fill="white"/>
<path d="M235.49 92.0801C235.49 92.7099 234.986 93.4657 234.482 93.8436C233.978 94.2215 233.475 93.8436 233.475 93.2138C233.475 92.584 233.978 91.8282 234.482 91.4503C235.112 91.1984 235.49 91.4503 235.49 92.0801Z" fill="#D4ECFF"/>
<path d="M238.765 90.1906C238.765 90.8205 238.262 91.5762 237.758 91.9541C237.254 92.332 236.75 91.9541 236.75 91.3243C236.75 90.6945 237.254 89.9387 237.758 89.5608C238.388 89.3089 238.765 89.5608 238.765 90.1906Z" fill="#FF2C9C"/>
<path d="M242.168 88.3012C242.168 88.931 241.664 89.6868 241.16 90.0647C240.656 90.4426 240.152 90.0647 240.152 89.4348C240.152 88.805 240.656 88.0492 241.16 87.6713C241.664 87.4194 242.168 87.6713 242.168 88.3012Z" fill="#D4ECFF"/>
<path d="M214.323 88.3012L202.483 81.4991C201.727 81.1212 201.853 80.3654 202.735 79.8615L214.197 73.3113C215.079 72.8075 216.339 72.8075 217.094 73.1854L228.935 79.9875C229.691 80.3654 229.565 81.1212 228.683 81.625L217.22 88.1752C216.339 88.679 215.079 88.679 214.323 88.3012Z" fill="#5793CE"/>
<path d="M215.459 82.5068L213.821 81.4991C213.695 81.4991 213.695 81.3731 213.821 81.2471L215.459 80.3654C215.585 80.2394 215.71 80.2394 215.836 80.3654L217.474 81.3731C217.6 81.3731 217.6 81.4991 217.474 81.625L215.836 82.5068C215.71 82.6327 215.585 82.6327 215.459 82.5068Z" fill="#D4ECFF"/>
<path d="M202.483 81.3731C202.609 81.3731 202.609 81.3731 202.735 81.2471L214.197 74.697C215.079 74.1931 216.339 74.1931 217.094 74.571L228.935 81.3731C229.565 80.8692 229.691 80.2394 228.935 79.8615L217.094 73.0594C216.339 72.6815 215.079 72.6815 214.197 73.1854L202.735 79.7356C201.853 80.2394 201.727 80.9952 202.483 81.3731Z" fill="#396CAA"/>
<path d="M382.109 184.412C381.731 184.412 381.353 184.286 381.101 184.16L351.247 166.903C350.24 166.273 349.862 165.014 350.492 164.132C351.121 163.124 352.381 162.746 353.263 163.376L383.116 180.633C384.124 181.263 384.502 182.523 383.872 183.405C383.62 184.034 382.864 184.412 382.109 184.412Z" fill="url(#paint2_linear)"/>
<path d="M321.646 149.52C321.268 149.52 320.89 149.394 320.638 149.268L290.029 131.633C289.021 131.003 288.643 129.744 289.273 128.862C289.903 127.854 291.162 127.476 292.044 128.106L322.653 145.741C323.661 146.371 324.039 147.631 323.409 148.512C323.157 149.142 322.401 149.52 321.646 149.52Z" fill="url(#paint3_linear)"/>
<path d="M260.427 114.124C260.049 114.124 259.671 113.998 259.419 113.872L229.566 96.6148C228.558 95.985 228.18 94.7254 228.81 93.8436C229.44 92.8359 230.699 92.458 231.581 93.0878L261.435 110.345C262.442 110.975 262.82 112.234 262.191 113.116C261.813 113.746 261.183 114.124 260.427 114.124Z" fill="url(#paint4_linear)"/>
<path d="M120.355 204.567L198.075 159.723L110.53 163.88L105.113 169.045L103.854 176.854L104.735 182.145L107.381 188.569L109.9 193.608L112.923 197.513L120.355 204.567Z" fill="url(#paint5_linear)"/>
<path d="M185.607 118.911C185.733 118.785 185.859 118.785 185.985 118.659C189.134 117.021 193.291 117.273 197.952 119.918L304.014 181.137C303.51 181.515 303.132 181.893 302.754 182.271L298.723 180.003L277.309 226.61L266.224 241.726L258.919 244.246L251.613 241.348L216.342 221.32L146.432 181.263L120.861 166.147L114.185 164.006L108.139 163.628L185.607 118.911Z" fill="#D4ECFF"/>
<path d="M269.5 232.909C269.5 221.95 261.816 208.472 252.242 203.055V204.945C260.808 209.857 267.862 222.076 267.862 232.027C267.862 241.978 260.808 246.009 252.242 241.096L120.357 165.014C115.571 162.242 111.288 161.991 108.139 163.754L185.607 119.037C185.733 118.911 185.859 118.911 185.985 118.785C189.134 117.147 193.291 117.399 197.952 120.044L304.014 181.263C303.51 181.641 303.132 182.019 302.754 182.397L298.723 180.129L277.309 226.736L268.492 238.829C269.122 237.066 269.5 235.176 269.5 232.909Z" fill="url(#paint6_linear)"/>
<path d="M269.5 231.775C269.5 232.027 269.5 232.153 269.5 232.279C269.374 226.736 267.358 220.816 264.209 215.4C264.335 215.274 264.461 215.274 264.587 215.148C267.61 220.564 269.5 226.484 269.5 231.775Z" fill="white"/>
<path d="M120.357 163.754L252.242 239.837C260.682 244.749 267.484 240.97 267.862 231.523C267.862 231.649 267.862 231.775 267.862 231.901C267.862 241.852 260.808 245.883 252.242 240.97L120.357 164.888C115.571 162.116 111.288 161.865 108.139 163.628L111.918 161.487C114.437 161.235 117.334 161.991 120.357 163.754Z" fill="white"/>
<path d="M277.437 225.603L298.851 178.996L302.882 181.263C303.008 181.011 303.259 180.885 303.385 180.759L304.141 181.137C303.637 181.515 303.259 181.893 302.882 182.271L298.851 180.003L277.437 226.61L268.619 238.703C268.871 238.199 268.997 237.569 269.123 236.94L277.437 225.603Z" fill="white"/>
<path d="M329.96 158.086C339.407 163.628 347.217 176.98 347.217 187.939C347.217 193.23 345.453 197.009 342.43 198.898C342.304 199.024 342.052 199.15 341.926 199.15L264.458 243.994L269.245 235.428L268.741 226.862L267.229 222.076L264.962 216.911C264.962 216.911 263.072 213.384 262.946 213.384C262.82 213.258 260.175 209.857 260.175 209.857L257.53 207.086L254.759 205.322L252.365 203.055L329.96 158.086Z" fill="url(#paint7_linear)"/>
<path d="M120.357 204.567V202.677C111.791 197.765 104.737 185.546 104.737 175.595C104.737 165.644 111.791 161.613 120.357 166.525L252.242 242.608C261.689 248.15 269.499 243.616 269.499 232.657C269.499 221.698 261.815 208.22 252.242 202.803V204.693C260.807 209.605 267.861 221.824 267.861 231.775C267.861 241.726 260.807 245.757 252.242 240.844L120.357 164.762C110.909 159.219 103.1 163.754 103.1 174.713C103.1 185.672 110.909 199.15 120.357 204.567Z" fill="#173D7A"/>
<path d="M243.298 191.844L184.598 157.582L182.457 158.967L241.031 193.104L243.298 191.844Z" fill="#5793CE"/>
<path d="M242.291 179.878L194.551 152.039L192.283 153.299L240.024 181.137L242.291 179.878Z" fill="#5793CE"/>
<path d="M233.978 180.759L189.638 154.811L187.371 156.07L231.711 182.019L233.978 180.759Z" fill="#5793CE"/>
<path d="M248.212 188.947L237.379 182.649L235.111 183.908L245.944 190.333L248.212 188.947Z" fill="#5793CE"/>
<path d="M429.223 197.891V189.199H409.573L402.77 185.294C401.259 184.412 398.488 184.538 396.724 185.546L390.426 189.199H370.775V198.142C370.775 198.772 371.027 199.276 371.783 199.78L397.102 214.392C398.614 215.274 401.385 215.148 403.148 214.14L427.586 200.032C428.845 199.402 429.349 198.646 429.223 197.891Z" fill="#173D7A"/>
<path d="M400.124 184.664C398.991 184.664 397.857 184.916 396.849 185.546L390.551 189.199H370.9V198.142C370.9 198.772 371.152 199.276 371.908 199.78L397.227 214.392C397.983 214.77 398.991 215.022 399.998 215.022V184.664H400.124Z" fill="url(#paint8_linear)"/>
<path d="M373.168 189.199H370.9V198.142C370.9 198.772 371.152 199.276 371.908 199.78L373.042 200.41V189.199H373.168Z" fill="#5793CE"/>
<path d="M397.607 214.644C398.993 215.274 400.882 215.148 402.394 214.644V204.441H397.607V214.644Z" fill="#5793CE"/>
<path d="M397.227 205.448L371.908 190.836C370.396 189.955 370.522 188.317 372.286 187.309L396.723 173.201C398.486 172.194 401.258 172.068 402.769 172.949L428.088 187.561C429.6 188.443 429.474 190.081 427.71 191.088L403.273 205.196C401.51 206.204 398.864 206.33 397.227 205.448Z" fill="url(#paint9_linear)"/>
<path d="M427.836 189.325L403.398 203.433C401.635 204.441 398.864 204.567 397.352 203.685L372.033 189.073C371.655 188.821 371.403 188.695 371.277 188.443C370.773 189.325 371.025 190.207 372.033 190.836L397.352 205.448C398.864 206.33 401.635 206.204 403.398 205.196L427.836 191.088C429.221 190.333 429.599 189.199 429.095 188.317C428.717 188.695 428.339 189.073 427.836 189.325Z" fill="white"/>
<path d="M419.9 200.284C419.9 200.914 419.396 201.669 418.893 202.047C418.389 202.425 417.885 202.047 417.885 201.418C417.885 200.788 418.389 200.032 418.893 199.654C419.522 199.276 419.9 199.528 419.9 200.284Z" fill="#D4ECFF"/>
<path d="M423.176 198.394C423.176 199.024 422.672 199.78 422.168 200.158C421.664 200.536 421.16 200.158 421.16 199.528C421.16 198.898 421.664 198.142 422.168 197.765C422.798 197.387 423.176 197.639 423.176 198.394Z" fill="#D4ECFF"/>
<path d="M426.578 196.379C426.578 197.009 426.074 197.765 425.57 198.142C425.066 198.52 424.562 198.142 424.562 197.513C424.562 196.883 425.066 196.127 425.57 195.749C426.074 195.497 426.578 195.749 426.578 196.379Z" fill="#D4ECFF"/>
<path d="M398.739 196.379L386.899 189.577C386.143 189.199 386.269 188.443 387.151 187.939L398.613 181.389C399.495 180.885 400.755 180.885 401.51 181.263L413.351 188.065C414.107 188.443 413.981 189.199 413.099 189.703L401.636 196.253C400.755 196.757 399.495 196.757 398.739 196.379Z" fill="#5793CE"/>
<path d="M399.873 190.585L398.235 189.577C398.109 189.577 398.109 189.451 398.235 189.325L399.873 188.443C399.999 188.317 400.125 188.317 400.251 188.443L401.888 189.451C402.014 189.451 402.014 189.577 401.888 189.703L400.251 190.585C400.125 190.711 399.999 190.711 399.873 190.585Z" fill="#D4ECFF"/>
<path d="M386.899 189.577C387.025 189.577 387.025 189.577 387.151 189.451L398.613 182.901C399.495 182.397 400.755 182.397 401.511 182.775L413.351 189.577C413.981 189.073 414.107 188.443 413.351 188.065L401.511 181.263C400.755 180.885 399.495 180.885 398.613 181.389L387.151 187.939C386.269 188.317 386.143 189.073 386.899 189.577Z" fill="#396CAA"/>
<path d="M233.599 291.734C232.843 291.734 232.213 291.356 231.835 290.727C231.205 289.719 231.583 288.459 232.591 287.955L262.445 270.698C263.452 270.068 264.712 270.446 265.216 271.454C265.846 272.462 265.468 273.721 264.46 274.225L234.606 291.482C234.355 291.734 233.977 291.734 233.599 291.734Z" fill="url(#paint10_linear)"/>
<path d="M294.062 256.842C293.306 256.842 292.676 256.464 292.298 255.834C291.668 254.827 292.046 253.567 293.054 253.063L323.663 235.428C324.671 234.798 325.931 235.176 326.435 236.184C327.064 237.191 326.687 238.451 325.679 238.955L295.069 256.59C294.817 256.842 294.44 256.842 294.062 256.842Z" fill="url(#paint11_linear)"/>
<path d="M355.405 221.572C354.65 221.572 354.02 221.194 353.642 220.564C353.012 219.556 353.39 218.297 354.398 217.793L384.251 200.536C385.259 199.906 386.519 200.284 387.023 201.292C387.652 202.299 387.275 203.559 386.267 204.063L356.413 221.194C356.035 221.446 355.783 221.572 355.405 221.572Z" fill="url(#paint12_linear)"/>
<path d="M48.4308 184.412C47.675 184.412 47.0452 184.034 46.6673 183.405C46.0375 182.397 46.4154 181.137 47.4231 180.633L77.2767 163.376C78.2844 162.746 79.5441 163.124 80.048 164.132C80.6778 165.14 80.2999 166.399 79.2922 166.903L49.4385 184.16C49.1866 184.286 48.8087 184.412 48.4308 184.412Z" fill="url(#paint13_linear)"/>
<path d="M108.894 149.52C108.138 149.52 107.508 149.142 107.13 148.512C106.5 147.505 106.878 146.245 107.886 145.741L138.495 128.106C139.503 127.476 140.763 127.854 141.267 128.862C141.896 129.87 141.519 131.129 140.511 131.633L109.901 149.268C109.649 149.394 109.272 149.52 108.894 149.52Z" fill="url(#paint14_linear)"/>
<path d="M170.237 114.124C169.482 114.124 168.852 113.746 168.474 113.116C167.844 112.108 168.222 110.849 169.23 110.345L198.957 93.0878C199.965 92.458 201.225 92.8359 201.729 93.8436C202.358 94.8513 201.981 96.111 200.973 96.6148L171.245 113.872C170.867 113.998 170.489 114.124 170.237 114.124Z" fill="url(#paint15_linear)"/>
<path d="M59.2621 197.765V189.073H39.6116L32.8095 185.168C31.2979 184.286 28.5267 184.412 26.7632 185.42L20.465 189.073H0.814453V198.016C0.814453 198.646 1.06638 199.15 1.82217 199.654L27.1411 214.266C28.6527 215.148 31.4239 215.022 33.1874 214.014L57.6246 199.906C58.7582 199.276 59.2621 198.52 59.2621 197.765Z" fill="#173D7A"/>
<path d="M30.0383 184.538C28.9046 184.538 27.7709 184.79 26.7632 185.42L20.465 189.073H0.814453V198.016C0.814453 198.646 1.06638 199.15 1.82217 199.654L27.1411 214.266C27.8969 214.644 28.9046 214.896 29.9123 214.896V184.538H30.0383Z" fill="url(#paint16_linear)"/>
<path d="M3.08182 188.947H0.814453V197.891C0.814453 198.52 1.06638 199.024 1.82217 199.528L2.95585 200.158V188.947H3.08182Z" fill="#5793CE"/>
<path d="M27.6465 214.392C29.0321 215.022 30.9216 214.896 32.4331 214.392V204.189H27.6465V214.392Z" fill="#5793CE"/>
<path d="M27.2658 205.322L1.94687 190.711C0.43529 189.829 0.561254 188.191 2.32476 187.184L26.7619 173.075C28.5254 172.068 31.2967 171.942 32.8082 172.824L58.1271 187.435C59.6387 188.317 59.5128 189.955 57.7493 190.962L33.3121 205.07C31.5486 206.078 28.7774 206.204 27.2658 205.322Z" fill="url(#paint17_linear)"/>
<path d="M57.7496 189.199L33.3124 203.307C31.5489 204.315 28.7777 204.441 27.2661 203.559L1.94717 188.947C1.56928 188.695 1.31735 188.569 1.19138 188.317C0.687523 189.199 0.939454 190.081 1.94717 190.711L27.2661 205.322C28.7777 206.204 31.5489 206.078 33.3124 205.07L57.7496 190.962C59.1352 190.207 59.5131 189.073 59.0092 188.191C58.7573 188.443 58.3794 188.821 57.7496 189.199Z" fill="white"/>
<path d="M49.9412 200.032C49.9412 200.662 49.4374 201.418 48.9335 201.795C48.4296 202.173 47.9258 201.795 47.9258 201.166C47.9258 200.536 48.4296 199.78 48.9335 199.402C49.4374 199.15 49.9412 199.402 49.9412 200.032Z" fill="#D4ECFF"/>
<path d="M53.2166 198.142C53.2166 198.772 52.7127 199.528 52.2089 199.906C51.705 200.284 51.2012 199.906 51.2012 199.276C51.2012 198.646 51.705 197.891 52.2089 197.513C52.7127 197.261 53.2166 197.513 53.2166 198.142Z" fill="#D4ECFF"/>
<path d="M56.49 196.253C56.49 196.883 55.9862 197.639 55.4823 198.016C54.9785 198.394 54.4746 198.016 54.4746 197.387C54.4746 196.757 54.9785 196.001 55.4823 195.623C55.9862 195.371 56.49 195.623 56.49 196.253Z" fill="#D4ECFF"/>
<path d="M28.7764 196.253L16.9357 189.451C16.1799 189.073 16.3059 188.317 17.1876 187.813L28.6504 181.263C29.5322 180.759 30.7918 180.759 31.5476 181.137L43.3883 187.939C44.1441 188.317 44.0181 189.073 43.1364 189.577L31.6736 196.127C30.7918 196.631 29.4062 196.631 28.7764 196.253Z" fill="#5793CE"/>
<path d="M29.9097 190.459L28.2722 189.451C28.1462 189.451 28.1462 189.325 28.2722 189.199L29.9097 188.317C30.0357 188.191 30.1617 188.191 30.2876 188.317L31.9252 189.325C32.0512 189.325 32.0512 189.451 31.9252 189.577L30.2876 190.459C30.1617 190.585 29.9097 190.585 29.9097 190.459Z" fill="#D4ECFF"/>
<path d="M16.9357 189.325C17.0617 189.325 17.0617 189.325 17.1876 189.199L28.6504 182.649C29.5322 182.145 30.7918 182.145 31.5476 182.523L43.3883 189.325C44.0181 188.821 44.1441 188.191 43.3883 187.813L31.5476 181.011C30.7918 180.633 29.5322 180.633 28.6504 181.137L17.1876 187.687C16.3059 188.191 16.1799 188.947 16.9357 189.325Z" fill="#396CAA"/>
<path d="M196.816 293.246C196.438 293.246 196.06 293.12 195.808 292.994L165.954 275.737C164.947 275.107 164.569 273.847 165.199 272.965C165.828 271.958 167.088 271.58 167.97 272.21L197.823 289.467C198.831 290.097 199.209 291.356 198.579 292.238C198.201 292.868 197.571 293.246 196.816 293.246Z" fill="url(#paint18_linear)"/>
<path d="M136.353 258.354C135.975 258.354 135.597 258.228 135.345 258.102L104.736 240.467C103.728 239.837 103.35 238.577 103.98 237.695C104.61 236.688 105.869 236.31 106.751 236.94L137.36 254.575C138.368 255.204 138.746 256.464 138.116 257.346C137.738 257.976 137.109 258.354 136.353 258.354Z" fill="url(#paint19_linear)"/>
<path d="M75.0091 222.957C74.6312 222.957 74.2533 222.832 74.0013 222.706L44.1477 205.448C43.14 204.819 42.7621 203.559 43.3919 202.677C44.0217 201.669 45.2814 201.292 46.1631 201.921L76.1427 219.179C77.1505 219.808 77.5284 221.068 76.8985 221.95C76.5206 222.58 75.7648 222.957 75.0091 222.957Z" fill="url(#paint20_linear)"/>
<path d="M244.809 302.441V293.75H225.158L218.356 289.845C216.845 288.963 214.074 289.089 212.31 290.097L206.012 293.75H186.361V302.693C186.361 303.323 186.613 303.827 187.369 304.331L212.688 318.943C214.2 319.824 216.971 319.698 218.734 318.691L243.171 304.583C244.431 303.953 244.935 303.197 244.809 302.441Z" fill="#173D7A"/>
<path d="M215.71 289.215C214.576 289.215 213.443 289.467 212.435 290.097L206.137 293.75H186.486V302.693C186.486 303.323 186.738 303.827 187.494 304.331L212.813 318.943C213.569 319.32 214.576 319.572 215.584 319.572V289.215H215.71Z" fill="url(#paint21_linear)"/>
<path d="M188.754 293.624H186.486V302.567C186.486 303.197 186.738 303.701 187.494 304.205L188.628 304.835V293.624H188.754Z" fill="#5793CE"/>
<path d="M213.193 319.069C214.579 319.698 216.468 319.572 217.98 319.069V308.865H213.193V319.069Z" fill="#5793CE"/>
<path d="M212.813 309.999L187.494 295.387C185.982 294.505 186.108 292.868 187.872 291.86L212.309 277.752C214.072 276.744 216.844 276.618 218.355 277.5L243.674 292.112C245.186 292.994 245.06 294.631 243.296 295.639L218.859 309.747C217.095 310.755 214.45 310.881 212.813 309.999Z" fill="url(#paint22_linear)"/>
<path d="M243.421 293.876L218.984 307.984C217.221 308.991 214.45 309.117 212.938 308.236L187.619 293.624C187.241 293.372 186.989 293.246 186.863 292.994C186.359 293.876 186.611 294.757 187.619 295.387L212.938 309.999C214.45 310.881 217.221 310.755 218.984 309.747L243.421 295.639C244.807 294.883 245.185 293.75 244.681 292.868C244.303 293.12 243.925 293.498 243.421 293.876Z" fill="white"/>
<path d="M235.49 304.709C235.49 305.338 234.986 306.094 234.482 306.472C233.978 306.85 233.475 306.472 233.475 305.842C233.475 305.212 233.978 304.457 234.482 304.079C235.112 303.827 235.49 304.079 235.49 304.709Z" fill="#D4ECFF"/>
<path d="M238.765 302.819C238.765 303.449 238.262 304.205 237.758 304.583C237.254 304.961 236.75 304.583 236.75 303.953C236.75 303.323 237.254 302.567 237.758 302.189C238.388 301.937 238.765 302.189 238.765 302.819Z" fill="#D4ECFF"/>
<path d="M242.168 300.93C242.168 301.559 241.664 302.315 241.16 302.693C240.656 303.071 240.152 302.693 240.152 302.063C240.152 301.434 240.656 300.678 241.16 300.3C241.664 300.048 242.168 300.3 242.168 300.93Z" fill="#D4ECFF"/>
<path d="M214.323 300.93L202.483 294.128C201.727 293.75 201.853 292.994 202.735 292.49L214.197 285.94C215.079 285.436 216.339 285.436 217.094 285.814L228.935 292.616C229.691 292.994 229.565 293.75 228.683 294.254L217.22 300.804C216.339 301.308 215.079 301.308 214.323 300.93Z" fill="#5793CE"/>
<path d="M215.459 295.135L213.821 294.128C213.695 294.128 213.695 294.002 213.821 293.876L215.459 292.994C215.585 292.868 215.71 292.868 215.836 292.994L217.474 294.002C217.6 294.002 217.6 294.128 217.474 294.254L215.836 295.135C215.71 295.261 215.585 295.261 215.459 295.135Z" fill="#D4ECFF"/>
<path d="M202.483 294.002C202.609 294.002 202.609 294.002 202.735 293.876L214.197 287.325C215.079 286.822 216.339 286.822 217.094 287.199L228.935 294.002C229.565 293.498 229.691 292.868 228.935 292.49L217.094 285.688C216.339 285.31 215.079 285.31 214.197 285.814L202.735 292.364C201.853 292.868 201.727 293.624 202.483 294.002Z" fill="#396CAA"/>
<path d="M249.721 184.286C249.595 184.16 249.469 184.034 249.469 183.782L250.35 177.61L254.633 179.626L250.35 184.034C250.099 184.286 249.973 184.286 249.721 184.286Z" fill="white"/>
<path d="M265.844 164.636C262.191 164.888 257.405 162.62 255.389 159.597C253.374 156.574 254.633 153.803 258.286 153.551C261.939 153.299 266.726 155.566 268.742 158.589C270.883 161.613 269.497 164.384 265.844 164.636Z" fill="#396CAA"/>
<path d="M304.011 94.9773L286.502 86.4117L254.633 155.314L262.19 158.967L254.633 155.314L254.381 155.818C250.98 162.746 249.594 170.556 250.224 178.24C250.098 178.492 250.224 178.87 250.476 179.248C250.98 180.003 252.239 180.633 253.247 180.633C253.751 180.633 254.003 180.381 254.129 180.129L255.766 178.996C260.805 175.343 264.962 170.556 268.111 165.14L269.496 162.494L304.011 94.9773Z" fill="url(#paint23_linear)"/>
<path d="M299.726 97.3706C295.317 97.6225 289.774 94.9773 287.381 91.3243C284.988 87.6713 286.499 84.5222 290.908 84.1443C295.317 83.8924 300.859 86.5376 303.253 90.1906C305.646 93.8436 304.134 96.9927 299.726 97.3706Z" fill="#D4ECFF"/>
<path d="M301.114 94.3475C296.705 94.5994 291.163 91.9541 288.77 88.3012C286.376 84.6482 287.888 81.4991 292.297 81.1212C296.705 80.8692 302.248 83.5145 304.641 87.1675C307.161 90.8204 305.523 94.0955 301.114 94.3475Z" fill="#D4ECFF"/>
<path d="M299.476 97.8745C295.067 98.1264 289.524 95.4811 287.131 91.8282C284.738 88.1752 286.249 85.0261 290.658 84.6482C295.067 84.3962 300.609 87.0415 303.003 90.6945C305.396 94.3475 303.884 97.4966 299.476 97.8745Z" fill="#5793CE"/>
<path d="M299.475 97.8745C295.066 98.1264 289.524 95.4811 287.131 91.8282C286.123 90.3166 285.871 88.931 285.997 87.7973C284.863 89.1829 284.863 91.1983 286.249 93.3397C288.642 96.9927 294.185 99.638 298.593 99.3861C301.239 99.2601 302.75 98.0004 303.128 96.2369C302.498 97.1187 301.239 97.7485 299.475 97.8745Z" fill="white"/>
<path d="M288.162 83.1946L286.287 87.0453L303.728 95.5361L305.603 91.6854L288.162 83.1946Z" fill="#5793CE"/>
<path d="M338.776 23.8072L321.267 15.2416L288.138 83.1366L287.886 83.5145C287.509 84.7742 287.76 86.2857 288.894 87.9233C291.287 91.5762 296.83 94.2215 301.239 93.9696C303.254 93.8436 304.64 93.0878 305.27 92.0801L338.776 23.8072Z" fill="url(#paint24_linear)"/>
<path d="M308.422 38.923L307.036 36.9075C306.28 35.7738 306.28 34.1363 307.162 32.3728L310.815 24.9409C311.445 23.5553 313.335 22.2956 314.846 22.1697L318.373 21.9177C319.003 21.9177 319.633 21.5398 320.137 21.036L321.774 21.1619L320.64 19.5244C320.515 19.2725 320.137 19.1465 319.759 19.1465L316.232 19.3984C312.957 19.6504 309.178 22.1696 307.792 25.0668L304.139 32.4988C302.879 35.0181 302.879 37.2854 304.013 38.923L305.399 40.9384C306.155 42.0721 306.155 43.7096 305.273 45.4731L290.661 75.4527C290.535 75.8306 290.535 76.2085 290.661 76.4605L291.795 78.098L292.298 76.5864C292.928 76.3345 293.558 75.8306 293.81 75.3268L308.422 45.3472C309.43 42.8279 309.556 40.5605 308.422 38.923Z" fill="#5793CE"/>
<path d="M308.295 38.671C307.539 37.5374 307.539 35.8998 308.421 34.1363L312.074 26.7044C312.704 25.3188 314.593 24.0591 316.105 23.9332L319.632 23.6812C320.513 23.6812 321.521 22.9254 321.899 22.1696C322.277 21.4139 321.899 20.784 321.017 20.91L317.49 21.1619C314.215 21.4139 310.436 23.9332 309.051 26.8303L305.398 34.2623C304.138 36.7816 304.138 39.0489 305.272 40.6865L306.657 42.7019C307.413 43.8356 307.413 45.4731 306.531 47.2366L291.919 77.2162C291.541 77.972 291.919 78.6019 292.801 78.4759C293.683 78.4759 294.691 77.7201 295.068 76.9643L309.68 46.9847C310.94 44.4654 310.94 42.198 309.806 40.5605L308.295 38.671Z" fill="#5793CE"/>
<path d="M334.37 26.0746C329.961 26.3265 324.419 23.6812 322.026 20.0283C319.632 16.3753 321.144 13.2262 325.553 12.8483C329.961 12.5963 335.504 15.2416 337.897 18.8946C340.29 22.5476 338.779 25.8226 334.37 26.0746Z" fill="#D4ECFF"/>
<path d="M332.859 23.6812C330.214 23.6812 326.939 21.9177 325.301 19.5244C323.663 17.1311 324.545 15.2416 327.19 15.2416C329.836 15.2416 333.111 17.0051 334.748 19.3984C336.26 21.7918 335.378 23.6812 332.859 23.6812Z" fill="#396CAA"/>
<path d="M334.495 20.5321L326.938 16.8791L333.992 2.39319C334.999 0.251786 337.519 -0.504002 339.66 0.503716C341.801 1.51143 342.557 4.03073 341.549 6.17213L334.495 20.5321Z" fill="url(#paint25_linear)"/>
<path d="M332.732 21.5398C330.843 21.6658 328.449 20.5321 327.442 18.8946C326.434 17.257 327.064 15.9974 328.953 15.8714C330.843 15.7454 333.236 16.8791 334.244 18.5167C335.251 20.0283 334.622 21.4139 332.732 21.5398Z" fill="url(#paint26_linear)"/>
<path d="M202.737 211.243C202.863 211.243 202.989 211.117 203.115 211.117C214.578 204.441 214.578 193.734 203.115 187.183C191.652 180.507 173.136 180.507 161.673 187.183C161.421 187.309 161.169 187.435 161.043 187.561C162.303 187.939 163.562 188.443 164.822 189.199L202.737 211.243Z" fill="#5793CE"/>
<path d="M211.681 188.569V183.153H210.169C208.784 180.759 206.391 178.492 203.115 176.602C191.653 169.926 173.136 169.926 161.673 176.602C158.398 178.492 156.005 180.759 154.619 183.153H153.107V188.443C153.107 192.852 156.005 197.135 161.673 200.41C173.136 207.086 191.653 207.086 203.115 200.41C208.784 197.261 211.681 192.852 211.681 188.569Z" fill="url(#paint27_linear)"/>
<path d="M203.116 195.119C191.653 201.795 173.136 201.795 161.673 195.119C150.21 188.443 150.21 177.736 161.673 171.186C173.136 164.51 191.653 164.51 203.116 171.186C214.578 177.862 214.578 188.569 203.116 195.119Z" fill="url(#paint28_linear)"/>
<path d="M203.115 195.119C191.652 201.795 173.135 201.795 161.673 195.119C156.13 191.97 153.359 187.813 153.107 183.656C152.855 188.191 155.752 192.726 161.673 196.127C173.135 202.803 191.652 202.803 203.115 196.127C209.035 192.726 211.932 188.065 211.681 183.656C211.429 187.813 208.531 191.97 203.115 195.119Z" fill="white"/>
<path d="M168.223 188.821C167.719 188.569 167.467 188.191 167.467 187.687V176.602C167.467 175.721 168.6 175.091 170.112 175.091C171.624 175.091 172.757 175.721 172.757 176.602V185.798L199.336 182.523C200.721 182.397 202.107 182.901 202.485 183.656C202.737 184.538 201.855 185.294 200.47 185.42L170.742 189.073C169.986 189.199 169.104 189.073 168.475 188.821C168.349 188.821 168.223 188.821 168.223 188.821Z" fill="white"/>
<defs>
<linearGradient id="paint0_linear" x1="186.472" y1="91.7313" x2="215.66" y2="91.7313" gradientUnits="userSpaceOnUse">
<stop stop-color="#699DD1"/>
<stop offset="1" stop-color="#173D7A"/>
</linearGradient>
<linearGradient id="paint1_linear" x1="186.468" y1="81.0897" x2="244.85" y2="81.0897" gradientUnits="userSpaceOnUse">
<stop stop-color="#E9F6FF"/>
<stop offset="1" stop-color="#D4ECFF"/>
</linearGradient>
<linearGradient id="paint2_linear" x1="350.258" y1="173.724" x2="384.222" y2="173.724" gradientUnits="userSpaceOnUse">
<stop stop-color="#699DD1"/>
<stop offset="1" stop-color="#173D7A"/>
</linearGradient>
<linearGradient id="paint3_linear" x1="288.984" y1="138.581" x2="323.754" y2="138.581" gradientUnits="userSpaceOnUse">
<stop stop-color="#699DD1"/>
<stop offset="1" stop-color="#173D7A"/>
</linearGradient>
<linearGradient id="paint4_linear" x1="228.518" y1="103.438" x2="262.482" y2="103.438" gradientUnits="userSpaceOnUse">
<stop stop-color="#699DD1"/>
<stop offset="1" stop-color="#173D7A"/>
</linearGradient>
<linearGradient id="paint5_linear" x1="103.886" y1="182.185" x2="198.053" y2="182.185" gradientUnits="userSpaceOnUse">
<stop stop-color="#699DD1"/>
<stop offset="1" stop-color="#173D7A"/>
</linearGradient>
<linearGradient id="paint6_linear" x1="108.207" y1="180.314" x2="304.139" y2="180.314" gradientUnits="userSpaceOnUse">
<stop stop-color="#E9F6FF"/>
<stop offset="1" stop-color="#D4ECFF"/>
</linearGradient>
<linearGradient id="paint7_linear" x1="252.253" y1="201.063" x2="347.162" y2="201.063" gradientUnits="userSpaceOnUse">
<stop stop-color="#699DD1"/>
<stop offset="1" stop-color="#173D7A"/>
</linearGradient>
<linearGradient id="paint8_linear" x1="370.887" y1="199.834" x2="400.074" y2="199.834" gradientUnits="userSpaceOnUse">
<stop stop-color="#699DD1"/>
<stop offset="1" stop-color="#173D7A"/>
</linearGradient>
<linearGradient id="paint9_linear" x1="370.882" y1="189.192" x2="429.264" y2="189.192" gradientUnits="userSpaceOnUse">
<stop stop-color="#E9F6FF"/>
<stop offset="1" stop-color="#D4ECFF"/>
</linearGradient>
<linearGradient id="paint10_linear" x1="231.57" y1="281.119" x2="265.534" y2="281.119" gradientUnits="userSpaceOnUse">
<stop stop-color="#699DD1"/>
<stop offset="1" stop-color="#173D7A"/>
</linearGradient>
<linearGradient id="paint11_linear" x1="292.037" y1="245.975" x2="326.806" y2="245.975" gradientUnits="userSpaceOnUse">
<stop stop-color="#699DD1"/>
<stop offset="1" stop-color="#173D7A"/>
</linearGradient>
<linearGradient id="paint12_linear" x1="353.308" y1="210.831" x2="387.273" y2="210.831" gradientUnits="userSpaceOnUse">
<stop stop-color="#699DD1"/>
<stop offset="1" stop-color="#173D7A"/>
</linearGradient>
<linearGradient id="paint13_linear" x1="46.373" y1="173.725" x2="80.338" y2="173.725" gradientUnits="userSpaceOnUse">
<stop stop-color="#699DD1"/>
<stop offset="1" stop-color="#173D7A"/>
</linearGradient>
<linearGradient id="paint14_linear" x1="106.84" y1="138.581" x2="141.61" y2="138.581" gradientUnits="userSpaceOnUse">
<stop stop-color="#699DD1"/>
<stop offset="1" stop-color="#173D7A"/>
</linearGradient>
<linearGradient id="paint15_linear" x1="168.112" y1="103.438" x2="202.077" y2="103.438" gradientUnits="userSpaceOnUse">
<stop stop-color="#699DD1"/>
<stop offset="1" stop-color="#173D7A"/>
</linearGradient>
<linearGradient id="paint16_linear" x1="0.863076" y1="199.674" x2="30.0504" y2="199.674" gradientUnits="userSpaceOnUse">
<stop stop-color="#699DD1"/>
<stop offset="1" stop-color="#173D7A"/>
</linearGradient>
<linearGradient id="paint17_linear" x1="0.85765" y1="189.032" x2="59.2398" y2="189.032" gradientUnits="userSpaceOnUse">
<stop stop-color="#E9F6FF"/>
<stop offset="1" stop-color="#D4ECFF"/>
</linearGradient>
<linearGradient id="paint18_linear" x1="164.91" y1="282.619" x2="198.876" y2="282.619" gradientUnits="userSpaceOnUse">
<stop stop-color="#699DD1"/>
<stop offset="1" stop-color="#173D7A"/>
</linearGradient>
<linearGradient id="paint19_linear" x1="103.637" y1="247.476" x2="138.408" y2="247.476" gradientUnits="userSpaceOnUse">
<stop stop-color="#699DD1"/>
<stop offset="1" stop-color="#173D7A"/>
</linearGradient>
<linearGradient id="paint20_linear" x1="43.1717" y1="212.333" x2="77.136" y2="212.333" gradientUnits="userSpaceOnUse">
<stop stop-color="#699DD1"/>
<stop offset="1" stop-color="#173D7A"/>
</linearGradient>
<linearGradient id="paint21_linear" x1="186.473" y1="304.346" x2="215.66" y2="304.346" gradientUnits="userSpaceOnUse">
<stop stop-color="#699DD1"/>
<stop offset="1" stop-color="#173D7A"/>
</linearGradient>
<linearGradient id="paint22_linear" x1="186.468" y1="293.705" x2="244.85" y2="293.705" gradientUnits="userSpaceOnUse">
<stop stop-color="#E9F6FF"/>
<stop offset="1" stop-color="#D4ECFF"/>
</linearGradient>
<linearGradient id="paint23_linear" x1="250.079" y1="133.626" x2="304.036" y2="133.626" gradientUnits="userSpaceOnUse">
<stop stop-color="#699DD1"/>
<stop offset="1" stop-color="#173D7A"/>
</linearGradient>
<linearGradient id="paint24_linear" x1="290.422" y1="62.0296" x2="400.413" y2="23.7432" gradientUnits="userSpaceOnUse">
<stop stop-color="#E9F6FF"/>
<stop offset="1" stop-color="#5793CE"/>
</linearGradient>
<linearGradient id="paint25_linear" x1="326.575" y1="0.0625919" x2="346.012" y2="8.26478" gradientUnits="userSpaceOnUse">
<stop stop-color="#02C34D"/>
<stop offset="1" stop-color="#91FF8C"/>
</linearGradient>
<linearGradient id="paint26_linear" x1="326.778" y1="15.8619" x2="334.095" y2="21.5875" gradientUnits="userSpaceOnUse">
<stop stop-color="#02C34D"/>
<stop offset="1" stop-color="#91FF8C"/>
</linearGradient>
<linearGradient id="paint27_linear" x1="153.107" y1="171.595" x2="182.399" y2="222.325" gradientUnits="userSpaceOnUse">
<stop stop-color="#FFB200"/>
<stop offset="1" stop-color="#FF5800"/>
</linearGradient>
<linearGradient id="paint28_linear" x1="151.592" y1="166.179" x2="199.48" y2="212.714" gradientUnits="userSpaceOnUse">
<stop stop-color="#FE8E27"/>
<stop offset="1" stop-color="#FFCC4A"/>
</linearGradient>
</defs>
</svg>
