<svg width="43" height="38" viewBox="0 0 43 38" fill="none" xmlns="http://www.w3.org/2000/svg">
<path d="M21.3136 1C10.873 1 2.268 7.41159 1.12782 15.9655C1.04669 16.0867 1.0023 16.2287 1 16.3745C1.00072 16.4705 1.01802 16.5656 1.05113 16.6557C1 17.0699 1 17.4636 1 17.8726C1 22.2288 2.96847 26.3191 6.56285 29.4585C5.02503 31.6864 3.31553 33.7908 1.44994 35.7524C1.34718 35.8546 1.27759 35.9853 1.25022 36.1276C1.22286 36.2699 1.23901 36.4171 1.29655 36.5501C1.35207 36.6833 1.44578 36.7971 1.56589 36.8772C1.68599 36.9573 1.82711 37 1.97145 37C6.73668 37 10.7861 35.8547 14.0072 33.5948C16.3715 34.3459 18.838 34.7254 21.3187 34.7196C32.516 34.7196 41.6272 27.1628 41.6272 17.8726C41.6272 8.58245 32.5109 1 21.3136 1ZM21.3136 33.2113C18.8665 33.2169 16.4349 32.8231 14.1146 32.0456C14.003 32.0073 13.8838 31.9966 13.7672 32.0144C13.6505 32.0323 13.5399 32.078 13.4448 32.1478C10.8168 34.0959 7.54452 35.2003 3.69962 35.4508C5.32021 33.6415 6.81011 31.7193 8.15807 29.6988C8.25733 29.547 8.29709 29.3639 8.26973 29.1847C8.24237 29.0054 8.14981 28.8426 8.0098 28.7273C4.43588 25.8181 2.4674 21.9629 2.4674 17.8726C2.46203 17.403 2.48422 16.9335 2.53387 16.4666C3.40818 8.61824 11.6502 2.4674 21.3136 2.4674C31.703 2.4674 40.1547 9.36983 40.1547 17.847C40.1547 26.3242 31.703 33.2113 21.3136 33.2113ZM28.5023 12.2484C27.3722 12.2533 26.272 12.6121 25.3562 13.2743C24.4404 13.9366 23.755 14.869 23.3962 15.9407C23.0375 17.0124 23.0234 18.1696 23.356 19.2497C23.6886 20.3298 24.3511 21.2786 25.2505 21.9629H17.1363C18.1593 21.1891 18.8737 20.0767 19.1519 18.8245C19.43 17.5724 19.2537 16.2621 18.6544 15.128C18.0552 13.9939 17.0721 13.1099 15.881 12.6341C14.6898 12.1582 13.3683 12.1215 12.1526 12.5306C10.9369 12.9397 9.9063 13.7678 9.2451 14.8669C8.5839 15.966 8.33519 17.2645 8.54343 18.5301C8.75167 19.7958 9.40329 20.9461 10.3818 21.7755C11.3603 22.6048 12.6019 23.0591 13.8845 23.0571H28.5023C29.9384 23.0571 31.3156 22.4866 32.331 21.4712C33.3465 20.4558 33.9169 19.0786 33.9169 17.6425C33.9169 16.2065 33.3465 14.8293 32.331 13.8138C31.3156 12.7984 29.9384 12.2279 28.5023 12.2279V12.2484ZM13.8845 21.9629C13.03 21.9629 12.1947 21.7095 11.4842 21.2348C10.7738 20.7601 10.22 20.0853 9.89299 19.2959C9.56599 18.5064 9.48044 17.6377 9.64714 16.7997C9.81384 15.9616 10.2253 15.1918 10.8295 14.5875C11.4338 13.9833 12.2036 13.5718 13.0417 13.4051C13.8797 13.2384 14.7484 13.324 15.5379 13.651C16.3273 13.978 17.0021 14.5317 17.4768 15.2422C17.9516 15.9527 18.2049 16.788 18.2049 17.6425C18.2103 18.2136 18.1026 18.78 17.888 19.3092C17.6733 19.8384 17.356 20.3199 16.9544 20.7258C16.5527 21.1317 16.0747 21.4541 15.5478 21.6743C15.0209 21.8946 14.4556 22.0083 13.8845 22.0089V21.9629ZM28.5023 21.9629C27.6478 21.9629 26.8125 21.7095 26.1021 21.2348C25.3916 20.7601 24.8378 20.0853 24.5108 19.2959C24.1838 18.5064 24.0982 17.6377 24.2649 16.7997C24.4317 15.9616 24.8431 15.1918 25.4474 14.5875C26.0516 13.9833 26.8214 13.5718 27.6595 13.4051C28.4975 13.2384 29.3662 13.324 30.1557 13.651C30.9451 13.978 31.6199 14.5317 32.0946 15.2422C32.5694 15.9527 32.8228 16.788 32.8228 17.6425C32.8282 18.2136 32.7204 18.78 32.5058 19.3092C32.2911 19.8384 31.9738 20.3199 31.5722 20.7258C31.1705 21.1317 30.6925 21.4541 30.1656 21.6743C29.6387 21.8946 29.0734 22.0083 28.5023 22.0089V21.9629Z" fill="#3C64B1" stroke="#3C64B1"/>
</svg>
