<svg width="36" height="36" viewBox="0 0 36 36" fill="none" xmlns="http://www.w3.org/2000/svg">
<path d="M25.6356 36C22.6467 35.9689 19.6997 35.2935 16.9956 34.02C10.0433 30.9575 4.54974 25.3181 1.6704 18.288C0.454014 15.4821 -0.110924 12.4371 0.0180003 9.3816C0.1872 5.9004 1.368 2.9916 3.5244 0.72C3.68782 0.561623 3.86903 0.422698 4.0644 0.306L4.1796 0.2268L4.4928 0H5.6844L5.8824 0.0756C7.6824 0.7416 8.982 1.9476 10.2456 3.1104C11.2526 4.02543 12.2046 4.99912 13.0968 6.0264C14.1291 7.21533 14.6867 8.74322 14.6628 10.3176C14.6527 10.8726 14.5618 11.4232 14.3928 11.952C14.1852 12.6668 13.7747 13.3061 13.2112 13.7923C12.6476 14.2786 11.9551 14.5909 11.2176 14.6916C11.2716 17.028 12.4452 19.5264 14.4756 21.5496C16.506 23.5728 18.9792 24.7248 21.294 24.7716C21.294 24.7716 21.294 24.7716 21.294 24.7464C21.654 22.4208 24.0732 20.9664 26.0316 21.096C26.953 21.1556 27.8445 21.4465 28.6236 21.942C29.3226 22.3677 29.9817 22.8557 30.5928 23.4C32.0762 24.7506 33.4264 26.2407 34.6248 27.8496C34.9564 28.3251 35.2524 28.8245 35.5104 29.3436C35.6148 29.5416 35.7192 29.7432 35.8308 29.9376L35.9928 30.2076V31.4244L35.838 31.68C35.4052 32.3717 34.825 32.9593 34.1388 33.4008L34.038 33.4728C32.2957 34.7429 30.2591 35.5493 28.1196 35.8164C27.2967 35.9339 26.4668 35.9952 25.6356 36ZM5.2452 2.3724C3.4812 4.2192 2.5488 6.552 2.4048 9.486C2.29289 12.185 2.79383 14.8743 3.87 17.352C6.51443 23.8303 11.5678 29.0308 17.9676 31.86C21.3336 33.3936 24.5484 33.9228 27.7992 33.48C29.5445 33.2656 31.2069 32.6116 32.6304 31.5792L32.7312 31.5036C33.0427 31.2948 33.3312 31.0535 33.5916 30.7836L33.4152 30.4524C33.2042 30.0349 32.9636 29.6331 32.6952 29.25C31.5901 27.7626 30.3448 26.3847 28.9764 25.1352C28.4722 24.6899 27.9288 24.2911 27.3528 23.9436C26.9065 23.6619 26.3964 23.4972 25.8696 23.4648C25.0812 23.4108 23.8068 24.0336 23.6484 25.0992C23.6259 25.2784 23.6139 25.4587 23.6124 25.6392C23.6124 25.7508 23.6124 25.8624 23.6124 25.974L23.5548 26.964L22.572 27.0828C19.2816 27.4824 15.6384 26.0424 12.8196 23.2344C10.0008 20.4264 8.5284 16.7544 8.9244 13.4172L9.0504 12.3696H10.5696C10.9232 12.3882 11.2725 12.2856 11.5599 12.0788C11.8472 11.8719 12.0554 11.5732 12.15 11.232C12.2475 10.9269 12.2997 10.6091 12.3048 10.2888C12.3222 9.28444 11.9611 8.31029 11.2932 7.56C10.4603 6.60728 9.57199 5.70451 8.6328 4.8564C7.5528 3.8484 6.5124 2.88 5.2452 2.3724Z" fill="#3C64B1"/>
</svg>
