<svg width="29" height="36" viewBox="0 0 29 36" fill="none" xmlns="http://www.w3.org/2000/svg">
<path d="M6.63105 10.2409C6.14617 10.7607 5.9043 11.4886 5.9043 12.4268C5.9043 13.3133 6.14617 14.0131 6.62767 14.5238C7.1103 15.0357 7.72567 15.2922 8.4738 15.2922C9.07905 15.2922 9.57742 15.1426 9.9723 14.8444C10.366 14.5452 10.6473 14.0884 10.816 13.4731L9.71242 13.1232C9.61792 13.5349 9.46155 13.8376 9.2433 14.0311C9.02617 14.2223 8.76517 14.3191 8.46367 14.3191C8.05305 14.3191 7.72005 14.1672 7.46355 13.8657C7.20592 13.5631 7.0788 13.0557 7.0788 12.3424C7.0788 11.6708 7.20817 11.1859 7.46917 10.8844C7.72905 10.5852 8.06767 10.4356 8.48617 10.4356C8.7888 10.4356 9.0453 10.5199 9.25792 10.6898C9.46942 10.8586 9.60892 11.0892 9.67417 11.3817L10.7992 11.1117C10.6709 10.6606 10.4785 10.3141 10.222 10.0733C9.79117 9.66606 9.23092 9.46243 8.5413 9.46243C7.75267 9.46243 7.11592 9.72231 6.63105 10.2409Z" fill="#3C64B1"/>
<path d="M14.9373 15.0762C15.2725 14.9682 15.5391 14.8185 15.7371 14.6262C15.9981 14.3719 16.1995 14.04 16.3401 13.6305C16.456 13.2942 16.5134 12.8948 16.5134 12.4313C16.5134 11.9025 16.4515 11.4593 16.3289 11.0982C16.2063 10.737 16.0251 10.4333 15.79 10.1847C15.5538 9.93492 15.2703 9.76279 14.9395 9.66491C14.6931 9.59404 14.3365 9.55692 13.8674 9.55692H11.7861V15.1943H13.9281C14.35 15.1954 14.6853 15.156 14.9373 15.0762ZM12.9258 14.2459V10.512H13.4376C13.9011 10.512 14.2128 10.53 14.3714 10.566C14.584 10.6122 14.7606 10.6999 14.899 10.8315C15.0374 10.9609 15.1454 11.1432 15.2219 11.376C15.2984 11.61 15.3378 11.9442 15.3378 12.3807C15.3378 12.8172 15.2995 13.1603 15.2219 13.4134C15.1443 13.6665 15.0453 13.8477 14.9226 13.9568C14.8023 14.067 14.6481 14.1447 14.4636 14.1908C14.323 14.2268 14.0935 14.2459 13.7763 14.2459H12.9258Z" fill="#3C64B1"/>
<path d="M18.6209 12.8418H18.8515C19.1125 12.8418 19.3038 12.8632 19.4242 12.9059C19.5445 12.9475 19.6593 13.0252 19.7673 13.1399C19.8753 13.2547 20.0744 13.5303 20.3669 13.969L21.1893 15.1953H22.5505L21.8632 14.095C21.5909 13.6563 21.3749 13.3514 21.2152 13.1804C21.0554 13.0094 20.8518 12.8508 20.6054 12.7079C21.0993 12.6359 21.4728 12.4615 21.7203 12.1859C21.9678 11.9103 22.0938 11.5604 22.0938 11.1385C22.0938 10.8044 22.0117 10.5085 21.8474 10.2498C21.6832 9.99105 21.4638 9.80992 21.1915 9.7098C20.9182 9.60855 20.4805 9.55792 19.8787 9.55792H17.4824V15.1953H18.6209V12.8418ZM18.6209 10.5119H19.5097C19.9709 10.5119 20.2477 10.5187 20.3399 10.531C20.5244 10.5614 20.6673 10.6368 20.7685 10.7527C20.8698 10.8685 20.9204 11.0215 20.9204 11.2117C20.9204 11.3804 20.8822 11.521 20.8045 11.6347C20.7269 11.7483 20.6212 11.827 20.485 11.8732C20.35 11.9193 20.008 11.9429 19.4635 11.9429H18.6209V10.5119Z" fill="#3C64B1"/>
<path d="M22.4909 27.0461H5.63281V29.2961H22.4909V27.0461Z" fill="#3C64B1"/>
<path d="M22.4909 23.0625H5.63281V25.3125H22.4909V23.0625Z" fill="#3C64B1"/>
<path d="M25.875 0H7.86825L4.67438 3.51675H0V33.75C0 34.9875 1.0125 36 2.25 36H25.875C27.1125 36 28.125 34.9875 28.125 33.75V2.25C28.125 1.0125 27.1125 0 25.875 0ZM25.875 33.75H2.25V5.76675H4.67438H5.67113L6.3405 5.02875L8.86387 2.25H25.875V33.75Z" fill="#3C64B1"/>
</svg>
