<svg width="38" height="38" viewBox="0 0 38 38" fill="none" xmlns="http://www.w3.org/2000/svg">
<path d="M10.7982 7.71702C10.7982 9.37745 12.149 10.7284 13.8095 10.7284C14.4705 10.7284 15.0632 10.5116 15.5236 10.1016C15.6137 10.0212 15.6995 9.93285 15.7784 9.83877C15.9657 9.61567 15.9365 9.28302 15.7134 9.09585C15.4902 8.90861 15.1576 8.93779 14.9705 9.16089C14.9242 9.21602 14.8743 9.26756 14.8221 9.31403C14.5541 9.55267 14.2135 9.67368 13.8095 9.67368C12.7307 9.67368 11.8529 8.79597 11.8529 7.71702C11.8529 6.63808 12.7306 5.76037 13.8095 5.76037C14.2017 5.76037 14.5799 5.87582 14.9032 6.09421C15.1446 6.25727 15.4724 6.19377 15.6353 5.95239C15.7984 5.71108 15.7349 5.38328 15.4935 5.22023C14.9952 4.88357 14.4129 4.70568 13.8095 4.70568C12.149 4.70568 10.7982 6.05659 10.7982 7.71702ZM20.1636 6.52417C20.1636 5.52145 19.3151 4.70568 18.2721 4.70568H16.9519C16.9517 4.70568 16.9514 4.70568 16.9511 4.70568C16.9508 4.70568 16.9505 4.70568 16.9503 4.70568C16.6591 4.70568 16.423 4.94179 16.423 5.23302V10.201C16.423 10.4922 16.6591 10.7283 16.9503 10.7283C17.2416 10.7283 17.4777 10.4922 17.4777 10.201V8.54657L19.2404 10.5494C19.3446 10.6678 19.4901 10.7283 19.6365 10.7283C19.7602 10.7283 19.8845 10.685 19.9847 10.5968C20.2033 10.4044 20.2246 10.0712 20.0321 9.85255L18.6676 8.3023C19.5213 8.12695 20.1636 7.39647 20.1636 6.52417ZM18.2721 7.28791C18.0902 7.28791 17.7662 7.28931 17.4854 7.29072C17.4839 7.01552 17.4825 6.7003 17.4825 6.52417C17.4825 6.37525 17.4817 6.04823 17.4808 5.76037H18.272C18.7256 5.76037 19.1088 6.11017 19.1088 6.52417C19.1088 6.93817 18.7257 7.28791 18.2721 7.28791ZM29.9345 21.833V20.0327C29.9345 18.5789 28.7517 17.396 27.2978 17.396H19.5273L19.5273 14.434H26.6725C28.1264 14.434 29.3092 13.2512 29.3092 11.7973V3.63672C29.3092 2.1828 28.1264 1 26.6725 1H16.3566C16.0654 1 15.8293 1.23611 15.8293 1.52734C15.8293 1.81858 16.0654 2.05469 16.3566 2.05469H26.6724C27.5448 2.05469 28.2545 2.76435 28.2545 3.63672V11.7973C28.2545 12.6697 27.5448 13.3794 26.6724 13.3794H11.3276C10.4552 13.3794 9.74554 12.6697 9.74554 11.7973V3.63672C9.74554 2.76435 10.4552 2.05469 11.3276 2.05469H14.2472C14.5385 2.05469 14.7746 1.81858 14.7746 1.52734C14.7746 1.23611 14.5385 1 14.2472 1H11.3276C9.87365 1 8.69085 2.1828 8.69085 3.63672V11.7973C8.69085 13.2512 9.87365 14.434 11.3276 14.434H18.4725L18.4726 17.3961H10.7022C9.24829 17.3961 8.06549 18.5789 8.06549 20.0328V21.8346C4.10845 22.1112 1 25.4178 1 29.4075C1 30.9898 1.48164 32.5058 2.39282 33.7918C3.80617 35.7865 6.17725 37 8.59248 37C12.7338 37 16.1856 33.5761 16.1856 29.4075C16.1856 25.398 13.0618 22.1049 9.12011 21.833V20.0328C9.12011 19.1605 9.82977 18.4508 10.7021 18.4508H27.2977C28.1701 18.4508 28.8797 19.1605 28.8797 20.0328V21.8335C26.4154 22.0075 24.1492 23.3909 22.8762 25.5322C22.7273 25.7826 22.8097 26.1062 23.06 26.255C23.3104 26.4039 23.634 26.3216 23.7827 26.0713C24.9569 24.096 27.1121 22.8691 29.407 22.8691C33.0122 22.8691 35.9452 25.8021 35.9452 29.4072C35.9452 31.306 35.1313 33.018 33.8344 34.2136C33.5195 32.9698 32.6914 31.9087 31.5561 31.3033C31.8918 30.8552 32.0909 30.2991 32.0909 29.6973C32.0909 29.1808 32.0909 27.6231 32.0909 27.0661C32.0909 26.0782 31.2873 25.2745 30.2994 25.2745H28.5148C27.5269 25.2745 26.7233 26.0783 26.7233 27.0661V29.6973C26.7233 30.2996 26.9227 30.8561 27.259 31.3044C26.8827 31.5056 26.533 31.7588 26.2257 32.0569C25.6104 32.6543 25.1846 33.399 24.9798 34.2135C23.6829 33.0179 22.8689 31.3059 22.8689 29.407C22.8689 28.8869 22.9302 28.3692 23.0508 27.8686C23.1191 27.5854 22.945 27.3006 22.6618 27.2323C22.3789 27.1641 22.0938 27.3382 22.0255 27.6214C21.8853 28.2029 21.8143 28.8036 21.8143 29.407C21.8143 33.6123 25.2819 37 29.4072 37C33.5337 37 37 33.6187 37 29.4072C37 25.3977 33.8761 22.1047 29.9345 21.833ZM8.59248 35.9453C7.34275 35.9453 6.13541 35.5852 5.10358 34.9344C5.19435 34.1291 5.55773 33.3846 6.14561 32.8138C6.4836 32.4859 6.88621 32.2284 7.32018 32.0596C7.69916 32.2646 8.13257 32.3812 8.59284 32.3812C9.05317 32.3812 9.48679 32.2645 9.86577 32.0595C11.0801 32.5307 11.9347 33.6416 12.082 34.9339C11.0716 35.5741 9.87463 35.9453 8.59248 35.9453ZM8.4288 28.5735C8.95178 28.4013 9.51379 28.4788 9.97054 28.7862L10.222 28.9555V29.6973C10.222 30.5956 9.49115 31.3264 8.59284 31.3264C7.69452 31.3264 6.9637 30.5956 6.9637 29.6973V29.0561L8.4288 28.5735ZM6.96362 27.9458V27.0662C6.96362 26.6598 7.29416 26.3293 7.7005 26.3293H9.4851C9.89144 26.3293 10.222 26.6598 10.222 27.0662V27.7171C9.5635 27.3935 8.80877 27.3377 8.09875 27.5718L6.96362 27.9458ZM15.131 29.4075C15.131 31.3062 14.317 33.0183 13.02 34.2137C12.7052 32.9696 11.8771 31.9085 10.7419 31.3031C11.0776 30.855 11.2767 30.299 11.2767 29.6973V27.0661C11.2767 26.0782 10.473 25.2745 9.4851 25.2745H7.7005C6.71261 25.2745 5.90894 26.0783 5.90894 27.0661V29.6973C5.90894 30.2994 6.10834 30.856 6.44451 31.3042C6.06855 31.5052 5.71881 31.7583 5.41105 32.0569C4.79463 32.6554 4.3686 33.4011 4.1642 34.2161C3.82811 33.9072 3.52218 33.5614 3.2533 33.1819C2.46918 32.0752 2.05469 30.77 2.05469 29.4075C2.05469 28.9585 2.1006 28.5092 2.19109 28.0721C2.81631 25.0573 5.50844 22.8691 8.59248 22.8691C12.1978 22.869 15.131 25.8022 15.131 29.4075ZM27.778 27.0662C27.778 26.6598 28.1086 26.3293 28.5149 26.3293H30.2994C30.7058 26.3293 31.0363 26.6598 31.0363 27.0662V27.7171C30.3778 27.3935 29.6232 27.3378 28.9131 27.5719L27.778 27.9458V27.0662H27.778ZM27.778 29.0562L29.2431 28.5735C29.7662 28.4013 30.328 28.4788 30.7849 28.7862L31.0364 28.9553V29.6973C31.0364 30.5956 30.3055 31.3264 29.4072 31.3264C28.5089 31.3264 27.7781 30.5956 27.7781 29.6973V29.0562H27.778ZM29.4072 35.9453C28.1253 35.9453 26.9286 35.5742 25.9183 34.9343C26.0096 34.1286 26.373 33.384 26.9602 32.8138C27.2974 32.4867 27.7 32.2292 28.1346 32.0597C28.5136 32.2646 28.947 32.3812 29.4072 32.3812C29.8674 32.3812 30.301 32.2646 30.6799 32.0596C31.8945 32.5309 32.7492 33.6417 32.8966 34.9339C31.8862 35.5741 30.6893 35.9453 29.4072 35.9453ZM21.9566 10.2559L22.5184 7.14299L23.4421 10.2737C23.4439 10.28 23.4459 10.2862 23.4479 10.2924C23.5356 10.5535 23.7789 10.7284 24.0541 10.7284H24.0574C24.3339 10.727 24.5771 10.5494 24.6625 10.2863C24.6644 10.2803 24.6663 10.2741 24.6681 10.268L25.5599 7.13955L26.1565 10.2612C26.2112 10.5473 26.4875 10.7351 26.7735 10.6802C27.0596 10.6256 27.2471 10.3493 27.1925 10.0633L26.2663 5.21756C26.2083 4.93321 25.9654 4.72312 25.6757 4.7068C25.3864 4.69098 25.1209 4.8719 25.0313 5.14787C25.0294 5.15392 25.0275 5.15997 25.0258 5.16609L24.0474 8.59832L23.0331 5.1606C23.0313 5.15434 23.0293 5.14809 23.0273 5.1419C22.9349 4.86663 22.6672 4.68754 22.3782 4.70737C22.0885 4.72677 21.8479 4.93947 21.7918 5.23056L20.9186 10.0684C20.8669 10.355 21.0573 10.6293 21.3439 10.681C21.6302 10.7327 21.9048 10.5425 21.9566 10.2559Z" fill="#3C64B1" stroke="#3C64B1" stroke-width="0.5"/>
</svg>
