<svg width="45" height="38" viewBox="0 0 45 38" fill="none" xmlns="http://www.w3.org/2000/svg">
<path d="M28.8331 12.9499H16.2002V7.94616C16.2002 4.46339 19.0339 1.6297 22.5167 1.6297C25.9994 1.6297 28.8331 4.46339 28.8331 7.94616V12.9499ZM18.1378 11.0124H26.8956V7.94616C26.8956 5.53389 24.9289 3.56727 22.5167 3.56727C20.1044 3.56727 18.1378 5.53389 18.1378 7.94616V11.0124Z" fill="#3C64B1" stroke="#3C64B1" stroke-width="0.3"/>
<path d="M22.5174 22.0419C22.1638 22.0419 21.8247 21.974 21.5099 21.8384C20.5556 21.4315 19.9404 20.4967 19.9404 19.4649C19.9404 18.0456 21.0981 16.8879 22.5174 16.8879C23.9367 16.8879 25.0944 18.0456 25.0944 19.4649C25.0944 20.4967 24.4792 21.4315 23.5298 21.8384C23.2101 21.974 22.871 22.0419 22.5174 22.0419ZM22.5174 18.8255C22.1638 18.8255 21.878 19.1113 21.878 19.4649C21.878 19.7265 22.0282 19.9541 22.2704 20.0559C22.343 20.0849 22.4302 20.1043 22.5174 20.1043C22.6046 20.1043 22.6918 20.0898 22.7693 20.0559C23.0066 19.9541 23.1568 19.7216 23.1568 19.4649C23.1568 19.1113 22.871 18.8255 22.5174 18.8255Z" fill="#3C64B1" stroke="#3C64B1" stroke-width="0.3"/>
<path d="M29.6565 28.7702H15.3766C13.9089 28.7702 12.5962 27.7869 12.1845 26.3821C12.0973 26.0915 12.0537 25.7766 12.0537 25.4473V14.3353C12.0537 14.0253 12.0973 13.725 12.1797 13.4392C12.5817 12.0102 13.8944 11.0124 15.3815 11.0124H29.6565C31.1436 11.0124 32.4611 12.0151 32.8632 13.444V13.4537C32.9407 13.7395 32.9794 14.035 32.9794 14.3353V25.4473C32.9794 25.7524 32.9358 26.0624 32.8535 26.3676L32.8486 26.3773C32.4369 27.7869 31.1242 28.7702 29.6565 28.7702ZM15.3815 12.95C14.7615 12.95 14.2093 13.3665 14.0446 13.9672L14.0397 13.9817C14.0058 14.0931 13.9913 14.2094 13.9913 14.3402V25.4521C13.9913 25.5926 14.0107 25.7185 14.0397 25.8299L14.0446 25.8396C14.2141 26.4257 14.7663 26.8375 15.3766 26.8375H29.6565C30.2668 26.8375 30.8142 26.4306 30.9886 25.8445C31.0273 25.7137 31.0419 25.578 31.0419 25.4521V14.3353C31.0419 14.2094 31.0273 14.0834 30.9934 13.9623C30.8239 13.3665 30.2765 12.95 29.6565 12.95H15.3815Z" fill="#3C64B1" stroke="#3C64B1" stroke-width="0.3"/>
<path d="M10.2333 14.6743H6.57617V6.21201H8.51374V12.7368H10.2333V14.6743Z" fill="#3C64B1" stroke="#3C64B1" stroke-width="0.3"/>
<path d="M38.457 14.6743H34.7998V12.7368H36.5194V6.21201H38.457V14.6743Z" fill="#3C64B1" stroke="#3C64B1" stroke-width="0.3"/>
<path d="M7.54452 7.18084C5.83946 7.18084 4.4541 5.79548 4.4541 4.09042C4.4541 2.38536 5.83946 1 7.54452 1C9.24958 1 10.6349 2.38536 10.6349 4.09042C10.6349 5.79548 9.24958 7.18084 7.54452 7.18084ZM7.54452 2.93757C6.90997 2.93757 6.39167 3.45586 6.39167 4.09042C6.39167 4.72497 6.90997 5.24327 7.54452 5.24327C8.17907 5.24327 8.69737 4.72497 8.69737 4.09042C8.69737 3.45586 8.17907 2.93757 7.54452 2.93757Z" fill="#3C64B1" stroke="#3C64B1" stroke-width="0.3"/>
<path d="M37.4898 7.18084C35.7848 7.18084 34.3994 5.79548 34.3994 4.09042C34.3994 2.38536 35.7848 1 37.4898 1C39.1949 1 40.5803 2.38536 40.5803 4.09042C40.5803 5.79548 39.1949 7.18084 37.4898 7.18084ZM37.4898 2.93757C36.8553 2.93757 36.337 3.45586 36.337 4.09042C36.337 4.72497 36.8553 5.24327 37.4898 5.24327C38.1244 5.24327 38.6427 4.72497 38.6427 4.09042C38.6427 3.45586 38.1244 2.93757 37.4898 2.93757Z" fill="#3C64B1" stroke="#3C64B1" stroke-width="0.3"/>
<path d="M8.51374 31.7879H6.57617V25.1421H10.2333V27.0797H8.51374V31.7879Z" fill="#3C64B1" stroke="#3C64B1" stroke-width="0.3"/>
<path d="M38.457 31.7879H36.5194V27.0797H34.7998V25.1421H38.457V31.7879Z" fill="#3C64B1" stroke="#3C64B1" stroke-width="0.3"/>
<path d="M7.54452 37C5.83946 37 4.4541 35.6146 4.4541 33.9096C4.4541 32.2045 5.83946 30.8192 7.54452 30.8192C9.24958 30.8192 10.6349 32.2045 10.6349 33.9096C10.6349 35.6146 9.24958 37 7.54452 37ZM7.54452 32.7567C6.90997 32.7567 6.39167 33.275 6.39167 33.9096C6.39167 34.5441 6.90997 35.0624 7.54452 35.0624C8.17907 35.0624 8.69737 34.5441 8.69737 33.9096C8.69737 33.275 8.17907 32.7567 7.54452 32.7567Z" fill="#3C64B1" stroke="#3C64B1" stroke-width="0.3"/>
<path d="M37.4898 37C35.7848 37 34.3994 35.6146 34.3994 33.9096C34.3994 32.2045 35.7848 30.8192 37.4898 30.8192C39.1949 30.8192 40.5803 32.2045 40.5803 33.9096C40.5803 35.6146 39.1949 37 37.4898 37ZM37.4898 32.7567C36.8553 32.7567 36.337 33.275 36.337 33.9096C36.337 34.5441 36.8553 35.0624 37.4898 35.0624C38.1244 35.0624 38.6427 34.5441 38.6427 33.9096C38.6427 33.275 38.1244 32.7567 37.4898 32.7567Z" fill="#3C64B1" stroke="#3C64B1" stroke-width="0.3"/>
<path d="M4.09042 22.7734C2.38536 22.7734 1 21.388 1 19.6829C1 17.9779 2.38536 16.5925 4.09042 16.5925C5.79548 16.5925 7.18084 17.9779 7.18084 19.6829C7.18084 21.388 5.79548 22.7734 4.09042 22.7734ZM4.09042 18.5301C3.45587 18.5301 2.93757 19.0484 2.93757 19.6829C2.93757 20.3175 3.45587 20.8358 4.09042 20.8358C4.72497 20.8358 5.24327 20.3175 5.24327 19.6829C5.24327 19.0484 4.72497 18.5301 4.09042 18.5301Z" fill="#3C64B1" stroke="#3C64B1" stroke-width="0.3"/>
<path d="M40.943 22.7734C39.2379 22.7734 37.8525 21.388 37.8525 19.6829C37.8525 17.9779 39.2379 16.5925 40.943 16.5925C42.648 16.5925 44.0334 17.9779 44.0334 19.6829C44.0334 21.388 42.648 22.7734 40.943 22.7734ZM40.943 18.5301C40.3084 18.5301 39.7901 19.0484 39.7901 19.6829C39.7901 20.3175 40.3084 20.8358 40.943 20.8358C41.5775 20.8358 42.0958 20.3175 42.0958 19.6829C42.0958 19.0484 41.5775 18.5301 40.943 18.5301Z" fill="#3C64B1" stroke="#3C64B1" stroke-width="0.3"/>
<path d="M10.2323 18.7142H6.20703V20.6517H10.2323V18.7142Z" fill="#3C64B1" stroke="#3C64B1" stroke-width="0.3"/>
<path d="M38.8251 18.7142H34.7998V20.6517H38.8251V18.7142Z" fill="#3C64B1" stroke="#3C64B1" stroke-width="0.3"/>
<path d="M23.4864 21.0732H21.5488V24.183H23.4864V21.0732Z" fill="#3C64B1" stroke="#3C64B1" stroke-width="0.3"/>
</svg>
