<svg width="36" height="36" viewBox="0 0 36 36" fill="none" xmlns="http://www.w3.org/2000/svg">
<path d="M32.625 9H28.125C26.261 9 24.75 10.511 24.75 12.375V13.5H22.5V0H9.65925L2.25 7.40925V13.5H0V31.5C0 33.9853 2.01473 36 4.5 36H32.625C34.489 36 36 34.489 36 32.625V12.375C36 10.511 34.489 9 32.625 9ZM9 3.84075V6.75H6.09075L9 3.84075ZM4.5 9H11.25V2.25H20.25V13.5H4.5V9ZM24.75 33.75H4.5C3.25737 33.75 2.25 32.7426 2.25 31.5V15.75H24.75V33.75ZM33.75 32.625C33.75 33.2464 33.2464 33.75 32.625 33.75H27V12.375C27 11.7536 27.5036 11.25 28.125 11.25H32.625C33.2464 11.25 33.75 11.7536 33.75 12.375V32.625Z" fill="#3C64B1"/>
<path d="M21.375 18H5.625V20.25H21.375V18Z" fill="#3C64B1"/>
<path d="M7.875 22.5H5.625V24.75H7.875V22.5Z" fill="#3C64B1"/>
<path d="M12.375 22.5H10.125V24.75H12.375V22.5Z" fill="#3C64B1"/>
<path d="M16.875 22.5H14.625V24.75H16.875V22.5Z" fill="#3C64B1"/>
<path d="M21.375 22.5H19.125V24.75H21.375V22.5Z" fill="#3C64B1"/>
</svg>
