<svg width="57" height="36" viewBox="0 0 57 36" fill="none" xmlns="http://www.w3.org/2000/svg">
<path d="M44.7136 13.9371C44.9174 13.9377 45.1165 13.876 45.2841 13.7601C45.4516 13.6442 45.5797 13.4797 45.651 13.2889L48.6427 5.31103C48.6886 5.18793 48.7097 5.057 48.7049 4.92573C48.7002 4.79446 48.6696 4.66541 48.615 4.54596C48.5603 4.4265 48.4827 4.31898 48.3865 4.22952C48.2903 4.14007 48.1775 4.07044 48.0544 4.0246C47.9313 3.97877 47.8003 3.95763 47.6691 3.96239C47.5378 3.96715 47.4087 3.99772 47.2893 4.05236C47.1698 4.10699 47.0623 4.18462 46.9729 4.28081C46.8834 4.377 46.8138 4.48987 46.7679 4.61297L44.7136 10.0977L42.6593 4.61297C42.6135 4.48987 42.5439 4.377 42.4544 4.28081C42.365 4.18462 42.2574 4.10699 42.138 4.05236C42.0185 3.99772 41.8895 3.96715 41.7582 3.96239C41.6269 3.95763 41.496 3.97877 41.3729 4.0246C41.2498 4.07044 41.1369 4.14007 41.0408 4.22952C40.9446 4.31898 40.8669 4.4265 40.8123 4.54596C40.7577 4.66541 40.7271 4.79446 40.7223 4.92573C40.7176 5.057 40.7387 5.18793 40.7846 5.31103L43.7762 13.2889C43.8476 13.4797 43.9756 13.6442 44.1432 13.7601C44.3108 13.876 44.5099 13.9377 44.7136 13.9371Z" fill="#3C64B1"/>
<path d="M53.6899 3.96478H51.6955C51.431 3.96478 51.1773 4.06985 50.9903 4.25686C50.8033 4.44388 50.6982 4.69753 50.6982 4.96201V12.9399C50.6982 13.2043 50.8033 13.458 50.9903 13.645C51.1773 13.832 51.431 13.9371 51.6955 13.9371C51.96 13.9371 52.2136 13.832 52.4006 13.645C52.5876 13.458 52.6927 13.2043 52.6927 12.9399V9.94817H53.6899C53.9544 9.94817 54.2081 10.0532 54.3951 10.2402C54.5821 10.4273 54.6872 10.6809 54.6872 10.9454V12.9399C54.6872 13.2043 54.7922 13.458 54.9792 13.645C55.1663 13.832 55.4199 13.9371 55.6844 13.9371C55.9489 13.9371 56.2025 13.832 56.3895 13.645C56.5766 13.458 56.6816 13.2043 56.6816 12.9399V10.9454C56.6772 10.2074 56.4002 9.49706 55.9038 8.95094C56.4002 8.40482 56.6772 7.69448 56.6816 6.95647C56.6816 6.16303 56.3664 5.40208 55.8054 4.84103C55.2443 4.27998 54.4834 3.96478 53.6899 3.96478ZM52.6927 7.95371V5.95924H53.6899C53.9544 5.95924 54.2081 6.06431 54.3951 6.25133C54.5821 6.43834 54.6872 6.69199 54.6872 6.95647C54.6872 7.22096 54.5821 7.47461 54.3951 7.66162C54.2081 7.84864 53.9544 7.95371 53.6899 7.95371H52.6927Z" fill="#3C64B1"/>
<path d="M37.7332 5.95778C37.9977 5.95778 38.2514 5.85272 38.4384 5.6657C38.6254 5.47868 38.7305 5.22503 38.7305 4.96055C38.7305 4.69607 38.6254 4.44242 38.4384 4.2554C38.2514 4.06838 37.9977 3.96332 37.7332 3.96332H33.7443C33.4798 3.96332 33.2262 4.06838 33.0392 4.2554C32.8521 4.44242 32.7471 4.69607 32.7471 4.96055C32.7471 5.22503 32.8521 5.47868 33.0392 5.6657C33.2262 5.85272 33.4798 5.95778 33.7443 5.95778H34.7415V11.9412H33.7443C33.4798 11.9412 33.2262 12.0462 33.0392 12.2332C32.8521 12.4203 32.7471 12.6739 32.7471 12.9384C32.7471 13.2029 32.8521 13.4565 33.0392 13.6435C33.2262 13.8306 33.4798 13.9356 33.7443 13.9356H37.7332C37.9977 13.9356 38.2514 13.8306 38.4384 13.6435C38.6254 13.4565 38.7305 13.2029 38.7305 12.9384C38.7305 12.6739 38.6254 12.4203 38.4384 12.2332C38.2514 12.0462 37.9977 11.9412 37.7332 11.9412H36.736V5.95778H37.7332Z" fill="#3C64B1"/>
<path d="M24.422 15.0137C24.675 15.0804 24.944 15.045 25.1711 14.9151C25.2958 14.8519 25.4058 14.7632 25.4939 14.6548C25.5821 14.5464 25.6465 14.4206 25.6829 14.2857C25.9202 13.4002 25.9808 12.4766 25.8612 11.5677C25.7415 10.6588 25.444 9.7823 24.9856 8.98836C24.5272 8.19442 23.917 7.49854 23.1896 6.94047C22.4623 6.38239 21.6322 5.97305 20.7466 5.73582C20.617 5.69011 20.4793 5.67169 20.3423 5.68171C20.2052 5.69174 20.0717 5.72999 19.9501 5.79406C19.8285 5.85814 19.7214 5.94665 19.6357 6.05406C19.5499 6.16146 19.4873 6.28543 19.4517 6.41819C19.4162 6.55095 19.4084 6.68962 19.429 6.82552C19.4495 6.96141 19.498 7.09158 19.5712 7.20787C19.6445 7.32416 19.741 7.42404 19.8547 7.50126C19.9684 7.57847 20.0968 7.63135 20.2319 7.65658C20.8657 7.82553 21.4598 8.11783 21.9804 8.51676C22.501 8.91569 22.9377 9.4134 23.2657 9.98139C23.5936 10.5494 23.8062 11.1765 23.8914 11.8268C23.9766 12.4771 23.9327 13.1378 23.7621 13.7711C23.6855 14.0234 23.7119 14.2957 23.8356 14.5286C23.9592 14.7615 24.1701 14.9359 24.422 15.0137Z" fill="#3C64B1"/>
<path d="M20.5424 13.9369C20.7971 14.0043 21.0681 13.9682 21.2963 13.8365C21.5245 13.7048 21.6912 13.4881 21.7602 13.2338C21.9649 12.4679 21.8572 11.6521 21.4608 10.9655C21.0644 10.2789 20.4117 9.77773 19.646 9.57206C19.5164 9.52636 19.3787 9.50794 19.2417 9.51796C19.1046 9.52798 18.9711 9.56623 18.8495 9.6303C18.7279 9.69438 18.6209 9.7829 18.5351 9.8903C18.4493 9.9977 18.3867 10.1217 18.3511 10.2544C18.3156 10.3872 18.3078 10.5259 18.3284 10.6618C18.349 10.7977 18.3974 10.9278 18.4707 11.0441C18.5439 11.1604 18.6404 11.2603 18.7541 11.3375C18.8678 11.4147 18.9963 11.4676 19.1314 11.4928C19.2587 11.5264 19.3781 11.5848 19.4827 11.6647C19.5873 11.7447 19.675 11.8445 19.7408 11.9585C19.8067 12.0725 19.8493 12.1984 19.8662 12.329C19.8831 12.4595 19.874 12.5922 19.8394 12.7192C19.772 12.9739 19.8081 13.2449 19.9398 13.473C20.0715 13.7012 20.2882 13.8679 20.5424 13.9369Z" fill="#3C64B1"/>
<path d="M20.485 2.5708C20.4504 2.69782 20.4413 2.83043 20.4582 2.96099C20.4751 3.09154 20.5177 3.21746 20.5835 3.33146C20.6494 3.44547 20.7371 3.54532 20.8417 3.62525C20.9463 3.70517 21.0657 3.7636 21.193 3.79715C23.49 4.41415 25.4481 5.91766 26.6373 7.97742C27.8265 10.0372 28.1495 12.4847 27.5354 14.7825C27.5008 14.9095 27.4917 15.0421 27.5086 15.1727C27.5255 15.3032 27.5681 15.4291 27.634 15.5432C27.6998 15.6572 27.7875 15.757 27.8921 15.8369C27.9967 15.9169 28.1161 15.9753 28.2434 16.0088C28.3703 16.0423 28.5026 16.0504 28.6326 16.0326C28.7627 16.0148 28.8879 15.9716 29.0012 15.9053C29.1152 15.8403 29.2153 15.7535 29.2958 15.6497C29.3762 15.546 29.4353 15.4274 29.4698 15.3008C29.8431 13.909 29.9385 12.4573 29.7506 11.0287C29.5626 9.59999 29.0951 8.22234 28.3746 6.97442C27.6541 5.7265 26.6948 4.63276 25.5515 3.75569C24.4082 2.87861 23.1033 2.23539 21.7113 1.86276C21.5843 1.82817 21.4517 1.81907 21.3211 1.83599C21.1906 1.8529 21.0647 1.8955 20.9507 1.96132C20.8367 2.02715 20.7368 2.11489 20.6569 2.2195C20.577 2.3241 20.5185 2.4435 20.485 2.5708Z" fill="#3C64B1"/>
<path d="M21.5879 36C19.071 35.9738 16.5893 35.4051 14.3121 34.3327C8.45755 31.7537 3.83136 27.0047 1.40665 21.0846C0.382328 18.7218 -0.0934094 16.1576 0.0151582 13.5845C0.157642 10.653 1.152 8.20345 2.96792 6.29052C3.10554 6.15715 3.25813 6.04016 3.42266 5.94189L3.51967 5.87519L3.78341 5.6842H4.78687L4.95361 5.74787C6.4694 6.30871 7.5638 7.32429 8.62788 8.30349C9.47586 9.07404 10.2776 9.89399 11.0289 10.7591C11.8982 11.7603 12.3678 13.0469 12.3476 14.3727C12.3392 14.8401 12.2626 15.3038 12.1203 15.7491C11.9454 16.351 11.5998 16.8893 11.1252 17.2988C10.6506 17.7083 10.0675 17.9713 9.44641 18.0561C9.49188 20.0236 10.4802 22.1275 12.19 23.8313C13.8998 25.535 15.9825 26.5051 17.9318 26.5445C17.9318 26.5445 17.9318 26.5445 17.9318 26.5233C18.235 24.5649 20.2722 23.3401 21.9214 23.4493C22.6973 23.4994 23.448 23.7445 24.1041 24.1617C24.6927 24.5202 25.2477 24.9311 25.7624 25.3895C27.0116 26.5269 28.1486 27.7816 29.1578 29.1365C29.437 29.5369 29.6863 29.9575 29.9035 30.3946C29.9914 30.5614 30.0794 30.7311 30.1733 30.8948L30.3098 31.1222V32.1469L30.1794 32.3621C29.815 32.9446 29.3263 33.4394 28.7485 33.8112L28.6636 33.8719C27.1964 34.9414 25.4814 35.6205 23.6797 35.8454C22.9867 35.9443 22.2879 35.996 21.5879 36ZM4.41701 7.68202C2.93154 9.23722 2.14636 11.2017 2.0251 13.6724C1.93086 15.9453 2.3527 18.2099 3.25895 20.2964C5.48584 25.7518 9.74134 30.1312 15.1306 32.5137C17.9652 33.8052 20.6724 34.2508 23.4099 33.8779C24.8796 33.6974 26.2795 33.1466 27.4783 32.2772L27.5631 32.2136C27.8255 32.0378 28.0684 31.8345 28.2877 31.6073L28.1391 31.3284C27.9615 30.9768 27.7588 30.6384 27.5328 30.3158C26.6022 29.0632 25.5535 27.9029 24.4012 26.8507C23.9766 26.4757 23.519 26.1398 23.034 25.8473C22.6581 25.61 22.2286 25.4713 21.7849 25.4441C21.121 25.3986 20.0478 25.923 19.9145 26.8204C19.8955 26.9713 19.8854 27.1231 19.8841 27.2751C19.8841 27.3691 19.8841 27.4631 19.8841 27.5571L19.8356 28.3908L19.008 28.4908C16.2372 28.8273 13.1692 27.6147 10.7955 25.25C8.42173 22.8854 7.18182 19.7932 7.51529 16.9829L7.6214 16.1007H8.90072C9.19847 16.1164 9.49265 16.03 9.73464 15.8558C9.97663 15.6816 10.1519 15.4301 10.2316 15.1427C10.3137 14.8858 10.3576 14.6182 10.3619 14.3485C10.3766 13.5027 10.0725 12.6824 9.51007 12.0505C8.80871 11.2482 8.06063 10.488 7.26973 9.77381C6.36026 8.92496 5.48413 8.10947 4.41701 7.68202Z" fill="#3C64B1"/>
</svg>
