<svg width="50" height="38" viewBox="0 0 50 38" fill="none" xmlns="http://www.w3.org/2000/svg">
<path d="M48.4281 6.47047C48.1953 6.30392 47.895 6.26185 47.6259 6.35463L36.9974 10.024V4.83092C36.9974 4.34194 36.6009 3.94574 36.1122 3.94574H13.0975C12.8299 3.94574 12.5928 4.06709 12.4304 4.25489L9.88754 1.71435C8.93378 0.760876 7.38183 0.762605 6.42807 1.71521L3.08444 5.05913C1.73996 6.39641 1 8.18291 1 10.089C1 11.241 1.28411 12.3881 1.82237 13.4058C3.72297 17.0039 6.03216 20.3908 8.68367 23.4702C9.56367 24.4977 10.5082 25.5171 11.4919 26.5006C11.6844 26.6933 11.8775 26.8861 12.0757 27.0743C12.0942 27.0956 12.1132 27.1163 12.1333 27.1359C12.3028 27.2996 12.4722 27.4624 12.6434 27.622C16.2365 31.0098 20.255 33.8857 24.587 36.1699C25.6439 36.7283 26.7849 37 27.915 37C29.7511 37 31.5589 36.2828 32.9316 34.9098L36.2776 31.5639C36.7415 31.0999 36.9974 30.4856 36.9974 29.8344C36.9974 29.1832 36.7415 28.5689 36.2776 28.105L35.7237 27.5506H36.1122C36.6009 27.5506 36.9974 27.1544 36.9974 26.6654V21.4723L47.6259 25.1417C47.7198 25.1742 47.8172 25.1901 47.9146 25.1901C48.0961 25.1901 48.2765 25.1342 48.4281 25.0259C48.6615 24.8596 48.7998 24.591 48.7998 24.3049V7.19141C48.7998 6.90528 48.6615 6.63673 48.4281 6.47047ZM35.0259 30.3122L31.6799 33.6581C30.0145 35.3244 27.4978 35.7045 25.4128 34.6044C21.2226 32.3943 17.3349 29.6117 13.8541 26.3303C13.7003 26.1871 13.5516 26.0444 13.4035 25.9012C13.3816 25.8747 13.3574 25.8497 13.3326 25.826C13.1321 25.6373 12.9378 25.4431 12.7436 25.2489C11.7922 24.2974 10.8788 23.3117 10.027 22.3167C7.46021 19.3361 5.22651 16.0599 3.38757 12.5789C2.98359 11.8147 2.77036 10.9537 2.77036 10.089C2.77036 8.6572 3.32533 7.31675 4.33211 6.31487L7.68035 2.96663C7.94775 2.69865 8.36844 2.69894 8.63584 2.96634L12.4544 6.78134C12.4608 6.78818 12.4656 6.79632 12.4722 6.80299L14.4984 8.82346C14.7647 9.09259 14.7664 9.51069 14.5025 9.77491L12.6606 11.611C12.5477 11.7236 12.4411 11.8565 12.3598 11.9838C11.8129 12.8091 11.8135 13.8709 12.3385 14.6512C12.4365 14.8151 12.5494 14.9445 12.6606 15.0638L22.9313 25.3353C23.8822 26.277 25.4284 26.2767 26.3815 25.3321L28.2228 23.4909C28.4383 23.2762 28.7789 23.2368 29.074 23.4209C29.1005 23.4359 29.1391 23.4667 29.1656 23.4906L29.6369 23.9624L32.9599 27.2907C32.9633 27.2942 32.9677 27.2965 32.9713 27.3L35.0259 29.3567C35.1555 29.4863 35.227 29.6561 35.227 29.8344C35.227 30.0128 35.1555 30.1825 35.0259 30.3122ZM35.227 11.2661V20.2303V25.7802H33.955L30.3954 22.2173C30.2363 22.0692 30.0888 21.9594 29.9747 21.8977C29.029 21.3019 27.7652 21.4442 26.9711 22.2392L25.1327 24.0773C24.8694 24.338 24.44 24.3383 24.1801 24.0804L13.9366 13.8369C13.8945 13.7917 13.8674 13.7594 13.8328 13.7032C13.6836 13.4807 13.6841 13.1897 13.8426 12.9508C13.8634 12.9183 13.8887 12.8863 13.9112 12.8635L15.753 11.0278C16.701 10.0803 16.7022 8.53272 15.7524 7.57378L13.9827 5.80565V5.7161H35.227V11.2661ZM47.0294 23.0627L36.9974 19.5995V11.8968L47.0294 8.4336V23.0627Z" fill="#3C64B1" stroke="#3C64B1" stroke-width="0.5"/>
<path d="M24.6049 20.7642C27.3705 20.7642 29.6209 18.5141 29.6209 15.7482C29.6209 12.9823 27.3705 10.7322 24.6049 10.7322C21.8393 10.7322 19.5889 12.9823 19.5889 15.7482C19.5889 18.5141 21.8393 20.7642 24.6049 20.7642ZM24.6049 12.5025C26.3943 12.5025 27.8506 13.9585 27.8506 15.7482C27.8506 17.5379 26.3943 18.9939 24.6049 18.9939C22.8155 18.9939 21.3592 17.5379 21.3592 15.7482C21.3592 13.9585 22.8155 12.5025 24.6049 12.5025Z" fill="#3C64B1" stroke="#3C64B1" stroke-width="0.5"/>
<path d="M29.0297 8.6666H31.9803C32.469 8.6666 32.8655 8.2704 32.8655 7.78142C32.8655 7.29244 32.469 6.89624 31.9803 6.89624H29.0297C28.541 6.89624 28.1445 7.29244 28.1445 7.78142C28.1445 8.2704 28.541 8.6666 29.0297 8.6666Z" fill="#3C64B1" stroke="#3C64B1" stroke-width="0.5"/>
</svg>
