<svg width="34" height="38" viewBox="0 0 34 38" fill="none" xmlns="http://www.w3.org/2000/svg">
<path d="M33.1024 15.5402C33.1003 15.502 33.097 15.4642 33.0903 15.4261C33.0853 15.3974 33.0781 15.3698 33.0705 15.3418C33.0612 15.3071 33.0505 15.2731 33.0372 15.2392C33.0255 15.2096 33.012 15.1813 32.9975 15.1529C32.9888 15.1359 32.9835 15.1179 32.9736 15.1012C32.9655 15.0874 32.9546 15.0765 32.9459 15.0633C32.9286 15.0369 32.9099 15.0119 32.8901 14.9872C32.867 14.9585 32.843 14.9315 32.8173 14.9061C32.8065 14.8954 32.7984 14.8827 32.7871 14.8725L17.706 1.25084C17.336 0.916385 16.772 0.916385 16.4019 1.25084L1.32084 14.8725C1.3095 14.8827 1.30138 14.8955 1.29058 14.9062C1.26499 14.9315 1.2411 14.9584 1.21814 14.9869C1.19815 15.0117 1.17947 15.0369 1.1621 15.0634C1.15344 15.0766 1.14249 15.0874 1.13437 15.1012C1.12454 15.1179 1.11929 15.1359 1.11053 15.1529C1.09603 15.1813 1.08251 15.2096 1.07083 15.2392C1.05745 15.2731 1.04685 15.3071 1.03751 15.3418C1.02992 15.3698 1.02277 15.3974 1.01766 15.4261C1.01099 15.4642 1.00773 15.502 1.00564 15.5402C1.00467 15.5585 1 15.5762 1 15.5946V36.027C1 36.5644 1.43565 37 1.97297 37H32.1351C32.6725 37 33.1081 36.5644 33.1081 36.027V15.5946C33.1081 15.5762 33.1034 15.5585 33.1024 15.5402ZM2.94595 35.0541V17.2957L9.74985 21.298C9.90499 21.3892 10.0746 21.4324 10.2423 21.4324C10.5758 21.4324 10.9005 21.261 11.0817 20.9526C11.3542 20.4894 11.1998 19.8932 10.7366 19.621L3.60883 15.4282L17.0541 3.28397L30.4992 15.4281L23.3715 19.6209C22.9083 19.8931 22.7539 20.4894 23.0263 20.9526C23.2076 21.261 23.5323 21.4324 23.8658 21.4324C24.0333 21.4324 24.2034 21.3892 24.3583 21.298L31.1622 17.2957V35.0541H2.94595Z" fill="#3C64B1" stroke="#3C64B1" stroke-width="0.5"/>
<path d="M17.054 28.7298C19.1999 28.7298 20.9459 26.9838 20.9459 24.8379V19.973C20.9459 17.8271 19.1999 16.0811 17.054 16.0811C14.9081 16.0811 13.1621 17.8271 13.1621 19.973V24.8379C13.1621 26.9838 14.9081 28.7298 17.054 28.7298ZM15.1081 19.973C15.1081 18.9 15.981 18.0271 17.054 18.0271C18.127 18.0271 18.9999 18.9 18.9999 19.973V24.8379C18.9999 25.9111 18.127 26.7838 17.054 26.7838C15.981 26.7838 15.1081 25.9111 15.1081 24.8379V19.973Z" fill="#3C64B1" stroke="#3C64B1" stroke-width="0.5"/>
<path d="M23.4772 27.4651C23.0477 27.1435 22.4375 27.2295 22.1149 27.6589C20.907 29.2671 19.0627 30.1892 17.0546 30.1892C15.0464 30.1892 13.2021 29.2671 11.9942 27.6589C11.6716 27.2295 11.0618 27.1435 10.6319 27.4651C10.2022 27.7882 10.1155 28.3982 10.4383 28.8277C11.82 30.6668 13.8392 31.8199 16.0816 32.0793V33.5947C16.0816 34.132 16.5173 34.5676 17.0546 34.5676C17.5919 34.5676 18.0276 34.132 18.0276 33.5947V32.0793C20.27 31.8199 22.2892 30.6668 23.6708 28.8276C23.9937 28.3982 23.9069 27.7882 23.4772 27.4651Z" fill="#3C64B1" stroke="#3C64B1" stroke-width="0.5"/>
</svg>
