<svg width="44" height="40" viewBox="0 0 44 40" fill="none" xmlns="http://www.w3.org/2000/svg">
<path d="M11.9947 16.1208H10.6107C8.72203 16.0526 6.83948 16.3732 5.07987 17.0628C3.32027 17.7524 1.72117 18.7963 0.381809 20.1297L1.52588e-05 20.5751V33.747H6.49051V26.2702L7.36546 25.2839L7.76316 24.8225C9.83427 22.6948 12.4127 21.1291 15.2559 20.2728C13.8324 19.1897 12.7098 17.7604 11.9947 16.1208Z" fill="white"/>
<path d="M42.7607 20.0833C41.4214 18.7499 39.8223 17.706 38.0627 17.0164C36.3031 16.3268 34.4205 16.0062 32.5318 16.0744C31.9526 16.0761 31.3738 16.1079 30.7978 16.1699C30.0694 17.708 28.9774 19.0457 27.6162 20.0674C30.6515 20.9071 33.401 22.5568 35.5703 24.8398L35.968 25.2852L36.827 26.2715V33.7642H43.0948V20.5287L42.7607 20.0833Z" fill="white"/>
<path d="M10.5628 13.0195H11.056C10.8269 11.052 11.1721 9.06034 12.05 7.28477C12.9279 5.50921 14.3009 4.0257 16.0034 3.01331C15.3863 2.07051 14.5349 1.30415 13.5326 0.789273C12.5303 0.274391 11.4114 0.02864 10.2856 0.076083C9.15981 0.123526 8.06561 0.462537 7.11018 1.05992C6.15475 1.6573 5.37085 2.49258 4.83522 3.48395C4.2996 4.47532 4.03062 5.5888 4.05464 6.71536C4.07865 7.84192 4.39482 8.94293 4.9722 9.91058C5.54957 10.8782 6.36835 11.6793 7.34837 12.2355C8.32838 12.7916 9.43603 13.0837 10.5628 13.0831V13.0195Z" fill="white"/>
<path d="M31.7681 11.8264C31.7874 12.192 31.7874 12.5584 31.7681 12.924C32.0734 12.9724 32.3817 12.999 32.6907 13.0036H32.993C34.1149 12.9438 35.2021 12.5945 36.1489 11.9897C37.0957 11.385 37.8698 10.5454 38.3958 9.55267C38.9218 8.55996 39.1818 7.44796 39.1504 6.32494C39.1191 5.20193 38.7975 4.10616 38.217 3.14432C37.6365 2.18248 36.8168 1.38734 35.8377 0.836329C34.8587 0.285314 33.7536 -0.00280558 32.6302 2.05927e-05C31.5067 0.00284676 30.4032 0.296523 29.4269 0.852457C28.4506 1.40839 27.635 2.20764 27.0593 3.17239C28.4991 4.11245 29.683 5.39523 30.5049 6.90565C31.3267 8.41606 31.7608 10.1069 31.7681 11.8264Z" fill="white"/>
<path d="M21.3327 18.9533C25.2599 18.9533 28.4436 15.7696 28.4436 11.8424C28.4436 7.91511 25.2599 4.73145 21.3327 4.73145C17.4054 4.73145 14.2218 7.91511 14.2218 11.8424C14.2218 15.7696 17.4054 18.9533 21.3327 18.9533Z" fill="white"/>
<path d="M21.7146 22.7394C19.6371 22.6555 17.5641 22.9928 15.6203 23.7309C13.6765 24.469 11.9021 25.5928 10.404 27.0345L10.0063 27.48V37.5498C10.0125 37.8778 10.0832 38.2014 10.2145 38.502C10.3458 38.8027 10.535 39.0745 10.7714 39.302C11.0078 39.5295 11.2866 39.7082 11.5921 39.8279C11.8975 39.9476 12.2236 40.006 12.5516 39.9996H30.8299C31.1579 40.006 31.484 39.9476 31.7894 39.8279C32.0949 39.7082 32.3737 39.5295 32.6101 39.302C32.8465 39.0745 33.0357 38.8027 33.167 38.502C33.2983 38.2014 33.369 37.8778 33.3752 37.5498V27.5118L32.9934 27.0345C31.505 25.5884 29.7368 24.4614 27.7973 23.7229C25.8579 22.9843 23.788 22.6496 21.7146 22.7394Z" fill="white"/>
</svg>
