<svg width="43" height="40" viewBox="0 0 43 40" fill="none" xmlns="http://www.w3.org/2000/svg">
<path d="M41.6471 22L39.2942 24.3529L34.4706 19.5294L36.8236 17.1765C37.0655 16.9394 37.3907 16.8065 37.7294 16.8065C38.0682 16.8065 38.3934 16.9394 38.6353 17.1765L41.6471 20.1882C42.1412 20.6824 42.1412 21.5059 41.6471 22ZM18.8236 35.1529L33.0824 20.8941L37.9059 25.7176L23.6706 40H18.8236V35.1529ZM18.8236 23.5294C8.42356 23.5294 3.05176e-05 27.7412 3.05176e-05 32.9412V37.6471H14.1177V33.2L23.5294 23.7882C21.9765 23.6 20.4 23.5294 18.8236 23.5294ZM18.8236 0C16.3274 0 13.9335 0.991593 12.1684 2.75664C10.4034 4.52169 9.4118 6.91561 9.4118 9.41177C9.4118 11.9079 10.4034 14.3018 12.1684 16.0669C13.9335 17.8319 16.3274 18.8235 18.8236 18.8235C21.3197 18.8235 23.7136 17.8319 25.4787 16.0669C27.2437 14.3018 28.2353 11.9079 28.2353 9.41177C28.2353 6.91561 27.2437 4.52169 25.4787 2.75664C23.7136 0.991593 21.3197 0 18.8236 0Z" fill="white"/>
</svg>
