<svg width="40" height="40" viewBox="0 0 40 40" fill="none" xmlns="http://www.w3.org/2000/svg">
<path fill-rule="evenodd" clip-rule="evenodd" d="M39.9482 9.27788C39.9482 -0.31812 24.5156 0.00124384 19.109 0.00124384C13.6974 0.00124384 0 0.116919 0 9.71544H9.82987L9.83993 7.30889C9.83993 6.20747 11.0445 4.72632 13.7452 4.72632H26.3513C28.9816 4.72632 30.2164 6.20747 30.2164 7.30889C30.2164 7.69615 30.2365 9.64 30.2365 9.71544H39.9431L39.9482 9.27788Z" fill="white"/>
<path fill-rule="evenodd" clip-rule="evenodd" d="M12.4453 23.2568C12.438 23.6753 12.265 24.0737 11.9642 24.3646C11.6634 24.6555 11.2594 24.8151 10.841 24.8084H9.08823C8.88084 24.8121 8.67475 24.7748 8.48175 24.6988C8.28875 24.6228 8.1126 24.5096 7.96339 24.3655C7.81417 24.2214 7.69479 24.0493 7.61209 23.8591C7.52938 23.6689 7.48495 23.4642 7.48135 23.2568V21.5569C7.48135 20.6994 8.20055 20.0054 9.08823 20.0054H10.841C11.7261 20.0054 12.4453 20.6994 12.4453 21.5569V23.2568Z" fill="white"/>
<path fill-rule="evenodd" clip-rule="evenodd" d="M32.532 23.2741C32.5323 23.4851 32.4909 23.6941 32.4103 23.889C32.3296 24.084 32.2112 24.2611 32.0619 24.4102C31.9126 24.5592 31.7353 24.6774 31.5402 24.7577C31.3451 24.8381 31.1361 24.8791 30.9251 24.8784H29.1749C28.9641 24.8788 28.7553 24.8375 28.5605 24.757C28.3657 24.6765 28.1887 24.5583 28.0397 24.4093C27.8906 24.2602 27.7725 24.0832 27.6919 23.8884C27.6114 23.6936 27.5702 23.4849 27.5705 23.2741V21.5214C27.5705 20.6337 28.2872 19.917 29.1749 19.917H30.9251C31.8153 19.917 32.532 20.6337 32.532 21.5214V23.2741Z" fill="white"/>
<path fill-rule="evenodd" clip-rule="evenodd" d="M22.5015 23.2848C22.5019 23.4956 22.4606 23.7044 22.3801 23.8992C22.2996 24.094 22.1814 24.271 22.0324 24.42C21.8833 24.5691 21.7063 24.6872 21.5115 24.7677C21.3167 24.8483 21.1079 24.8895 20.8972 24.8892H19.1419C18.9314 24.8892 18.7228 24.8477 18.5283 24.767C18.3338 24.6864 18.1571 24.5681 18.0084 24.4191C17.8596 24.2701 17.7416 24.0932 17.6613 23.8986C17.5809 23.704 17.5397 23.4954 17.5401 23.2848V21.5321C17.5401 20.6444 18.2568 19.9277 19.1419 19.9277H20.8972C21.7848 19.9277 22.5015 20.6444 22.5015 21.5321V23.2848Z" fill="white"/>
<path fill-rule="evenodd" clip-rule="evenodd" d="M12.3821 30.7956C12.3837 31.0047 12.3442 31.212 12.2657 31.4058C12.1873 31.5995 12.0714 31.7759 11.9247 31.9249C11.7781 32.0739 11.6035 32.1925 11.4111 32.274C11.2186 32.3556 11.0119 32.3984 10.8029 32.4H9.07778C8.86853 32.3987 8.66159 32.3561 8.46881 32.2748C8.27602 32.1934 8.10117 32.0748 7.95426 31.9258C7.80735 31.7768 7.69126 31.6003 7.61264 31.4063C7.53401 31.2124 7.4944 31.0049 7.49605 30.7956V29.0429C7.49605 28.1527 8.20268 27.436 9.07778 27.436H10.8029C11.6754 27.436 12.3821 28.1527 12.3821 29.0429V30.7956Z" fill="white"/>
<path fill-rule="evenodd" clip-rule="evenodd" d="M32.4522 30.821C32.4546 31.0267 32.4162 31.2308 32.3394 31.4216C32.2626 31.6125 32.1488 31.7863 32.0047 31.933C31.8605 32.0798 31.6887 32.1966 31.4993 32.2767C31.3098 32.3569 31.1064 32.3989 30.9007 32.4002H29.2008C28.995 32.3989 28.7916 32.3569 28.6022 32.2767C28.4127 32.1966 28.241 32.0798 28.0968 31.933C27.9526 31.7863 27.8388 31.6125 27.762 31.4216C27.6852 31.2308 27.6469 31.0267 27.6492 30.821V29.0959C27.6492 28.2183 28.3407 27.5142 29.2008 27.5142H30.9007C31.7607 27.5142 32.4522 28.2183 32.4522 29.0959V30.821Z" fill="white"/>
<path fill-rule="evenodd" clip-rule="evenodd" d="M22.4916 30.821C22.4906 31.03 22.4483 31.2367 22.3672 31.4294C22.2861 31.622 22.1677 31.7967 22.0188 31.9434C21.87 32.0902 21.6936 32.2061 21.4999 32.2845C21.3061 32.3628 21.0988 32.4022 20.8897 32.4002H19.137C18.9279 32.4022 18.7204 32.3629 18.5265 32.2845C18.3326 32.2062 18.1561 32.0903 18.007 31.9436C17.858 31.7969 17.7394 31.6222 17.6579 31.4296C17.5765 31.2369 17.534 31.0301 17.5327 30.821V29.0959C17.5327 28.2183 18.2493 27.5142 19.137 27.5142H20.8897C21.7774 27.5142 22.4916 28.2183 22.4916 29.0959V30.821Z" fill="white"/>
<path fill-rule="evenodd" clip-rule="evenodd" d="M12.46 38.3682C12.4567 38.5756 12.4126 38.7803 12.3302 38.9706C12.2478 39.161 12.1287 39.3332 11.9797 39.4775C11.8307 39.6219 11.6548 39.7354 11.4619 39.8117C11.269 39.888 11.063 39.9256 10.8556 39.9222H9.10288C8.89528 39.9259 8.68899 39.8886 8.49583 39.8124C8.30266 39.7363 8.12641 39.6228 7.97716 39.4784C7.8279 39.3341 7.70858 39.1617 7.62602 38.9712C7.54346 38.7807 7.49928 38.5758 7.496 38.3682V36.6683C7.496 35.8107 8.2152 35.1167 9.10288 35.1167H10.8556C11.7408 35.1167 12.46 35.8107 12.46 36.6683V38.3682Z" fill="white"/>
<path fill-rule="evenodd" clip-rule="evenodd" d="M32.532 38.3932C32.5323 38.6043 32.491 38.8134 32.4103 39.0085C32.3297 39.2036 32.2113 39.3809 32.0621 39.5302C31.9128 39.6795 31.7355 39.7978 31.5404 39.8785C31.3453 39.9591 31.1362 40.0004 30.9251 40.0001H29.1749C28.9639 40.0004 28.7549 39.9591 28.5599 39.8784C28.365 39.7977 28.1879 39.6794 28.0388 39.53C27.8897 39.3807 27.7716 39.2034 27.6912 39.0084C27.6109 38.8133 27.5698 38.6042 27.5705 38.3932V36.6405C27.5705 35.7528 28.2872 35.0361 29.1749 35.0361H30.9251C31.8153 35.0361 32.532 35.7528 32.532 36.6405V38.3932Z" fill="white"/>
<path fill-rule="evenodd" clip-rule="evenodd" d="M22.4911 38.3932C22.4937 38.6024 22.455 38.8101 22.377 39.0043C22.2991 39.1985 22.1836 39.3753 22.037 39.5247C21.8905 39.674 21.7158 39.7929 21.5232 39.8745C21.3305 39.9561 21.1236 39.9988 20.9144 40.0001H19.1893C18.9801 39.9988 18.7731 39.9561 18.5805 39.8745C18.3878 39.7929 18.2132 39.674 18.0666 39.5247C17.9201 39.3753 17.8045 39.1985 17.7266 39.0043C17.6487 38.8101 17.6099 38.6024 17.6126 38.3932V36.6405C17.6126 35.7528 18.3142 35.0361 19.1893 35.0361H20.9144C21.7895 35.0361 22.4911 35.7528 22.4911 36.6405V38.3932Z" fill="white"/>
<path fill-rule="evenodd" clip-rule="evenodd" d="M2.39846 14.7944H7.54601C7.54601 14.7944 9.32388 15.3678 9.77653 12.3477H0.0723877C0.492339 15.1465 2.39846 14.7944 2.39846 14.7944Z" fill="white"/>
<path fill-rule="evenodd" clip-rule="evenodd" d="M30.3701 12.3477C30.8957 14.9956 32.7917 14.7944 32.7917 14.7944H37.547C37.547 14.7944 39.4531 14.8221 39.9183 12.3477H30.3701Z" fill="white"/>
</svg>
