<svg width="46" height="40" viewBox="0 0 46 40" fill="none" xmlns="http://www.w3.org/2000/svg">
<path d="M35.3212 0H21.5768C20.7069 0 19.8715 0.346317 19.256 0.961809L1.3657 18.8488C0.0838307 20.1307 0.0838307 22.2086 1.3657 23.4921L15.11 37.2364C16.3919 38.5183 18.4698 38.5183 19.7517 37.2364L37.642 19.3494C38.2575 18.7323 38.6038 17.8969 38.6038 17.0253V3.28262C38.6038 1.46897 37.1348 0 35.3212 0ZM29.5766 11.4892C28.2176 11.4892 27.1146 10.3862 27.1146 9.02722C27.1146 7.66821 28.2176 6.56525 29.5766 6.56525C30.9356 6.56525 32.0385 7.66821 32.0385 9.02722C32.0385 10.3862 30.9356 11.4892 29.5766 11.4892Z" fill="white"/>
<path d="M41.8863 3.28271L41.8846 18.5617C41.8846 19.3183 41.5843 20.0454 41.0476 20.5805L22.8684 38.7597L23.1474 39.0387C24.4293 40.3206 26.5072 40.3206 27.7891 39.0387L44.2055 22.6256C44.8226 22.0101 45.1689 21.1747 45.1689 20.3048V6.56534C45.1689 4.75169 43.6999 3.28271 41.8863 3.28271Z" fill="white"/>
</svg>
