<svg xmlns="http://www.w3.org/2000/svg" width="241" height="202" viewBox="0 0 241 202" fill="none">
<g filter="url(#filter0_d)">
<path d="M124.92 77.0685L119.564 79.6302L122.242 85.2192L127.598 82.6576C129.17 81.9007 129.811 80.0377 129.054 78.524C128.297 77.0103 126.434 76.3117 124.92 77.0685Z" fill="#008C37"/>
<path d="M128.588 93.0207L123.232 95.5823L125.91 101.171L131.266 98.6097C132.838 97.8528 133.478 95.9898 132.721 94.4761C132.023 92.9042 130.16 92.2638 128.588 93.0207Z" fill="#008C37"/>
<path d="M136.739 89.0616L131.383 91.6233L134.061 97.2123L136.681 95.9315C138.253 95.1746 140.29 93.8938 140.873 90.4589C141.513 86.7911 138.311 88.363 136.739 89.0616Z" fill="#008C37"/>
<path d="M140.931 69.3836L135.574 71.9452L138.253 77.5343L140.872 76.3117C142.386 75.5548 144.482 74.274 145.064 70.8391C145.705 67.113 142.444 68.6267 140.931 69.3836Z" fill="#008C37"/>
<path d="M65.2458 75.7877L52.6704 82.7158L40.9102 68.2193L45.917 65.774L65.2458 75.7877Z" fill="url(#paint0_linear)"/>
<path d="M43.7047 66.8801L40.9102 68.2192L52.6704 82.7158L55.3485 81.2603L43.7047 66.8801Z" fill="url(#paint1_linear)"/>
<path d="M67.8657 81.3767L54.6499 86.8493L58.6088 105.072L63.6739 102.685L67.8657 81.3767Z" fill="url(#paint2_linear)"/>
<path d="M147.859 48.25L118.283 62.7466L122.301 71.887L129.17 112L134.352 106.411L147.859 48.25Z" fill="url(#paint3_linear)"/>
<path d="M147.859 48.25L123.116 60.1267L127.831 69.9658L130.451 110.603L134.352 106.411L147.859 48.25Z" fill="url(#paint4_linear)"/>
<path d="M104.136 35.6747L98.7796 38.2363L96.1016 32.7055L101.458 30.1438C103.03 29.387 104.834 30.0274 105.591 31.5993C106.348 33.113 105.708 34.976 104.136 35.6747Z" fill="#008C37"/>
<path d="M94.064 22.8664L88.7079 25.4281L86.0298 19.839L91.3859 17.2774C92.9579 16.5205 94.7627 17.1609 95.5195 18.7329C96.2181 20.3048 95.5777 22.1678 94.064 22.8664Z" fill="#008C37"/>
<path d="M102.157 18.9658L96.8006 21.5275L94.1226 15.9384L96.7424 14.7158C98.2561 13.959 100.585 13.1439 103.612 14.8323C106.931 16.6953 103.729 18.209 102.157 18.9658Z" fill="#008C37"/>
<path d="M120.147 27.9898L114.79 30.5514L112.112 24.9624L114.732 23.7398C116.246 22.9829 118.575 22.1678 121.602 23.8562C124.921 25.7192 121.718 27.2911 120.147 27.9898Z" fill="#008C37"/>
<path d="M140.989 35.7911L111.18 49.8219L106.581 41.0308L79.5674 10.5822L87.1359 10L140.989 35.7911Z" fill="url(#paint5_linear)"/>
<path d="M140.989 35.7911L116.246 47.6678L111.53 37.8288L81.489 10.4075L87.1363 10L140.989 35.7911Z" fill="url(#paint6_linear)"/>
<path d="M61.4033 103.791L58.6088 105.072L54.6499 86.8493L57.4444 85.6849L61.4033 103.791Z" fill="url(#paint7_linear)"/>
<path d="M156.883 45.6301C117.759 64.3767 58.8997 85.9178 55.4648 87.1404C52.0881 88.363 49.0025 89.3527 48.2456 87.7226C47.4305 86.0342 49.4682 83.8801 52.9614 81.9007C56.4545 79.9212 117.992 44.1746 149.023 29.2705C180.112 14.3082 196.006 26.8253 156.883 45.6301Z" fill="url(#paint8_linear)"/>
<path d="M171.729 35.8492L166.722 39.2259C166.722 39.2259 166.955 35.7328 164.917 31.541C162.879 27.291 160.143 25.5444 160.143 25.5444L165.965 23.7979C165.965 23.7979 168.76 25.6609 170.448 29.2122C172.136 32.7054 171.729 35.8492 171.729 35.8492Z" fill="#02C34D"/>
<path fill-rule="evenodd" clip-rule="evenodd" d="M167.303 37.8288L171.204 35.0925C171.204 35.0925 171.437 32.4726 169.923 29.4452C168.468 26.4179 166.197 24.7295 166.197 24.7295L165.581 24.9012C165.573 24.8828 165.565 24.8644 165.557 24.846L161.54 25.9521C161.54 25.9521 161.565 25.97 161.612 26.0063L161.598 26.0103C161.598 26.0103 161.743 26.1107 161.988 26.3198C162.726 26.9754 164.249 28.5329 165.557 31.1919C166.064 32.2374 166.433 33.214 166.692 34.0841C166.881 34.7382 167.011 35.3312 167.102 35.8426C167.111 35.9042 167.121 35.9647 167.129 36.0241C167.13 36.022 167.131 36.02 167.131 36.018C167.317 37.1431 167.303 37.8288 167.303 37.8288Z" fill="url(#paint9_linear)"/>
</g>
<defs>
<filter id="filter0_d" x="0.910156" y="0" width="239.103" height="202" filterUnits="userSpaceOnUse" color-interpolation-filters="sRGB">
<feFlood flood-opacity="0" result="BackgroundImageFix"/>
<feColorMatrix in="SourceAlpha" type="matrix" values="0 0 0 0 0 0 0 0 0 0 0 0 0 0 0 0 0 0 127 0" result="hardAlpha"/>
<feOffset dx="10" dy="40"/>
<feGaussianBlur stdDeviation="25"/>
<feColorMatrix type="matrix" values="0 0 0 0 0.422014 0 0 0 0 0.596542 0 0 0 0 0.858333 0 0 0 0.3 0"/>
<feBlend mode="multiply" in2="BackgroundImageFix" result="effect1_dropShadow"/>
<feBlend mode="normal" in="SourceGraphic" in2="effect1_dropShadow" result="shape"/>
</filter>
<linearGradient id="paint0_linear" x1="40.3249" y1="65.774" x2="62.3669" y2="83.9428" gradientUnits="userSpaceOnUse">
<stop stop-color="#02C34D"/>
<stop offset="1" stop-color="#91FF8C"/>
</linearGradient>
<linearGradient id="paint1_linear" x1="48.1293" y1="66.8801" x2="56.0479" y2="68.0703" gradientUnits="userSpaceOnUse">
<stop stop-color="#02C34D"/>
<stop offset="1" stop-color="#11B350"/>
</linearGradient>
<linearGradient id="paint2_linear" x1="54.3321" y1="81.3767" x2="72.5673" y2="87.213" gradientUnits="userSpaceOnUse">
<stop stop-color="#02C34D"/>
<stop offset="1" stop-color="#91FF8C"/>
</linearGradient>
<linearGradient id="paint3_linear" x1="133.071" y1="48.25" x2="149.561" y2="49.5111" gradientUnits="userSpaceOnUse">
<stop stop-color="#02C34D"/>
<stop offset="1" stop-color="#11B350"/>
</linearGradient>
<linearGradient id="paint4_linear" x1="122.521" y1="48.25" x2="158.303" y2="56.3982" gradientUnits="userSpaceOnUse">
<stop stop-color="#02C34D"/>
<stop offset="1" stop-color="#91FF8C"/>
</linearGradient>
<linearGradient id="paint5_linear" x1="110.278" y1="9.99999" x2="142.633" y2="18.2266" gradientUnits="userSpaceOnUse">
<stop stop-color="#02C34D"/>
<stop offset="1" stop-color="#11B350"/>
</linearGradient>
<linearGradient id="paint6_linear" x1="80.058" y1="10" x2="129.744" y2="55.0368" gradientUnits="userSpaceOnUse">
<stop stop-color="#02C34D"/>
<stop offset="1" stop-color="#91FF8C"/>
</linearGradient>
<linearGradient id="paint7_linear" x1="58.0266" y1="85.6849" x2="61.8017" y2="85.9017" gradientUnits="userSpaceOnUse">
<stop stop-color="#02C34D"/>
<stop offset="1" stop-color="#11B350"/>
</linearGradient>
<linearGradient id="paint8_linear" x1="44.8932" y1="22.6465" x2="131.449" y2="122.049" gradientUnits="userSpaceOnUse">
<stop stop-color="#02C34D"/>
<stop offset="1" stop-color="#91FF8C"/>
</linearGradient>
<linearGradient id="paint9_linear" x1="167.254" y1="88.2751" x2="138.491" y2="29.9571" gradientUnits="userSpaceOnUse">
<stop stop-color="#ABC4FF"/>
<stop offset="1" stop-color="white"/>
</linearGradient>
</defs>
</svg>