<svg width="194" height="208" viewBox="0 0 194 208" fill="none" xmlns="http://www.w3.org/2000/svg">
<g filter="url(#filter0_d)">
<path d="M91.3172 15.4102H80.897V24.4911H91.3172V15.4102Z" fill="#94C8E3"/>
<path d="M93.0483 20.5713H79.1328V11.1963C83.5753 9.92236 88.6058 9.92236 93.0483 11.1963V20.5713Z" fill="url(#paint0_linear)"/>
<path d="M80.0479 11.7842C80.5378 11.9149 81.0278 12.0129 81.5505 12.1109C82.0404 12.2089 82.5631 12.2742 83.0531 12.3069C84.0657 12.4049 85.0783 12.4375 86.091 12.4375C86.5809 12.4049 87.1036 12.4049 87.5936 12.3722L88.3449 12.3069C88.6062 12.2742 88.8348 12.2416 89.0962 12.2416C90.1088 12.1436 91.0888 11.9476 92.1014 11.7842C91.6114 11.9149 91.1214 12.0782 90.6314 12.1762C90.1415 12.2742 89.6188 12.4049 89.1288 12.4702C88.1162 12.6335 87.1036 12.6989 86.0583 12.7315C85.0457 12.7315 84.0004 12.6989 82.9877 12.5355C81.9751 12.4049 80.9625 12.1762 80.0479 11.7842Z" fill="#94C8E3"/>
<path d="M80.0479 13.4502C80.1132 14.4955 80.1459 15.5408 80.1786 16.5861C80.1786 17.1087 80.2112 17.6314 80.2439 18.154C80.2766 18.6767 80.3092 19.1993 80.4072 19.6893C80.1786 19.1993 80.0806 18.6767 80.0152 18.154C79.9499 17.6314 79.8846 17.1087 79.8846 16.5861C79.8193 15.5408 79.8519 14.4955 80.0479 13.4502Z" fill="#94C8E3"/>
<path d="M81.9099 13.8095C82.0405 14.7895 82.0732 15.7694 82.0732 16.7494L82.1059 18.2193V18.938C82.1059 19.1666 82.1059 19.428 82.1712 19.6566C81.9425 19.1993 81.8772 18.7093 81.8119 18.2193C81.7465 17.7294 81.7465 17.2394 81.7139 16.7494C81.7465 15.7694 81.7792 14.7895 81.9099 13.8095Z" fill="#94C8E3"/>
<path d="M84.0333 14.1362C84.1313 15.0181 84.1313 15.9001 84.1639 16.7494C84.1639 17.1741 84.1966 17.6314 84.2293 18.056C84.2619 18.4807 84.2946 18.9053 84.3599 19.3626C84.1639 18.9706 84.0659 18.5133 83.9679 18.0887C83.9026 17.664 83.8699 17.2067 83.8373 16.7821C83.8046 15.9001 83.8699 15.0181 84.0333 14.1362Z" fill="#94C8E3"/>
<path d="M91.938 13.4502C92.1013 14.4955 92.1666 15.5408 92.134 16.5861C92.1013 17.1087 92.0686 17.6314 92.0033 18.154C91.938 18.6767 91.8073 19.1993 91.6113 19.6893C91.7093 19.1666 91.742 18.644 91.7747 18.154C91.8073 17.6314 91.84 17.1087 91.84 16.5861C91.84 15.5408 91.84 14.4955 91.938 13.4502Z" fill="#94C8E3"/>
<path d="M90.0435 13.8095C90.1742 14.7895 90.2068 15.7694 90.2068 16.7494C90.2068 17.2394 90.1742 17.7294 90.1088 18.2193C90.0435 18.7093 90.0108 19.232 89.7495 19.6566C89.8148 19.428 89.8148 19.1666 89.8148 18.938V18.2193L89.8475 16.7494C89.9128 15.7694 89.9455 14.7895 90.0435 13.8095Z" fill="#94C8E3"/>
<path d="M87.9204 14.1362C88.0837 15.0181 88.1164 15.9001 88.1164 16.7494C88.0837 17.1741 88.0511 17.6314 87.9857 18.056C87.9204 18.4807 87.7897 18.938 87.5938 19.33C87.6591 18.9053 87.6917 18.448 87.7244 18.0234C87.7571 17.5987 87.7571 17.1741 87.7897 16.7167C87.8224 15.9001 87.8551 15.0181 87.9204 14.1362Z" fill="#94C8E3"/>
<path d="M86.0256 14.1362C86.1563 15.0181 86.189 15.8674 86.189 16.7494C86.189 17.1741 86.1563 17.6314 86.1236 18.056C86.091 18.4807 86.0583 18.938 85.9276 19.3626C85.9276 18.938 85.895 18.4807 85.895 18.056C85.895 17.6314 85.8623 17.1741 85.8623 16.7494C85.8623 15.9001 85.895 15.0181 86.0256 14.1362Z" fill="#94C8E3"/>
<path d="M86.9078 111.969C110.036 111.969 128.785 93.22 128.785 70.0919C128.785 46.9639 110.036 28.2149 86.9078 28.2149C63.7798 28.2149 45.0308 46.9639 45.0308 70.0919C45.0308 93.22 63.7798 111.969 86.9078 111.969Z" fill="url(#paint1_linear)"/>
<path d="M96.1518 68.132C104.883 68.132 111.962 61.0536 111.962 52.322C111.962 43.5903 104.883 36.5119 96.1518 36.5119C87.4202 36.5119 80.3418 43.5903 80.3418 52.322C80.3418 61.0536 87.4202 68.132 96.1518 68.132Z" fill="url(#paint2_linear)"/>
<path d="M49.7995 95.473C49.7995 95.473 42.3844 116.803 44.6383 117.424C46.8923 118.045 62.9636 104.521 62.9636 104.521L49.7995 95.473Z" fill="url(#paint3_linear)"/>
<path d="M123.754 95.473C123.754 95.473 131.17 116.803 128.916 117.424C126.662 118.045 110.59 104.521 110.59 104.521L123.754 95.473Z" fill="url(#paint4_linear)"/>
<path d="M86.9075 23.1845C61.0038 23.1845 40 44.1884 40 70.092C40 95.9957 61.0038 117 86.9075 117C112.811 117 133.815 95.9957 133.815 70.092C133.815 44.1884 112.811 23.1845 86.9075 23.1845ZM86.9075 111.969C63.7804 111.969 45.0305 93.2191 45.0305 70.092C45.0305 46.9649 63.7804 28.215 86.9075 28.215C110.035 28.215 128.785 46.9649 128.785 70.092C128.785 93.2191 110.035 111.969 86.9075 111.969Z" fill="url(#paint5_linear)"/>
<path opacity="0.23" d="M85.2744 72.0518H88.051L86.679 47.3895L85.2744 72.0518Z" fill="#94C8E3"/>
<path d="M84.8823 71.4965H87.6589L86.2543 46.8342L84.8823 71.4965Z" fill="url(#paint6_linear)"/>
<path opacity="0.23" d="M85.3726 71.3659L87.4631 73.1625L107.781 47.5529L85.3726 71.3659Z" fill="#94C8E3"/>
<path d="M84.9478 70.778L87.071 72.6072L107.356 46.9649L84.9478 70.778Z" fill="url(#paint7_linear)"/>
<path opacity="0.23" d="M86.2545 74.2078C88.1668 74.2078 89.7171 72.6575 89.7171 70.7452C89.7171 68.8329 88.1668 67.2827 86.2545 67.2827C84.3422 67.2827 82.792 68.8329 82.792 70.7452C82.792 72.6575 84.3422 74.2078 86.2545 74.2078Z" fill="#94C8E3"/>
<path opacity="0.23" d="M86.2545 75.5471C88.1668 75.5471 89.7171 73.9968 89.7171 72.0845C89.7171 70.1722 88.1668 68.622 86.2545 68.622C84.3422 68.622 82.792 70.1722 82.792 72.0845C82.792 73.9968 84.3422 75.5471 86.2545 75.5471Z" fill="#94C8E3"/>
<path d="M86.2545 74.9591C88.1668 74.9591 89.7171 73.4088 89.7171 71.4965C89.7171 69.5842 88.1668 68.034 86.2545 68.034C84.3422 68.034 82.792 69.5842 82.792 71.4965C82.792 73.4088 84.3422 74.9591 86.2545 74.9591Z" fill="url(#paint8_linear)"/>
<path opacity="0.23" d="M84.7191 72.5419C84.9804 73.4238 85.9604 73.8811 86.7117 73.6525C87.757 73.3585 88.2469 71.8559 87.5936 71.0066C87.169 70.4513 86.3523 70.2226 85.6664 70.5493C84.9151 70.8759 84.4577 71.7579 84.7191 72.5419Z" fill="#94C8E3"/>
<path d="M86.9079 30.4035C87.1039 30.7302 87.2019 31.0568 87.2999 31.4161C87.3653 31.7428 87.3979 32.0694 87.3979 32.4288C87.3979 32.7554 87.3653 33.0821 87.2999 33.4414C87.2346 33.768 87.1039 34.0947 86.9079 34.454C86.712 34.1274 86.614 33.8007 86.516 33.4414C86.4506 33.1147 86.418 32.7881 86.418 32.4288C86.418 32.1021 86.4506 31.7755 86.516 31.4161C86.614 31.0568 86.712 30.7302 86.9079 30.4035Z" fill="#94C8E3"/>
<path d="M67.0474 35.6953C67.374 35.8912 67.6353 36.1199 67.864 36.3812C68.0927 36.6425 68.2886 36.9039 68.452 37.1979C68.6153 37.4918 68.746 37.7858 68.8766 38.1125C68.9746 38.4391 69.04 38.7658 69.04 39.1578C68.6806 38.9618 68.452 38.7331 68.1907 38.4718C67.962 38.2105 67.766 37.9492 67.6027 37.6552C67.4393 37.3612 67.3087 37.0672 67.178 36.7405C67.1454 36.4466 67.0474 36.0872 67.0474 35.6953Z" fill="#94C8E3"/>
<path d="M52.5435 50.2314C52.9354 50.2314 53.2621 50.2967 53.5887 50.3947C53.9154 50.4927 54.2094 50.6234 54.5034 50.8194C54.7974 50.9827 55.0587 51.1787 55.32 51.4073C55.5813 51.636 55.81 51.8973 56.006 52.2566C55.614 52.2566 55.2873 52.1913 54.9607 52.0933C54.634 51.9953 54.3401 51.8647 54.0461 51.6687C53.7521 51.5053 53.4908 51.3093 53.2294 51.0807C52.9681 50.852 52.7068 50.5907 52.5435 50.2314Z" fill="#94C8E3"/>
<path d="M47.2192 70.092C47.5459 69.896 47.8725 69.798 48.2319 69.7C48.5585 69.6347 48.8852 69.602 49.2445 69.602C49.5711 69.602 49.8978 69.6347 50.2571 69.7C50.5838 69.7653 50.9104 69.896 51.2697 70.092C50.9431 70.288 50.6164 70.386 50.2571 70.484C49.9305 70.5493 49.6038 70.582 49.2445 70.582C48.9178 70.582 48.5912 70.5493 48.2319 70.484C47.8725 70.386 47.5459 70.288 47.2192 70.092Z" fill="#94C8E3"/>
<path d="M52.5435 89.9525C52.7394 89.6258 52.9681 89.3645 53.2294 89.1359C53.4908 88.9072 53.7521 88.7112 54.0461 88.5479C54.3401 88.3846 54.634 88.2539 54.9607 88.1232C55.2873 88.0252 55.614 87.9599 56.006 87.9599C55.81 88.3192 55.5813 88.5479 55.32 88.8092C55.0587 89.0379 54.7974 89.2339 54.5034 89.3972C54.2094 89.5605 53.9154 89.6912 53.5887 89.8218C53.2621 89.8872 52.9354 89.9525 52.5435 89.9525Z" fill="#94C8E3"/>
<path d="M67.0474 104.489C67.0474 104.097 67.1127 103.77 67.2107 103.443C67.3087 103.117 67.4393 102.823 67.6353 102.529C67.7987 102.235 67.9947 101.973 68.2233 101.712C68.452 101.451 68.7133 101.222 69.0726 101.026C69.0726 101.418 69.0073 101.745 68.9093 102.071C68.8113 102.398 68.6806 102.692 68.4846 102.986C68.3213 103.28 68.1253 103.541 67.8967 103.803C67.668 104.064 67.4067 104.293 67.0474 104.489Z" fill="#94C8E3"/>
<path d="M86.9079 109.813C86.712 109.486 86.614 109.16 86.516 108.8C86.4506 108.474 86.418 108.147 86.418 107.788C86.418 107.461 86.4506 107.135 86.516 106.775C86.5813 106.449 86.712 106.122 86.9079 105.763C87.1039 106.089 87.2019 106.416 87.2999 106.775C87.3653 107.102 87.3979 107.429 87.3979 107.788C87.3979 108.114 87.3653 108.441 87.2999 108.8C87.2346 109.127 87.1039 109.454 86.9079 109.813Z" fill="#94C8E3"/>
<path d="M106.768 104.489C106.442 104.293 106.18 104.064 105.952 103.803C105.723 103.541 105.527 103.28 105.364 102.986C105.201 102.692 105.07 102.398 104.939 102.071C104.841 101.745 104.776 101.418 104.776 101.026C105.135 101.222 105.364 101.451 105.625 101.712C105.854 101.973 106.05 102.235 106.213 102.529C106.376 102.823 106.507 103.117 106.638 103.443C106.703 103.737 106.768 104.097 106.768 104.489Z" fill="#94C8E3"/>
<path d="M121.304 89.9526C120.912 89.9526 120.586 89.8872 120.259 89.7892C119.932 89.6912 119.638 89.5606 119.344 89.3646C119.05 89.2013 118.789 89.0053 118.528 88.7766C118.266 88.5479 118.038 88.2866 117.842 87.9273C118.234 87.9273 118.56 87.9926 118.887 88.0906C119.214 88.1886 119.508 88.3193 119.802 88.5153C120.096 88.6786 120.357 88.8746 120.618 89.1033C120.88 89.3319 121.108 89.5932 121.304 89.9526Z" fill="#94C8E3"/>
<path d="M126.629 70.092C126.302 70.288 125.975 70.386 125.616 70.484C125.289 70.5493 124.963 70.582 124.603 70.582C124.277 70.582 123.95 70.5493 123.591 70.484C123.264 70.4186 122.937 70.288 122.578 70.092C122.905 69.896 123.231 69.798 123.591 69.7C123.917 69.6347 124.244 69.602 124.603 69.602C124.93 69.602 125.257 69.6347 125.616 69.7C125.943 69.798 126.269 69.896 126.629 70.092Z" fill="#94C8E3"/>
<path d="M121.304 50.2314C121.108 50.558 120.88 50.8194 120.618 51.048C120.357 51.2767 120.096 51.4727 119.802 51.636C119.508 51.7993 119.214 51.93 118.887 52.0606C118.56 52.1586 118.234 52.224 117.842 52.224C118.038 51.8647 118.266 51.636 118.528 51.3747C118.789 51.146 119.05 50.95 119.344 50.7867C119.638 50.6234 119.932 50.4927 120.259 50.362C120.553 50.2967 120.912 50.2314 121.304 50.2314Z" fill="#94C8E3"/>
<path d="M106.768 35.6953C106.768 36.0872 106.703 36.4139 106.605 36.7405C106.507 37.0672 106.376 37.3612 106.18 37.6552C106.017 37.9492 105.821 38.2105 105.592 38.4718C105.364 38.7331 105.102 38.9618 104.743 39.1578C104.743 38.7658 104.808 38.4391 104.906 38.1125C105.004 37.7858 105.135 37.4918 105.331 37.1979C105.494 36.9039 105.69 36.6425 105.919 36.3812C106.18 36.1199 106.409 35.8912 106.768 35.6953Z" fill="#94C8E3"/>
<path opacity="0.23" d="M86.9078 30.3708C109.676 30.3708 128.164 48.5001 128.785 71.1372C128.785 70.7779 128.785 70.4513 128.785 70.0919C128.785 46.9648 110.035 28.2149 86.9078 28.2149C63.7807 28.2149 45.0308 46.9648 45.0308 70.0919C45.0308 70.4513 45.0308 70.7779 45.0308 71.1372C45.6514 48.5328 64.1727 30.3708 86.9078 30.3708Z" fill="#94C8E3"/>
<path d="M84.7191 71.9866C84.9804 72.8685 85.9604 73.3258 86.7117 73.0972C87.757 72.8032 88.2469 71.3006 87.5936 70.4513C87.169 69.896 86.3523 69.6673 85.6664 69.994C84.9151 70.3206 84.4577 71.2026 84.7191 71.9866Z" fill="url(#paint9_linear)"/>
<path d="M96.1519 25.3404C99.2551 25.863 102.26 26.843 105.168 28.0843C108.075 29.3256 110.819 30.9262 113.399 32.7228C114.673 33.6374 115.882 34.65 117.058 35.6953C118.201 36.7733 119.344 37.8839 120.357 39.0925C122.415 41.4771 124.179 44.123 125.583 46.9322C124.799 45.5603 124.015 44.221 123.068 42.947C122.186 41.6404 121.174 40.4318 120.161 39.2558C119.116 38.0799 118.005 36.9693 116.862 35.924C115.686 34.8787 114.477 33.8987 113.203 32.9841C110.655 31.1548 107.944 29.5869 105.07 28.3129C103.632 27.6596 102.195 27.0717 100.692 26.5817C99.2224 26.0917 97.6871 25.667 96.1519 25.3404Z" fill="#94C8E3"/>
<path d="M86.189 113.929C83.0531 113.994 79.8846 113.537 76.8141 112.851C73.7435 112.165 70.7383 111.087 67.8964 109.78C66.4591 109.094 65.0872 108.343 63.7479 107.494C62.4086 106.644 61.102 105.763 59.8934 104.75C57.4435 102.757 55.2222 100.471 53.3276 97.9882C54.3403 99.1968 55.3856 100.373 56.4962 101.451C57.6068 102.561 58.8154 103.574 60.024 104.554C61.2653 105.501 62.5393 106.416 63.8786 107.232C65.2178 108.049 66.5898 108.8 68.0271 109.454C70.869 110.793 73.8415 111.838 76.8794 112.59C78.4147 112.982 79.9499 113.276 81.4852 113.504C83.0531 113.733 84.6211 113.896 86.189 113.929Z" fill="#94C8E3"/>
<path opacity="0.23" d="M106.67 33.1475C107.519 33.6048 108.369 34.0947 109.185 34.6174C110.361 34.1927 112.288 33.2454 114.314 32.0042C110.524 29.2929 106.343 27.1044 101.835 25.6017C103.567 28.4436 105.429 31.3835 106.67 33.1475Z" fill="#4C649E"/>
</g>
<defs>
<filter id="filter0_d" x="0" y="0.240845" width="193.815" height="207.204" filterUnits="userSpaceOnUse" color-interpolation-filters="sRGB">
<feFlood flood-opacity="0" result="BackgroundImageFix"/>
<feColorMatrix in="SourceAlpha" type="matrix" values="0 0 0 0 0 0 0 0 0 0 0 0 0 0 0 0 0 0 127 0" result="hardAlpha"/>
<feOffset dx="10" dy="40"/>
<feGaussianBlur stdDeviation="25"/>
<feColorMatrix type="matrix" values="0 0 0 0 0.422014 0 0 0 0 0.596542 0 0 0 0 0.858333 0 0 0 0.3 0"/>
<feBlend mode="multiply" in2="BackgroundImageFix" result="effect1_dropShadow"/>
<feBlend mode="normal" in="SourceGraphic" in2="effect1_dropShadow" result="shape"/>
</filter>
<linearGradient id="paint0_linear" x1="79.1328" y1="10.2408" x2="94.5415" y2="13.49" gradientUnits="userSpaceOnUse">
<stop stop-color="#BFA0FF"/>
<stop offset="1" stop-color="#5302FF"/>
</linearGradient>
<linearGradient id="paint1_linear" x1="94.4813" y1="434.511" x2="-54.6236" y2="25.2655" gradientUnits="userSpaceOnUse">
<stop stop-color="#ABC4FF"/>
<stop offset="1" stop-color="white"/>
</linearGradient>
<linearGradient id="paint2_linear" x1="96.1518" y1="36.5119" x2="96.1518" y2="68.132" gradientUnits="userSpaceOnUse">
<stop offset="0.119792" stop-color="#E3FFED"/>
<stop offset="1" stop-color="white"/>
</linearGradient>
<linearGradient id="paint3_linear" x1="44.2119" y1="95.473" x2="65.5187" y2="98.3195" gradientUnits="userSpaceOnUse">
<stop stop-color="#BFA0FF"/>
<stop offset="1" stop-color="#5302FF"/>
</linearGradient>
<linearGradient id="paint4_linear" x1="110.59" y1="95.473" x2="131.897" y2="98.3195" gradientUnits="userSpaceOnUse">
<stop stop-color="#BFA0FF"/>
<stop offset="1" stop-color="#5302FF"/>
</linearGradient>
<linearGradient id="paint5_linear" x1="40" y1="23.1845" x2="145.906" y2="39.7631" gradientUnits="userSpaceOnUse">
<stop stop-color="#BFA0FF"/>
<stop offset="1" stop-color="#5302FF"/>
</linearGradient>
<linearGradient id="paint6_linear" x1="87.6589" y1="71.4965" x2="83.2545" y2="71.2203" gradientUnits="userSpaceOnUse">
<stop stop-color="#86E6FF"/>
<stop offset="1" stop-color="#1A68FF"/>
</linearGradient>
<linearGradient id="paint7_linear" x1="107.356" y1="72.6072" x2="78.5074" y2="58.5628" gradientUnits="userSpaceOnUse">
<stop stop-color="#86E6FF"/>
<stop offset="1" stop-color="#1A68FF"/>
</linearGradient>
<linearGradient id="paint8_linear" x1="89.7171" y1="74.9591" x2="81.3007" y2="70.2704" gradientUnits="userSpaceOnUse">
<stop stop-color="#86E6FF"/>
<stop offset="1" stop-color="#1A68FF"/>
</linearGradient>
<linearGradient id="paint9_linear" x1="84.645" y1="69.8434" x2="88.3108" y2="70.4055" gradientUnits="userSpaceOnUse">
<stop stop-color="#BFA0FF"/>
<stop offset="1" stop-color="#5302FF"/>
</linearGradient>
</defs>
</svg>
