<svg width="16" height="15" viewBox="0 0 16 15" fill="none" xmlns="http://www.w3.org/2000/svg">
<path d="M15.3376 6.69944H3.01109L10.3889 0.294944C10.5069 0.191713 10.4352 0 10.2793 0H8.41488C8.33272 0 8.25477 0.0294943 8.19367 0.0821628L0.232296 6.99017C0.159379 7.05337 0.1009 7.13152 0.0608212 7.2193C0.0207423 7.30708 0 7.40245 0 7.49895C0 7.59545 0.0207423 7.69082 0.0608212 7.7786C0.1009 7.86638 0.159379 7.94452 0.232296 8.00772L8.24002 14.9579C8.27162 14.9853 8.30954 15 8.34957 15H10.2772C10.4331 15 10.5048 14.8062 10.3868 14.7051L3.01109 8.30056H15.3376C15.4303 8.30056 15.5062 8.22472 15.5062 8.13202V6.86798C15.5062 6.77528 15.4303 6.69944 15.3376 6.69944Z" fill="#C0C0C0"/>
</svg>
