<svg width="13" height="16" viewBox="0 0 13 16" fill="none" xmlns="http://www.w3.org/2000/svg">
<path d="M11.8016 8.24342C11.9016 8.17461 11.9833 8.08254 12.0397 7.97513C12.0962 7.86772 12.1257 7.74821 12.1257 7.62687C12.1257 7.50553 12.0962 7.38602 12.0397 7.27861C11.9833 7.17121 11.9016 7.07913 11.8016 7.01032L2.05087 0.259794C1.9384 0.181657 1.80667 0.135836 1.66999 0.127308C1.53331 0.118781 1.39691 0.147874 1.2756 0.211426C1.15429 0.274979 1.05272 0.37056 0.981925 0.487785C0.911127 0.605011 0.873808 0.739397 0.874024 0.876343L0.874024 14.3774C0.874589 14.514 0.912387 14.6479 0.983355 14.7647C1.05432 14.8814 1.15577 14.9766 1.2768 15.04C1.39783 15.1034 1.53385 15.1326 1.67023 15.1245C1.80662 15.1164 1.93822 15.0713 2.05087 14.9939L11.8016 8.24342Z" fill="url(#paint0_linear)"/>
<defs>
<linearGradient id="paint0_linear" x1="0.874023" y1="15.1259" x2="15.2746" y2="4.32382" gradientUnits="userSpaceOnUse">
<stop stop-color="#00ADEE"/>
<stop offset="1" stop-color="#2C3393"/>
</linearGradient>
</defs>
</svg>
