<svg width="10" height="7" viewBox="0 0 10 7" fill="none" xmlns="http://www.w3.org/2000/svg">
<path d="M4.58829 6.7984C4.63416 6.86057 4.69555 6.91141 4.76715 6.94653C4.83875 6.98165 4.91843 7 4.99932 7C5.08021 7 5.15989 6.98165 5.2315 6.94653C5.3031 6.91141 5.36448 6.86057 5.41035 6.7984L9.91071 0.73215C9.9628 0.662181 9.99335 0.580228 9.99903 0.495195C10.0047 0.410163 9.98532 0.325302 9.94295 0.249833C9.90058 0.174365 9.83686 0.111175 9.75871 0.0671292C9.68056 0.0230835 9.59097 -0.000133618 9.49967 5.78465e-07L0.49897 5.78465e-07C0.407885 0.000351679 0.318625 0.0238674 0.24079 0.0680186C0.162955 0.11217 0.0994899 0.175286 0.0572196 0.25058C0.0149493 0.325874 -0.00452694 0.410497 0.000885468 0.495348C0.00629787 0.580199 0.0363941 0.662067 0.0879376 0.73215L4.58829 6.7984Z" fill="#0778E4"/>
</svg>
