<svg width="19" height="17" viewBox="0 0 19 17" fill="none" xmlns="http://www.w3.org/2000/svg">
<path d="M18.0185 3.77801C17.8553 3.49528 17.6216 3.25968 17.3402 3.09417C17.0589 2.92866 16.7394 2.8389 16.413 2.83364H4.32518L3.77745 0.699383C3.72211 0.493359 3.59865 0.312141 3.42717 0.185245C3.25569 0.0583487 3.04629 -0.00674913 2.83309 0.00055385H0.944363C0.693903 0.00055385 0.4537 0.100049 0.276598 0.277151C0.0994951 0.454254 0 0.694456 0 0.944917C0 1.19538 0.0994951 1.43558 0.276598 1.61268C0.4537 1.78979 0.693903 1.88928 0.944363 1.88928H2.11537L4.72182 11.5784C4.77716 11.7845 4.90062 11.9657 5.0721 12.0926C5.24358 12.2195 5.45298 12.2846 5.66618 12.2773H14.1654C14.3398 12.2767 14.5107 12.2279 14.659 12.1363C14.8074 12.0446 14.9275 11.9136 15.0059 11.7579L18.1034 5.56285C18.2377 5.28145 18.3002 4.97118 18.2854 4.65974C18.2705 4.3483 18.1788 4.04538 18.0185 3.77801Z" fill="url(#paint0_linear)"/>
<path d="M5.19499 17C5.97732 17 6.61153 16.3658 6.61153 15.5834C6.61153 14.8011 5.97732 14.1669 5.19499 14.1669C4.41265 14.1669 3.77844 14.8011 3.77844 15.5834C3.77844 16.3658 4.41265 17 5.19499 17Z" fill="url(#paint1_linear)"/>
<path d="M14.6377 17C15.4201 17 16.0543 16.3658 16.0543 15.5834C16.0543 14.8011 15.4201 14.1669 14.6377 14.1669C13.8554 14.1669 13.2212 14.8011 13.2212 15.5834C13.2212 16.3658 13.8554 17 14.6377 17Z" fill="url(#paint2_linear)"/>
<defs>
<linearGradient id="paint0_linear" x1="-0.462975" y1="7.36447e-09" x2="16.5968" y2="14.2954" gradientUnits="userSpaceOnUse">
<stop stop-color="#FE8E27"/>
<stop offset="1" stop-color="#FFCC4A"/>
</linearGradient>
<linearGradient id="paint1_linear" x1="3.70672" y1="14.1669" x2="7.12385" y2="16.0893" gradientUnits="userSpaceOnUse">
<stop stop-color="#FE8E27"/>
<stop offset="1" stop-color="#FFCC4A"/>
</linearGradient>
<linearGradient id="paint2_linear" x1="13.1495" y1="14.1669" x2="16.5666" y2="16.0893" gradientUnits="userSpaceOnUse">
<stop stop-color="#FE8E27"/>
<stop offset="1" stop-color="#FFCC4A"/>
</linearGradient>
</defs>
</svg>
