<svg width="17" height="15" viewBox="0 0 17 15" fill="none" xmlns="http://www.w3.org/2000/svg">
<path d="M15.9336 3.36829C15.7976 3.13962 15.6029 2.94905 15.3684 2.81518C15.134 2.68131 14.8677 2.60871 14.5957 2.60446H4.52235L4.0659 0.878187C4.01978 0.711547 3.9169 0.564971 3.77399 0.462333C3.63109 0.359695 3.45659 0.307041 3.27892 0.312948H1.70495C1.49623 0.312948 1.29606 0.393423 1.14847 0.536671C1.00088 0.679918 0.917969 0.874203 0.917969 1.07678C0.917969 1.27937 1.00088 1.47365 1.14847 1.6169C1.29606 1.76015 1.49623 1.84062 1.70495 1.84062H2.68081L4.85289 9.67759C4.899 9.84423 5.00189 9.9908 5.1448 10.0934C5.2877 10.1961 5.4622 10.2487 5.63987 10.2428H12.7227C12.868 10.2424 13.0104 10.2029 13.134 10.1288C13.2577 10.0546 13.3577 9.94868 13.4231 9.82271L16.0044 4.81195C16.1163 4.58433 16.1684 4.33338 16.156 4.08148C16.1437 3.82957 16.0673 3.58456 15.9336 3.36829Z" fill="white"/>
<path d="M5.24688 14.0628C5.89884 14.0628 6.42736 13.5498 6.42736 12.917C6.42736 12.2842 5.89884 11.7712 5.24688 11.7712C4.59492 11.7712 4.06641 12.2842 4.06641 12.917C4.06641 13.5498 4.59492 14.0628 5.24688 14.0628Z" fill="white"/>
<path d="M13.118 14.0628C13.7699 14.0628 14.2984 13.5498 14.2984 12.917C14.2984 12.2842 13.7699 11.7712 13.118 11.7712C12.466 11.7712 11.9375 12.2842 11.9375 12.917C11.9375 13.5498 12.466 14.0628 13.118 14.0628Z" fill="white"/>
</svg>
