<svg width="146" height="122" viewBox="0 0 146 122" fill="none" xmlns="http://www.w3.org/2000/svg">
<path opacity="0.5" d="M54.1843 37.6583C62.3013 34.8038 68.1779 30.4691 67.31 27.9766C66.4421 25.4841 59.1584 25.7775 51.0413 28.6321C42.9243 31.4866 37.0477 35.8212 37.9156 38.3137C38.7835 40.8062 46.0672 40.5128 54.1843 37.6583Z" fill="#00052C"/>
<path d="M46.7663 18.8536L46.8744 16.2456L47.4691 14.7243L47.8476 15.974L46.7663 18.8536Z" fill="#DD821F"/>
<path d="M73.6366 19.3427L73.7448 16.789C73.7448 16.789 71.6362 18.908 71.6362 18.9623C71.6362 19.0167 73.6366 19.3427 73.6366 19.3427Z" fill="#FFD85A"/>
<path d="M60.0122 26.8407C52.6053 26.6234 46.7122 22.8744 46.8744 16.2457C47.0366 9.67135 53.2 4.45534 60.6069 4.61834C68.0138 4.78134 73.9069 10.269 73.7988 16.8977C73.5825 23.4721 67.4732 27.0037 60.0122 26.8407Z" fill="url(#paint0_linear)"/>
<path d="M73.6809 19.4571C73.8382 12.8575 67.9402 7.36236 60.5075 7.18349C53.0747 7.00461 46.9218 12.2097 46.7646 18.8094C46.6073 25.4091 52.5053 30.9042 59.938 31.083C67.3707 31.2619 73.5236 26.0568 73.6809 19.4571Z" fill="#FFD85A"/>
<path d="M50.8212 10.5407C48.3883 12.6597 46.8204 15.5394 46.7663 18.7994C46.6041 25.3737 52.4972 30.8614 59.9582 31.0788C63.6346 31.1874 66.9866 29.9378 69.4736 27.8731L50.8212 10.5407Z" fill="#DD821F"/>
<path d="M73.0864 19.4437C73.2365 13.144 67.5989 7.89849 60.4945 7.72752C53.3902 7.55654 47.5092 12.5248 47.3591 18.8245C47.209 25.1242 52.8465 30.3697 59.9509 30.5407C67.0553 30.7117 72.9362 25.7434 73.0864 19.4437Z" fill="url(#paint1_linear)"/>
<path d="M70.5461 19.3825C70.6669 14.3127 66.1429 10.0917 60.4415 9.95447C54.7401 9.81727 50.0202 13.8159 49.8994 18.8856C49.7786 23.9554 54.3026 28.1765 60.004 28.3137C65.7054 28.4509 70.4253 24.4523 70.5461 19.3825Z" fill="url(#paint2_linear)"/>
<path d="M70.5008 19.397C70.5008 19.1797 70.5008 18.9623 70.5008 18.7993C70.0142 23.5807 65.4728 27.221 60.0122 27.058C54.5516 26.9493 50.1724 23.0373 49.9021 18.256C49.9021 18.4733 49.848 18.6907 49.848 18.8537C49.7399 23.9067 54.2273 28.1447 59.9581 28.2533C65.689 28.4707 70.3927 24.45 70.5008 19.397Z" fill="#FFD85A"/>
<path d="M62.1748 19.9403L60.0663 17.9843C58.0118 18.4733 54.2273 19.3427 51.1996 20.049C51.9566 22.331 53.7948 24.2327 56.1736 25.2107L62.1748 19.9403Z" fill="#FFD85A"/>
<path d="M58.8769 25.8627C59.2013 25.917 59.5798 25.917 59.9042 25.917C62.3911 25.9714 64.6619 25.1564 66.392 23.798L62.9318 20.5923L58.8769 25.8627Z" fill="#FFD85A"/>
<path d="M57.7956 15.8654L53.7948 12.1707C52.4431 13.3661 51.2537 14.6701 50.9293 16.3544L57.7956 15.8654Z" fill="#FFD85A"/>
<path d="M59.9041 11.084C65.5809 11.247 70.1224 15.4307 70.0143 20.4837C70.0143 21.5161 69.798 22.4941 69.4195 23.4177C70.1224 22.2224 70.5549 20.8641 70.5549 19.3971C70.663 14.344 66.1756 10.106 60.4447 9.99737C55.9033 9.8887 52.0106 12.388 50.4968 15.974C52.2268 12.9857 55.7951 10.9754 59.9041 11.084Z" fill="#DD821F"/>
<path d="M46.8744 16.2456C46.8744 17.2236 46.7663 17.93 46.9825 18.8537C47.2528 17.8757 47.9016 14.996 47.9016 14.996L48.9289 12.714L49.7939 12.0076L51.2537 10.9753L51.3618 7.60663C48.6585 9.72563 46.9284 12.8226 46.8744 16.2456Z" fill="#DD821F"/>
<path d="M72.8797 15.9196L72.9338 15.2132C72.9338 15.1046 72.9879 15.0502 73.096 15.0502H73.15C73.2582 15.0502 73.3122 15.1589 73.3122 15.2132L73.2582 15.9196C73.2582 16.0282 73.2041 16.0826 73.096 16.0826H73.0419C72.9338 16.0826 72.8797 16.0282 72.8797 15.9196Z" fill="#DD821F"/>
<path d="M71.6903 13.3117L71.7443 12.1163C71.7443 12.0077 71.8525 11.899 71.9606 11.899H72.0687C72.1769 11.899 72.2309 12.0077 72.2309 12.1163L72.1769 13.3117C72.1769 13.4203 72.0687 13.529 71.9606 13.529H71.8525C71.7984 13.529 71.6903 13.4203 71.6903 13.3117Z" fill="#DD821F"/>
<path d="M70.0683 11.0295L70.1224 9.83422C70.1224 9.72555 70.2305 9.61688 70.3387 9.61688H70.5549C70.663 9.61688 70.7712 9.72555 70.7712 9.83422L70.7171 11.0295C70.7171 11.1382 70.609 11.2469 70.5008 11.2469H70.2846C70.1765 11.3012 70.0683 11.1926 70.0683 11.0295Z" fill="#DD821F"/>
<path d="M67.6354 9.23657L67.6895 7.8239C67.6895 7.71523 67.7976 7.60657 67.9057 7.60657H68.122C68.2301 7.60657 68.3382 7.71523 68.3382 7.8239L68.2842 9.23657C68.2842 9.34524 68.176 9.4539 68.0679 9.4539H67.8517C67.6895 9.4539 67.6354 9.34524 67.6354 9.23657Z" fill="#DD821F"/>
<path d="M65.1484 7.98705L65.2024 6.35704C65.2024 6.24838 65.3106 6.13971 65.4187 6.13971H65.635C65.7431 6.13971 65.8512 6.24838 65.8512 6.35704L65.7972 7.98705C65.7972 8.09571 65.689 8.20438 65.5809 8.20438H65.3646C65.2565 8.25871 65.1484 8.15005 65.1484 7.98705Z" fill="#DD821F"/>
<path d="M62.6614 7.28055L62.7155 5.70488C62.7155 5.59622 62.8236 5.48755 62.9317 5.48755H63.148C63.2561 5.48755 63.3642 5.59622 63.3642 5.70488L63.3102 7.28055C63.3102 7.38922 63.2021 7.49789 63.0939 7.49789H62.8777C62.7695 7.49789 62.6614 7.38922 62.6614 7.28055Z" fill="#DD821F"/>
<path d="M60.1744 7.00896L60.2285 5.37895C60.2285 5.27029 60.3366 5.16162 60.4447 5.16162H60.661C60.7691 5.16162 60.8773 5.27029 60.8773 5.37895L60.8232 7.00896C60.8232 7.11762 60.7151 7.22629 60.6069 7.22629H60.3907C60.2825 7.28063 60.1744 7.17196 60.1744 7.00896Z" fill="#DD821F"/>
<path d="M57.6874 7.06338L57.7415 5.54204C57.7415 5.43337 57.8496 5.32471 57.9577 5.32471H58.174C58.2821 5.32471 58.3903 5.43337 58.3903 5.54204L58.3362 7.06338C58.3362 7.17204 58.2281 7.28071 58.1199 7.28071H57.9037C57.7415 7.28071 57.6874 7.22638 57.6874 7.06338Z" fill="#DD821F"/>
<path d="M55.1463 7.60658L55.2004 6.13958C55.2004 6.03091 55.3085 5.92224 55.4167 5.92224H55.6329C55.741 5.92224 55.8492 6.03091 55.8492 6.13958L55.7951 7.60658C55.7951 7.71525 55.687 7.82391 55.5789 7.82391H55.3626C55.2545 7.87825 55.1463 7.76958 55.1463 7.60658Z" fill="#DD821F"/>
<path d="M52.6594 8.8563L52.7134 7.28063C52.7134 7.17196 52.8216 7.06329 52.9297 7.06329H53.1459C53.2541 7.06329 53.3622 7.17196 53.3622 7.28063L53.3081 8.8563C53.3081 8.96496 53.2 9.07363 53.0919 9.07363H52.8756C52.7134 9.07363 52.6594 8.96496 52.6594 8.8563Z" fill="#DD821F"/>
<path d="M145.813 83.0214V88.3461C145.813 88.4005 145.759 88.5091 145.705 88.5634L87.8557 121.924C87.6935 122.033 87.3151 122.033 87.0988 121.87L77.6915 116.382C77.5833 116.328 77.5293 116.219 77.5293 116.165V110.786L82.1248 113.394L135.487 82.6411C135.649 82.5324 136.028 82.5324 136.244 82.6954L139.488 84.5971L145.813 83.0214Z" fill="url(#paint3_linear)"/>
<path d="M135.487 77.2621L77.6374 110.623C77.4752 110.731 77.4752 110.949 77.6915 111.057L87.0988 116.545C87.3151 116.654 87.6394 116.708 87.8557 116.599L145.705 83.2387C145.868 83.1301 145.868 82.9127 145.651 82.8041L136.244 77.3164C135.974 77.1534 135.649 77.0991 135.487 77.2621Z" fill="url(#paint4_linear)"/>
<path opacity="0.6" d="M133.378 85.2492L87.9098 110.949C87.5854 109.156 87.0447 107.309 86.3419 105.516L131.702 79.3812C132.459 81.3372 133.054 83.2932 133.378 85.2492Z" fill="#00052C"/>
<path d="M137.487 80.3048L82.9358 111.764C82.8277 111.818 82.8277 111.981 82.9899 112.036L85.3687 113.394C85.5309 113.503 85.7472 113.503 85.8553 113.394L140.407 81.9348C140.515 81.8805 140.515 81.7175 140.353 81.6631L137.974 80.3048C137.812 80.2505 137.596 80.2505 137.487 80.3048Z" fill="#00052C"/>
<path d="M140.353 81.9891L139.218 82.6411L137.92 81.8805C137.758 81.7718 137.542 81.7718 137.433 81.8805L84.0171 112.688L82.9358 112.036C82.7736 111.927 82.7736 111.818 82.8818 111.764L137.433 80.3048C137.542 80.2505 137.812 80.2505 137.92 80.3048L140.299 81.6631C140.461 81.8261 140.515 81.9348 140.353 81.9891Z" fill="#453C9E"/>
<path opacity="0.96" d="M0 26.1344L45.3606 0C45.3606 8.15002 51.0374 18.093 58.0659 22.2224L120.565 58.7345C128.837 63.5701 135.487 75.2518 135.487 84.8688L90.1265 111.003C90.1265 101.386 83.4765 89.7045 75.2045 84.8688L12.7053 48.3568C5.67683 44.2818 0 34.3387 0 26.1344Z" fill="url(#paint5_linear)"/>
<path opacity="0.8" d="M135.487 84.8145L90.1264 110.949C90.1264 110.514 90.1265 110.08 90.0724 109.645L135.433 83.5105C135.487 83.9995 135.487 84.4342 135.487 84.8145Z" fill="#453C9E"/>
<path opacity="0.32" d="M69.798 65.2001L59.5257 71.1224L60.4988 71.7201L70.7712 65.7977L69.798 65.2001Z" fill="white"/>
<path opacity="0.32" d="M75.0423 62.1574L71.3659 64.3307L72.3391 64.8741L76.0696 62.7551L75.0423 62.1574Z" fill="white"/>
<path opacity="0.32" d="M79.1513 59.821L76.6102 61.288L77.6374 61.8313L80.1244 60.4187L79.1513 59.821Z" fill="white"/>
<path opacity="0.32" d="M62.8777 66.6127L57.2549 69.8184L58.2281 70.4161L63.8509 67.1561L62.8777 66.6127Z" fill="white"/>
<path opacity="0.32" d="M71.3118 61.7227L64.4456 65.689L65.4188 66.2867L72.285 62.3203L71.3118 61.7227Z" fill="white"/>
<path opacity="0.32" d="M75.3667 59.3864L72.8797 60.8533L73.8529 61.3967L76.3399 59.984L75.3667 59.3864Z" fill="white"/>
<path opacity="0.32" d="M79.2594 57.1587L76.7184 58.5714L77.7456 59.169L80.2326 57.702L79.2594 57.1587Z" fill="white"/>
<path opacity="0.32" d="M59.0391 66.178L54.9842 68.5143L56.0114 69.0576L60.0123 66.7213L59.0391 66.178Z" fill="white"/>
<path opacity="0.32" d="M62.0127 64.4937L60.607 65.2543L61.6342 65.852L62.9859 65.037L62.0127 64.4937Z" fill="white"/>
<path opacity="0.32" d="M66.0676 62.103L63.5806 63.57L64.5537 64.1133L67.0948 62.7007L66.0676 62.103Z" fill="white"/>
<path opacity="0.32" d="M67.6895 58.5714L52.7134 67.2104L53.7407 67.7537L68.6626 59.169L67.6895 58.5714Z" fill="white"/>
<path opacity="0.32" d="M72.9879 55.5287L69.2574 57.6477L70.2306 58.2454L73.961 56.1264L72.9879 55.5287Z" fill="white"/>
<path opacity="0.32" d="M54.5517 63.5157L50.4968 65.8521L51.47 66.4498L55.5248 64.1134L54.5517 63.5157Z" fill="white"/>
<path opacity="0.32" d="M64.013 58.028L56.1195 62.6463L57.0927 63.1896L65.0403 58.6256L64.013 58.028Z" fill="white"/>
<path opacity="0.32" d="M68.122 55.6917L65.635 57.1587L66.6082 57.702L69.0952 56.2894L68.122 55.6917Z" fill="white"/>
<path opacity="0.32" d="M56.498 59.7667L48.226 64.5481L49.1992 65.1457L57.5252 60.3644L56.498 59.7667Z" fill="white"/>
<path opacity="0.32" d="M64.0671 55.42L58.0659 58.843L59.0932 59.4406L65.0403 55.9633L64.0671 55.42Z" fill="white"/>
<path opacity="0.32" d="M69.6899 52.16L65.635 54.4964L66.6082 55.094L70.6631 52.7577L69.6899 52.16Z" fill="white"/>
<path opacity="0.32" d="M48.7667 61.6141L45.9553 63.2441L46.9285 63.7874L49.7399 62.2117L48.7667 61.6141Z" fill="white"/>
<path opacity="0.32" d="M54.011 58.5714L50.3346 60.6903L51.3078 61.288L55.0383 59.169L54.011 58.5714Z" fill="white"/>
<path opacity="0.32" d="M61.5801 54.2247L55.5789 57.702L56.6061 58.2454L62.5533 54.8223L61.5801 54.2247Z" fill="white"/>
<path opacity="0.32" d="M52.2809 56.9957L43.6846 61.9401L44.7118 62.4834L53.2541 57.5391L52.2809 56.9957Z" fill="white"/>
<path opacity="0.32" d="M61.9045 51.4537L53.8488 56.072L54.822 56.6154L62.8777 51.997L61.9045 51.4537Z" fill="white"/>
<path opacity="0.32" d="M65.9594 49.063L63.4724 50.53L64.4456 51.1277L66.9326 49.6607L65.9594 49.063Z" fill="white"/>
<path opacity="0.32" d="M69.9062 46.8354L67.3651 48.2481L68.3383 48.8457L70.8793 47.3787L69.9062 46.8354Z" fill="white"/>
<path opacity="0.32" d="M46.6041 57.6476L41.4679 60.5817L42.4411 61.1793L47.5773 58.191L46.6041 57.6476Z" fill="white"/>
<path opacity="0.32" d="M90.6131 53.1923L97.7497 49.1173L98.7228 49.6606L91.6403 53.79L90.6131 53.1923Z" fill="white"/>
<path opacity="0.32" d="M89.9103 51.019L95.479 47.759L96.5062 48.3567L90.8834 51.5624L89.9103 51.019Z" fill="white"/>
<path opacity="0.32" d="M89.2074 48.7914L93.2622 46.455L94.2354 47.0527L90.1805 49.389L89.2074 48.7914Z" fill="white"/>
<path opacity="0.32" d="M85.0984 48.5196L90.9915 45.1509L91.9647 45.6943L86.0716 49.1173L85.0984 48.5196Z" fill="white"/>
<path opacity="0.32" d="M84.6659 46.129L88.7208 43.7927L89.694 44.3903L85.6391 46.7267L84.6659 46.129Z" fill="white"/>
<path opacity="0.32" d="M81.3139 45.4769L86.4501 42.4886L87.4773 43.0863L82.3411 46.0203L81.3139 45.4769Z" fill="white"/>
<path opacity="0.32" d="M81.4221 42.8146L84.2334 41.1846L85.2066 41.7822L82.3952 43.3579L81.4221 42.8146Z" fill="white"/>
<path opacity="0.32" d="M76.5021 42.9777L81.9627 39.8807L82.9358 40.424L77.5293 43.5754L76.5021 42.9777Z" fill="white"/>
<path opacity="0.32" d="M74.5558 41.5107L79.6919 38.5223L80.6651 39.12L75.5289 42.1083L74.5558 41.5107Z" fill="white"/>
<path opacity="0.32" d="M50.3346 55.4743L48.172 56.724L49.1452 57.3216L51.3078 56.072L50.3346 55.4743Z" fill="white"/>
<path opacity="0.32" d="M56.8224 51.7253L51.9025 54.5507L52.8756 55.1484L57.7956 52.323L56.8224 51.7253Z" fill="white"/>
<path opacity="0.32" d="M50.7131 41.6193L42.3871 46.4007L43.3602 46.9983L51.6862 42.217L50.7131 41.6193Z" fill="white"/>
<path opacity="0.32" d="M56.3899 38.3593L53.0919 40.2067L54.0651 40.8043L57.363 38.9026L56.3899 38.3593Z" fill="white"/>
<path opacity="0.3" d="M81.7323 68.6124C92.1887 64.9353 99.7538 59.3367 98.6294 56.1078C97.5051 52.8789 88.1171 53.2422 77.6608 56.9194C67.2044 60.5965 59.6394 66.195 60.7637 69.424C61.888 72.6529 71.276 72.2896 81.7323 68.6124Z" fill="#00052C"/>
<path d="M72.1768 44.3361L72.285 41.0218L73.096 39.1201L73.5825 40.6958L72.1768 44.3361Z" fill="#DD821F"/>
<path d="M106.833 44.9881L106.941 41.7281C106.941 41.7281 104.183 44.4991 104.183 44.5534C104.183 44.6078 106.833 44.9881 106.833 44.9881Z" fill="#FFD85A"/>
<path d="M89.2614 54.6595C79.6919 54.4422 72.1228 49.5522 72.285 41.0762C72.5012 32.6002 80.3947 25.9172 89.9642 26.1345C99.5338 26.3518 107.103 33.4152 106.941 41.8912C106.724 50.3672 98.8309 54.8769 89.2614 54.6595Z" fill="url(#paint6_linear)"/>
<path d="M106.787 45.2004C106.989 36.7108 99.4097 29.6423 89.8576 29.4124C80.3055 29.1825 72.3979 35.8783 72.1957 44.3679C71.9934 52.8575 79.5729 59.926 89.125 60.1559C98.6771 60.3858 106.585 53.69 106.787 45.2004Z" fill="#FFD85A"/>
<path d="M77.4212 33.6867C74.2854 36.4034 72.285 40.1524 72.1769 44.3361C71.9606 52.8121 79.5838 59.8754 89.1533 60.0928C93.911 60.2014 98.2362 58.6258 101.426 55.9634L77.4212 33.6867Z" fill="#DD821F"/>
<path d="M106.03 45.1832C106.223 37.0836 98.9749 30.3393 89.8407 30.1195C80.7065 29.8997 73.1453 36.2875 72.9523 44.3871C72.7593 52.4867 80.0076 59.2309 89.1418 59.4508C98.276 59.6706 105.837 53.2828 106.03 45.1832Z" fill="url(#paint7_linear)"/>
<path d="M102.787 45.1049C102.942 38.5952 97.1153 33.1748 89.7722 32.9981C82.429 32.8214 76.3504 37.9553 76.1953 44.465C76.0401 50.9746 81.8672 56.395 89.2104 56.5718C96.5536 56.7485 102.632 51.6146 102.787 45.1049Z" fill="url(#paint8_linear)"/>
<path d="M102.778 45.0968C102.778 44.8251 102.778 44.5534 102.778 44.2818C102.183 50.4214 96.2899 55.0941 89.2614 54.9311C82.233 54.7681 76.6102 49.7694 76.2858 43.6298C76.2858 43.9014 76.2318 44.1731 76.2318 44.4448C76.0696 50.9648 81.9086 56.3981 89.2614 56.5611C96.5602 56.7241 102.616 51.6168 102.778 45.0968Z" fill="#FFD85A"/>
<path d="M92.0187 45.7487L89.3155 43.1951C86.6663 43.7927 81.8004 44.9337 77.9077 45.8574C78.8809 48.7914 81.2598 51.2364 84.3415 52.4861L92.0187 45.7487Z" fill="#FFD85A"/>
<path d="M87.7476 53.4098C88.1801 53.4641 88.6127 53.5184 89.0452 53.5184C92.235 53.5728 95.2086 52.5404 97.3712 50.7474L92.9379 46.6181L87.7476 53.4098Z" fill="#FFD85A"/>
<path d="M86.396 40.5328L81.2598 35.7515C79.5297 37.2728 78.0159 38.9571 77.5834 41.1848L86.396 40.5328Z" fill="#FFD85A"/>
<path d="M89.0992 34.3931C96.4521 34.5561 102.237 39.9895 102.129 46.5095C102.075 47.8135 101.805 49.0632 101.318 50.2585C102.237 48.7372 102.778 46.9442 102.778 45.0968C102.94 38.5768 97.1009 33.1435 89.748 32.9805C83.909 32.8175 78.8809 36.0775 76.9886 40.6958C79.2594 36.8381 83.8549 34.2845 89.0992 34.3931Z" fill="#DD821F"/>
<path d="M72.285 41.0218C72.231 42.2714 72.1228 43.1951 72.4472 44.3904C72.8257 43.1408 73.6366 39.4461 73.6366 39.4461L74.9342 36.5121L76.0155 35.5884L77.8537 34.2301L78.0159 29.9377C74.6098 32.6544 72.3932 36.6208 72.285 41.0218Z" fill="#DD821F"/>
<path d="M105.805 40.5871L105.859 39.7178C105.859 39.6091 105.967 39.5004 106.076 39.5004H106.13C106.238 39.5004 106.346 39.6091 106.346 39.7178L106.292 40.5871C106.292 40.6958 106.184 40.8044 106.076 40.8044H106.022C105.913 40.8044 105.805 40.7501 105.805 40.5871Z" fill="#DD821F"/>
<path d="M104.292 37.2729L104.4 35.6972C104.4 35.5342 104.508 35.4255 104.67 35.4255H104.832C104.94 35.4255 105.048 35.5342 105.048 35.6972L104.94 37.2729C104.94 37.4359 104.832 37.5445 104.67 37.5445H104.508C104.4 37.4902 104.292 37.3815 104.292 37.2729Z" fill="#DD821F"/>
<path d="M102.183 34.3388L102.291 32.8175C102.291 32.6545 102.399 32.5458 102.561 32.5458H102.832C102.994 32.5458 103.102 32.7088 103.102 32.8175L102.994 34.3388C102.994 34.5018 102.886 34.6105 102.724 34.6105H102.453C102.291 34.6105 102.183 34.5018 102.183 34.3388Z" fill="#DD821F"/>
<path d="M99.0472 31.9481L99.1553 30.1008C99.1553 29.9378 99.2634 29.8291 99.4256 29.8291H99.696C99.8582 29.8291 99.9663 29.9921 99.9663 30.1551L99.8582 32.0024C99.8582 32.1654 99.75 32.2741 99.5878 32.2741H99.3175C99.1553 32.2741 99.0472 32.1111 99.0472 31.9481Z" fill="#DD821F"/>
<path d="M95.8574 30.4268L95.9655 28.3078C95.9655 28.1448 96.0736 28.0361 96.2358 28.0361H96.5062C96.6684 28.0361 96.7765 28.1991 96.7765 28.3621L96.6684 30.4811C96.6684 30.6441 96.5602 30.7528 96.398 30.7528H96.1277C95.9655 30.6985 95.8574 30.5898 95.8574 30.4268Z" fill="#DD821F"/>
<path d="M92.6675 29.4487L92.7757 27.384C92.7757 27.221 92.8838 27.1124 93.046 27.1124H93.3163C93.4785 27.1124 93.5866 27.2754 93.5866 27.4384L93.4785 29.503C93.4785 29.666 93.3704 29.7747 93.2082 29.7747H92.9379C92.7757 29.7747 92.6675 29.6117 92.6675 29.4487Z" fill="#DD821F"/>
<path d="M89.4777 29.1228L89.5858 27.0582C89.5858 26.8952 89.6939 26.7865 89.8561 26.7865H90.1265C90.2887 26.7865 90.3968 26.9495 90.3968 27.1125L90.2887 29.1772C90.2887 29.3402 90.1805 29.4488 90.0183 29.4488H89.748C89.5858 29.4488 89.4777 29.2858 89.4777 29.1228Z" fill="#DD821F"/>
<path d="M86.2338 29.2315L86.3419 27.2755C86.3419 27.1125 86.45 27.0038 86.6122 27.0038H86.8825C87.0447 27.0038 87.1529 27.1668 87.1529 27.3298L87.0447 29.2858C87.0447 29.4488 86.9366 29.5575 86.7744 29.5575H86.5041C86.3419 29.5032 86.2338 29.3945 86.2338 29.2315Z" fill="#DD821F"/>
<path d="M82.9899 29.9379L83.098 28.0362C83.098 27.8732 83.2061 27.7645 83.3683 27.7645H83.6386C83.8008 27.7645 83.909 27.9275 83.909 28.0362L83.8008 29.9379C83.8008 30.1009 83.6927 30.2095 83.5305 30.2095H83.2602C83.1521 30.2095 82.9899 30.1009 82.9899 29.9379Z" fill="#DD821F"/>
<path d="M79.746 31.5135L79.8541 29.4489C79.8541 29.2859 79.9622 29.1772 80.1244 29.1772H80.3947C80.5569 29.1772 80.6651 29.3402 80.6651 29.4489L80.5569 31.5135C80.5569 31.6765 80.4488 31.7852 80.2866 31.7852H80.0163C79.8541 31.7852 79.746 31.6765 79.746 31.5135Z" fill="#DD821F"/>
<path d="M13.4622 88.5635L13.5703 85.6295L14.2191 83.9452L14.6517 85.3579L13.4622 88.5635Z" fill="#DD821F"/>
<path d="M43.8468 89.1068L43.9549 86.2271C43.9549 86.2271 41.5761 88.6178 41.522 88.6721C41.4679 88.7264 43.8468 89.1068 43.8468 89.1068Z" fill="#FFD85A"/>
<path d="M28.4382 97.5828C20.0581 97.3655 13.3541 93.0732 13.5703 85.6295C13.7325 78.1858 20.7069 72.3178 29.087 72.4808C37.4671 72.6981 44.1712 78.8921 43.9549 86.3358C43.7927 93.8338 36.8183 97.8002 28.4382 97.5828Z" fill="url(#paint9_linear)"/>
<path d="M43.8481 89.2953C44.0254 81.8557 37.3693 75.661 28.9814 75.4592C20.5934 75.2573 13.6499 81.1247 13.4726 88.5643C13.2954 96.004 19.9514 102.199 28.3394 102.4C36.7273 102.602 43.6708 96.735 43.8481 89.2953Z" fill="#FFD85A"/>
<path d="M18.0578 79.2181C15.3004 81.6088 13.5704 84.8688 13.4622 88.5635C13.3 96.0072 19.95 102.201 28.3301 102.419C32.4931 102.527 36.2777 101.115 39.0891 98.7782L18.0578 79.2181Z" fill="#DD821F"/>
<path d="M43.1995 89.2808C43.3689 82.1711 36.9969 76.2509 28.9671 76.0577C20.9374 75.8645 14.2906 81.4713 14.1212 88.581C13.9518 95.6906 20.3239 101.611 28.3536 101.804C36.3834 101.997 43.0301 96.3904 43.1995 89.2808Z" fill="url(#paint10_linear)"/>
<path d="M40.3349 89.2113C40.4707 83.5116 35.354 78.7653 28.9063 78.6101C22.4586 78.4549 17.1216 82.9497 16.9858 88.6494C16.85 94.3491 21.9667 99.0955 28.4144 99.2506C34.8621 99.4058 40.1991 94.9111 40.3349 89.2113Z" fill="url(#paint11_linear)"/>
<path d="M40.3326 89.2154C40.3326 88.9981 40.3326 88.7264 40.3326 88.5091C39.7919 93.8881 34.6557 98.0175 28.4923 97.8545C22.3289 97.6915 17.3549 93.3448 17.0846 87.9114C17.0846 88.1288 17.0305 88.4004 17.0305 88.6178C16.8683 94.3228 22.0045 99.1041 28.4383 99.2671C34.872 99.4301 40.1704 94.9205 40.3326 89.2154Z" fill="#FFD85A"/>
<path d="M30.8712 89.8131L28.4923 87.5854C26.1675 88.1288 21.8964 89.1068 18.4903 89.9218C19.3553 92.4755 21.4098 94.6488 24.113 95.7355L30.8712 89.8131Z" fill="#FFD85A"/>
<path d="M27.1407 96.4962C27.5191 96.5505 27.8976 96.5505 28.2761 96.6048C31.0874 96.6592 33.6826 95.7355 35.5748 94.1598L31.6822 90.5195L27.1407 96.4962Z" fill="#FFD85A"/>
<path d="M25.9512 85.1948L21.4638 81.0111C19.95 82.3151 18.5984 83.7821 18.2199 85.7924L25.9512 85.1948Z" fill="#FFD85A"/>
<path d="M28.276 79.8158C34.7098 79.9788 39.846 84.7058 39.6838 90.4651C39.6297 91.6062 39.4134 92.7472 38.9809 93.7795C39.7919 92.4212 40.2244 90.8998 40.2785 89.2698C40.4407 83.5648 35.3045 78.7835 28.8708 78.6205C23.7346 78.5118 19.3012 81.3371 17.6793 85.4121C19.6797 81.9891 23.6805 79.7071 28.276 79.8158Z" fill="#DD821F"/>
<path d="M13.5704 85.6295C13.5704 86.7161 13.4622 87.5311 13.6785 88.5635C14.0029 87.4768 14.7598 84.2168 14.7598 84.2168L15.8952 81.6088L16.8683 80.7938L18.4903 79.5984L18.5984 75.8494C15.6248 78.2944 13.6785 81.7718 13.5704 85.6295Z" fill="#DD821F"/>
<path d="M42.9817 85.2491L43.0358 84.4884C43.0358 84.3798 43.1439 84.2711 43.252 84.2711H43.3061C43.4142 84.2711 43.4683 84.3798 43.4683 84.4884L43.4142 85.2491C43.4142 85.3578 43.3061 85.4664 43.198 85.4664H43.1439C43.0899 85.4664 42.9817 85.3578 42.9817 85.2491Z" fill="#DD821F"/>
<path d="M41.6301 82.3151L41.6842 80.9568C41.6842 80.8481 41.7923 80.7394 41.9004 80.7394H42.0085C42.1167 80.7394 42.2248 80.8481 42.2248 80.9568L42.1707 82.3151C42.1707 82.4238 42.0626 82.5324 41.9545 82.5324H41.8464C41.7382 82.5324 41.6301 82.4781 41.6301 82.3151Z" fill="#DD821F"/>
<path d="M39.7919 79.7615L39.846 78.4032C39.846 78.2402 39.9541 78.1315 40.1163 78.1315H40.3326C40.4407 78.1315 40.5488 78.2402 40.5488 78.4032L40.4947 79.7615C40.4947 79.9245 40.3866 80.0332 40.2244 80.0332H40.0082C39.9 80.0332 39.7919 79.9245 39.7919 79.7615Z" fill="#DD821F"/>
<path d="M37.0346 77.6968L37.1427 76.0668C37.1427 75.9038 37.2508 75.7951 37.413 75.7951H37.6293C37.7374 75.7951 37.8456 75.9038 37.8456 76.0668L37.7374 77.6968C37.7374 77.8598 37.6293 77.9684 37.4671 77.9684H37.2508C37.1427 77.9684 37.0346 77.8598 37.0346 77.6968Z" fill="#DD821F"/>
<path d="M34.2232 76.3384L34.3313 74.4911C34.3313 74.3281 34.4394 74.2194 34.6016 74.2194H34.8179C34.926 74.2194 35.0342 74.3281 35.0342 74.4911L34.926 76.3384C34.926 76.5014 34.8179 76.6101 34.6557 76.6101H34.4394C34.3313 76.6101 34.2232 76.4471 34.2232 76.3384Z" fill="#DD821F"/>
<path d="M31.4118 75.5234L31.5199 73.7304C31.5199 73.5674 31.6281 73.4587 31.7903 73.4587H32.0065C32.1147 73.4587 32.2228 73.5674 32.2228 73.7304L32.1147 75.5234C32.1147 75.6864 32.0065 75.7951 31.8443 75.7951H31.6281C31.5199 75.7408 31.4118 75.6321 31.4118 75.5234Z" fill="#DD821F"/>
<path d="M28.6004 75.1974L28.7086 73.3501C28.7086 73.1871 28.8167 73.0784 28.9789 73.0784H29.1951C29.3033 73.0784 29.4114 73.1871 29.4114 73.3501L29.3033 75.1974C29.3033 75.3604 29.1951 75.4691 29.033 75.4691H28.8167C28.7086 75.4691 28.6004 75.3604 28.6004 75.1974Z" fill="#DD821F"/>
<path d="M25.7891 75.2517L25.8972 73.5674C25.8972 73.4044 26.0053 73.2957 26.1675 73.2957H26.3838C26.4919 73.2957 26.6 73.4044 26.6 73.5674L26.4919 75.2517C26.4919 75.4147 26.3838 75.5234 26.2216 75.5234H26.0053C25.8972 75.5234 25.7891 75.4147 25.7891 75.2517Z" fill="#DD821F"/>
<path d="M22.9776 75.9037L23.0858 74.2737C23.0858 74.1107 23.1939 74.0021 23.3561 74.0021H23.5723C23.6805 74.0021 23.7886 74.1107 23.7886 74.2737L23.6805 75.9037C23.6805 76.0667 23.5723 76.1754 23.4102 76.1754H23.1939C23.0858 76.1754 22.9776 76.0667 22.9776 75.9037Z" fill="#DD821F"/>
<path d="M20.1122 77.3164L20.2203 75.5234C20.2203 75.3604 20.3285 75.2518 20.4907 75.2518H20.7069C20.8151 75.2518 20.9232 75.3604 20.9232 75.5234L20.8151 77.3164C20.8151 77.4794 20.7069 77.5881 20.5447 77.5881H20.3285C20.2203 77.5338 20.1122 77.4251 20.1122 77.3164Z" fill="#DD821F"/>
<defs>
<linearGradient id="paint0_linear" x1="46.8711" y1="4.61462" x2="68.7003" y2="31.0564" gradientUnits="userSpaceOnUse">
<stop stop-color="#FFB200"/>
<stop offset="1" stop-color="#FF5800"/>
</linearGradient>
<linearGradient id="paint1_linear" x1="47.0735" y1="30.8087" x2="62.239" y2="2.15259" gradientUnits="userSpaceOnUse">
<stop stop-color="#FE8E27"/>
<stop offset="1" stop-color="#FFCC4A"/>
</linearGradient>
<linearGradient id="paint2_linear" x1="49.6696" y1="28.53" x2="61.8931" y2="5.49512" gradientUnits="userSpaceOnUse">
<stop stop-color="#FE8E27"/>
<stop offset="1" stop-color="#FFCC4A"/>
</linearGradient>
<linearGradient id="paint3_linear" x1="75.0112" y1="101.551" x2="137.922" y2="102.76" gradientUnits="userSpaceOnUse">
<stop stop-color="#5761D7"/>
<stop offset="0.0397918" stop-color="#5C66D9"/>
<stop offset="0.086699" stop-color="#6A73DF"/>
<stop offset="0.1372" stop-color="#8289E8"/>
<stop offset="0.1899" stop-color="#A3A7F5"/>
<stop offset="0.2237" stop-color="#BCBEFF"/>
</linearGradient>
<linearGradient id="paint4_linear" x1="77.5218" y1="77.1636" x2="111.753" y2="136.359" gradientUnits="userSpaceOnUse">
<stop stop-color="#FFB200"/>
<stop offset="1" stop-color="#FF5800"/>
</linearGradient>
<linearGradient id="paint5_linear" x1="19.8847" y1="12.8882" x2="114.153" y2="95.3728" gradientUnits="userSpaceOnUse">
<stop stop-color="#A3D6FF"/>
<stop offset="1" stop-color="#A3A5FF"/>
</linearGradient>
<linearGradient id="paint6_linear" x1="72.2824" y1="26.1293" x2="100.289" y2="60.1455" gradientUnits="userSpaceOnUse">
<stop stop-color="#FFB200"/>
<stop offset="1" stop-color="#FF5800"/>
</linearGradient>
<linearGradient id="paint7_linear" x1="72.5851" y1="59.7953" x2="92.0836" y2="22.9517" gradientUnits="userSpaceOnUse">
<stop stop-color="#FE8E27"/>
<stop offset="1" stop-color="#FFCC4A"/>
</linearGradient>
<linearGradient id="paint8_linear" x1="75.9002" y1="56.8486" x2="91.5688" y2="27.234" gradientUnits="userSpaceOnUse">
<stop stop-color="#FE8E27"/>
<stop offset="1" stop-color="#FFCC4A"/>
</linearGradient>
<linearGradient id="paint9_linear" x1="13.5652" y1="72.4775" x2="38.2286" y2="102.327" gradientUnits="userSpaceOnUse">
<stop stop-color="#FFB200"/>
<stop offset="1" stop-color="#FF5800"/>
</linearGradient>
<linearGradient id="paint10_linear" x1="13.799" y1="102.106" x2="30.9001" y2="69.7457" gradientUnits="userSpaceOnUse">
<stop stop-color="#FE8E27"/>
<stop offset="1" stop-color="#FFCC4A"/>
</linearGradient>
<linearGradient id="paint11_linear" x1="16.7274" y1="99.4922" x2="30.425" y2="73.5324" gradientUnits="userSpaceOnUse">
<stop stop-color="#FE8E27"/>
<stop offset="1" stop-color="#FFCC4A"/>
</linearGradient>
</defs>
</svg>
