<svg width="10" height="10" viewBox="0 0 10 10" fill="none" xmlns="http://www.w3.org/2000/svg">
<path d="M9.05093 1.8H7.47685V0.8C7.47685 0.35875 7.12392 0 6.68982 0H2.75463C2.32053 0 1.96759 0.35875 1.96759 0.8V1.8H0.393519C0.175854 1.8 0 1.97875 0 2.2V2.6C0 2.655 0.0442708 2.7 0.0983796 2.7H0.841146L1.14489 9.2375C1.16457 9.66375 1.51136 10 1.9307 10H7.51375C7.93432 10 8.27988 9.665 8.29955 9.2375L8.6033 2.7H9.34607C9.40018 2.7 9.44445 2.655 9.44445 2.6V2.2C9.44445 1.97875 9.26859 1.8 9.05093 1.8ZM6.59144 1.8H2.85301V0.9H6.59144V1.8Z" fill="white"/>
</svg>
