<svg width="17" height="17" viewBox="0 0 17 17" fill="none" xmlns="http://www.w3.org/2000/svg">
<path d="M16.947 7.713C16.911 7.622 16.86 7.539 16.795 7.469L14.695 5.219C14.422 4.927 13.979 4.927 13.705 5.219C13.432 5.513 13.432 5.987 13.705 6.28L14.611 7.25H10.7C10.312 7.25 9.99902 7.586 9.99902 8C9.99902 8.414 10.312 8.75 10.699 8.75H14.609L13.705 9.72C13.431 10.013 13.431 10.488 13.705 10.78C13.841 10.927 14.02 11 14.2 11C14.379 11 14.558 10.927 14.695 10.78L16.795 8.53C16.859 8.462 16.91 8.379 16.946 8.286C17.016 8.103 17.016 7.896 16.946 7.713H16.947Z" fill="url(#paint0_linear)"/>
<path d="M12.278 9.917C11.878 9.917 11.556 10.234 11.556 10.625V14.167H8.666V2.833C8.666 2.521 8.457 2.245 8.152 2.155L5.643 1.417H11.556V4.958C11.556 5.349 11.878 5.667 12.278 5.667C12.678 5.667 13 5.349 13 4.958V0.708C13 0.318 12.677 0 12.278 0H0.722C0.696 0 0.673 0.01 0.648 0.013C0.614 0.017 0.583 0.023 0.55 0.03C0.475 0.05 0.406 0.08 0.342 0.118C0.326 0.128 0.306 0.128 0.292 0.14C0.284 0.144 0.282 0.152 0.276 0.157C0.2 0.217 0.133 0.292 0.085 0.38C0.075 0.4 0.073 0.42 0.065 0.44C0.042 0.494 0.017 0.546 0.008 0.606C0.004 0.626 0.011 0.646 0.01 0.667C0.01 0.681 0 0.694 0 0.708V14.875C0 15.213 0.243 15.503 0.58 15.569L7.803 16.986C7.85 16.996 7.898 17 7.944 17C8.11 17 8.272 16.944 8.402 16.84C8.569 16.705 8.667 16.504 8.667 16.292V15.583H12.277C12.677 15.583 13 15.266 13 14.875V10.625C13 10.234 12.677 9.917 12.278 9.917Z" fill="url(#paint1_linear)"/>
<defs>
<linearGradient id="paint0_linear" x1="9.82182" y1="5" x2="17.5902" y2="10.0984" gradientUnits="userSpaceOnUse">
<stop stop-color="#FE8E27"/>
<stop offset="1" stop-color="#FFCC4A"/>
</linearGradient>
<linearGradient id="paint1_linear" x1="-0.329114" y1="1.01969e-08" x2="17.0897" y2="7.49382" gradientUnits="userSpaceOnUse">
<stop stop-color="#FE8E27"/>
<stop offset="1" stop-color="#FFCC4A"/>
</linearGradient>
</defs>
</svg>
