<svg width="21" height="21" viewBox="0 0 21 21" fill="none" xmlns="http://www.w3.org/2000/svg">
<path d="M20.8665 10.0915C20.6789 9.8349 16.2089 3.80769 10.4999 3.80769C4.79088 3.80769 0.320661 9.8349 0.13326 10.0913C-0.04442 10.3348 -0.04442 10.665 0.13326 10.9084C0.320661 11.1651 4.79088 17.1923 10.4999 17.1923C16.2089 17.1923 20.6789 11.165 20.8665 10.9087C21.0445 10.6652 21.0445 10.3348 20.8665 10.0915ZM10.4999 15.8077C6.2946 15.8077 2.65236 11.8073 1.57418 10.4995C2.65097 9.19059 6.28557 5.19229 10.4999 5.19229C14.705 5.19229 18.347 9.19198 19.4256 10.5005C18.3488 11.8094 14.7142 15.8077 10.4999 15.8077Z" fill="url(#paint0_linear)"/>
<path d="M10.4996 6.34615C8.20917 6.34615 6.3457 8.20962 6.3457 10.5C6.3457 12.7904 8.20917 14.6539 10.4996 14.6539C12.79 14.6539 14.6534 12.7904 14.6534 10.5C14.6534 8.20962 12.79 6.34615 10.4996 6.34615ZM10.4996 13.2692C8.97255 13.2692 7.73035 12.027 7.73035 10.5C7.73035 8.97304 8.9726 7.7308 10.4996 7.7308C12.0265 7.7308 13.2688 8.97304 13.2688 10.5C13.2688 12.027 12.0266 13.2692 10.4996 13.2692Z" fill="url(#paint1_linear)"/>
<defs>
<linearGradient id="paint0_linear" x1="0" y1="3.80769" x2="12.1329" y2="22.8438" gradientUnits="userSpaceOnUse">
<stop stop-color="#FFB200"/>
<stop offset="1" stop-color="#FF5800"/>
</linearGradient>
<linearGradient id="paint1_linear" x1="6.3457" y1="6.34615" x2="14.6534" y2="14.6539" gradientUnits="userSpaceOnUse">
<stop stop-color="#FFB200"/>
<stop offset="1" stop-color="#FF5800"/>
</linearGradient>
</defs>
</svg>
