<?xml version="1.0" encoding="utf-8"?>
<!-- Generator: Adobe Illustrator 23.1.1, SVG Export Plug-In . SVG Version: 6.00 Build 0)  -->
<svg version="1.1" id="Слой_1" xmlns="http://www.w3.org/2000/svg" xmlns:xlink="http://www.w3.org/1999/xlink" x="0px" y="0px"
	 viewBox="0 0 1080 1080" style="enable-background:new 0 0 1080 1080;" xml:space="preserve">
<style type="text/css">
	.st0{fill:#4F4F4F;}
	.st1{fill:#2A3A8F;}
	.st2{fill:#29AAE2;}
	.st3{fill:#A5A4A4;}
</style>
<g>
	<g>
		<path class="st0" d="M130.9,819.3c0,11-3.9,19.9-11.7,26.5c-7.5,6.2-16.8,9.4-28.1,9.4H2.4v-20.2H91c5.6,0,10.4-1.2,14.5-3.7
			c4.7-3.1,7-7.2,7-12.4c0-5.2-2.4-9.2-7.1-12.1c-4-2.4-8.7-3.6-14.3-3.6H36.2c-10.1,0-18.5-2.8-25.4-8.3C3.6,788.8,0,780.8,0,771
			c0-9.8,3.6-17.6,10.9-23.7c6.8-5.6,15.3-8.3,25.4-8.3h87.6v20.2H36.2c-3.9,0-7.1,1.1-9.9,3.2c-2.7,2.2-4.1,5-4.1,8.7
			c0,3.7,1.4,6.6,4.1,8.7c2.7,2,6,3.1,9.9,3.1H91c11.2,0,20.6,3.2,28.1,9.7C126.9,799.4,130.9,808.3,130.9,819.3z"/>
		<path class="st0" d="M171.9,855.2h-20.2V739h20.2V855.2z"/>
		<path class="st0" d="M327,780.8c0,12.7-4.7,23-14,30.8c-8.6,7.3-19.5,10.9-32.5,10.9h-51.2v-20.1h54.5c6.7,0,12.3-2,16.8-6
			c4.5-4,6.8-9.2,6.8-15.8c0-6.6-2.3-11.8-6.8-15.7c-4.5-3.9-10.2-5.8-16.8-5.8h-66.4v96h-20.2V739h83.4c13,0,23.9,3.7,32.5,11.1
			C322.4,757.7,327,768,327,780.8z"/>
		<path class="st0" d="M465.9,819.3c0,11-3.9,19.9-11.7,26.5c-7.5,6.2-16.8,9.4-28.1,9.4h-88.7v-20.2h88.7c5.6,0,10.4-1.2,14.5-3.7
			c4.7-3.1,7-7.2,7-12.4c0-5.2-2.4-9.2-7.1-12.1c-4-2.4-8.7-3.6-14.3-3.6h-54.8c-10.1,0-18.5-2.8-25.4-8.3c-7.3-6-10.9-14-10.9-23.8
			c0-9.8,3.6-17.6,10.9-23.7c6.8-5.6,15.3-8.3,25.4-8.3h87.6v20.2h-87.6c-3.9,0-7.1,1.1-9.9,3.2c-2.7,2.2-4.1,5-4.1,8.7
			c0,3.7,1.4,6.6,4.1,8.7c2.7,2,6,3.1,9.9,3.1h54.8c11.2,0,20.6,3.2,28.1,9.7C462,799.4,465.9,808.3,465.9,819.3z"/>
		<path class="st0" d="M506.9,855.2h-20.2V739h20.2V855.2z"/>
		<path class="st0" d="M664,855.2h-73.8c-16.9,0-30.9-5.6-41.9-16.8c-11.1-11.2-16.6-25.4-16.6-42.5c0-17,5.5-30.7,16.4-41.2
			c10.9-10.4,25-15.7,42.1-15.7h65.5v20.2h-65.5c-11.1,0-20.3,3.6-27.5,10.7c-7.2,7.1-10.8,16.3-10.8,27.6
			c0,11.1,3.6,20.1,10.8,27.1c7.2,6.9,16.4,10.4,27.5,10.4h53.6v-25.4h-55.1V791H664V855.2z"/>
		<path class="st0" d="M798.4,845.1c0,7.5-2.6,11.2-7.7,11.2c-3.7,0-7.9-2.3-12.6-7l-74.5-74.9v80.7h-20.1V749
			c0-2.7,0.7-5.1,2.2-7.1c1.5-2,3.6-3,6.3-3c3.7,0,7.6,2,11.6,6l74.5,74.7V739h20.2V845.1z"/>
		<path class="st0" d="M975.2,855.2l-26-0.2l-19.6-32.5h-55.1l12.3-20.1h30.8l-20.2-33.5L844.8,855h-26l63.1-105
			c1.6-2.7,3.8-5.2,6.6-7.5c3.4-2.6,6.5-3.9,9.2-3.9c2.9,0,6,1.2,9.2,3.7c2.7,2.2,4.9,4.7,6.6,7.7L975.2,855.2z"/>
		<path class="st0" d="M1080,855.2H979.8V739h20.2v96h80V855.2z"/>
	</g>
	<path class="st1" d="M563,459.7h-14.8v-26.1c9.6-3.4,16.4-12.5,16.4-23.3c0-13.6-11.1-24.7-24.7-24.7s-24.7,11.1-24.7,24.7
		c0,10.7,6.9,19.9,16.4,23.3v26.1h-14.8L484,608.3l-18.1,11v0.8l74.7-3.4l73.3,3.4v-0.8l-18.1-11L563,459.7z M539.9,402.1
		c4.5,0,8.2,3.7,8.2,8.2c0,4.5-3.7,8.2-8.2,8.2c-4.5,0-8.2-3.7-8.2-8.2C531.7,405.8,535.4,402.1,539.9,402.1z M563.4,537.6
		l12.4,55.9l-51.1-34.2L563.4,537.6z M514.6,546.1l11.3-51.2l31.7,27.1L514.6,546.1z M549.8,476.1l4.8,21.6l-24.6-21l0.1-0.6H549.8z
		 M509.5,568.9l58.7,39.3h-67.4L509.5,568.9z"/>
	<g>
		<path class="st2" d="M475.8,468.9c-17.2-17.2-26.6-39.9-26.6-64.1c0-24.2,9.5-47,26.6-64.1l-14.3-14.3c-21,21-32.5,48.8-32.5,78.4
			s11.6,57.4,32.5,78.4L475.8,468.9z"/>
		<path class="st2" d="M604.1,468.9l14.3,14.3c21-21,32.5-48.8,32.5-78.4s-11.5-57.4-32.5-78.4l-14.3,14.3
			c17.2,17.2,26.6,39.9,26.6,64.1C630.7,428.9,621.2,451.7,604.1,468.9z"/>
		<path class="st2" d="M490,454.6l14.3-14.3c-9.5-9.5-14.8-22.2-14.8-35.6s5.3-26.1,14.8-35.6L490,354.8
			c-13.3,13.3-20.7,31.1-20.7,49.9C469.3,423.6,476.7,441.3,490,454.6z"/>
		<path class="st2" d="M589.8,454.6c13.3-13.3,20.7-31.1,20.7-49.9c0-18.8-7.3-36.6-20.7-49.9l-14.3,14.3
			c9.5,9.5,14.8,22.2,14.8,35.6s-5.3,26.1-14.8,35.6L589.8,454.6z"/>
	</g>
	<path class="st1" d="M539.9,619c205.1,0,380.9,30.3,454.6,73.3c-50.7-45-235-78.4-454.6-78.4S136,647.3,85.3,692.3
		C159,649.3,334.8,619,539.9,619z"/>
	<path class="st3" d="M353.5,418.5c0-102.9,83.4-186.4,186.4-186.4s186.4,83.4,186.4,186.4c0,50.2-19.8,95.7-52.1,129.3
		c34.3-34.4,55.6-81.8,55.6-134.2c0-104.9-85-189.9-189.9-189.9S350,308.6,350,413.5c0,52.4,21.2,99.9,55.6,134.2
		C373.4,514.2,353.5,468.7,353.5,418.5z"/>
</g>
</svg>
