<svg width="17" height="12" viewBox="0 0 17 12" fill="none" xmlns="http://www.w3.org/2000/svg">
<path d="M15.6 0H1.2C0.88174 0 0.576515 0.126428 0.351472 0.351472C0.126428 0.576515 0 0.88174 0 1.2V10.8C0 11.1183 0.126428 11.4235 0.351472 11.6485C0.576515 11.8736 0.88174 12 1.2 12H15.6C15.9183 12 16.2235 11.8736 16.4485 11.6485C16.6736 11.4235 16.8 11.1183 16.8 10.8V1.2C16.8 0.88174 16.6736 0.576515 16.4485 0.351472C16.2235 0.126428 15.9183 0 15.6 0ZM14.28 1.2L8.4 5.268L2.52 1.2H14.28ZM1.2 10.8V1.746L8.058 6.492C8.15844 6.56168 8.27776 6.59901 8.4 6.59901C8.52224 6.59901 8.64156 6.56168 8.742 6.492L15.6 1.746V10.8H1.2Z" fill="url(#paint0_linear)"/>
<defs>
<linearGradient id="paint0_linear" x1="-0.404051" y1="2.06985e-07" x2="15.1272" y2="12.4775" gradientUnits="userSpaceOnUse">
<stop stop-color="#02C34D"/>
<stop offset="1" stop-color="#91FF8C"/>
</linearGradient>
</defs>
</svg>
