<svg width="104" height="122" viewBox="0 0 104 122" fill="none" xmlns="http://www.w3.org/2000/svg">
<g clip-path="url(#clip0)">
<g opacity="0.2">
<path opacity="0.0909091" d="M30.7119 94.84L33.9401 93.0514C34.0709 92.9641 40.1347 89.6487 40.2656 89.7359L42.3595 88.7326C43.3193 88.2091 44.6716 87.991 45.8931 87.991C46.9401 87.991 48.0307 88.2963 48.7723 88.7326L63.3427 97.0212L66.4401 98.8098L84.1515 108.887C84.7186 109.236 85.2421 109.716 85.5474 110.239C85.7656 110.632 85.8964 111.068 85.8964 111.504C85.9401 112.682 85.1984 113.773 83.9333 114.514L80.7052 116.303C80.5743 116.39 74.5105 119.706 74.3797 119.619L72.2857 120.622C71.326 121.145 69.9736 121.363 68.7521 121.363C67.7052 121.363 66.6146 121.058 65.8729 120.622L51.3025 112.333L48.2052 110.545L30.4938 100.467C29.9266 100.118 29.4031 99.6386 29.0978 99.1151C28.8797 98.7225 28.7488 98.2863 28.7488 97.85C28.7052 96.6722 29.4468 95.5816 30.7119 94.84Z" fill="#00052C"/>
<path opacity="0.1818" d="M31.0604 95.1007L34.2013 93.3557C34.4631 93.2248 40.1342 90.2148 40.3523 90.3456L42.3591 89.5168C43.1879 89.0369 44.6711 88.9933 45.7617 88.9933C46.6779 88.9933 47.8993 89.3859 48.5537 89.7785L62.7315 97.849L65.7416 99.5503L82.9295 109.366C83.453 109.671 84.0201 110.195 84.2819 110.631C84.5 111.023 84.6309 111.416 84.6745 111.852C84.7617 112.987 84.0638 114.077 82.7987 114.775L79.6577 116.52C79.396 116.651 73.7248 119.661 73.5067 119.53L71.5 120.359C70.6711 120.839 69.1879 120.883 68.0973 120.883C67.1812 120.883 65.9597 120.49 65.3054 120.097L51.1275 112.027L48.1174 110.325L30.9295 100.51C30.406 100.205 29.8389 99.6812 29.5772 99.245C29.3591 98.8523 29.2282 98.4597 29.1846 98.0235C29.0973 96.8893 29.7517 95.7987 31.0604 95.1007Z" fill="#00052C"/>
<path opacity="0.2727" d="M31.3658 95.3188L34.4195 93.661C34.8121 93.4429 40.0906 90.7818 40.4396 90.9563L42.4027 90.302C43.1443 89.8657 44.7148 89.9966 45.6745 89.9966C46.5034 89.9966 47.7685 90.4765 48.3792 90.8255L62.1208 98.6778L65.0436 100.336L81.7081 109.846C82.1443 110.107 82.7987 110.674 83.0604 111.067C83.2785 111.416 83.453 111.809 83.4967 112.201C83.5839 113.292 82.9732 114.339 81.7081 115.037L78.6544 116.695C78.2618 116.913 72.9832 119.574 72.6342 119.399L70.6712 120.054C69.9295 120.49 68.3591 120.359 67.3993 120.359C66.5705 120.359 65.3054 119.879 64.6946 119.53L50.953 111.678L48.0302 110.02L31.3658 100.51C30.9295 100.248 30.2752 99.6812 30.0134 99.2886C29.7953 98.9396 29.6208 98.5469 29.5772 98.1543C29.4899 97.1073 30.1007 96.0604 31.3658 95.3188Z" fill="#00052C"/>
<path opacity="0.3636" d="M31.6711 95.5806L34.6376 93.9665C35.1611 93.6611 40.047 91.3054 40.5268 91.5672L42.4463 91.0873C43.1007 90.6947 44.7584 90.9564 45.5872 90.9564C46.3288 90.9564 47.6376 91.5235 48.1611 91.7853L61.4664 99.3759L64.302 100.99L80.4429 110.195C80.8356 110.413 81.5335 110.98 81.7517 111.329C81.9698 111.678 82.1443 112.027 82.2315 112.42C82.3624 113.467 81.7517 114.47 80.5302 115.168L77.5638 116.782C77.0403 117.087 72.1544 119.443 71.6745 119.181L69.755 119.661C69.1007 120.054 67.4429 119.792 66.6141 119.792C65.8725 119.792 64.5638 119.225 64.0403 118.963L50.7349 111.373L47.8993 109.758L31.7584 100.554C31.3658 100.336 30.6678 99.7249 30.4497 99.4195C30.2315 99.0705 30.057 98.7215 29.9698 98.3289C29.8389 97.3256 30.4497 96.3222 31.6711 95.5806Z" fill="#00052C"/>
<path opacity="0.4545" d="M32.0202 95.8423L34.8994 94.3155C35.5537 93.9229 40.0907 91.9162 40.6578 92.2215L42.49 91.9598C43.0571 91.6544 44.8021 92.047 45.5001 92.047C46.1108 92.047 47.5504 92.6578 47.9866 92.9195L60.8558 100.292L63.6041 101.862L79.2215 110.805C79.5705 111.024 80.3121 111.591 80.5303 111.896C80.7484 112.245 80.9665 112.55 81.0101 112.943C81.1846 113.903 80.6175 114.95 79.396 115.604L76.5168 117.131C75.8625 117.524 71.3256 119.53 70.7584 119.225L68.9262 119.487C68.3591 119.792 66.6142 119.399 65.9162 119.399C65.3054 119.399 63.8658 118.789 63.4296 118.527L50.5605 111.154L47.8121 109.584L32.1947 100.641C31.8457 100.423 31.1041 99.8558 30.886 99.5504C30.6678 99.2014 30.4497 98.896 30.4061 98.5034C30.2316 97.5437 30.7987 96.5403 32.0202 95.8423Z" fill="#00052C"/>
<path opacity="0.5455" d="M32.3255 96.1041L35.1175 94.6209C35.9027 94.1847 40.047 92.4833 40.7014 92.8759L42.49 92.7887C42.9698 92.5269 44.802 93.094 45.3692 93.094C45.8927 93.094 47.3759 93.792 47.7249 94.0102L60.1578 101.121L62.8188 102.648L77.9128 111.285C78.2182 111.46 79.047 112.071 79.1779 112.289C79.396 112.594 79.6141 112.899 79.7014 113.248C79.9195 114.165 79.3524 115.168 78.1745 115.822L75.4698 117.349C74.6846 117.785 70.5403 119.487 69.8859 119.094L68.0974 119.181C67.6175 119.443 65.7853 118.876 65.2182 118.876C64.6947 118.876 63.2114 118.178 62.8625 117.96L50.4296 110.849L47.7685 109.322L32.6745 100.685C32.3692 100.51 31.5403 99.8994 31.4094 99.6813C31.1913 99.3759 30.9732 99.0706 30.8859 98.7216C30.6242 97.7618 31.1477 96.8021 32.3255 96.1041Z" fill="#00052C"/>
<path opacity="0.6364" d="M32.6745 96.3658L35.3792 94.9698C36.2953 94.4463 40.0469 93.0504 40.8322 93.5302L42.5335 93.6175C42.9261 93.3994 44.802 94.0973 45.2818 94.0973C45.7181 94.0973 47.2449 94.8826 47.5503 95.0571L59.5469 101.95L62.1208 103.433L76.6912 111.809C76.9094 111.94 77.8255 112.594 77.9563 112.768C78.1745 113.074 78.4362 113.336 78.5234 113.685C78.7852 114.557 78.2617 115.517 77.0839 116.171L74.3792 117.567C73.463 118.091 69.7114 119.487 68.9261 119.007L67.2248 118.919C66.8322 119.138 64.9563 118.44 64.4765 118.44C64.0402 118.44 62.5134 117.654 62.208 117.48L50.2114 110.587L47.6375 109.104L33.0671 100.728C32.849 100.597 31.9329 99.943 31.802 99.7685C31.5839 99.4631 31.3221 99.2014 31.2349 98.8524C31.0167 97.9799 31.4966 97.0202 32.6745 96.3658Z" fill="#00052C"/>
<path opacity="0.7273" d="M32.9799 96.6275L35.5973 95.2752C36.6443 94.6645 40.0034 93.6175 40.9195 94.141L42.5772 94.4463C42.8389 94.2718 44.8457 95.1443 45.1947 95.1443C45.5 95.1443 47.1577 95.9732 47.3759 96.1041L58.9799 102.779L61.4665 104.218L75.5134 112.289C75.6879 112.376 76.6913 113.03 76.7785 113.161C77.0839 113.423 77.2584 113.685 77.3893 113.99C77.651 114.819 77.2148 115.735 76.0806 116.433L73.4631 117.785C72.4161 118.396 69.0571 119.443 68.141 118.919L66.4832 118.614C66.2215 118.789 64.2148 117.916 63.8658 117.916C63.5604 117.916 61.9027 117.087 61.6846 116.956L50.0806 110.282L47.594 108.842L33.5034 100.772C33.3289 100.685 32.3255 100.03 32.2383 99.8994C31.9329 99.6376 31.7584 99.3759 31.6275 99.0705C31.3658 98.198 31.8457 97.2819 32.9799 96.6275Z" fill="#00052C"/>
<path opacity="0.8182" d="M33.2853 96.8893L35.8155 95.6242C36.9934 94.9263 39.9598 94.1846 41.0068 94.7954L42.5773 95.2752C42.7518 95.188 44.8457 96.1914 45.1075 96.1914C45.3256 96.1914 47.0269 97.1075 47.1578 97.1947L58.3256 103.607L60.7249 104.96L74.2484 112.769C74.3793 112.856 75.4263 113.467 75.4699 113.597C75.7752 113.816 75.9934 114.077 76.0806 114.383C76.386 115.168 75.9497 116.084 74.8591 116.738L72.3289 118.003C71.1511 118.701 68.1846 119.443 67.1377 118.832L65.5672 118.352C65.3927 118.44 63.2987 117.436 63.037 117.436C62.8189 117.436 61.1175 116.52 60.9867 116.433L49.8189 110.02L47.4195 108.668L33.8961 100.859C33.7652 100.772 32.7182 100.161 32.6746 100.03C32.3692 99.8122 32.1511 99.5504 32.0638 99.245C31.7585 98.4162 32.1947 97.5001 33.2853 96.8893Z" fill="#00052C"/>
<path opacity="0.9091" d="M33.6343 97.1511L36.0772 95.9296C37.3859 95.188 39.9598 94.7517 41.094 95.4061L42.6208 96.0605C42.7081 96.0168 44.8893 97.1511 45.0202 97.1511C45.1074 97.1511 46.896 98.1544 46.9833 98.1981L57.7148 104.393L59.9833 105.701L72.9833 113.205C73.0269 113.248 74.1611 113.903 74.2047 113.946C74.5101 114.165 74.7282 114.383 74.8591 114.688C75.2081 115.43 74.8155 116.302 73.7249 116.956L71.2819 118.178C69.9732 118.92 67.3994 119.356 66.2651 118.701L64.7383 118.047C64.651 118.091 62.4698 116.956 62.339 116.956C62.2517 116.956 60.4631 115.953 60.3759 115.909L49.6443 109.715L47.3759 108.406L34.3759 100.903C34.3322 100.859 33.198 100.205 33.1544 100.161C32.849 99.943 32.6309 99.7249 32.5 99.4195C32.151 98.6343 32.5437 97.7618 33.6343 97.1511Z" fill="#00052C"/>
<path opacity="0.2" d="M65.349 118.571L49.4698 109.409L33.5906 100.248C32.3255 99.5068 32.5 98.2417 33.9396 97.4128L36.2953 96.2786C37.7349 95.4497 39.9161 95.3625 41.1812 96.0605L57.0604 105.222L72.9396 114.383C74.2047 115.124 74.0302 116.389 72.5906 117.218L70.2349 118.352C68.7953 119.181 66.6141 119.269 65.349 118.571Z" fill="#00052C"/>
</g>
<path d="M66.396 116.389L40.6577 100.379C37.7349 98.5906 36.7315 93.8792 38.3456 89.8658L67.0067 19.0638C67.8356 17.0134 66.0034 16.5336 67.5302 15.8356C67.5738 15.7919 70.802 14.7886 70.8893 14.7886C72.3725 14.396 73.8557 14.2215 75.2081 15.094L100.946 31.104C103.869 32.8926 104.872 37.604 103.258 41.6174L74.5973 112.419C73.7248 114.557 72.2852 116.04 70.7148 116.695C70.6275 116.738 66.7013 118.003 66.6141 118.003C65.3054 118.352 67.7047 117.174 66.396 116.389Z" fill="url(#paint0_linear)"/>
<path d="M100.597 31.1913L74.8591 15.1812C73.5068 14.3087 98.6343 31.6712 98.6343 31.6712C101.557 33.4598 102.56 38.1712 100.946 42.1846C100.946 42.1846 73.3759 114.644 74.2484 112.507L102.909 41.7047C104.567 37.7349 103.52 33.0235 100.597 31.1913Z" fill="url(#paint1_linear)"/>
<path opacity="0.6" d="M63.561 117.306L37.8228 101.296C34.9 99.5075 33.8966 94.7961 35.5107 90.7826L64.1282 19.9806C65.7423 15.9672 69.4067 14.2222 72.3295 16.0108L98.0678 32.0209C100.991 33.8095 101.994 38.5209 100.38 42.5343L71.7188 113.336C70.1047 117.306 66.4402 119.095 63.561 117.306Z" fill="url(#paint2_radial)"/>
<path d="M62.8624 117.524L37.1242 101.514C34.2014 99.7258 33.198 95.0144 34.8121 91.001L63.4732 20.1989C65.0873 16.1855 68.7517 14.4405 71.6745 16.2291L97.4128 32.2392C100.336 34.0278 101.339 38.7392 99.7249 42.7526L71.0638 113.555C69.4497 117.568 65.7853 119.357 62.8624 117.524Z" fill="url(#paint3_linear)"/>
<path d="M35.5101 91.4799L64.2148 20.5906C65.6544 17.1007 68.8389 15.5302 71.4128 17.1007L97.0202 33.0235C99.5504 34.594 100.466 38.7383 99.0705 42.2282L70.3658 113.117C68.9262 116.607 65.7416 118.178 63.1678 116.607L37.5604 100.685C34.9866 99.1141 34.0705 95.0135 35.5101 91.4799Z" fill="url(#paint4_linear)"/>
<path d="M36.6007 91.9597L65.1309 21.463C66.3088 18.5402 69.0135 17.2315 71.1511 18.5402L96.1914 34.1141C98.3289 35.4228 99.0705 38.9127 97.8927 41.8355L69.3625 112.332C68.1846 115.255 65.4799 116.564 63.3424 115.255L38.3021 99.6812C36.1645 98.3288 35.4229 94.8825 36.6007 91.9597Z" fill="url(#paint5_linear)"/>
<path opacity="0.96" d="M92.7013 32.6745C92.0906 34.1577 90.6074 34.7248 89.3859 33.9396L75.3825 25.2147C74.1174 24.4295 73.5939 22.5973 74.2047 21.1577L71.2382 19.3255C69.2315 18.0604 66.8322 18.9765 65.8725 21.3758L36.9496 92.6577C35.9899 95.057 36.8188 97.9798 38.8255 99.2449L63.2986 114.47C65.3053 115.735 67.7047 114.819 68.6644 112.419L97.5436 41.0939C98.5033 38.6946 97.6745 35.7718 95.6678 34.5067L92.7013 32.6745Z" fill="url(#paint6_linear)"/>
<path d="M93.9664 59.1544L95.8859 54.3557C96.1476 53.745 96.8456 53.047 97.5436 52.7853C98.198 52.5235 98.547 52.8289 98.2852 53.4396L96.3658 58.2383C96.104 58.849 95.406 59.547 94.7081 59.8088C94.0537 60.0705 93.7047 59.7651 93.9664 59.1544Z" fill="url(#paint7_linear)"/>
<path d="M94.3155 59.7214C94.0101 59.7214 94.0538 59.4161 94.141 59.1543L96.0605 54.3557C96.2786 53.8322 96.933 53.1778 97.5437 52.9597C97.6746 52.9161 97.7618 52.8724 97.8491 52.8724C98.1544 52.8724 98.1108 53.1778 98.0236 53.4396L96.1041 58.2382C95.886 58.7617 95.2316 59.416 94.6209 59.6342C94.5336 59.7214 94.4028 59.7214 94.3155 59.7214Z" fill="url(#paint8_linear)"/>
<path d="M94.4028 59.3289L96.3222 54.5302C96.5404 54.0068 97.1947 53.3524 97.8054 53.1343C97.8927 53.0907 98.0236 53.0906 98.1108 53.0906C98.0672 53.0034 98.0236 52.9598 97.8927 52.9598C97.8054 52.9598 97.7182 53.0034 97.5873 53.047C97.0202 53.2651 96.3222 53.9195 96.1041 54.443L94.1846 59.2417C94.0974 59.5034 94.0538 59.8088 94.3591 59.8088H94.4028C94.3155 59.6343 94.3591 59.4598 94.4028 59.3289Z" fill="url(#paint9_linear)"/>
<path d="M95.6678 34.5503L92.7013 32.7181C92.0906 34.2013 90.6074 34.7685 89.3859 33.9832L75.3825 25.2584C74.1174 24.4732 73.5939 22.6409 74.2047 21.2013L71.2382 19.3691C69.2315 18.104 66.8322 19.0201 65.8725 21.4195L36.9496 92.6577C35.9899 95.0571 36.8188 97.9799 38.8255 99.245L63.2986 114.47C65.3053 115.735 67.7047 114.819 68.6644 112.419L97.5436 41.094C98.547 38.7383 97.6745 35.8154 95.6678 34.5503ZM68.3154 112.419C68.01 113.161 67.5738 113.772 67.0067 114.164C66.4832 114.513 65.9161 114.732 65.3053 114.688C64.7382 114.688 64.1711 114.513 63.6476 114.164L39.1745 98.9396C37.255 97.7618 36.4262 94.9262 37.3859 92.6577L66.2215 21.3758C66.7886 19.9362 67.9664 19.0638 69.2751 19.1074C69.8423 19.1074 70.4094 19.2819 70.9329 19.6309L73.7684 21.3758C73.2449 22.9463 73.8121 24.7349 75.0772 25.5638L89.0805 34.2886C89.4731 34.5503 89.9094 34.6812 90.3892 34.6812C91.3926 34.6812 92.3087 34.1577 92.8322 33.2852L95.3624 34.8557C97.2819 36.0336 98.1107 38.8691 97.1946 41.1376L68.3154 112.419Z" fill="#BCBEC0"/>
<g clip-path="url(#clip1)">
<path d="M75.0488 60.8157C77.5892 62.1092 78.4134 65.6114 76.8962 68.6654C74.0937 74.2491 62.821 75.5139 62.821 75.5139C62.821 75.5139 57.1396 65.6382 59.9013 60.1357C61.434 57.0818 64.7462 55.6448 67.2992 56.9262C68.8693 57.696 69.8584 59.3695 69.9224 61.3647C71.5624 60.2343 73.4904 60.0279 75.0488 60.8157Z" fill="url(#paint10_linear)"/>
</g>
<path d="M51.0839 93.9664L10.6443 70.6711C8.41949 69.406 6.6309 65.9597 6.6309 63.0369V54.0503C6.6309 52.5671 5.1913 52.5235 5.93292 52C5.97654 51.9564 7.98325 50.8658 8.02688 50.8221C8.72486 50.4295 9.64097 50.4731 10.6443 51.0403L51.1276 74.3355C53.3524 75.6006 55.141 79.047 55.141 81.9698V90.9564C55.141 92.5704 54.6175 93.7047 53.745 94.1845C53.7014 94.1845 51.6947 95.3624 51.6947 95.3624C50.9531 95.7114 52.0437 94.5335 51.0839 93.9664Z" fill="#FF8201"/>
<path d="M49.1208 95.1007L8.63757 71.8054C6.41274 70.5403 4.62415 67.094 4.62415 64.1712V55.1846C4.62415 52.2618 6.41274 50.9094 8.63757 52.1745L49.1208 75.4698C51.3456 76.7349 53.1342 80.1812 53.1342 83.104V92.0906C53.0906 95.0571 51.302 96.4094 49.1208 95.1007Z" fill="#FF8B01"/>
<path opacity="0.96" d="M49.7315 75.0772L9.2483 51.7819C8.11408 51.1275 7.11072 51.1711 6.36911 51.7382C6.93622 51.651 7.59059 51.7819 8.3322 52.1745L48.8154 75.4698C51.0402 76.7349 52.8288 80.1812 52.8288 83.104V92.0906C52.8288 93.5302 52.3926 94.5772 51.6946 95.1443C52.9161 94.9262 53.7449 93.6611 53.7449 91.6543V82.6678C53.7449 79.745 51.9563 76.3423 49.7315 75.0772Z" fill="url(#paint11_linear)"/>
<path d="M22.2048 64.869V65.8287L47.9866 80.5737V79.614L22.2048 64.869Z" fill="white"/>
<path d="M32.5437 78.7416L22.2048 72.8959V73.8557L32.5437 79.7013V78.7416Z" fill="white"/>
<path d="M38.2148 78L22.2048 68.8826V69.8423L38.2148 79.0034V78Z" fill="white"/>
<path d="M28.7484 74.5537L22.2048 70.8892V71.849L28.7484 75.5134V74.5537Z" fill="white"/>
<path d="M29.6645 75.1207V76.0805L42.8389 83.6274V82.6677L29.6645 75.1207Z" fill="white"/>
<path d="M33.5033 79.3087V80.2684L40.8758 84.5436V83.5838L33.5033 79.3087Z" fill="white"/>
<path d="M39.1745 79.5267L47.9865 84.5871V83.6274L39.1745 78.567V79.5267Z" fill="white"/>
<path d="M43.7987 84.1945L47.9866 86.5939V85.6341L43.7987 83.2348V84.1945Z" fill="white"/>
<path d="M22.2048 67.8355L47.9866 82.5804V81.6207L22.2048 66.8757V67.8355Z" fill="white"/>
<path d="M41.8356 85.067L47.9866 88.6006V87.6408L41.8356 84.1073V85.067Z" fill="white"/>
<path d="M22.2048 75.8623L47.9866 90.6073V89.6476L22.2048 74.9026V75.8623Z" fill="white"/>
<path d="M17.6242 69.3624C17.0134 68.8389 16.4027 68.1409 15.9664 67.3993C15.7047 66.963 15.7047 66.4396 15.9664 66.3087C16.3154 66.0906 16.6208 65.7852 16.7953 65.349C17.1007 65.4362 17.4497 65.3053 17.4497 64.9127C17.4497 64.5201 17.2752 64.0838 17.0134 63.8657C16.9262 62.1208 16.3591 60.3758 14.3524 59.1979C12.3456 58.0637 11.7785 59.1543 11.6913 60.812C11.4732 60.7684 11.255 60.9865 11.255 61.3791C11.255 61.7718 11.604 62.2953 11.9094 62.557C12.1275 63.2114 12.3893 63.8657 12.7383 64.4765C13 64.9563 13 65.4362 12.7383 65.5671C12.302 65.7852 11.7349 65.8288 11.0805 65.6543C10.2517 65.3926 9.64095 65.9161 9.64095 66.9194V68.708C9.64095 69.057 9.90269 69.4932 10.2081 69.6677L18.4966 74.4664C18.802 74.6409 19.0638 74.51 19.0638 74.161V72.3724C19.1074 71.3255 18.453 70.104 17.6242 69.3624Z" fill="white"/>
<path d="M75.8188 43.2751L35.6846 20.1107C33.4598 18.8456 31.6712 15.3993 31.6712 12.4765V3.4899C31.6712 2.00668 30.2316 1.96305 30.9732 1.43956C31.0168 1.39594 33.0235 0.305334 33.0672 0.26171C33.7651 -0.130908 34.6813 -0.0872837 35.6846 0.47983L75.8188 23.6443C78.0437 24.9094 79.8323 28.3557 79.8323 31.2785V40.2651C79.8323 41.8792 79.3088 43.0134 78.4363 43.4933C78.3927 43.4933 76.386 44.6711 76.386 44.6711C75.688 45.0201 76.7786 43.8423 75.8188 43.2751Z" fill="url(#paint12_linear)"/>
<path d="M73.8121 44.4094L33.6778 21.245C31.453 19.9799 29.6644 16.5336 29.6644 13.6107V4.62416C29.6644 1.70134 31.453 0.34899 33.6778 1.61409L73.8121 24.7785C76.0369 26.0436 77.8255 29.4899 77.8255 32.4128V41.3993C77.8255 44.3222 76.0369 45.6745 73.8121 44.4094Z" fill="url(#paint13_linear)"/>
<path opacity="0.96" d="M74.4664 24.3859L34.3322 1.22144C33.1979 0.56708 32.1946 0.610705 31.453 1.17782C32.0201 1.09057 32.6745 1.22144 33.4161 1.61406L73.5503 24.7785C75.7751 26.0436 77.5637 29.4899 77.5637 32.4127V41.3993C77.5637 42.8389 77.1275 43.8859 76.4295 44.453C77.651 44.2349 78.4798 42.9698 78.4798 40.9631V32.0201C78.4362 29.0537 76.6476 25.651 74.4664 24.3859Z" fill="url(#paint14_linear)"/>
<path d="M47.2886 14.3087V15.2684L72.7215 29.8825V28.9228L47.2886 14.3087Z" fill="white"/>
<path d="M57.5839 28.2248L47.2886 22.3355V23.3389L57.5839 29.1845V28.2248Z" fill="white"/>
<path d="M63.2987 27.4831L47.2886 18.322V19.3254L63.2987 28.4428V27.4831Z" fill="white"/>
<path d="M53.7886 23.9933L47.2886 20.3289V21.3322L53.7886 24.953V23.9933Z" fill="white"/>
<path d="M54.7483 24.5603V25.52L67.5738 32.9361V31.9764L54.7483 24.5603Z" fill="white"/>
<path d="M58.5435 28.7482V29.708L65.916 33.9831V33.0234L58.5435 28.7482Z" fill="white"/>
<path d="M64.2147 28.9664L72.7214 33.8959V32.9362L64.2147 28.0067V28.9664Z" fill="white"/>
<path d="M68.5335 33.4597L72.7214 35.9026V34.9429L68.5335 32.4999V33.4597Z" fill="white"/>
<path d="M47.2886 17.2751L72.7215 31.8892V30.9295L47.2886 16.3154V17.2751Z" fill="white"/>
<path d="M66.8757 34.5503L72.7214 37.9094V36.9496L66.8757 33.5469V34.5503Z" fill="white"/>
<path d="M47.2886 25.3456L72.7215 39.9161V38.9563L47.2886 24.3422V25.3456Z" fill="white"/>
<path d="M42.708 18.8456C42.0973 18.3221 41.4865 17.6241 41.0503 16.8825C40.7885 16.4463 40.7885 15.9228 41.0503 15.7919C41.3993 15.5738 41.7047 15.2684 41.8791 14.8322C42.1845 14.9194 42.5335 14.7885 42.5335 14.3959C42.5335 14.0033 42.359 13.5671 42.0973 13.3489C42.01 11.604 41.4429 9.859 39.4362 8.68115C37.4295 7.54692 36.8624 8.63753 36.7751 10.2952C36.557 10.2516 36.3389 10.4697 36.3389 10.8624C36.3389 11.255 36.6879 11.7785 36.9932 12.0402C37.2114 12.6946 37.4731 13.3489 37.8221 13.9597C38.0838 14.4395 38.0838 14.9194 37.8221 15.0503C37.3859 15.2684 36.8187 15.312 36.1644 15.1375C35.3355 14.8758 34.7248 15.3993 34.7248 16.4026V18.1912C34.7248 18.5402 34.9865 18.9765 35.2919 19.151L43.5805 23.9496C43.8859 24.1241 44.1476 23.9932 44.1476 23.6442V21.8556C44.1476 20.765 43.5369 19.5436 42.708 18.8456Z" fill="white"/>
<path d="M56.7995 68.7081L50.0377 53.3524V44.8457C50.0377 42.3155 48.2491 39.2181 46.0243 37.953L5.89006 14.745C4.79945 14.0906 3.7961 14.047 3.05449 14.4396C3.01086 14.4832 1.04778 15.5738 1.00415 15.6175C0.393413 16.0537 1.87663 15.8792 1.87663 17.0134V27.4832C1.87663 30.0134 3.66522 33.1108 5.89006 34.3759L44.7592 56.8859L54.88 69.7987L56.7995 68.7081Z" fill="url(#paint15_linear)"/>
<path d="M54.8792 69.8423L48.1175 54.4866V45.9799C48.1175 43.4497 46.3289 40.3524 44.104 39.0873L3.9698 15.8792C1.78859 14.6141 0 15.6175 0 18.1477V28.6175C0 31.1477 1.78859 34.245 4.01342 35.5101L42.8826 58.0202L54.8792 69.8423Z" fill="url(#paint16_linear)"/>
<path d="M10.9933 31.3659C10.3826 30.8424 9.77185 30.1444 9.3356 29.4028C9.07386 28.9665 9.07386 28.443 9.3356 28.3122C9.6846 28.094 9.98997 27.7887 10.1645 27.3524C10.4698 27.4397 10.8188 27.3088 10.8188 26.9162C10.8188 26.5236 10.6443 26.0873 10.3826 25.8692C10.2953 24.1242 9.72822 22.3793 7.72151 21.2014C5.7148 20.0672 5.14769 21.1578 5.06044 22.8155C4.84232 22.7719 4.6242 22.99 4.6242 23.3826C4.6242 23.7752 4.97319 24.2987 5.27856 24.5605C5.49668 25.2148 5.75842 25.8692 6.10742 26.4799C6.36916 26.9598 6.36916 27.4397 6.10742 27.5705C5.67118 27.7887 5.10406 27.8323 4.4497 27.6578C3.62084 27.3961 3.0101 27.9195 3.0101 28.9229V30.7115C3.0101 31.0605 3.27185 31.4967 3.57722 31.6712L11.8658 36.4699C12.1712 36.6444 12.4329 36.5135 12.4329 36.1645V34.3759C12.4765 33.2853 11.8658 32.0638 10.9933 31.3659Z" fill="white"/>
<path opacity="0.96" d="M3.79526 16.1409L43.9295 39.3489C46.1543 40.614 47.9429 43.7113 47.9429 46.2415V54.7483L53.7013 67.8355L55.5335 69.6241L48.7718 54.2684V45.7617C48.7718 43.2315 46.9832 40.1342 44.7583 38.8691L4.62412 15.661C3.3154 14.9194 2.13755 14.963 1.39594 15.661C2.0503 15.4865 2.87916 15.6174 3.79526 16.1409Z" fill="url(#paint17_linear)"/>
<path d="M16.1845 27.396V28.3994L42.708 43.5806V42.5772L16.1845 27.396Z" fill="white"/>
<path d="M27.2651 41.7047L16.1845 35.4664V36.4262L27.2651 42.708V41.7047Z" fill="white"/>
<path d="M32.9362 41.0068L16.1845 31.4531V32.4128L32.9362 41.9665V41.0068Z" fill="white"/>
<path d="M23.4698 37.5168L16.1845 33.4597V34.4195L23.4698 38.4765V37.5168Z" fill="white"/>
<path d="M24.4295 38.0839V39.0436L37.5604 46.5906V45.6308L24.4295 38.0839Z" fill="white"/>
<path d="M28.2248 42.2718V43.2315L35.5973 47.5067V46.547L28.2248 42.2718Z" fill="white"/>
<path d="M33.8959 42.4899L42.708 47.594V46.5906L33.8959 41.5302V42.4899Z" fill="white"/>
<path d="M38.4765 47.1577L42.708 49.6006V48.5973L38.4765 46.1979V47.1577Z" fill="white"/>
<path d="M16.1845 30.4061L42.708 45.5873V44.5839L16.1845 29.4464V30.4061Z" fill="white"/>
<path d="M36.5571 48.0302L42.7081 51.6073V50.6476L36.5571 47.0704V48.0302Z" fill="white"/>
<path d="M16.1845 38.4329L42.708 53.6142V52.6544L16.1845 37.4732V38.4329Z" fill="white"/>
</g>
<defs>
<linearGradient id="paint0_linear" x1="57.0245" y1="17.4395" x2="79.7044" y2="76.4193" gradientUnits="userSpaceOnUse">
<stop stop-color="#86E6FF"/>
<stop offset="0.1586" stop-color="#82E1FF"/>
<stop offset="0.3426" stop-color="#76D3FF"/>
<stop offset="0.5391" stop-color="#62BCFF"/>
<stop offset="0.7445" stop-color="#469BFF"/>
<stop offset="0.9548" stop-color="#2372FF"/>
<stop offset="1" stop-color="#1A68FF"/>
</linearGradient>
<linearGradient id="paint1_linear" x1="55.2619" y1="63.4507" x2="88.6625" y2="76.9698" gradientUnits="userSpaceOnUse">
<stop stop-color="#86E6FF"/>
<stop offset="0.1586" stop-color="#82E1FF"/>
<stop offset="0.3426" stop-color="#76D3FF"/>
<stop offset="0.5391" stop-color="#62BCFF"/>
<stop offset="0.7445" stop-color="#469BFF"/>
<stop offset="0.9548" stop-color="#2372FF"/>
<stop offset="1" stop-color="#1A68FF"/>
</linearGradient>
<radialGradient id="paint2_radial" cx="0" cy="0" r="1" gradientUnits="userSpaceOnUse" gradientTransform="translate(100.781 38.3024) rotate(1.20158) scale(46.1557 38.703)">
<stop stop-color="#AF8AFC"/>
<stop offset="1" stop-color="#10054D"/>
</radialGradient>
<linearGradient id="paint3_linear" x1="90.0567" y1="74.06" x2="2.16218" y2="4.86073" gradientUnits="userSpaceOnUse">
<stop stop-color="#86E6FF"/>
<stop offset="0.1586" stop-color="#82E1FF"/>
<stop offset="0.3426" stop-color="#76D3FF"/>
<stop offset="0.5391" stop-color="#62BCFF"/>
<stop offset="0.7445" stop-color="#469BFF"/>
<stop offset="0.9548" stop-color="#2372FF"/>
<stop offset="1" stop-color="#1A68FF"/>
</linearGradient>
<linearGradient id="paint4_linear" x1="75.0975" y1="115.162" x2="39.7746" y2="5.28445" gradientUnits="userSpaceOnUse">
<stop stop-color="#86E6FF"/>
<stop offset="0.1586" stop-color="#82E1FF"/>
<stop offset="0.3426" stop-color="#76D3FF"/>
<stop offset="0.5391" stop-color="#62BCFF"/>
<stop offset="0.7445" stop-color="#469BFF"/>
<stop offset="0.9548" stop-color="#2372FF"/>
<stop offset="1" stop-color="#1A68FF"/>
</linearGradient>
<linearGradient id="paint5_linear" x1="46.9219" y1="66.4639" x2="82.1794" y2="80.7346" gradientUnits="userSpaceOnUse">
<stop stop-color="#86E6FF"/>
<stop offset="0.1586" stop-color="#82E1FF"/>
<stop offset="0.3426" stop-color="#76D3FF"/>
<stop offset="0.5391" stop-color="#62BCFF"/>
<stop offset="0.7445" stop-color="#469BFF"/>
<stop offset="0.9548" stop-color="#2372FF"/>
<stop offset="1" stop-color="#1A68FF"/>
</linearGradient>
<linearGradient id="paint6_linear" x1="58.3381" y1="26.8104" x2="92.0138" y2="122.223" gradientUnits="userSpaceOnUse">
<stop stop-color="white"/>
<stop offset="0.2741" stop-color="#F5F9FF"/>
<stop offset="0.7403" stop-color="#DAE9FF"/>
<stop offset="1" stop-color="#C8DEFF"/>
</linearGradient>
<linearGradient id="paint7_linear" x1="99.6968" y1="51.9959" x2="101.674" y2="57.1388" gradientUnits="userSpaceOnUse">
<stop stop-color="#86E6FF"/>
<stop offset="0.1586" stop-color="#82E1FF"/>
<stop offset="0.3426" stop-color="#76D3FF"/>
<stop offset="0.5391" stop-color="#62BCFF"/>
<stop offset="0.7445" stop-color="#469BFF"/>
<stop offset="0.9548" stop-color="#2372FF"/>
<stop offset="1" stop-color="#1A68FF"/>
</linearGradient>
<linearGradient id="paint8_linear" x1="97.954" y1="56.4331" x2="93.7557" y2="54.5147" gradientUnits="userSpaceOnUse">
<stop stop-color="#3D065F"/>
<stop offset="1" stop-color="#5F27BD"/>
</linearGradient>
<linearGradient id="paint9_linear" x1="95.327" y1="56.3104" x2="96.5746" y2="56.8154" gradientUnits="userSpaceOnUse">
<stop stop-color="#86E6FF"/>
<stop offset="0.1586" stop-color="#82E1FF"/>
<stop offset="0.3426" stop-color="#76D3FF"/>
<stop offset="0.5391" stop-color="#62BCFF"/>
<stop offset="0.7445" stop-color="#469BFF"/>
<stop offset="0.9548" stop-color="#2372FF"/>
<stop offset="1" stop-color="#1A68FF"/>
</linearGradient>
<linearGradient id="paint10_linear" x1="62.6767" y1="54.606" x2="70.7884" y2="79.9484" gradientUnits="userSpaceOnUse">
<stop stop-color="#FFB200"/>
<stop offset="1" stop-color="#FF5800"/>
</linearGradient>
<linearGradient id="paint11_linear" x1="6.40301" y1="73.218" x2="53.7293" y2="73.218" gradientUnits="userSpaceOnUse">
<stop stop-color="#CAE1FF"/>
<stop offset="0.0963547" stop-color="#DAEAFF"/>
<stop offset="0.2627" stop-color="white"/>
<stop offset="0.5143" stop-color="#D1E0FF"/>
<stop offset="0.6138" stop-color="#E1EBFF"/>
<stop offset="0.755" stop-color="white"/>
<stop offset="1" stop-color="#C8DEFF"/>
</linearGradient>
<linearGradient id="paint12_linear" x1="30.7761" y1="22.3643" x2="79.825" y2="22.3643" gradientUnits="userSpaceOnUse">
<stop offset="0.020202" stop-color="#91FF8C"/>
<stop offset="0.3839" stop-color="#44DF6B"/>
<stop offset="0.7155" stop-color="#02C34F"/>
<stop offset="1" stop-color="#02C34F"/>
</linearGradient>
<linearGradient id="paint13_linear" x1="27.1378" y1="7.64087" x2="65.1762" y2="-5.53579" gradientUnits="userSpaceOnUse">
<stop offset="0.020202" stop-color="#91FF8C"/>
<stop offset="0.3839" stop-color="#44DF6B"/>
<stop offset="0.7155" stop-color="#02C34F"/>
<stop offset="1" stop-color="#02C34F"/>
</linearGradient>
<linearGradient id="paint14_linear" x1="31.4682" y1="22.5913" x2="78.454" y2="22.5913" gradientUnits="userSpaceOnUse">
<stop stop-color="#CAE1FF"/>
<stop offset="0.0963547" stop-color="#DAEAFF"/>
<stop offset="0.2627" stop-color="white"/>
<stop offset="0.5143" stop-color="#D1E0FF"/>
<stop offset="0.6138" stop-color="#E1EBFF"/>
<stop offset="0.755" stop-color="white"/>
<stop offset="1" stop-color="#C8DEFF"/>
</linearGradient>
<linearGradient id="paint15_linear" x1="5.3814" y1="12.9718" x2="55.5362" y2="69.5401" gradientUnits="userSpaceOnUse">
<stop stop-color="#86E6FF"/>
<stop offset="0.1586" stop-color="#82E1FF"/>
<stop offset="0.3426" stop-color="#76D3FF"/>
<stop offset="0.5391" stop-color="#62BCFF"/>
<stop offset="0.7445" stop-color="#469BFF"/>
<stop offset="0.9548" stop-color="#2372FF"/>
<stop offset="1" stop-color="#1A68FF"/>
</linearGradient>
<linearGradient id="paint16_linear" x1="-55.1118" y1="19.2255" x2="100.544" y2="-4.62816" gradientUnits="userSpaceOnUse">
<stop stop-color="#86E6FF"/>
<stop offset="0.1586" stop-color="#82E1FF"/>
<stop offset="0.3426" stop-color="#76D3FF"/>
<stop offset="0.5391" stop-color="#62BCFF"/>
<stop offset="0.7445" stop-color="#469BFF"/>
<stop offset="0.9548" stop-color="#2372FF"/>
<stop offset="1" stop-color="#1A68FF"/>
</linearGradient>
<linearGradient id="paint17_linear" x1="1.39131" y1="42.3713" x2="55.5028" y2="42.3713" gradientUnits="userSpaceOnUse">
<stop stop-color="#CAE1FF"/>
<stop offset="0.0963547" stop-color="#DAEAFF"/>
<stop offset="0.2627" stop-color="white"/>
<stop offset="0.5143" stop-color="#D1E0FF"/>
<stop offset="0.6138" stop-color="#E1EBFF"/>
<stop offset="0.755" stop-color="white"/>
<stop offset="1" stop-color="#C8DEFF"/>
</linearGradient>
<clipPath id="clip0">
<rect width="104" height="121.886" fill="white"/>
</clipPath>
<clipPath id="clip1">
<rect width="19.0152" height="22.7462" fill="white" transform="translate(63.6017 52.7628) rotate(26.6518)"/>
</clipPath>
</defs>
</svg>
