<svg width="100" height="98" viewBox="0 0 100 98" fill="none" xmlns="http://www.w3.org/2000/svg">
<path d="M87.455 18.1068C75.4138 1.62537 54.7965 0.594845 53.5204 0.536057C37.2603 -0.217816 25.6513 8.07478 21.467 11.1594C18.4273 13.4003 14.2119 16.5645 10.2765 22.1286C8.48173 24.6669 2.22943 34.0868 2.12915 46.7609C1.97353 66.4618 16.802 79.2846 19.4959 81.5185C34.0581 93.6012 59.5306 99.6184 78.6333 85.8343C101.07 69.6468 100.841 36.4314 87.455 18.1068Z" fill="#F4F7FA"/>
<path d="M62.1415 84.5885C61.5779 84.3914 60.5231 83.4646 60.3502 83.1084C59.1848 80.7465 56.7192 76.4688 57.4558 73.7818C57.5803 73.3219 59.7485 73.3323 60.1289 72.9657C61.5122 72.6337 62.0101 72.6061 63.1686 71.6482C66.5922 68.816 61.775 61.1216 69.4244 60.392C75.0265 59.856 79.0829 62.6052 80.2414 54.3264C81.3999 46.0477 91.01 32.5506 98.4242 40.0616C102.678 44.3739 96.1937 50.2493 97.6565 55.9033C99.0467 61.2773 96.1384 64.8426 90.3564 66.6719C84.5744 68.4978 86.8603 71.3266 87.3824 76.2648C88.0118 82.1955 79.2662 81.3759 75.2617 80.6531C72.0352 80.0687 63.428 80.7638 62.1415 84.5885Z" fill="url(#paint0_linear)"/>
<path d="M58.9255 78.6958L58.8943 78.5783C68.4353 76.1922 76.9907 70.9427 83.6303 63.4074C89.9483 56.2353 94.4508 47.1404 96.6502 37.1049L96.7712 37.1326C94.5684 47.1888 90.0556 56.301 83.7237 63.4904C77.0668 71.043 68.4907 76.3028 58.9255 78.6958Z" fill="#FCFDFE"/>
<path d="M87.9288 78.7002C83.2949 76.0132 74.9781 74.2115 69.3898 74.6784L69.3794 74.5573C74.9919 74.087 83.3399 75.8991 87.991 78.5964L87.9288 78.7002Z" fill="#FCFDFE"/>
<path d="M62.6395 77.7215L62.5772 77.6143C65.0982 76.1515 66.7858 73.468 67.5846 69.6398C68.1725 66.8353 68.2797 63.4913 67.9027 59.7012L68.0238 59.6908C68.4007 63.4913 68.2935 66.8491 67.7022 69.6675C66.8999 73.5268 65.195 76.2379 62.6395 77.7215Z" fill="#FCFDFE"/>
<path d="M84.5812 62.4297L84.5155 62.3259C89.1252 59.3243 94.9106 59.4799 98.9497 60.1439L98.929 60.2649C94.9106 59.6078 89.1598 59.4488 84.5812 62.4297Z" fill="#FCFDFE"/>
<path d="M91.5425 51.9341L91.4249 51.8995C92.1615 49.344 92.8566 43.9804 89.2325 36.7875L89.3431 36.7322C90.5673 39.1598 91.4353 41.7326 91.8503 44.1637C92.3241 46.9648 92.2203 49.5791 91.5425 51.9341Z" fill="#FCFDFE"/>
<path d="M77.6444 80.3565C74.6393 79.9138 71.6342 79.402 68.636 78.8245C68.5876 78.8695 67.602 72.3336 70.7074 68.9066C76.8456 62.267 72.7097 56.3086 71.5304 52.7779C69.6631 47.8016 70.6452 42.4173 75.7079 42.3378C81.3239 42.1407 82.3406 32.8452 81.3239 24.3901C80.5354 20.268 84.4293 15.2641 88.3093 14.1194C92.2723 12.8538 96.2284 15.4474 97.4422 23.6639C99.2785 33.1806 92.3311 38.9211 89.7617 43.6899C87.2303 48.3722 93.1195 52.1623 88.3784 56.3121C84.3947 59.9984 79.37 62.6508 81.2063 67.2813C83.0979 71.8667 82.6449 75.6119 77.6444 80.3565Z" fill="url(#paint1_linear)"/>
<path d="M73.626 80.7437L73.505 80.7403C73.505 80.6815 76.3787 66.9354 81.3307 53.5559C82.0155 51.3911 82.759 49.2056 83.4782 47.0927C85.4044 41.4352 87.3928 35.584 88.3369 29.7571C89.3916 23.2454 89.0182 17.3804 87.1854 11.8267L87.3029 11.7886C89.1392 17.3597 89.5196 23.2454 88.458 29.7744C87.5104 35.6082 85.5185 41.4663 83.5924 47.1273C82.8731 49.2402 82.1296 51.4257 81.4449 53.5905C76.4513 67.0807 73.633 80.6642 73.626 80.7437Z" fill="#FCFDFE"/>
<path d="M87.0677 36.1581L86.9778 36.0751C90.3287 32.3507 94.3713 27.0598 96.543 24.2172C98.2928 21.9279 98.2997 21.9314 98.3723 21.9417L98.3619 22.0005L98.3862 22.0559C98.2962 22.1181 97.5631 23.076 96.6363 24.2898C94.4681 27.1393 90.4221 32.4337 87.0677 36.1581Z" fill="#FCFDFE"/>
<path d="M88.0811 31.0539C87.3894 26.7866 85.6293 23.9786 84.2771 22.3775C82.7832 20.6069 81.4069 19.8358 81.2686 19.8185C81.2686 19.8185 81.2824 19.8185 81.2962 19.8081L81.2271 19.7078C81.2582 19.6871 81.2928 19.6905 81.3758 19.7286C81.7458 19.8911 83.1325 20.7556 84.5884 22.5642C86.4212 24.8397 87.6695 27.7722 88.1986 31.0366L88.0811 31.0539Z" fill="#FCFDFE"/>
<path d="M78.5018 62.3121L78.3808 62.2982C78.8546 58.3283 77.9278 54.0575 75.6316 49.6034C74.4351 47.2796 72.9066 45.0076 71.0911 42.8428C70.9596 42.6872 70.9147 42.6318 70.8974 42.6042L71.0046 42.5419C71.015 42.5592 71.0911 42.6491 71.1844 42.7633C73.0069 44.935 74.5388 47.2173 75.7422 49.5481C78.0488 54.0229 78.9791 58.3145 78.5018 62.3121Z" fill="#FCFDFE"/>
<path d="M79.8576 58.1312L79.7538 58.0655C83.3572 52.242 90.9582 51.8374 91.0239 51.8581L91.0688 51.9169L91.0273 51.9757L91.0066 51.9169L90.9997 51.9757C90.8786 51.9792 83.4056 52.401 79.8576 58.1312ZM90.9859 51.8616L91.0066 51.9204L90.9859 51.8616Z" fill="#FCFDFE"/>
<path d="M74.1273 78.503L74.0063 78.4995C74.0686 76.7705 73.453 73.8242 70.147 69.6018C69.9672 69.3735 69.9672 69.3735 69.9741 69.339L70.0952 69.3563L70.0329 69.3493L70.0882 69.3251C70.0986 69.3424 70.1643 69.4289 70.2439 69.5257C73.5706 73.7757 74.193 76.7532 74.1273 78.503Z" fill="#FCFDFE"/>
<path d="M74.8916 75.2454L74.774 75.2108C75.1544 73.8967 76.6553 71.3204 82.4165 68.8375C82.4961 68.8029 82.5479 68.7822 82.5652 68.7718L82.6205 68.879C82.5998 68.8894 82.5479 68.9136 82.4649 68.9482C76.7486 71.4138 75.2651 73.9521 74.8916 75.2454Z" fill="#FCFDFE"/>
<path d="M91.3627 51.4259C91.3627 71.6455 74.9781 88.784 54.0772 89.7385C32.367 90.731 14.1427 74.0109 14.1427 52.3561C14.1427 30.7013 32.367 13.5455 54.0772 14.0124C74.9816 14.4619 91.3627 31.2062 91.3627 51.4259Z" fill="url(#paint2_linear)"/>
<path d="M93.7903 51.4259C93.7903 71.6455 77.4057 88.784 56.5047 89.7385C34.7946 90.731 16.5703 74.0109 16.5703 52.3561C16.5703 30.7013 34.7946 13.5455 56.5047 14.0124C77.4057 14.4619 93.7903 31.2062 93.7903 51.4259Z" fill="url(#paint3_linear)"/>
<path d="M91.4837 51.4535C91.4837 70.5044 76.0293 86.6227 56.3525 87.4838C35.9599 88.376 18.8802 72.6484 18.8802 52.3319C18.8802 32.0154 35.9599 15.8728 56.3491 16.274C76.0293 16.6578 91.4837 32.4027 91.4837 51.4535Z" fill="url(#paint4_linear)"/>
<path d="M48.4197 53.2794C50.0035 51.2252 50.7954 48.1544 50.7954 44.0634C50.7954 40.1523 49.9897 37.1403 48.3817 35.0343C46.7736 32.9283 44.4636 31.8735 41.4585 31.8735C35.3238 31.8735 32.2564 35.9368 32.2564 44.0634C32.2564 48.0472 33.0552 51.0938 34.6563 53.1998C36.2575 55.3058 38.526 56.3605 41.4585 56.3605C44.5155 56.3605 46.8359 55.3335 48.4197 53.2794ZM41.5104 50.8379C40.6216 50.8379 39.975 50.2812 39.5773 49.1711C39.1761 48.061 38.9756 46.3735 38.9756 44.1153C38.9756 41.8572 39.1761 40.18 39.5773 39.0872C39.9784 37.9944 40.6216 37.448 41.5104 37.448C43.2187 37.448 44.0728 39.6716 44.0728 44.1153C44.0694 48.597 43.2187 50.8379 41.5104 50.8379Z" fill="white"/>
<path d="M75.6939 50.6098C74.0858 48.5038 71.7758 47.4491 68.7707 47.4491C62.636 47.4491 59.5686 51.5124 59.5686 59.639C59.5686 63.6055 60.3674 66.6417 61.9685 68.7477C63.5697 70.8537 65.8382 71.9084 68.7707 71.9084C71.8277 71.9084 74.1515 70.8814 75.7319 68.8272C77.3157 66.7731 78.1076 63.7092 78.1076 59.639C78.1076 55.7279 77.3053 52.7193 75.6939 50.6098ZM68.826 66.4169C67.9373 66.4169 67.2906 65.8602 66.8929 64.7501C66.4918 63.6401 66.2912 61.9525 66.2912 59.6943C66.2912 57.4362 66.4918 55.759 66.8929 54.6662C67.2941 53.5734 67.9373 53.0271 68.826 53.0271C70.5343 53.0271 71.3885 55.2506 71.3885 59.6943C71.385 64.1761 70.5343 66.4169 68.826 66.4169Z" fill="white"/>
<path d="M68.4354 32.8384C68.2833 32.5791 68.0031 32.4096 67.7057 32.4096H63.7496C63.1272 32.4096 62.5566 32.7589 62.2557 33.3018L41.8078 70.1655C41.6626 70.4283 41.666 70.7568 41.8182 71.0162C41.9703 71.2755 42.2505 71.4415 42.5479 71.4415H47.0088C47.3166 71.4415 47.6002 71.2686 47.7523 70.9989L68.4458 33.6857C68.591 33.4263 68.5876 33.0978 68.4354 32.8384Z" fill="white"/>
<g opacity="0.3">
<path opacity="0.3" d="M39.6775 35.6223C38.3945 31.4379 38.4533 25.0819 44.7125 15.6931C28.563 20.3442 16.5703 34.9894 16.5703 52.5083C16.5703 74.1597 34.7946 90.8832 56.5047 89.8907C64.5103 89.5241 71.8381 86.7922 77.8276 82.4557C77.6408 76.6806 76.3855 70.3592 72.8513 64.5288C63.1374 48.4969 43.7062 48.7493 39.6775 35.6223Z" fill="url(#paint5_linear)"/>
</g>
<path d="M82.33 30.9641V31.0817C81.2442 29.6708 79.3007 27.71 78.1353 26.5757C78.1146 26.5239 78.0765 26.4754 78.0558 26.4236C77.4057 24.94 76.5308 23.3355 75.3861 21.7309C74.2484 20.1229 72.8064 18.5425 71.1222 17.0832C70.9217 16.893 70.6865 16.727 70.4721 16.5471C70.3615 16.4607 70.2508 16.3708 70.1401 16.2843L69.9776 16.1529C69.9188 16.108 69.86 16.0699 69.8047 16.025C69.573 15.859 69.3413 15.6895 69.1096 15.5201L68.9367 15.3921L68.7534 15.2746C68.6324 15.195 68.5114 15.1155 68.3903 15.0359C67.9131 14.7074 67.3978 14.4204 66.8964 14.1195C66.6405 13.9743 66.3708 13.8394 66.1114 13.7011C65.9835 13.6319 65.8521 13.5593 65.7206 13.4936C65.5858 13.4314 65.4509 13.3657 65.316 13.3034C63.1651 12.2694 60.817 11.519 58.4102 11.1075C58.1093 11.0591 57.8085 11.0141 57.5041 10.9657C57.2033 10.9242 56.8955 10.9 56.5946 10.8654L56.1382 10.817L55.6817 10.7928L55.2252 10.7652C55.0731 10.7582 54.9244 10.7444 54.7688 10.7444C54.4644 10.7444 54.1601 10.741 53.8558 10.7375C53.7797 10.7375 53.7002 10.734 53.631 10.7375L53.427 10.7479L53.0224 10.7686L52.6178 10.7894C52.5832 10.7894 52.559 10.7894 52.5106 10.7928L52.0956 10.8239L51.5423 10.862L51.1273 10.8931L51.0582 10.8966H51.034C51.034 10.8966 50.8887 10.8966 51.1308 10.9L50.2351 11.0245C50.0864 11.0453 49.9377 11.0591 49.7925 11.0902L49.3533 11.1732L48.9141 11.2562L48.6963 11.2977C48.6237 11.3115 48.551 11.3323 48.4819 11.3496C48.1949 11.4187 47.9078 11.4879 47.6243 11.5571C47.479 11.5882 47.3407 11.6331 47.2024 11.6746L46.7839 11.7991L46.3655 11.9202L45.9574 12.0723C45.6842 12.1692 45.4111 12.2556 45.1482 12.3594C44.8854 12.4666 44.6191 12.5703 44.3563 12.681C42.2711 13.5628 40.3968 14.704 38.8026 16.0077L38.5017 16.2463L38.2181 16.5022C38.0279 16.6716 37.8343 16.8307 37.6545 17.0036C37.6476 17.0105 37.6406 17.0175 37.6337 17.0244C37.2845 17.3702 36.9283 17.6952 36.6136 18.0514C36.5306 18.1379 36.4476 18.2278 36.368 18.3143L36.2436 18.4457L36.1294 18.584C35.9773 18.7638 35.8251 18.9471 35.673 19.1235C35.6349 19.1684 35.5969 19.2099 35.5588 19.2549L35.4551 19.3932C35.3825 19.4866 35.3133 19.5799 35.2442 19.6698C35.1093 19.8566 34.9606 20.026 34.8361 20.2197C33.8021 21.6963 33.0102 23.1729 32.4742 24.5804C31.9347 25.9844 31.6131 27.3019 31.4264 28.4673C31.4056 28.6126 31.3849 28.7578 31.3676 28.8996C31.3503 29.0414 31.3226 29.1762 31.3157 29.3146C31.2915 29.5878 31.2708 29.8506 31.2466 30.0996C31.2327 30.352 31.2327 30.5975 31.2189 30.8258C31.2154 30.9399 31.2051 31.054 31.2051 31.1612C31.2085 31.2719 31.212 31.3791 31.2154 31.4828C31.2189 31.6903 31.2224 31.8874 31.2258 32.0707C31.2258 32.1226 31.2327 32.1502 31.2362 32.1848C31.2396 32.2194 31.2466 32.254 31.25 32.2851C31.2569 32.3508 31.2638 32.3404 31.2708 32.3992C31.2742 32.4511 31.2811 32.4718 31.2846 32.4718H41.4895L35.2891 39.0181L20.8756 54.0298L0.251343 32.4718H11.0926C11.1064 32.4718 11.1237 32.2955 11.141 32.1571C11.1825 31.8563 11.2274 31.5658 11.2759 31.2096C11.3035 31.0333 11.3277 30.8673 11.3589 30.6771C11.3727 30.5837 11.39 30.4972 11.4038 30.397C11.4176 30.3001 11.4315 30.1964 11.4522 30.1134C11.5283 29.7572 11.6078 29.3803 11.6908 28.9791C11.7358 28.7786 11.7807 28.5745 11.8257 28.367C11.8741 28.1561 11.9329 27.9451 11.9917 27.7273C12.1093 27.2916 12.2234 26.8351 12.3652 26.3648C12.5173 25.8979 12.6764 25.4103 12.8389 24.9054C12.9185 24.653 13.0222 24.4006 13.119 24.1447C13.2159 23.8922 13.3162 23.6294 13.4199 23.3631C14.2602 21.2606 15.4118 18.9678 16.9472 16.6682C18.4757 14.3651 20.4261 12.0689 22.7396 9.94212C23.0197 9.66893 23.3309 9.41995 23.6283 9.15713C23.7805 9.02918 23.9292 8.89777 24.0813 8.76982L24.313 8.57616L24.5482 8.38942C24.8663 8.1439 25.1879 7.89491 25.5061 7.64247L25.7481 7.45573L26.0006 7.27936C26.17 7.15833 26.336 7.04075 26.5055 6.92318C27.166 6.43904 27.8783 6.00677 28.5873 5.55721C28.9434 5.33935 29.3135 5.13532 29.68 4.92438C29.8598 4.82063 30.0466 4.71689 30.2299 4.61315C30.4201 4.51632 30.6068 4.41949 30.797 4.3192C33.8125 2.74575 37.1461 1.5527 40.6077 0.836867C41.04 0.75733 41.4757 0.674335 41.9114 0.59134C42.3472 0.515261 42.7863 0.459931 43.2255 0.397685L43.8826 0.307774L44.5431 0.245527L45.2036 0.186739C45.4249 0.16599 45.6428 0.145241 45.8641 0.134867C46.3033 0.114118 46.7459 0.0657045 47.1885 0.0449557C47.2957 0.0414976 47.4099 0 47.5171 0H47.849L48.5095 0.0345813L49.17 0.0553301C49.3914 0.0553301 49.6092 0.0829951 49.8305 0.0933695L51.1412 0.169448C51.4386 0.172906 51.2449 0.176365 51.321 0.179823L51.3556 0.183281L51.4247 0.190197L51.5596 0.207488L51.8363 0.238611L52.3861 0.304315L52.6628 0.335439L52.7976 0.352729L52.9671 0.373478L53.6622 0.470306L54.3572 0.570591L54.7031 0.622463C54.8172 0.639754 54.9175 0.663961 55.0247 0.68471C55.4465 0.771163 55.8719 0.857616 56.2938 0.940611C56.5047 0.982109 56.7122 1.03744 56.9197 1.08931L57.5456 1.24838L58.1646 1.40746L58.7767 1.59074C59.1813 1.71523 59.5894 1.83281 59.9905 1.97113C60.3882 2.11292 60.7859 2.2547 61.1801 2.39648C64.3167 3.58262 67.1765 5.16645 69.6387 7.00963C69.7943 7.12375 69.9465 7.23787 70.1021 7.35198C70.2508 7.46956 70.3995 7.59059 70.5482 7.71163C70.8421 7.95024 71.1395 8.18194 71.4231 8.42746C71.9833 8.92889 72.5401 9.40611 73.0519 9.92829C73.1833 10.0562 73.3078 10.1842 73.4392 10.3087L73.6294 10.4989L73.8127 10.696C74.0547 10.9588 74.2968 11.2216 74.532 11.4775L74.7118 11.6712L74.8812 11.8718C74.9919 12.0066 75.106 12.138 75.2132 12.2729C75.4345 12.5392 75.6628 12.7951 75.8633 13.0683C76.9872 14.5138 77.9382 15.9766 78.7267 17.4221C79.1105 18.1241 79.4529 18.8226 79.7572 19.5108C80.6909 21.6168 81.2926 23.619 81.6695 25.4034C81.711 25.6282 81.756 25.8461 81.7975 26.0639C81.839 26.2783 81.8874 26.4893 81.9116 26.7002C81.9704 27.1221 82.0292 27.5233 82.0845 27.9106C82.1295 28.3013 82.1571 28.6748 82.1883 29.031C82.2021 29.2074 82.2194 29.3803 82.2332 29.5532C82.2401 29.7226 82.2782 29.8852 82.2851 30.0477C82.2782 30.3728 82.33 30.6805 82.33 30.9641Z" fill="url(#paint6_linear)"/>
<path opacity="0.4" d="M82.3301 30.9641V31.0816C81.2443 29.6707 79.3008 27.71 78.1354 26.5757C78.1147 26.5238 78.0766 26.4754 78.0559 26.4235C77.4057 24.94 76.5308 23.3354 75.3862 21.7309C74.2485 20.1228 72.8064 18.5425 71.1223 17.0831C70.9217 16.8929 70.6866 16.727 70.4722 16.5471C70.3615 16.4607 70.2509 16.3708 70.1402 16.2843L69.9777 16.1529C69.9189 16.1079 69.8601 16.0699 69.8048 16.025C69.5731 15.859 69.3414 15.6895 69.1097 15.5201L68.9368 15.3921L68.7535 15.2745C68.6325 15.195 68.5114 15.1155 68.3904 15.0359C67.9132 14.7074 67.3979 14.4204 66.8965 14.1195C66.6406 13.9743 66.3708 13.8394 66.1115 13.7011C65.9835 13.6319 65.8521 13.5593 65.7207 13.4936C65.5858 13.4314 65.451 13.3657 65.3161 13.3034C63.1652 12.2694 60.8171 11.519 58.4102 11.1075C58.1094 11.0591 57.8085 11.0141 57.5042 10.9657C57.2033 10.9242 56.8956 10.9 56.5947 10.8654L56.1382 10.817L55.6818 10.7928L55.2253 10.7651C55.0731 10.7582 54.9244 10.7444 54.7688 10.7444C54.4645 10.7444 54.1602 10.7409 53.8559 10.7375C53.7798 10.7375 53.7003 10.734 53.6311 10.7375L53.4271 10.7478L53.0225 10.7686L52.6179 10.7893C52.5833 10.7893 52.5591 10.7893 52.5107 10.7928L52.0957 10.8239L51.5424 10.862L51.1274 10.8931L51.0582 10.8965H51.034C51.034 10.8965 50.8888 10.8965 51.1309 10.9L50.2352 11.0245C50.0865 11.0452 49.9378 11.0591 49.7926 11.0902L49.3534 11.1732L48.9142 11.2562L48.6963 11.2977C48.6237 11.3115 48.5511 11.3323 48.4819 11.3496C48.1949 11.4187 47.9079 11.4879 47.6243 11.557C47.4791 11.5882 47.3408 11.6331 47.2024 11.6746L46.784 11.7991L46.3656 11.9202L45.9575 12.0723C45.6843 12.1691 45.4111 12.2556 45.1483 12.3593C44.8855 12.4665 44.6192 12.5703 44.3564 12.6809C42.2711 13.5628 40.3968 14.7039 38.8026 16.0077L38.5018 16.2463L38.2182 16.5022C38.028 16.6716 37.8344 16.8307 37.6545 17.0036C37.6476 17.0105 37.6407 17.0174 37.6338 17.0244C42.2158 11.6228 49.6335 8.11621 58.0091 8.11621C66.5887 8.11621 74.1689 11.7991 78.7164 17.422C79.1002 18.124 79.4426 18.8226 79.7469 19.5107C80.6806 21.6167 81.2823 23.619 81.6592 25.4034C81.7007 25.6282 81.7457 25.846 81.7872 26.0639C81.8287 26.2783 81.8771 26.4893 81.9013 26.7002C81.9601 27.1221 82.0189 27.5232 82.0742 27.9105C82.1192 28.3013 82.1468 28.6748 82.178 29.031C82.1918 29.2073 82.2091 29.3803 82.2229 29.5532C82.2298 29.7226 82.2679 29.8851 82.2748 30.0477C82.2782 30.3727 82.3301 30.6805 82.3301 30.9641Z" fill="url(#paint7_linear)"/>
<path d="M6.5141 93.0064V96.1568C6.5141 97.1735 12.8771 98 20.7236 98C28.57 98 34.933 97.1735 34.933 96.1568V93.0064H6.5141Z" fill="url(#paint8_linear)"/>
<path d="M34.934 93.0064C34.934 94.0231 28.5711 94.8496 20.7246 94.8496C12.8781 94.8496 6.51514 94.0231 6.51514 93.0064C6.51514 91.9898 12.8781 91.1633 20.7246 91.1633C28.5711 91.1633 34.934 91.9863 34.934 93.0064Z" fill="url(#paint9_linear)"/>
<path d="M20.7234 94.9776C13.7726 94.9776 6.50708 94.3136 6.50708 93.0341C6.50708 92.9649 6.53129 92.8405 6.60391 92.8405C6.67307 92.8405 6.64541 92.9373 6.64541 93.0064C6.64541 93.8191 12.4274 94.7217 20.7269 94.7217C29.0264 94.7217 34.8084 93.8156 34.8084 93.0064C34.8084 92.9373 34.8188 92.8716 34.8914 92.8716C34.9606 92.8716 34.9433 92.9649 34.9433 93.0341C34.9398 94.3136 27.6743 94.9776 20.7234 94.9776Z" fill="url(#paint10_linear)"/>
<path d="M19.3817 93.1102C19.52 93.0134 19.6687 92.92 19.8278 92.8232C19.9834 92.7298 20.1909 92.6433 20.4399 92.5673C20.6888 92.4912 21.0001 92.4289 21.377 92.3805C21.7505 92.3321 22.2208 92.3079 22.781 92.3044C23.3308 92.301 23.8461 92.3183 24.3268 92.3563C24.8075 92.3944 25.2328 92.4497 25.5994 92.5258C25.9659 92.6018 26.2633 92.6918 26.4916 92.8024C26.7198 92.9131 26.8547 93.0376 26.8996 93.1793L28.5008 93.1966C28.6183 93.1966 28.7186 93.207 28.8085 93.2243C28.8984 93.2416 28.9399 93.2658 28.9399 93.2935V93.4249L26.8823 93.4041C26.8097 93.5667 26.6264 93.7119 26.3325 93.8468C26.0386 93.9816 25.6616 94.0958 25.2052 94.196L24.4547 94.0923C24.389 94.0819 24.3337 94.0681 24.2888 94.0543C24.2473 94.037 24.223 94.0231 24.223 94.0024C24.223 93.9782 24.2818 93.9471 24.396 93.9159C24.5135 93.8848 24.6415 93.8433 24.7867 93.7949C24.932 93.7465 25.0737 93.6912 25.2155 93.6255C25.3539 93.5597 25.4472 93.4837 25.4956 93.3903L20.6404 93.3419C20.5125 93.4353 20.3707 93.5286 20.2116 93.6185C20.0525 93.7084 19.8451 93.7914 19.5822 93.8641C19.3194 93.9367 18.9944 93.9955 18.607 94.0404C18.2163 94.0854 17.7252 94.1096 17.1339 94.113C16.6878 94.1165 16.2555 94.0992 15.8302 94.0612C15.4048 94.0266 15.0279 93.9713 14.6994 93.8986C14.3708 93.826 14.1011 93.7396 13.8902 93.6324C13.6792 93.5252 13.5616 93.4041 13.5374 93.2693L12.2199 93.2554C12.1023 93.2554 12.002 93.2451 11.9086 93.2278C11.8187 93.2105 11.7703 93.1863 11.7703 93.1586V93.0272L13.572 93.0445C13.6515 92.9062 13.8141 92.7851 14.0631 92.6814C14.3121 92.5776 14.6164 92.4877 14.976 92.4047L15.5777 92.4877C15.761 92.5119 15.8509 92.5431 15.8509 92.5776C15.8509 92.5949 15.8129 92.6191 15.7368 92.6468C15.6607 92.6745 15.5708 92.709 15.4671 92.7471C15.3633 92.7851 15.263 92.8301 15.1662 92.882C15.0694 92.9338 14.9968 92.9926 14.9483 93.0583L19.3817 93.1102ZM14.938 93.2866C14.9726 93.373 15.0555 93.4456 15.1766 93.5113C15.2976 93.5736 15.4498 93.6255 15.6331 93.6669C15.8163 93.7084 16.0204 93.7361 16.2486 93.7569C16.4768 93.7742 16.7189 93.7845 16.9679 93.7845C17.2584 93.7845 17.5143 93.7707 17.7321 93.7465C17.9465 93.7223 18.1367 93.6912 18.3027 93.6497C18.4653 93.6082 18.6105 93.5632 18.7315 93.5079C18.8526 93.4525 18.9632 93.3972 19.0601 93.3315L14.938 93.2866ZM25.506 93.169C25.4714 93.0825 25.3815 93.003 25.2432 92.9373C25.1049 92.8716 24.9285 92.8163 24.7176 92.7713C24.5032 92.7263 24.2542 92.6918 23.9706 92.671C23.687 92.6503 23.3758 92.6399 23.0335 92.6399C22.7291 92.6399 22.4663 92.6537 22.2485 92.6814C22.0306 92.7056 21.8404 92.7402 21.6779 92.7851C21.5188 92.8301 21.3805 92.8785 21.2663 92.9373C21.1522 92.9961 21.0485 93.0583 20.9517 93.124L25.506 93.169Z" fill="#FCB048"/>
<path d="M20.7235 91.3604C14.3883 91.3604 7.79014 91.9172 6.73541 92.9961C6.77691 93.0341 6.81495 93.0756 6.84953 93.1171C7.73827 92.3667 13.1848 91.6129 20.7201 91.6129C28.449 91.6129 33.982 92.4082 34.6529 93.1759C34.6875 93.1344 34.7221 93.0929 34.7601 93.0549C33.8921 91.9379 27.173 91.3604 20.7235 91.3604Z" fill="url(#paint11_linear)"/>
<path d="M2.56482 89.696V92.8464C2.56482 93.8631 8.92778 94.6896 16.7743 94.6896C24.6208 94.6896 30.9837 93.8631 30.9837 92.8464V89.696H2.56482Z" fill="url(#paint12_linear)"/>
<path d="M30.9804 89.6959C30.9804 90.7126 24.6175 91.5391 16.771 91.5391C8.92448 91.5391 2.56152 90.7126 2.56152 89.6959C2.56152 88.6792 8.92448 87.8527 16.771 87.8527C24.6209 87.8493 30.9804 88.6758 30.9804 89.6959Z" fill="url(#paint13_linear)"/>
<path d="M16.7743 91.6664C9.82345 91.6664 2.55792 91.0025 2.55792 89.723C2.55792 89.6538 2.58213 89.5293 2.65475 89.5293C2.72391 89.5293 2.69625 89.6261 2.69625 89.6953C2.69625 90.5079 8.47824 91.4105 16.7778 91.4105C25.0773 91.4105 30.8593 90.5045 30.8593 89.6953C30.8593 89.6261 30.8696 89.5604 30.9422 89.5604C31.0114 89.5604 30.9941 89.6538 30.9941 89.723C30.9907 91.0025 23.7217 91.6664 16.7743 91.6664Z" fill="url(#paint14_linear)"/>
<path d="M15.4291 89.7973C15.5674 89.7004 15.7161 89.6071 15.8752 89.5102C16.0308 89.4169 16.2383 89.3304 16.4873 89.2543C16.7363 89.1783 17.0475 89.116 17.4244 89.0676C17.7979 89.0192 18.2682 88.995 18.8284 88.9915C19.3783 88.9881 19.8935 89.0054 20.3742 89.0434C20.8549 89.0814 21.2802 89.1368 21.6468 89.2128C22.0134 89.2889 22.3108 89.3788 22.539 89.4895C22.7672 89.6001 22.9021 89.7246 22.9471 89.8664L24.5482 89.8837C24.6658 89.8837 24.766 89.8941 24.856 89.9114C24.9459 89.9287 24.9874 89.9529 24.9874 89.9805V90.112L22.9298 90.0912C22.8572 90.2537 22.6739 90.399 22.3799 90.5338C22.086 90.6687 21.7091 90.7828 21.2526 90.8831L20.5022 90.7794C20.4365 90.769 20.3811 90.7552 20.3362 90.7413C20.2912 90.724 20.2705 90.7102 20.2705 90.6895C20.2705 90.6653 20.3293 90.6341 20.4434 90.603C20.561 90.5719 20.6889 90.5304 20.8341 90.482C20.9794 90.4336 21.1212 90.3782 21.263 90.3125C21.4013 90.2468 21.4946 90.1707 21.5431 90.0774L16.6879 90.029C16.5599 90.1223 16.4181 90.2157 16.259 90.3056C16.1 90.3955 15.8925 90.4785 15.6297 90.5511C15.3668 90.6238 15.0418 90.6825 14.6545 90.7275C14.2637 90.7725 13.7726 90.7967 13.1813 90.8001C12.7352 90.8036 12.3029 90.7863 11.8776 90.7483C11.4522 90.7137 11.0753 90.6583 10.7468 90.5857C10.4183 90.5131 10.1485 90.4266 9.93758 90.3194C9.72664 90.2122 9.60906 90.0912 9.58485 89.9563L8.26731 89.9425C8.14973 89.9425 8.04944 89.9321 7.95607 89.9148C7.86616 89.8975 7.81775 89.8733 7.81775 89.8457V89.7143L9.61943 89.7316C9.69897 89.5932 9.8615 89.4722 10.1105 89.3685C10.3595 89.2647 10.6638 89.1748 11.0234 89.0953L11.6251 89.1783C11.8084 89.2025 11.8983 89.2336 11.8983 89.2682C11.8983 89.2855 11.8603 89.3097 11.7842 89.3373C11.7081 89.365 11.6182 89.3996 11.5145 89.4376C11.4107 89.4757 11.3105 89.5206 11.2136 89.5725C11.1168 89.6244 11.0442 89.6831 10.9958 89.7488L15.4291 89.7973ZM10.9889 89.9771C11.0234 90.0635 11.1064 90.1362 11.2275 90.2019C11.3485 90.2641 11.5007 90.316 11.6839 90.3575C11.8672 90.399 12.0712 90.4266 12.2995 90.4474C12.5277 90.4647 12.7698 90.4751 13.0188 90.4751C13.3093 90.4751 13.5652 90.4612 13.783 90.437C13.9974 90.4128 14.1876 90.3817 14.3536 90.3402C14.5161 90.2987 14.6614 90.2537 14.7824 90.1984C14.9035 90.1431 15.0141 90.0877 15.1109 90.022L10.9889 89.9771ZM21.5569 89.8595C21.5223 89.7731 21.4324 89.6935 21.2941 89.6278C21.1558 89.5621 20.9794 89.5068 20.7684 89.4618C20.554 89.4169 20.3051 89.3823 20.0215 89.3615C19.7379 89.3408 19.4267 89.3304 19.0843 89.3304C18.78 89.3304 18.5172 89.3443 18.2993 89.3719C18.0815 89.3961 17.8913 89.4307 17.7287 89.4757C17.5697 89.5206 17.4313 89.569 17.3172 89.6278C17.2031 89.6866 17.0994 89.7489 17.0025 89.8146L21.5569 89.8595Z" fill="#FCB048"/>
<path d="M16.7743 88.0509C10.439 88.0509 3.84086 88.6077 2.78613 89.6866C2.82763 89.7246 2.86567 89.7661 2.90025 89.8076C3.78899 89.0572 9.23554 88.3033 16.7708 88.3033C24.4997 88.3033 30.0327 89.0987 30.7036 89.8664C30.7382 89.8249 30.7728 89.7834 30.8108 89.7454C29.9428 88.6284 23.2237 88.0509 16.7743 88.0509Z" fill="url(#paint15_linear)"/>
<path d="M5.97101 86.3943V89.5447C5.97101 90.5614 12.334 91.3879 20.1805 91.3879C28.027 91.3879 34.3899 90.5614 34.3899 89.5447V86.3943H5.97101Z" fill="url(#paint16_linear)"/>
<path d="M34.3911 86.3945C34.3911 87.4111 28.0281 88.2376 20.1816 88.2376C12.3351 88.2376 5.97217 87.4111 5.97217 86.3945C5.97217 85.3778 12.3351 84.5513 20.1816 84.5513C28.0281 84.5513 34.3911 85.3778 34.3911 86.3945Z" fill="url(#paint17_linear)"/>
<path d="M20.1805 88.3656C13.2297 88.3656 5.96417 87.7016 5.96417 86.4221C5.96417 86.353 5.98838 86.2285 6.061 86.2285C6.13016 86.2285 6.1025 86.3253 6.1025 86.3944C6.1025 87.2071 11.8845 88.1097 20.184 88.1097C28.4835 88.1097 34.2655 87.2036 34.2655 86.3944C34.2655 86.3253 34.2759 86.2596 34.3485 86.2596C34.4177 86.2596 34.4004 86.353 34.4004 86.4221C34.3969 87.7016 27.1314 88.3656 20.1805 88.3656Z" fill="url(#paint18_linear)"/>
<path d="M18.8388 86.4982C18.9771 86.4014 19.1258 86.308 19.2849 86.2112C19.4405 86.1178 19.648 86.0313 19.897 85.9553C20.146 85.8792 20.4572 85.8169 20.8342 85.7685C21.2076 85.7201 21.6779 85.6959 22.2382 85.6924C22.788 85.689 23.3033 85.7063 23.7839 85.7443C24.2646 85.7824 24.69 85.8377 25.0565 85.9138C25.4231 85.9899 25.7205 86.0798 25.9487 86.1904C26.177 86.3011 26.3118 86.4256 26.3568 86.5674L27.9579 86.5846C28.0755 86.5846 28.1758 86.595 28.2657 86.6123C28.3556 86.6296 28.3971 86.6538 28.3971 86.6815V86.8129L26.3395 86.7921C26.2669 86.9547 26.0836 87.0999 25.7897 87.2348C25.4957 87.3696 25.1188 87.4838 24.6623 87.5841L23.9119 87.4803C23.8462 87.4699 23.7909 87.4561 23.7459 87.4423C23.701 87.425 23.6802 87.4111 23.6802 87.3904C23.6802 87.3662 23.739 87.3351 23.8531 87.3039C23.9707 87.2728 24.0986 87.2313 24.2439 87.1829C24.3891 87.1345 24.5309 87.0792 24.6727 87.0135C24.811 86.9478 24.9044 86.8717 24.9528 86.7783L20.0976 86.7299C19.9696 86.8233 19.8278 86.9166 19.6688 87.0065C19.5097 87.0964 19.3022 87.1794 19.0394 87.2521C18.7766 87.3247 18.4515 87.3835 18.0642 87.4284C17.6734 87.4734 17.1824 87.4976 16.591 87.5011C16.1449 87.5045 15.7127 87.4872 15.2873 87.4492C14.862 87.4146 14.485 87.3593 14.1565 87.2866C13.828 87.214 13.5583 87.1276 13.3473 87.0204C13.1364 86.9132 13.0188 86.7921 12.9946 86.6573L11.677 86.6434C11.5595 86.6434 11.4592 86.6331 11.3658 86.6158C11.2759 86.5985 11.2275 86.5743 11.2275 86.5466V86.4152L13.0292 86.4325C13.1087 86.2942 13.2712 86.1731 13.5202 86.0694C13.7692 85.9656 14.0735 85.8757 14.4332 85.7962L15.0349 85.8792C15.2182 85.9034 15.3081 85.9345 15.3081 85.9691C15.3081 85.9864 15.27 86.0106 15.194 86.0383C15.1179 86.0659 15.028 86.1005 14.9242 86.1386C14.8205 86.1766 14.7202 86.2215 14.6234 86.2734C14.5265 86.3253 14.4539 86.3841 14.4055 86.4498L18.8388 86.4982ZM14.3951 86.678C14.4297 86.7645 14.5127 86.8371 14.6337 86.9028C14.7548 86.965 14.9069 87.0169 15.0902 87.0584C15.2735 87.0999 15.4775 87.1276 15.7058 87.1483C15.934 87.1656 16.1761 87.176 16.425 87.176C16.7155 87.176 16.9714 87.1622 17.1893 87.1379C17.4037 87.1137 17.5939 87.0826 17.7599 87.0411C17.9224 86.9996 18.0677 86.9547 18.1887 86.8993C18.3097 86.844 18.4204 86.7887 18.5172 86.723L14.3951 86.678ZM24.9632 86.5604C24.9286 86.474 24.8387 86.3945 24.7003 86.3287C24.562 86.263 24.3857 86.2077 24.1747 86.1628C23.9603 86.1178 23.7113 86.0832 23.4278 86.0625C23.1442 86.0417 22.833 86.0313 22.4906 86.0313C22.1863 86.0313 21.9235 86.0452 21.7056 86.0728C21.4877 86.097 21.2976 86.1316 21.135 86.1766C20.9759 86.2215 20.8376 86.27 20.7235 86.3287C20.6094 86.3875 20.5056 86.4498 20.4088 86.5155L24.9632 86.5604Z" fill="#FCB048"/>
<path d="M20.184 84.7518C13.8487 84.7518 7.25059 85.3086 6.19586 86.3875C6.23736 86.4256 6.2754 86.4671 6.30998 86.5086C7.19872 85.7581 12.6453 85.0043 20.1805 85.0043C27.9095 85.0043 33.4425 85.7996 34.1133 86.5673C34.1479 86.5259 34.1825 86.4844 34.2205 86.4463C33.3525 85.3293 26.6299 84.7518 20.184 84.7518Z" fill="url(#paint19_linear)"/>
<path d="M8.04327 83.085V86.2353C8.04327 87.252 14.4062 88.0785 22.2527 88.0785C30.0992 88.0785 36.4622 87.252 36.4622 86.2353V83.085H8.04327Z" fill="url(#paint20_linear)"/>
<path d="M22.2489 84.9282C30.0965 84.9282 36.4583 84.103 36.4583 83.085C36.4583 82.067 30.0965 81.2418 22.2489 81.2418C14.4012 81.2418 8.03943 82.067 8.03943 83.085C8.03943 84.103 14.4012 84.9282 22.2489 84.9282Z" fill="url(#paint21_linear)"/>
<path d="M22.2485 85.0561C15.2977 85.0561 8.03217 84.3922 8.03217 83.1127C8.03217 83.0435 8.05637 82.919 8.12899 82.919C8.19816 82.919 8.17049 83.0158 8.17049 83.085C8.17049 83.8977 13.9525 84.8002 22.252 84.8002C30.5515 84.8002 36.3335 83.8942 36.3335 83.085C36.3335 83.0158 36.3439 82.9501 36.4165 82.9501C36.4857 82.9501 36.4684 83.0435 36.4684 83.1127C36.4684 84.3922 29.1994 85.0561 22.2485 85.0561Z" fill="url(#paint22_linear)"/>
<path d="M20.9068 83.1887C21.0451 83.0919 21.1938 82.9985 21.3529 82.9017C21.5085 82.8084 21.716 82.7219 21.965 82.6458C22.214 82.5697 22.5252 82.5075 22.9022 82.4591C23.2756 82.4107 23.7459 82.3865 24.3062 82.383C24.856 82.3795 25.3713 82.3968 25.8519 82.4349C26.3326 82.4729 26.758 82.5282 27.1245 82.6043C27.4911 82.6804 27.7885 82.7703 28.0167 82.881C28.245 82.9916 28.3798 83.1161 28.4248 83.2579L30.0259 83.2752C30.1435 83.2752 30.2438 83.2856 30.3337 83.3029C30.4236 83.3202 30.4651 83.3444 30.4651 83.372V83.5034L28.4075 83.4827C28.3349 83.6452 28.1516 83.7905 27.8577 83.9253C27.5637 84.0602 27.1868 84.1743 26.7303 84.2746L25.9799 84.1709C25.9142 84.1605 25.8589 84.1466 25.8139 84.1328C25.7724 84.1155 25.7482 84.1017 25.7482 84.0809C25.7482 84.0567 25.807 84.0256 25.9211 83.9945C26.0387 83.9634 26.1666 83.9219 26.3119 83.8735C26.4571 83.825 26.5989 83.7697 26.7407 83.704C26.879 83.6383 26.9724 83.5622 27.0208 83.4689L22.1656 83.4204C22.0376 83.5138 21.8958 83.6072 21.7368 83.6971C21.5777 83.787 21.3702 83.87 21.1074 83.9426C20.8446 84.0152 20.5195 84.074 20.1322 84.119C19.7414 84.1639 19.2504 84.1881 18.659 84.1916C18.2129 84.1951 17.7807 84.1778 17.3553 84.1397C16.93 84.1052 16.553 84.0498 16.2245 83.9772C15.896 83.9046 15.6262 83.8181 15.4153 83.7109C15.2044 83.6037 15.0868 83.4827 15.0626 83.3478L13.745 83.334C13.6275 83.334 13.5272 83.3236 13.4338 83.3063C13.3439 83.289 13.2955 83.2648 13.2955 83.2372V83.1058L15.0972 83.123C15.1767 82.9847 15.3392 82.8637 15.5882 82.7599C15.8372 82.6562 16.1415 82.5663 16.5012 82.4867L17.1029 82.5697C17.2862 82.594 17.3761 82.6251 17.3761 82.6597C17.3761 82.6769 17.338 82.7011 17.2619 82.7288C17.1859 82.7565 17.096 82.7911 16.9922 82.8291C16.8885 82.8671 16.7882 82.9121 16.6914 82.964C16.5945 83.0158 16.5219 83.0746 16.4735 83.1403L20.9068 83.1887ZM16.4631 83.3651C16.4977 83.4516 16.5807 83.5242 16.7017 83.5899C16.8228 83.6521 16.9749 83.704 17.1582 83.7455C17.3415 83.787 17.5455 83.8147 17.7737 83.8354C18.002 83.8527 18.2441 83.8631 18.493 83.8631C18.7835 83.8631 19.0394 83.8492 19.2573 83.825C19.4717 83.8008 19.6619 83.7697 19.8279 83.7282C19.9904 83.6867 20.1357 83.6418 20.2567 83.5864C20.3777 83.5311 20.4884 83.4758 20.5852 83.4101L16.4631 83.3651ZM27.0312 83.2475C26.9966 83.1611 26.9067 83.0815 26.7683 83.0158C26.63 82.9501 26.4537 82.8948 26.2427 82.8498C26.0283 82.8049 25.7793 82.7703 25.4958 82.7496C25.2122 82.7288 24.901 82.7184 24.5586 82.7184C24.2543 82.7184 23.9915 82.7323 23.7736 82.7599C23.5557 82.7841 23.3655 82.8187 23.203 82.8637C23.0439 82.9086 22.9056 82.9571 22.7915 83.0158C22.6774 83.0746 22.5736 83.1369 22.4768 83.2026L27.0312 83.2475Z" fill="#FCB048"/>
<path d="M22.2519 81.439C15.9166 81.439 9.31852 81.9957 8.26379 83.0747C8.30529 83.1127 8.34333 83.1542 8.37791 83.1957C9.26665 82.4453 14.7132 81.6914 22.2485 81.6914C29.9774 81.6914 35.5104 82.4868 36.1813 83.2545C36.2159 83.213 36.2504 83.1715 36.2885 83.1334C35.4205 82.0165 28.6979 81.439 22.2519 81.439Z" fill="url(#paint23_linear)"/>
<path d="M6.5141 79.5128V82.6632C6.5141 83.6799 12.8771 84.5064 20.7236 84.5064C28.57 84.5064 34.933 83.6799 34.933 82.6632V79.5128H6.5141Z" fill="url(#paint24_linear)"/>
<path d="M34.934 79.5127C34.934 80.5294 28.5711 81.3559 20.7246 81.3559C12.8781 81.3559 6.51514 80.5294 6.51514 79.5127C6.51514 78.4961 12.8781 77.6696 20.7246 77.6696C28.5711 77.6696 34.934 78.4961 34.934 79.5127Z" fill="url(#paint25_linear)"/>
<path d="M20.7234 81.4839C13.7726 81.4839 6.50708 80.82 6.50708 79.5405C6.50708 79.4713 6.53129 79.3468 6.60391 79.3468C6.67307 79.3468 6.64541 79.4436 6.64541 79.5128C6.64541 80.3255 12.4274 81.228 20.7269 81.228C29.0264 81.228 34.8084 80.322 34.8084 79.5128C34.8084 79.4436 34.8188 79.3779 34.8914 79.3779C34.9606 79.3779 34.9433 79.4713 34.9433 79.5405C34.9398 80.82 27.6743 81.4839 20.7234 81.4839Z" fill="url(#paint26_linear)"/>
<path d="M19.3818 79.6165C19.5201 79.5197 19.6688 79.4263 19.8278 79.3295C19.9835 79.2361 20.191 79.1497 20.4399 79.0736C20.6889 78.9975 21.0002 78.9353 21.3771 78.8869C21.7506 78.8385 22.2209 78.8143 22.7811 78.8108C23.3309 78.8073 23.8462 78.8246 24.3269 78.8627C24.8076 78.9007 25.2329 78.956 25.5995 79.0321C25.966 79.1082 26.2634 79.1981 26.4917 79.3088C26.7199 79.4194 26.8548 79.5439 26.8997 79.6857L28.5008 79.703C28.6184 79.703 28.7187 79.7134 28.8086 79.7307C28.8985 79.748 28.94 79.7722 28.94 79.7998V79.9312L26.8824 79.9105C26.8098 80.073 26.6265 80.2183 26.3326 80.3531C26.0386 80.488 25.6617 80.6021 25.2052 80.7024L24.4548 80.5987C24.3891 80.5883 24.3338 80.5744 24.2888 80.5606C24.2473 80.5433 24.2231 80.5295 24.2231 80.5087C24.2231 80.4845 24.2819 80.4534 24.396 80.4223C24.5136 80.3912 24.6416 80.3497 24.7868 80.3013C24.932 80.2528 25.0738 80.1975 25.2156 80.1318C25.3539 80.0661 25.4473 79.99 25.4957 79.8967L20.644 79.8517C20.516 79.9451 20.3742 80.0384 20.2152 80.1283C20.0561 80.2183 19.8486 80.3013 19.5858 80.3739C19.323 80.4465 18.9979 80.5053 18.6106 80.5502C18.2198 80.5952 17.7288 80.6194 17.1374 80.6229C16.6913 80.6263 16.2591 80.609 15.8337 80.571C15.4084 80.5364 15.0314 80.4811 14.7029 80.4085C14.3744 80.3358 14.1046 80.2494 13.8937 80.1422C13.6828 80.035 13.5652 79.9139 13.541 79.7791L12.2234 79.7652C12.1058 79.7652 12.0056 79.7549 11.9122 79.7376C11.8223 79.7203 11.7739 79.6961 11.7739 79.6684V79.537L13.5756 79.5543C13.6551 79.416 13.8176 79.2949 14.0666 79.1912C14.3156 79.0874 14.6199 78.9975 14.9796 78.918L15.5813 79.001C15.7645 79.0252 15.8545 79.0563 15.8545 79.0909C15.8545 79.1082 15.8164 79.1324 15.7403 79.1601C15.6643 79.1877 15.5743 79.2223 15.4706 79.2604C15.3669 79.2984 15.2666 79.3434 15.1697 79.3952C15.0729 79.4471 15.0003 79.5059 14.9519 79.5716L19.3818 79.6165ZM14.9381 79.7964C14.9726 79.8828 15.0556 79.9554 15.1767 80.0211C15.2977 80.0834 15.4499 80.1353 15.6331 80.1768C15.8164 80.2183 16.0204 80.2459 16.2487 80.2667C16.4769 80.284 16.719 80.2943 16.968 80.2943C17.2585 80.2943 17.5144 80.2805 17.7322 80.2563C17.9466 80.2321 18.1368 80.201 18.3028 80.1595C18.4653 80.118 18.6106 80.073 18.7316 80.0177C18.8527 79.9624 18.9633 79.907 19.0601 79.8413L14.9381 79.7964ZM25.5061 79.6788C25.4715 79.5923 25.3816 79.5128 25.2433 79.4471C25.105 79.3814 24.9286 79.3261 24.7176 79.2811C24.5032 79.2361 24.2543 79.2016 23.9707 79.1808C23.6871 79.1601 23.3759 79.1497 23.0335 79.1497C22.7292 79.1497 22.4664 79.1635 22.2485 79.1912C22.0307 79.2154 21.8405 79.25 21.6779 79.2949C21.5189 79.3399 21.3805 79.3883 21.2664 79.4471C21.1523 79.5059 21.0486 79.5681 20.9517 79.6338L25.5061 79.6788Z" fill="#FCB048"/>
<path d="M20.7235 77.8702C14.3883 77.8702 7.79014 78.4269 6.73541 79.5059C6.77691 79.5439 6.81495 79.5854 6.84953 79.6269C7.73827 78.8765 13.1848 78.1226 20.7201 78.1226C28.449 78.1226 33.982 78.918 34.6529 79.6857C34.6875 79.6442 34.7221 79.6027 34.7601 79.5647C33.8921 78.4477 27.173 77.8702 20.7235 77.8702Z" fill="url(#paint27_linear)"/>
<path d="M2.56482 76.2026V79.3529C2.56482 80.3696 8.92778 81.1961 16.7743 81.1961C24.6208 81.1961 30.9837 80.3696 30.9837 79.3529V76.2026H2.56482Z" fill="url(#paint28_linear)"/>
<path d="M16.7762 78.0456C24.6238 78.0456 30.9856 77.2204 30.9856 76.2024C30.9856 75.1845 24.6238 74.3593 16.7762 74.3593C8.9285 74.3593 2.56671 75.1845 2.56671 76.2024C2.56671 77.2204 8.9285 78.0456 16.7762 78.0456Z" fill="url(#paint29_linear)"/>
<path d="M16.7743 78.1728C9.82345 78.1728 2.55792 77.5089 2.55792 76.2294C2.55792 76.1602 2.58213 76.0357 2.65475 76.0357C2.72391 76.0357 2.69625 76.1325 2.69625 76.2017C2.69625 77.0144 8.47824 77.9169 16.7778 77.9169C25.0773 77.9169 30.8593 77.0109 30.8593 76.2017C30.8593 76.1325 30.8696 76.0668 30.9422 76.0668C31.0114 76.0668 30.9941 76.1602 30.9941 76.2294C30.9907 77.5089 23.7217 78.1728 16.7743 78.1728Z" fill="url(#paint30_linear)"/>
<path d="M15.4291 76.3038C15.5674 76.207 15.7161 76.1136 15.8752 76.0168C16.0308 75.9234 16.2383 75.8369 16.4873 75.7609C16.7363 75.6848 17.0475 75.6225 17.4244 75.5741C17.7979 75.5257 18.2682 75.5015 18.8284 75.4981C19.3783 75.4946 19.8935 75.5119 20.3742 75.5499C20.8549 75.588 21.2802 75.6433 21.6468 75.7194C22.0134 75.7954 22.3108 75.8854 22.539 75.996C22.7672 76.1067 22.9021 76.2312 22.9471 76.373L24.5482 76.3902C24.6658 76.3902 24.766 76.4006 24.856 76.4179C24.9459 76.4352 24.9874 76.4594 24.9874 76.4871V76.6185L22.9298 76.5977C22.8572 76.7603 22.6739 76.9055 22.3799 77.0404C22.086 77.1752 21.7091 77.2894 21.2526 77.3896L20.5022 77.2859C20.4365 77.2755 20.3811 77.2617 20.3362 77.2479C20.2912 77.2306 20.2705 77.2167 20.2705 77.196C20.2705 77.1718 20.3293 77.1407 20.4434 77.1095C20.561 77.0784 20.6889 77.0369 20.8341 76.9885C20.9794 76.9401 21.1212 76.8848 21.263 76.8191C21.4013 76.7534 21.4946 76.6773 21.5431 76.5839L16.6879 76.5355C16.5599 76.6289 16.4181 76.7222 16.259 76.8121C16.1 76.9021 15.8925 76.985 15.6297 77.0577C15.3668 77.1303 15.0418 77.1891 14.6545 77.234C14.2637 77.279 13.7726 77.3032 13.1813 77.3066C12.7352 77.3101 12.3029 77.2928 11.8776 77.2548C11.4522 77.2202 11.0753 77.1649 10.7468 77.0922C10.4183 77.0196 10.1485 76.9332 9.93758 76.826C9.72664 76.7188 9.60906 76.5977 9.58485 76.4629L8.26731 76.449C8.14973 76.449 8.04944 76.4387 7.95607 76.4214C7.86616 76.4041 7.81775 76.3799 7.81775 76.3522V76.2208L9.61943 76.2381C9.69897 76.0998 9.8615 75.9787 10.1105 75.875C10.3595 75.7712 10.6638 75.6813 11.0234 75.6018L11.6251 75.6848C11.8084 75.709 11.8983 75.7401 11.8983 75.7747C11.8983 75.792 11.8603 75.8162 11.7842 75.8439C11.7081 75.8715 11.6182 75.9061 11.5145 75.9441C11.4107 75.9822 11.3105 76.0271 11.2136 76.079C11.1168 76.1309 11.0442 76.1897 10.9958 76.2554L15.4291 76.3038ZM10.9889 76.4836C11.0234 76.5701 11.1064 76.6427 11.2275 76.7084C11.3485 76.7706 11.5007 76.8225 11.6839 76.864C11.8672 76.9055 12.0712 76.9332 12.2995 76.9539C12.5277 76.9712 12.7698 76.9816 13.0188 76.9816C13.3093 76.9816 13.5652 76.9678 13.783 76.9435C13.9974 76.9193 14.1876 76.8882 14.3536 76.8467C14.5161 76.8052 14.6614 76.7603 14.7824 76.7049C14.9035 76.6496 15.0141 76.5943 15.1109 76.5286L10.9889 76.4836ZM21.5569 76.366C21.5223 76.2796 21.4324 76.2035 21.2941 76.1343C21.1558 76.0686 20.9794 76.0133 20.7684 75.9684C20.554 75.9234 20.3051 75.8888 20.0215 75.8681C19.7379 75.8473 19.4267 75.8369 19.0843 75.8369C18.78 75.8369 18.5172 75.8508 18.2993 75.8784C18.0815 75.9027 17.8913 75.9372 17.7287 75.9822C17.5697 76.0271 17.4313 76.0756 17.3172 76.1343C17.2031 76.1931 17.0994 76.2554 17.0025 76.3211L21.5569 76.366Z" fill="#FCB048"/>
<path d="M16.7743 74.5573C10.439 74.5573 3.84086 75.1141 2.78613 76.193C2.82763 76.231 2.86567 76.2725 2.90025 76.314C3.78899 75.5636 9.23554 74.8098 16.7708 74.8098C24.4997 74.8098 30.0327 75.6051 30.7036 76.3728C30.7382 76.3313 30.7728 76.2898 30.8108 76.2518C29.9428 75.1348 23.2237 74.5573 16.7743 74.5573Z" fill="url(#paint31_linear)"/>
<path d="M5.97101 72.9008V76.0512C5.97101 77.0679 12.334 77.8944 20.1805 77.8944C28.027 77.8944 34.3899 77.0679 34.3899 76.0512V72.9008H5.97101Z" fill="url(#paint32_linear)"/>
<path d="M20.1816 74.744C28.0293 74.744 34.3911 73.9188 34.3911 72.9009C34.3911 71.8829 28.0293 71.0577 20.1816 71.0577C12.334 71.0577 5.97217 71.8829 5.97217 72.9009C5.97217 73.9188 12.334 74.744 20.1816 74.744Z" fill="url(#paint33_linear)"/>
<path d="M20.1805 74.8722C13.2297 74.8722 5.96417 74.2082 5.96417 72.9287C5.96417 72.8595 5.98838 72.735 6.061 72.735C6.13016 72.735 6.1025 72.8319 6.1025 72.901C6.1025 73.7137 11.8845 74.6163 20.184 74.6163C28.4835 74.6163 34.2655 73.7102 34.2655 72.901C34.2655 72.8319 34.2759 72.7662 34.3485 72.7662C34.4177 72.7662 34.4004 72.8595 34.4004 72.9287C34.3969 74.2117 27.1314 74.8722 20.1805 74.8722Z" fill="url(#paint34_linear)"/>
<path d="M18.8388 73.0046C18.9771 72.9078 19.1258 72.8144 19.2849 72.7176C19.4405 72.6242 19.648 72.5378 19.897 72.4617C20.146 72.3856 20.4572 72.3233 20.8342 72.2749C21.2076 72.2265 21.6779 72.2023 22.2382 72.1989C22.788 72.1954 23.3033 72.2127 23.7839 72.2507C24.2646 72.2888 24.69 72.3441 25.0565 72.4202C25.4231 72.4963 25.7205 72.5862 25.9487 72.6968C26.177 72.8075 26.3118 72.932 26.3568 73.0738L27.9579 73.0911C28.0755 73.0911 28.1758 73.1014 28.2657 73.1187C28.3556 73.136 28.3971 73.1602 28.3971 73.1879V73.3193L26.3395 73.2985C26.2669 73.4611 26.0836 73.6063 25.7897 73.7412C25.4957 73.8761 25.1188 73.9902 24.6623 74.0905L23.9119 73.9867C23.8462 73.9763 23.7909 73.9625 23.7459 73.9487C23.701 73.9314 23.6802 73.9176 23.6802 73.8968C23.6802 73.8726 23.739 73.8415 23.8531 73.8103C23.9707 73.7792 24.0986 73.7377 24.2439 73.6893C24.3891 73.6409 24.5309 73.5856 24.6727 73.5199C24.811 73.4542 24.9044 73.3781 24.9528 73.2847L20.0976 73.2363C19.9696 73.3297 19.8278 73.423 19.6688 73.5129C19.5097 73.6029 19.3022 73.6859 19.0394 73.7585C18.7766 73.8311 18.4515 73.8899 18.0642 73.9348C17.6734 73.9798 17.1824 74.004 16.591 74.0075C16.1449 74.0109 15.7127 73.9936 15.2873 73.9556C14.862 73.921 14.485 73.8657 14.1565 73.7931C13.828 73.7204 13.5583 73.634 13.3473 73.5268C13.1364 73.4196 13.0188 73.2985 12.9946 73.1637L11.677 73.1498C11.5595 73.1498 11.4592 73.1395 11.3658 73.1222C11.2759 73.1049 11.2275 73.0807 11.2275 73.053V72.9216L13.0292 72.9389C13.1087 72.8006 13.2712 72.6795 13.5202 72.5758C13.7692 72.4721 14.0735 72.3821 14.4332 72.2991L15.0349 72.3821C15.2182 72.4063 15.3081 72.4375 15.3081 72.4721C15.3081 72.4893 15.27 72.5136 15.194 72.5412C15.1179 72.5689 15.028 72.6035 14.9242 72.6415C14.8205 72.6795 14.7202 72.7245 14.6234 72.7764C14.5265 72.8282 14.4539 72.887 14.4055 72.9527L18.8388 73.0046ZM14.3951 73.1844C14.4297 73.2709 14.5127 73.3435 14.6337 73.4092C14.7548 73.4714 14.9069 73.5233 15.0902 73.5648C15.2735 73.6063 15.4775 73.634 15.7058 73.6547C15.934 73.672 16.1761 73.6824 16.425 73.6824C16.7155 73.6824 16.9714 73.6686 17.1893 73.6444C17.4037 73.6202 17.5939 73.589 17.7599 73.5475C17.9224 73.506 18.0677 73.4611 18.1887 73.4057C18.3097 73.3504 18.4204 73.2951 18.5172 73.2294L14.3951 73.1844ZM24.9632 73.0669C24.9286 72.9804 24.8387 72.9009 24.7003 72.8352C24.562 72.7695 24.3857 72.7141 24.1747 72.6692C23.9603 72.6242 23.7113 72.5896 23.4278 72.5689C23.1442 72.5481 22.833 72.5378 22.4906 72.5378C22.1863 72.5378 21.9235 72.5516 21.7056 72.5793C21.4877 72.6035 21.2976 72.638 21.135 72.683C20.9759 72.728 20.8376 72.7764 20.7235 72.8352C20.6094 72.8939 20.5056 72.9562 20.4088 73.0219L24.9632 73.0669Z" fill="#FCB048"/>
<path d="M20.184 71.2582C13.8487 71.2582 7.25059 71.815 6.19586 72.8939C6.23736 72.932 6.2754 72.9735 6.30998 73.015C7.19872 72.2646 12.6453 71.5107 20.1805 71.5107C27.9095 71.5107 33.4425 72.3061 34.1133 73.0738C34.1479 73.0323 34.1825 72.9908 34.2205 72.9527C33.3525 71.8357 26.6299 71.2582 20.184 71.2582Z" fill="url(#paint35_linear)"/>
<path d="M4.20044 69.5914V72.7418C4.20044 73.7585 10.5634 74.585 18.4099 74.585C26.2564 74.585 32.6193 73.7585 32.6193 72.7418V69.5914H4.20044Z" fill="url(#paint36_linear)"/>
<path d="M18.411 71.4346C26.2587 71.4346 32.6204 70.6094 32.6204 69.5914C32.6204 68.5735 26.2587 67.7482 18.411 67.7482C10.5633 67.7482 4.20154 68.5735 4.20154 69.5914C4.20154 70.6094 10.5633 71.4346 18.411 71.4346Z" fill="url(#paint37_linear)"/>
<path d="M18.4099 71.5625C11.4591 71.5625 4.19354 70.8985 4.19354 69.619C4.19354 69.5498 4.21775 69.4254 4.29037 69.4254C4.35953 69.4254 4.33187 69.5222 4.33187 69.5913C4.33187 70.404 10.1139 71.3066 18.4134 71.3066C26.7129 71.3066 32.4949 70.4005 32.4949 69.5913C32.4949 69.5222 32.5052 69.4565 32.5779 69.4565C32.647 69.4565 32.6297 69.5498 32.6297 69.619C32.6263 70.8985 25.3573 71.5625 18.4099 71.5625Z" fill="url(#paint38_linear)"/>
<path d="M17.0647 69.6952C17.203 69.5983 17.3517 69.505 17.5107 69.4081C17.6664 69.3148 17.8739 69.2283 18.1228 69.1522C18.3718 69.0761 18.6831 69.0139 19.06 68.9655C19.4335 68.9171 19.9038 68.8929 20.464 68.8894C21.0138 68.886 21.5291 68.9032 22.0098 68.9413C22.4905 68.9793 22.9158 69.0347 23.2824 69.1107C23.6489 69.1868 23.9463 69.2767 24.1746 69.3874C24.4028 69.498 24.5377 69.6225 24.5826 69.7643L26.1837 69.7816C26.3013 69.7816 26.4016 69.792 26.4915 69.8093C26.5814 69.8266 26.6229 69.8508 26.6229 69.8784V70.0098L24.5653 69.9891C24.4927 70.1516 24.3094 70.2969 24.0155 70.4317C23.7215 70.5666 23.3446 70.6807 22.8881 70.781L22.1377 70.6773C22.072 70.6669 22.0167 70.6531 21.9717 70.6392C21.9268 70.6219 21.906 70.6046 21.906 70.5874C21.906 70.5631 21.9648 70.532 22.0789 70.5009C22.1965 70.4698 22.3245 70.4283 22.4697 70.3799C22.6149 70.3315 22.7567 70.2761 22.8985 70.2104C23.0368 70.1447 23.1302 70.0686 23.1786 69.9753L18.3234 69.9268C18.1955 70.0202 18.0537 70.1136 17.8946 70.2035C17.7355 70.2934 17.528 70.3764 17.2652 70.449C17.0024 70.5216 16.6773 70.5804 16.29 70.6254C15.8993 70.6703 15.4082 70.6946 14.8169 70.698C14.3708 70.7015 13.9385 70.6842 13.5132 70.6461C13.0878 70.6116 12.7109 70.5562 12.3823 70.4836C12.0538 70.411 11.7841 70.3245 11.5731 70.2173C11.3622 70.1101 11.2446 69.9891 11.2204 69.8542L9.90286 69.8404C9.78529 69.8404 9.685 69.83 9.59163 69.8127C9.50172 69.7954 9.45331 69.7712 9.45331 69.7436V69.6122L11.255 69.6294C11.3345 69.4911 11.4971 69.3701 11.746 69.2663C11.995 69.1626 12.2993 69.0727 12.659 68.9897L13.2607 69.0727C13.444 69.0969 13.5339 69.128 13.5339 69.1626C13.5339 69.1799 13.4959 69.2041 13.4198 69.2318C13.3437 69.2594 13.2538 69.294 13.15 69.3321C13.0463 69.3701 12.946 69.415 12.8492 69.4669C12.7524 69.5188 12.6797 69.5776 12.6313 69.6433L17.0647 69.6952ZM12.6244 69.875C12.659 69.9614 12.742 70.0341 12.863 70.0998C12.9841 70.162 13.1362 70.2139 13.3195 70.2554C13.5028 70.2969 13.7068 70.3245 13.935 70.3453C14.1633 70.3626 14.4053 70.3729 14.6543 70.3729C14.9448 70.3729 15.2007 70.3591 15.4186 70.3349C15.633 70.3107 15.8232 70.2796 15.9892 70.2381C16.1517 70.1966 16.2969 70.1516 16.418 70.0963C16.539 70.041 16.6497 69.9856 16.7465 69.9199L12.6244 69.875ZM23.1925 69.7574C23.1579 69.6709 23.068 69.5914 22.9296 69.5257C22.7913 69.46 22.6149 69.4047 22.404 69.3597C22.1896 69.3148 21.9406 69.2802 21.657 69.2594C21.3735 69.2387 21.0622 69.2283 20.7199 69.2283C20.4156 69.2283 20.1528 69.2421 19.9349 69.2698C19.717 69.294 19.5268 69.3286 19.3643 69.3735C19.2052 69.4185 19.0669 69.4669 18.9528 69.5257C18.8387 69.5845 18.7349 69.6467 18.6381 69.7124L23.1925 69.7574Z" fill="#FCB048"/>
<path d="M18.4099 67.9488C12.0746 67.9488 5.47648 68.5055 4.42175 69.5845C4.46325 69.6225 4.50129 69.664 4.53587 69.7055C5.42461 68.9551 10.8712 68.2012 18.4064 68.2012C26.1353 68.2012 31.6684 68.9966 32.3392 69.7643C32.3738 69.7228 32.4084 69.6813 32.4464 69.6433C31.5784 68.5263 24.8593 67.9488 18.4099 67.9488Z" fill="url(#paint39_linear)"/>
<path d="M36.6585 71.8146L34.0891 73.6405C33.2592 74.2319 36.2747 79.8928 40.8221 86.2869C45.3695 92.681 49.7302 97.3875 50.5602 96.7962L53.1296 94.9703L36.6585 71.8146Z" fill="url(#paint40_linear)"/>
<path d="M53.1297 94.9706C52.2997 95.5619 47.939 90.8554 43.3916 84.4614C38.8441 78.0673 35.8286 72.4029 36.6586 71.815C37.4885 71.2236 41.8492 75.9302 46.3967 82.3242C50.9476 88.7183 53.9596 94.3793 53.1297 94.9706Z" fill="url(#paint41_linear)"/>
<path d="M43.2877 84.5341C39.259 78.8696 35.5865 72.5655 36.6308 71.822C36.6896 71.7805 36.8037 71.7286 36.8452 71.7874C36.8867 71.8462 36.7899 71.8773 36.7311 71.9153C36.0706 72.3857 38.685 77.6213 43.4952 84.3854C48.3055 91.146 52.393 95.3373 53.0569 94.8635C53.1157 94.822 53.1745 94.7943 53.216 94.8531C53.2575 94.9119 53.1711 94.9499 53.1123 94.9914C52.0679 95.7349 47.3165 90.1985 43.2877 84.5341Z" fill="url(#paint42_linear)"/>
<path d="M44.0313 82.3589C44.1903 82.4176 44.3529 82.4833 44.5223 82.556C44.6883 82.6286 44.8785 82.7462 45.0825 82.9052C45.29 83.0643 45.5217 83.2822 45.7776 83.5623C46.0335 83.8389 46.3275 84.209 46.6525 84.662C46.9741 85.1081 47.2577 85.5369 47.5067 85.9518C47.7557 86.3668 47.9562 86.7438 48.1049 87.0861C48.2571 87.4285 48.3539 87.7224 48.3954 87.9748C48.4369 88.2238 48.4127 88.4071 48.3228 88.5281L49.2358 89.8422C49.3015 89.9356 49.3533 90.0255 49.3914 90.1085C49.4294 90.1915 49.4363 90.2399 49.4121 90.2572L49.3049 90.3333L48.1291 88.6457C47.9562 88.6803 47.728 88.6146 47.4479 88.4521C47.1678 88.2895 46.8566 88.0509 46.5107 87.7362L46.1615 87.0654C46.1303 87.0031 46.1096 86.9512 46.0992 86.9063C46.0854 86.8613 46.0888 86.8337 46.1027 86.8233C46.1234 86.8095 46.1788 86.8406 46.2756 86.9132C46.369 86.9893 46.4796 87.0723 46.6007 87.1622C46.7251 87.2521 46.8531 87.3351 46.988 87.4146C47.1228 87.4907 47.2404 87.5218 47.3407 87.508L44.5673 83.5242C44.4186 83.4758 44.2595 83.4101 44.0935 83.334C43.9275 83.258 43.7408 83.1335 43.5298 82.964C43.3189 82.7946 43.0837 82.5629 42.8209 82.2689C42.5581 81.975 42.2538 81.5911 41.908 81.1105C41.6486 80.7508 41.41 80.3877 41.1956 80.0212C40.9777 79.6546 40.8048 79.3157 40.6734 79.0079C40.542 78.6967 40.4556 78.427 40.421 78.1918C40.3864 77.9601 40.4141 77.7941 40.5143 77.6938L39.7605 76.6114C39.6948 76.5181 39.6429 76.4282 39.6014 76.3417C39.5634 76.2587 39.5564 76.2068 39.5806 76.1895L39.6879 76.1135L40.7184 77.5901C40.8774 77.5763 41.0711 77.6385 41.2993 77.7803C41.5276 77.9255 41.78 78.1192 42.0532 78.3647L42.3368 78.9042C42.4232 79.0667 42.4509 79.1601 42.4232 79.1808C42.4094 79.1912 42.3679 79.1739 42.3022 79.129C42.2365 79.0805 42.157 79.0287 42.0636 78.9664C41.9737 78.9042 41.8768 78.8489 41.78 78.8004C41.6797 78.752 41.5898 78.7244 41.5103 78.7244L44.0313 82.3589ZM41.3097 78.8419C41.2613 78.9215 41.2475 79.0287 41.2648 79.167C41.2855 79.3019 41.3305 79.4575 41.4031 79.6304C41.4757 79.8033 41.5725 79.9866 41.6867 80.1837C41.8042 80.3808 41.9356 80.5814 42.0809 80.7854C42.2503 81.0206 42.4094 81.2211 42.5546 81.3871C42.6999 81.5496 42.8348 81.6845 42.9627 81.7952C43.0907 81.9058 43.2117 81.9957 43.3258 82.0614C43.4399 82.1306 43.5506 82.1825 43.6578 82.2274L41.3097 78.8419ZM47.5343 87.3835C47.5862 87.304 47.5966 87.1864 47.5689 87.0377C47.5413 86.889 47.4859 86.7126 47.3995 86.5121C47.313 86.3115 47.1955 86.0902 47.0502 85.8446C46.905 85.6026 46.7321 85.3398 46.5315 85.0631C46.3551 84.8176 46.1891 84.6101 46.0439 84.4476C45.8952 84.285 45.7569 84.1502 45.6289 84.043C45.501 83.9358 45.3799 83.8528 45.2693 83.7974C45.1552 83.7386 45.0445 83.6902 44.9373 83.6487L47.5343 87.3835Z" fill="#FCB048"/>
<path d="M46.2375 82.4419C42.565 77.2789 38.2873 72.2265 36.7968 71.9914C36.7899 72.0467 36.7795 72.1021 36.7657 72.1574C37.893 72.4479 41.6624 76.4489 46.03 82.5906C50.5083 88.8878 53.0708 93.8571 52.8356 94.8496C52.8875 94.8531 52.9428 94.8565 52.9947 94.8669C53.3958 93.5044 49.9723 87.6948 46.2375 82.4419Z" fill="url(#paint43_linear)"/>
<defs>
<linearGradient id="paint0_linear" x1="99.8934" y1="84.5885" x2="45.985" y2="57.225" gradientUnits="userSpaceOnUse">
<stop stop-color="#86E6FF"/>
<stop offset="1" stop-color="#1A68FF"/>
</linearGradient>
<linearGradient id="paint1_linear" x1="85.7478" y1="336.61" x2="-95.1487" y2="118.004" gradientUnits="userSpaceOnUse">
<stop stop-color="#ABC4FF"/>
<stop offset="1" stop-color="white"/>
</linearGradient>
<linearGradient id="paint2_linear" x1="25.5641" y1="103.813" x2="83.7999" y2="-7.51316" gradientUnits="userSpaceOnUse">
<stop stop-color="#444B8C"/>
<stop offset="0.9964" stop-color="#26264F"/>
</linearGradient>
<linearGradient id="paint3_linear" x1="-10.0893" y1="176.61" x2="48.1465" y2="65.2834" gradientUnits="userSpaceOnUse">
<stop stop-color="#AA80F9"/>
<stop offset="0.9964" stop-color="#6165D7"/>
</linearGradient>
<linearGradient id="paint4_linear" x1="17.1341" y1="16.2667" x2="99.4366" y2="64.3901" gradientUnits="userSpaceOnUse">
<stop stop-color="#02C34D"/>
<stop offset="1" stop-color="#91FF8C"/>
</linearGradient>
<linearGradient id="paint5_linear" x1="16.5709" y1="52.811" x2="77.8265" y2="52.811" gradientUnits="userSpaceOnUse">
<stop stop-color="#AA80F9"/>
<stop offset="0.9964" stop-color="#6165D7"/>
</linearGradient>
<linearGradient id="paint6_linear" x1="0.251343" y1="0" x2="49.879" y2="75.3913" gradientUnits="userSpaceOnUse">
<stop stop-color="#FFB200"/>
<stop offset="1" stop-color="#FF5800"/>
</linearGradient>
<linearGradient id="paint7_linear" x1="55.5619" y1="30.1077" x2="70.1" y2="10.1832" gradientUnits="userSpaceOnUse">
<stop stop-color="#FCB148"/>
<stop offset="0.0520724" stop-color="#FDBA46"/>
<stop offset="0.1424" stop-color="#FFC244"/>
<stop offset="0.3183" stop-color="#FFC444"/>
<stop offset="0.4849" stop-color="#FDB946"/>
<stop offset="0.7754" stop-color="#F99C4D"/>
<stop offset="0.8658" stop-color="#F8924F"/>
<stop offset="1" stop-color="#F8924F"/>
</linearGradient>
<linearGradient id="paint8_linear" x1="5.79463" y1="93.0064" x2="9.80543" y2="105.848" gradientUnits="userSpaceOnUse">
<stop stop-color="#FE8E27"/>
<stop offset="1" stop-color="#FFCC4A"/>
</linearGradient>
<linearGradient id="paint9_linear" x1="20.5827" y1="91.8208" x2="22.3062" y2="106.249" gradientUnits="userSpaceOnUse">
<stop stop-color="#FFDB44"/>
<stop offset="1" stop-color="#FEEF06"/>
</linearGradient>
<linearGradient id="paint10_linear" x1="20.5066" y1="91.1773" x2="21.0359" y2="95.6085" gradientUnits="userSpaceOnUse">
<stop stop-color="#FFDB44"/>
<stop offset="1" stop-color="#FEEF06"/>
</linearGradient>
<linearGradient id="paint11_linear" x1="21.0043" y1="95.144" x2="20.4768" y2="90.7285" gradientUnits="userSpaceOnUse">
<stop offset="0.00359712" stop-color="#F36F56"/>
<stop offset="0.3059" stop-color="#F99C4C"/>
<stop offset="0.545" stop-color="#FDB946"/>
<stop offset="0.6817" stop-color="#FFC444"/>
<stop offset="0.8038" stop-color="#FFC244"/>
<stop offset="0.8667" stop-color="#FEBA46"/>
<stop offset="0.916" stop-color="#FCAD49"/>
<stop offset="0.958" stop-color="#F99A4D"/>
<stop offset="0.9955" stop-color="#F58152"/>
<stop offset="1" stop-color="#F57E53"/>
</linearGradient>
<linearGradient id="paint12_linear" x1="1.84535" y1="89.696" x2="5.85615" y2="102.538" gradientUnits="userSpaceOnUse">
<stop stop-color="#FE8E27"/>
<stop offset="1" stop-color="#FFCC4A"/>
</linearGradient>
<linearGradient id="paint13_linear" x1="16.6318" y1="88.5093" x2="18.3553" y2="102.938" gradientUnits="userSpaceOnUse">
<stop stop-color="#FFDB44"/>
<stop offset="1" stop-color="#FEEF06"/>
</linearGradient>
<linearGradient id="paint14_linear" x1="16.5567" y1="87.8653" x2="17.086" y2="92.2964" gradientUnits="userSpaceOnUse">
<stop stop-color="#FFDB44"/>
<stop offset="1" stop-color="#FEEF06"/>
</linearGradient>
<linearGradient id="paint15_linear" x1="17.0542" y1="91.8336" x2="16.5268" y2="87.4181" gradientUnits="userSpaceOnUse">
<stop offset="0.00359712" stop-color="#F36F56"/>
<stop offset="0.3059" stop-color="#F99C4C"/>
<stop offset="0.545" stop-color="#FDB946"/>
<stop offset="0.6817" stop-color="#FFC444"/>
<stop offset="0.8038" stop-color="#FFC244"/>
<stop offset="0.8667" stop-color="#FEBA46"/>
<stop offset="0.916" stop-color="#FCAD49"/>
<stop offset="0.958" stop-color="#F99A4D"/>
<stop offset="0.9955" stop-color="#F58152"/>
<stop offset="1" stop-color="#F57E53"/>
</linearGradient>
<linearGradient id="paint16_linear" x1="5.25154" y1="86.3943" x2="9.26233" y2="99.2359" gradientUnits="userSpaceOnUse">
<stop stop-color="#FE8E27"/>
<stop offset="1" stop-color="#FFCC4A"/>
</linearGradient>
<linearGradient id="paint17_linear" x1="20.041" y1="85.2097" x2="21.7645" y2="99.6381" gradientUnits="userSpaceOnUse">
<stop stop-color="#FFDB44"/>
<stop offset="1" stop-color="#FEEF06"/>
</linearGradient>
<linearGradient id="paint18_linear" x1="19.9649" y1="84.5663" x2="20.4943" y2="88.9975" gradientUnits="userSpaceOnUse">
<stop stop-color="#FFDB44"/>
<stop offset="1" stop-color="#FEEF06"/>
</linearGradient>
<linearGradient id="paint19_linear" x1="20.4625" y1="88.5329" x2="19.9351" y2="84.1174" gradientUnits="userSpaceOnUse">
<stop offset="0.00359712" stop-color="#F36F56"/>
<stop offset="0.3059" stop-color="#F99C4C"/>
<stop offset="0.545" stop-color="#FDB946"/>
<stop offset="0.6817" stop-color="#FFC444"/>
<stop offset="0.8038" stop-color="#FFC244"/>
<stop offset="0.8667" stop-color="#FEBA46"/>
<stop offset="0.916" stop-color="#FCAD49"/>
<stop offset="0.958" stop-color="#F99A4D"/>
<stop offset="0.9955" stop-color="#F58152"/>
<stop offset="1" stop-color="#F57E53"/>
</linearGradient>
<linearGradient id="paint20_linear" x1="7.32381" y1="83.085" x2="11.3346" y2="95.9265" gradientUnits="userSpaceOnUse">
<stop stop-color="#FE8E27"/>
<stop offset="1" stop-color="#FFCC4A"/>
</linearGradient>
<linearGradient id="paint21_linear" x1="22.1085" y1="81.8994" x2="23.832" y2="96.3278" gradientUnits="userSpaceOnUse">
<stop stop-color="#FFDB44"/>
<stop offset="1" stop-color="#FEEF06"/>
</linearGradient>
<linearGradient id="paint22_linear" x1="22.0332" y1="81.2559" x2="22.5625" y2="85.6871" gradientUnits="userSpaceOnUse">
<stop stop-color="#FFDB44"/>
<stop offset="1" stop-color="#FEEF06"/>
</linearGradient>
<linearGradient id="paint23_linear" x1="22.5307" y1="85.2226" x2="22.0033" y2="80.8071" gradientUnits="userSpaceOnUse">
<stop offset="0.00359712" stop-color="#F36F56"/>
<stop offset="0.3059" stop-color="#F99C4C"/>
<stop offset="0.545" stop-color="#FDB946"/>
<stop offset="0.6817" stop-color="#FFC444"/>
<stop offset="0.8038" stop-color="#FFC244"/>
<stop offset="0.8667" stop-color="#FEBA46"/>
<stop offset="0.916" stop-color="#FCAD49"/>
<stop offset="0.958" stop-color="#F99A4D"/>
<stop offset="0.9955" stop-color="#F58152"/>
<stop offset="1" stop-color="#F57E53"/>
</linearGradient>
<linearGradient id="paint24_linear" x1="5.79463" y1="79.5128" x2="9.80543" y2="92.3544" gradientUnits="userSpaceOnUse">
<stop stop-color="#FE8E27"/>
<stop offset="1" stop-color="#FFCC4A"/>
</linearGradient>
<linearGradient id="paint25_linear" x1="20.5827" y1="78.3279" x2="22.3062" y2="92.7563" gradientUnits="userSpaceOnUse">
<stop stop-color="#FFDB44"/>
<stop offset="1" stop-color="#FEEF06"/>
</linearGradient>
<linearGradient id="paint26_linear" x1="20.5066" y1="77.6845" x2="21.0359" y2="82.1157" gradientUnits="userSpaceOnUse">
<stop stop-color="#FFDB44"/>
<stop offset="1" stop-color="#FEEF06"/>
</linearGradient>
<linearGradient id="paint27_linear" x1="21.0043" y1="81.6511" x2="20.4768" y2="77.2357" gradientUnits="userSpaceOnUse">
<stop offset="0.00359712" stop-color="#F36F56"/>
<stop offset="0.3059" stop-color="#F99C4C"/>
<stop offset="0.545" stop-color="#FDB946"/>
<stop offset="0.6817" stop-color="#FFC444"/>
<stop offset="0.8038" stop-color="#FFC244"/>
<stop offset="0.8667" stop-color="#FEBA46"/>
<stop offset="0.916" stop-color="#FCAD49"/>
<stop offset="0.958" stop-color="#F99A4D"/>
<stop offset="0.9955" stop-color="#F58152"/>
<stop offset="1" stop-color="#F57E53"/>
</linearGradient>
<linearGradient id="paint28_linear" x1="1.84535" y1="76.2026" x2="5.85613" y2="89.0442" gradientUnits="userSpaceOnUse">
<stop stop-color="#FE8E27"/>
<stop offset="1" stop-color="#FFCC4A"/>
</linearGradient>
<linearGradient id="paint29_linear" x1="16.6335" y1="75.0167" x2="18.357" y2="89.4451" gradientUnits="userSpaceOnUse">
<stop stop-color="#FFDB44"/>
<stop offset="1" stop-color="#FEEF06"/>
</linearGradient>
<linearGradient id="paint30_linear" x1="16.5567" y1="74.3725" x2="17.086" y2="78.8037" gradientUnits="userSpaceOnUse">
<stop stop-color="#FFDB44"/>
<stop offset="1" stop-color="#FEEF06"/>
</linearGradient>
<linearGradient id="paint31_linear" x1="17.0542" y1="78.3408" x2="16.5268" y2="73.9253" gradientUnits="userSpaceOnUse">
<stop offset="0.00359712" stop-color="#F36F56"/>
<stop offset="0.3059" stop-color="#F99C4C"/>
<stop offset="0.545" stop-color="#FDB946"/>
<stop offset="0.6817" stop-color="#FFC444"/>
<stop offset="0.8038" stop-color="#FFC244"/>
<stop offset="0.8667" stop-color="#FEBA46"/>
<stop offset="0.916" stop-color="#FCAD49"/>
<stop offset="0.958" stop-color="#F99A4D"/>
<stop offset="0.9955" stop-color="#F58152"/>
<stop offset="1" stop-color="#F57E53"/>
</linearGradient>
<linearGradient id="paint32_linear" x1="5.25154" y1="72.9008" x2="9.26232" y2="85.7424" gradientUnits="userSpaceOnUse">
<stop stop-color="#FE8E27"/>
<stop offset="1" stop-color="#FFCC4A"/>
</linearGradient>
<linearGradient id="paint33_linear" x1="20.0409" y1="71.717" x2="21.7645" y2="86.1454" gradientUnits="userSpaceOnUse">
<stop stop-color="#FFDB44"/>
<stop offset="1" stop-color="#FEEF06"/>
</linearGradient>
<linearGradient id="paint34_linear" x1="19.9649" y1="71.0737" x2="20.4943" y2="75.5049" gradientUnits="userSpaceOnUse">
<stop stop-color="#FFDB44"/>
<stop offset="1" stop-color="#FEEF06"/>
</linearGradient>
<linearGradient id="paint35_linear" x1="20.4625" y1="75.0401" x2="19.9351" y2="70.6247" gradientUnits="userSpaceOnUse">
<stop offset="0.00359712" stop-color="#F36F56"/>
<stop offset="0.3059" stop-color="#F99C4C"/>
<stop offset="0.545" stop-color="#FDB946"/>
<stop offset="0.6817" stop-color="#FFC444"/>
<stop offset="0.8038" stop-color="#FFC244"/>
<stop offset="0.8667" stop-color="#FEBA46"/>
<stop offset="0.916" stop-color="#FCAD49"/>
<stop offset="0.958" stop-color="#F99A4D"/>
<stop offset="0.9955" stop-color="#F58152"/>
<stop offset="1" stop-color="#F57E53"/>
</linearGradient>
<linearGradient id="paint36_linear" x1="3.48097" y1="69.5914" x2="7.49175" y2="82.433" gradientUnits="userSpaceOnUse">
<stop stop-color="#FE8E27"/>
<stop offset="1" stop-color="#FFCC4A"/>
</linearGradient>
<linearGradient id="paint37_linear" x1="18.2681" y1="68.4066" x2="19.9916" y2="82.8351" gradientUnits="userSpaceOnUse">
<stop stop-color="#FFDB44"/>
<stop offset="1" stop-color="#FEEF06"/>
</linearGradient>
<linearGradient id="paint38_linear" x1="18.1921" y1="67.7631" x2="18.7214" y2="72.1943" gradientUnits="userSpaceOnUse">
<stop stop-color="#FFDB44"/>
<stop offset="1" stop-color="#FEEF06"/>
</linearGradient>
<linearGradient id="paint39_linear" x1="18.6897" y1="71.7298" x2="18.1622" y2="67.3143" gradientUnits="userSpaceOnUse">
<stop offset="0.00359712" stop-color="#F36F56"/>
<stop offset="0.3059" stop-color="#F99C4C"/>
<stop offset="0.545" stop-color="#FDB946"/>
<stop offset="0.6817" stop-color="#FFC444"/>
<stop offset="0.8038" stop-color="#FFC244"/>
<stop offset="0.8667" stop-color="#FEBA46"/>
<stop offset="0.916" stop-color="#FCAD49"/>
<stop offset="0.958" stop-color="#F99A4D"/>
<stop offset="0.9955" stop-color="#F58152"/>
<stop offset="1" stop-color="#F57E53"/>
</linearGradient>
<linearGradient id="paint40_linear" x1="33.4662" y1="71.8146" x2="59.1477" y2="82.884" gradientUnits="userSpaceOnUse">
<stop stop-color="#FE8E27"/>
<stop offset="1" stop-color="#FFCC4A"/>
</linearGradient>
<linearGradient id="paint41_linear" x1="45.7784" y1="82.5897" x2="35.0209" y2="92.3557" gradientUnits="userSpaceOnUse">
<stop stop-color="#FFDB44"/>
<stop offset="1" stop-color="#FEEF06"/>
</linearGradient>
<linearGradient id="paint42_linear" x1="46.259" y1="82.156" x2="42.9553" y2="85.1551" gradientUnits="userSpaceOnUse">
<stop stop-color="#FFDB44"/>
<stop offset="1" stop-color="#FEEF06"/>
</linearGradient>
<linearGradient id="paint43_linear" x1="43.3157" y1="84.8599" x2="46.6075" y2="81.8714" gradientUnits="userSpaceOnUse">
<stop offset="0.00359712" stop-color="#F36F56"/>
<stop offset="0.3059" stop-color="#F99C4C"/>
<stop offset="0.545" stop-color="#FDB946"/>
<stop offset="0.6817" stop-color="#FFC444"/>
<stop offset="0.8038" stop-color="#FFC244"/>
<stop offset="0.8667" stop-color="#FEBA46"/>
<stop offset="0.916" stop-color="#FCAD49"/>
<stop offset="0.958" stop-color="#F99A4D"/>
<stop offset="0.9955" stop-color="#F58152"/>
<stop offset="1" stop-color="#F57E53"/>
</linearGradient>
</defs>
</svg>
