<svg width="70" height="69" viewBox="0 0 70 69" fill="none" xmlns="http://www.w3.org/2000/svg">
<path d="M56.3511 60.0968L53.7747 52.3666C52.8744 49.6678 50.5773 47.6757 47.7773 47.166L40.3398 45.8127V45.2362C41.6341 44.485 42.7603 43.4801 43.6573 42.2904H45.9043C47.745 42.2904 49.243 40.7924 49.243 38.9517V25.5969C49.243 17.6196 42.7525 11.1292 34.7752 11.1292C26.798 11.1292 20.3075 17.6196 20.3075 25.5969V33.3872C20.3075 35.5329 21.8333 37.328 23.8566 37.7464C24.4809 40.9449 26.4797 43.6515 29.2107 45.2362V45.8127L21.7721 47.166C18.9731 47.6757 16.675 49.6678 15.7758 52.3666L15.3306 53.7032L11.5401 49.9127C11.106 49.4786 11.106 48.7719 11.5401 48.3379L15.936 43.9431L7.68499 35.692L2.717 40.66C1.24574 42.1313 0.435547 44.0877 0.435547 46.1689C0.435547 48.25 1.24574 50.2054 2.717 51.6766L17.7579 66.7175C19.2291 68.1887 21.1856 69 23.2667 69C25.3479 69 27.3032 68.1887 28.74 66.7509L34.1609 61.784L32.4704 60.0968H56.3511ZM47.0172 38.9517C47.0172 39.566 46.5175 40.0646 45.9043 40.0646H44.9683C45.2911 39.329 45.5359 38.5533 45.6939 37.7464C46.1702 37.6474 46.6087 37.4582 47.0172 37.22V38.9517ZM45.9043 35.3036V31.4708C46.5664 31.8569 47.0172 32.567 47.0172 33.3872C47.0172 34.2074 46.5664 34.9174 45.9043 35.3036ZM23.6462 35.3036C22.984 34.9174 22.5333 34.2074 22.5333 33.3872C22.5333 32.567 22.984 31.8569 23.6462 31.4708V35.3036ZM23.6462 27.8227V29.0936C23.25 29.1971 22.8783 29.3529 22.5333 29.5543V25.5969C22.5333 18.8471 28.0255 13.355 34.7752 13.355C41.525 13.355 47.0172 18.8471 47.0172 25.5969V29.5543C46.6722 29.3529 46.3005 29.196 45.9043 29.0936V27.8227H44.7914C41.5005 27.8227 38.4066 26.5406 36.0784 24.2135L34.7752 22.9103L33.472 24.2135C31.1438 26.5406 28.05 27.8227 24.7591 27.8227H23.6462ZM25.872 35.613V30.0062C29.2141 29.7547 32.3302 28.3758 34.7752 26.0509C37.2203 28.3758 40.3364 29.7558 43.6785 30.0062V35.613C43.6785 37.2356 43.2355 38.7536 42.4743 40.0646H34.7752V42.2904H40.6447C39.0755 43.6715 37.0244 44.5162 34.7752 44.5162C29.8662 44.5162 25.872 40.522 25.872 35.613ZM38.1139 46.229V46.2813L34.7752 49.62L31.4365 46.2813V46.229C32.4916 46.5606 33.6123 46.742 34.7752 46.742C35.9382 46.742 37.0589 46.5606 38.1139 46.229ZM17.8858 53.07C18.528 51.1424 20.1695 49.719 22.1694 49.354L29.9486 47.9406L34.7752 52.7673L39.6008 47.9417L47.3789 49.3551C49.3787 49.7201 51.0203 51.1424 51.6624 53.0711L53.2639 57.871H30.2446L25.9099 53.5363L21.0932 57.8933C20.6737 58.3151 19.9403 58.3151 19.5196 57.8933L17.089 55.4627L17.8858 53.07ZM7.68388 38.8393L12.7876 43.9431L11.579 45.1517L6.47526 40.0479L7.68388 38.8393ZM27.1986 65.1461C26.148 66.1944 24.7502 66.7742 23.2645 66.7742C21.7788 66.7742 20.381 66.1944 19.3293 65.1438L4.28841 50.1041C3.23783 49.0535 2.65912 47.6557 2.65912 46.17C2.65912 44.6831 3.23783 43.2853 4.28841 42.2348L4.90051 41.6227L10.0043 46.7264L9.96421 46.7665C8.66323 48.0686 8.66323 50.1864 9.96421 51.4885L17.9448 59.4692C18.5758 60.0991 19.4139 60.4474 20.3064 60.4474C21.199 60.4474 22.037 60.1002 22.6268 59.5081L22.7103 59.4335L27.8374 64.5607L27.1986 65.1461ZM29.4801 63.0538L24.364 57.9378L25.8342 56.609L30.9413 61.7161L29.4801 63.0538Z" fill="url(#paint0_linear)"/>
<path d="M65.9363 0H50.3557C48.5149 0 47.017 1.49797 47.017 3.3387V12.2419C47.017 14.0827 48.5149 15.5806 50.3557 15.5806H53.3282L52.1775 22.2925L62.917 15.5806H65.9363C67.777 15.5806 69.275 14.0827 69.275 12.2419V3.3387C69.275 1.49797 67.777 0 65.9363 0ZM67.0492 12.2419C67.0492 12.8551 66.5495 13.3548 65.9363 13.3548H62.2782L55.2101 17.7719L55.968 13.3548H50.3557C49.7425 13.3548 49.2428 12.8551 49.2428 12.2419V3.3387C49.2428 2.7255 49.7425 2.2258 50.3557 2.2258H65.9363C66.5495 2.2258 67.0492 2.7255 67.0492 3.3387V12.2419Z" fill="url(#paint1_linear)"/>
<path d="M64.8236 4.45142H51.4688V6.67722H64.8236V4.45142Z" fill="url(#paint2_linear)"/>
<path d="M60.372 8.90332H51.4688V11.1291H60.372V8.90332Z" fill="url(#paint3_linear)"/>
<path d="M64.8235 8.90332H62.5977V11.1291H64.8235V8.90332Z" fill="url(#paint4_linear)"/>
<path d="M34.7751 3.33862C20.234 3.33862 7.70825 13.397 4.4519 27.4274L2.34295 23.9117L0.434326 25.0569L4.34618 31.5752L10.8644 27.6633L9.71926 25.7547L6.7033 27.5643C9.85727 14.7292 21.3992 5.56443 34.7751 5.56443C37.6987 5.56443 40.5834 5.99846 43.3489 6.85539L44.0078 4.72975C41.0285 3.80604 37.9224 3.33862 34.7751 3.33862Z" fill="url(#paint5_linear)"/>
<path d="M68.7343 24.6418L62.216 20.73L58.3052 27.2494L60.2139 28.3945L62.1615 25.1482C63.1864 28.1475 63.7106 31.2847 63.7106 34.4999C63.7106 41.1183 61.418 47.5887 57.2569 52.7181L58.9852 54.1204C63.468 48.5959 65.9364 41.6269 65.9364 34.4999C65.9364 31.0955 65.3878 27.7713 64.3183 24.5884L67.5891 26.5505L68.7343 24.6418Z" fill="url(#paint6_linear)"/>
<defs>
<linearGradient id="paint0_linear" x1="0.435547" y1="11.1292" x2="58.2723" y2="67.0117" gradientUnits="userSpaceOnUse">
<stop stop-color="#00ADEE"/>
<stop offset="1" stop-color="#2C3393"/>
</linearGradient>
<linearGradient id="paint1_linear" x1="47.017" y1="0" x2="69.3095" y2="22.258" gradientUnits="userSpaceOnUse">
<stop stop-color="#00ADEE"/>
<stop offset="1" stop-color="#2C3393"/>
</linearGradient>
<linearGradient id="paint2_linear" x1="51.4688" y1="4.45142" x2="52.1906" y2="8.78271" gradientUnits="userSpaceOnUse">
<stop stop-color="#00ADEE"/>
<stop offset="1" stop-color="#2C3393"/>
</linearGradient>
<linearGradient id="paint3_linear" x1="51.4688" y1="8.90332" x2="52.5162" y2="13.0931" gradientUnits="userSpaceOnUse">
<stop stop-color="#00ADEE"/>
<stop offset="1" stop-color="#2C3393"/>
</linearGradient>
<linearGradient id="paint4_linear" x1="62.5977" y1="8.90332" x2="64.8235" y2="11.1291" gradientUnits="userSpaceOnUse">
<stop stop-color="#00ADEE"/>
<stop offset="1" stop-color="#2C3393"/>
</linearGradient>
<linearGradient id="paint5_linear" x1="0.434326" y1="3.33862" x2="26.2072" y2="43.1103" gradientUnits="userSpaceOnUse">
<stop stop-color="#00ADEE"/>
<stop offset="1" stop-color="#2C3393"/>
</linearGradient>
<linearGradient id="paint6_linear" x1="57.2569" y1="20.73" x2="77.786" y2="27.7865" gradientUnits="userSpaceOnUse">
<stop stop-color="#00ADEE"/>
<stop offset="1" stop-color="#2C3393"/>
</linearGradient>
</defs>
</svg>
