<svg width="208" height="142" viewBox="0 0 208 142" fill="none" xmlns="http://www.w3.org/2000/svg">
<path d="M37.0927 85.8606C36.1697 87.8793 35.7594 88.5893 36.3235 90.5224C36.9047 92.4984 38.8533 93.7558 40.7336 94.9704C42.1694 95.8942 43.6565 96.8523 44.1523 97.9472C44.6651 99.0677 44.4172 100.838 44.1779 102.549C43.8702 104.756 43.5454 107.031 44.6394 108.742C45.7419 110.461 47.9641 111.112 50.1007 111.744C51.7503 112.232 53.451 112.728 54.2459 113.652C55.0493 114.576 55.3057 116.338 55.5535 118.04C55.8698 120.247 56.2031 122.531 57.7415 123.874C59.2799 125.208 61.5789 125.217 63.8096 125.217C65.5275 125.217 67.3052 125.225 68.3394 125.893C69.365 126.551 70.1 128.159 70.8093 129.725C71.7409 131.76 72.6982 133.865 74.5699 134.72C76.416 135.567 78.6125 134.917 80.7491 134.292C82.4072 133.805 84.1165 133.309 85.3131 133.659C86.4669 134.002 87.6207 135.327 88.7403 136.61C90.2103 138.304 91.7401 140.058 93.7828 140.357C95.7742 140.639 97.6886 139.408 99.5518 138.21C101.013 137.269 102.526 136.303 103.791 136.303C105.056 136.303 106.56 137.278 108.03 138.21C109.705 139.288 111.432 140.391 113.209 140.391C113.406 140.391 113.603 140.383 113.791 140.348C115.833 140.058 117.363 138.304 118.833 136.602C119.953 135.319 121.107 133.984 122.26 133.651C123.448 133.3 125.166 133.805 126.824 134.284C128.952 134.908 131.157 135.55 133.004 134.712C134.867 133.856 135.832 131.752 136.756 129.716C137.465 128.159 138.2 126.551 139.225 125.893C140.26 125.225 142.037 125.225 143.755 125.217C145.986 125.208 148.285 125.208 149.823 123.874C151.362 122.539 151.695 120.256 152.02 118.04C152.268 116.338 152.524 114.576 153.319 113.652C154.122 112.728 155.823 112.232 157.464 111.744C159.609 111.112 161.823 110.461 162.934 108.742C164.037 107.031 163.712 104.756 163.395 102.549C163.156 100.838 162.9 99.0763 163.421 97.9557C163.925 96.8523 165.404 95.9028 166.84 94.979C168.729 93.7643 170.677 92.5069 171.25 90.531C171.814 88.5978 171.464 87.8365 170.541 85.8178M36.7594 55.657C35.8363 53.6383 35.7594 52.8086 36.332 50.8669C36.9132 48.8909 38.8619 47.6335 40.7421 46.4189C42.178 45.4951 43.6651 44.537 44.1608 43.4422C44.6736 42.3216 44.4257 40.551 44.1864 38.8488C43.8788 36.6419 43.554 34.3665 44.648 32.6558C45.759 30.9365 47.9726 30.2864 50.1178 29.6534C51.7588 29.1658 53.4596 28.6697 54.263 27.7459C55.0664 26.8221 55.3228 25.06 55.5706 23.3578C55.8868 21.1509 56.2202 18.867 57.7586 17.5241C59.297 16.1897 61.596 16.1811 63.8267 16.1811C65.5446 16.1811 67.3223 16.1725 68.3564 15.5053C69.3821 14.8467 70.1171 13.2386 70.8264 11.6732C71.758 9.63742 72.7153 7.53318 74.5784 6.6778C76.416 5.83097 78.621 6.48106 80.7577 7.10549C82.4157 7.59306 84.1336 8.08918 85.3216 7.73847C86.4754 7.39632 87.6292 6.07048 88.7488 4.7874C90.2188 3.09374 91.7487 1.33165 93.7914 1.04082C95.7742 0.758548 97.6972 1.9903 99.5604 3.18784C101.022 4.12876 102.535 5.09534 103.8 5.09534C105.064 5.09534 106.569 4.1202 108.039 3.18784C109.893 1.9903 111.808 0.758548 113.808 1.04082C115.85 1.33165 117.38 3.08519 118.85 4.7874C119.97 6.07048 121.124 7.40487 122.277 7.73847C123.465 8.08918 125.183 7.5845 126.841 7.10549C128.969 6.48106 131.175 5.83952 133.021 6.6778C134.884 7.53318 135.85 9.63742 136.781 11.6732C137.491 13.23 138.226 14.8382 139.251 15.5053C140.285 16.1725 142.063 16.1725 143.781 16.1811C146.012 16.1811 148.311 16.1897 149.849 17.5241C151.387 18.8585 151.721 21.1423 152.037 23.3578C152.285 25.06 152.541 26.8221 153.345 27.7459C154.148 28.6697 155.849 29.1658 157.49 29.6534C159.635 30.2864 161.849 30.9365 162.951 32.6558C164.054 34.3665 163.729 36.6419 163.413 38.8488C163.173 40.5595 162.917 42.3216 163.438 43.4507C163.942 44.5542 165.421 45.5036 166.857 46.4274C168.746 47.6421 170.694 48.8995 171.267 50.8754C171.831 52.8086 171.429 53.5528 170.515 55.5629L36.7594 55.657Z" stroke="#211E1F" stroke-width="2" stroke-miterlimit="10"/>
<path d="M183.728 85.8264H155.857H131.08H69.0231H44.2548H27.3666H24.7855H3L17.008 70.7118L3 55.563H24.7855H27.3666H43.0925H66.9719H133.14H157.02H184.856M182.805 85.8264H204.573L188.865 70.7118L204.59 55.563H182.805" stroke="#211E1F" stroke-width="2" stroke-miterlimit="10"/>
<path d="M72.7579 85.8262C78.8261 96.7066 90.4496 104.063 103.791 104.063C117.132 104.063 128.747 96.7066 134.824 85.8262" stroke="#211E1F" stroke-width="2" stroke-miterlimit="10"/>
<path d="M70.7067 55.5628C75.8775 42.3386 88.7402 32.9722 103.791 32.9722C118.842 32.9722 131.704 42.3386 136.875 55.5628" stroke="#211E1F" stroke-width="2" stroke-miterlimit="10"/>
<path d="M47.9897 85.8262C55.3569 109.657 77.5612 126.97 103.791 126.97C130.029 126.97 152.225 109.657 159.592 85.8262" stroke="#211E1F" stroke-width="2" stroke-miterlimit="10"/>
<path d="M46.8274 55.563C52.7161 29.508 75.9801 10.0566 103.791 10.0566C131.602 10.0566 154.866 29.5081 160.755 55.5545" stroke="#211E1F" stroke-width="2" stroke-miterlimit="10"/>
<path d="M82.7811 76.7476C81.7889 76.7476 81.0682 76.4761 80.619 75.9331C80.1737 75.3862 79.951 74.7222 79.951 73.9409H81.0526C81.0995 74.4839 81.201 74.8784 81.3573 75.1245C81.6307 75.5659 82.1249 75.7866 82.8397 75.7866C83.3944 75.7866 83.8397 75.6382 84.1756 75.3413C84.5116 75.0444 84.6795 74.6616 84.6795 74.1929C84.6795 73.6147 84.5018 73.2104 84.1463 72.98C83.7948 72.7495 83.3045 72.6343 82.6756 72.6343C82.6053 72.6343 82.5331 72.6362 82.4588 72.6401C82.3885 72.6401 82.3163 72.6421 82.242 72.646V71.7144C82.3514 71.7261 82.4432 71.7339 82.5174 71.7378C82.5917 71.7417 82.6717 71.7437 82.7577 71.7437C83.1522 71.7437 83.4764 71.6812 83.7303 71.5562C84.1756 71.3374 84.3983 70.9468 84.3983 70.3843C84.3983 69.9663 84.2499 69.644 83.953 69.4175C83.6561 69.1909 83.3104 69.0776 82.9159 69.0776C82.2127 69.0776 81.7264 69.312 81.4569 69.7808C81.3084 70.0386 81.2245 70.4058 81.2049 70.8823H80.162C80.162 70.2573 80.287 69.7261 80.537 69.2886C80.9667 68.5073 81.7225 68.1167 82.8045 68.1167C83.66 68.1167 84.3221 68.3081 84.7909 68.6909C85.2596 69.0698 85.494 69.6206 85.494 70.3433C85.494 70.8589 85.3553 71.2769 85.078 71.5972C84.9061 71.7964 84.6834 71.9526 84.41 72.0659C84.8514 72.187 85.1952 72.4214 85.4413 72.769C85.6913 73.1128 85.8163 73.5347 85.8163 74.0347C85.8163 74.8354 85.5526 75.4878 85.0252 75.9917C84.4979 76.4956 83.7499 76.7476 82.7811 76.7476ZM89.5897 68.1284C90.6756 68.1284 91.4608 68.5757 91.9452 69.4702C92.3202 70.1616 92.5077 71.1089 92.5077 72.312C92.5077 73.4526 92.3377 74.396 91.9979 75.1421C91.5057 76.2124 90.701 76.7476 89.5838 76.7476C88.576 76.7476 87.826 76.3101 87.3338 75.4351C86.9237 74.7046 86.7186 73.7241 86.7186 72.4937C86.7186 71.5405 86.8417 70.7222 87.0877 70.0386C87.5487 68.7651 88.3827 68.1284 89.5897 68.1284ZM89.578 75.7866C90.1249 75.7866 90.5604 75.5444 90.8846 75.0601C91.2088 74.5757 91.3709 73.6733 91.3709 72.353C91.3709 71.3999 91.2538 70.6167 91.0194 70.0034C90.785 69.3862 90.3299 69.0776 89.6542 69.0776C89.0331 69.0776 88.578 69.3706 88.2889 69.9565C88.0038 70.5386 87.8612 71.3979 87.8612 72.5347C87.8612 73.3901 87.953 74.0776 88.1366 74.5972C88.4178 75.3901 88.8983 75.7866 89.578 75.7866ZM96.8612 72.6343H99.8026V73.7183H96.8612V72.6343ZM107.918 75.5229C108.312 75.5229 108.637 75.4819 108.89 75.3999C109.344 75.2476 109.715 74.9546 110.004 74.521C110.234 74.1733 110.4 73.728 110.502 73.1851C110.56 72.8608 110.59 72.5601 110.59 72.2827C110.59 71.2163 110.377 70.3882 109.951 69.7983C109.529 69.2085 108.848 68.9136 107.906 68.9136H105.838V75.5229H107.918ZM104.666 67.9116H108.152C109.336 67.9116 110.254 68.3315 110.906 69.1714C111.488 69.9292 111.779 70.8999 111.779 72.0835C111.779 72.9976 111.607 73.8237 111.264 74.562C110.658 75.8667 109.617 76.519 108.14 76.519H104.666V67.9116ZM117.703 72.9917L116.396 69.189L115.008 72.9917H117.703ZM115.787 67.9116H117.105L120.228 76.519H118.951L118.078 73.9409H114.674L113.742 76.519H112.547L115.787 67.9116ZM119.73 67.9116H121.09L123.562 72.0483L126.035 67.9116H127.4L124.148 73.0503V76.519H122.982V73.0503L119.73 67.9116Z" fill="black"/>
<path d="M63.0961 52.583L55.9474 46.944L56.7007 45.8251L64.7093 48.2583L64.7257 48.2405L60.0991 40.7634L60.8442 39.6533L67.993 45.2923L67.5017 46.0205L61.1227 40.9854L61.1063 41.0031L65.7738 48.578L65.3153 49.2706L57.2248 46.793L57.2084 46.8108L63.5875 51.8459L63.0961 52.583Z" fill="black"/>
<path d="M67.6326 38.7922C67.2232 38.2505 66.9038 37.6821 66.6746 37.0872C66.4535 36.4922 66.3388 35.8972 66.3306 35.3111C66.3306 34.725 66.4453 34.1478 66.6746 33.5884C66.912 33.0289 67.2805 32.5227 67.7964 32.0698C68.3287 31.5903 68.8691 31.2795 69.426 31.1197C69.9828 30.9598 70.5232 30.942 71.0637 31.0486C71.6042 31.1641 72.12 31.3949 72.6196 31.7502C73.1191 32.1054 73.5694 32.5494 73.9871 33.0911C74.3965 33.6239 74.7077 34.1833 74.9288 34.7783C75.1499 35.3733 75.2645 35.9594 75.2645 36.5455C75.2645 37.1316 75.1499 37.7088 74.9124 38.2771C74.6749 38.8366 74.2901 39.3516 73.766 39.8223C73.2419 40.2929 72.7014 40.6037 72.1528 40.7547C71.6042 40.9057 71.0555 40.9234 70.5232 40.808C69.991 40.6925 69.4751 40.4617 68.9838 40.1065C68.4843 39.769 68.0339 39.325 67.6326 38.7922ZM73.3156 39.2273C73.7578 38.8277 74.069 38.4014 74.2491 37.9308C74.4293 37.4601 74.5111 36.9895 74.4866 36.5011C74.462 36.0127 74.3474 35.5331 74.1427 35.0447C73.9379 34.5563 73.6677 34.1034 73.3402 33.6683C72.9471 33.1532 72.5377 32.7447 72.1119 32.4428C71.686 32.1409 71.252 31.9455 70.8099 31.8567C70.3677 31.7679 69.9337 31.7857 69.5078 31.9189C69.0738 32.0521 68.6644 32.2918 68.2714 32.6471C67.8373 33.0378 67.5262 33.464 67.3542 33.9347C67.1741 34.4053 67.1004 34.8849 67.1249 35.3733C67.1495 35.8617 67.2641 36.3501 67.4689 36.8296C67.6736 37.3181 67.9438 37.771 68.2714 38.2061C68.6071 38.6412 68.9756 39.0142 69.3768 39.325C69.7781 39.6358 70.1957 39.8489 70.6297 39.9644C71.0637 40.0798 71.5059 40.0887 71.9645 39.9821C72.4148 39.8844 72.8652 39.6269 73.3156 39.2273Z" fill="black"/>
<path d="M77.2708 26.8035L77.2463 26.8124L80.62 34.334L79.8667 34.7336L76.0016 26.1109L76.8532 25.658L84.829 30.7641L84.8536 30.7552L81.4716 23.2248L82.225 22.8252L86.0901 31.4479L85.2139 31.9097L77.2708 26.8035Z" fill="black"/>
<path d="M89.8732 30.0715L87.826 20.7384L93.55 19.2554L93.7137 20.0102L88.8005 21.2801L89.5375 24.6457L93.9676 23.5001L94.1314 24.2549L89.7013 25.4005L90.5119 29.1036L95.5398 27.807L95.7036 28.5619L89.8732 30.0715Z" fill="black"/>
<path d="M101.804 23.056L104.334 18.3495L105.309 18.314L102.255 23.8286L102.369 28.0112L101.534 28.0378L101.419 23.9263L98.1111 18.5537L99.0692 18.5182L101.804 23.056Z" fill="black"/>
<path d="M114.3 29.2455L116.904 20.0811L119.958 21.1023C120.45 21.271 120.859 21.4664 121.179 21.6884C121.498 21.9193 121.744 22.1679 121.907 22.4432C122.071 22.7185 122.169 23.0204 122.186 23.3401C122.21 23.6598 122.169 23.9884 122.071 24.3258C121.981 24.6455 121.858 24.9119 121.719 25.1161C121.572 25.3204 121.416 25.4802 121.244 25.5957C121.072 25.7111 120.9 25.7822 120.712 25.8177C120.523 25.8532 120.343 25.8621 120.163 25.8354L120.155 25.8621C120.712 26.1551 121.08 26.5459 121.252 27.052C121.424 27.5582 121.424 28.1088 121.244 28.7215C121.113 29.2011 120.925 29.574 120.695 29.8582C120.466 30.1424 120.196 30.3466 119.901 30.4709C119.598 30.5953 119.271 30.6397 118.902 30.6219C118.534 30.5953 118.157 30.5153 117.756 30.3821L114.3 29.2455ZM115.307 28.7748L117.338 29.4497C117.78 29.5918 118.165 29.6984 118.501 29.7694C118.837 29.8316 119.131 29.8404 119.377 29.7783C119.623 29.7161 119.836 29.5829 120.008 29.3787C120.18 29.1744 120.327 28.8725 120.442 28.4729C120.548 28.091 120.581 27.7625 120.532 27.4872C120.483 27.2119 120.36 26.981 120.18 26.7768C119.999 26.5725 119.762 26.4038 119.467 26.2528C119.172 26.1019 118.845 25.9687 118.468 25.8443L116.347 25.1339L115.307 28.7748ZM116.552 24.3969L118.575 25.0717C118.992 25.2138 119.352 25.2849 119.655 25.3026C119.958 25.3204 120.22 25.2849 120.433 25.1961C120.646 25.1073 120.826 24.9652 120.957 24.7698C121.097 24.5745 121.203 24.3436 121.277 24.0594C121.359 23.7752 121.383 23.5088 121.359 23.2868C121.326 23.0559 121.236 22.8517 121.088 22.6652C120.933 22.4787 120.72 22.31 120.433 22.1502C120.147 21.9903 119.786 21.8393 119.344 21.6973L117.502 21.0845L116.552 24.3969Z" fill="black"/>
<path d="M123.193 32.5137L130.587 26.04L131.406 26.5462L129.981 36.6963L129.236 36.2346L129.719 33.0732L126.223 30.9242L123.946 32.9844L123.193 32.5137ZM126.821 30.4002L129.834 32.2562L130.628 26.9547L126.821 30.4002Z" fill="black"/>
<path d="M141.405 38.3657C141.79 37.6376 141.912 36.9715 141.781 36.3766C141.65 35.7816 141.307 35.2044 140.758 34.6538C140.365 34.2631 139.955 34.0144 139.53 33.899C139.104 33.7835 138.678 33.7835 138.244 33.8901C137.818 33.9967 137.401 34.192 136.991 34.4851C136.582 34.7781 136.205 35.1333 135.853 35.5507C135.517 35.9414 135.231 36.3677 134.985 36.8206C134.739 37.2735 134.575 37.7352 134.502 38.2148C134.428 38.6854 134.461 39.165 134.6 39.6356C134.739 40.1151 135.034 40.5769 135.484 41.0209C135.763 41.2962 136.058 41.5005 136.369 41.6248C136.68 41.758 136.999 41.8201 137.319 41.8113C137.638 41.8113 137.957 41.7491 138.269 41.6248C138.588 41.5093 138.891 41.3317 139.194 41.1097L139.841 41.7491C139.48 42.0155 139.104 42.2375 138.711 42.4062C138.318 42.575 137.908 42.6549 137.491 42.6638C137.073 42.6727 136.639 42.575 136.205 42.3885C135.771 42.202 135.329 41.8912 134.895 41.4649C134.395 40.9676 134.051 40.4437 133.863 39.8843C133.675 39.3337 133.609 38.7742 133.675 38.2059C133.732 37.6376 133.904 37.0781 134.182 36.5275C134.461 35.977 134.813 35.453 135.239 34.9468C135.812 34.2719 136.369 33.7747 136.917 33.455C137.466 33.1353 138.006 32.9665 138.531 32.931C139.055 32.9044 139.554 33.0021 140.037 33.233C140.52 33.4638 140.979 33.7924 141.413 34.2275C141.749 34.5561 142.011 34.9113 142.224 35.2932C142.428 35.675 142.568 36.0658 142.625 36.4742C142.682 36.8827 142.666 37.3001 142.576 37.7175C142.486 38.1348 142.306 38.5611 142.052 38.9785L141.405 38.3657Z" fill="black"/>
<path d="M140.242 47.1659L147.505 41.7046L147.98 42.4505L144.213 45.2833L150.56 46.491L151.1 47.3347L146.212 46.4022L144.181 53.3466L143.599 52.4408L145.45 46.1891L143.517 45.8073L140.709 47.9208L140.242 47.1659Z" fill="black"/>
<path d="M66.4544 95.5476L67.0947 95.227L68.9325 98.6409L64.8079 100.692L64.4587 100.051L65.8224 99.3701C65.5064 99.3461 65.2071 99.298 64.916 99.2098C64.625 99.1297 64.3423 99.0015 64.0845 98.8332C63.8184 98.6649 63.5689 98.4405 63.3278 98.1681C63.0866 97.9036 62.8621 97.567 62.6459 97.1744C62.3798 96.6695 62.2135 96.1646 62.1636 95.6438C62.1137 95.1309 62.1719 94.626 62.3632 94.1372C62.5461 93.6483 62.8621 93.1916 63.2945 92.7508C63.7352 92.3181 64.309 91.9254 65.0158 91.5728C65.5979 91.2843 66.18 91.084 66.7704 90.9798C67.3525 90.8756 67.918 90.8836 68.4585 91.0038C68.999 91.124 69.4979 91.3644 69.9553 91.717C70.4209 92.0696 70.8201 92.5665 71.1527 93.1916C71.3772 93.6163 71.5352 94.033 71.635 94.4497C71.7265 94.8664 71.7514 95.2751 71.6932 95.6678C71.6433 96.0685 71.5103 96.4371 71.3024 96.7977C71.0945 97.1503 70.8035 97.4869 70.4209 97.7834L70.0052 97.0061C70.2629 96.7897 70.4708 96.5493 70.6205 96.2688C70.7702 95.9883 70.87 95.6998 70.9032 95.4033C70.9448 95.0988 70.9282 94.7943 70.87 94.4818C70.8118 94.1692 70.6954 93.8567 70.5374 93.5682C70.2546 93.0473 69.922 92.6386 69.5312 92.3581C69.1403 92.0777 68.7162 91.8933 68.2506 91.8212C67.7849 91.7491 67.286 91.7651 66.7538 91.8853C66.2216 92.0055 65.6811 92.2059 65.1156 92.4864C64.6749 92.7107 64.2841 92.9832 63.9597 93.3118C63.6271 93.6403 63.3777 94.0009 63.2113 94.4016C63.045 94.8023 62.9619 95.219 62.9785 95.6678C62.9951 96.1166 63.1282 96.5653 63.3693 97.0221C63.4858 97.2385 63.6271 97.4468 63.8017 97.6472C63.9764 97.8555 64.1676 98.0318 64.4005 98.1921C64.625 98.3524 64.8745 98.4806 65.1572 98.5768C65.4316 98.6729 65.7393 98.721 66.0636 98.729C66.3796 98.729 66.6873 98.689 66.9866 98.5928C67.286 98.5046 67.5853 98.3844 67.893 98.2482L66.4544 95.5476Z" fill="black"/>
<path d="M75.0195 99.522L75.6432 100.115L71.8846 103.785C71.1029 104.547 70.6871 105.244 70.6539 105.877C70.6123 106.502 70.9366 107.143 71.6185 107.792C71.976 108.129 72.3253 108.377 72.6579 108.521C72.9988 108.674 73.3315 108.73 73.6724 108.698C74.0133 108.666 74.346 108.545 74.6952 108.345C75.0362 108.145 75.3937 107.856 75.7679 107.496L79.5266 103.825L80.1502 104.418L76.217 108.257C75.3937 109.058 74.5455 109.475 73.689 109.491C72.8242 109.507 71.9677 109.106 71.1029 108.289C70.2381 107.464 69.814 106.638 69.8389 105.797C69.8556 104.963 70.2713 104.146 71.078 103.361L75.0195 99.522Z" fill="black"/>
<path d="M78.1627 113.738L85.655 107.808L86.5282 108.265L85.3973 117.513L84.599 117.096L84.9981 114.211L81.2727 112.272L78.961 114.155L78.1627 113.738ZM81.8798 111.791L85.0896 113.466L85.7299 108.634L81.8798 111.791Z" fill="black"/>
<path d="M92.2161 115.581L91.3014 119.412L90.4449 119.211L92.4489 110.789L96.008 111.574C97.0059 111.799 97.7293 112.135 98.1784 112.6C98.6274 113.065 98.7521 113.69 98.5692 114.467C98.4445 114.996 98.2283 115.397 97.9206 115.653C97.6129 115.918 97.1722 116.094 96.5984 116.198C96.8479 116.343 97.0308 116.519 97.1389 116.711C97.2553 116.912 97.3219 117.12 97.3468 117.352C97.3717 117.577 97.3634 117.817 97.3302 118.049C97.2969 118.29 97.2553 118.514 97.2138 118.739C97.1472 119.059 97.0973 119.332 97.0641 119.548C97.0308 119.764 97.0225 119.941 97.0142 120.077C97.0142 120.213 97.0225 120.325 97.0474 120.414C97.0724 120.494 97.1057 120.566 97.1555 120.614L97.1389 120.686L96.1909 120.486C96.1327 120.325 96.1161 120.117 96.1327 119.861C96.1577 119.604 96.1909 119.332 96.2325 119.059C96.2741 118.779 96.324 118.514 96.3739 118.25C96.4238 117.985 96.4487 117.777 96.457 117.601C96.457 117.36 96.4238 117.16 96.3406 117C96.2575 116.839 96.1494 116.703 96.008 116.599C95.8666 116.495 95.7003 116.407 95.5091 116.343C95.3178 116.278 95.1182 116.222 94.902 116.174L92.2161 115.581ZM95.0517 115.493C95.3677 115.565 95.6754 115.597 95.9664 115.597C96.2575 115.597 96.5152 115.549 96.7481 115.453C96.9809 115.365 97.1805 115.221 97.3551 115.036C97.5214 114.852 97.6462 114.612 97.7127 114.315C97.7875 114.003 97.7875 113.73 97.7127 113.498C97.6378 113.265 97.5131 113.073 97.3385 112.905C97.1639 112.744 96.9477 112.608 96.6899 112.504C96.4321 112.4 96.166 112.312 95.8833 112.248L93.1558 111.647L92.3824 114.892L95.0517 115.493Z" fill="black"/>
<path d="M102.087 121.215L105.413 112.432L106.411 112.4L110.311 120.918L109.404 120.951L108.224 118.274L103.983 118.426L102.985 121.183L102.087 121.215ZM104.257 117.721L107.908 117.593L105.912 113.121L104.257 117.721Z" fill="black"/>
<path d="M114.045 112.528L114.02 112.536L116.414 119.725L115.575 119.981L112.83 111.743L113.778 111.446L121.304 117.056L121.329 117.048L118.926 109.852L119.766 109.595L122.51 117.833L121.537 118.138L114.045 112.528Z" fill="black"/>
<path d="M122.41 108.353L128.106 104.803L128.497 105.388L126.019 106.935L130.501 113.618L129.761 114.075L125.279 107.392L122.801 108.938L122.41 108.353Z" fill="black"/>
<path d="M136.954 108.794L130.368 102.912L134.584 98.5283L135.116 99.0011L131.499 102.76L133.877 104.883L137.137 101.485L137.669 101.958L134.409 105.356L137.029 107.696L140.729 103.841L141.261 104.314L136.954 108.794Z" fill="black"/>
<path d="M144.463 99.8186L136.488 95.8278L139.349 90.5308L139.989 90.8513L137.536 95.4031L140.413 96.8456L142.625 92.7345L143.265 93.0551L141.062 97.1661L144.23 98.7528L146.741 94.0888L147.382 94.4094L144.463 99.8186Z" fill="black"/>
<path d="M145.211 68.6368H141.899L140.872 65.4258L139.845 68.6368H136.533L139.209 70.6184L138.196 73.8149L140.872 71.8334L143.548 73.8149L142.521 70.6039L145.211 68.6368Z" fill="#FFCE31"/>
<path d="M42.31 68.6368H38.9977L37.9708 65.4258L36.9438 68.6368H33.6316L36.3074 70.6184L35.2949 73.8149L37.9708 71.8334L40.6466 73.8149L39.6197 70.6039L42.31 68.6368Z" fill="#FFCE31"/>
<path d="M159.469 68.6368H156.157L155.13 65.4258L154.103 68.6368H150.79L153.466 70.6184L152.454 73.8149L155.13 71.8334L157.805 73.8149L156.778 70.6039L159.469 68.6368Z" fill="#FFCE31"/>
<path d="M56.5674 68.6368H53.2551L52.2282 65.4258L51.2012 68.6368H47.889L50.5648 70.6184L49.5523 73.8149L52.2282 71.8334L54.904 73.8149L53.8771 70.6039L56.5674 68.6368Z" fill="#FFCE31"/>
<path d="M173.726 68.6368H170.414L169.387 65.4258L168.36 68.6368H165.048L167.724 70.6184L166.711 73.8149L169.387 71.8334L172.063 73.8149L171.036 70.6039L173.726 68.6368Z" fill="#FFCE31"/>
<path d="M70.8249 68.6368H67.5126L66.4856 65.4258L65.4587 68.6368H62.1464L64.8223 70.6184L63.8098 73.8149L66.4856 71.8334L69.1615 73.8149L68.1345 70.6039L70.8249 68.6368Z" fill="#FFCE31"/>
</svg>
