<svg width="274" height="188" viewBox="0 0 274 188" fill="none" xmlns="http://www.w3.org/2000/svg">
<path d="M48.2546 113.644C47.0293 116.323 46.4848 117.266 47.2335 119.832C48.005 122.455 50.5916 124.124 53.0875 125.736C54.9934 126.962 56.9674 128.234 57.6254 129.687C58.3061 131.175 57.9771 133.525 57.6594 135.796C57.251 138.725 56.8199 141.746 58.2721 144.016C59.7356 146.299 62.6852 147.162 65.5214 148.002C67.711 148.649 69.9686 149.308 71.0237 150.534C72.0901 151.76 72.4304 154.099 72.7594 156.359C73.1792 159.288 73.6216 162.32 75.6637 164.102C77.7058 165.874 80.7575 165.885 83.7185 165.885C85.9988 165.885 88.3586 165.896 89.7313 166.782C91.0927 167.656 92.0683 169.791 93.0099 171.869C94.2465 174.571 95.5171 177.364 98.0017 178.5C100.452 179.624 103.368 178.761 106.204 177.932C108.405 177.285 110.674 176.626 112.262 177.092C113.794 177.546 115.325 179.306 116.811 181.009C118.763 183.257 120.793 185.585 123.505 185.982C126.148 186.357 128.689 184.722 131.163 183.132C133.103 181.883 135.111 180.6 136.79 180.6C138.469 180.6 140.465 181.894 142.417 183.132C144.64 184.563 146.932 186.027 149.292 186.027C149.553 186.027 149.813 186.016 150.063 185.971C152.774 185.585 154.805 183.257 156.757 180.998C158.243 179.294 159.774 177.523 161.306 177.08C162.883 176.615 165.163 177.285 167.364 177.92C170.189 178.749 173.116 179.601 175.566 178.488C178.039 177.353 179.321 174.56 180.547 171.857C181.488 169.791 182.464 167.656 183.825 166.782C185.198 165.896 187.558 165.896 189.838 165.885C192.799 165.874 195.851 165.874 197.893 164.102C199.935 162.331 200.377 159.299 200.808 156.359C201.137 154.099 201.478 151.76 202.533 150.534C203.599 149.308 205.857 148.649 208.035 148.002C210.883 147.162 213.821 146.299 215.296 144.016C216.759 141.746 216.328 138.725 215.908 135.796C215.591 133.525 215.25 131.186 215.943 129.699C216.612 128.234 218.575 126.974 220.48 125.747C222.988 124.135 225.574 122.466 226.334 119.843C227.083 117.277 226.618 116.267 225.393 113.587M47.8121 73.5515C46.5869 70.8719 46.4848 69.7705 47.2449 67.1931C48.0163 64.5703 50.603 62.9012 53.0988 61.2889C55.0048 60.0626 56.9788 58.7909 57.6368 57.3376C58.3174 55.8501 57.9884 53.4998 57.6708 51.2403C57.2624 48.3109 56.8313 45.2906 58.2834 43.0198C59.7582 40.7375 62.6965 39.8746 65.5441 39.0344C67.7223 38.3872 69.9799 37.7287 71.0463 36.5024C72.1128 35.2761 72.4531 32.9371 72.7821 30.6776C73.2019 27.7482 73.6443 24.7166 75.6864 22.934C77.7285 21.1627 80.7802 21.1513 83.7412 21.1513C86.0215 21.1513 88.3812 21.14 89.754 20.2543C91.1154 19.3801 92.091 17.2455 93.0326 15.1676C94.2692 12.4653 95.5398 9.67212 98.013 8.53669C100.452 7.41261 103.379 8.27554 106.215 9.10441C108.416 9.7516 110.697 10.4102 112.273 9.94463C113.805 9.49045 115.337 7.73053 116.823 6.02738C118.774 3.77923 120.805 1.44024 123.516 1.05419C126.148 0.679497 128.701 2.31452 131.174 3.90413C133.114 5.1531 135.122 6.43614 136.801 6.43614C138.48 6.43614 140.477 5.14175 142.428 3.90413C144.89 2.31452 147.431 0.679497 150.086 1.05419C152.797 1.44024 154.828 3.76787 156.779 6.02738C158.265 7.73053 159.797 9.50181 161.328 9.94463C162.905 10.4102 165.186 9.74025 167.387 9.10441C170.211 8.27554 173.138 7.42397 175.589 8.53669C178.062 9.67212 179.344 12.4653 180.581 15.1676C181.522 17.2341 182.498 19.3687 183.859 20.2543C185.232 21.14 187.592 21.14 189.872 21.1513C192.833 21.1513 195.885 21.1627 197.927 22.934C199.969 24.7052 200.411 27.7368 200.831 30.6776C201.16 32.9371 201.501 35.2761 202.567 36.5024C203.633 37.7287 205.891 38.3872 208.069 39.0344C210.917 39.8746 213.855 40.7375 215.319 43.0198C216.782 45.2906 216.351 48.3109 215.931 51.2403C215.614 53.5112 215.273 55.8502 215.965 57.3489C216.635 58.8136 218.597 60.074 220.503 61.3002C223.01 62.9125 225.597 64.5816 226.357 67.2045C227.106 69.7706 226.573 70.7584 225.359 73.4266L47.8121 73.5515Z" stroke="#211E1F" stroke-width="2" stroke-miterlimit="10"/>
<path d="M242.898 113.598H205.902H173.014H90.6388H57.7615H35.3441H31.918H3L21.5942 93.5353L3 73.4268H31.918H35.3441H56.2186H87.916H175.748H207.445H244.395M241.673 113.598H270.568L249.716 93.5353L270.59 73.4268H241.673" stroke="#211E1F" stroke-width="2" stroke-miterlimit="10"/>
<path d="M95.5967 113.598C103.652 128.041 119.08 137.806 136.79 137.806C154.499 137.806 169.917 128.041 177.983 113.598" stroke="#211E1F" stroke-width="2" stroke-miterlimit="10"/>
<path d="M92.873 73.4267C99.7367 55.8729 116.811 43.4399 136.789 43.4399C156.767 43.4399 173.841 55.8729 180.705 73.4267" stroke="#211E1F" stroke-width="2" stroke-miterlimit="10"/>
<path d="M62.7188 113.598C72.498 145.231 101.972 168.212 136.789 168.212C171.618 168.212 201.08 145.231 210.86 113.598" stroke="#211E1F" stroke-width="2" stroke-miterlimit="10"/>
<path d="M61.1758 73.4265C68.9924 38.8412 99.873 13.0215 136.789 13.0215C173.705 13.0215 204.586 38.8412 212.402 73.4151" stroke="#211E1F" stroke-width="2" stroke-miterlimit="10"/>
<path d="M108.07 92.6C109.243 92.664 110.134 92.984 110.742 93.56C111.36 94.1253 111.67 94.8667 111.67 95.784C111.67 96.424 111.515 96.9947 111.206 97.496C110.896 97.9867 110.438 98.376 109.83 98.664C109.222 98.952 108.48 99.096 107.606 99.096C106.795 99.096 106.027 98.968 105.302 98.712C104.587 98.4453 104.011 98.0933 103.574 97.656L104.134 96.744C104.507 97.128 105.003 97.4427 105.622 97.688C106.24 97.9227 106.902 98.04 107.606 98.04C108.523 98.04 109.232 97.8427 109.734 97.448C110.235 97.0427 110.486 96.488 110.486 95.784C110.486 95.0907 110.235 94.5467 109.734 94.152C109.232 93.7573 108.475 93.56 107.462 93.56H106.662V92.712L109.766 88.824H104.038V87.8H111.238V88.616L108.07 92.6ZM117.757 99.096C116.893 99.096 116.12 98.8667 115.437 98.408C114.765 97.9493 114.237 97.2933 113.853 96.44C113.48 95.576 113.293 94.5627 113.293 93.4C113.293 92.2373 113.48 91.2293 113.853 90.376C114.237 89.512 114.765 88.8507 115.437 88.392C116.12 87.9333 116.893 87.704 117.757 87.704C118.621 87.704 119.389 87.9333 120.061 88.392C120.744 88.8507 121.277 89.512 121.661 90.376C122.045 91.2293 122.237 92.2373 122.237 93.4C122.237 94.5627 122.045 95.576 121.661 96.44C121.277 97.2933 120.744 97.9493 120.061 98.408C119.389 98.8667 118.621 99.096 117.757 99.096ZM117.757 98.04C118.408 98.04 118.978 97.8587 119.469 97.496C119.97 97.1333 120.36 96.6053 120.637 95.912C120.914 95.2187 121.053 94.3813 121.053 93.4C121.053 92.4187 120.914 91.5813 120.637 90.888C120.36 90.1947 119.97 89.6667 119.469 89.304C118.978 88.9413 118.408 88.76 117.757 88.76C117.106 88.76 116.53 88.9413 116.029 89.304C115.538 89.6667 115.154 90.1947 114.877 90.888C114.6 91.5813 114.461 92.4187 114.461 93.4C114.461 94.3813 114.6 95.2187 114.877 95.912C115.154 96.6053 115.538 97.1333 116.029 97.496C116.53 97.8587 117.106 98.04 117.757 98.04ZM128.202 94.168H132.394V95.16H128.202V94.168ZM139.363 87.8H143.923C145.107 87.8 146.152 88.04 147.059 88.52C147.966 88.9893 148.67 89.6507 149.171 90.504C149.672 91.3467 149.923 92.312 149.923 93.4C149.923 94.488 149.672 95.4587 149.171 96.312C148.67 97.1547 147.966 97.816 147.059 98.296C146.152 98.7653 145.107 99 143.923 99H139.363V87.8ZM143.859 97.976C144.84 97.976 145.699 97.784 146.435 97.4C147.171 97.0053 147.742 96.4667 148.147 95.784C148.552 95.0907 148.755 94.296 148.755 93.4C148.755 92.504 148.552 91.7147 148.147 91.032C147.742 90.3387 147.171 89.8 146.435 89.416C145.699 89.0213 144.84 88.824 143.859 88.824H140.547V97.976H143.859ZM159.45 96.008H153.21L151.866 99H150.634L155.754 87.8H156.922L162.042 99H160.794L159.45 96.008ZM159.018 95.048L156.33 89.032L153.642 95.048H159.018ZM167.078 95.128V99H165.91V95.128L161.43 87.8H162.694L166.534 94.088L170.374 87.8H171.558L167.078 95.128Z" fill="black"/>
<path d="M82.7714 69.4713L73.2822 61.9862L74.2822 60.501L84.9128 63.7308L84.9345 63.7072L78.7931 53.782L79.7823 52.3086L89.2715 59.7937L88.6193 60.7603L80.1519 54.0767L80.1301 54.1003L86.3258 64.1551L85.7171 65.0746L74.9779 61.7858L74.9562 61.8094L83.4236 68.493L82.7714 69.4713Z" fill="black"/>
<path d="M88.7927 51.1653C88.2492 50.4463 87.8253 49.6919 87.521 48.9021C87.2275 48.1123 87.0753 47.3225 87.0645 46.5446C87.0645 45.7666 87.2166 45.0004 87.521 44.2578C87.8362 43.5152 88.3253 42.8433 89.0101 42.2421C89.7167 41.6056 90.434 41.193 91.1732 40.9808C91.9123 40.7686 92.6297 40.7451 93.3471 40.8865C94.0645 41.0398 94.7493 41.3462 95.4124 41.8177C96.0754 42.2892 96.6732 42.8786 97.2276 43.5977C97.7711 44.3049 98.1841 45.0475 98.4776 45.8373C98.7711 46.6271 98.9233 47.4051 98.9233 48.183C98.9233 48.961 98.7711 49.7272 98.4559 50.4816C98.1406 51.2242 97.6298 51.9079 96.9341 52.5327C96.2384 53.1574 95.5211 53.57 94.7928 53.7704C94.0645 53.9707 93.3362 53.9943 92.6297 53.8411C91.9232 53.6878 91.2384 53.3814 90.5862 52.9099C89.9232 52.4619 89.3253 51.8726 88.7927 51.1653ZM96.3363 51.7429C96.9232 51.2125 97.3363 50.6466 97.5754 50.0219C97.8145 49.3972 97.9232 48.7724 97.8906 48.1241C97.858 47.4758 97.7059 46.8393 97.4341 46.1909C97.1624 45.5426 96.8037 44.9415 96.3689 44.3639C95.8471 43.6802 95.3037 43.138 94.7384 42.7372C94.1732 42.3364 93.5971 42.0771 93.0102 41.9592C92.4232 41.8413 91.8471 41.8649 91.2819 42.0417C90.7058 42.2185 90.1623 42.5368 89.6406 43.0083C89.0645 43.5269 88.6514 44.0927 88.4232 44.7175C88.184 45.3422 88.0862 45.9788 88.1188 46.6271C88.1514 47.2754 88.3036 47.9237 88.5753 48.5602C88.8471 49.2086 89.2058 49.8097 89.6406 50.3873C90.0862 50.9649 90.5754 51.46 91.108 51.8726C91.6406 52.2851 92.1949 52.568 92.771 52.7213C93.3471 52.8745 93.9341 52.8863 94.5428 52.7448C95.1406 52.6152 95.7384 52.2733 96.3363 51.7429Z" fill="black"/>
<path d="M101.587 35.252L101.555 35.2638L106.033 45.2479L105.033 45.7784L99.9023 34.3326L101.033 33.7314L111.62 40.5093L111.652 40.4975L107.163 30.5016L108.163 29.9712L113.294 41.4169L112.131 42.0299L101.587 35.252Z" fill="black"/>
<path d="M118.315 39.5897L115.598 27.201L123.196 25.2324L123.413 26.2344L116.891 27.92L117.869 32.3875L123.75 30.8669L123.967 31.8688L118.087 33.3894L119.163 38.3049L125.837 36.5839L126.054 37.5858L118.315 39.5897Z" fill="black"/>
<path d="M134.152 30.2775L137.511 24.0301L138.804 23.9829L134.75 31.303L134.902 36.855L133.794 36.8903L133.641 31.4327L129.25 24.3012L130.522 24.254L134.152 30.2775Z" fill="black"/>
<path d="M150.739 38.4934L154.196 26.3286L158.25 27.6842C158.902 27.9082 159.446 28.1675 159.87 28.4622C160.294 28.7686 160.62 29.0987 160.837 29.4641C161.055 29.8295 161.185 30.2303 161.207 30.6547C161.239 31.079 161.185 31.5152 161.055 31.9631C160.935 32.3874 160.772 32.7411 160.587 33.0122C160.392 33.2833 160.185 33.4955 159.957 33.6487C159.728 33.8019 159.5 33.8963 159.25 33.9434C159 33.9906 158.761 34.0023 158.522 33.967L158.511 34.0023C159.25 34.3913 159.739 34.91 159.968 35.5819C160.196 36.2538 160.196 36.9846 159.957 37.7979C159.783 38.4345 159.533 38.9296 159.228 39.3068C158.924 39.684 158.565 39.9551 158.174 40.1201C157.772 40.2851 157.337 40.3441 156.848 40.3205C156.359 40.2851 155.859 40.179 155.326 40.0022L150.739 38.4934ZM152.076 37.8687L154.772 38.7645C155.359 38.9531 155.87 39.0946 156.315 39.1889C156.761 39.2714 157.152 39.2832 157.478 39.2007C157.805 39.1182 158.087 38.9413 158.315 38.6702C158.544 38.3991 158.739 37.9983 158.892 37.4679C159.033 36.961 159.076 36.5249 159.011 36.1595C158.946 35.7941 158.783 35.4876 158.544 35.2165C158.305 34.9453 157.989 34.7214 157.598 34.521C157.207 34.3206 156.772 34.1438 156.272 33.9788L153.457 33.0358L152.076 37.8687ZM153.728 32.0574L156.413 32.9532C156.968 33.1418 157.446 33.2361 157.848 33.2597C158.25 33.2833 158.598 33.2361 158.881 33.1183C159.163 33.0004 159.402 32.8118 159.576 32.5525C159.761 32.2931 159.902 31.9867 160 31.6095C160.109 31.2323 160.142 30.8786 160.109 30.5839C160.065 30.2775 159.946 30.0063 159.75 29.7588C159.544 29.5113 159.261 29.2873 158.881 29.0751C158.5 28.8629 158.022 28.6626 157.435 28.474L154.989 27.6606L153.728 32.0574Z" fill="black"/>
<path d="M162.544 42.8314L172.359 34.2383L173.446 34.9102L171.555 48.3834L170.566 47.7704L171.207 43.5741L166.566 40.7215L163.544 43.4562L162.544 42.8314ZM167.359 40.026L171.359 42.4896L172.414 35.4524L167.359 40.026Z" fill="black"/>
<path d="M186.718 50.5996C187.228 49.633 187.391 48.7489 187.218 47.9591C187.044 47.1694 186.587 46.4032 185.859 45.6723C185.337 45.1537 184.794 44.8236 184.228 44.6704C183.663 44.5172 183.098 44.5172 182.522 44.6586C181.957 44.8001 181.402 45.0594 180.859 45.4484C180.315 45.8374 179.815 46.3089 179.348 46.8629C178.902 47.3815 178.522 47.9474 178.196 48.5485C177.87 49.1497 177.652 49.7626 177.554 50.3992C177.457 51.0239 177.5 51.6604 177.685 52.2852C177.87 52.9217 178.261 53.5347 178.859 54.1241C179.228 54.4895 179.62 54.7606 180.033 54.9256C180.446 55.1024 180.87 55.1849 181.294 55.1732C181.718 55.1732 182.141 55.0906 182.554 54.9256C182.978 54.7724 183.381 54.5366 183.783 54.2419L184.641 55.0906C184.163 55.4443 183.663 55.739 183.141 55.9629C182.62 56.1869 182.076 56.293 181.522 56.3048C180.968 56.3165 180.391 56.1869 179.815 55.9393C179.239 55.6918 178.652 55.2792 178.076 54.7134C177.413 54.0533 176.957 53.3579 176.707 52.6152C176.457 51.8844 176.37 51.1418 176.457 50.3874C176.533 49.633 176.761 48.8904 177.131 48.1595C177.5 47.4287 177.967 46.7332 178.533 46.0613C179.294 45.1655 180.033 44.5054 180.761 44.081C181.489 43.6567 182.207 43.4327 182.902 43.3856C183.598 43.3502 184.261 43.4799 184.902 43.7863C185.544 44.0928 186.152 44.5289 186.728 45.1065C187.174 45.5427 187.522 46.0142 187.805 46.5211C188.076 47.0279 188.261 47.5466 188.337 48.0888C188.413 48.631 188.391 49.185 188.272 49.7391C188.152 50.2931 187.913 50.8589 187.576 51.4129L186.718 50.5996Z" fill="black"/>
<path d="M185.175 62.2806L194.816 55.0312L195.447 56.0214L190.447 59.7817L198.871 61.3848L199.588 62.5046L193.099 61.2669L190.403 70.4848L189.631 69.2825L192.088 60.984L189.523 60.4771L185.794 63.2826L185.175 62.2806Z" fill="black"/>
<path d="M87.2289 126.502L88.0788 126.077L90.5183 130.608L85.0434 133.332L84.5798 132.481L86.39 131.576C85.9706 131.544 85.5732 131.481 85.1869 131.364C84.8005 131.257 84.4252 131.087 84.0831 130.864C83.7298 130.64 83.3987 130.342 83.0786 129.981C82.7585 129.63 82.4605 129.183 82.1735 128.662C81.8203 127.992 81.5995 127.321 81.5333 126.63C81.467 125.949 81.5443 125.279 81.7982 124.63C82.041 123.981 82.4605 123.375 83.0345 122.79C83.6195 122.216 84.3811 121.694 85.3193 121.226C86.092 120.843 86.8647 120.577 87.6484 120.439C88.421 120.301 89.1716 120.311 89.8891 120.471C90.6066 120.631 91.2688 120.95 91.8759 121.418C92.4941 121.886 93.0239 122.545 93.4654 123.375C93.7634 123.939 93.9732 124.492 94.1056 125.045C94.227 125.598 94.2602 126.141 94.1829 126.662C94.1167 127.194 93.94 127.683 93.6641 128.162C93.3881 128.63 93.0018 129.077 92.4941 129.47L91.9422 128.438C92.2843 128.151 92.5603 127.832 92.759 127.46C92.9577 127.087 93.0901 126.704 93.1343 126.311C93.1895 125.907 93.1674 125.502 93.0901 125.088C93.0129 124.673 92.8583 124.258 92.6486 123.875C92.2733 123.184 91.8318 122.641 91.313 122.269C90.7942 121.896 90.2313 121.652 89.6131 121.556C88.995 121.46 88.3327 121.482 87.6263 121.641C86.9198 121.801 86.2024 122.067 85.4518 122.439C84.8668 122.737 84.348 123.098 83.9175 123.535C83.476 123.971 83.1448 124.449 82.9241 124.981C82.7033 125.513 82.5929 126.066 82.615 126.662C82.6371 127.258 82.8137 127.853 83.1338 128.46C83.2883 128.747 83.476 129.023 83.7078 129.289C83.9396 129.566 84.1934 129.8 84.5025 130.013C84.8005 130.225 85.1317 130.396 85.507 130.523C85.8712 130.651 86.2796 130.715 86.7101 130.725C87.1296 130.725 87.538 130.672 87.9353 130.545C88.3327 130.428 88.7301 130.268 89.1385 130.087L87.2289 126.502Z" fill="black"/>
<path d="M98.5988 131.778L99.4266 132.565L94.4374 137.437C93.3999 138.448 92.848 139.373 92.8038 140.214C92.7486 141.043 93.1791 141.894 94.0842 142.756C94.5589 143.203 95.0225 143.533 95.464 143.724C95.9165 143.926 96.3581 144.001 96.8106 143.958C97.2632 143.916 97.7047 143.756 98.1683 143.49C98.6209 143.224 99.0955 142.841 99.5922 142.362L104.581 137.491L105.409 138.278L100.188 143.373C99.0955 144.437 97.9696 144.99 96.8327 145.011C95.6847 145.032 94.5478 144.501 93.3999 143.416C92.2519 142.32 91.689 141.224 91.7221 140.107C91.7442 139.001 92.2961 137.916 93.3668 136.874L98.5988 131.778Z" fill="black"/>
<path d="M102.771 150.649L112.716 142.777L113.875 143.384L112.374 155.659L111.314 155.106L111.844 151.277L106.899 148.702L103.83 151.202L102.771 150.649ZM107.705 148.064L111.965 150.287L112.815 143.873L107.705 148.064Z" fill="black"/>
<path d="M121.425 153.096L120.211 158.18L119.074 157.914L121.734 146.734L126.459 147.777C127.783 148.075 128.744 148.521 129.34 149.138C129.936 149.755 130.101 150.585 129.858 151.617C129.693 152.319 129.406 152.851 128.997 153.191C128.589 153.542 128.004 153.776 127.242 153.915C127.574 154.106 127.816 154.34 127.96 154.595C128.114 154.861 128.203 155.138 128.236 155.446C128.269 155.744 128.258 156.063 128.214 156.372C128.17 156.691 128.114 156.989 128.059 157.287C127.971 157.712 127.905 158.074 127.861 158.361C127.816 158.648 127.805 158.882 127.794 159.063C127.794 159.244 127.805 159.393 127.838 159.51C127.872 159.616 127.916 159.712 127.982 159.776L127.96 159.872L126.702 159.606C126.624 159.393 126.602 159.116 126.624 158.776C126.657 158.435 126.702 158.074 126.757 157.712C126.812 157.34 126.878 156.989 126.944 156.638C127.011 156.287 127.044 156.01 127.055 155.776C127.055 155.457 127.011 155.191 126.9 154.978C126.79 154.766 126.646 154.585 126.459 154.446C126.271 154.308 126.05 154.191 125.796 154.106C125.543 154.021 125.278 153.946 124.991 153.883L121.425 153.096ZM125.189 152.978C125.609 153.074 126.017 153.117 126.403 153.117C126.79 153.117 127.132 153.053 127.441 152.925C127.75 152.808 128.015 152.617 128.247 152.372C128.468 152.128 128.633 151.808 128.721 151.415C128.821 151 128.821 150.638 128.721 150.33C128.622 150.021 128.457 149.766 128.225 149.543C127.993 149.33 127.706 149.149 127.364 149.011C127.022 148.872 126.668 148.755 126.293 148.67L122.673 147.873L121.646 152.181L125.189 152.978Z" fill="black"/>
<path d="M134.527 160.574L138.943 148.915L140.267 148.873L145.444 160.18L144.241 160.223L142.673 156.67L137.044 156.872L135.719 160.531L134.527 160.574ZM137.408 155.936L142.254 155.766L139.605 149.83L137.408 155.936Z" fill="black"/>
<path d="M150.4 149.043L150.367 149.053L153.545 158.595L152.431 158.935L148.788 148L150.046 147.607L160.036 155.053L160.069 155.042L156.879 145.49L157.994 145.149L161.636 156.085L160.345 156.489L150.4 149.043Z" fill="black"/>
<path d="M161.504 143.501L169.065 138.789L169.584 139.565L166.294 141.618L172.244 150.49L171.262 151.096L165.312 142.224L162.023 144.277L161.504 143.501Z" fill="black"/>
<path d="M180.81 144.086L172.067 136.278L177.664 130.459L178.37 131.087L173.569 136.076L176.725 138.895L181.052 134.385L181.759 135.012L177.432 139.522L180.909 142.629L185.821 137.512L186.527 138.14L180.81 144.086Z" fill="black"/>
<path d="M190.777 132.172L180.191 126.875L183.989 119.843L184.838 120.269L181.582 126.311L185.401 128.225L188.337 122.769L189.187 123.194L186.262 128.651L190.468 130.757L193.801 124.566L194.651 124.992L190.777 132.172Z" fill="black"/>
<path d="M191.771 90.7808H187.374L186.011 86.5186L184.648 90.7808H180.251L183.803 93.4112L182.459 97.6543L186.011 95.0239L189.563 97.6543L188.2 93.392L191.771 90.7808Z" fill="#FFCE31"/>
<path d="M55.1799 90.7808H50.7832L49.42 86.5186L48.0568 90.7808H43.6602L47.2121 93.4112L45.8681 97.6543L49.42 95.0239L52.9719 97.6543L51.6088 93.392L55.1799 90.7808Z" fill="#FFCE31"/>
<path d="M210.696 90.7808H206.299L204.936 86.5186L203.573 90.7808H199.176L202.728 93.4112L201.384 97.6543L204.936 95.0239L208.488 97.6543L207.125 93.392L210.696 90.7808Z" fill="#FFCE31"/>
<path d="M74.1057 90.7808H69.709L68.3458 86.5186L66.9826 90.7808H62.5859L66.1378 93.4112L64.7939 97.6543L68.3458 95.0239L71.8977 97.6543L70.5345 93.392L74.1057 90.7808Z" fill="#FFCE31"/>
<path d="M229.621 90.7808H225.225L223.861 86.5186L222.498 90.7808H218.102L221.653 93.4112L220.31 97.6543L223.861 95.0239L227.413 97.6543L226.05 93.392L229.621 90.7808Z" fill="#FFCE31"/>
<path d="M93.0305 90.7808H88.6338L87.2706 86.5186L85.9074 90.7808H81.5107L85.0627 93.4112L83.7187 97.6543L87.2706 95.0239L90.8225 97.6543L89.4593 93.392L93.0305 90.7808Z" fill="#FFCE31"/>
</svg>
