<svg width="35" height="35" viewBox="0 0 35 35" fill="none" xmlns="http://www.w3.org/2000/svg">
<path d="M13.2343 4.90001C13.2343 4.90001 8.7773 5.20626 5.86245 7.54688C5.84878 7.55235 5.83237 7.56055 5.8187 7.56876C5.31284 8.03633 4.93276 8.76094 4.46245 9.80001C3.99214 10.8391 3.49448 12.1762 3.04058 13.6719C2.1355 16.666 1.39995 20.341 1.39995 23.8C1.39722 23.923 1.4273 24.0434 1.48745 24.15C2.51011 25.9465 4.39136 27.032 6.14683 27.7156C7.9023 28.3992 9.52378 28.6727 10.3468 28.7C10.5792 28.7082 10.8007 28.6016 10.9375 28.4156L12.6437 26.0531C14.0191 26.3785 15.6324 26.6 17.5 26.6C19.3675 26.6 20.9808 26.3785 22.3562 26.0531L24.0625 28.4156C24.1992 28.6016 24.4207 28.7082 24.6531 28.7C25.4761 28.6727 27.0976 28.3992 28.8531 27.7156C30.6085 27.032 32.4898 25.9465 33.5125 24.15C33.5726 24.0434 33.6027 23.923 33.5999 23.8C33.5999 20.341 32.8644 16.666 31.9593 13.6719C31.5054 12.1762 31.0078 10.8391 30.5375 9.80001C30.0671 8.76094 29.6871 8.03633 29.1812 7.56876C29.1675 7.56055 29.1511 7.55235 29.1375 7.54688C26.2226 5.20626 21.7656 4.90001 21.7656 4.90001C21.7136 4.89454 21.6644 4.89454 21.6125 4.90001C21.3691 4.93282 21.164 5.09141 21.0656 5.31563C21.0656 5.31563 20.8277 5.8379 20.6718 6.58438C19.3074 6.36563 18.1589 6.30001 17.5 6.30001C16.841 6.30001 15.6925 6.36563 14.3281 6.58438C14.1722 5.8379 13.9343 5.31563 13.9343 5.31563C13.814 5.04219 13.5324 4.8754 13.2343 4.90001ZM12.7968 6.40938C12.8488 6.55157 12.8843 6.68555 12.9281 6.84688C11.3503 7.21329 9.62222 7.81211 8.0062 8.81563C7.7519 8.92227 7.58511 9.16837 7.5769 9.44454C7.57143 9.71797 7.7273 9.97227 7.97339 10.0926C8.22222 10.2102 8.51753 10.1746 8.72808 9.99688C11.971 7.98711 16.0972 7.70001 17.5 7.70001C18.9027 7.70001 23.0289 7.98711 26.2718 9.99688C26.4824 10.1746 26.7777 10.2102 27.0265 10.0926C27.2726 9.97227 27.4285 9.71797 27.423 9.44454C27.4148 9.16837 27.248 8.92227 26.9937 8.81563C25.3777 7.81211 23.6496 7.21329 22.0718 6.84688C22.1156 6.68555 22.1511 6.55157 22.2031 6.40938C23.0015 6.50782 26.105 6.92618 28.2187 8.59688C28.3554 8.72266 28.8312 9.42266 29.2687 10.3906C29.7062 11.3586 30.1656 12.6191 30.6031 14.0656C31.4562 16.8875 32.1453 20.3684 32.1781 23.5594C31.3824 24.8473 29.8894 25.8043 28.35 26.4031C26.95 26.9473 25.6429 27.1906 24.9593 27.2563L23.7781 25.6594C24.3796 25.4652 24.921 25.2547 25.3968 25.0469C27.1632 24.2703 28.1093 23.45 28.1093 23.45C28.3992 23.1902 28.4238 22.7445 28.164 22.4547C27.9042 22.1648 27.4585 22.1402 27.1687 22.4C27.1687 22.4 26.4359 23.0699 24.8281 23.7781C24.2375 24.0379 23.521 24.2949 22.7062 24.5219C22.5175 24.5 22.3289 24.5547 22.1812 24.675C20.8769 24.9922 19.3265 25.2 17.5 25.2C15.6597 25.2 14.1066 24.9731 12.7968 24.6531C12.6492 24.5547 12.4687 24.5137 12.2937 24.5438C11.4761 24.3168 10.7652 24.0379 10.1718 23.7781C8.56401 23.0699 7.8312 22.4 7.8312 22.4C7.67261 22.2523 7.45386 22.1895 7.24058 22.225C6.96987 22.266 6.74565 22.4602 6.67183 22.7254C6.59526 22.9879 6.68276 23.2723 6.89058 23.45C6.89058 23.45 7.83667 24.2703 9.60308 25.0469C10.0789 25.2547 10.6203 25.4652 11.2218 25.6594L10.0406 27.2563C9.35698 27.1906 8.04995 26.9473 6.64995 26.4031C5.1105 25.8043 3.61753 24.8473 2.82183 23.5594C2.85464 20.3684 3.5437 16.8875 4.39683 14.0656C4.83433 12.6191 5.2937 11.3586 5.7312 10.3906C6.1687 9.42266 6.64448 8.72266 6.7812 8.59688C8.89487 6.92618 11.9984 6.50782 12.7968 6.40938ZM12.95 14.7C11.1644 14.7 9.79995 16.3215 9.79995 18.2C9.79995 20.0785 11.1644 21.7 12.95 21.7C14.7355 21.7 16.1 20.0785 16.1 18.2C16.1 16.3215 14.7355 14.7 12.95 14.7ZM22.05 14.7C20.2644 14.7 18.9 16.3215 18.9 18.2C18.9 20.0785 20.2644 21.7 22.05 21.7C23.8355 21.7 25.2 20.0785 25.2 18.2C25.2 16.3215 23.8355 14.7 22.05 14.7ZM12.95 16.1C13.8714 16.1 14.7 16.9859 14.7 18.2C14.7 19.4141 13.8714 20.3 12.95 20.3C12.0285 20.3 11.2 19.4141 11.2 18.2C11.2 16.9859 12.0285 16.1 12.95 16.1ZM22.05 16.1C22.9714 16.1 23.8 16.9859 23.8 18.2C23.8 19.4141 22.9714 20.3 22.05 20.3C21.1285 20.3 20.3 19.4141 20.3 18.2C20.3 16.9859 21.1285 16.1 22.05 16.1Z" fill="#282828"/>
</svg>
