<svg width="35" height="35" viewBox="0 0 35 35" fill="none" xmlns="http://www.w3.org/2000/svg">
<path d="M31.064 4.19043C30.723 4.20539 30.3912 4.30027 30.0919 4.42012C29.7957 4.53916 28.0903 5.26704 25.572 6.34375C23.0536 7.42046 19.78 8.82257 16.5349 10.2129C10.0446 12.9935 3.66689 15.7295 3.66688 15.7295L3.71337 15.7117C3.71337 15.7117 3.32844 15.8404 2.93817 16.1123C2.74304 16.2483 2.53311 16.4238 2.36122 16.6797C2.18933 16.9356 2.06367 17.2983 2.11103 17.6818C2.27736 19.0292 3.67372 19.4113 3.67372 19.4113L3.67919 19.4141L9.91083 21.5469C10.0697 22.0769 11.8009 27.855 12.1817 29.0787C12.392 29.7552 12.5889 30.1455 12.7942 30.4117C12.897 30.5449 13.0047 30.648 13.1237 30.7234C13.171 30.7534 13.2208 30.7759 13.27 30.7959C13.2711 30.7964 13.2717 30.7954 13.2727 30.7959C13.2788 30.7986 13.2845 30.7988 13.2905 30.8014L13.2741 30.7973C13.2856 30.8019 13.2968 30.8097 13.3083 30.8137C13.3305 30.8215 13.3441 30.8212 13.3726 30.8273C14.0862 31.0765 14.6768 30.6141 14.6768 30.6141L14.7015 30.5949L18.5296 27.0443L24.7421 31.8883L24.82 31.9238C25.9074 32.4067 26.8908 32.1373 27.4354 31.6941C27.98 31.251 28.1942 30.6797 28.1942 30.6797L28.2175 30.6195L32.7825 6.82637C32.8993 6.29406 32.9159 5.83394 32.8058 5.41816C32.6956 5.00239 32.4279 4.64095 32.0921 4.44062C31.7562 4.24029 31.4049 4.17547 31.064 4.19043ZM31.1009 5.61367C31.2393 5.60726 31.342 5.62309 31.3743 5.64238C31.4067 5.66168 31.4212 5.65914 31.4522 5.77637C31.4833 5.8936 31.5001 6.14051 31.4153 6.52695L31.4126 6.53516L26.8735 30.1902C26.8628 30.214 26.7682 30.4329 26.5522 30.6086C26.3319 30.7879 26.0869 30.9278 25.4366 30.6551L18.6431 25.3572L18.4517 25.2068L18.4475 25.2109L16.4159 23.6865L27.8333 10.2539C27.921 10.151 27.9771 10.0248 27.9946 9.89069C28.0122 9.75657 27.9905 9.62024 27.9322 9.49818C27.8739 9.37612 27.7815 9.27356 27.6662 9.2029C27.5509 9.13224 27.4175 9.0965 27.2823 9.1C27.1502 9.10343 27.0217 9.1442 26.9118 9.21758L10.3907 20.2316L4.1495 18.0947C4.1495 18.0947 3.52975 17.7498 3.50009 17.5096C3.49844 17.4963 3.49113 17.5083 3.52333 17.4604C3.55554 17.4124 3.63649 17.3315 3.73798 17.2607C3.94096 17.1193 4.17274 17.0338 4.17274 17.0338L4.19599 17.0256L4.21923 17.016C4.21923 17.016 10.5973 14.2799 17.0872 11.4994C20.3321 10.1092 23.6052 8.70809 26.1229 7.63164C28.64 6.55547 30.4588 5.78086 30.6128 5.71894C30.7881 5.64874 30.9624 5.62008 31.1009 5.61367ZM23.5294 13.1551L14.871 23.342L14.8669 23.3461C14.8534 23.3624 14.8406 23.3792 14.8286 23.3967C14.8149 23.4156 14.8021 23.4352 14.7903 23.4555C14.7417 23.538 14.7105 23.6297 14.6987 23.7248C14.6987 23.7266 14.6987 23.7285 14.6987 23.7303L13.5708 28.8025C13.552 28.7477 13.5389 28.7277 13.5188 28.6631V28.6617C13.1606 27.5106 11.5272 22.0613 11.3013 21.3076L23.5294 13.1551ZM15.8485 25.0113L17.4044 26.1789L15.1184 28.298L15.8485 25.0113Z" fill="#F8F8FF"/>
</svg>
